%TF.GenerationSoftware,KiCad,Pcbnew,8.0.2*%
%TF.CreationDate,2024-05-23T15:50:06-04:00*%
%TF.ProjectId,ORA_Arduino_ESP_CAN_Shield_Rev_1.1,4f52415f-4172-4647-9569-6e6f5f455350,rev?*%
%TF.SameCoordinates,Original*%
%TF.FileFunction,Copper,L2,Bot*%
%TF.FilePolarity,Positive*%
%FSLAX46Y46*%
G04 Gerber Fmt 4.6, Leading zero omitted, Abs format (unit mm)*
G04 Created by KiCad (PCBNEW 8.0.2) date 2024-05-23 15:50:06*
%MOMM*%
%LPD*%
G01*
G04 APERTURE LIST*
G04 Aperture macros list*
%AMRoundRect*
0 Rectangle with rounded corners*
0 $1 Rounding radius*
0 $2 $3 $4 $5 $6 $7 $8 $9 X,Y pos of 4 corners*
0 Add a 4 corners polygon primitive as box body*
4,1,4,$2,$3,$4,$5,$6,$7,$8,$9,$2,$3,0*
0 Add four circle primitives for the rounded corners*
1,1,$1+$1,$2,$3*
1,1,$1+$1,$4,$5*
1,1,$1+$1,$6,$7*
1,1,$1+$1,$8,$9*
0 Add four rect primitives between the rounded corners*
20,1,$1+$1,$2,$3,$4,$5,0*
20,1,$1+$1,$4,$5,$6,$7,0*
20,1,$1+$1,$6,$7,$8,$9,0*
20,1,$1+$1,$8,$9,$2,$3,0*%
G04 Aperture macros list end*
%TA.AperFunction,ComponentPad*%
%ADD10R,1.700000X1.700000*%
%TD*%
%TA.AperFunction,ComponentPad*%
%ADD11O,1.700000X1.700000*%
%TD*%
%TA.AperFunction,SMDPad,CuDef*%
%ADD12RoundRect,0.150000X0.875000X0.150000X-0.875000X0.150000X-0.875000X-0.150000X0.875000X-0.150000X0*%
%TD*%
%TA.AperFunction,ComponentPad*%
%ADD13R,2.600000X2.600000*%
%TD*%
%TA.AperFunction,ComponentPad*%
%ADD14C,2.600000*%
%TD*%
%TA.AperFunction,ComponentPad*%
%ADD15C,1.500000*%
%TD*%
%TA.AperFunction,ViaPad*%
%ADD16C,0.600000*%
%TD*%
%TA.AperFunction,Conductor*%
%ADD17C,0.200000*%
%TD*%
G04 APERTURE END LIST*
D10*
%TO.P,Digital_1,1,Pin_1*%
%TO.N,SCL*%
X42560000Y-73580000D03*
D11*
%TO.P,Digital_1,2,Pin_2*%
%TO.N,SDA*%
X45100000Y-73580000D03*
%TO.P,Digital_1,3,Pin_3*%
%TO.N,unconnected-(Digital_1-Pin_3-Pad3)*%
X47640000Y-73580000D03*
%TO.P,Digital_1,4,Pin_4*%
%TO.N,GND*%
X50180000Y-73580000D03*
%TO.P,Digital_1,5,Pin_5*%
%TO.N,SCK*%
X52720000Y-73580000D03*
%TO.P,Digital_1,6,Pin_6*%
%TO.N,SO*%
X55260000Y-73580000D03*
%TO.P,Digital_1,7,Pin_7*%
%TO.N,SI*%
X57800000Y-73580000D03*
%TO.P,Digital_1,8,Pin_8*%
%TO.N,CS*%
X60340000Y-73580000D03*
%TO.P,Digital_1,9,Pin_9*%
%TO.N,unconnected-(Digital_1-Pin_9-Pad9)*%
X62880000Y-73580000D03*
%TO.P,Digital_1,10,Pin_10*%
%TO.N,unconnected-(Digital_1-Pin_10-Pad10)*%
X65420000Y-73580000D03*
%TD*%
D10*
%TO.P,Power_1,1,Pin_1*%
%TO.N,unconnected-(Power_1-Pin_1-Pad1)*%
X51715000Y-25320000D03*
D11*
%TO.P,Power_1,2,Pin_2*%
%TO.N,unconnected-(Power_1-Pin_2-Pad2)*%
X54255000Y-25320000D03*
%TO.P,Power_1,3,Pin_3*%
%TO.N,unconnected-(Power_1-Pin_3-Pad3)*%
X56795000Y-25320000D03*
%TO.P,Power_1,4,Pin_4*%
%TO.N,unconnected-(Power_1-Pin_4-Pad4)*%
X59335000Y-25320000D03*
%TO.P,Power_1,5,Pin_5*%
%TO.N,+5V*%
X61875000Y-25320000D03*
%TO.P,Power_1,6,Pin_6*%
%TO.N,GND*%
X64415000Y-25320000D03*
%TO.P,Power_1,7,Pin_7*%
X66955000Y-25320000D03*
%TO.P,Power_1,8,Pin_8*%
%TO.N,unconnected-(Power_1-Pin_8-Pad8)*%
X69495000Y-25320000D03*
%TD*%
D10*
%TO.P,Analog_1,1,Pin_1*%
%TO.N,unconnected-(Analog_1-Pin_1-Pad1)*%
X74570000Y-25310000D03*
D11*
%TO.P,Analog_1,2,Pin_2*%
%TO.N,unconnected-(Analog_1-Pin_2-Pad2)*%
X77110000Y-25310000D03*
%TO.P,Analog_1,3,Pin_3*%
%TO.N,unconnected-(Analog_1-Pin_3-Pad3)*%
X79650000Y-25310000D03*
%TO.P,Analog_1,4,Pin_4*%
%TO.N,unconnected-(Analog_1-Pin_4-Pad4)*%
X82190000Y-25310000D03*
%TO.P,Analog_1,5,Pin_5*%
%TO.N,unconnected-(Analog_1-Pin_5-Pad5)*%
X84730000Y-25310000D03*
%TO.P,Analog_1,6,Pin_6*%
%TO.N,unconnected-(Analog_1-Pin_6-Pad6)*%
X87270000Y-25310000D03*
%TD*%
D10*
%TO.P,Digital_2,1,Pin_1*%
%TO.N,unconnected-(Digital_2-Pin_1-Pad1)*%
X69490000Y-73580000D03*
D11*
%TO.P,Digital_2,2,Pin_2*%
%TO.N,unconnected-(Digital_2-Pin_2-Pad2)*%
X72030000Y-73580000D03*
%TO.P,Digital_2,3,Pin_3*%
%TO.N,unconnected-(Digital_2-Pin_3-Pad3)*%
X74570000Y-73580000D03*
%TO.P,Digital_2,4,Pin_4*%
%TO.N,unconnected-(Digital_2-Pin_4-Pad4)*%
X77110000Y-73580000D03*
%TO.P,Digital_2,5,Pin_5*%
%TO.N,unconnected-(Digital_2-Pin_5-Pad5)*%
X79650000Y-73580000D03*
%TO.P,Digital_2,6,Pin_6*%
%TO.N,INT*%
X82190000Y-73580000D03*
%TO.P,Digital_2,7,Pin_7*%
%TO.N,unconnected-(Digital_2-Pin_7-Pad7)*%
X84730000Y-73580000D03*
%TO.P,Digital_2,8,Pin_8*%
%TO.N,unconnected-(Digital_2-Pin_8-Pad8)*%
X87270000Y-73580000D03*
%TD*%
D12*
%TO.P,U2,1,TXCAN*%
%TO.N,Net-(U2-TXCAN)*%
X37975000Y-57730000D03*
%TO.P,U2,2,RXCAN*%
%TO.N,Net-(U2-RXCAN)*%
X37975000Y-59000000D03*
%TO.P,U2,3,CLKOUT/SOF*%
%TO.N,unconnected-(U2-CLKOUT{slash}SOF-Pad3)*%
X37975000Y-60270000D03*
%TO.P,U2,4,~{TX0RTS}*%
%TO.N,unconnected-(U2-~{TX0RTS}-Pad4)*%
X37975000Y-61540000D03*
%TO.P,U2,5,~{TX1RTS}*%
%TO.N,unconnected-(U2-~{TX1RTS}-Pad5)*%
X37975000Y-62810000D03*
%TO.P,U2,6,~{TX2RTS}*%
%TO.N,unconnected-(U2-~{TX2RTS}-Pad6)*%
X37975000Y-64080000D03*
%TO.P,U2,7,OSC2*%
%TO.N,Net-(U2-OSC2)*%
X37975000Y-65350000D03*
%TO.P,U2,8,OSC1*%
%TO.N,Net-(U2-OSC1)*%
X37975000Y-66620000D03*
%TO.P,U2,9,VSS*%
%TO.N,GND*%
X37975000Y-67890000D03*
%TO.P,U2,10,~{RX1BF}*%
%TO.N,unconnected-(U2-~{RX1BF}-Pad10)*%
X28675000Y-67890000D03*
%TO.P,U2,11,~{RX0BF}*%
%TO.N,unconnected-(U2-~{RX0BF}-Pad11)*%
X28675000Y-66620000D03*
%TO.P,U2,12,~{INT}*%
%TO.N,INT*%
X28675000Y-65350000D03*
%TO.P,U2,13,SCK*%
%TO.N,SCK*%
X28675000Y-64080000D03*
%TO.P,U2,14,SI*%
%TO.N,SI*%
X28675000Y-62810000D03*
%TO.P,U2,15,SO*%
%TO.N,SO*%
X28675000Y-61540000D03*
%TO.P,U2,16,~{CS}*%
%TO.N,CS*%
X28675000Y-60270000D03*
%TO.P,U2,17,~{RESET}*%
%TO.N,Net-(U2-~{RESET})*%
X28675000Y-59000000D03*
%TO.P,U2,18,VDD*%
%TO.N,+5V*%
X28675000Y-57730000D03*
%TD*%
D10*
%TO.P,EN_1,1,Pin_1*%
%TO.N,unconnected-(EN_1-Pin_1-Pad1)*%
X69530000Y-54460000D03*
D11*
%TO.P,EN_1,2,Pin_2*%
%TO.N,unconnected-(EN_1-Pin_2-Pad2)*%
X66990000Y-54460000D03*
%TO.P,EN_1,3,Pin_3*%
%TO.N,unconnected-(EN_1-Pin_3-Pad3)*%
X64450000Y-54460000D03*
%TO.P,EN_1,4,Pin_4*%
%TO.N,unconnected-(EN_1-Pin_4-Pad4)*%
X61910000Y-54460000D03*
%TO.P,EN_1,5,Pin_5*%
%TO.N,unconnected-(EN_1-Pin_5-Pad5)*%
X59370000Y-54460000D03*
%TO.P,EN_1,6,Pin_6*%
%TO.N,unconnected-(EN_1-Pin_6-Pad6)*%
X56830000Y-54460000D03*
%TO.P,EN_1,7,Pin_7*%
%TO.N,unconnected-(EN_1-Pin_7-Pad7)*%
X54290000Y-54460000D03*
%TO.P,EN_1,8,Pin_8*%
%TO.N,unconnected-(EN_1-Pin_8-Pad8)*%
X51750000Y-54460000D03*
%TO.P,EN_1,9,Pin_9*%
%TO.N,unconnected-(EN_1-Pin_9-Pad9)*%
X49210000Y-54460000D03*
%TO.P,EN_1,10,Pin_10*%
%TO.N,unconnected-(EN_1-Pin_10-Pad10)*%
X46670000Y-54460000D03*
%TO.P,EN_1,11,Pin_11*%
%TO.N,unconnected-(EN_1-Pin_11-Pad11)*%
X44130000Y-54460000D03*
%TO.P,EN_1,12,Pin_12*%
%TO.N,unconnected-(EN_1-Pin_12-Pad12)*%
X41590000Y-54460000D03*
%TO.P,EN_1,13,Pin_13*%
%TO.N,unconnected-(EN_1-Pin_13-Pad13)*%
X39050000Y-54460000D03*
%TO.P,EN_1,14,Pin_14*%
%TO.N,GND*%
X36510000Y-54460000D03*
%TO.P,EN_1,15,Pin_15*%
%TO.N,+5V*%
X33970000Y-54460000D03*
%TD*%
D13*
%TO.P,J1,1,Pin_1*%
%TO.N,CAN-*%
X83990000Y-47420000D03*
D14*
%TO.P,J1,2,Pin_2*%
%TO.N,CAN+*%
X83990000Y-52420000D03*
%TD*%
D13*
%TO.P,J2,1,Pin_1*%
%TO.N,CAN-*%
X83940000Y-33110000D03*
D14*
%TO.P,J2,2,Pin_2*%
%TO.N,CAN+*%
X83940000Y-38110000D03*
%TD*%
D10*
%TO.P,BOOT_1,1,Pin_1*%
%TO.N,unconnected-(BOOT_1-Pin_1-Pad1)*%
X33970000Y-29110000D03*
D11*
%TO.P,BOOT_1,2,Pin_2*%
%TO.N,unconnected-(BOOT_1-Pin_2-Pad2)*%
X36510000Y-29110000D03*
%TO.P,BOOT_1,3,Pin_3*%
%TO.N,unconnected-(BOOT_1-Pin_3-Pad3)*%
X39050000Y-29110000D03*
%TO.P,BOOT_1,4,Pin_4*%
%TO.N,unconnected-(BOOT_1-Pin_4-Pad4)*%
X41590000Y-29110000D03*
%TO.P,BOOT_1,5,Pin_5*%
%TO.N,unconnected-(BOOT_1-Pin_5-Pad5)*%
X44130000Y-29110000D03*
%TO.P,BOOT_1,6,Pin_6*%
%TO.N,unconnected-(BOOT_1-Pin_6-Pad6)*%
X46670000Y-29110000D03*
%TO.P,BOOT_1,7,Pin_7*%
%TO.N,unconnected-(BOOT_1-Pin_7-Pad7)*%
X49210000Y-29110000D03*
%TO.P,BOOT_1,8,Pin_8*%
%TO.N,unconnected-(BOOT_1-Pin_8-Pad8)*%
X51750000Y-29110000D03*
%TO.P,BOOT_1,9,Pin_9*%
%TO.N,unconnected-(BOOT_1-Pin_9-Pad9)*%
X54290000Y-29110000D03*
%TO.P,BOOT_1,10,Pin_10*%
%TO.N,unconnected-(BOOT_1-Pin_10-Pad10)*%
X56830000Y-29110000D03*
%TO.P,BOOT_1,11,Pin_11*%
%TO.N,SDA*%
X59370000Y-29110000D03*
%TO.P,BOOT_1,12,Pin_12*%
%TO.N,unconnected-(BOOT_1-Pin_12-Pad12)*%
X61910000Y-29110000D03*
%TO.P,BOOT_1,13,Pin_13*%
%TO.N,unconnected-(BOOT_1-Pin_13-Pad13)*%
X64450000Y-29110000D03*
%TO.P,BOOT_1,14,Pin_14*%
%TO.N,SCL*%
X66990000Y-29110000D03*
%TO.P,BOOT_1,15,Pin_15*%
%TO.N,unconnected-(BOOT_1-Pin_15-Pad15)*%
X69530000Y-29110000D03*
%TD*%
D15*
%TO.P,Y1,1,1*%
%TO.N,Net-(U2-OSC1)*%
X27865000Y-39870000D03*
%TO.P,Y1,2,2*%
%TO.N,Net-(U2-OSC2)*%
X27865000Y-34990000D03*
%TD*%
D16*
%TO.N,Net-(U2-OSC2)*%
X37440000Y-70810000D03*
X37810000Y-73410000D03*
X40165000Y-66410000D03*
%TO.N,Net-(U2-OSC1)*%
X40225000Y-47240000D03*
X41365000Y-67040000D03*
X41585000Y-56650000D03*
%TO.N,+5V*%
X30560000Y-51480000D03*
%TO.N,SCL*%
X29120000Y-25620000D03*
%TO.N,GND*%
X69540000Y-48270000D03*
X55135000Y-56860000D03*
X50505000Y-56840000D03*
X37990000Y-67870000D03*
X47665000Y-70530000D03*
X63440000Y-51480000D03*
X35035000Y-65090000D03*
X35860000Y-73260000D03*
X36140000Y-69000000D03*
%TO.N,CS*%
X28675000Y-60290000D03*
X25855000Y-59530000D03*
%TO.N,CAN+*%
X76195000Y-41370000D03*
X50750000Y-64910000D03*
X73600000Y-36190000D03*
X71139479Y-64939479D03*
%TO.N,CAN-*%
X73630000Y-34200000D03*
X50670000Y-66160000D03*
X71740521Y-65540521D03*
X77045000Y-41370000D03*
%TO.N,Net-(U2-~{RESET})*%
X29530000Y-73300000D03*
X32625000Y-61820000D03*
X31840000Y-67190000D03*
%TO.N,Net-(U2-RXCAN)*%
X54775000Y-60330000D03*
%TO.N,Net-(U2-TXCAN)*%
X45415000Y-57780000D03*
%TD*%
D17*
%TO.N,Net-(U2-OSC2)*%
X37420000Y-73020000D02*
X37440000Y-70810000D01*
X37975000Y-65350000D02*
X39105000Y-65350000D01*
X39105000Y-65350000D02*
X40165000Y-66410000D01*
X37810000Y-73410000D02*
X37420000Y-73020000D01*
X37440000Y-70810000D02*
X37420000Y-70830000D01*
%TO.N,Net-(U2-OSC1)*%
X40225000Y-47240000D02*
X40245000Y-47240000D01*
X40245000Y-47240000D02*
X40185000Y-47300000D01*
X41315000Y-67040000D02*
X41365000Y-67040000D01*
X41365000Y-67040000D02*
X41365000Y-67090000D01*
X40225000Y-55290000D02*
X41585000Y-56650000D01*
X40225000Y-47240000D02*
X40225000Y-55290000D01*
X41365000Y-67090000D02*
X41305000Y-67030000D01*
X38365000Y-67010000D02*
X41285000Y-67010000D01*
X41285000Y-67010000D02*
X41315000Y-67040000D01*
X37975000Y-66620000D02*
X38365000Y-67010000D01*
%TO.N,+5V*%
X28675000Y-57730000D02*
X30540000Y-55865000D01*
X33540000Y-54460000D02*
X30560000Y-51480000D01*
X30560000Y-51480000D02*
X30540000Y-51550000D01*
X30540000Y-55865000D02*
X30560000Y-51480000D01*
X33970000Y-54460000D02*
X33540000Y-54460000D01*
%TO.N,SO*%
X43910000Y-62210000D02*
X55280000Y-73580000D01*
X30616238Y-62450000D02*
X36669448Y-62450000D01*
X36669448Y-62450000D02*
X36909448Y-62210000D01*
X36909448Y-62210000D02*
X43910000Y-62210000D01*
X29706238Y-61540000D02*
X30616238Y-62450000D01*
X28675000Y-61540000D02*
X29706238Y-61540000D01*
%TO.N,SCL*%
X29120000Y-25620000D02*
X31470000Y-25620000D01*
X31840000Y-25990000D02*
X31840000Y-30710000D01*
X65390000Y-30710000D02*
X66990000Y-29110000D01*
X31470000Y-25620000D02*
X31840000Y-25990000D01*
X31840000Y-30710000D02*
X65390000Y-30710000D01*
%TO.N,GND*%
X63440000Y-51480000D02*
X66290000Y-51480000D01*
X36160000Y-69000000D02*
X36140000Y-69020000D01*
X37990000Y-67870000D02*
X45025000Y-67890000D01*
X66290000Y-51480000D02*
X69500000Y-48270000D01*
X69540000Y-48230000D02*
X69470000Y-48300000D01*
X47665000Y-70530000D02*
X47685000Y-70550000D01*
X35860000Y-73260000D02*
X35860000Y-69300000D01*
X45025000Y-67890000D02*
X47665000Y-70530000D01*
X55135000Y-56860000D02*
X55155000Y-56840000D01*
X69500000Y-48270000D02*
X69540000Y-48270000D01*
X35035000Y-65345552D02*
X36295000Y-66605552D01*
X37975000Y-67890000D02*
X37990000Y-67870000D01*
X37145000Y-67890000D02*
X37975000Y-67890000D01*
X35035000Y-65090000D02*
X35035000Y-65345552D01*
X35860000Y-69300000D02*
X36140000Y-69020000D01*
X69540000Y-48270000D02*
X69540000Y-48230000D01*
X36295000Y-66605552D02*
X36295000Y-67040000D01*
X50505000Y-56840000D02*
X55135000Y-56860000D01*
X36140000Y-69000000D02*
X36160000Y-69000000D01*
X36140000Y-69020000D02*
X36140000Y-69000000D01*
X36295000Y-67040000D02*
X37145000Y-67890000D01*
X55155000Y-56840000D02*
X55175000Y-56820000D01*
%TO.N,SI*%
X55870000Y-75510000D02*
X57800000Y-73580000D01*
X25785000Y-64430000D02*
X25785000Y-72420000D01*
X28675000Y-62810000D02*
X27405000Y-62810000D01*
X25785000Y-72420000D02*
X28875000Y-75510000D01*
X28875000Y-75510000D02*
X55870000Y-75510000D01*
X27405000Y-62810000D02*
X25785000Y-64430000D01*
%TO.N,SCK*%
X28675000Y-64080000D02*
X32499448Y-64080000D01*
X40049448Y-71630000D02*
X50790000Y-71630000D01*
X32499448Y-64080000D02*
X40049448Y-71630000D01*
X50790000Y-71630000D02*
X52740000Y-73580000D01*
%TO.N,CS*%
X71765000Y-46450000D02*
X75775000Y-50460000D01*
X88915000Y-73220000D02*
X88915000Y-73726346D01*
X25855000Y-59530000D02*
X25835000Y-59470000D01*
X25125000Y-58740000D02*
X25125000Y-49760000D01*
X25855000Y-59530000D02*
X25835000Y-59450000D01*
X61490000Y-74730000D02*
X60340000Y-73580000D01*
X87911346Y-74730000D02*
X61490000Y-74730000D01*
X25125000Y-49760000D02*
X25285000Y-49760000D01*
X28595000Y-46450000D02*
X71765000Y-46450000D01*
X25835000Y-59450000D02*
X25125000Y-58740000D01*
X25285000Y-49760000D02*
X28595000Y-46450000D01*
X75775000Y-60080000D02*
X88915000Y-73220000D01*
X75775000Y-50460000D02*
X75775000Y-60080000D01*
X88915000Y-73726346D02*
X87911346Y-74730000D01*
%TO.N,INT*%
X30000000Y-63220552D02*
X30000000Y-62399448D01*
X27609448Y-58400000D02*
X67010000Y-58400000D01*
X67010000Y-58400000D02*
X82190000Y-73580000D01*
X27650001Y-65350000D02*
X27350000Y-65049999D01*
X29740552Y-63480000D02*
X30000000Y-63220552D01*
X28675000Y-65350000D02*
X27650001Y-65350000D01*
X29740552Y-62140000D02*
X27609448Y-62140000D01*
X30000000Y-62399448D02*
X29740552Y-62140000D01*
X27609448Y-63480000D02*
X29740552Y-63480000D01*
X27609448Y-62140000D02*
X27350000Y-61880552D01*
X27350000Y-58659448D02*
X27609448Y-58400000D01*
X27350000Y-65049999D02*
X27350000Y-63739448D01*
X27350000Y-61880552D02*
X27350000Y-58659448D01*
X27350000Y-63739448D02*
X27609448Y-63480000D01*
%TO.N,CAN+*%
X76394999Y-44824999D02*
X83990000Y-52420000D01*
X71139479Y-65222322D02*
X71139479Y-64939479D01*
X79390001Y-33560001D02*
X83940000Y-38110000D01*
X71091802Y-65269999D02*
X71139479Y-65222322D01*
X51109999Y-65269999D02*
X71091802Y-65269999D01*
X76195000Y-41370000D02*
X76394999Y-41569999D01*
X76394999Y-41569999D02*
X76394999Y-44824999D01*
X76229999Y-33560001D02*
X79390001Y-33560001D01*
X50750000Y-64910000D02*
X51109999Y-65269999D01*
X73600000Y-36190000D02*
X76229999Y-33560001D01*
%TO.N,CAN-*%
X74953603Y-34200000D02*
X76043603Y-33110000D01*
X76845001Y-41569999D02*
X76845001Y-44638604D01*
X73630000Y-34200000D02*
X74953603Y-34200000D01*
X71457678Y-65540521D02*
X71740521Y-65540521D01*
X51109999Y-65720001D02*
X71278198Y-65720001D01*
X76845001Y-44638604D02*
X79626397Y-47420000D01*
X79626397Y-47420000D02*
X83990000Y-47420000D01*
X76043603Y-33110000D02*
X83940000Y-33110000D01*
X77045000Y-41370000D02*
X76845001Y-41569999D01*
X50670000Y-66160000D02*
X51109999Y-65720001D01*
X71278198Y-65720001D02*
X71457678Y-65540521D01*
%TO.N,Net-(U2-~{RESET})*%
X29805000Y-59000000D02*
X32625000Y-61820000D01*
X29530000Y-73330000D02*
X29560000Y-73300000D01*
X31840000Y-71020000D02*
X29560000Y-73300000D01*
X29530000Y-73300000D02*
X29530000Y-73330000D01*
X31840000Y-67190000D02*
X31840000Y-71020000D01*
X28675000Y-59000000D02*
X29805000Y-59000000D01*
X29560000Y-73300000D02*
X29530000Y-73300000D01*
%TO.N,Net-(U2-RXCAN)*%
X54765000Y-60330000D02*
X53435000Y-59000000D01*
X53435000Y-59000000D02*
X37975000Y-59000000D01*
X54775000Y-60330000D02*
X54765000Y-60330000D01*
%TO.N,Net-(U2-TXCAN)*%
X45365000Y-57730000D02*
X37975000Y-57730000D01*
X45415000Y-57780000D02*
X45365000Y-57730000D01*
%TD*%
M02*
