%TF.GenerationSoftware,KiCad,Pcbnew,8.0.2*%
%TF.CreationDate,2024-05-23T15:50:06-04:00*%
%TF.ProjectId,ORA_Arduino_ESP_CAN_Shield_Rev_1.1,4f52415f-4172-4647-9569-6e6f5f455350,rev?*%
%TF.SameCoordinates,Original*%
%TF.FileFunction,Legend,Top*%
%TF.FilePolarity,Positive*%
%FSLAX46Y46*%
G04 Gerber Fmt 4.6, Leading zero omitted, Abs format (unit mm)*
G04 Created by KiCad (PCBNEW 8.0.2) date 2024-05-23 15:50:06*
%MOMM*%
%LPD*%
G01*
G04 APERTURE LIST*
%ADD10C,0.150000*%
%ADD11C,0.120000*%
G04 APERTURE END LIST*
D10*
X69327255Y-63759819D02*
X69517731Y-63759819D01*
X69517731Y-63759819D02*
X69612969Y-63807438D01*
X69612969Y-63807438D02*
X69708207Y-63902676D01*
X69708207Y-63902676D02*
X69755826Y-64093152D01*
X69755826Y-64093152D02*
X69755826Y-64426485D01*
X69755826Y-64426485D02*
X69708207Y-64616961D01*
X69708207Y-64616961D02*
X69612969Y-64712200D01*
X69612969Y-64712200D02*
X69517731Y-64759819D01*
X69517731Y-64759819D02*
X69327255Y-64759819D01*
X69327255Y-64759819D02*
X69232017Y-64712200D01*
X69232017Y-64712200D02*
X69136779Y-64616961D01*
X69136779Y-64616961D02*
X69089160Y-64426485D01*
X69089160Y-64426485D02*
X69089160Y-64093152D01*
X69089160Y-64093152D02*
X69136779Y-63902676D01*
X69136779Y-63902676D02*
X69232017Y-63807438D01*
X69232017Y-63807438D02*
X69327255Y-63759819D01*
X70755826Y-64759819D02*
X70422493Y-64283628D01*
X70184398Y-64759819D02*
X70184398Y-63759819D01*
X70184398Y-63759819D02*
X70565350Y-63759819D01*
X70565350Y-63759819D02*
X70660588Y-63807438D01*
X70660588Y-63807438D02*
X70708207Y-63855057D01*
X70708207Y-63855057D02*
X70755826Y-63950295D01*
X70755826Y-63950295D02*
X70755826Y-64093152D01*
X70755826Y-64093152D02*
X70708207Y-64188390D01*
X70708207Y-64188390D02*
X70660588Y-64236009D01*
X70660588Y-64236009D02*
X70565350Y-64283628D01*
X70565350Y-64283628D02*
X70184398Y-64283628D01*
X71136779Y-64474104D02*
X71612969Y-64474104D01*
X71041541Y-64759819D02*
X71374874Y-63759819D01*
X71374874Y-63759819D02*
X71708207Y-64759819D01*
X72803446Y-64759819D02*
X72803446Y-63759819D01*
X73803445Y-63807438D02*
X73708207Y-63759819D01*
X73708207Y-63759819D02*
X73565350Y-63759819D01*
X73565350Y-63759819D02*
X73422493Y-63807438D01*
X73422493Y-63807438D02*
X73327255Y-63902676D01*
X73327255Y-63902676D02*
X73279636Y-63997914D01*
X73279636Y-63997914D02*
X73232017Y-64188390D01*
X73232017Y-64188390D02*
X73232017Y-64331247D01*
X73232017Y-64331247D02*
X73279636Y-64521723D01*
X73279636Y-64521723D02*
X73327255Y-64616961D01*
X73327255Y-64616961D02*
X73422493Y-64712200D01*
X73422493Y-64712200D02*
X73565350Y-64759819D01*
X73565350Y-64759819D02*
X73660588Y-64759819D01*
X73660588Y-64759819D02*
X73803445Y-64712200D01*
X73803445Y-64712200D02*
X73851064Y-64664580D01*
X73851064Y-64664580D02*
X73851064Y-64331247D01*
X73851064Y-64331247D02*
X73660588Y-64331247D01*
X74136779Y-63759819D02*
X74470112Y-64759819D01*
X74470112Y-64759819D02*
X74803445Y-63759819D01*
X75708207Y-64664580D02*
X75660588Y-64712200D01*
X75660588Y-64712200D02*
X75517731Y-64759819D01*
X75517731Y-64759819D02*
X75422493Y-64759819D01*
X75422493Y-64759819D02*
X75279636Y-64712200D01*
X75279636Y-64712200D02*
X75184398Y-64616961D01*
X75184398Y-64616961D02*
X75136779Y-64521723D01*
X75136779Y-64521723D02*
X75089160Y-64331247D01*
X75089160Y-64331247D02*
X75089160Y-64188390D01*
X75089160Y-64188390D02*
X75136779Y-63997914D01*
X75136779Y-63997914D02*
X75184398Y-63902676D01*
X75184398Y-63902676D02*
X75279636Y-63807438D01*
X75279636Y-63807438D02*
X75422493Y-63759819D01*
X75422493Y-63759819D02*
X75517731Y-63759819D01*
X75517731Y-63759819D02*
X75660588Y-63807438D01*
X75660588Y-63807438D02*
X75708207Y-63855057D01*
X76851065Y-63855057D02*
X76898684Y-63807438D01*
X76898684Y-63807438D02*
X76993922Y-63759819D01*
X76993922Y-63759819D02*
X77232017Y-63759819D01*
X77232017Y-63759819D02*
X77327255Y-63807438D01*
X77327255Y-63807438D02*
X77374874Y-63855057D01*
X77374874Y-63855057D02*
X77422493Y-63950295D01*
X77422493Y-63950295D02*
X77422493Y-64045533D01*
X77422493Y-64045533D02*
X77374874Y-64188390D01*
X77374874Y-64188390D02*
X76803446Y-64759819D01*
X76803446Y-64759819D02*
X77422493Y-64759819D01*
X78041541Y-63759819D02*
X78136779Y-63759819D01*
X78136779Y-63759819D02*
X78232017Y-63807438D01*
X78232017Y-63807438D02*
X78279636Y-63855057D01*
X78279636Y-63855057D02*
X78327255Y-63950295D01*
X78327255Y-63950295D02*
X78374874Y-64140771D01*
X78374874Y-64140771D02*
X78374874Y-64378866D01*
X78374874Y-64378866D02*
X78327255Y-64569342D01*
X78327255Y-64569342D02*
X78279636Y-64664580D01*
X78279636Y-64664580D02*
X78232017Y-64712200D01*
X78232017Y-64712200D02*
X78136779Y-64759819D01*
X78136779Y-64759819D02*
X78041541Y-64759819D01*
X78041541Y-64759819D02*
X77946303Y-64712200D01*
X77946303Y-64712200D02*
X77898684Y-64664580D01*
X77898684Y-64664580D02*
X77851065Y-64569342D01*
X77851065Y-64569342D02*
X77803446Y-64378866D01*
X77803446Y-64378866D02*
X77803446Y-64140771D01*
X77803446Y-64140771D02*
X77851065Y-63950295D01*
X77851065Y-63950295D02*
X77898684Y-63855057D01*
X77898684Y-63855057D02*
X77946303Y-63807438D01*
X77946303Y-63807438D02*
X78041541Y-63759819D01*
X78755827Y-63855057D02*
X78803446Y-63807438D01*
X78803446Y-63807438D02*
X78898684Y-63759819D01*
X78898684Y-63759819D02*
X79136779Y-63759819D01*
X79136779Y-63759819D02*
X79232017Y-63807438D01*
X79232017Y-63807438D02*
X79279636Y-63855057D01*
X79279636Y-63855057D02*
X79327255Y-63950295D01*
X79327255Y-63950295D02*
X79327255Y-64045533D01*
X79327255Y-64045533D02*
X79279636Y-64188390D01*
X79279636Y-64188390D02*
X78708208Y-64759819D01*
X78708208Y-64759819D02*
X79327255Y-64759819D01*
X79660589Y-63759819D02*
X80279636Y-63759819D01*
X80279636Y-63759819D02*
X79946303Y-64140771D01*
X79946303Y-64140771D02*
X80089160Y-64140771D01*
X80089160Y-64140771D02*
X80184398Y-64188390D01*
X80184398Y-64188390D02*
X80232017Y-64236009D01*
X80232017Y-64236009D02*
X80279636Y-64331247D01*
X80279636Y-64331247D02*
X80279636Y-64569342D01*
X80279636Y-64569342D02*
X80232017Y-64664580D01*
X80232017Y-64664580D02*
X80184398Y-64712200D01*
X80184398Y-64712200D02*
X80089160Y-64759819D01*
X80089160Y-64759819D02*
X79803446Y-64759819D01*
X79803446Y-64759819D02*
X79708208Y-64712200D01*
X79708208Y-64712200D02*
X79660589Y-64664580D01*
X81422493Y-63712200D02*
X80565351Y-64997914D01*
X81708208Y-63855057D02*
X81755827Y-63807438D01*
X81755827Y-63807438D02*
X81851065Y-63759819D01*
X81851065Y-63759819D02*
X82089160Y-63759819D01*
X82089160Y-63759819D02*
X82184398Y-63807438D01*
X82184398Y-63807438D02*
X82232017Y-63855057D01*
X82232017Y-63855057D02*
X82279636Y-63950295D01*
X82279636Y-63950295D02*
X82279636Y-64045533D01*
X82279636Y-64045533D02*
X82232017Y-64188390D01*
X82232017Y-64188390D02*
X81660589Y-64759819D01*
X81660589Y-64759819D02*
X82279636Y-64759819D01*
X83136779Y-64093152D02*
X83136779Y-64759819D01*
X82898684Y-63712200D02*
X82660589Y-64426485D01*
X82660589Y-64426485D02*
X83279636Y-64426485D01*
X70370588Y-67117438D02*
X70275350Y-67069819D01*
X70275350Y-67069819D02*
X70132493Y-67069819D01*
X70132493Y-67069819D02*
X69989636Y-67117438D01*
X69989636Y-67117438D02*
X69894398Y-67212676D01*
X69894398Y-67212676D02*
X69846779Y-67307914D01*
X69846779Y-67307914D02*
X69799160Y-67498390D01*
X69799160Y-67498390D02*
X69799160Y-67641247D01*
X69799160Y-67641247D02*
X69846779Y-67831723D01*
X69846779Y-67831723D02*
X69894398Y-67926961D01*
X69894398Y-67926961D02*
X69989636Y-68022200D01*
X69989636Y-68022200D02*
X70132493Y-68069819D01*
X70132493Y-68069819D02*
X70227731Y-68069819D01*
X70227731Y-68069819D02*
X70370588Y-68022200D01*
X70370588Y-68022200D02*
X70418207Y-67974580D01*
X70418207Y-67974580D02*
X70418207Y-67641247D01*
X70418207Y-67641247D02*
X70227731Y-67641247D01*
X71227731Y-68022200D02*
X71132493Y-68069819D01*
X71132493Y-68069819D02*
X70942017Y-68069819D01*
X70942017Y-68069819D02*
X70846779Y-68022200D01*
X70846779Y-68022200D02*
X70799160Y-67926961D01*
X70799160Y-67926961D02*
X70799160Y-67546009D01*
X70799160Y-67546009D02*
X70846779Y-67450771D01*
X70846779Y-67450771D02*
X70942017Y-67403152D01*
X70942017Y-67403152D02*
X71132493Y-67403152D01*
X71132493Y-67403152D02*
X71227731Y-67450771D01*
X71227731Y-67450771D02*
X71275350Y-67546009D01*
X71275350Y-67546009D02*
X71275350Y-67641247D01*
X71275350Y-67641247D02*
X70799160Y-67736485D01*
X71846779Y-68069819D02*
X71751541Y-68022200D01*
X71751541Y-68022200D02*
X71703922Y-67974580D01*
X71703922Y-67974580D02*
X71656303Y-67879342D01*
X71656303Y-67879342D02*
X71656303Y-67593628D01*
X71656303Y-67593628D02*
X71703922Y-67498390D01*
X71703922Y-67498390D02*
X71751541Y-67450771D01*
X71751541Y-67450771D02*
X71846779Y-67403152D01*
X71846779Y-67403152D02*
X71989636Y-67403152D01*
X71989636Y-67403152D02*
X72084874Y-67450771D01*
X72084874Y-67450771D02*
X72132493Y-67498390D01*
X72132493Y-67498390D02*
X72180112Y-67593628D01*
X72180112Y-67593628D02*
X72180112Y-67879342D01*
X72180112Y-67879342D02*
X72132493Y-67974580D01*
X72132493Y-67974580D02*
X72084874Y-68022200D01*
X72084874Y-68022200D02*
X71989636Y-68069819D01*
X71989636Y-68069819D02*
X71846779Y-68069819D01*
X72608684Y-68069819D02*
X72608684Y-67403152D01*
X72608684Y-67593628D02*
X72656303Y-67498390D01*
X72656303Y-67498390D02*
X72703922Y-67450771D01*
X72703922Y-67450771D02*
X72799160Y-67403152D01*
X72799160Y-67403152D02*
X72894398Y-67403152D01*
X73656303Y-67403152D02*
X73656303Y-68212676D01*
X73656303Y-68212676D02*
X73608684Y-68307914D01*
X73608684Y-68307914D02*
X73561065Y-68355533D01*
X73561065Y-68355533D02*
X73465827Y-68403152D01*
X73465827Y-68403152D02*
X73322970Y-68403152D01*
X73322970Y-68403152D02*
X73227732Y-68355533D01*
X73656303Y-68022200D02*
X73561065Y-68069819D01*
X73561065Y-68069819D02*
X73370589Y-68069819D01*
X73370589Y-68069819D02*
X73275351Y-68022200D01*
X73275351Y-68022200D02*
X73227732Y-67974580D01*
X73227732Y-67974580D02*
X73180113Y-67879342D01*
X73180113Y-67879342D02*
X73180113Y-67593628D01*
X73180113Y-67593628D02*
X73227732Y-67498390D01*
X73227732Y-67498390D02*
X73275351Y-67450771D01*
X73275351Y-67450771D02*
X73370589Y-67403152D01*
X73370589Y-67403152D02*
X73561065Y-67403152D01*
X73561065Y-67403152D02*
X73656303Y-67450771D01*
X74513446Y-68022200D02*
X74418208Y-68069819D01*
X74418208Y-68069819D02*
X74227732Y-68069819D01*
X74227732Y-68069819D02*
X74132494Y-68022200D01*
X74132494Y-68022200D02*
X74084875Y-67926961D01*
X74084875Y-67926961D02*
X74084875Y-67546009D01*
X74084875Y-67546009D02*
X74132494Y-67450771D01*
X74132494Y-67450771D02*
X74227732Y-67403152D01*
X74227732Y-67403152D02*
X74418208Y-67403152D01*
X74418208Y-67403152D02*
X74513446Y-67450771D01*
X74513446Y-67450771D02*
X74561065Y-67546009D01*
X74561065Y-67546009D02*
X74561065Y-67641247D01*
X74561065Y-67641247D02*
X74084875Y-67736485D01*
X75608685Y-67069819D02*
X76180113Y-67069819D01*
X75894399Y-68069819D02*
X75894399Y-67069819D01*
X76513447Y-68069819D02*
X76513447Y-67403152D01*
X76513447Y-67593628D02*
X76561066Y-67498390D01*
X76561066Y-67498390D02*
X76608685Y-67450771D01*
X76608685Y-67450771D02*
X76703923Y-67403152D01*
X76703923Y-67403152D02*
X76799161Y-67403152D01*
X77561066Y-67403152D02*
X77561066Y-68069819D01*
X77132495Y-67403152D02*
X77132495Y-67926961D01*
X77132495Y-67926961D02*
X77180114Y-68022200D01*
X77180114Y-68022200D02*
X77275352Y-68069819D01*
X77275352Y-68069819D02*
X77418209Y-68069819D01*
X77418209Y-68069819D02*
X77513447Y-68022200D01*
X77513447Y-68022200D02*
X77561066Y-67974580D01*
X78037257Y-67403152D02*
X78037257Y-68403152D01*
X78037257Y-67450771D02*
X78132495Y-67403152D01*
X78132495Y-67403152D02*
X78322971Y-67403152D01*
X78322971Y-67403152D02*
X78418209Y-67450771D01*
X78418209Y-67450771D02*
X78465828Y-67498390D01*
X78465828Y-67498390D02*
X78513447Y-67593628D01*
X78513447Y-67593628D02*
X78513447Y-67879342D01*
X78513447Y-67879342D02*
X78465828Y-67974580D01*
X78465828Y-67974580D02*
X78418209Y-68022200D01*
X78418209Y-68022200D02*
X78322971Y-68069819D01*
X78322971Y-68069819D02*
X78132495Y-68069819D01*
X78132495Y-68069819D02*
X78037257Y-68022200D01*
X78942019Y-68069819D02*
X78942019Y-67403152D01*
X78942019Y-67069819D02*
X78894400Y-67117438D01*
X78894400Y-67117438D02*
X78942019Y-67165057D01*
X78942019Y-67165057D02*
X78989638Y-67117438D01*
X78989638Y-67117438D02*
X78942019Y-67069819D01*
X78942019Y-67069819D02*
X78942019Y-67165057D01*
X79846780Y-68069819D02*
X79846780Y-67546009D01*
X79846780Y-67546009D02*
X79799161Y-67450771D01*
X79799161Y-67450771D02*
X79703923Y-67403152D01*
X79703923Y-67403152D02*
X79513447Y-67403152D01*
X79513447Y-67403152D02*
X79418209Y-67450771D01*
X79846780Y-68022200D02*
X79751542Y-68069819D01*
X79751542Y-68069819D02*
X79513447Y-68069819D01*
X79513447Y-68069819D02*
X79418209Y-68022200D01*
X79418209Y-68022200D02*
X79370590Y-67926961D01*
X79370590Y-67926961D02*
X79370590Y-67831723D01*
X79370590Y-67831723D02*
X79418209Y-67736485D01*
X79418209Y-67736485D02*
X79513447Y-67688866D01*
X79513447Y-67688866D02*
X79751542Y-67688866D01*
X79751542Y-67688866D02*
X79846780Y-67641247D01*
X80322971Y-67403152D02*
X80322971Y-68069819D01*
X80322971Y-67498390D02*
X80370590Y-67450771D01*
X80370590Y-67450771D02*
X80465828Y-67403152D01*
X80465828Y-67403152D02*
X80608685Y-67403152D01*
X80608685Y-67403152D02*
X80703923Y-67450771D01*
X80703923Y-67450771D02*
X80751542Y-67546009D01*
X80751542Y-67546009D02*
X80751542Y-68069819D01*
X81370590Y-68069819D02*
X81275352Y-68022200D01*
X81275352Y-68022200D02*
X81227733Y-67974580D01*
X81227733Y-67974580D02*
X81180114Y-67879342D01*
X81180114Y-67879342D02*
X81180114Y-67593628D01*
X81180114Y-67593628D02*
X81227733Y-67498390D01*
X81227733Y-67498390D02*
X81275352Y-67450771D01*
X81275352Y-67450771D02*
X81370590Y-67403152D01*
X81370590Y-67403152D02*
X81513447Y-67403152D01*
X81513447Y-67403152D02*
X81608685Y-67450771D01*
X81608685Y-67450771D02*
X81656304Y-67498390D01*
X81656304Y-67498390D02*
X81703923Y-67593628D01*
X81703923Y-67593628D02*
X81703923Y-67879342D01*
X81703923Y-67879342D02*
X81656304Y-67974580D01*
X81656304Y-67974580D02*
X81608685Y-68022200D01*
X81608685Y-68022200D02*
X81513447Y-68069819D01*
X81513447Y-68069819D02*
X81370590Y-68069819D01*
X64709160Y-62564104D02*
X65185350Y-62564104D01*
X64613922Y-62849819D02*
X64947255Y-61849819D01*
X64947255Y-61849819D02*
X65280588Y-62849819D01*
X65613922Y-62849819D02*
X65613922Y-62183152D01*
X65613922Y-62373628D02*
X65661541Y-62278390D01*
X65661541Y-62278390D02*
X65709160Y-62230771D01*
X65709160Y-62230771D02*
X65804398Y-62183152D01*
X65804398Y-62183152D02*
X65899636Y-62183152D01*
X66661541Y-62849819D02*
X66661541Y-61849819D01*
X66661541Y-62802200D02*
X66566303Y-62849819D01*
X66566303Y-62849819D02*
X66375827Y-62849819D01*
X66375827Y-62849819D02*
X66280589Y-62802200D01*
X66280589Y-62802200D02*
X66232970Y-62754580D01*
X66232970Y-62754580D02*
X66185351Y-62659342D01*
X66185351Y-62659342D02*
X66185351Y-62373628D01*
X66185351Y-62373628D02*
X66232970Y-62278390D01*
X66232970Y-62278390D02*
X66280589Y-62230771D01*
X66280589Y-62230771D02*
X66375827Y-62183152D01*
X66375827Y-62183152D02*
X66566303Y-62183152D01*
X66566303Y-62183152D02*
X66661541Y-62230771D01*
X67566303Y-62183152D02*
X67566303Y-62849819D01*
X67137732Y-62183152D02*
X67137732Y-62706961D01*
X67137732Y-62706961D02*
X67185351Y-62802200D01*
X67185351Y-62802200D02*
X67280589Y-62849819D01*
X67280589Y-62849819D02*
X67423446Y-62849819D01*
X67423446Y-62849819D02*
X67518684Y-62802200D01*
X67518684Y-62802200D02*
X67566303Y-62754580D01*
X68042494Y-62849819D02*
X68042494Y-62183152D01*
X68042494Y-61849819D02*
X67994875Y-61897438D01*
X67994875Y-61897438D02*
X68042494Y-61945057D01*
X68042494Y-61945057D02*
X68090113Y-61897438D01*
X68090113Y-61897438D02*
X68042494Y-61849819D01*
X68042494Y-61849819D02*
X68042494Y-61945057D01*
X68518684Y-62183152D02*
X68518684Y-62849819D01*
X68518684Y-62278390D02*
X68566303Y-62230771D01*
X68566303Y-62230771D02*
X68661541Y-62183152D01*
X68661541Y-62183152D02*
X68804398Y-62183152D01*
X68804398Y-62183152D02*
X68899636Y-62230771D01*
X68899636Y-62230771D02*
X68947255Y-62326009D01*
X68947255Y-62326009D02*
X68947255Y-62849819D01*
X69566303Y-62849819D02*
X69471065Y-62802200D01*
X69471065Y-62802200D02*
X69423446Y-62754580D01*
X69423446Y-62754580D02*
X69375827Y-62659342D01*
X69375827Y-62659342D02*
X69375827Y-62373628D01*
X69375827Y-62373628D02*
X69423446Y-62278390D01*
X69423446Y-62278390D02*
X69471065Y-62230771D01*
X69471065Y-62230771D02*
X69566303Y-62183152D01*
X69566303Y-62183152D02*
X69709160Y-62183152D01*
X69709160Y-62183152D02*
X69804398Y-62230771D01*
X69804398Y-62230771D02*
X69852017Y-62278390D01*
X69852017Y-62278390D02*
X69899636Y-62373628D01*
X69899636Y-62373628D02*
X69899636Y-62659342D01*
X69899636Y-62659342D02*
X69852017Y-62754580D01*
X69852017Y-62754580D02*
X69804398Y-62802200D01*
X69804398Y-62802200D02*
X69709160Y-62849819D01*
X69709160Y-62849819D02*
X69566303Y-62849819D01*
X71090113Y-62326009D02*
X71423446Y-62326009D01*
X71566303Y-62849819D02*
X71090113Y-62849819D01*
X71090113Y-62849819D02*
X71090113Y-61849819D01*
X71090113Y-61849819D02*
X71566303Y-61849819D01*
X71947256Y-62802200D02*
X72090113Y-62849819D01*
X72090113Y-62849819D02*
X72328208Y-62849819D01*
X72328208Y-62849819D02*
X72423446Y-62802200D01*
X72423446Y-62802200D02*
X72471065Y-62754580D01*
X72471065Y-62754580D02*
X72518684Y-62659342D01*
X72518684Y-62659342D02*
X72518684Y-62564104D01*
X72518684Y-62564104D02*
X72471065Y-62468866D01*
X72471065Y-62468866D02*
X72423446Y-62421247D01*
X72423446Y-62421247D02*
X72328208Y-62373628D01*
X72328208Y-62373628D02*
X72137732Y-62326009D01*
X72137732Y-62326009D02*
X72042494Y-62278390D01*
X72042494Y-62278390D02*
X71994875Y-62230771D01*
X71994875Y-62230771D02*
X71947256Y-62135533D01*
X71947256Y-62135533D02*
X71947256Y-62040295D01*
X71947256Y-62040295D02*
X71994875Y-61945057D01*
X71994875Y-61945057D02*
X72042494Y-61897438D01*
X72042494Y-61897438D02*
X72137732Y-61849819D01*
X72137732Y-61849819D02*
X72375827Y-61849819D01*
X72375827Y-61849819D02*
X72518684Y-61897438D01*
X72947256Y-62849819D02*
X72947256Y-61849819D01*
X72947256Y-61849819D02*
X73328208Y-61849819D01*
X73328208Y-61849819D02*
X73423446Y-61897438D01*
X73423446Y-61897438D02*
X73471065Y-61945057D01*
X73471065Y-61945057D02*
X73518684Y-62040295D01*
X73518684Y-62040295D02*
X73518684Y-62183152D01*
X73518684Y-62183152D02*
X73471065Y-62278390D01*
X73471065Y-62278390D02*
X73423446Y-62326009D01*
X73423446Y-62326009D02*
X73328208Y-62373628D01*
X73328208Y-62373628D02*
X72947256Y-62373628D01*
X75280589Y-62754580D02*
X75232970Y-62802200D01*
X75232970Y-62802200D02*
X75090113Y-62849819D01*
X75090113Y-62849819D02*
X74994875Y-62849819D01*
X74994875Y-62849819D02*
X74852018Y-62802200D01*
X74852018Y-62802200D02*
X74756780Y-62706961D01*
X74756780Y-62706961D02*
X74709161Y-62611723D01*
X74709161Y-62611723D02*
X74661542Y-62421247D01*
X74661542Y-62421247D02*
X74661542Y-62278390D01*
X74661542Y-62278390D02*
X74709161Y-62087914D01*
X74709161Y-62087914D02*
X74756780Y-61992676D01*
X74756780Y-61992676D02*
X74852018Y-61897438D01*
X74852018Y-61897438D02*
X74994875Y-61849819D01*
X74994875Y-61849819D02*
X75090113Y-61849819D01*
X75090113Y-61849819D02*
X75232970Y-61897438D01*
X75232970Y-61897438D02*
X75280589Y-61945057D01*
X75661542Y-62564104D02*
X76137732Y-62564104D01*
X75566304Y-62849819D02*
X75899637Y-61849819D01*
X75899637Y-61849819D02*
X76232970Y-62849819D01*
X76566304Y-62849819D02*
X76566304Y-61849819D01*
X76566304Y-61849819D02*
X77137732Y-62849819D01*
X77137732Y-62849819D02*
X77137732Y-61849819D01*
X78328209Y-62802200D02*
X78471066Y-62849819D01*
X78471066Y-62849819D02*
X78709161Y-62849819D01*
X78709161Y-62849819D02*
X78804399Y-62802200D01*
X78804399Y-62802200D02*
X78852018Y-62754580D01*
X78852018Y-62754580D02*
X78899637Y-62659342D01*
X78899637Y-62659342D02*
X78899637Y-62564104D01*
X78899637Y-62564104D02*
X78852018Y-62468866D01*
X78852018Y-62468866D02*
X78804399Y-62421247D01*
X78804399Y-62421247D02*
X78709161Y-62373628D01*
X78709161Y-62373628D02*
X78518685Y-62326009D01*
X78518685Y-62326009D02*
X78423447Y-62278390D01*
X78423447Y-62278390D02*
X78375828Y-62230771D01*
X78375828Y-62230771D02*
X78328209Y-62135533D01*
X78328209Y-62135533D02*
X78328209Y-62040295D01*
X78328209Y-62040295D02*
X78375828Y-61945057D01*
X78375828Y-61945057D02*
X78423447Y-61897438D01*
X78423447Y-61897438D02*
X78518685Y-61849819D01*
X78518685Y-61849819D02*
X78756780Y-61849819D01*
X78756780Y-61849819D02*
X78899637Y-61897438D01*
X79328209Y-62849819D02*
X79328209Y-61849819D01*
X79756780Y-62849819D02*
X79756780Y-62326009D01*
X79756780Y-62326009D02*
X79709161Y-62230771D01*
X79709161Y-62230771D02*
X79613923Y-62183152D01*
X79613923Y-62183152D02*
X79471066Y-62183152D01*
X79471066Y-62183152D02*
X79375828Y-62230771D01*
X79375828Y-62230771D02*
X79328209Y-62278390D01*
X80232971Y-62849819D02*
X80232971Y-62183152D01*
X80232971Y-61849819D02*
X80185352Y-61897438D01*
X80185352Y-61897438D02*
X80232971Y-61945057D01*
X80232971Y-61945057D02*
X80280590Y-61897438D01*
X80280590Y-61897438D02*
X80232971Y-61849819D01*
X80232971Y-61849819D02*
X80232971Y-61945057D01*
X81090113Y-62802200D02*
X80994875Y-62849819D01*
X80994875Y-62849819D02*
X80804399Y-62849819D01*
X80804399Y-62849819D02*
X80709161Y-62802200D01*
X80709161Y-62802200D02*
X80661542Y-62706961D01*
X80661542Y-62706961D02*
X80661542Y-62326009D01*
X80661542Y-62326009D02*
X80709161Y-62230771D01*
X80709161Y-62230771D02*
X80804399Y-62183152D01*
X80804399Y-62183152D02*
X80994875Y-62183152D01*
X80994875Y-62183152D02*
X81090113Y-62230771D01*
X81090113Y-62230771D02*
X81137732Y-62326009D01*
X81137732Y-62326009D02*
X81137732Y-62421247D01*
X81137732Y-62421247D02*
X80661542Y-62516485D01*
X81709161Y-62849819D02*
X81613923Y-62802200D01*
X81613923Y-62802200D02*
X81566304Y-62706961D01*
X81566304Y-62706961D02*
X81566304Y-61849819D01*
X82518685Y-62849819D02*
X82518685Y-61849819D01*
X82518685Y-62802200D02*
X82423447Y-62849819D01*
X82423447Y-62849819D02*
X82232971Y-62849819D01*
X82232971Y-62849819D02*
X82137733Y-62802200D01*
X82137733Y-62802200D02*
X82090114Y-62754580D01*
X82090114Y-62754580D02*
X82042495Y-62659342D01*
X82042495Y-62659342D02*
X82042495Y-62373628D01*
X82042495Y-62373628D02*
X82090114Y-62278390D01*
X82090114Y-62278390D02*
X82137733Y-62230771D01*
X82137733Y-62230771D02*
X82232971Y-62183152D01*
X82232971Y-62183152D02*
X82423447Y-62183152D01*
X82423447Y-62183152D02*
X82518685Y-62230771D01*
X84328209Y-62849819D02*
X83994876Y-62373628D01*
X83756781Y-62849819D02*
X83756781Y-61849819D01*
X83756781Y-61849819D02*
X84137733Y-61849819D01*
X84137733Y-61849819D02*
X84232971Y-61897438D01*
X84232971Y-61897438D02*
X84280590Y-61945057D01*
X84280590Y-61945057D02*
X84328209Y-62040295D01*
X84328209Y-62040295D02*
X84328209Y-62183152D01*
X84328209Y-62183152D02*
X84280590Y-62278390D01*
X84280590Y-62278390D02*
X84232971Y-62326009D01*
X84232971Y-62326009D02*
X84137733Y-62373628D01*
X84137733Y-62373628D02*
X83756781Y-62373628D01*
X85137733Y-62802200D02*
X85042495Y-62849819D01*
X85042495Y-62849819D02*
X84852019Y-62849819D01*
X84852019Y-62849819D02*
X84756781Y-62802200D01*
X84756781Y-62802200D02*
X84709162Y-62706961D01*
X84709162Y-62706961D02*
X84709162Y-62326009D01*
X84709162Y-62326009D02*
X84756781Y-62230771D01*
X84756781Y-62230771D02*
X84852019Y-62183152D01*
X84852019Y-62183152D02*
X85042495Y-62183152D01*
X85042495Y-62183152D02*
X85137733Y-62230771D01*
X85137733Y-62230771D02*
X85185352Y-62326009D01*
X85185352Y-62326009D02*
X85185352Y-62421247D01*
X85185352Y-62421247D02*
X84709162Y-62516485D01*
X85518686Y-62183152D02*
X85756781Y-62849819D01*
X85756781Y-62849819D02*
X85994876Y-62183152D01*
X87661543Y-62849819D02*
X87090115Y-62849819D01*
X87375829Y-62849819D02*
X87375829Y-61849819D01*
X87375829Y-61849819D02*
X87280591Y-61992676D01*
X87280591Y-61992676D02*
X87185353Y-62087914D01*
X87185353Y-62087914D02*
X87090115Y-62135533D01*
X88090115Y-62754580D02*
X88137734Y-62802200D01*
X88137734Y-62802200D02*
X88090115Y-62849819D01*
X88090115Y-62849819D02*
X88042496Y-62802200D01*
X88042496Y-62802200D02*
X88090115Y-62754580D01*
X88090115Y-62754580D02*
X88090115Y-62849819D01*
X89090114Y-62849819D02*
X88518686Y-62849819D01*
X88804400Y-62849819D02*
X88804400Y-61849819D01*
X88804400Y-61849819D02*
X88709162Y-61992676D01*
X88709162Y-61992676D02*
X88613924Y-62087914D01*
X88613924Y-62087914D02*
X88518686Y-62135533D01*
X71932969Y-65519819D02*
X71456779Y-65519819D01*
X71456779Y-65519819D02*
X71409160Y-65996009D01*
X71409160Y-65996009D02*
X71456779Y-65948390D01*
X71456779Y-65948390D02*
X71552017Y-65900771D01*
X71552017Y-65900771D02*
X71790112Y-65900771D01*
X71790112Y-65900771D02*
X71885350Y-65948390D01*
X71885350Y-65948390D02*
X71932969Y-65996009D01*
X71932969Y-65996009D02*
X71980588Y-66091247D01*
X71980588Y-66091247D02*
X71980588Y-66329342D01*
X71980588Y-66329342D02*
X71932969Y-66424580D01*
X71932969Y-66424580D02*
X71885350Y-66472200D01*
X71885350Y-66472200D02*
X71790112Y-66519819D01*
X71790112Y-66519819D02*
X71552017Y-66519819D01*
X71552017Y-66519819D02*
X71456779Y-66472200D01*
X71456779Y-66472200D02*
X71409160Y-66424580D01*
X73123445Y-65472200D02*
X72266303Y-66757914D01*
X73409160Y-65615057D02*
X73456779Y-65567438D01*
X73456779Y-65567438D02*
X73552017Y-65519819D01*
X73552017Y-65519819D02*
X73790112Y-65519819D01*
X73790112Y-65519819D02*
X73885350Y-65567438D01*
X73885350Y-65567438D02*
X73932969Y-65615057D01*
X73932969Y-65615057D02*
X73980588Y-65710295D01*
X73980588Y-65710295D02*
X73980588Y-65805533D01*
X73980588Y-65805533D02*
X73932969Y-65948390D01*
X73932969Y-65948390D02*
X73361541Y-66519819D01*
X73361541Y-66519819D02*
X73980588Y-66519819D01*
X74313922Y-65519819D02*
X74932969Y-65519819D01*
X74932969Y-65519819D02*
X74599636Y-65900771D01*
X74599636Y-65900771D02*
X74742493Y-65900771D01*
X74742493Y-65900771D02*
X74837731Y-65948390D01*
X74837731Y-65948390D02*
X74885350Y-65996009D01*
X74885350Y-65996009D02*
X74932969Y-66091247D01*
X74932969Y-66091247D02*
X74932969Y-66329342D01*
X74932969Y-66329342D02*
X74885350Y-66424580D01*
X74885350Y-66424580D02*
X74837731Y-66472200D01*
X74837731Y-66472200D02*
X74742493Y-66519819D01*
X74742493Y-66519819D02*
X74456779Y-66519819D01*
X74456779Y-66519819D02*
X74361541Y-66472200D01*
X74361541Y-66472200D02*
X74313922Y-66424580D01*
X76075826Y-65472200D02*
X75218684Y-66757914D01*
X76361541Y-65615057D02*
X76409160Y-65567438D01*
X76409160Y-65567438D02*
X76504398Y-65519819D01*
X76504398Y-65519819D02*
X76742493Y-65519819D01*
X76742493Y-65519819D02*
X76837731Y-65567438D01*
X76837731Y-65567438D02*
X76885350Y-65615057D01*
X76885350Y-65615057D02*
X76932969Y-65710295D01*
X76932969Y-65710295D02*
X76932969Y-65805533D01*
X76932969Y-65805533D02*
X76885350Y-65948390D01*
X76885350Y-65948390D02*
X76313922Y-66519819D01*
X76313922Y-66519819D02*
X76932969Y-66519819D01*
X77552017Y-65519819D02*
X77647255Y-65519819D01*
X77647255Y-65519819D02*
X77742493Y-65567438D01*
X77742493Y-65567438D02*
X77790112Y-65615057D01*
X77790112Y-65615057D02*
X77837731Y-65710295D01*
X77837731Y-65710295D02*
X77885350Y-65900771D01*
X77885350Y-65900771D02*
X77885350Y-66138866D01*
X77885350Y-66138866D02*
X77837731Y-66329342D01*
X77837731Y-66329342D02*
X77790112Y-66424580D01*
X77790112Y-66424580D02*
X77742493Y-66472200D01*
X77742493Y-66472200D02*
X77647255Y-66519819D01*
X77647255Y-66519819D02*
X77552017Y-66519819D01*
X77552017Y-66519819D02*
X77456779Y-66472200D01*
X77456779Y-66472200D02*
X77409160Y-66424580D01*
X77409160Y-66424580D02*
X77361541Y-66329342D01*
X77361541Y-66329342D02*
X77313922Y-66138866D01*
X77313922Y-66138866D02*
X77313922Y-65900771D01*
X77313922Y-65900771D02*
X77361541Y-65710295D01*
X77361541Y-65710295D02*
X77409160Y-65615057D01*
X77409160Y-65615057D02*
X77456779Y-65567438D01*
X77456779Y-65567438D02*
X77552017Y-65519819D01*
X78266303Y-65615057D02*
X78313922Y-65567438D01*
X78313922Y-65567438D02*
X78409160Y-65519819D01*
X78409160Y-65519819D02*
X78647255Y-65519819D01*
X78647255Y-65519819D02*
X78742493Y-65567438D01*
X78742493Y-65567438D02*
X78790112Y-65615057D01*
X78790112Y-65615057D02*
X78837731Y-65710295D01*
X78837731Y-65710295D02*
X78837731Y-65805533D01*
X78837731Y-65805533D02*
X78790112Y-65948390D01*
X78790112Y-65948390D02*
X78218684Y-66519819D01*
X78218684Y-66519819D02*
X78837731Y-66519819D01*
X79694874Y-65853152D02*
X79694874Y-66519819D01*
X79456779Y-65472200D02*
X79218684Y-66186485D01*
X79218684Y-66186485D02*
X79837731Y-66186485D01*
X43719819Y-66146666D02*
X43243628Y-66479999D01*
X43719819Y-66718094D02*
X42719819Y-66718094D01*
X42719819Y-66718094D02*
X42719819Y-66337142D01*
X42719819Y-66337142D02*
X42767438Y-66241904D01*
X42767438Y-66241904D02*
X42815057Y-66194285D01*
X42815057Y-66194285D02*
X42910295Y-66146666D01*
X42910295Y-66146666D02*
X43053152Y-66146666D01*
X43053152Y-66146666D02*
X43148390Y-66194285D01*
X43148390Y-66194285D02*
X43196009Y-66241904D01*
X43196009Y-66241904D02*
X43243628Y-66337142D01*
X43243628Y-66337142D02*
X43243628Y-66718094D01*
X43719819Y-65194285D02*
X43719819Y-65765713D01*
X43719819Y-65479999D02*
X42719819Y-65479999D01*
X42719819Y-65479999D02*
X42862676Y-65575237D01*
X42862676Y-65575237D02*
X42957914Y-65670475D01*
X42957914Y-65670475D02*
X43005533Y-65765713D01*
X71414819Y-36421904D02*
X71414819Y-35850476D01*
X72414819Y-36136190D02*
X71414819Y-36136190D01*
X72414819Y-34945714D02*
X71938628Y-35279047D01*
X72414819Y-35517142D02*
X71414819Y-35517142D01*
X71414819Y-35517142D02*
X71414819Y-35136190D01*
X71414819Y-35136190D02*
X71462438Y-35040952D01*
X71462438Y-35040952D02*
X71510057Y-34993333D01*
X71510057Y-34993333D02*
X71605295Y-34945714D01*
X71605295Y-34945714D02*
X71748152Y-34945714D01*
X71748152Y-34945714D02*
X71843390Y-34993333D01*
X71843390Y-34993333D02*
X71891009Y-35040952D01*
X71891009Y-35040952D02*
X71938628Y-35136190D01*
X71938628Y-35136190D02*
X71938628Y-35517142D01*
X72414819Y-33993333D02*
X72414819Y-34564761D01*
X72414819Y-34279047D02*
X71414819Y-34279047D01*
X71414819Y-34279047D02*
X71557676Y-34374285D01*
X71557676Y-34374285D02*
X71652914Y-34469523D01*
X71652914Y-34469523D02*
X71700533Y-34564761D01*
X42598333Y-59809580D02*
X42550714Y-59857200D01*
X42550714Y-59857200D02*
X42407857Y-59904819D01*
X42407857Y-59904819D02*
X42312619Y-59904819D01*
X42312619Y-59904819D02*
X42169762Y-59857200D01*
X42169762Y-59857200D02*
X42074524Y-59761961D01*
X42074524Y-59761961D02*
X42026905Y-59666723D01*
X42026905Y-59666723D02*
X41979286Y-59476247D01*
X41979286Y-59476247D02*
X41979286Y-59333390D01*
X41979286Y-59333390D02*
X42026905Y-59142914D01*
X42026905Y-59142914D02*
X42074524Y-59047676D01*
X42074524Y-59047676D02*
X42169762Y-58952438D01*
X42169762Y-58952438D02*
X42312619Y-58904819D01*
X42312619Y-58904819D02*
X42407857Y-58904819D01*
X42407857Y-58904819D02*
X42550714Y-58952438D01*
X42550714Y-58952438D02*
X42598333Y-59000057D01*
X42979286Y-59000057D02*
X43026905Y-58952438D01*
X43026905Y-58952438D02*
X43122143Y-58904819D01*
X43122143Y-58904819D02*
X43360238Y-58904819D01*
X43360238Y-58904819D02*
X43455476Y-58952438D01*
X43455476Y-58952438D02*
X43503095Y-59000057D01*
X43503095Y-59000057D02*
X43550714Y-59095295D01*
X43550714Y-59095295D02*
X43550714Y-59190533D01*
X43550714Y-59190533D02*
X43503095Y-59333390D01*
X43503095Y-59333390D02*
X42931667Y-59904819D01*
X42931667Y-59904819D02*
X43550714Y-59904819D01*
X36583333Y-71989580D02*
X36535714Y-72037200D01*
X36535714Y-72037200D02*
X36392857Y-72084819D01*
X36392857Y-72084819D02*
X36297619Y-72084819D01*
X36297619Y-72084819D02*
X36154762Y-72037200D01*
X36154762Y-72037200D02*
X36059524Y-71941961D01*
X36059524Y-71941961D02*
X36011905Y-71846723D01*
X36011905Y-71846723D02*
X35964286Y-71656247D01*
X35964286Y-71656247D02*
X35964286Y-71513390D01*
X35964286Y-71513390D02*
X36011905Y-71322914D01*
X36011905Y-71322914D02*
X36059524Y-71227676D01*
X36059524Y-71227676D02*
X36154762Y-71132438D01*
X36154762Y-71132438D02*
X36297619Y-71084819D01*
X36297619Y-71084819D02*
X36392857Y-71084819D01*
X36392857Y-71084819D02*
X36535714Y-71132438D01*
X36535714Y-71132438D02*
X36583333Y-71180057D01*
X37535714Y-72084819D02*
X36964286Y-72084819D01*
X37250000Y-72084819D02*
X37250000Y-71084819D01*
X37250000Y-71084819D02*
X37154762Y-71227676D01*
X37154762Y-71227676D02*
X37059524Y-71322914D01*
X37059524Y-71322914D02*
X36964286Y-71370533D01*
X58208333Y-59024819D02*
X57875000Y-58548628D01*
X57636905Y-59024819D02*
X57636905Y-58024819D01*
X57636905Y-58024819D02*
X58017857Y-58024819D01*
X58017857Y-58024819D02*
X58113095Y-58072438D01*
X58113095Y-58072438D02*
X58160714Y-58120057D01*
X58160714Y-58120057D02*
X58208333Y-58215295D01*
X58208333Y-58215295D02*
X58208333Y-58358152D01*
X58208333Y-58358152D02*
X58160714Y-58453390D01*
X58160714Y-58453390D02*
X58113095Y-58501009D01*
X58113095Y-58501009D02*
X58017857Y-58548628D01*
X58017857Y-58548628D02*
X57636905Y-58548628D01*
X58541667Y-58024819D02*
X59160714Y-58024819D01*
X59160714Y-58024819D02*
X58827381Y-58405771D01*
X58827381Y-58405771D02*
X58970238Y-58405771D01*
X58970238Y-58405771D02*
X59065476Y-58453390D01*
X59065476Y-58453390D02*
X59113095Y-58501009D01*
X59113095Y-58501009D02*
X59160714Y-58596247D01*
X59160714Y-58596247D02*
X59160714Y-58834342D01*
X59160714Y-58834342D02*
X59113095Y-58929580D01*
X59113095Y-58929580D02*
X59065476Y-58977200D01*
X59065476Y-58977200D02*
X58970238Y-59024819D01*
X58970238Y-59024819D02*
X58684524Y-59024819D01*
X58684524Y-59024819D02*
X58589286Y-58977200D01*
X58589286Y-58977200D02*
X58541667Y-58929580D01*
X52485833Y-60539580D02*
X52438214Y-60587200D01*
X52438214Y-60587200D02*
X52295357Y-60634819D01*
X52295357Y-60634819D02*
X52200119Y-60634819D01*
X52200119Y-60634819D02*
X52057262Y-60587200D01*
X52057262Y-60587200D02*
X51962024Y-60491961D01*
X51962024Y-60491961D02*
X51914405Y-60396723D01*
X51914405Y-60396723D02*
X51866786Y-60206247D01*
X51866786Y-60206247D02*
X51866786Y-60063390D01*
X51866786Y-60063390D02*
X51914405Y-59872914D01*
X51914405Y-59872914D02*
X51962024Y-59777676D01*
X51962024Y-59777676D02*
X52057262Y-59682438D01*
X52057262Y-59682438D02*
X52200119Y-59634819D01*
X52200119Y-59634819D02*
X52295357Y-59634819D01*
X52295357Y-59634819D02*
X52438214Y-59682438D01*
X52438214Y-59682438D02*
X52485833Y-59730057D01*
X52819167Y-59634819D02*
X53438214Y-59634819D01*
X53438214Y-59634819D02*
X53104881Y-60015771D01*
X53104881Y-60015771D02*
X53247738Y-60015771D01*
X53247738Y-60015771D02*
X53342976Y-60063390D01*
X53342976Y-60063390D02*
X53390595Y-60111009D01*
X53390595Y-60111009D02*
X53438214Y-60206247D01*
X53438214Y-60206247D02*
X53438214Y-60444342D01*
X53438214Y-60444342D02*
X53390595Y-60539580D01*
X53390595Y-60539580D02*
X53342976Y-60587200D01*
X53342976Y-60587200D02*
X53247738Y-60634819D01*
X53247738Y-60634819D02*
X52962024Y-60634819D01*
X52962024Y-60634819D02*
X52866786Y-60587200D01*
X52866786Y-60587200D02*
X52819167Y-60539580D01*
X47463095Y-61574819D02*
X47463095Y-62384342D01*
X47463095Y-62384342D02*
X47510714Y-62479580D01*
X47510714Y-62479580D02*
X47558333Y-62527200D01*
X47558333Y-62527200D02*
X47653571Y-62574819D01*
X47653571Y-62574819D02*
X47844047Y-62574819D01*
X47844047Y-62574819D02*
X47939285Y-62527200D01*
X47939285Y-62527200D02*
X47986904Y-62479580D01*
X47986904Y-62479580D02*
X48034523Y-62384342D01*
X48034523Y-62384342D02*
X48034523Y-61574819D01*
X48415476Y-61574819D02*
X49034523Y-61574819D01*
X49034523Y-61574819D02*
X48701190Y-61955771D01*
X48701190Y-61955771D02*
X48844047Y-61955771D01*
X48844047Y-61955771D02*
X48939285Y-62003390D01*
X48939285Y-62003390D02*
X48986904Y-62051009D01*
X48986904Y-62051009D02*
X49034523Y-62146247D01*
X49034523Y-62146247D02*
X49034523Y-62384342D01*
X49034523Y-62384342D02*
X48986904Y-62479580D01*
X48986904Y-62479580D02*
X48939285Y-62527200D01*
X48939285Y-62527200D02*
X48844047Y-62574819D01*
X48844047Y-62574819D02*
X48558333Y-62574819D01*
X48558333Y-62574819D02*
X48463095Y-62527200D01*
X48463095Y-62527200D02*
X48415476Y-62479580D01*
X30433333Y-75374819D02*
X30100000Y-74898628D01*
X29861905Y-75374819D02*
X29861905Y-74374819D01*
X29861905Y-74374819D02*
X30242857Y-74374819D01*
X30242857Y-74374819D02*
X30338095Y-74422438D01*
X30338095Y-74422438D02*
X30385714Y-74470057D01*
X30385714Y-74470057D02*
X30433333Y-74565295D01*
X30433333Y-74565295D02*
X30433333Y-74708152D01*
X30433333Y-74708152D02*
X30385714Y-74803390D01*
X30385714Y-74803390D02*
X30338095Y-74851009D01*
X30338095Y-74851009D02*
X30242857Y-74898628D01*
X30242857Y-74898628D02*
X29861905Y-74898628D01*
X30814286Y-74470057D02*
X30861905Y-74422438D01*
X30861905Y-74422438D02*
X30957143Y-74374819D01*
X30957143Y-74374819D02*
X31195238Y-74374819D01*
X31195238Y-74374819D02*
X31290476Y-74422438D01*
X31290476Y-74422438D02*
X31338095Y-74470057D01*
X31338095Y-74470057D02*
X31385714Y-74565295D01*
X31385714Y-74565295D02*
X31385714Y-74660533D01*
X31385714Y-74660533D02*
X31338095Y-74803390D01*
X31338095Y-74803390D02*
X30766667Y-75374819D01*
X30766667Y-75374819D02*
X31385714Y-75374819D01*
D11*
%TO.C,R1*%
X40880000Y-65752936D02*
X40880000Y-66207064D01*
X42350000Y-65752936D02*
X42350000Y-66207064D01*
%TO.C,TR1*%
X72875000Y-35387064D02*
X72875000Y-34932936D01*
X74345000Y-35387064D02*
X74345000Y-34932936D01*
%TO.C,C2*%
X42503748Y-60395000D02*
X43026252Y-60395000D01*
X42503748Y-61865000D02*
X43026252Y-61865000D01*
%TO.C,Digital_1*%
X41230000Y-74910000D02*
X41230000Y-73580000D01*
X42560000Y-74910000D02*
X41230000Y-74910000D01*
X43830000Y-72250000D02*
X66750000Y-72250000D01*
X43830000Y-74910000D02*
X43830000Y-72250000D01*
X43830000Y-74910000D02*
X66750000Y-74910000D01*
X66750000Y-74910000D02*
X66750000Y-72250000D01*
%TO.C,C1*%
X36488748Y-72575000D02*
X37011252Y-72575000D01*
X36488748Y-74045000D02*
X37011252Y-74045000D01*
%TO.C,Power_1*%
X50385000Y-26650000D02*
X50385000Y-25320000D01*
X51715000Y-26650000D02*
X50385000Y-26650000D01*
X52985000Y-23990000D02*
X70825000Y-23990000D01*
X52985000Y-26650000D02*
X52985000Y-23990000D01*
X52985000Y-26650000D02*
X70825000Y-26650000D01*
X70825000Y-26650000D02*
X70825000Y-23990000D01*
%TO.C,R3*%
X58147936Y-59485000D02*
X58602064Y-59485000D01*
X58147936Y-60955000D02*
X58602064Y-60955000D01*
%TO.C,Analog_1*%
X73240000Y-26640000D02*
X73240000Y-25310000D01*
X74570000Y-26640000D02*
X73240000Y-26640000D01*
X75840000Y-23980000D02*
X88600000Y-23980000D01*
X75840000Y-26640000D02*
X75840000Y-23980000D01*
X75840000Y-26640000D02*
X88600000Y-26640000D01*
X88600000Y-26640000D02*
X88600000Y-23980000D01*
%TO.C,C3*%
X52913752Y-57765000D02*
X52391248Y-57765000D01*
X52913752Y-59235000D02*
X52391248Y-59235000D01*
%TO.C,Digital_2*%
X68160000Y-74910000D02*
X68160000Y-73580000D01*
X69490000Y-74910000D02*
X68160000Y-74910000D01*
X70760000Y-72250000D02*
X88600000Y-72250000D01*
X70760000Y-74910000D02*
X70760000Y-72250000D01*
X70760000Y-74910000D02*
X88600000Y-74910000D01*
X88600000Y-74910000D02*
X88600000Y-72250000D01*
%TO.C,U3*%
X48225000Y-62960000D02*
X46275000Y-62960000D01*
X48225000Y-62960000D02*
X50175000Y-62960000D01*
X48225000Y-68080000D02*
X46275000Y-68080000D01*
X48225000Y-68080000D02*
X50175000Y-68080000D01*
X45525000Y-63055000D02*
X45285000Y-62725000D01*
X45765000Y-62725000D01*
X45525000Y-63055000D01*
G36*
X45525000Y-63055000D02*
G01*
X45285000Y-62725000D01*
X45765000Y-62725000D01*
X45525000Y-63055000D01*
G37*
%TO.C,R2*%
X30827064Y-72535000D02*
X30372936Y-72535000D01*
X30827064Y-74005000D02*
X30372936Y-74005000D01*
%TD*%
M02*
