%TF.GenerationSoftware,KiCad,Pcbnew,8.0.2-1*%
%TF.CreationDate,2024-05-27T06:20:34-04:00*%
%TF.ProjectId,ORA_Arduino_ESP_CAN_Shield_Rev_2,4f52415f-4172-4647-9569-6e6f5f455350,rev?*%
%TF.SameCoordinates,Original*%
%TF.FileFunction,Copper,L2,Bot*%
%TF.FilePolarity,Positive*%
%FSLAX46Y46*%
G04 Gerber Fmt 4.6, Leading zero omitted, Abs format (unit mm)*
G04 Created by KiCad (PCBNEW 8.0.2-1) date 2024-05-27 06:20:34*
%MOMM*%
%LPD*%
G01*
G04 APERTURE LIST*
G04 Aperture macros list*
%AMRoundRect*
0 Rectangle with rounded corners*
0 $1 Rounding radius*
0 $2 $3 $4 $5 $6 $7 $8 $9 X,Y pos of 4 corners*
0 Add a 4 corners polygon primitive as box body*
4,1,4,$2,$3,$4,$5,$6,$7,$8,$9,$2,$3,0*
0 Add four circle primitives for the rounded corners*
1,1,$1+$1,$2,$3*
1,1,$1+$1,$4,$5*
1,1,$1+$1,$6,$7*
1,1,$1+$1,$8,$9*
0 Add four rect primitives between the rounded corners*
20,1,$1+$1,$2,$3,$4,$5,0*
20,1,$1+$1,$4,$5,$6,$7,0*
20,1,$1+$1,$6,$7,$8,$9,0*
20,1,$1+$1,$8,$9,$2,$3,0*%
G04 Aperture macros list end*
%TA.AperFunction,ComponentPad*%
%ADD10R,1.700000X1.700000*%
%TD*%
%TA.AperFunction,ComponentPad*%
%ADD11O,1.700000X1.700000*%
%TD*%
%TA.AperFunction,ComponentPad*%
%ADD12R,1.050000X1.500000*%
%TD*%
%TA.AperFunction,ComponentPad*%
%ADD13O,1.050000X1.500000*%
%TD*%
%TA.AperFunction,ComponentPad*%
%ADD14R,2.600000X2.600000*%
%TD*%
%TA.AperFunction,ComponentPad*%
%ADD15C,2.600000*%
%TD*%
%TA.AperFunction,ComponentPad*%
%ADD16C,1.500000*%
%TD*%
%TA.AperFunction,SMDPad,CuDef*%
%ADD17RoundRect,0.250000X-0.475000X0.337500X-0.475000X-0.337500X0.475000X-0.337500X0.475000X0.337500X0*%
%TD*%
%TA.AperFunction,SMDPad,CuDef*%
%ADD18RoundRect,0.250000X0.450000X-0.350000X0.450000X0.350000X-0.450000X0.350000X-0.450000X-0.350000X0*%
%TD*%
%TA.AperFunction,SMDPad,CuDef*%
%ADD19RoundRect,0.150000X0.825000X0.150000X-0.825000X0.150000X-0.825000X-0.150000X0.825000X-0.150000X0*%
%TD*%
%TA.AperFunction,SMDPad,CuDef*%
%ADD20RoundRect,0.150000X-0.875000X-0.150000X0.875000X-0.150000X0.875000X0.150000X-0.875000X0.150000X0*%
%TD*%
%TA.AperFunction,SMDPad,CuDef*%
%ADD21RoundRect,0.250000X-0.350000X-0.450000X0.350000X-0.450000X0.350000X0.450000X-0.350000X0.450000X0*%
%TD*%
%TA.AperFunction,ViaPad*%
%ADD22C,0.600000*%
%TD*%
%TA.AperFunction,Conductor*%
%ADD23C,0.250000*%
%TD*%
%TA.AperFunction,Conductor*%
%ADD24C,0.200000*%
%TD*%
G04 APERTURE END LIST*
D10*
%TO.P,J1,1,Pin_1*%
%TO.N,unconnected-(J1-Pin_1-Pad1)*%
X127940000Y-97460000D03*
D11*
%TO.P,J1,2,Pin_2*%
%TO.N,unconnected-(J1-Pin_2-Pad2)*%
X130480000Y-97460000D03*
%TO.P,J1,3,Pin_3*%
%TO.N,unconnected-(J1-Pin_3-Pad3)*%
X133020000Y-97460000D03*
%TO.P,J1,4,Pin_4*%
%TO.N,unconnected-(J1-Pin_4-Pad4)*%
X135560000Y-97460000D03*
%TO.P,J1,5,Pin_5*%
%TO.N,+5V*%
X138100000Y-97460000D03*
%TO.P,J1,6,Pin_6*%
%TO.N,GND*%
X140640000Y-97460000D03*
%TO.P,J1,7,Pin_7*%
X143180000Y-97460000D03*
%TO.P,J1,8,Pin_8*%
%TO.N,unconnected-(J1-Pin_8-Pad8)*%
X145720000Y-97460000D03*
%TD*%
D10*
%TO.P,J3,1,Pin_1*%
%TO.N,unconnected-(J3-Pin_1-Pad1)*%
X150800000Y-97460000D03*
D11*
%TO.P,J3,2,Pin_2*%
%TO.N,unconnected-(J3-Pin_2-Pad2)*%
X153340000Y-97460000D03*
%TO.P,J3,3,Pin_3*%
%TO.N,unconnected-(J3-Pin_3-Pad3)*%
X155880000Y-97460000D03*
%TO.P,J3,4,Pin_4*%
%TO.N,unconnected-(J3-Pin_4-Pad4)*%
X158420000Y-97460000D03*
%TO.P,J3,5,Pin_5*%
%TO.N,unconnected-(J3-Pin_5-Pad5)*%
X160960000Y-97460000D03*
%TO.P,J3,6,Pin_6*%
%TO.N,unconnected-(J3-Pin_6-Pad6)*%
X163500000Y-97460000D03*
%TD*%
D10*
%TO.P,J2,1,Pin_1*%
%TO.N,SCL*%
X118796000Y-49200000D03*
D11*
%TO.P,J2,2,Pin_2*%
%TO.N,SDA*%
X121336000Y-49200000D03*
%TO.P,J2,3,Pin_3*%
%TO.N,unconnected-(J2-Pin_3-Pad3)*%
X123876000Y-49200000D03*
%TO.P,J2,4,Pin_4*%
%TO.N,GND*%
X126416000Y-49200000D03*
%TO.P,J2,5,Pin_5*%
%TO.N,SCK*%
X128956000Y-49200000D03*
%TO.P,J2,6,Pin_6*%
%TO.N,SO*%
X131496000Y-49200000D03*
%TO.P,J2,7,Pin_7*%
%TO.N,SI*%
X134036000Y-49200000D03*
%TO.P,J2,8,Pin_8*%
%TO.N,CS*%
X136576000Y-49200000D03*
%TO.P,J2,9,Pin_9*%
%TO.N,unconnected-(J2-Pin_9-Pad9)*%
X139116000Y-49200000D03*
%TO.P,J2,10,Pin_10*%
%TO.N,unconnected-(J2-Pin_10-Pad10)*%
X141656000Y-49200000D03*
%TD*%
D10*
%TO.P,J4,1,Pin_1*%
%TO.N,LEDPWR_R*%
X145720000Y-49200000D03*
D11*
%TO.P,J4,2,Pin_2*%
%TO.N,LEDPWR_G*%
X148260000Y-49200000D03*
%TO.P,J4,3,Pin_3*%
%TO.N,LEDPWR_B*%
X150800000Y-49200000D03*
%TO.P,J4,4,Pin_4*%
%TO.N,unconnected-(J4-Pin_4-Pad4)*%
X153340000Y-49200000D03*
%TO.P,J4,5,Pin_5*%
%TO.N,unconnected-(J4-Pin_5-Pad5)*%
X155880000Y-49200000D03*
%TO.P,J4,6,Pin_6*%
%TO.N,unconnected-(J4-Pin_6-Pad6)*%
X158420000Y-49200000D03*
%TO.P,J4,7,Pin_7*%
%TO.N,unconnected-(J4-Pin_7-Pad7)*%
X160960000Y-49200000D03*
%TO.P,J4,8,Pin_8*%
%TO.N,unconnected-(J4-Pin_8-Pad8)*%
X163500000Y-49200000D03*
%TD*%
D12*
%TO.P,Q2,1,D*%
%TO.N,Net-(Q2-D)*%
X119490000Y-97050000D03*
D13*
%TO.P,Q2,2,G*%
%TO.N,Net-(Q2-G)*%
X120760000Y-97050000D03*
%TO.P,Q2,3,S*%
%TO.N,GND*%
X122030000Y-97050000D03*
%TD*%
D12*
%TO.P,Q1,1,D*%
%TO.N,Net-(Q1-D)*%
X103200000Y-96960000D03*
D13*
%TO.P,Q1,2,G*%
%TO.N,Net-(Q1-G)*%
X104470000Y-96960000D03*
%TO.P,Q1,3,S*%
%TO.N,GND*%
X105740000Y-96960000D03*
%TD*%
D12*
%TO.P,Q4,1,D*%
%TO.N,Net-(Q4-D)*%
X110700000Y-96980000D03*
D13*
%TO.P,Q4,2,G*%
%TO.N,Net-(Q4-G)*%
X111970000Y-96980000D03*
%TO.P,Q4,3,S*%
%TO.N,GND*%
X113240000Y-96980000D03*
%TD*%
D14*
%TO.P,J5,1,Pin_1*%
%TO.N,CAN-*%
X107960000Y-64450000D03*
D15*
%TO.P,J5,2,Pin_2*%
%TO.N,CAN+*%
X107960000Y-69450000D03*
%TD*%
D14*
%TO.P,J6,1,Pin_1*%
%TO.N,CAN-*%
X107965000Y-79450000D03*
D15*
%TO.P,J6,2,Pin_2*%
%TO.N,CAN+*%
X107965000Y-84450000D03*
%TD*%
D16*
%TO.P,Y2,1,1*%
%TO.N,Net-(U4-OSC1)*%
X106280000Y-51050000D03*
%TO.P,Y2,2,2*%
%TO.N,Net-(U4-OSC2)*%
X111160000Y-51050000D03*
%TD*%
D14*
%TO.P,J7,1,Pin_1*%
%TO.N,LED_R*%
X161190000Y-76940000D03*
D15*
%TO.P,J7,2,Pin_2*%
%TO.N,LED_G*%
X161190000Y-71940000D03*
%TO.P,J7,3,Pin_3*%
%TO.N,LED_B*%
X161190000Y-66940000D03*
%TD*%
D10*
%TO.P,U1,1,3V3*%
%TO.N,unconnected-(U1-3V3-Pad1)*%
X153120000Y-60330000D03*
D11*
%TO.P,U1,2,GND*%
%TO.N,GND*%
X150580000Y-60330000D03*
%TO.P,U1,3,D15*%
%TO.N,unconnected-(U1-D15-Pad3)*%
X148040000Y-60330000D03*
%TO.P,U1,4,D2*%
%TO.N,unconnected-(U1-D2-Pad4)*%
X145500000Y-60330000D03*
%TO.P,U1,5,D4*%
%TO.N,unconnected-(U1-D4-Pad5)*%
X142960000Y-60330000D03*
%TO.P,U1,6,RX2*%
%TO.N,unconnected-(U1-RX2-Pad6)*%
X140420000Y-60330000D03*
%TO.P,U1,7,TX2*%
%TO.N,unconnected-(U1-TX2-Pad7)*%
X137880000Y-60330000D03*
%TO.P,U1,8,D5*%
%TO.N,unconnected-(U1-D5-Pad8)*%
X135340000Y-60330000D03*
%TO.P,U1,9,D18*%
%TO.N,unconnected-(U1-D18-Pad9)*%
X132800000Y-60330000D03*
%TO.P,U1,10,D19*%
%TO.N,unconnected-(U1-D19-Pad10)*%
X130260000Y-60330000D03*
%TO.P,U1,11,D21*%
%TO.N,SDA*%
X127720000Y-60330000D03*
%TO.P,U1,12,RX0*%
%TO.N,unconnected-(U1-RX0-Pad12)*%
X125180000Y-60330000D03*
%TO.P,U1,13,TX0*%
%TO.N,unconnected-(U1-TX0-Pad13)*%
X122640000Y-60330000D03*
%TO.P,U1,14,D22*%
%TO.N,SCL*%
X120100000Y-60330000D03*
%TO.P,U1,15,D23*%
%TO.N,unconnected-(U1-D23-Pad15)*%
X117560000Y-60330000D03*
D10*
%TO.P,U1,16,EN*%
%TO.N,unconnected-(U1-EN-Pad16)*%
X117580000Y-85730000D03*
D11*
%TO.P,U1,17,VP*%
%TO.N,unconnected-(U1-VP-Pad17)*%
X120120000Y-85730000D03*
%TO.P,U1,18,VN*%
%TO.N,unconnected-(U1-VN-Pad18)*%
X122660000Y-85730000D03*
%TO.P,U1,19,D34*%
%TO.N,unconnected-(U1-D34-Pad19)*%
X125200000Y-85730000D03*
%TO.P,U1,20,D35*%
%TO.N,unconnected-(U1-D35-Pad20)*%
X127740000Y-85730000D03*
%TO.P,U1,21,D32*%
%TO.N,unconnected-(U1-D32-Pad21)*%
X130280000Y-85730000D03*
%TO.P,U1,22,D33*%
%TO.N,unconnected-(U1-D33-Pad22)*%
X132820000Y-85730000D03*
%TO.P,U1,23,D25*%
%TO.N,unconnected-(U1-D25-Pad23)*%
X135360000Y-85730000D03*
%TO.P,U1,24,D26*%
%TO.N,unconnected-(U1-D26-Pad24)*%
X137900000Y-85730000D03*
%TO.P,U1,25,D27*%
%TO.N,unconnected-(U1-D27-Pad25)*%
X140440000Y-85730000D03*
%TO.P,U1,26,D14*%
%TO.N,unconnected-(U1-D14-Pad26)*%
X142980000Y-85730000D03*
%TO.P,U1,27,D12*%
%TO.N,unconnected-(U1-D12-Pad27)*%
X145520000Y-85730000D03*
%TO.P,U1,28,D13*%
%TO.N,unconnected-(U1-D13-Pad28)*%
X148060000Y-85730000D03*
%TO.P,U1,29,GND*%
%TO.N,GND*%
X150600000Y-85730000D03*
%TO.P,U1,30,VIN*%
%TO.N,+5V*%
X153140000Y-85730000D03*
%TD*%
D17*
%TO.P,C6,1*%
%TO.N,+5V*%
X153510000Y-78902500D03*
%TO.P,C6,2*%
%TO.N,GND*%
X153510000Y-80977500D03*
%TD*%
D18*
%TO.P,R11,1*%
%TO.N,GND*%
X159160000Y-87960000D03*
%TO.P,R11,2*%
%TO.N,Net-(U4-~{RESET})*%
X159160000Y-85960000D03*
%TD*%
D19*
%TO.P,U5,1,TXD*%
%TO.N,Net-(U4-TXCAN)*%
X140485000Y-69710000D03*
%TO.P,U5,2,VSS*%
%TO.N,GND*%
X140485000Y-70980000D03*
%TO.P,U5,3,VDD*%
%TO.N,+5V*%
X140485000Y-72250000D03*
%TO.P,U5,4,RXD*%
%TO.N,Net-(U4-RXCAN)*%
X140485000Y-73520000D03*
%TO.P,U5,5,Vref*%
%TO.N,unconnected-(U5-Vref-Pad5)*%
X135535000Y-73520000D03*
%TO.P,U5,6,CANL*%
%TO.N,CAN-*%
X135535000Y-72250000D03*
%TO.P,U5,7,CANH*%
%TO.N,CAN+*%
X135535000Y-70980000D03*
%TO.P,U5,8,Rs*%
%TO.N,Net-(U5-Rs)*%
X135535000Y-69710000D03*
%TD*%
D20*
%TO.P,U4,1,TXCAN*%
%TO.N,Net-(U4-TXCAN)*%
X143660000Y-76250000D03*
%TO.P,U4,2,RXCAN*%
%TO.N,Net-(U4-RXCAN)*%
X143660000Y-74980000D03*
%TO.P,U4,3,CLKOUT/SOF*%
%TO.N,unconnected-(U4-CLKOUT{slash}SOF-Pad3)*%
X143660000Y-73710000D03*
%TO.P,U4,4,~{TX0RTS}*%
%TO.N,unconnected-(U4-~{TX0RTS}-Pad4)*%
X143660000Y-72440000D03*
%TO.P,U4,5,~{TX1RTS}*%
%TO.N,unconnected-(U4-~{TX1RTS}-Pad5)*%
X143660000Y-71170000D03*
%TO.P,U4,6,~{TX2RTS}*%
%TO.N,unconnected-(U4-~{TX2RTS}-Pad6)*%
X143660000Y-69900000D03*
%TO.P,U4,7,OSC2*%
%TO.N,Net-(U4-OSC2)*%
X143660000Y-68630000D03*
%TO.P,U4,8,OSC1*%
%TO.N,Net-(U4-OSC1)*%
X143660000Y-67360000D03*
%TO.P,U4,9,VSS*%
%TO.N,GND*%
X143660000Y-66090000D03*
%TO.P,U4,10,~{RX1BF}*%
%TO.N,unconnected-(U4-~{RX1BF}-Pad10)*%
X152960000Y-66090000D03*
%TO.P,U4,11,~{RX0BF}*%
%TO.N,unconnected-(U4-~{RX0BF}-Pad11)*%
X152960000Y-67360000D03*
%TO.P,U4,12,~{INT}*%
%TO.N,INT*%
X152960000Y-68630000D03*
%TO.P,U4,13,SCK*%
%TO.N,SCK*%
X152960000Y-69900000D03*
%TO.P,U4,14,SI*%
%TO.N,SI*%
X152960000Y-71170000D03*
%TO.P,U4,15,SO*%
%TO.N,SO*%
X152960000Y-72440000D03*
%TO.P,U4,16,~{CS}*%
%TO.N,CS*%
X152960000Y-73710000D03*
%TO.P,U4,17,~{RESET}*%
%TO.N,Net-(U4-~{RESET})*%
X152960000Y-74980000D03*
%TO.P,U4,18,VDD*%
%TO.N,+5V*%
X152960000Y-76250000D03*
%TD*%
D21*
%TO.P,R12,1*%
%TO.N,Net-(U5-Rs)*%
X130870000Y-65370000D03*
%TO.P,R12,2*%
%TO.N,GND*%
X132870000Y-65370000D03*
%TD*%
D22*
%TO.N,GND*%
X153660000Y-81030000D03*
X148330000Y-81190000D03*
X132920000Y-65340000D03*
%TO.N,Net-(U4-OSC2)*%
X132680000Y-62650000D03*
X135960000Y-63360000D03*
X109800000Y-55700000D03*
X115910000Y-63130000D03*
%TO.N,Net-(U4-OSC1)*%
X143540000Y-67380000D03*
X105790000Y-55910000D03*
%TO.N,LEDPWR_G*%
X112190000Y-90840000D03*
%TO.N,LEDPWR_B*%
X120940000Y-90850000D03*
%TO.N,SCK*%
X152860000Y-69910000D03*
%TO.N,SI*%
X146620000Y-63240000D03*
%TO.N,CS*%
X137990000Y-52760000D03*
%TO.N,SO*%
X153400000Y-72440000D03*
%TO.N,CAN-*%
X135530000Y-72270000D03*
%TO.N,CAN+*%
X135530000Y-71000000D03*
%TD*%
D23*
%TO.N,GND*%
X138720000Y-99380000D02*
X140640000Y-97460000D01*
X153510000Y-80977500D02*
X153510000Y-82600000D01*
X140870000Y-70980000D02*
X140485000Y-70980000D01*
X132920000Y-65340000D02*
X137765908Y-65340000D01*
X105740000Y-96960000D02*
X105740000Y-97880000D01*
X119925000Y-99380000D02*
X138720000Y-99380000D01*
X141785000Y-69359092D02*
X141785000Y-70065000D01*
X158870000Y-87960000D02*
X153510000Y-82600000D01*
X159160000Y-87960000D02*
X158870000Y-87960000D01*
X105740000Y-97880000D02*
X107240000Y-99380000D01*
X153510000Y-82600000D02*
X153510000Y-82820000D01*
X145753604Y-81150000D02*
X148330000Y-81190000D01*
X138680000Y-67030000D02*
X138680000Y-74076396D01*
X135040000Y-62150000D02*
X148760000Y-62150000D01*
X122030000Y-97275000D02*
X122030000Y-97050000D01*
X148330000Y-81190000D02*
X148330000Y-81150000D01*
X139067954Y-66642046D02*
X141785000Y-69359092D01*
X113240000Y-97205000D02*
X113240000Y-96980000D01*
X132870000Y-65370000D02*
X132870000Y-64320000D01*
X137765908Y-65340000D02*
X139067954Y-66642046D01*
X138680000Y-74076396D02*
X145753604Y-81150000D01*
X153562500Y-81030000D02*
X153510000Y-80977500D01*
X111065000Y-99380000D02*
X113240000Y-97205000D01*
X107240000Y-99380000D02*
X111065000Y-99380000D01*
X138515908Y-66090000D02*
X137765908Y-65340000D01*
X148760000Y-62150000D02*
X150580000Y-60330000D01*
X143660000Y-66090000D02*
X138515908Y-66090000D01*
X153660000Y-81030000D02*
X153562500Y-81030000D01*
X141785000Y-70065000D02*
X140870000Y-70980000D01*
X153510000Y-82820000D02*
X150600000Y-85730000D01*
X111065000Y-99380000D02*
X119925000Y-99380000D01*
X119925000Y-99380000D02*
X122030000Y-97275000D01*
X139067954Y-66642046D02*
X138680000Y-67030000D01*
X132870000Y-64320000D02*
X135040000Y-62150000D01*
%TO.N,+5V*%
X140485000Y-72250000D02*
X141769092Y-72250000D01*
X151950000Y-86920000D02*
X153140000Y-85730000D01*
X152529092Y-76250000D02*
X152960000Y-76250000D01*
X149425000Y-86216701D02*
X150128299Y-86920000D01*
X153510000Y-78902500D02*
X149425000Y-82987500D01*
X152960000Y-76250000D02*
X153510000Y-76800000D01*
X149359092Y-73080000D02*
X152529092Y-76250000D01*
X150128299Y-86920000D02*
X151950000Y-86920000D01*
X153510000Y-76800000D02*
X153510000Y-78902500D01*
X142599092Y-73080000D02*
X149359092Y-73080000D01*
X141769092Y-72250000D02*
X142599092Y-73080000D01*
X149425000Y-82987500D02*
X149425000Y-86216701D01*
%TO.N,Net-(U4-OSC2)*%
X115940000Y-63100000D02*
X115970000Y-63100000D01*
X142630908Y-63360000D02*
X135960000Y-63360000D01*
X144684999Y-68630000D02*
X145010000Y-68304999D01*
X145010000Y-65739092D02*
X142630908Y-63360000D01*
X116000000Y-63100000D02*
X115910000Y-63130000D01*
X109800000Y-55700000D02*
X109800000Y-52410000D01*
X143660000Y-68630000D02*
X144684999Y-68630000D01*
X120758299Y-62650000D02*
X120308299Y-63100000D01*
X145010000Y-68304999D02*
X145010000Y-65739092D01*
X135960000Y-63360000D02*
X136050000Y-63360000D01*
X132680000Y-62650000D02*
X120758299Y-62650000D01*
X115910000Y-63130000D02*
X115940000Y-63100000D01*
X120308299Y-63100000D02*
X116000000Y-63100000D01*
X109800000Y-52410000D02*
X111160000Y-51050000D01*
%TO.N,Net-(U4-OSC1)*%
X105790000Y-55910000D02*
X106280000Y-55420000D01*
X143640000Y-67380000D02*
X143660000Y-67360000D01*
X143540000Y-67380000D02*
X143640000Y-67380000D01*
X106280000Y-55420000D02*
X106280000Y-51050000D01*
%TO.N,LEDPWR_G*%
X105600000Y-57190000D02*
X109350000Y-53440000D01*
X112190000Y-90840000D02*
X112056902Y-90840000D01*
X105600000Y-84383098D02*
X105600000Y-57190000D01*
X112535000Y-49975000D02*
X112940000Y-50380000D01*
X109350000Y-53440000D02*
X109350000Y-51339720D01*
X112056902Y-90840000D02*
X105600000Y-84383098D01*
X109350000Y-51339720D02*
X110714720Y-49975000D01*
X112940000Y-50380000D02*
X147080000Y-50380000D01*
X110714720Y-49975000D02*
X112535000Y-49975000D01*
X147080000Y-50380000D02*
X148260000Y-49200000D01*
%TO.N,LEDPWR_B*%
X148900000Y-51100000D02*
X150800000Y-49200000D01*
X122890000Y-51100000D02*
X148900000Y-51100000D01*
X120940000Y-90850000D02*
X118755000Y-88665000D01*
X114920000Y-74700000D02*
X114920000Y-59070000D01*
X114920000Y-59070000D02*
X122890000Y-51100000D01*
X118755000Y-88665000D02*
X118755000Y-78535000D01*
X118755000Y-78535000D02*
X114920000Y-74700000D01*
%TO.N,Net-(U4-~{RESET})*%
X153390908Y-74980000D02*
X152960000Y-74980000D01*
X159160000Y-85960000D02*
X159160000Y-80749092D01*
X159160000Y-80749092D02*
X153390908Y-74980000D01*
%TO.N,Net-(U5-Rs)*%
X135535000Y-69710000D02*
X131195000Y-65370000D01*
X131195000Y-65370000D02*
X130870000Y-65370000D01*
%TO.N,Net-(U4-RXCAN)*%
X140485000Y-73520000D02*
X141945000Y-74980000D01*
X141945000Y-74980000D02*
X143660000Y-74980000D01*
%TO.N,Net-(U4-TXCAN)*%
X139510001Y-69710000D02*
X139130000Y-70090001D01*
X140485000Y-69710000D02*
X139510001Y-69710000D01*
X141490000Y-76250000D02*
X143660000Y-76250000D01*
X139130000Y-73890000D02*
X141490000Y-76250000D01*
X139130000Y-70090001D02*
X139130000Y-73890000D01*
%TO.N,SI*%
X151935001Y-71170000D02*
X146650000Y-65884999D01*
X146620000Y-63240000D02*
X146650000Y-63290000D01*
X146650000Y-65884999D02*
X146620000Y-63240000D01*
X152960000Y-71170000D02*
X151935001Y-71170000D01*
%TO.N,CS*%
X151755000Y-59843299D02*
X151755000Y-62575000D01*
X154320000Y-65140000D02*
X154320000Y-73374999D01*
X154320000Y-73374999D02*
X153984999Y-73710000D01*
X151755000Y-62575000D02*
X154320000Y-65140000D01*
X153984999Y-73710000D02*
X152960000Y-73710000D01*
X144671701Y-52760000D02*
X151755000Y-59843299D01*
X137990000Y-52760000D02*
X144671701Y-52760000D01*
D24*
%TO.N,CAN-*%
X106360000Y-66050000D02*
X107960000Y-64450000D01*
X106360000Y-77845000D02*
X106360000Y-66050000D01*
X107965000Y-79450000D02*
X106360000Y-77845000D01*
%TO.N,CAN+*%
X107965000Y-84450000D02*
X109565000Y-82850000D01*
X109565000Y-71055000D02*
X107960000Y-69450000D01*
X109565000Y-82850000D02*
X109565000Y-71055000D01*
%TD*%
M02*
