%TF.GenerationSoftware,KiCad,Pcbnew,8.0.2-1*%
%TF.CreationDate,2024-05-27T06:20:31-04:00*%
%TF.ProjectId,ORA_Arduino_ESP_CAN_Shield_Rev_2,4f52415f-4172-4647-9569-6e6f5f455350,rev?*%
%TF.SameCoordinates,Original*%
%TF.FileFunction,Drillmap*%
%TF.FilePolarity,Positive*%
%FSLAX45Y45*%
G04 Gerber Fmt 4.5, Leading zero omitted, Abs format (unit mm)*
G04 Created by KiCad (PCBNEW 8.0.2-1) date 2024-05-27 06:20:31*
%MOMM*%
%LPD*%
G01*
G04 APERTURE LIST*
%ADD10C,0.150000*%
%ADD11C,0.200000*%
%ADD12C,0.100000*%
%ADD13C,0.130000*%
G04 APERTURE END LIST*
D10*
X16604000Y-5936000D02*
X16858000Y-6190000D01*
X10000000Y-9923800D02*
X10000000Y-4742200D01*
X16858000Y-6190000D02*
X16858000Y-9619000D01*
X16527800Y-10000000D02*
X10076200Y-10000000D01*
X10076200Y-4666000D02*
X16350000Y-4666000D01*
X10076200Y-10000000D02*
G75*
G02*
X10000000Y-9923800I0J76200D01*
G01*
X16858000Y-9619000D02*
X16604000Y-9873000D01*
X16350000Y-4666000D02*
X16604000Y-4920000D01*
X16604000Y-9923800D02*
G75*
G02*
X16527800Y-10000000I-76200J0D01*
G01*
X16604000Y-4920000D02*
X16604000Y-5936000D01*
X16604000Y-9873000D02*
X16604000Y-9923800D01*
X10000000Y-4742200D02*
G75*
G02*
X10076200Y-4666000I76200J0D01*
G01*
D11*
D12*
X10559000Y-5571000D02*
X10599000Y-5611000D01*
X10599000Y-5571000D02*
X10559000Y-5611000D01*
X10960000Y-5550000D02*
X11000000Y-5590000D01*
X11000000Y-5550000D02*
X10960000Y-5590000D01*
X11199000Y-9064000D02*
X11239000Y-9104000D01*
X11239000Y-9064000D02*
X11199000Y-9104000D01*
X11571000Y-6293000D02*
X11611000Y-6333000D01*
X11611000Y-6293000D02*
X11571000Y-6333000D01*
X12074000Y-9065000D02*
X12114000Y-9105000D01*
X12114000Y-9065000D02*
X12074000Y-9105000D01*
X13248000Y-6245000D02*
X13288000Y-6285000D01*
X13288000Y-6245000D02*
X13248000Y-6285000D01*
X13272000Y-6514000D02*
X13312000Y-6554000D01*
X13312000Y-6514000D02*
X13272000Y-6554000D01*
X13533000Y-7080000D02*
X13573000Y-7120000D01*
X13573000Y-7080000D02*
X13533000Y-7120000D01*
X13533000Y-7207000D02*
X13573000Y-7247000D01*
X13573000Y-7207000D02*
X13533000Y-7247000D01*
X13576000Y-6316000D02*
X13616000Y-6356000D01*
X13616000Y-6316000D02*
X13576000Y-6356000D01*
X13779000Y-5256000D02*
X13819000Y-5296000D01*
X13819000Y-5256000D02*
X13779000Y-5296000D01*
X14334000Y-6718000D02*
X14374000Y-6758000D01*
X14374000Y-6718000D02*
X14334000Y-6758000D01*
X14642000Y-6304000D02*
X14682000Y-6344000D01*
X14682000Y-6304000D02*
X14642000Y-6344000D01*
X14813000Y-8099000D02*
X14853000Y-8139000D01*
X14853000Y-8099000D02*
X14813000Y-8139000D01*
X15266000Y-6971000D02*
X15306000Y-7011000D01*
X15306000Y-6971000D02*
X15266000Y-7011000D01*
X15320000Y-7224000D02*
X15360000Y-7264000D01*
X15360000Y-7224000D02*
X15320000Y-7264000D01*
X15346000Y-8083000D02*
X15386000Y-8123000D01*
X15386000Y-8083000D02*
X15346000Y-8123000D01*
X10357500Y-9696000D02*
G75*
G02*
X10282500Y-9696000I-37500J0D01*
G01*
X10282500Y-9696000D02*
G75*
G02*
X10357500Y-9696000I37500J0D01*
G01*
X10484500Y-9696000D02*
G75*
G02*
X10409500Y-9696000I-37500J0D01*
G01*
X10409500Y-9696000D02*
G75*
G02*
X10484500Y-9696000I37500J0D01*
G01*
X10611500Y-9696000D02*
G75*
G02*
X10536500Y-9696000I-37500J0D01*
G01*
X10536500Y-9696000D02*
G75*
G02*
X10611500Y-9696000I37500J0D01*
G01*
X11107500Y-9698000D02*
G75*
G02*
X11032500Y-9698000I-37500J0D01*
G01*
X11032500Y-9698000D02*
G75*
G02*
X11107500Y-9698000I37500J0D01*
G01*
X11234500Y-9698000D02*
G75*
G02*
X11159500Y-9698000I-37500J0D01*
G01*
X11159500Y-9698000D02*
G75*
G02*
X11234500Y-9698000I37500J0D01*
G01*
X11361500Y-9698000D02*
G75*
G02*
X11286500Y-9698000I-37500J0D01*
G01*
X11286500Y-9698000D02*
G75*
G02*
X11361500Y-9698000I37500J0D01*
G01*
X11986500Y-9705000D02*
G75*
G02*
X11911500Y-9705000I-37500J0D01*
G01*
X11911500Y-9705000D02*
G75*
G02*
X11986500Y-9705000I37500J0D01*
G01*
X12113500Y-9705000D02*
G75*
G02*
X12038500Y-9705000I-37500J0D01*
G01*
X12038500Y-9705000D02*
G75*
G02*
X12113500Y-9705000I37500J0D01*
G01*
X12240500Y-9705000D02*
G75*
G02*
X12165500Y-9705000I-37500J0D01*
G01*
X12165500Y-9705000D02*
G75*
G02*
X12240500Y-9705000I37500J0D01*
G01*
X10628000Y-5065000D02*
X10628000Y-5145000D01*
X10588000Y-5105000D02*
X10668000Y-5105000D01*
X11116000Y-5065000D02*
X11116000Y-5145000D01*
X11076000Y-5105000D02*
X11156000Y-5105000D01*
X11791356Y-6068356D02*
X11791356Y-5997644D01*
X11720644Y-5997644D01*
X11720644Y-6068356D01*
X11791356Y-6068356D01*
X11793356Y-8608356D02*
X11793356Y-8537644D01*
X11722644Y-8537644D01*
X11722644Y-8608356D01*
X11793356Y-8608356D01*
X11914956Y-4955356D02*
X11914956Y-4884644D01*
X11844244Y-4884644D01*
X11844244Y-4955356D01*
X11914956Y-4955356D01*
X12045356Y-6068356D02*
X12045356Y-5997644D01*
X11974644Y-5997644D01*
X11974644Y-6068356D01*
X12045356Y-6068356D01*
X12047356Y-8608356D02*
X12047356Y-8537644D01*
X11976644Y-8537644D01*
X11976644Y-8608356D01*
X12047356Y-8608356D01*
X12168956Y-4955356D02*
X12168956Y-4884644D01*
X12098244Y-4884644D01*
X12098244Y-4955356D01*
X12168956Y-4955356D01*
X12299356Y-6068356D02*
X12299356Y-5997644D01*
X12228644Y-5997644D01*
X12228644Y-6068356D01*
X12299356Y-6068356D01*
X12301356Y-8608356D02*
X12301356Y-8537644D01*
X12230644Y-8537644D01*
X12230644Y-8608356D01*
X12301356Y-8608356D01*
X12422956Y-4955356D02*
X12422956Y-4884644D01*
X12352244Y-4884644D01*
X12352244Y-4955356D01*
X12422956Y-4955356D01*
X12553356Y-6068356D02*
X12553356Y-5997644D01*
X12482644Y-5997644D01*
X12482644Y-6068356D01*
X12553356Y-6068356D01*
X12555356Y-8608356D02*
X12555356Y-8537644D01*
X12484644Y-8537644D01*
X12484644Y-8608356D01*
X12555356Y-8608356D01*
X12676956Y-4955356D02*
X12676956Y-4884644D01*
X12606244Y-4884644D01*
X12606244Y-4955356D01*
X12676956Y-4955356D01*
X12807356Y-6068356D02*
X12807356Y-5997644D01*
X12736644Y-5997644D01*
X12736644Y-6068356D01*
X12807356Y-6068356D01*
X12809356Y-8608356D02*
X12809356Y-8537644D01*
X12738644Y-8537644D01*
X12738644Y-8608356D01*
X12809356Y-8608356D01*
X12829356Y-9781356D02*
X12829356Y-9710644D01*
X12758644Y-9710644D01*
X12758644Y-9781356D01*
X12829356Y-9781356D01*
X12930956Y-4955356D02*
X12930956Y-4884644D01*
X12860244Y-4884644D01*
X12860244Y-4955356D01*
X12930956Y-4955356D01*
X13061356Y-6068356D02*
X13061356Y-5997644D01*
X12990644Y-5997644D01*
X12990644Y-6068356D01*
X13061356Y-6068356D01*
X13063356Y-8608356D02*
X13063356Y-8537644D01*
X12992644Y-8537644D01*
X12992644Y-8608356D01*
X13063356Y-8608356D01*
X13083356Y-9781356D02*
X13083356Y-9710644D01*
X13012644Y-9710644D01*
X13012644Y-9781356D01*
X13083356Y-9781356D01*
X13184956Y-4955356D02*
X13184956Y-4884644D01*
X13114244Y-4884644D01*
X13114244Y-4955356D01*
X13184956Y-4955356D01*
X13315356Y-6068356D02*
X13315356Y-5997644D01*
X13244644Y-5997644D01*
X13244644Y-6068356D01*
X13315356Y-6068356D01*
X13317356Y-8608356D02*
X13317356Y-8537644D01*
X13246644Y-8537644D01*
X13246644Y-8608356D01*
X13317356Y-8608356D01*
X13337356Y-9781356D02*
X13337356Y-9710644D01*
X13266644Y-9710644D01*
X13266644Y-9781356D01*
X13337356Y-9781356D01*
X13438956Y-4955356D02*
X13438956Y-4884644D01*
X13368244Y-4884644D01*
X13368244Y-4955356D01*
X13438956Y-4955356D01*
X13569356Y-6068356D02*
X13569356Y-5997644D01*
X13498644Y-5997644D01*
X13498644Y-6068356D01*
X13569356Y-6068356D01*
X13571356Y-8608356D02*
X13571356Y-8537644D01*
X13500644Y-8537644D01*
X13500644Y-8608356D01*
X13571356Y-8608356D01*
X13591356Y-9781356D02*
X13591356Y-9710644D01*
X13520644Y-9710644D01*
X13520644Y-9781356D01*
X13591356Y-9781356D01*
X13692956Y-4955356D02*
X13692956Y-4884644D01*
X13622244Y-4884644D01*
X13622244Y-4955356D01*
X13692956Y-4955356D01*
X13823356Y-6068356D02*
X13823356Y-5997644D01*
X13752644Y-5997644D01*
X13752644Y-6068356D01*
X13823356Y-6068356D01*
X13825356Y-8608356D02*
X13825356Y-8537644D01*
X13754644Y-8537644D01*
X13754644Y-8608356D01*
X13825356Y-8608356D01*
X13845356Y-9781356D02*
X13845356Y-9710644D01*
X13774644Y-9710644D01*
X13774644Y-9781356D01*
X13845356Y-9781356D01*
X13946956Y-4955356D02*
X13946956Y-4884644D01*
X13876244Y-4884644D01*
X13876244Y-4955356D01*
X13946956Y-4955356D01*
X14077356Y-6068356D02*
X14077356Y-5997644D01*
X14006644Y-5997644D01*
X14006644Y-6068356D01*
X14077356Y-6068356D01*
X14079356Y-8608356D02*
X14079356Y-8537644D01*
X14008644Y-8537644D01*
X14008644Y-8608356D01*
X14079356Y-8608356D01*
X14099356Y-9781356D02*
X14099356Y-9710644D01*
X14028644Y-9710644D01*
X14028644Y-9781356D01*
X14099356Y-9781356D01*
X14200956Y-4955356D02*
X14200956Y-4884644D01*
X14130244Y-4884644D01*
X14130244Y-4955356D01*
X14200956Y-4955356D01*
X14331356Y-6068356D02*
X14331356Y-5997644D01*
X14260644Y-5997644D01*
X14260644Y-6068356D01*
X14331356Y-6068356D01*
X14333356Y-8608356D02*
X14333356Y-8537644D01*
X14262644Y-8537644D01*
X14262644Y-8608356D01*
X14333356Y-8608356D01*
X14353356Y-9781356D02*
X14353356Y-9710644D01*
X14282644Y-9710644D01*
X14282644Y-9781356D01*
X14353356Y-9781356D01*
X14585356Y-6068356D02*
X14585356Y-5997644D01*
X14514644Y-5997644D01*
X14514644Y-6068356D01*
X14585356Y-6068356D01*
X14587356Y-8608356D02*
X14587356Y-8537644D01*
X14516644Y-8537644D01*
X14516644Y-8608356D01*
X14587356Y-8608356D01*
X14607356Y-4955356D02*
X14607356Y-4884644D01*
X14536644Y-4884644D01*
X14536644Y-4955356D01*
X14607356Y-4955356D01*
X14607356Y-9781356D02*
X14607356Y-9710644D01*
X14536644Y-9710644D01*
X14536644Y-9781356D01*
X14607356Y-9781356D01*
X14839356Y-6068356D02*
X14839356Y-5997644D01*
X14768644Y-5997644D01*
X14768644Y-6068356D01*
X14839356Y-6068356D01*
X14841356Y-8608356D02*
X14841356Y-8537644D01*
X14770644Y-8537644D01*
X14770644Y-8608356D01*
X14841356Y-8608356D01*
X14861356Y-4955356D02*
X14861356Y-4884644D01*
X14790644Y-4884644D01*
X14790644Y-4955356D01*
X14861356Y-4955356D01*
X15093356Y-6068356D02*
X15093356Y-5997644D01*
X15022644Y-5997644D01*
X15022644Y-6068356D01*
X15093356Y-6068356D01*
X15095356Y-8608356D02*
X15095356Y-8537644D01*
X15024644Y-8537644D01*
X15024644Y-8608356D01*
X15095356Y-8608356D01*
X15115356Y-4955356D02*
X15115356Y-4884644D01*
X15044644Y-4884644D01*
X15044644Y-4955356D01*
X15115356Y-4955356D01*
X15115356Y-9781356D02*
X15115356Y-9710644D01*
X15044644Y-9710644D01*
X15044644Y-9781356D01*
X15115356Y-9781356D01*
X15347356Y-6068356D02*
X15347356Y-5997644D01*
X15276644Y-5997644D01*
X15276644Y-6068356D01*
X15347356Y-6068356D01*
X15349356Y-8608356D02*
X15349356Y-8537644D01*
X15278644Y-8537644D01*
X15278644Y-8608356D01*
X15349356Y-8608356D01*
X15369356Y-4955356D02*
X15369356Y-4884644D01*
X15298644Y-4884644D01*
X15298644Y-4955356D01*
X15369356Y-4955356D01*
X15369356Y-9781356D02*
X15369356Y-9710644D01*
X15298644Y-9710644D01*
X15298644Y-9781356D01*
X15369356Y-9781356D01*
X15623356Y-4955356D02*
X15623356Y-4884644D01*
X15552644Y-4884644D01*
X15552644Y-4955356D01*
X15623356Y-4955356D01*
X15623356Y-9781356D02*
X15623356Y-9710644D01*
X15552644Y-9710644D01*
X15552644Y-9781356D01*
X15623356Y-9781356D01*
X15877356Y-4955356D02*
X15877356Y-4884644D01*
X15806644Y-4884644D01*
X15806644Y-4955356D01*
X15877356Y-4955356D01*
X15877356Y-9781356D02*
X15877356Y-9710644D01*
X15806644Y-9710644D01*
X15806644Y-9781356D01*
X15877356Y-9781356D01*
X16131356Y-4955356D02*
X16131356Y-4884644D01*
X16060644Y-4884644D01*
X16060644Y-4955356D01*
X16131356Y-4955356D01*
X16131356Y-9781356D02*
X16131356Y-9710644D01*
X16060644Y-9710644D01*
X16060644Y-9781356D01*
X16131356Y-9781356D01*
X16385356Y-4955356D02*
X16385356Y-4884644D01*
X16314644Y-4884644D01*
X16314644Y-4955356D01*
X16385356Y-4955356D01*
X16385356Y-9781356D02*
X16385356Y-9710644D01*
X16314644Y-9710644D01*
X16314644Y-9781356D01*
X16385356Y-9781356D01*
D13*
X10796000Y-6510000D02*
X10861000Y-6445000D01*
X10796000Y-6380000D01*
X10731000Y-6445000D01*
X10796000Y-6510000D01*
X10796000Y-7010000D02*
X10861000Y-6945000D01*
X10796000Y-6880000D01*
X10731000Y-6945000D01*
X10796000Y-7010000D01*
X10796500Y-8010000D02*
X10861500Y-7945000D01*
X10796500Y-7880000D01*
X10731500Y-7945000D01*
X10796500Y-8010000D01*
X10796500Y-8510000D02*
X10861500Y-8445000D01*
X10796500Y-8380000D01*
X10731500Y-8445000D01*
X10796500Y-8510000D01*
X16119000Y-6759000D02*
X16184000Y-6694000D01*
X16119000Y-6629000D01*
X16054000Y-6694000D01*
X16119000Y-6759000D01*
X16119000Y-7259000D02*
X16184000Y-7194000D01*
X16119000Y-7129000D01*
X16054000Y-7194000D01*
X16119000Y-7259000D01*
X16119000Y-7759000D02*
X16184000Y-7694000D01*
X16119000Y-7629000D01*
X16054000Y-7694000D01*
X16119000Y-7759000D01*
D11*
X10253277Y-10318984D02*
X10253277Y-10118984D01*
X10253277Y-10118984D02*
X10300896Y-10118984D01*
X10300896Y-10118984D02*
X10329467Y-10128508D01*
X10329467Y-10128508D02*
X10348515Y-10147555D01*
X10348515Y-10147555D02*
X10358039Y-10166603D01*
X10358039Y-10166603D02*
X10367563Y-10204698D01*
X10367563Y-10204698D02*
X10367563Y-10233270D01*
X10367563Y-10233270D02*
X10358039Y-10271365D01*
X10358039Y-10271365D02*
X10348515Y-10290412D01*
X10348515Y-10290412D02*
X10329467Y-10309460D01*
X10329467Y-10309460D02*
X10300896Y-10318984D01*
X10300896Y-10318984D02*
X10253277Y-10318984D01*
X10453277Y-10318984D02*
X10453277Y-10185650D01*
X10453277Y-10223746D02*
X10462801Y-10204698D01*
X10462801Y-10204698D02*
X10472324Y-10195174D01*
X10472324Y-10195174D02*
X10491372Y-10185650D01*
X10491372Y-10185650D02*
X10510420Y-10185650D01*
X10577086Y-10318984D02*
X10577086Y-10185650D01*
X10577086Y-10118984D02*
X10567563Y-10128508D01*
X10567563Y-10128508D02*
X10577086Y-10138031D01*
X10577086Y-10138031D02*
X10586610Y-10128508D01*
X10586610Y-10128508D02*
X10577086Y-10118984D01*
X10577086Y-10118984D02*
X10577086Y-10138031D01*
X10700896Y-10318984D02*
X10681848Y-10309460D01*
X10681848Y-10309460D02*
X10672324Y-10290412D01*
X10672324Y-10290412D02*
X10672324Y-10118984D01*
X10805658Y-10318984D02*
X10786610Y-10309460D01*
X10786610Y-10309460D02*
X10777086Y-10290412D01*
X10777086Y-10290412D02*
X10777086Y-10118984D01*
X11034229Y-10318984D02*
X11034229Y-10118984D01*
X11034229Y-10118984D02*
X11100896Y-10261841D01*
X11100896Y-10261841D02*
X11167563Y-10118984D01*
X11167563Y-10118984D02*
X11167563Y-10318984D01*
X11348515Y-10318984D02*
X11348515Y-10214222D01*
X11348515Y-10214222D02*
X11338991Y-10195174D01*
X11338991Y-10195174D02*
X11319943Y-10185650D01*
X11319943Y-10185650D02*
X11281848Y-10185650D01*
X11281848Y-10185650D02*
X11262801Y-10195174D01*
X11348515Y-10309460D02*
X11329467Y-10318984D01*
X11329467Y-10318984D02*
X11281848Y-10318984D01*
X11281848Y-10318984D02*
X11262801Y-10309460D01*
X11262801Y-10309460D02*
X11253277Y-10290412D01*
X11253277Y-10290412D02*
X11253277Y-10271365D01*
X11253277Y-10271365D02*
X11262801Y-10252317D01*
X11262801Y-10252317D02*
X11281848Y-10242793D01*
X11281848Y-10242793D02*
X11329467Y-10242793D01*
X11329467Y-10242793D02*
X11348515Y-10233270D01*
X11443753Y-10185650D02*
X11443753Y-10385650D01*
X11443753Y-10195174D02*
X11462801Y-10185650D01*
X11462801Y-10185650D02*
X11500896Y-10185650D01*
X11500896Y-10185650D02*
X11519943Y-10195174D01*
X11519943Y-10195174D02*
X11529467Y-10204698D01*
X11529467Y-10204698D02*
X11538991Y-10223746D01*
X11538991Y-10223746D02*
X11538991Y-10280889D01*
X11538991Y-10280889D02*
X11529467Y-10299936D01*
X11529467Y-10299936D02*
X11519943Y-10309460D01*
X11519943Y-10309460D02*
X11500896Y-10318984D01*
X11500896Y-10318984D02*
X11462801Y-10318984D01*
X11462801Y-10318984D02*
X11443753Y-10309460D01*
X11624705Y-10299936D02*
X11634229Y-10309460D01*
X11634229Y-10309460D02*
X11624705Y-10318984D01*
X11624705Y-10318984D02*
X11615182Y-10309460D01*
X11615182Y-10309460D02*
X11624705Y-10299936D01*
X11624705Y-10299936D02*
X11624705Y-10318984D01*
X11624705Y-10195174D02*
X11634229Y-10204698D01*
X11634229Y-10204698D02*
X11624705Y-10214222D01*
X11624705Y-10214222D02*
X11615182Y-10204698D01*
X11615182Y-10204698D02*
X11624705Y-10195174D01*
X11624705Y-10195174D02*
X11624705Y-10214222D01*
D12*
X9952500Y-10627500D02*
X9992500Y-10667500D01*
X9992500Y-10627500D02*
X9952500Y-10667500D01*
D11*
X10291372Y-10538984D02*
X10310420Y-10538984D01*
X10310420Y-10538984D02*
X10329467Y-10548508D01*
X10329467Y-10548508D02*
X10338991Y-10558031D01*
X10338991Y-10558031D02*
X10348515Y-10577079D01*
X10348515Y-10577079D02*
X10358039Y-10615174D01*
X10358039Y-10615174D02*
X10358039Y-10662793D01*
X10358039Y-10662793D02*
X10348515Y-10700889D01*
X10348515Y-10700889D02*
X10338991Y-10719936D01*
X10338991Y-10719936D02*
X10329467Y-10729460D01*
X10329467Y-10729460D02*
X10310420Y-10738984D01*
X10310420Y-10738984D02*
X10291372Y-10738984D01*
X10291372Y-10738984D02*
X10272324Y-10729460D01*
X10272324Y-10729460D02*
X10262801Y-10719936D01*
X10262801Y-10719936D02*
X10253277Y-10700889D01*
X10253277Y-10700889D02*
X10243753Y-10662793D01*
X10243753Y-10662793D02*
X10243753Y-10615174D01*
X10243753Y-10615174D02*
X10253277Y-10577079D01*
X10253277Y-10577079D02*
X10262801Y-10558031D01*
X10262801Y-10558031D02*
X10272324Y-10548508D01*
X10272324Y-10548508D02*
X10291372Y-10538984D01*
X10443753Y-10719936D02*
X10453277Y-10729460D01*
X10453277Y-10729460D02*
X10443753Y-10738984D01*
X10443753Y-10738984D02*
X10434229Y-10729460D01*
X10434229Y-10729460D02*
X10443753Y-10719936D01*
X10443753Y-10719936D02*
X10443753Y-10738984D01*
X10624705Y-10605650D02*
X10624705Y-10738984D01*
X10577086Y-10529460D02*
X10529467Y-10672317D01*
X10529467Y-10672317D02*
X10653277Y-10672317D01*
X10767563Y-10538984D02*
X10786610Y-10538984D01*
X10786610Y-10538984D02*
X10805658Y-10548508D01*
X10805658Y-10548508D02*
X10815182Y-10558031D01*
X10815182Y-10558031D02*
X10824705Y-10577079D01*
X10824705Y-10577079D02*
X10834229Y-10615174D01*
X10834229Y-10615174D02*
X10834229Y-10662793D01*
X10834229Y-10662793D02*
X10824705Y-10700889D01*
X10824705Y-10700889D02*
X10815182Y-10719936D01*
X10815182Y-10719936D02*
X10805658Y-10729460D01*
X10805658Y-10729460D02*
X10786610Y-10738984D01*
X10786610Y-10738984D02*
X10767563Y-10738984D01*
X10767563Y-10738984D02*
X10748515Y-10729460D01*
X10748515Y-10729460D02*
X10738991Y-10719936D01*
X10738991Y-10719936D02*
X10729467Y-10700889D01*
X10729467Y-10700889D02*
X10719944Y-10662793D01*
X10719944Y-10662793D02*
X10719944Y-10615174D01*
X10719944Y-10615174D02*
X10729467Y-10577079D01*
X10729467Y-10577079D02*
X10738991Y-10558031D01*
X10738991Y-10558031D02*
X10748515Y-10548508D01*
X10748515Y-10548508D02*
X10767563Y-10538984D01*
X10958039Y-10538984D02*
X10977086Y-10538984D01*
X10977086Y-10538984D02*
X10996134Y-10548508D01*
X10996134Y-10548508D02*
X11005658Y-10558031D01*
X11005658Y-10558031D02*
X11015182Y-10577079D01*
X11015182Y-10577079D02*
X11024705Y-10615174D01*
X11024705Y-10615174D02*
X11024705Y-10662793D01*
X11024705Y-10662793D02*
X11015182Y-10700889D01*
X11015182Y-10700889D02*
X11005658Y-10719936D01*
X11005658Y-10719936D02*
X10996134Y-10729460D01*
X10996134Y-10729460D02*
X10977086Y-10738984D01*
X10977086Y-10738984D02*
X10958039Y-10738984D01*
X10958039Y-10738984D02*
X10938991Y-10729460D01*
X10938991Y-10729460D02*
X10929467Y-10719936D01*
X10929467Y-10719936D02*
X10919944Y-10700889D01*
X10919944Y-10700889D02*
X10910420Y-10662793D01*
X10910420Y-10662793D02*
X10910420Y-10615174D01*
X10910420Y-10615174D02*
X10919944Y-10577079D01*
X10919944Y-10577079D02*
X10929467Y-10558031D01*
X10929467Y-10558031D02*
X10938991Y-10548508D01*
X10938991Y-10548508D02*
X10958039Y-10538984D01*
X11110420Y-10738984D02*
X11110420Y-10605650D01*
X11110420Y-10624698D02*
X11119944Y-10615174D01*
X11119944Y-10615174D02*
X11138991Y-10605650D01*
X11138991Y-10605650D02*
X11167563Y-10605650D01*
X11167563Y-10605650D02*
X11186610Y-10615174D01*
X11186610Y-10615174D02*
X11196134Y-10634222D01*
X11196134Y-10634222D02*
X11196134Y-10738984D01*
X11196134Y-10634222D02*
X11205658Y-10615174D01*
X11205658Y-10615174D02*
X11224705Y-10605650D01*
X11224705Y-10605650D02*
X11253277Y-10605650D01*
X11253277Y-10605650D02*
X11272324Y-10615174D01*
X11272324Y-10615174D02*
X11281848Y-10634222D01*
X11281848Y-10634222D02*
X11281848Y-10738984D01*
X11377086Y-10738984D02*
X11377086Y-10605650D01*
X11377086Y-10624698D02*
X11386610Y-10615174D01*
X11386610Y-10615174D02*
X11405658Y-10605650D01*
X11405658Y-10605650D02*
X11434229Y-10605650D01*
X11434229Y-10605650D02*
X11453277Y-10615174D01*
X11453277Y-10615174D02*
X11462801Y-10634222D01*
X11462801Y-10634222D02*
X11462801Y-10738984D01*
X11462801Y-10634222D02*
X11472324Y-10615174D01*
X11472324Y-10615174D02*
X11491372Y-10605650D01*
X11491372Y-10605650D02*
X11519943Y-10605650D01*
X11519943Y-10605650D02*
X11538991Y-10615174D01*
X11538991Y-10615174D02*
X11548515Y-10634222D01*
X11548515Y-10634222D02*
X11548515Y-10738984D01*
X11938991Y-10529460D02*
X11767563Y-10786603D01*
X12196134Y-10538984D02*
X12215182Y-10538984D01*
X12215182Y-10538984D02*
X12234229Y-10548508D01*
X12234229Y-10548508D02*
X12243753Y-10558031D01*
X12243753Y-10558031D02*
X12253277Y-10577079D01*
X12253277Y-10577079D02*
X12262801Y-10615174D01*
X12262801Y-10615174D02*
X12262801Y-10662793D01*
X12262801Y-10662793D02*
X12253277Y-10700889D01*
X12253277Y-10700889D02*
X12243753Y-10719936D01*
X12243753Y-10719936D02*
X12234229Y-10729460D01*
X12234229Y-10729460D02*
X12215182Y-10738984D01*
X12215182Y-10738984D02*
X12196134Y-10738984D01*
X12196134Y-10738984D02*
X12177086Y-10729460D01*
X12177086Y-10729460D02*
X12167563Y-10719936D01*
X12167563Y-10719936D02*
X12158039Y-10700889D01*
X12158039Y-10700889D02*
X12148515Y-10662793D01*
X12148515Y-10662793D02*
X12148515Y-10615174D01*
X12148515Y-10615174D02*
X12158039Y-10577079D01*
X12158039Y-10577079D02*
X12167563Y-10558031D01*
X12167563Y-10558031D02*
X12177086Y-10548508D01*
X12177086Y-10548508D02*
X12196134Y-10538984D01*
X12348515Y-10719936D02*
X12358039Y-10729460D01*
X12358039Y-10729460D02*
X12348515Y-10738984D01*
X12348515Y-10738984D02*
X12338991Y-10729460D01*
X12338991Y-10729460D02*
X12348515Y-10719936D01*
X12348515Y-10719936D02*
X12348515Y-10738984D01*
X12481848Y-10538984D02*
X12500896Y-10538984D01*
X12500896Y-10538984D02*
X12519944Y-10548508D01*
X12519944Y-10548508D02*
X12529467Y-10558031D01*
X12529467Y-10558031D02*
X12538991Y-10577079D01*
X12538991Y-10577079D02*
X12548515Y-10615174D01*
X12548515Y-10615174D02*
X12548515Y-10662793D01*
X12548515Y-10662793D02*
X12538991Y-10700889D01*
X12538991Y-10700889D02*
X12529467Y-10719936D01*
X12529467Y-10719936D02*
X12519944Y-10729460D01*
X12519944Y-10729460D02*
X12500896Y-10738984D01*
X12500896Y-10738984D02*
X12481848Y-10738984D01*
X12481848Y-10738984D02*
X12462801Y-10729460D01*
X12462801Y-10729460D02*
X12453277Y-10719936D01*
X12453277Y-10719936D02*
X12443753Y-10700889D01*
X12443753Y-10700889D02*
X12434229Y-10662793D01*
X12434229Y-10662793D02*
X12434229Y-10615174D01*
X12434229Y-10615174D02*
X12443753Y-10577079D01*
X12443753Y-10577079D02*
X12453277Y-10558031D01*
X12453277Y-10558031D02*
X12462801Y-10548508D01*
X12462801Y-10548508D02*
X12481848Y-10538984D01*
X12738991Y-10738984D02*
X12624706Y-10738984D01*
X12681848Y-10738984D02*
X12681848Y-10538984D01*
X12681848Y-10538984D02*
X12662801Y-10567555D01*
X12662801Y-10567555D02*
X12643753Y-10586603D01*
X12643753Y-10586603D02*
X12624706Y-10596127D01*
X12919944Y-10538984D02*
X12824706Y-10538984D01*
X12824706Y-10538984D02*
X12815182Y-10634222D01*
X12815182Y-10634222D02*
X12824706Y-10624698D01*
X12824706Y-10624698D02*
X12843753Y-10615174D01*
X12843753Y-10615174D02*
X12891372Y-10615174D01*
X12891372Y-10615174D02*
X12910420Y-10624698D01*
X12910420Y-10624698D02*
X12919944Y-10634222D01*
X12919944Y-10634222D02*
X12929467Y-10653270D01*
X12929467Y-10653270D02*
X12929467Y-10700889D01*
X12929467Y-10700889D02*
X12919944Y-10719936D01*
X12919944Y-10719936D02*
X12910420Y-10729460D01*
X12910420Y-10729460D02*
X12891372Y-10738984D01*
X12891372Y-10738984D02*
X12843753Y-10738984D01*
X12843753Y-10738984D02*
X12824706Y-10729460D01*
X12824706Y-10729460D02*
X12815182Y-10719936D01*
X12996134Y-10538984D02*
X13129467Y-10538984D01*
X13129467Y-10538984D02*
X13043753Y-10738984D01*
X13196134Y-10538984D02*
X13196134Y-10577079D01*
X13272325Y-10538984D02*
X13272325Y-10577079D01*
X13567563Y-10815174D02*
X13558039Y-10805650D01*
X13558039Y-10805650D02*
X13538991Y-10777079D01*
X13538991Y-10777079D02*
X13529468Y-10758031D01*
X13529468Y-10758031D02*
X13519944Y-10729460D01*
X13519944Y-10729460D02*
X13510420Y-10681841D01*
X13510420Y-10681841D02*
X13510420Y-10643746D01*
X13510420Y-10643746D02*
X13519944Y-10596127D01*
X13519944Y-10596127D02*
X13529468Y-10567555D01*
X13529468Y-10567555D02*
X13538991Y-10548508D01*
X13538991Y-10548508D02*
X13558039Y-10519936D01*
X13558039Y-10519936D02*
X13567563Y-10510412D01*
X13748515Y-10738984D02*
X13634229Y-10738984D01*
X13691372Y-10738984D02*
X13691372Y-10538984D01*
X13691372Y-10538984D02*
X13672325Y-10567555D01*
X13672325Y-10567555D02*
X13653277Y-10586603D01*
X13653277Y-10586603D02*
X13634229Y-10596127D01*
X13815182Y-10538984D02*
X13948515Y-10538984D01*
X13948515Y-10538984D02*
X13862801Y-10738984D01*
X14177087Y-10738984D02*
X14177087Y-10538984D01*
X14262801Y-10738984D02*
X14262801Y-10634222D01*
X14262801Y-10634222D02*
X14253277Y-10615174D01*
X14253277Y-10615174D02*
X14234230Y-10605650D01*
X14234230Y-10605650D02*
X14205658Y-10605650D01*
X14205658Y-10605650D02*
X14186610Y-10615174D01*
X14186610Y-10615174D02*
X14177087Y-10624698D01*
X14386610Y-10738984D02*
X14367563Y-10729460D01*
X14367563Y-10729460D02*
X14358039Y-10719936D01*
X14358039Y-10719936D02*
X14348515Y-10700889D01*
X14348515Y-10700889D02*
X14348515Y-10643746D01*
X14348515Y-10643746D02*
X14358039Y-10624698D01*
X14358039Y-10624698D02*
X14367563Y-10615174D01*
X14367563Y-10615174D02*
X14386610Y-10605650D01*
X14386610Y-10605650D02*
X14415182Y-10605650D01*
X14415182Y-10605650D02*
X14434230Y-10615174D01*
X14434230Y-10615174D02*
X14443753Y-10624698D01*
X14443753Y-10624698D02*
X14453277Y-10643746D01*
X14453277Y-10643746D02*
X14453277Y-10700889D01*
X14453277Y-10700889D02*
X14443753Y-10719936D01*
X14443753Y-10719936D02*
X14434230Y-10729460D01*
X14434230Y-10729460D02*
X14415182Y-10738984D01*
X14415182Y-10738984D02*
X14386610Y-10738984D01*
X14567563Y-10738984D02*
X14548515Y-10729460D01*
X14548515Y-10729460D02*
X14538991Y-10710412D01*
X14538991Y-10710412D02*
X14538991Y-10538984D01*
X14719944Y-10729460D02*
X14700896Y-10738984D01*
X14700896Y-10738984D02*
X14662801Y-10738984D01*
X14662801Y-10738984D02*
X14643753Y-10729460D01*
X14643753Y-10729460D02*
X14634230Y-10710412D01*
X14634230Y-10710412D02*
X14634230Y-10634222D01*
X14634230Y-10634222D02*
X14643753Y-10615174D01*
X14643753Y-10615174D02*
X14662801Y-10605650D01*
X14662801Y-10605650D02*
X14700896Y-10605650D01*
X14700896Y-10605650D02*
X14719944Y-10615174D01*
X14719944Y-10615174D02*
X14729468Y-10634222D01*
X14729468Y-10634222D02*
X14729468Y-10653270D01*
X14729468Y-10653270D02*
X14634230Y-10672317D01*
X14805658Y-10729460D02*
X14824706Y-10738984D01*
X14824706Y-10738984D02*
X14862801Y-10738984D01*
X14862801Y-10738984D02*
X14881849Y-10729460D01*
X14881849Y-10729460D02*
X14891372Y-10710412D01*
X14891372Y-10710412D02*
X14891372Y-10700889D01*
X14891372Y-10700889D02*
X14881849Y-10681841D01*
X14881849Y-10681841D02*
X14862801Y-10672317D01*
X14862801Y-10672317D02*
X14834230Y-10672317D01*
X14834230Y-10672317D02*
X14815182Y-10662793D01*
X14815182Y-10662793D02*
X14805658Y-10643746D01*
X14805658Y-10643746D02*
X14805658Y-10634222D01*
X14805658Y-10634222D02*
X14815182Y-10615174D01*
X14815182Y-10615174D02*
X14834230Y-10605650D01*
X14834230Y-10605650D02*
X14862801Y-10605650D01*
X14862801Y-10605650D02*
X14881849Y-10615174D01*
X14958039Y-10815174D02*
X14967563Y-10805650D01*
X14967563Y-10805650D02*
X14986611Y-10777079D01*
X14986611Y-10777079D02*
X14996134Y-10758031D01*
X14996134Y-10758031D02*
X15005658Y-10729460D01*
X15005658Y-10729460D02*
X15015182Y-10681841D01*
X15015182Y-10681841D02*
X15015182Y-10643746D01*
X15015182Y-10643746D02*
X15005658Y-10596127D01*
X15005658Y-10596127D02*
X14996134Y-10567555D01*
X14996134Y-10567555D02*
X14986611Y-10548508D01*
X14986611Y-10548508D02*
X14967563Y-10519936D01*
X14967563Y-10519936D02*
X14958039Y-10510412D01*
D12*
X9992500Y-10911500D02*
G75*
G02*
X9917500Y-10911500I-37500J0D01*
G01*
X9917500Y-10911500D02*
G75*
G02*
X9992500Y-10911500I37500J0D01*
G01*
D11*
X10291372Y-10802984D02*
X10310420Y-10802984D01*
X10310420Y-10802984D02*
X10329467Y-10812508D01*
X10329467Y-10812508D02*
X10338991Y-10822031D01*
X10338991Y-10822031D02*
X10348515Y-10841079D01*
X10348515Y-10841079D02*
X10358039Y-10879174D01*
X10358039Y-10879174D02*
X10358039Y-10926793D01*
X10358039Y-10926793D02*
X10348515Y-10964889D01*
X10348515Y-10964889D02*
X10338991Y-10983936D01*
X10338991Y-10983936D02*
X10329467Y-10993460D01*
X10329467Y-10993460D02*
X10310420Y-11002984D01*
X10310420Y-11002984D02*
X10291372Y-11002984D01*
X10291372Y-11002984D02*
X10272324Y-10993460D01*
X10272324Y-10993460D02*
X10262801Y-10983936D01*
X10262801Y-10983936D02*
X10253277Y-10964889D01*
X10253277Y-10964889D02*
X10243753Y-10926793D01*
X10243753Y-10926793D02*
X10243753Y-10879174D01*
X10243753Y-10879174D02*
X10253277Y-10841079D01*
X10253277Y-10841079D02*
X10262801Y-10822031D01*
X10262801Y-10822031D02*
X10272324Y-10812508D01*
X10272324Y-10812508D02*
X10291372Y-10802984D01*
X10443753Y-10983936D02*
X10453277Y-10993460D01*
X10453277Y-10993460D02*
X10443753Y-11002984D01*
X10443753Y-11002984D02*
X10434229Y-10993460D01*
X10434229Y-10993460D02*
X10443753Y-10983936D01*
X10443753Y-10983936D02*
X10443753Y-11002984D01*
X10519944Y-10802984D02*
X10653277Y-10802984D01*
X10653277Y-10802984D02*
X10567563Y-11002984D01*
X10824705Y-10802984D02*
X10729467Y-10802984D01*
X10729467Y-10802984D02*
X10719944Y-10898222D01*
X10719944Y-10898222D02*
X10729467Y-10888698D01*
X10729467Y-10888698D02*
X10748515Y-10879174D01*
X10748515Y-10879174D02*
X10796134Y-10879174D01*
X10796134Y-10879174D02*
X10815182Y-10888698D01*
X10815182Y-10888698D02*
X10824705Y-10898222D01*
X10824705Y-10898222D02*
X10834229Y-10917270D01*
X10834229Y-10917270D02*
X10834229Y-10964889D01*
X10834229Y-10964889D02*
X10824705Y-10983936D01*
X10824705Y-10983936D02*
X10815182Y-10993460D01*
X10815182Y-10993460D02*
X10796134Y-11002984D01*
X10796134Y-11002984D02*
X10748515Y-11002984D01*
X10748515Y-11002984D02*
X10729467Y-10993460D01*
X10729467Y-10993460D02*
X10719944Y-10983936D01*
X10958039Y-10802984D02*
X10977086Y-10802984D01*
X10977086Y-10802984D02*
X10996134Y-10812508D01*
X10996134Y-10812508D02*
X11005658Y-10822031D01*
X11005658Y-10822031D02*
X11015182Y-10841079D01*
X11015182Y-10841079D02*
X11024705Y-10879174D01*
X11024705Y-10879174D02*
X11024705Y-10926793D01*
X11024705Y-10926793D02*
X11015182Y-10964889D01*
X11015182Y-10964889D02*
X11005658Y-10983936D01*
X11005658Y-10983936D02*
X10996134Y-10993460D01*
X10996134Y-10993460D02*
X10977086Y-11002984D01*
X10977086Y-11002984D02*
X10958039Y-11002984D01*
X10958039Y-11002984D02*
X10938991Y-10993460D01*
X10938991Y-10993460D02*
X10929467Y-10983936D01*
X10929467Y-10983936D02*
X10919944Y-10964889D01*
X10919944Y-10964889D02*
X10910420Y-10926793D01*
X10910420Y-10926793D02*
X10910420Y-10879174D01*
X10910420Y-10879174D02*
X10919944Y-10841079D01*
X10919944Y-10841079D02*
X10929467Y-10822031D01*
X10929467Y-10822031D02*
X10938991Y-10812508D01*
X10938991Y-10812508D02*
X10958039Y-10802984D01*
X11110420Y-11002984D02*
X11110420Y-10869650D01*
X11110420Y-10888698D02*
X11119944Y-10879174D01*
X11119944Y-10879174D02*
X11138991Y-10869650D01*
X11138991Y-10869650D02*
X11167563Y-10869650D01*
X11167563Y-10869650D02*
X11186610Y-10879174D01*
X11186610Y-10879174D02*
X11196134Y-10898222D01*
X11196134Y-10898222D02*
X11196134Y-11002984D01*
X11196134Y-10898222D02*
X11205658Y-10879174D01*
X11205658Y-10879174D02*
X11224705Y-10869650D01*
X11224705Y-10869650D02*
X11253277Y-10869650D01*
X11253277Y-10869650D02*
X11272324Y-10879174D01*
X11272324Y-10879174D02*
X11281848Y-10898222D01*
X11281848Y-10898222D02*
X11281848Y-11002984D01*
X11377086Y-11002984D02*
X11377086Y-10869650D01*
X11377086Y-10888698D02*
X11386610Y-10879174D01*
X11386610Y-10879174D02*
X11405658Y-10869650D01*
X11405658Y-10869650D02*
X11434229Y-10869650D01*
X11434229Y-10869650D02*
X11453277Y-10879174D01*
X11453277Y-10879174D02*
X11462801Y-10898222D01*
X11462801Y-10898222D02*
X11462801Y-11002984D01*
X11462801Y-10898222D02*
X11472324Y-10879174D01*
X11472324Y-10879174D02*
X11491372Y-10869650D01*
X11491372Y-10869650D02*
X11519943Y-10869650D01*
X11519943Y-10869650D02*
X11538991Y-10879174D01*
X11538991Y-10879174D02*
X11548515Y-10898222D01*
X11548515Y-10898222D02*
X11548515Y-11002984D01*
X11938991Y-10793460D02*
X11767563Y-11050603D01*
X12196134Y-10802984D02*
X12215182Y-10802984D01*
X12215182Y-10802984D02*
X12234229Y-10812508D01*
X12234229Y-10812508D02*
X12243753Y-10822031D01*
X12243753Y-10822031D02*
X12253277Y-10841079D01*
X12253277Y-10841079D02*
X12262801Y-10879174D01*
X12262801Y-10879174D02*
X12262801Y-10926793D01*
X12262801Y-10926793D02*
X12253277Y-10964889D01*
X12253277Y-10964889D02*
X12243753Y-10983936D01*
X12243753Y-10983936D02*
X12234229Y-10993460D01*
X12234229Y-10993460D02*
X12215182Y-11002984D01*
X12215182Y-11002984D02*
X12196134Y-11002984D01*
X12196134Y-11002984D02*
X12177086Y-10993460D01*
X12177086Y-10993460D02*
X12167563Y-10983936D01*
X12167563Y-10983936D02*
X12158039Y-10964889D01*
X12158039Y-10964889D02*
X12148515Y-10926793D01*
X12148515Y-10926793D02*
X12148515Y-10879174D01*
X12148515Y-10879174D02*
X12158039Y-10841079D01*
X12158039Y-10841079D02*
X12167563Y-10822031D01*
X12167563Y-10822031D02*
X12177086Y-10812508D01*
X12177086Y-10812508D02*
X12196134Y-10802984D01*
X12348515Y-10983936D02*
X12358039Y-10993460D01*
X12358039Y-10993460D02*
X12348515Y-11002984D01*
X12348515Y-11002984D02*
X12338991Y-10993460D01*
X12338991Y-10993460D02*
X12348515Y-10983936D01*
X12348515Y-10983936D02*
X12348515Y-11002984D01*
X12481848Y-10802984D02*
X12500896Y-10802984D01*
X12500896Y-10802984D02*
X12519944Y-10812508D01*
X12519944Y-10812508D02*
X12529467Y-10822031D01*
X12529467Y-10822031D02*
X12538991Y-10841079D01*
X12538991Y-10841079D02*
X12548515Y-10879174D01*
X12548515Y-10879174D02*
X12548515Y-10926793D01*
X12548515Y-10926793D02*
X12538991Y-10964889D01*
X12538991Y-10964889D02*
X12529467Y-10983936D01*
X12529467Y-10983936D02*
X12519944Y-10993460D01*
X12519944Y-10993460D02*
X12500896Y-11002984D01*
X12500896Y-11002984D02*
X12481848Y-11002984D01*
X12481848Y-11002984D02*
X12462801Y-10993460D01*
X12462801Y-10993460D02*
X12453277Y-10983936D01*
X12453277Y-10983936D02*
X12443753Y-10964889D01*
X12443753Y-10964889D02*
X12434229Y-10926793D01*
X12434229Y-10926793D02*
X12434229Y-10879174D01*
X12434229Y-10879174D02*
X12443753Y-10841079D01*
X12443753Y-10841079D02*
X12453277Y-10822031D01*
X12453277Y-10822031D02*
X12462801Y-10812508D01*
X12462801Y-10812508D02*
X12481848Y-10802984D01*
X12624706Y-10822031D02*
X12634229Y-10812508D01*
X12634229Y-10812508D02*
X12653277Y-10802984D01*
X12653277Y-10802984D02*
X12700896Y-10802984D01*
X12700896Y-10802984D02*
X12719944Y-10812508D01*
X12719944Y-10812508D02*
X12729467Y-10822031D01*
X12729467Y-10822031D02*
X12738991Y-10841079D01*
X12738991Y-10841079D02*
X12738991Y-10860127D01*
X12738991Y-10860127D02*
X12729467Y-10888698D01*
X12729467Y-10888698D02*
X12615182Y-11002984D01*
X12615182Y-11002984D02*
X12738991Y-11002984D01*
X12834229Y-11002984D02*
X12872325Y-11002984D01*
X12872325Y-11002984D02*
X12891372Y-10993460D01*
X12891372Y-10993460D02*
X12900896Y-10983936D01*
X12900896Y-10983936D02*
X12919944Y-10955365D01*
X12919944Y-10955365D02*
X12929467Y-10917270D01*
X12929467Y-10917270D02*
X12929467Y-10841079D01*
X12929467Y-10841079D02*
X12919944Y-10822031D01*
X12919944Y-10822031D02*
X12910420Y-10812508D01*
X12910420Y-10812508D02*
X12891372Y-10802984D01*
X12891372Y-10802984D02*
X12853277Y-10802984D01*
X12853277Y-10802984D02*
X12834229Y-10812508D01*
X12834229Y-10812508D02*
X12824706Y-10822031D01*
X12824706Y-10822031D02*
X12815182Y-10841079D01*
X12815182Y-10841079D02*
X12815182Y-10888698D01*
X12815182Y-10888698D02*
X12824706Y-10907746D01*
X12824706Y-10907746D02*
X12834229Y-10917270D01*
X12834229Y-10917270D02*
X12853277Y-10926793D01*
X12853277Y-10926793D02*
X12891372Y-10926793D01*
X12891372Y-10926793D02*
X12910420Y-10917270D01*
X12910420Y-10917270D02*
X12919944Y-10907746D01*
X12919944Y-10907746D02*
X12929467Y-10888698D01*
X13110420Y-10802984D02*
X13015182Y-10802984D01*
X13015182Y-10802984D02*
X13005658Y-10898222D01*
X13005658Y-10898222D02*
X13015182Y-10888698D01*
X13015182Y-10888698D02*
X13034229Y-10879174D01*
X13034229Y-10879174D02*
X13081848Y-10879174D01*
X13081848Y-10879174D02*
X13100896Y-10888698D01*
X13100896Y-10888698D02*
X13110420Y-10898222D01*
X13110420Y-10898222D02*
X13119944Y-10917270D01*
X13119944Y-10917270D02*
X13119944Y-10964889D01*
X13119944Y-10964889D02*
X13110420Y-10983936D01*
X13110420Y-10983936D02*
X13100896Y-10993460D01*
X13100896Y-10993460D02*
X13081848Y-11002984D01*
X13081848Y-11002984D02*
X13034229Y-11002984D01*
X13034229Y-11002984D02*
X13015182Y-10993460D01*
X13015182Y-10993460D02*
X13005658Y-10983936D01*
X13196134Y-10802984D02*
X13196134Y-10841079D01*
X13272325Y-10802984D02*
X13272325Y-10841079D01*
X13567563Y-11079174D02*
X13558039Y-11069650D01*
X13558039Y-11069650D02*
X13538991Y-11041079D01*
X13538991Y-11041079D02*
X13529468Y-11022031D01*
X13529468Y-11022031D02*
X13519944Y-10993460D01*
X13519944Y-10993460D02*
X13510420Y-10945841D01*
X13510420Y-10945841D02*
X13510420Y-10907746D01*
X13510420Y-10907746D02*
X13519944Y-10860127D01*
X13519944Y-10860127D02*
X13529468Y-10831555D01*
X13529468Y-10831555D02*
X13538991Y-10812508D01*
X13538991Y-10812508D02*
X13558039Y-10783936D01*
X13558039Y-10783936D02*
X13567563Y-10774412D01*
X13653277Y-11002984D02*
X13691372Y-11002984D01*
X13691372Y-11002984D02*
X13710420Y-10993460D01*
X13710420Y-10993460D02*
X13719944Y-10983936D01*
X13719944Y-10983936D02*
X13738991Y-10955365D01*
X13738991Y-10955365D02*
X13748515Y-10917270D01*
X13748515Y-10917270D02*
X13748515Y-10841079D01*
X13748515Y-10841079D02*
X13738991Y-10822031D01*
X13738991Y-10822031D02*
X13729468Y-10812508D01*
X13729468Y-10812508D02*
X13710420Y-10802984D01*
X13710420Y-10802984D02*
X13672325Y-10802984D01*
X13672325Y-10802984D02*
X13653277Y-10812508D01*
X13653277Y-10812508D02*
X13643753Y-10822031D01*
X13643753Y-10822031D02*
X13634229Y-10841079D01*
X13634229Y-10841079D02*
X13634229Y-10888698D01*
X13634229Y-10888698D02*
X13643753Y-10907746D01*
X13643753Y-10907746D02*
X13653277Y-10917270D01*
X13653277Y-10917270D02*
X13672325Y-10926793D01*
X13672325Y-10926793D02*
X13710420Y-10926793D01*
X13710420Y-10926793D02*
X13729468Y-10917270D01*
X13729468Y-10917270D02*
X13738991Y-10907746D01*
X13738991Y-10907746D02*
X13748515Y-10888698D01*
X13986610Y-11002984D02*
X13986610Y-10802984D01*
X14072325Y-11002984D02*
X14072325Y-10898222D01*
X14072325Y-10898222D02*
X14062801Y-10879174D01*
X14062801Y-10879174D02*
X14043753Y-10869650D01*
X14043753Y-10869650D02*
X14015182Y-10869650D01*
X14015182Y-10869650D02*
X13996134Y-10879174D01*
X13996134Y-10879174D02*
X13986610Y-10888698D01*
X14196134Y-11002984D02*
X14177087Y-10993460D01*
X14177087Y-10993460D02*
X14167563Y-10983936D01*
X14167563Y-10983936D02*
X14158039Y-10964889D01*
X14158039Y-10964889D02*
X14158039Y-10907746D01*
X14158039Y-10907746D02*
X14167563Y-10888698D01*
X14167563Y-10888698D02*
X14177087Y-10879174D01*
X14177087Y-10879174D02*
X14196134Y-10869650D01*
X14196134Y-10869650D02*
X14224706Y-10869650D01*
X14224706Y-10869650D02*
X14243753Y-10879174D01*
X14243753Y-10879174D02*
X14253277Y-10888698D01*
X14253277Y-10888698D02*
X14262801Y-10907746D01*
X14262801Y-10907746D02*
X14262801Y-10964889D01*
X14262801Y-10964889D02*
X14253277Y-10983936D01*
X14253277Y-10983936D02*
X14243753Y-10993460D01*
X14243753Y-10993460D02*
X14224706Y-11002984D01*
X14224706Y-11002984D02*
X14196134Y-11002984D01*
X14377087Y-11002984D02*
X14358039Y-10993460D01*
X14358039Y-10993460D02*
X14348515Y-10974412D01*
X14348515Y-10974412D02*
X14348515Y-10802984D01*
X14529468Y-10993460D02*
X14510420Y-11002984D01*
X14510420Y-11002984D02*
X14472325Y-11002984D01*
X14472325Y-11002984D02*
X14453277Y-10993460D01*
X14453277Y-10993460D02*
X14443753Y-10974412D01*
X14443753Y-10974412D02*
X14443753Y-10898222D01*
X14443753Y-10898222D02*
X14453277Y-10879174D01*
X14453277Y-10879174D02*
X14472325Y-10869650D01*
X14472325Y-10869650D02*
X14510420Y-10869650D01*
X14510420Y-10869650D02*
X14529468Y-10879174D01*
X14529468Y-10879174D02*
X14538991Y-10898222D01*
X14538991Y-10898222D02*
X14538991Y-10917270D01*
X14538991Y-10917270D02*
X14443753Y-10936317D01*
X14615182Y-10993460D02*
X14634230Y-11002984D01*
X14634230Y-11002984D02*
X14672325Y-11002984D01*
X14672325Y-11002984D02*
X14691372Y-10993460D01*
X14691372Y-10993460D02*
X14700896Y-10974412D01*
X14700896Y-10974412D02*
X14700896Y-10964889D01*
X14700896Y-10964889D02*
X14691372Y-10945841D01*
X14691372Y-10945841D02*
X14672325Y-10936317D01*
X14672325Y-10936317D02*
X14643753Y-10936317D01*
X14643753Y-10936317D02*
X14624706Y-10926793D01*
X14624706Y-10926793D02*
X14615182Y-10907746D01*
X14615182Y-10907746D02*
X14615182Y-10898222D01*
X14615182Y-10898222D02*
X14624706Y-10879174D01*
X14624706Y-10879174D02*
X14643753Y-10869650D01*
X14643753Y-10869650D02*
X14672325Y-10869650D01*
X14672325Y-10869650D02*
X14691372Y-10879174D01*
X14767563Y-11079174D02*
X14777087Y-11069650D01*
X14777087Y-11069650D02*
X14796134Y-11041079D01*
X14796134Y-11041079D02*
X14805658Y-11022031D01*
X14805658Y-11022031D02*
X14815182Y-10993460D01*
X14815182Y-10993460D02*
X14824706Y-10945841D01*
X14824706Y-10945841D02*
X14824706Y-10907746D01*
X14824706Y-10907746D02*
X14815182Y-10860127D01*
X14815182Y-10860127D02*
X14805658Y-10831555D01*
X14805658Y-10831555D02*
X14796134Y-10812508D01*
X14796134Y-10812508D02*
X14777087Y-10783936D01*
X14777087Y-10783936D02*
X14767563Y-10774412D01*
D12*
X9952500Y-11135500D02*
X9952500Y-11215500D01*
X9912500Y-11175500D02*
X9992500Y-11175500D01*
D11*
X10291372Y-11066984D02*
X10310420Y-11066984D01*
X10310420Y-11066984D02*
X10329467Y-11076508D01*
X10329467Y-11076508D02*
X10338991Y-11086031D01*
X10338991Y-11086031D02*
X10348515Y-11105079D01*
X10348515Y-11105079D02*
X10358039Y-11143174D01*
X10358039Y-11143174D02*
X10358039Y-11190793D01*
X10358039Y-11190793D02*
X10348515Y-11228888D01*
X10348515Y-11228888D02*
X10338991Y-11247936D01*
X10338991Y-11247936D02*
X10329467Y-11257460D01*
X10329467Y-11257460D02*
X10310420Y-11266984D01*
X10310420Y-11266984D02*
X10291372Y-11266984D01*
X10291372Y-11266984D02*
X10272324Y-11257460D01*
X10272324Y-11257460D02*
X10262801Y-11247936D01*
X10262801Y-11247936D02*
X10253277Y-11228888D01*
X10253277Y-11228888D02*
X10243753Y-11190793D01*
X10243753Y-11190793D02*
X10243753Y-11143174D01*
X10243753Y-11143174D02*
X10253277Y-11105079D01*
X10253277Y-11105079D02*
X10262801Y-11086031D01*
X10262801Y-11086031D02*
X10272324Y-11076508D01*
X10272324Y-11076508D02*
X10291372Y-11066984D01*
X10443753Y-11247936D02*
X10453277Y-11257460D01*
X10453277Y-11257460D02*
X10443753Y-11266984D01*
X10443753Y-11266984D02*
X10434229Y-11257460D01*
X10434229Y-11257460D02*
X10443753Y-11247936D01*
X10443753Y-11247936D02*
X10443753Y-11266984D01*
X10567563Y-11152698D02*
X10548515Y-11143174D01*
X10548515Y-11143174D02*
X10538991Y-11133650D01*
X10538991Y-11133650D02*
X10529467Y-11114603D01*
X10529467Y-11114603D02*
X10529467Y-11105079D01*
X10529467Y-11105079D02*
X10538991Y-11086031D01*
X10538991Y-11086031D02*
X10548515Y-11076508D01*
X10548515Y-11076508D02*
X10567563Y-11066984D01*
X10567563Y-11066984D02*
X10605658Y-11066984D01*
X10605658Y-11066984D02*
X10624705Y-11076508D01*
X10624705Y-11076508D02*
X10634229Y-11086031D01*
X10634229Y-11086031D02*
X10643753Y-11105079D01*
X10643753Y-11105079D02*
X10643753Y-11114603D01*
X10643753Y-11114603D02*
X10634229Y-11133650D01*
X10634229Y-11133650D02*
X10624705Y-11143174D01*
X10624705Y-11143174D02*
X10605658Y-11152698D01*
X10605658Y-11152698D02*
X10567563Y-11152698D01*
X10567563Y-11152698D02*
X10548515Y-11162222D01*
X10548515Y-11162222D02*
X10538991Y-11171746D01*
X10538991Y-11171746D02*
X10529467Y-11190793D01*
X10529467Y-11190793D02*
X10529467Y-11228888D01*
X10529467Y-11228888D02*
X10538991Y-11247936D01*
X10538991Y-11247936D02*
X10548515Y-11257460D01*
X10548515Y-11257460D02*
X10567563Y-11266984D01*
X10567563Y-11266984D02*
X10605658Y-11266984D01*
X10605658Y-11266984D02*
X10624705Y-11257460D01*
X10624705Y-11257460D02*
X10634229Y-11247936D01*
X10634229Y-11247936D02*
X10643753Y-11228888D01*
X10643753Y-11228888D02*
X10643753Y-11190793D01*
X10643753Y-11190793D02*
X10634229Y-11171746D01*
X10634229Y-11171746D02*
X10624705Y-11162222D01*
X10624705Y-11162222D02*
X10605658Y-11152698D01*
X10767563Y-11066984D02*
X10786610Y-11066984D01*
X10786610Y-11066984D02*
X10805658Y-11076508D01*
X10805658Y-11076508D02*
X10815182Y-11086031D01*
X10815182Y-11086031D02*
X10824705Y-11105079D01*
X10824705Y-11105079D02*
X10834229Y-11143174D01*
X10834229Y-11143174D02*
X10834229Y-11190793D01*
X10834229Y-11190793D02*
X10824705Y-11228888D01*
X10824705Y-11228888D02*
X10815182Y-11247936D01*
X10815182Y-11247936D02*
X10805658Y-11257460D01*
X10805658Y-11257460D02*
X10786610Y-11266984D01*
X10786610Y-11266984D02*
X10767563Y-11266984D01*
X10767563Y-11266984D02*
X10748515Y-11257460D01*
X10748515Y-11257460D02*
X10738991Y-11247936D01*
X10738991Y-11247936D02*
X10729467Y-11228888D01*
X10729467Y-11228888D02*
X10719944Y-11190793D01*
X10719944Y-11190793D02*
X10719944Y-11143174D01*
X10719944Y-11143174D02*
X10729467Y-11105079D01*
X10729467Y-11105079D02*
X10738991Y-11086031D01*
X10738991Y-11086031D02*
X10748515Y-11076508D01*
X10748515Y-11076508D02*
X10767563Y-11066984D01*
X10958039Y-11066984D02*
X10977086Y-11066984D01*
X10977086Y-11066984D02*
X10996134Y-11076508D01*
X10996134Y-11076508D02*
X11005658Y-11086031D01*
X11005658Y-11086031D02*
X11015182Y-11105079D01*
X11015182Y-11105079D02*
X11024705Y-11143174D01*
X11024705Y-11143174D02*
X11024705Y-11190793D01*
X11024705Y-11190793D02*
X11015182Y-11228888D01*
X11015182Y-11228888D02*
X11005658Y-11247936D01*
X11005658Y-11247936D02*
X10996134Y-11257460D01*
X10996134Y-11257460D02*
X10977086Y-11266984D01*
X10977086Y-11266984D02*
X10958039Y-11266984D01*
X10958039Y-11266984D02*
X10938991Y-11257460D01*
X10938991Y-11257460D02*
X10929467Y-11247936D01*
X10929467Y-11247936D02*
X10919944Y-11228888D01*
X10919944Y-11228888D02*
X10910420Y-11190793D01*
X10910420Y-11190793D02*
X10910420Y-11143174D01*
X10910420Y-11143174D02*
X10919944Y-11105079D01*
X10919944Y-11105079D02*
X10929467Y-11086031D01*
X10929467Y-11086031D02*
X10938991Y-11076508D01*
X10938991Y-11076508D02*
X10958039Y-11066984D01*
X11110420Y-11266984D02*
X11110420Y-11133650D01*
X11110420Y-11152698D02*
X11119944Y-11143174D01*
X11119944Y-11143174D02*
X11138991Y-11133650D01*
X11138991Y-11133650D02*
X11167563Y-11133650D01*
X11167563Y-11133650D02*
X11186610Y-11143174D01*
X11186610Y-11143174D02*
X11196134Y-11162222D01*
X11196134Y-11162222D02*
X11196134Y-11266984D01*
X11196134Y-11162222D02*
X11205658Y-11143174D01*
X11205658Y-11143174D02*
X11224705Y-11133650D01*
X11224705Y-11133650D02*
X11253277Y-11133650D01*
X11253277Y-11133650D02*
X11272324Y-11143174D01*
X11272324Y-11143174D02*
X11281848Y-11162222D01*
X11281848Y-11162222D02*
X11281848Y-11266984D01*
X11377086Y-11266984D02*
X11377086Y-11133650D01*
X11377086Y-11152698D02*
X11386610Y-11143174D01*
X11386610Y-11143174D02*
X11405658Y-11133650D01*
X11405658Y-11133650D02*
X11434229Y-11133650D01*
X11434229Y-11133650D02*
X11453277Y-11143174D01*
X11453277Y-11143174D02*
X11462801Y-11162222D01*
X11462801Y-11162222D02*
X11462801Y-11266984D01*
X11462801Y-11162222D02*
X11472324Y-11143174D01*
X11472324Y-11143174D02*
X11491372Y-11133650D01*
X11491372Y-11133650D02*
X11519943Y-11133650D01*
X11519943Y-11133650D02*
X11538991Y-11143174D01*
X11538991Y-11143174D02*
X11548515Y-11162222D01*
X11548515Y-11162222D02*
X11548515Y-11266984D01*
X11938991Y-11057460D02*
X11767563Y-11314603D01*
X12196134Y-11066984D02*
X12215182Y-11066984D01*
X12215182Y-11066984D02*
X12234229Y-11076508D01*
X12234229Y-11076508D02*
X12243753Y-11086031D01*
X12243753Y-11086031D02*
X12253277Y-11105079D01*
X12253277Y-11105079D02*
X12262801Y-11143174D01*
X12262801Y-11143174D02*
X12262801Y-11190793D01*
X12262801Y-11190793D02*
X12253277Y-11228888D01*
X12253277Y-11228888D02*
X12243753Y-11247936D01*
X12243753Y-11247936D02*
X12234229Y-11257460D01*
X12234229Y-11257460D02*
X12215182Y-11266984D01*
X12215182Y-11266984D02*
X12196134Y-11266984D01*
X12196134Y-11266984D02*
X12177086Y-11257460D01*
X12177086Y-11257460D02*
X12167563Y-11247936D01*
X12167563Y-11247936D02*
X12158039Y-11228888D01*
X12158039Y-11228888D02*
X12148515Y-11190793D01*
X12148515Y-11190793D02*
X12148515Y-11143174D01*
X12148515Y-11143174D02*
X12158039Y-11105079D01*
X12158039Y-11105079D02*
X12167563Y-11086031D01*
X12167563Y-11086031D02*
X12177086Y-11076508D01*
X12177086Y-11076508D02*
X12196134Y-11066984D01*
X12348515Y-11247936D02*
X12358039Y-11257460D01*
X12358039Y-11257460D02*
X12348515Y-11266984D01*
X12348515Y-11266984D02*
X12338991Y-11257460D01*
X12338991Y-11257460D02*
X12348515Y-11247936D01*
X12348515Y-11247936D02*
X12348515Y-11266984D01*
X12481848Y-11066984D02*
X12500896Y-11066984D01*
X12500896Y-11066984D02*
X12519944Y-11076508D01*
X12519944Y-11076508D02*
X12529467Y-11086031D01*
X12529467Y-11086031D02*
X12538991Y-11105079D01*
X12538991Y-11105079D02*
X12548515Y-11143174D01*
X12548515Y-11143174D02*
X12548515Y-11190793D01*
X12548515Y-11190793D02*
X12538991Y-11228888D01*
X12538991Y-11228888D02*
X12529467Y-11247936D01*
X12529467Y-11247936D02*
X12519944Y-11257460D01*
X12519944Y-11257460D02*
X12500896Y-11266984D01*
X12500896Y-11266984D02*
X12481848Y-11266984D01*
X12481848Y-11266984D02*
X12462801Y-11257460D01*
X12462801Y-11257460D02*
X12453277Y-11247936D01*
X12453277Y-11247936D02*
X12443753Y-11228888D01*
X12443753Y-11228888D02*
X12434229Y-11190793D01*
X12434229Y-11190793D02*
X12434229Y-11143174D01*
X12434229Y-11143174D02*
X12443753Y-11105079D01*
X12443753Y-11105079D02*
X12453277Y-11086031D01*
X12453277Y-11086031D02*
X12462801Y-11076508D01*
X12462801Y-11076508D02*
X12481848Y-11066984D01*
X12615182Y-11066984D02*
X12738991Y-11066984D01*
X12738991Y-11066984D02*
X12672325Y-11143174D01*
X12672325Y-11143174D02*
X12700896Y-11143174D01*
X12700896Y-11143174D02*
X12719944Y-11152698D01*
X12719944Y-11152698D02*
X12729467Y-11162222D01*
X12729467Y-11162222D02*
X12738991Y-11181270D01*
X12738991Y-11181270D02*
X12738991Y-11228888D01*
X12738991Y-11228888D02*
X12729467Y-11247936D01*
X12729467Y-11247936D02*
X12719944Y-11257460D01*
X12719944Y-11257460D02*
X12700896Y-11266984D01*
X12700896Y-11266984D02*
X12643753Y-11266984D01*
X12643753Y-11266984D02*
X12624706Y-11257460D01*
X12624706Y-11257460D02*
X12615182Y-11247936D01*
X12929467Y-11266984D02*
X12815182Y-11266984D01*
X12872325Y-11266984D02*
X12872325Y-11066984D01*
X12872325Y-11066984D02*
X12853277Y-11095555D01*
X12853277Y-11095555D02*
X12834229Y-11114603D01*
X12834229Y-11114603D02*
X12815182Y-11124127D01*
X13110420Y-11066984D02*
X13015182Y-11066984D01*
X13015182Y-11066984D02*
X13005658Y-11162222D01*
X13005658Y-11162222D02*
X13015182Y-11152698D01*
X13015182Y-11152698D02*
X13034229Y-11143174D01*
X13034229Y-11143174D02*
X13081848Y-11143174D01*
X13081848Y-11143174D02*
X13100896Y-11152698D01*
X13100896Y-11152698D02*
X13110420Y-11162222D01*
X13110420Y-11162222D02*
X13119944Y-11181270D01*
X13119944Y-11181270D02*
X13119944Y-11228888D01*
X13119944Y-11228888D02*
X13110420Y-11247936D01*
X13110420Y-11247936D02*
X13100896Y-11257460D01*
X13100896Y-11257460D02*
X13081848Y-11266984D01*
X13081848Y-11266984D02*
X13034229Y-11266984D01*
X13034229Y-11266984D02*
X13015182Y-11257460D01*
X13015182Y-11257460D02*
X13005658Y-11247936D01*
X13196134Y-11066984D02*
X13196134Y-11105079D01*
X13272325Y-11066984D02*
X13272325Y-11105079D01*
X13567563Y-11343174D02*
X13558039Y-11333650D01*
X13558039Y-11333650D02*
X13538991Y-11305079D01*
X13538991Y-11305079D02*
X13529468Y-11286031D01*
X13529468Y-11286031D02*
X13519944Y-11257460D01*
X13519944Y-11257460D02*
X13510420Y-11209841D01*
X13510420Y-11209841D02*
X13510420Y-11171746D01*
X13510420Y-11171746D02*
X13519944Y-11124127D01*
X13519944Y-11124127D02*
X13529468Y-11095555D01*
X13529468Y-11095555D02*
X13538991Y-11076508D01*
X13538991Y-11076508D02*
X13558039Y-11047936D01*
X13558039Y-11047936D02*
X13567563Y-11038412D01*
X13634229Y-11086031D02*
X13643753Y-11076508D01*
X13643753Y-11076508D02*
X13662801Y-11066984D01*
X13662801Y-11066984D02*
X13710420Y-11066984D01*
X13710420Y-11066984D02*
X13729468Y-11076508D01*
X13729468Y-11076508D02*
X13738991Y-11086031D01*
X13738991Y-11086031D02*
X13748515Y-11105079D01*
X13748515Y-11105079D02*
X13748515Y-11124127D01*
X13748515Y-11124127D02*
X13738991Y-11152698D01*
X13738991Y-11152698D02*
X13624706Y-11266984D01*
X13624706Y-11266984D02*
X13748515Y-11266984D01*
X13986610Y-11266984D02*
X13986610Y-11066984D01*
X14072325Y-11266984D02*
X14072325Y-11162222D01*
X14072325Y-11162222D02*
X14062801Y-11143174D01*
X14062801Y-11143174D02*
X14043753Y-11133650D01*
X14043753Y-11133650D02*
X14015182Y-11133650D01*
X14015182Y-11133650D02*
X13996134Y-11143174D01*
X13996134Y-11143174D02*
X13986610Y-11152698D01*
X14196134Y-11266984D02*
X14177087Y-11257460D01*
X14177087Y-11257460D02*
X14167563Y-11247936D01*
X14167563Y-11247936D02*
X14158039Y-11228888D01*
X14158039Y-11228888D02*
X14158039Y-11171746D01*
X14158039Y-11171746D02*
X14167563Y-11152698D01*
X14167563Y-11152698D02*
X14177087Y-11143174D01*
X14177087Y-11143174D02*
X14196134Y-11133650D01*
X14196134Y-11133650D02*
X14224706Y-11133650D01*
X14224706Y-11133650D02*
X14243753Y-11143174D01*
X14243753Y-11143174D02*
X14253277Y-11152698D01*
X14253277Y-11152698D02*
X14262801Y-11171746D01*
X14262801Y-11171746D02*
X14262801Y-11228888D01*
X14262801Y-11228888D02*
X14253277Y-11247936D01*
X14253277Y-11247936D02*
X14243753Y-11257460D01*
X14243753Y-11257460D02*
X14224706Y-11266984D01*
X14224706Y-11266984D02*
X14196134Y-11266984D01*
X14377087Y-11266984D02*
X14358039Y-11257460D01*
X14358039Y-11257460D02*
X14348515Y-11238412D01*
X14348515Y-11238412D02*
X14348515Y-11066984D01*
X14529468Y-11257460D02*
X14510420Y-11266984D01*
X14510420Y-11266984D02*
X14472325Y-11266984D01*
X14472325Y-11266984D02*
X14453277Y-11257460D01*
X14453277Y-11257460D02*
X14443753Y-11238412D01*
X14443753Y-11238412D02*
X14443753Y-11162222D01*
X14443753Y-11162222D02*
X14453277Y-11143174D01*
X14453277Y-11143174D02*
X14472325Y-11133650D01*
X14472325Y-11133650D02*
X14510420Y-11133650D01*
X14510420Y-11133650D02*
X14529468Y-11143174D01*
X14529468Y-11143174D02*
X14538991Y-11162222D01*
X14538991Y-11162222D02*
X14538991Y-11181270D01*
X14538991Y-11181270D02*
X14443753Y-11200317D01*
X14615182Y-11257460D02*
X14634230Y-11266984D01*
X14634230Y-11266984D02*
X14672325Y-11266984D01*
X14672325Y-11266984D02*
X14691372Y-11257460D01*
X14691372Y-11257460D02*
X14700896Y-11238412D01*
X14700896Y-11238412D02*
X14700896Y-11228888D01*
X14700896Y-11228888D02*
X14691372Y-11209841D01*
X14691372Y-11209841D02*
X14672325Y-11200317D01*
X14672325Y-11200317D02*
X14643753Y-11200317D01*
X14643753Y-11200317D02*
X14624706Y-11190793D01*
X14624706Y-11190793D02*
X14615182Y-11171746D01*
X14615182Y-11171746D02*
X14615182Y-11162222D01*
X14615182Y-11162222D02*
X14624706Y-11143174D01*
X14624706Y-11143174D02*
X14643753Y-11133650D01*
X14643753Y-11133650D02*
X14672325Y-11133650D01*
X14672325Y-11133650D02*
X14691372Y-11143174D01*
X14767563Y-11343174D02*
X14777087Y-11333650D01*
X14777087Y-11333650D02*
X14796134Y-11305079D01*
X14796134Y-11305079D02*
X14805658Y-11286031D01*
X14805658Y-11286031D02*
X14815182Y-11257460D01*
X14815182Y-11257460D02*
X14824706Y-11209841D01*
X14824706Y-11209841D02*
X14824706Y-11171746D01*
X14824706Y-11171746D02*
X14815182Y-11124127D01*
X14815182Y-11124127D02*
X14805658Y-11095555D01*
X14805658Y-11095555D02*
X14796134Y-11076508D01*
X14796134Y-11076508D02*
X14777087Y-11047936D01*
X14777087Y-11047936D02*
X14767563Y-11038412D01*
D12*
X9977856Y-11474856D02*
X9977856Y-11404144D01*
X9907144Y-11404144D01*
X9907144Y-11474856D01*
X9977856Y-11474856D01*
D11*
X10358039Y-11530984D02*
X10243753Y-11530984D01*
X10300896Y-11530984D02*
X10300896Y-11330984D01*
X10300896Y-11330984D02*
X10281848Y-11359555D01*
X10281848Y-11359555D02*
X10262801Y-11378603D01*
X10262801Y-11378603D02*
X10243753Y-11388127D01*
X10443753Y-11511936D02*
X10453277Y-11521460D01*
X10453277Y-11521460D02*
X10443753Y-11530984D01*
X10443753Y-11530984D02*
X10434229Y-11521460D01*
X10434229Y-11521460D02*
X10443753Y-11511936D01*
X10443753Y-11511936D02*
X10443753Y-11530984D01*
X10577086Y-11330984D02*
X10596134Y-11330984D01*
X10596134Y-11330984D02*
X10615182Y-11340508D01*
X10615182Y-11340508D02*
X10624705Y-11350031D01*
X10624705Y-11350031D02*
X10634229Y-11369079D01*
X10634229Y-11369079D02*
X10643753Y-11407174D01*
X10643753Y-11407174D02*
X10643753Y-11454793D01*
X10643753Y-11454793D02*
X10634229Y-11492888D01*
X10634229Y-11492888D02*
X10624705Y-11511936D01*
X10624705Y-11511936D02*
X10615182Y-11521460D01*
X10615182Y-11521460D02*
X10596134Y-11530984D01*
X10596134Y-11530984D02*
X10577086Y-11530984D01*
X10577086Y-11530984D02*
X10558039Y-11521460D01*
X10558039Y-11521460D02*
X10548515Y-11511936D01*
X10548515Y-11511936D02*
X10538991Y-11492888D01*
X10538991Y-11492888D02*
X10529467Y-11454793D01*
X10529467Y-11454793D02*
X10529467Y-11407174D01*
X10529467Y-11407174D02*
X10538991Y-11369079D01*
X10538991Y-11369079D02*
X10548515Y-11350031D01*
X10548515Y-11350031D02*
X10558039Y-11340508D01*
X10558039Y-11340508D02*
X10577086Y-11330984D01*
X10767563Y-11330984D02*
X10786610Y-11330984D01*
X10786610Y-11330984D02*
X10805658Y-11340508D01*
X10805658Y-11340508D02*
X10815182Y-11350031D01*
X10815182Y-11350031D02*
X10824705Y-11369079D01*
X10824705Y-11369079D02*
X10834229Y-11407174D01*
X10834229Y-11407174D02*
X10834229Y-11454793D01*
X10834229Y-11454793D02*
X10824705Y-11492888D01*
X10824705Y-11492888D02*
X10815182Y-11511936D01*
X10815182Y-11511936D02*
X10805658Y-11521460D01*
X10805658Y-11521460D02*
X10786610Y-11530984D01*
X10786610Y-11530984D02*
X10767563Y-11530984D01*
X10767563Y-11530984D02*
X10748515Y-11521460D01*
X10748515Y-11521460D02*
X10738991Y-11511936D01*
X10738991Y-11511936D02*
X10729467Y-11492888D01*
X10729467Y-11492888D02*
X10719944Y-11454793D01*
X10719944Y-11454793D02*
X10719944Y-11407174D01*
X10719944Y-11407174D02*
X10729467Y-11369079D01*
X10729467Y-11369079D02*
X10738991Y-11350031D01*
X10738991Y-11350031D02*
X10748515Y-11340508D01*
X10748515Y-11340508D02*
X10767563Y-11330984D01*
X10958039Y-11330984D02*
X10977086Y-11330984D01*
X10977086Y-11330984D02*
X10996134Y-11340508D01*
X10996134Y-11340508D02*
X11005658Y-11350031D01*
X11005658Y-11350031D02*
X11015182Y-11369079D01*
X11015182Y-11369079D02*
X11024705Y-11407174D01*
X11024705Y-11407174D02*
X11024705Y-11454793D01*
X11024705Y-11454793D02*
X11015182Y-11492888D01*
X11015182Y-11492888D02*
X11005658Y-11511936D01*
X11005658Y-11511936D02*
X10996134Y-11521460D01*
X10996134Y-11521460D02*
X10977086Y-11530984D01*
X10977086Y-11530984D02*
X10958039Y-11530984D01*
X10958039Y-11530984D02*
X10938991Y-11521460D01*
X10938991Y-11521460D02*
X10929467Y-11511936D01*
X10929467Y-11511936D02*
X10919944Y-11492888D01*
X10919944Y-11492888D02*
X10910420Y-11454793D01*
X10910420Y-11454793D02*
X10910420Y-11407174D01*
X10910420Y-11407174D02*
X10919944Y-11369079D01*
X10919944Y-11369079D02*
X10929467Y-11350031D01*
X10929467Y-11350031D02*
X10938991Y-11340508D01*
X10938991Y-11340508D02*
X10958039Y-11330984D01*
X11110420Y-11530984D02*
X11110420Y-11397650D01*
X11110420Y-11416698D02*
X11119944Y-11407174D01*
X11119944Y-11407174D02*
X11138991Y-11397650D01*
X11138991Y-11397650D02*
X11167563Y-11397650D01*
X11167563Y-11397650D02*
X11186610Y-11407174D01*
X11186610Y-11407174D02*
X11196134Y-11426222D01*
X11196134Y-11426222D02*
X11196134Y-11530984D01*
X11196134Y-11426222D02*
X11205658Y-11407174D01*
X11205658Y-11407174D02*
X11224705Y-11397650D01*
X11224705Y-11397650D02*
X11253277Y-11397650D01*
X11253277Y-11397650D02*
X11272324Y-11407174D01*
X11272324Y-11407174D02*
X11281848Y-11426222D01*
X11281848Y-11426222D02*
X11281848Y-11530984D01*
X11377086Y-11530984D02*
X11377086Y-11397650D01*
X11377086Y-11416698D02*
X11386610Y-11407174D01*
X11386610Y-11407174D02*
X11405658Y-11397650D01*
X11405658Y-11397650D02*
X11434229Y-11397650D01*
X11434229Y-11397650D02*
X11453277Y-11407174D01*
X11453277Y-11407174D02*
X11462801Y-11426222D01*
X11462801Y-11426222D02*
X11462801Y-11530984D01*
X11462801Y-11426222D02*
X11472324Y-11407174D01*
X11472324Y-11407174D02*
X11491372Y-11397650D01*
X11491372Y-11397650D02*
X11519943Y-11397650D01*
X11519943Y-11397650D02*
X11538991Y-11407174D01*
X11538991Y-11407174D02*
X11548515Y-11426222D01*
X11548515Y-11426222D02*
X11548515Y-11530984D01*
X11938991Y-11321460D02*
X11767563Y-11578603D01*
X12196134Y-11330984D02*
X12215182Y-11330984D01*
X12215182Y-11330984D02*
X12234229Y-11340508D01*
X12234229Y-11340508D02*
X12243753Y-11350031D01*
X12243753Y-11350031D02*
X12253277Y-11369079D01*
X12253277Y-11369079D02*
X12262801Y-11407174D01*
X12262801Y-11407174D02*
X12262801Y-11454793D01*
X12262801Y-11454793D02*
X12253277Y-11492888D01*
X12253277Y-11492888D02*
X12243753Y-11511936D01*
X12243753Y-11511936D02*
X12234229Y-11521460D01*
X12234229Y-11521460D02*
X12215182Y-11530984D01*
X12215182Y-11530984D02*
X12196134Y-11530984D01*
X12196134Y-11530984D02*
X12177086Y-11521460D01*
X12177086Y-11521460D02*
X12167563Y-11511936D01*
X12167563Y-11511936D02*
X12158039Y-11492888D01*
X12158039Y-11492888D02*
X12148515Y-11454793D01*
X12148515Y-11454793D02*
X12148515Y-11407174D01*
X12148515Y-11407174D02*
X12158039Y-11369079D01*
X12158039Y-11369079D02*
X12167563Y-11350031D01*
X12167563Y-11350031D02*
X12177086Y-11340508D01*
X12177086Y-11340508D02*
X12196134Y-11330984D01*
X12348515Y-11511936D02*
X12358039Y-11521460D01*
X12358039Y-11521460D02*
X12348515Y-11530984D01*
X12348515Y-11530984D02*
X12338991Y-11521460D01*
X12338991Y-11521460D02*
X12348515Y-11511936D01*
X12348515Y-11511936D02*
X12348515Y-11530984D01*
X12481848Y-11330984D02*
X12500896Y-11330984D01*
X12500896Y-11330984D02*
X12519944Y-11340508D01*
X12519944Y-11340508D02*
X12529467Y-11350031D01*
X12529467Y-11350031D02*
X12538991Y-11369079D01*
X12538991Y-11369079D02*
X12548515Y-11407174D01*
X12548515Y-11407174D02*
X12548515Y-11454793D01*
X12548515Y-11454793D02*
X12538991Y-11492888D01*
X12538991Y-11492888D02*
X12529467Y-11511936D01*
X12529467Y-11511936D02*
X12519944Y-11521460D01*
X12519944Y-11521460D02*
X12500896Y-11530984D01*
X12500896Y-11530984D02*
X12481848Y-11530984D01*
X12481848Y-11530984D02*
X12462801Y-11521460D01*
X12462801Y-11521460D02*
X12453277Y-11511936D01*
X12453277Y-11511936D02*
X12443753Y-11492888D01*
X12443753Y-11492888D02*
X12434229Y-11454793D01*
X12434229Y-11454793D02*
X12434229Y-11407174D01*
X12434229Y-11407174D02*
X12443753Y-11369079D01*
X12443753Y-11369079D02*
X12453277Y-11350031D01*
X12453277Y-11350031D02*
X12462801Y-11340508D01*
X12462801Y-11340508D02*
X12481848Y-11330984D01*
X12615182Y-11330984D02*
X12738991Y-11330984D01*
X12738991Y-11330984D02*
X12672325Y-11407174D01*
X12672325Y-11407174D02*
X12700896Y-11407174D01*
X12700896Y-11407174D02*
X12719944Y-11416698D01*
X12719944Y-11416698D02*
X12729467Y-11426222D01*
X12729467Y-11426222D02*
X12738991Y-11445269D01*
X12738991Y-11445269D02*
X12738991Y-11492888D01*
X12738991Y-11492888D02*
X12729467Y-11511936D01*
X12729467Y-11511936D02*
X12719944Y-11521460D01*
X12719944Y-11521460D02*
X12700896Y-11530984D01*
X12700896Y-11530984D02*
X12643753Y-11530984D01*
X12643753Y-11530984D02*
X12624706Y-11521460D01*
X12624706Y-11521460D02*
X12615182Y-11511936D01*
X12834229Y-11530984D02*
X12872325Y-11530984D01*
X12872325Y-11530984D02*
X12891372Y-11521460D01*
X12891372Y-11521460D02*
X12900896Y-11511936D01*
X12900896Y-11511936D02*
X12919944Y-11483365D01*
X12919944Y-11483365D02*
X12929467Y-11445269D01*
X12929467Y-11445269D02*
X12929467Y-11369079D01*
X12929467Y-11369079D02*
X12919944Y-11350031D01*
X12919944Y-11350031D02*
X12910420Y-11340508D01*
X12910420Y-11340508D02*
X12891372Y-11330984D01*
X12891372Y-11330984D02*
X12853277Y-11330984D01*
X12853277Y-11330984D02*
X12834229Y-11340508D01*
X12834229Y-11340508D02*
X12824706Y-11350031D01*
X12824706Y-11350031D02*
X12815182Y-11369079D01*
X12815182Y-11369079D02*
X12815182Y-11416698D01*
X12815182Y-11416698D02*
X12824706Y-11435746D01*
X12824706Y-11435746D02*
X12834229Y-11445269D01*
X12834229Y-11445269D02*
X12853277Y-11454793D01*
X12853277Y-11454793D02*
X12891372Y-11454793D01*
X12891372Y-11454793D02*
X12910420Y-11445269D01*
X12910420Y-11445269D02*
X12919944Y-11435746D01*
X12919944Y-11435746D02*
X12929467Y-11416698D01*
X13100896Y-11397650D02*
X13100896Y-11530984D01*
X13053277Y-11321460D02*
X13005658Y-11464317D01*
X13005658Y-11464317D02*
X13129467Y-11464317D01*
X13196134Y-11330984D02*
X13196134Y-11369079D01*
X13272325Y-11330984D02*
X13272325Y-11369079D01*
X13567563Y-11607174D02*
X13558039Y-11597650D01*
X13558039Y-11597650D02*
X13538991Y-11569079D01*
X13538991Y-11569079D02*
X13529468Y-11550031D01*
X13529468Y-11550031D02*
X13519944Y-11521460D01*
X13519944Y-11521460D02*
X13510420Y-11473841D01*
X13510420Y-11473841D02*
X13510420Y-11435746D01*
X13510420Y-11435746D02*
X13519944Y-11388127D01*
X13519944Y-11388127D02*
X13529468Y-11359555D01*
X13529468Y-11359555D02*
X13538991Y-11340508D01*
X13538991Y-11340508D02*
X13558039Y-11311936D01*
X13558039Y-11311936D02*
X13567563Y-11302412D01*
X13729468Y-11330984D02*
X13691372Y-11330984D01*
X13691372Y-11330984D02*
X13672325Y-11340508D01*
X13672325Y-11340508D02*
X13662801Y-11350031D01*
X13662801Y-11350031D02*
X13643753Y-11378603D01*
X13643753Y-11378603D02*
X13634229Y-11416698D01*
X13634229Y-11416698D02*
X13634229Y-11492888D01*
X13634229Y-11492888D02*
X13643753Y-11511936D01*
X13643753Y-11511936D02*
X13653277Y-11521460D01*
X13653277Y-11521460D02*
X13672325Y-11530984D01*
X13672325Y-11530984D02*
X13710420Y-11530984D01*
X13710420Y-11530984D02*
X13729468Y-11521460D01*
X13729468Y-11521460D02*
X13738991Y-11511936D01*
X13738991Y-11511936D02*
X13748515Y-11492888D01*
X13748515Y-11492888D02*
X13748515Y-11445269D01*
X13748515Y-11445269D02*
X13738991Y-11426222D01*
X13738991Y-11426222D02*
X13729468Y-11416698D01*
X13729468Y-11416698D02*
X13710420Y-11407174D01*
X13710420Y-11407174D02*
X13672325Y-11407174D01*
X13672325Y-11407174D02*
X13653277Y-11416698D01*
X13653277Y-11416698D02*
X13643753Y-11426222D01*
X13643753Y-11426222D02*
X13634229Y-11445269D01*
X13824706Y-11350031D02*
X13834229Y-11340508D01*
X13834229Y-11340508D02*
X13853277Y-11330984D01*
X13853277Y-11330984D02*
X13900896Y-11330984D01*
X13900896Y-11330984D02*
X13919944Y-11340508D01*
X13919944Y-11340508D02*
X13929468Y-11350031D01*
X13929468Y-11350031D02*
X13938991Y-11369079D01*
X13938991Y-11369079D02*
X13938991Y-11388127D01*
X13938991Y-11388127D02*
X13929468Y-11416698D01*
X13929468Y-11416698D02*
X13815182Y-11530984D01*
X13815182Y-11530984D02*
X13938991Y-11530984D01*
X14177087Y-11530984D02*
X14177087Y-11330984D01*
X14262801Y-11530984D02*
X14262801Y-11426222D01*
X14262801Y-11426222D02*
X14253277Y-11407174D01*
X14253277Y-11407174D02*
X14234230Y-11397650D01*
X14234230Y-11397650D02*
X14205658Y-11397650D01*
X14205658Y-11397650D02*
X14186610Y-11407174D01*
X14186610Y-11407174D02*
X14177087Y-11416698D01*
X14386610Y-11530984D02*
X14367563Y-11521460D01*
X14367563Y-11521460D02*
X14358039Y-11511936D01*
X14358039Y-11511936D02*
X14348515Y-11492888D01*
X14348515Y-11492888D02*
X14348515Y-11435746D01*
X14348515Y-11435746D02*
X14358039Y-11416698D01*
X14358039Y-11416698D02*
X14367563Y-11407174D01*
X14367563Y-11407174D02*
X14386610Y-11397650D01*
X14386610Y-11397650D02*
X14415182Y-11397650D01*
X14415182Y-11397650D02*
X14434230Y-11407174D01*
X14434230Y-11407174D02*
X14443753Y-11416698D01*
X14443753Y-11416698D02*
X14453277Y-11435746D01*
X14453277Y-11435746D02*
X14453277Y-11492888D01*
X14453277Y-11492888D02*
X14443753Y-11511936D01*
X14443753Y-11511936D02*
X14434230Y-11521460D01*
X14434230Y-11521460D02*
X14415182Y-11530984D01*
X14415182Y-11530984D02*
X14386610Y-11530984D01*
X14567563Y-11530984D02*
X14548515Y-11521460D01*
X14548515Y-11521460D02*
X14538991Y-11502412D01*
X14538991Y-11502412D02*
X14538991Y-11330984D01*
X14719944Y-11521460D02*
X14700896Y-11530984D01*
X14700896Y-11530984D02*
X14662801Y-11530984D01*
X14662801Y-11530984D02*
X14643753Y-11521460D01*
X14643753Y-11521460D02*
X14634230Y-11502412D01*
X14634230Y-11502412D02*
X14634230Y-11426222D01*
X14634230Y-11426222D02*
X14643753Y-11407174D01*
X14643753Y-11407174D02*
X14662801Y-11397650D01*
X14662801Y-11397650D02*
X14700896Y-11397650D01*
X14700896Y-11397650D02*
X14719944Y-11407174D01*
X14719944Y-11407174D02*
X14729468Y-11426222D01*
X14729468Y-11426222D02*
X14729468Y-11445269D01*
X14729468Y-11445269D02*
X14634230Y-11464317D01*
X14805658Y-11521460D02*
X14824706Y-11530984D01*
X14824706Y-11530984D02*
X14862801Y-11530984D01*
X14862801Y-11530984D02*
X14881849Y-11521460D01*
X14881849Y-11521460D02*
X14891372Y-11502412D01*
X14891372Y-11502412D02*
X14891372Y-11492888D01*
X14891372Y-11492888D02*
X14881849Y-11473841D01*
X14881849Y-11473841D02*
X14862801Y-11464317D01*
X14862801Y-11464317D02*
X14834230Y-11464317D01*
X14834230Y-11464317D02*
X14815182Y-11454793D01*
X14815182Y-11454793D02*
X14805658Y-11435746D01*
X14805658Y-11435746D02*
X14805658Y-11426222D01*
X14805658Y-11426222D02*
X14815182Y-11407174D01*
X14815182Y-11407174D02*
X14834230Y-11397650D01*
X14834230Y-11397650D02*
X14862801Y-11397650D01*
X14862801Y-11397650D02*
X14881849Y-11407174D01*
X14958039Y-11607174D02*
X14967563Y-11597650D01*
X14967563Y-11597650D02*
X14986611Y-11569079D01*
X14986611Y-11569079D02*
X14996134Y-11550031D01*
X14996134Y-11550031D02*
X15005658Y-11521460D01*
X15005658Y-11521460D02*
X15015182Y-11473841D01*
X15015182Y-11473841D02*
X15015182Y-11435746D01*
X15015182Y-11435746D02*
X15005658Y-11388127D01*
X15005658Y-11388127D02*
X14996134Y-11359555D01*
X14996134Y-11359555D02*
X14986611Y-11340508D01*
X14986611Y-11340508D02*
X14967563Y-11311936D01*
X14967563Y-11311936D02*
X14958039Y-11302412D01*
D13*
X9927500Y-11768500D02*
X9992500Y-11703500D01*
X9927500Y-11638500D01*
X9862500Y-11703500D01*
X9927500Y-11768500D01*
D11*
X10358039Y-11794984D02*
X10243753Y-11794984D01*
X10300896Y-11794984D02*
X10300896Y-11594984D01*
X10300896Y-11594984D02*
X10281848Y-11623555D01*
X10281848Y-11623555D02*
X10262801Y-11642603D01*
X10262801Y-11642603D02*
X10243753Y-11652127D01*
X10443753Y-11775936D02*
X10453277Y-11785460D01*
X10453277Y-11785460D02*
X10443753Y-11794984D01*
X10443753Y-11794984D02*
X10434229Y-11785460D01*
X10434229Y-11785460D02*
X10443753Y-11775936D01*
X10443753Y-11775936D02*
X10443753Y-11794984D01*
X10519944Y-11594984D02*
X10643753Y-11594984D01*
X10643753Y-11594984D02*
X10577086Y-11671174D01*
X10577086Y-11671174D02*
X10605658Y-11671174D01*
X10605658Y-11671174D02*
X10624705Y-11680698D01*
X10624705Y-11680698D02*
X10634229Y-11690222D01*
X10634229Y-11690222D02*
X10643753Y-11709269D01*
X10643753Y-11709269D02*
X10643753Y-11756888D01*
X10643753Y-11756888D02*
X10634229Y-11775936D01*
X10634229Y-11775936D02*
X10624705Y-11785460D01*
X10624705Y-11785460D02*
X10605658Y-11794984D01*
X10605658Y-11794984D02*
X10548515Y-11794984D01*
X10548515Y-11794984D02*
X10529467Y-11785460D01*
X10529467Y-11785460D02*
X10519944Y-11775936D01*
X10767563Y-11594984D02*
X10786610Y-11594984D01*
X10786610Y-11594984D02*
X10805658Y-11604508D01*
X10805658Y-11604508D02*
X10815182Y-11614031D01*
X10815182Y-11614031D02*
X10824705Y-11633079D01*
X10824705Y-11633079D02*
X10834229Y-11671174D01*
X10834229Y-11671174D02*
X10834229Y-11718793D01*
X10834229Y-11718793D02*
X10824705Y-11756888D01*
X10824705Y-11756888D02*
X10815182Y-11775936D01*
X10815182Y-11775936D02*
X10805658Y-11785460D01*
X10805658Y-11785460D02*
X10786610Y-11794984D01*
X10786610Y-11794984D02*
X10767563Y-11794984D01*
X10767563Y-11794984D02*
X10748515Y-11785460D01*
X10748515Y-11785460D02*
X10738991Y-11775936D01*
X10738991Y-11775936D02*
X10729467Y-11756888D01*
X10729467Y-11756888D02*
X10719944Y-11718793D01*
X10719944Y-11718793D02*
X10719944Y-11671174D01*
X10719944Y-11671174D02*
X10729467Y-11633079D01*
X10729467Y-11633079D02*
X10738991Y-11614031D01*
X10738991Y-11614031D02*
X10748515Y-11604508D01*
X10748515Y-11604508D02*
X10767563Y-11594984D01*
X10958039Y-11594984D02*
X10977086Y-11594984D01*
X10977086Y-11594984D02*
X10996134Y-11604508D01*
X10996134Y-11604508D02*
X11005658Y-11614031D01*
X11005658Y-11614031D02*
X11015182Y-11633079D01*
X11015182Y-11633079D02*
X11024705Y-11671174D01*
X11024705Y-11671174D02*
X11024705Y-11718793D01*
X11024705Y-11718793D02*
X11015182Y-11756888D01*
X11015182Y-11756888D02*
X11005658Y-11775936D01*
X11005658Y-11775936D02*
X10996134Y-11785460D01*
X10996134Y-11785460D02*
X10977086Y-11794984D01*
X10977086Y-11794984D02*
X10958039Y-11794984D01*
X10958039Y-11794984D02*
X10938991Y-11785460D01*
X10938991Y-11785460D02*
X10929467Y-11775936D01*
X10929467Y-11775936D02*
X10919944Y-11756888D01*
X10919944Y-11756888D02*
X10910420Y-11718793D01*
X10910420Y-11718793D02*
X10910420Y-11671174D01*
X10910420Y-11671174D02*
X10919944Y-11633079D01*
X10919944Y-11633079D02*
X10929467Y-11614031D01*
X10929467Y-11614031D02*
X10938991Y-11604508D01*
X10938991Y-11604508D02*
X10958039Y-11594984D01*
X11110420Y-11794984D02*
X11110420Y-11661650D01*
X11110420Y-11680698D02*
X11119944Y-11671174D01*
X11119944Y-11671174D02*
X11138991Y-11661650D01*
X11138991Y-11661650D02*
X11167563Y-11661650D01*
X11167563Y-11661650D02*
X11186610Y-11671174D01*
X11186610Y-11671174D02*
X11196134Y-11690222D01*
X11196134Y-11690222D02*
X11196134Y-11794984D01*
X11196134Y-11690222D02*
X11205658Y-11671174D01*
X11205658Y-11671174D02*
X11224705Y-11661650D01*
X11224705Y-11661650D02*
X11253277Y-11661650D01*
X11253277Y-11661650D02*
X11272324Y-11671174D01*
X11272324Y-11671174D02*
X11281848Y-11690222D01*
X11281848Y-11690222D02*
X11281848Y-11794984D01*
X11377086Y-11794984D02*
X11377086Y-11661650D01*
X11377086Y-11680698D02*
X11386610Y-11671174D01*
X11386610Y-11671174D02*
X11405658Y-11661650D01*
X11405658Y-11661650D02*
X11434229Y-11661650D01*
X11434229Y-11661650D02*
X11453277Y-11671174D01*
X11453277Y-11671174D02*
X11462801Y-11690222D01*
X11462801Y-11690222D02*
X11462801Y-11794984D01*
X11462801Y-11690222D02*
X11472324Y-11671174D01*
X11472324Y-11671174D02*
X11491372Y-11661650D01*
X11491372Y-11661650D02*
X11519943Y-11661650D01*
X11519943Y-11661650D02*
X11538991Y-11671174D01*
X11538991Y-11671174D02*
X11548515Y-11690222D01*
X11548515Y-11690222D02*
X11548515Y-11794984D01*
X11938991Y-11585460D02*
X11767563Y-11842603D01*
X12196134Y-11594984D02*
X12215182Y-11594984D01*
X12215182Y-11594984D02*
X12234229Y-11604508D01*
X12234229Y-11604508D02*
X12243753Y-11614031D01*
X12243753Y-11614031D02*
X12253277Y-11633079D01*
X12253277Y-11633079D02*
X12262801Y-11671174D01*
X12262801Y-11671174D02*
X12262801Y-11718793D01*
X12262801Y-11718793D02*
X12253277Y-11756888D01*
X12253277Y-11756888D02*
X12243753Y-11775936D01*
X12243753Y-11775936D02*
X12234229Y-11785460D01*
X12234229Y-11785460D02*
X12215182Y-11794984D01*
X12215182Y-11794984D02*
X12196134Y-11794984D01*
X12196134Y-11794984D02*
X12177086Y-11785460D01*
X12177086Y-11785460D02*
X12167563Y-11775936D01*
X12167563Y-11775936D02*
X12158039Y-11756888D01*
X12158039Y-11756888D02*
X12148515Y-11718793D01*
X12148515Y-11718793D02*
X12148515Y-11671174D01*
X12148515Y-11671174D02*
X12158039Y-11633079D01*
X12158039Y-11633079D02*
X12167563Y-11614031D01*
X12167563Y-11614031D02*
X12177086Y-11604508D01*
X12177086Y-11604508D02*
X12196134Y-11594984D01*
X12348515Y-11775936D02*
X12358039Y-11785460D01*
X12358039Y-11785460D02*
X12348515Y-11794984D01*
X12348515Y-11794984D02*
X12338991Y-11785460D01*
X12338991Y-11785460D02*
X12348515Y-11775936D01*
X12348515Y-11775936D02*
X12348515Y-11794984D01*
X12481848Y-11594984D02*
X12500896Y-11594984D01*
X12500896Y-11594984D02*
X12519944Y-11604508D01*
X12519944Y-11604508D02*
X12529467Y-11614031D01*
X12529467Y-11614031D02*
X12538991Y-11633079D01*
X12538991Y-11633079D02*
X12548515Y-11671174D01*
X12548515Y-11671174D02*
X12548515Y-11718793D01*
X12548515Y-11718793D02*
X12538991Y-11756888D01*
X12538991Y-11756888D02*
X12529467Y-11775936D01*
X12529467Y-11775936D02*
X12519944Y-11785460D01*
X12519944Y-11785460D02*
X12500896Y-11794984D01*
X12500896Y-11794984D02*
X12481848Y-11794984D01*
X12481848Y-11794984D02*
X12462801Y-11785460D01*
X12462801Y-11785460D02*
X12453277Y-11775936D01*
X12453277Y-11775936D02*
X12443753Y-11756888D01*
X12443753Y-11756888D02*
X12434229Y-11718793D01*
X12434229Y-11718793D02*
X12434229Y-11671174D01*
X12434229Y-11671174D02*
X12443753Y-11633079D01*
X12443753Y-11633079D02*
X12453277Y-11614031D01*
X12453277Y-11614031D02*
X12462801Y-11604508D01*
X12462801Y-11604508D02*
X12481848Y-11594984D01*
X12729467Y-11594984D02*
X12634229Y-11594984D01*
X12634229Y-11594984D02*
X12624706Y-11690222D01*
X12624706Y-11690222D02*
X12634229Y-11680698D01*
X12634229Y-11680698D02*
X12653277Y-11671174D01*
X12653277Y-11671174D02*
X12700896Y-11671174D01*
X12700896Y-11671174D02*
X12719944Y-11680698D01*
X12719944Y-11680698D02*
X12729467Y-11690222D01*
X12729467Y-11690222D02*
X12738991Y-11709269D01*
X12738991Y-11709269D02*
X12738991Y-11756888D01*
X12738991Y-11756888D02*
X12729467Y-11775936D01*
X12729467Y-11775936D02*
X12719944Y-11785460D01*
X12719944Y-11785460D02*
X12700896Y-11794984D01*
X12700896Y-11794984D02*
X12653277Y-11794984D01*
X12653277Y-11794984D02*
X12634229Y-11785460D01*
X12634229Y-11785460D02*
X12624706Y-11775936D01*
X12929467Y-11794984D02*
X12815182Y-11794984D01*
X12872325Y-11794984D02*
X12872325Y-11594984D01*
X12872325Y-11594984D02*
X12853277Y-11623555D01*
X12853277Y-11623555D02*
X12834229Y-11642603D01*
X12834229Y-11642603D02*
X12815182Y-11652127D01*
X13005658Y-11614031D02*
X13015182Y-11604508D01*
X13015182Y-11604508D02*
X13034229Y-11594984D01*
X13034229Y-11594984D02*
X13081848Y-11594984D01*
X13081848Y-11594984D02*
X13100896Y-11604508D01*
X13100896Y-11604508D02*
X13110420Y-11614031D01*
X13110420Y-11614031D02*
X13119944Y-11633079D01*
X13119944Y-11633079D02*
X13119944Y-11652127D01*
X13119944Y-11652127D02*
X13110420Y-11680698D01*
X13110420Y-11680698D02*
X12996134Y-11794984D01*
X12996134Y-11794984D02*
X13119944Y-11794984D01*
X13196134Y-11594984D02*
X13196134Y-11633079D01*
X13272325Y-11594984D02*
X13272325Y-11633079D01*
X13567563Y-11871174D02*
X13558039Y-11861650D01*
X13558039Y-11861650D02*
X13538991Y-11833079D01*
X13538991Y-11833079D02*
X13529468Y-11814031D01*
X13529468Y-11814031D02*
X13519944Y-11785460D01*
X13519944Y-11785460D02*
X13510420Y-11737841D01*
X13510420Y-11737841D02*
X13510420Y-11699746D01*
X13510420Y-11699746D02*
X13519944Y-11652127D01*
X13519944Y-11652127D02*
X13529468Y-11623555D01*
X13529468Y-11623555D02*
X13538991Y-11604508D01*
X13538991Y-11604508D02*
X13558039Y-11575936D01*
X13558039Y-11575936D02*
X13567563Y-11566412D01*
X13624706Y-11594984D02*
X13758039Y-11594984D01*
X13758039Y-11594984D02*
X13672325Y-11794984D01*
X13986610Y-11794984D02*
X13986610Y-11594984D01*
X14072325Y-11794984D02*
X14072325Y-11690222D01*
X14072325Y-11690222D02*
X14062801Y-11671174D01*
X14062801Y-11671174D02*
X14043753Y-11661650D01*
X14043753Y-11661650D02*
X14015182Y-11661650D01*
X14015182Y-11661650D02*
X13996134Y-11671174D01*
X13996134Y-11671174D02*
X13986610Y-11680698D01*
X14196134Y-11794984D02*
X14177087Y-11785460D01*
X14177087Y-11785460D02*
X14167563Y-11775936D01*
X14167563Y-11775936D02*
X14158039Y-11756888D01*
X14158039Y-11756888D02*
X14158039Y-11699746D01*
X14158039Y-11699746D02*
X14167563Y-11680698D01*
X14167563Y-11680698D02*
X14177087Y-11671174D01*
X14177087Y-11671174D02*
X14196134Y-11661650D01*
X14196134Y-11661650D02*
X14224706Y-11661650D01*
X14224706Y-11661650D02*
X14243753Y-11671174D01*
X14243753Y-11671174D02*
X14253277Y-11680698D01*
X14253277Y-11680698D02*
X14262801Y-11699746D01*
X14262801Y-11699746D02*
X14262801Y-11756888D01*
X14262801Y-11756888D02*
X14253277Y-11775936D01*
X14253277Y-11775936D02*
X14243753Y-11785460D01*
X14243753Y-11785460D02*
X14224706Y-11794984D01*
X14224706Y-11794984D02*
X14196134Y-11794984D01*
X14377087Y-11794984D02*
X14358039Y-11785460D01*
X14358039Y-11785460D02*
X14348515Y-11766412D01*
X14348515Y-11766412D02*
X14348515Y-11594984D01*
X14529468Y-11785460D02*
X14510420Y-11794984D01*
X14510420Y-11794984D02*
X14472325Y-11794984D01*
X14472325Y-11794984D02*
X14453277Y-11785460D01*
X14453277Y-11785460D02*
X14443753Y-11766412D01*
X14443753Y-11766412D02*
X14443753Y-11690222D01*
X14443753Y-11690222D02*
X14453277Y-11671174D01*
X14453277Y-11671174D02*
X14472325Y-11661650D01*
X14472325Y-11661650D02*
X14510420Y-11661650D01*
X14510420Y-11661650D02*
X14529468Y-11671174D01*
X14529468Y-11671174D02*
X14538991Y-11690222D01*
X14538991Y-11690222D02*
X14538991Y-11709269D01*
X14538991Y-11709269D02*
X14443753Y-11728317D01*
X14615182Y-11785460D02*
X14634230Y-11794984D01*
X14634230Y-11794984D02*
X14672325Y-11794984D01*
X14672325Y-11794984D02*
X14691372Y-11785460D01*
X14691372Y-11785460D02*
X14700896Y-11766412D01*
X14700896Y-11766412D02*
X14700896Y-11756888D01*
X14700896Y-11756888D02*
X14691372Y-11737841D01*
X14691372Y-11737841D02*
X14672325Y-11728317D01*
X14672325Y-11728317D02*
X14643753Y-11728317D01*
X14643753Y-11728317D02*
X14624706Y-11718793D01*
X14624706Y-11718793D02*
X14615182Y-11699746D01*
X14615182Y-11699746D02*
X14615182Y-11690222D01*
X14615182Y-11690222D02*
X14624706Y-11671174D01*
X14624706Y-11671174D02*
X14643753Y-11661650D01*
X14643753Y-11661650D02*
X14672325Y-11661650D01*
X14672325Y-11661650D02*
X14691372Y-11671174D01*
X14767563Y-11871174D02*
X14777087Y-11861650D01*
X14777087Y-11861650D02*
X14796134Y-11833079D01*
X14796134Y-11833079D02*
X14805658Y-11814031D01*
X14805658Y-11814031D02*
X14815182Y-11785460D01*
X14815182Y-11785460D02*
X14824706Y-11737841D01*
X14824706Y-11737841D02*
X14824706Y-11699746D01*
X14824706Y-11699746D02*
X14815182Y-11652127D01*
X14815182Y-11652127D02*
X14805658Y-11623555D01*
X14805658Y-11623555D02*
X14796134Y-11604508D01*
X14796134Y-11604508D02*
X14777087Y-11575936D01*
X14777087Y-11575936D02*
X14767563Y-11566412D01*
M02*
