%TF.GenerationSoftware,KiCad,Pcbnew,8.0.2-1*%
%TF.CreationDate,2024-05-27T06:20:34-04:00*%
%TF.ProjectId,ORA_Arduino_ESP_CAN_Shield_Rev_2,4f52415f-4172-4647-9569-6e6f5f455350,rev?*%
%TF.SameCoordinates,Original*%
%TF.FileFunction,Copper,L1,Top*%
%TF.FilePolarity,Positive*%
%FSLAX46Y46*%
G04 Gerber Fmt 4.6, Leading zero omitted, Abs format (unit mm)*
G04 Created by KiCad (PCBNEW 8.0.2-1) date 2024-05-27 06:20:34*
%MOMM*%
%LPD*%
G01*
G04 APERTURE LIST*
G04 Aperture macros list*
%AMRoundRect*
0 Rectangle with rounded corners*
0 $1 Rounding radius*
0 $2 $3 $4 $5 $6 $7 $8 $9 X,Y pos of 4 corners*
0 Add a 4 corners polygon primitive as box body*
4,1,4,$2,$3,$4,$5,$6,$7,$8,$9,$2,$3,0*
0 Add four circle primitives for the rounded corners*
1,1,$1+$1,$2,$3*
1,1,$1+$1,$4,$5*
1,1,$1+$1,$6,$7*
1,1,$1+$1,$8,$9*
0 Add four rect primitives between the rounded corners*
20,1,$1+$1,$2,$3,$4,$5,0*
20,1,$1+$1,$4,$5,$6,$7,0*
20,1,$1+$1,$6,$7,$8,$9,0*
20,1,$1+$1,$8,$9,$2,$3,0*%
G04 Aperture macros list end*
%TA.AperFunction,ComponentPad*%
%ADD10R,1.700000X1.700000*%
%TD*%
%TA.AperFunction,ComponentPad*%
%ADD11O,1.700000X1.700000*%
%TD*%
%TA.AperFunction,SMDPad,CuDef*%
%ADD12RoundRect,0.250000X0.337500X0.475000X-0.337500X0.475000X-0.337500X-0.475000X0.337500X-0.475000X0*%
%TD*%
%TA.AperFunction,SMDPad,CuDef*%
%ADD13RoundRect,0.250000X-0.450000X0.350000X-0.450000X-0.350000X0.450000X-0.350000X0.450000X0.350000X0*%
%TD*%
%TA.AperFunction,ComponentPad*%
%ADD14R,1.050000X1.500000*%
%TD*%
%TA.AperFunction,ComponentPad*%
%ADD15O,1.050000X1.500000*%
%TD*%
%TA.AperFunction,SMDPad,CuDef*%
%ADD16RoundRect,0.250000X0.350000X0.450000X-0.350000X0.450000X-0.350000X-0.450000X0.350000X-0.450000X0*%
%TD*%
%TA.AperFunction,ComponentPad*%
%ADD17R,2.600000X2.600000*%
%TD*%
%TA.AperFunction,ComponentPad*%
%ADD18C,2.600000*%
%TD*%
%TA.AperFunction,ComponentPad*%
%ADD19C,1.500000*%
%TD*%
%TA.AperFunction,ViaPad*%
%ADD20C,0.600000*%
%TD*%
%TA.AperFunction,Conductor*%
%ADD21C,0.250000*%
%TD*%
%TA.AperFunction,Conductor*%
%ADD22C,0.200000*%
%TD*%
G04 APERTURE END LIST*
D10*
%TO.P,J1,1,Pin_1*%
%TO.N,unconnected-(J1-Pin_1-Pad1)*%
X127940000Y-97460000D03*
D11*
%TO.P,J1,2,Pin_2*%
%TO.N,unconnected-(J1-Pin_2-Pad2)*%
X130480000Y-97460000D03*
%TO.P,J1,3,Pin_3*%
%TO.N,unconnected-(J1-Pin_3-Pad3)*%
X133020000Y-97460000D03*
%TO.P,J1,4,Pin_4*%
%TO.N,unconnected-(J1-Pin_4-Pad4)*%
X135560000Y-97460000D03*
%TO.P,J1,5,Pin_5*%
%TO.N,+5V*%
X138100000Y-97460000D03*
%TO.P,J1,6,Pin_6*%
%TO.N,GND*%
X140640000Y-97460000D03*
%TO.P,J1,7,Pin_7*%
X143180000Y-97460000D03*
%TO.P,J1,8,Pin_8*%
%TO.N,unconnected-(J1-Pin_8-Pad8)*%
X145720000Y-97460000D03*
%TD*%
D10*
%TO.P,J3,1,Pin_1*%
%TO.N,unconnected-(J3-Pin_1-Pad1)*%
X150800000Y-97460000D03*
D11*
%TO.P,J3,2,Pin_2*%
%TO.N,unconnected-(J3-Pin_2-Pad2)*%
X153340000Y-97460000D03*
%TO.P,J3,3,Pin_3*%
%TO.N,unconnected-(J3-Pin_3-Pad3)*%
X155880000Y-97460000D03*
%TO.P,J3,4,Pin_4*%
%TO.N,unconnected-(J3-Pin_4-Pad4)*%
X158420000Y-97460000D03*
%TO.P,J3,5,Pin_5*%
%TO.N,unconnected-(J3-Pin_5-Pad5)*%
X160960000Y-97460000D03*
%TO.P,J3,6,Pin_6*%
%TO.N,unconnected-(J3-Pin_6-Pad6)*%
X163500000Y-97460000D03*
%TD*%
D10*
%TO.P,J2,1,Pin_1*%
%TO.N,SCL*%
X118796000Y-49200000D03*
D11*
%TO.P,J2,2,Pin_2*%
%TO.N,SDA*%
X121336000Y-49200000D03*
%TO.P,J2,3,Pin_3*%
%TO.N,unconnected-(J2-Pin_3-Pad3)*%
X123876000Y-49200000D03*
%TO.P,J2,4,Pin_4*%
%TO.N,GND*%
X126416000Y-49200000D03*
%TO.P,J2,5,Pin_5*%
%TO.N,SCK*%
X128956000Y-49200000D03*
%TO.P,J2,6,Pin_6*%
%TO.N,SO*%
X131496000Y-49200000D03*
%TO.P,J2,7,Pin_7*%
%TO.N,SI*%
X134036000Y-49200000D03*
%TO.P,J2,8,Pin_8*%
%TO.N,CS*%
X136576000Y-49200000D03*
%TO.P,J2,9,Pin_9*%
%TO.N,unconnected-(J2-Pin_9-Pad9)*%
X139116000Y-49200000D03*
%TO.P,J2,10,Pin_10*%
%TO.N,unconnected-(J2-Pin_10-Pad10)*%
X141656000Y-49200000D03*
%TD*%
D10*
%TO.P,J4,1,Pin_1*%
%TO.N,LEDPWR_R*%
X145720000Y-49200000D03*
D11*
%TO.P,J4,2,Pin_2*%
%TO.N,LEDPWR_G*%
X148260000Y-49200000D03*
%TO.P,J4,3,Pin_3*%
%TO.N,LEDPWR_B*%
X150800000Y-49200000D03*
%TO.P,J4,4,Pin_4*%
%TO.N,unconnected-(J4-Pin_4-Pad4)*%
X153340000Y-49200000D03*
%TO.P,J4,5,Pin_5*%
%TO.N,unconnected-(J4-Pin_5-Pad5)*%
X155880000Y-49200000D03*
%TO.P,J4,6,Pin_6*%
%TO.N,unconnected-(J4-Pin_6-Pad6)*%
X158420000Y-49200000D03*
%TO.P,J4,7,Pin_7*%
%TO.N,unconnected-(J4-Pin_7-Pad7)*%
X160960000Y-49200000D03*
%TO.P,J4,8,Pin_8*%
%TO.N,unconnected-(J4-Pin_8-Pad8)*%
X163500000Y-49200000D03*
%TD*%
D12*
%TO.P,C4,1*%
%TO.N,GND*%
X113427500Y-55790000D03*
%TO.P,C4,2*%
%TO.N,Net-(U4-OSC2)*%
X111352500Y-55790000D03*
%TD*%
D13*
%TO.P,R4,1*%
%TO.N,LEDPWR_R*%
X104410000Y-90980000D03*
%TO.P,R4,2*%
%TO.N,Net-(Q1-G)*%
X104410000Y-92980000D03*
%TD*%
D14*
%TO.P,Q2,1,D*%
%TO.N,Net-(Q2-D)*%
X119490000Y-97050000D03*
D15*
%TO.P,Q2,2,G*%
%TO.N,Net-(Q2-G)*%
X120760000Y-97050000D03*
%TO.P,Q2,3,S*%
%TO.N,GND*%
X122030000Y-97050000D03*
%TD*%
D14*
%TO.P,Q1,1,D*%
%TO.N,Net-(Q1-D)*%
X103200000Y-96960000D03*
D15*
%TO.P,Q1,2,G*%
%TO.N,Net-(Q1-G)*%
X104470000Y-96960000D03*
%TO.P,Q1,3,S*%
%TO.N,GND*%
X105740000Y-96960000D03*
%TD*%
D16*
%TO.P,R10,1*%
%TO.N,Net-(U4-OSC2)*%
X109560000Y-57780000D03*
%TO.P,R10,2*%
%TO.N,Net-(U4-OSC1)*%
X107560000Y-57780000D03*
%TD*%
D13*
%TO.P,R13,1*%
%TO.N,LEDPWR_G*%
X112230000Y-90870000D03*
%TO.P,R13,2*%
%TO.N,Net-(Q4-G)*%
X112230000Y-92870000D03*
%TD*%
D12*
%TO.P,C5,1*%
%TO.N,Net-(U4-OSC1)*%
X105767500Y-55900000D03*
%TO.P,C5,2*%
%TO.N,GND*%
X103692500Y-55900000D03*
%TD*%
D14*
%TO.P,Q4,1,D*%
%TO.N,Net-(Q4-D)*%
X110700000Y-96980000D03*
D15*
%TO.P,Q4,2,G*%
%TO.N,Net-(Q4-G)*%
X111970000Y-96980000D03*
%TO.P,Q4,3,S*%
%TO.N,GND*%
X113240000Y-96980000D03*
%TD*%
D17*
%TO.P,J5,1,Pin_1*%
%TO.N,CAN-*%
X107960000Y-64450000D03*
D18*
%TO.P,J5,2,Pin_2*%
%TO.N,CAN+*%
X107960000Y-69450000D03*
%TD*%
D13*
%TO.P,R7,1*%
%TO.N,LEDPWR_B*%
X120970000Y-90870000D03*
%TO.P,R7,2*%
%TO.N,Net-(Q2-G)*%
X120970000Y-92870000D03*
%TD*%
%TO.P,R6,1*%
%TO.N,LED_R*%
X102160000Y-91000000D03*
%TO.P,R6,2*%
%TO.N,Net-(Q1-D)*%
X102160000Y-93000000D03*
%TD*%
D17*
%TO.P,J6,1,Pin_1*%
%TO.N,CAN-*%
X107965000Y-79450000D03*
D18*
%TO.P,J6,2,Pin_2*%
%TO.N,CAN+*%
X107965000Y-84450000D03*
%TD*%
D19*
%TO.P,Y2,1,1*%
%TO.N,Net-(U4-OSC1)*%
X106280000Y-51050000D03*
%TO.P,Y2,2,2*%
%TO.N,Net-(U4-OSC2)*%
X111160000Y-51050000D03*
%TD*%
D13*
%TO.P,R5,1*%
%TO.N,Net-(Q1-G)*%
X106520000Y-90980000D03*
%TO.P,R5,2*%
%TO.N,GND*%
X106520000Y-92980000D03*
%TD*%
%TO.P,TR1,1*%
%TO.N,CAN+*%
X116120000Y-80200000D03*
%TO.P,TR1,2*%
%TO.N,CAN-*%
X116120000Y-82200000D03*
%TD*%
D17*
%TO.P,J7,1,Pin_1*%
%TO.N,LED_R*%
X161190000Y-76940000D03*
D18*
%TO.P,J7,2,Pin_2*%
%TO.N,LED_G*%
X161190000Y-71940000D03*
%TO.P,J7,3,Pin_3*%
%TO.N,LED_B*%
X161190000Y-66940000D03*
%TD*%
D10*
%TO.P,U1,1,3V3*%
%TO.N,unconnected-(U1-3V3-Pad1)*%
X153120000Y-60330000D03*
D11*
%TO.P,U1,2,GND*%
%TO.N,GND*%
X150580000Y-60330000D03*
%TO.P,U1,3,D15*%
%TO.N,unconnected-(U1-D15-Pad3)*%
X148040000Y-60330000D03*
%TO.P,U1,4,D2*%
%TO.N,unconnected-(U1-D2-Pad4)*%
X145500000Y-60330000D03*
%TO.P,U1,5,D4*%
%TO.N,unconnected-(U1-D4-Pad5)*%
X142960000Y-60330000D03*
%TO.P,U1,6,RX2*%
%TO.N,unconnected-(U1-RX2-Pad6)*%
X140420000Y-60330000D03*
%TO.P,U1,7,TX2*%
%TO.N,unconnected-(U1-TX2-Pad7)*%
X137880000Y-60330000D03*
%TO.P,U1,8,D5*%
%TO.N,unconnected-(U1-D5-Pad8)*%
X135340000Y-60330000D03*
%TO.P,U1,9,D18*%
%TO.N,unconnected-(U1-D18-Pad9)*%
X132800000Y-60330000D03*
%TO.P,U1,10,D19*%
%TO.N,unconnected-(U1-D19-Pad10)*%
X130260000Y-60330000D03*
%TO.P,U1,11,D21*%
%TO.N,SDA*%
X127720000Y-60330000D03*
%TO.P,U1,12,RX0*%
%TO.N,unconnected-(U1-RX0-Pad12)*%
X125180000Y-60330000D03*
%TO.P,U1,13,TX0*%
%TO.N,unconnected-(U1-TX0-Pad13)*%
X122640000Y-60330000D03*
%TO.P,U1,14,D22*%
%TO.N,SCL*%
X120100000Y-60330000D03*
%TO.P,U1,15,D23*%
%TO.N,unconnected-(U1-D23-Pad15)*%
X117560000Y-60330000D03*
D10*
%TO.P,U1,16,EN*%
%TO.N,unconnected-(U1-EN-Pad16)*%
X117580000Y-85730000D03*
D11*
%TO.P,U1,17,VP*%
%TO.N,unconnected-(U1-VP-Pad17)*%
X120120000Y-85730000D03*
%TO.P,U1,18,VN*%
%TO.N,unconnected-(U1-VN-Pad18)*%
X122660000Y-85730000D03*
%TO.P,U1,19,D34*%
%TO.N,unconnected-(U1-D34-Pad19)*%
X125200000Y-85730000D03*
%TO.P,U1,20,D35*%
%TO.N,unconnected-(U1-D35-Pad20)*%
X127740000Y-85730000D03*
%TO.P,U1,21,D32*%
%TO.N,unconnected-(U1-D32-Pad21)*%
X130280000Y-85730000D03*
%TO.P,U1,22,D33*%
%TO.N,unconnected-(U1-D33-Pad22)*%
X132820000Y-85730000D03*
%TO.P,U1,23,D25*%
%TO.N,unconnected-(U1-D25-Pad23)*%
X135360000Y-85730000D03*
%TO.P,U1,24,D26*%
%TO.N,unconnected-(U1-D26-Pad24)*%
X137900000Y-85730000D03*
%TO.P,U1,25,D27*%
%TO.N,unconnected-(U1-D27-Pad25)*%
X140440000Y-85730000D03*
%TO.P,U1,26,D14*%
%TO.N,unconnected-(U1-D14-Pad26)*%
X142980000Y-85730000D03*
%TO.P,U1,27,D12*%
%TO.N,unconnected-(U1-D12-Pad27)*%
X145520000Y-85730000D03*
%TO.P,U1,28,D13*%
%TO.N,unconnected-(U1-D13-Pad28)*%
X148060000Y-85730000D03*
%TO.P,U1,29,GND*%
%TO.N,GND*%
X150600000Y-85730000D03*
%TO.P,U1,30,VIN*%
%TO.N,+5V*%
X153140000Y-85730000D03*
%TD*%
D13*
%TO.P,R8,1*%
%TO.N,Net-(Q2-G)*%
X123180000Y-90890000D03*
%TO.P,R8,2*%
%TO.N,GND*%
X123180000Y-92890000D03*
%TD*%
%TO.P,R15,1*%
%TO.N,LED_G*%
X109410000Y-90920000D03*
%TO.P,R15,2*%
%TO.N,Net-(Q4-D)*%
X109410000Y-92920000D03*
%TD*%
%TO.P,R14,1*%
%TO.N,Net-(Q4-G)*%
X114920000Y-90950000D03*
%TO.P,R14,2*%
%TO.N,GND*%
X114920000Y-92950000D03*
%TD*%
%TO.P,R9,1*%
%TO.N,LED_B*%
X118670000Y-90940000D03*
%TO.P,R9,2*%
%TO.N,Net-(Q2-D)*%
X118670000Y-92940000D03*
%TD*%
D20*
%TO.N,GND*%
X153660000Y-81030000D03*
X148330000Y-81190000D03*
X132920000Y-65340000D03*
%TO.N,Net-(U4-OSC2)*%
X132680000Y-62650000D03*
X135960000Y-63360000D03*
X109800000Y-55700000D03*
X115910000Y-63130000D03*
%TO.N,Net-(U4-OSC1)*%
X143540000Y-67380000D03*
X105790000Y-55910000D03*
%TO.N,LEDPWR_G*%
X112190000Y-90840000D03*
%TO.N,LEDPWR_B*%
X120940000Y-90850000D03*
%TO.N,SCK*%
X152860000Y-69910000D03*
%TO.N,SI*%
X146620000Y-63240000D03*
%TO.N,CS*%
X137990000Y-52760000D03*
%TO.N,SO*%
X153400000Y-72440000D03*
%TO.N,CAN-*%
X135530000Y-72270000D03*
%TO.N,CAN+*%
X135530000Y-71000000D03*
%TD*%
D21*
%TO.N,GND*%
X126416000Y-49200000D02*
X129085000Y-51869000D01*
X114920000Y-95300000D02*
X113240000Y-96980000D01*
X153660000Y-81030000D02*
X153660000Y-80940000D01*
X150600000Y-85730000D02*
X143180000Y-93150000D01*
X123180000Y-92890000D02*
X123180000Y-95900000D01*
X114920000Y-92950000D02*
X114920000Y-95300000D01*
X106520000Y-92980000D02*
X106520000Y-96180000D01*
X153660000Y-80940000D02*
X153600000Y-81000000D01*
X113427500Y-57859201D02*
X117778299Y-62210000D01*
X153410000Y-81190000D02*
X153570000Y-81030000D01*
X153570000Y-81030000D02*
X153660000Y-81030000D01*
X143180000Y-93150000D02*
X143180000Y-97460000D01*
X117778299Y-62210000D02*
X131480000Y-62210000D01*
X106520000Y-96180000D02*
X105740000Y-96960000D01*
X140640000Y-97460000D02*
X143180000Y-97460000D01*
X132920000Y-65320000D02*
X132920000Y-65340000D01*
X148330000Y-81190000D02*
X153410000Y-81190000D01*
X129085000Y-51869000D02*
X129085000Y-60816701D01*
X131480000Y-62210000D02*
X131480000Y-63880000D01*
X129085000Y-60816701D02*
X130478299Y-62210000D01*
X132940000Y-65340000D02*
X132880000Y-65280000D01*
X123180000Y-95900000D02*
X122030000Y-97050000D01*
X103692500Y-55900000D02*
X104852500Y-54740000D01*
X112377500Y-54740000D02*
X113427500Y-55790000D01*
X130478299Y-62210000D02*
X131480000Y-62210000D01*
X132920000Y-65340000D02*
X132940000Y-65340000D01*
X131480000Y-63880000D02*
X132920000Y-65320000D01*
X104852500Y-54740000D02*
X112377500Y-54740000D01*
X113427500Y-55790000D02*
X113427500Y-57859201D01*
%TO.N,+5V*%
X153140000Y-91720000D02*
X153140000Y-85730000D01*
X146225000Y-98635000D02*
X153140000Y-91720000D01*
X139275000Y-98635000D02*
X146225000Y-98635000D01*
X138100000Y-97460000D02*
X139275000Y-98635000D01*
%TO.N,Net-(U4-OSC2)*%
X132680000Y-62620000D02*
X132740000Y-62680000D01*
X115910000Y-63130000D02*
X110560000Y-57780000D01*
X111352500Y-55790000D02*
X111352500Y-55987500D01*
X132710000Y-62650000D02*
X132680000Y-62650000D01*
X110560000Y-57780000D02*
X109560000Y-57780000D01*
X132680000Y-62650000D02*
X132680000Y-62620000D01*
X109890000Y-55790000D02*
X109800000Y-55700000D01*
X111352500Y-55790000D02*
X109890000Y-55790000D01*
X135960000Y-63360000D02*
X133420000Y-63360000D01*
X133420000Y-63360000D02*
X132710000Y-62650000D01*
X109800000Y-55700000D02*
X109830000Y-55730000D01*
X111352500Y-55987500D02*
X109560000Y-57780000D01*
%TO.N,Net-(U4-OSC1)*%
X105767500Y-55900000D02*
X105790000Y-55910000D01*
X105790000Y-55910000D02*
X105767500Y-55987500D01*
X143540000Y-67360000D02*
X143540000Y-67380000D01*
X143540000Y-67380000D02*
X143560000Y-67380000D01*
X115745000Y-65965000D02*
X142145000Y-65965000D01*
X142145000Y-65965000D02*
X143540000Y-67360000D01*
X105767500Y-55987500D02*
X107560000Y-57780000D01*
X107560000Y-57780000D02*
X115745000Y-65965000D01*
X143560000Y-67380000D02*
X143480000Y-67300000D01*
%TO.N,LEDPWR_R*%
X100562000Y-55228000D02*
X107765000Y-48025000D01*
X101464900Y-91925000D02*
X100562000Y-91022100D01*
X144545000Y-48025000D02*
X145720000Y-49200000D01*
X100562000Y-91022100D02*
X100562000Y-55228000D01*
X104410000Y-90980000D02*
X103465000Y-91925000D01*
X103465000Y-91925000D02*
X101464900Y-91925000D01*
X107765000Y-48025000D02*
X144545000Y-48025000D01*
%TO.N,LED_B*%
X144155000Y-85433299D02*
X146508299Y-83080000D01*
X146508299Y-83080000D02*
X164790000Y-83080000D01*
X166030000Y-71780000D02*
X161190000Y-66940000D01*
X164790000Y-83080000D02*
X166030000Y-81840000D01*
X166030000Y-81840000D02*
X166030000Y-71780000D01*
X118670000Y-90940000D02*
X119665000Y-89945000D01*
X140426701Y-89945000D02*
X144155000Y-86216701D01*
X119665000Y-89945000D02*
X140426701Y-89945000D01*
X144155000Y-86216701D02*
X144155000Y-85433299D01*
%TO.N,LED_R*%
X102160000Y-91000000D02*
X106500000Y-86660000D01*
X147346116Y-81090000D02*
X151496116Y-76940000D01*
X106500000Y-86660000D02*
X114300000Y-86660000D01*
X119870000Y-81090000D02*
X147346116Y-81090000D01*
X114300000Y-86660000D02*
X119870000Y-81090000D01*
X151496116Y-76940000D02*
X161190000Y-76940000D01*
%TO.N,LED_G*%
X113220000Y-87110000D02*
X118550000Y-87110000D01*
X163670000Y-82600000D02*
X164320000Y-81950000D01*
X109410000Y-90920000D02*
X113220000Y-87110000D01*
X118945000Y-85243299D02*
X121588299Y-82600000D01*
X118945000Y-86715000D02*
X118945000Y-85243299D01*
X118550000Y-87110000D02*
X118945000Y-86715000D01*
X164320000Y-81950000D02*
X164320000Y-75070000D01*
X121588299Y-82600000D02*
X163670000Y-82600000D01*
X164320000Y-75070000D02*
X161190000Y-71940000D01*
%TO.N,Net-(Q1-D)*%
X102160000Y-93000000D02*
X102160000Y-95920000D01*
X102160000Y-95920000D02*
X103200000Y-96960000D01*
%TO.N,SCL*%
X118796000Y-59026000D02*
X120100000Y-60330000D01*
X118796000Y-49200000D02*
X118796000Y-59026000D01*
%TO.N,SDA*%
X121336000Y-49200000D02*
X121336000Y-53946000D01*
X121336000Y-53946000D02*
X127720000Y-60330000D01*
%TO.N,Net-(Q1-G)*%
X106520000Y-90980000D02*
X106410000Y-90980000D01*
X106410000Y-90980000D02*
X104410000Y-92980000D01*
X104410000Y-92980000D02*
X104410000Y-96900000D01*
X104410000Y-96900000D02*
X104470000Y-96960000D01*
%TO.N,Net-(Q2-D)*%
X118670000Y-96230000D02*
X119490000Y-97050000D01*
X118670000Y-92940000D02*
X118670000Y-96230000D01*
%TO.N,Net-(Q2-G)*%
X121200000Y-92870000D02*
X120970000Y-92870000D01*
X120970000Y-96840000D02*
X120760000Y-97050000D01*
X123180000Y-90890000D02*
X121200000Y-92870000D01*
X120970000Y-92870000D02*
X120970000Y-96840000D01*
%TO.N,Net-(Q4-G)*%
X112230000Y-92870000D02*
X112230000Y-96720000D01*
X114920000Y-90950000D02*
X114150000Y-90950000D01*
X112230000Y-96720000D02*
X111970000Y-96980000D01*
X114150000Y-90950000D02*
X112230000Y-92870000D01*
%TO.N,Net-(Q4-D)*%
X109410000Y-92920000D02*
X109410000Y-95690000D01*
X109410000Y-95690000D02*
X110700000Y-96980000D01*
%TO.N,SCK*%
X139245000Y-60816701D02*
X148348299Y-69920000D01*
X152790000Y-69920000D02*
X152860000Y-69910000D01*
X152860000Y-69910000D02*
X152810000Y-69920000D01*
X139245000Y-59489000D02*
X139245000Y-60816701D01*
X152810000Y-69920000D02*
X152800000Y-69920000D01*
X148348299Y-69920000D02*
X152790000Y-69920000D01*
X128956000Y-49200000D02*
X139245000Y-59489000D01*
%TO.N,SI*%
X146620000Y-63240000D02*
X144135000Y-60755000D01*
X144135000Y-60755000D02*
X144135000Y-59843299D01*
X144135000Y-59843299D02*
X134036000Y-49744299D01*
X134036000Y-49744299D02*
X134036000Y-49200000D01*
%TO.N,CS*%
X136576000Y-49200000D02*
X136576000Y-51306000D01*
X137990000Y-52720000D02*
X137990000Y-52760000D01*
X138030000Y-52760000D02*
X137940000Y-52670000D01*
X137990000Y-52760000D02*
X138030000Y-52760000D01*
X136576000Y-51306000D02*
X137990000Y-52720000D01*
%TO.N,SO*%
X131496000Y-49200000D02*
X141785000Y-59489000D01*
X150180000Y-69270000D02*
X153170000Y-69270000D01*
X153400000Y-72420000D02*
X153400000Y-72440000D01*
X153400000Y-72440000D02*
X153380000Y-72440000D01*
X153380000Y-72440000D02*
X153420000Y-72400000D01*
X153170000Y-69270000D02*
X153485000Y-69585000D01*
X153485000Y-72335000D02*
X153400000Y-72420000D01*
X141785000Y-59489000D02*
X141785000Y-60875000D01*
X153485000Y-69585000D02*
X153485000Y-72335000D01*
X141785000Y-60875000D02*
X150180000Y-69270000D01*
D22*
%TO.N,CAN-*%
X107302258Y-86050000D02*
X106365000Y-85112742D01*
D21*
X108465000Y-79950000D02*
X107965000Y-79450000D01*
D22*
X116120000Y-82200000D02*
X112270000Y-86050000D01*
X134896397Y-72270000D02*
X127831397Y-79335000D01*
X106365000Y-85112742D02*
X106365000Y-81050000D01*
X117170001Y-82200000D02*
X116120000Y-82200000D01*
X106365000Y-81050000D02*
X107965000Y-79450000D01*
X135530000Y-72270000D02*
X134896397Y-72270000D01*
X120035001Y-79335000D02*
X117170001Y-82200000D01*
X112270000Y-86050000D02*
X107302258Y-86050000D01*
X127831397Y-79335000D02*
X120035001Y-79335000D01*
%TO.N,CAN+*%
X112215000Y-80200000D02*
X107965000Y-84450000D01*
X135530000Y-71000000D02*
X127644980Y-78885020D01*
X116120000Y-77610000D02*
X107960000Y-69450000D01*
X117170001Y-80200000D02*
X116230000Y-80200000D01*
X116120000Y-80200000D02*
X112215000Y-80200000D01*
X116150000Y-80200000D02*
X116120000Y-80200000D01*
X127644980Y-78885020D02*
X118484981Y-78885020D01*
X116190000Y-80240000D02*
X116150000Y-80200000D01*
X116120000Y-80200000D02*
X116120000Y-77610000D01*
X116230000Y-80200000D02*
X116190000Y-80240000D01*
X118484981Y-78885020D02*
X117170001Y-80200000D01*
%TD*%
M02*
