M48
; DRILL file {KiCad 8.0.2-1} date 2024-05-27T06:20:31-0400
; FORMAT={-:-/ absolute / inch / decimal}
; #@! TF.CreationDate,2024-05-27T06:20:31-04:00
; #@! TF.GenerationSoftware,Kicad,Pcbnew,8.0.2-1
; #@! TF.FileFunction,Plated,1,2,PTH
FMAT,2
INCH
; #@! TA.AperFunction,Plated,PTH,ViaDrill
T1C0.0157
; #@! TA.AperFunction,Plated,PTH,ComponentDrill
T2C0.0295
; #@! TA.AperFunction,Plated,PTH,ComponentDrill
T3C0.0315
; #@! TA.AperFunction,Plated,PTH,ComponentDrill
T4C0.0394
; #@! TA.AperFunction,Plated,PTH,ComponentDrill
T5C0.0512
%
G90
G05
T1
X4.165Y-2.2012
X4.3228Y-2.1929
X4.4169Y-3.5764
X4.5634Y-2.4854
X4.7614Y-3.5768
X5.2236Y-2.4665
X5.2331Y-2.5724
X5.3358Y-2.7953
X5.3358Y-2.8453
X5.3528Y-2.4945
X5.4327Y-2.0772
X5.6512Y-2.6528
X5.7724Y-2.4898
X5.8398Y-3.1965
X6.0181Y-2.7524
X6.0394Y-2.852
X6.0496Y-3.1902
T2
X4.063Y-3.8173
X4.113Y-3.8173
X4.163Y-3.8173
X4.3583Y-3.8181
X4.4083Y-3.8181
X4.4583Y-3.8181
X4.7043Y-3.8209
X4.7543Y-3.8209
X4.8043Y-3.8209
T3
X4.1843Y-2.0098
X4.3764Y-2.0098
T4
X4.6283Y-2.3752
X4.6291Y-3.3752
X4.677Y-1.937
X4.7283Y-2.3752
X4.7291Y-3.3752
X4.777Y-1.937
X4.8283Y-2.3752
X4.8291Y-3.3752
X4.877Y-1.937
X4.9283Y-2.3752
X4.9291Y-3.3752
X4.977Y-1.937
X5.0283Y-2.3752
X5.0291Y-3.3752
X5.037Y-3.837
X5.077Y-1.937
X5.1283Y-2.3752
X5.1291Y-3.3752
X5.137Y-3.837
X5.177Y-1.937
X5.2283Y-2.3752
X5.2291Y-3.3752
X5.237Y-3.837
X5.277Y-1.937
X5.3283Y-2.3752
X5.3291Y-3.3752
X5.337Y-3.837
X5.377Y-1.937
X5.4283Y-2.3752
X5.4291Y-3.3752
X5.437Y-3.837
X5.477Y-1.937
X5.5283Y-2.3752
X5.5291Y-3.3752
X5.537Y-3.837
X5.577Y-1.937
X5.6283Y-2.3752
X5.6291Y-3.3752
X5.637Y-3.837
X5.7283Y-2.3752
X5.7291Y-3.3752
X5.737Y-1.937
X5.737Y-3.837
X5.8283Y-2.3752
X5.8291Y-3.3752
X5.837Y-1.937
X5.9283Y-2.3752
X5.9291Y-3.3752
X5.937Y-1.937
X5.937Y-3.837
X6.0283Y-2.3752
X6.0291Y-3.3752
X6.037Y-1.937
X6.037Y-3.837
X6.137Y-1.937
X6.137Y-3.837
X6.237Y-1.937
X6.237Y-3.837
X6.337Y-1.937
X6.337Y-3.837
X6.437Y-1.937
X6.437Y-3.837
T5
X4.2504Y-2.5374
X4.2504Y-2.7343
X4.2506Y-3.128
X4.2506Y-3.3248
X6.3461Y-2.6354
X6.3461Y-2.8323
X6.3461Y-3.0291
M30
