%TF.GenerationSoftware,KiCad,Pcbnew,8.0.2*%
%TF.CreationDate,2024-05-23T15:50:06-04:00*%
%TF.ProjectId,ORA_Arduino_ESP_CAN_Shield_Rev_1.1,4f52415f-4172-4647-9569-6e6f5f455350,rev?*%
%TF.SameCoordinates,Original*%
%TF.FileFunction,Copper,L1,Top*%
%TF.FilePolarity,Positive*%
%FSLAX46Y46*%
G04 Gerber Fmt 4.6, Leading zero omitted, Abs format (unit mm)*
G04 Created by KiCad (PCBNEW 8.0.2) date 2024-05-23 15:50:06*
%MOMM*%
%LPD*%
G01*
G04 APERTURE LIST*
G04 Aperture macros list*
%AMRoundRect*
0 Rectangle with rounded corners*
0 $1 Rounding radius*
0 $2 $3 $4 $5 $6 $7 $8 $9 X,Y pos of 4 corners*
0 Add a 4 corners polygon primitive as box body*
4,1,4,$2,$3,$4,$5,$6,$7,$8,$9,$2,$3,0*
0 Add four circle primitives for the rounded corners*
1,1,$1+$1,$2,$3*
1,1,$1+$1,$4,$5*
1,1,$1+$1,$6,$7*
1,1,$1+$1,$8,$9*
0 Add four rect primitives between the rounded corners*
20,1,$1+$1,$2,$3,$4,$5,0*
20,1,$1+$1,$4,$5,$6,$7,0*
20,1,$1+$1,$6,$7,$8,$9,0*
20,1,$1+$1,$8,$9,$2,$3,0*%
G04 Aperture macros list end*
%TA.AperFunction,SMDPad,CuDef*%
%ADD10RoundRect,0.250000X-0.450000X0.350000X-0.450000X-0.350000X0.450000X-0.350000X0.450000X0.350000X0*%
%TD*%
%TA.AperFunction,SMDPad,CuDef*%
%ADD11RoundRect,0.250000X0.450000X-0.350000X0.450000X0.350000X-0.450000X0.350000X-0.450000X-0.350000X0*%
%TD*%
%TA.AperFunction,SMDPad,CuDef*%
%ADD12RoundRect,0.250000X-0.337500X-0.475000X0.337500X-0.475000X0.337500X0.475000X-0.337500X0.475000X0*%
%TD*%
%TA.AperFunction,ComponentPad*%
%ADD13R,1.700000X1.700000*%
%TD*%
%TA.AperFunction,ComponentPad*%
%ADD14O,1.700000X1.700000*%
%TD*%
%TA.AperFunction,SMDPad,CuDef*%
%ADD15RoundRect,0.250000X-0.350000X-0.450000X0.350000X-0.450000X0.350000X0.450000X-0.350000X0.450000X0*%
%TD*%
%TA.AperFunction,SMDPad,CuDef*%
%ADD16RoundRect,0.250000X0.337500X0.475000X-0.337500X0.475000X-0.337500X-0.475000X0.337500X-0.475000X0*%
%TD*%
%TA.AperFunction,SMDPad,CuDef*%
%ADD17RoundRect,0.150000X-0.825000X-0.150000X0.825000X-0.150000X0.825000X0.150000X-0.825000X0.150000X0*%
%TD*%
%TA.AperFunction,SMDPad,CuDef*%
%ADD18RoundRect,0.250000X0.350000X0.450000X-0.350000X0.450000X-0.350000X-0.450000X0.350000X-0.450000X0*%
%TD*%
%TA.AperFunction,ComponentPad*%
%ADD19R,2.600000X2.600000*%
%TD*%
%TA.AperFunction,ComponentPad*%
%ADD20C,2.600000*%
%TD*%
%TA.AperFunction,ComponentPad*%
%ADD21C,1.500000*%
%TD*%
%TA.AperFunction,ViaPad*%
%ADD22C,0.600000*%
%TD*%
%TA.AperFunction,Conductor*%
%ADD23C,0.200000*%
%TD*%
G04 APERTURE END LIST*
D10*
%TO.P,R1,1*%
%TO.N,Net-(U2-OSC2)*%
X41615000Y-64980000D03*
%TO.P,R1,2*%
%TO.N,Net-(U2-OSC1)*%
X41615000Y-66980000D03*
%TD*%
D11*
%TO.P,TR1,1*%
%TO.N,CAN+*%
X73610000Y-36160000D03*
%TO.P,TR1,2*%
%TO.N,CAN-*%
X73610000Y-34160000D03*
%TD*%
D12*
%TO.P,C2,1*%
%TO.N,Net-(U2-OSC1)*%
X41727500Y-61130000D03*
%TO.P,C2,2*%
%TO.N,GND*%
X43802500Y-61130000D03*
%TD*%
D13*
%TO.P,Digital_1,1,Pin_1*%
%TO.N,SCL*%
X42560000Y-73580000D03*
D14*
%TO.P,Digital_1,2,Pin_2*%
%TO.N,SDA*%
X45100000Y-73580000D03*
%TO.P,Digital_1,3,Pin_3*%
%TO.N,unconnected-(Digital_1-Pin_3-Pad3)*%
X47640000Y-73580000D03*
%TO.P,Digital_1,4,Pin_4*%
%TO.N,GND*%
X50180000Y-73580000D03*
%TO.P,Digital_1,5,Pin_5*%
%TO.N,SCK*%
X52720000Y-73580000D03*
%TO.P,Digital_1,6,Pin_6*%
%TO.N,SO*%
X55260000Y-73580000D03*
%TO.P,Digital_1,7,Pin_7*%
%TO.N,SI*%
X57800000Y-73580000D03*
%TO.P,Digital_1,8,Pin_8*%
%TO.N,CS*%
X60340000Y-73580000D03*
%TO.P,Digital_1,9,Pin_9*%
%TO.N,unconnected-(Digital_1-Pin_9-Pad9)*%
X62880000Y-73580000D03*
%TO.P,Digital_1,10,Pin_10*%
%TO.N,unconnected-(Digital_1-Pin_10-Pad10)*%
X65420000Y-73580000D03*
%TD*%
D12*
%TO.P,C1,1*%
%TO.N,GND*%
X35712500Y-73310000D03*
%TO.P,C1,2*%
%TO.N,Net-(U2-OSC2)*%
X37787500Y-73310000D03*
%TD*%
D13*
%TO.P,Power_1,1,Pin_1*%
%TO.N,unconnected-(Power_1-Pin_1-Pad1)*%
X51715000Y-25320000D03*
D14*
%TO.P,Power_1,2,Pin_2*%
%TO.N,unconnected-(Power_1-Pin_2-Pad2)*%
X54255000Y-25320000D03*
%TO.P,Power_1,3,Pin_3*%
%TO.N,unconnected-(Power_1-Pin_3-Pad3)*%
X56795000Y-25320000D03*
%TO.P,Power_1,4,Pin_4*%
%TO.N,unconnected-(Power_1-Pin_4-Pad4)*%
X59335000Y-25320000D03*
%TO.P,Power_1,5,Pin_5*%
%TO.N,+5V*%
X61875000Y-25320000D03*
%TO.P,Power_1,6,Pin_6*%
%TO.N,GND*%
X64415000Y-25320000D03*
%TO.P,Power_1,7,Pin_7*%
X66955000Y-25320000D03*
%TO.P,Power_1,8,Pin_8*%
%TO.N,unconnected-(Power_1-Pin_8-Pad8)*%
X69495000Y-25320000D03*
%TD*%
D15*
%TO.P,R3,1*%
%TO.N,Net-(U3-Rs)*%
X57375000Y-60220000D03*
%TO.P,R3,2*%
%TO.N,GND*%
X59375000Y-60220000D03*
%TD*%
D13*
%TO.P,Analog_1,1,Pin_1*%
%TO.N,unconnected-(Analog_1-Pin_1-Pad1)*%
X74570000Y-25310000D03*
D14*
%TO.P,Analog_1,2,Pin_2*%
%TO.N,unconnected-(Analog_1-Pin_2-Pad2)*%
X77110000Y-25310000D03*
%TO.P,Analog_1,3,Pin_3*%
%TO.N,unconnected-(Analog_1-Pin_3-Pad3)*%
X79650000Y-25310000D03*
%TO.P,Analog_1,4,Pin_4*%
%TO.N,unconnected-(Analog_1-Pin_4-Pad4)*%
X82190000Y-25310000D03*
%TO.P,Analog_1,5,Pin_5*%
%TO.N,unconnected-(Analog_1-Pin_5-Pad5)*%
X84730000Y-25310000D03*
%TO.P,Analog_1,6,Pin_6*%
%TO.N,unconnected-(Analog_1-Pin_6-Pad6)*%
X87270000Y-25310000D03*
%TD*%
D16*
%TO.P,C3,1*%
%TO.N,+5V*%
X53690000Y-58500000D03*
%TO.P,C3,2*%
%TO.N,GND*%
X51615000Y-58500000D03*
%TD*%
D13*
%TO.P,Digital_2,1,Pin_1*%
%TO.N,unconnected-(Digital_2-Pin_1-Pad1)*%
X69490000Y-73580000D03*
D14*
%TO.P,Digital_2,2,Pin_2*%
%TO.N,unconnected-(Digital_2-Pin_2-Pad2)*%
X72030000Y-73580000D03*
%TO.P,Digital_2,3,Pin_3*%
%TO.N,unconnected-(Digital_2-Pin_3-Pad3)*%
X74570000Y-73580000D03*
%TO.P,Digital_2,4,Pin_4*%
%TO.N,unconnected-(Digital_2-Pin_4-Pad4)*%
X77110000Y-73580000D03*
%TO.P,Digital_2,5,Pin_5*%
%TO.N,unconnected-(Digital_2-Pin_5-Pad5)*%
X79650000Y-73580000D03*
%TO.P,Digital_2,6,Pin_6*%
%TO.N,INT*%
X82190000Y-73580000D03*
%TO.P,Digital_2,7,Pin_7*%
%TO.N,unconnected-(Digital_2-Pin_7-Pad7)*%
X84730000Y-73580000D03*
%TO.P,Digital_2,8,Pin_8*%
%TO.N,unconnected-(Digital_2-Pin_8-Pad8)*%
X87270000Y-73580000D03*
%TD*%
D17*
%TO.P,U3,1,TXD*%
%TO.N,Net-(U2-TXCAN)*%
X45750000Y-63615000D03*
%TO.P,U3,2,VSS*%
%TO.N,GND*%
X45750000Y-64885000D03*
%TO.P,U3,3,VDD*%
%TO.N,+5V*%
X45750000Y-66155000D03*
%TO.P,U3,4,RXD*%
%TO.N,Net-(U2-RXCAN)*%
X45750000Y-67425000D03*
%TO.P,U3,5,Vref*%
%TO.N,unconnected-(U3-Vref-Pad5)*%
X50700000Y-67425000D03*
%TO.P,U3,6,CANL*%
%TO.N,CAN-*%
X50700000Y-66155000D03*
%TO.P,U3,7,CANH*%
%TO.N,CAN+*%
X50700000Y-64885000D03*
%TO.P,U3,8,Rs*%
%TO.N,Net-(U3-Rs)*%
X50700000Y-63615000D03*
%TD*%
D18*
%TO.P,R2,1*%
%TO.N,GND*%
X31600000Y-73270000D03*
%TO.P,R2,2*%
%TO.N,Net-(U2-~{RESET})*%
X29600000Y-73270000D03*
%TD*%
D13*
%TO.P,EN_1,1,Pin_1*%
%TO.N,unconnected-(EN_1-Pin_1-Pad1)*%
X69530000Y-54460000D03*
D14*
%TO.P,EN_1,2,Pin_2*%
%TO.N,unconnected-(EN_1-Pin_2-Pad2)*%
X66990000Y-54460000D03*
%TO.P,EN_1,3,Pin_3*%
%TO.N,unconnected-(EN_1-Pin_3-Pad3)*%
X64450000Y-54460000D03*
%TO.P,EN_1,4,Pin_4*%
%TO.N,unconnected-(EN_1-Pin_4-Pad4)*%
X61910000Y-54460000D03*
%TO.P,EN_1,5,Pin_5*%
%TO.N,unconnected-(EN_1-Pin_5-Pad5)*%
X59370000Y-54460000D03*
%TO.P,EN_1,6,Pin_6*%
%TO.N,unconnected-(EN_1-Pin_6-Pad6)*%
X56830000Y-54460000D03*
%TO.P,EN_1,7,Pin_7*%
%TO.N,unconnected-(EN_1-Pin_7-Pad7)*%
X54290000Y-54460000D03*
%TO.P,EN_1,8,Pin_8*%
%TO.N,unconnected-(EN_1-Pin_8-Pad8)*%
X51750000Y-54460000D03*
%TO.P,EN_1,9,Pin_9*%
%TO.N,unconnected-(EN_1-Pin_9-Pad9)*%
X49210000Y-54460000D03*
%TO.P,EN_1,10,Pin_10*%
%TO.N,unconnected-(EN_1-Pin_10-Pad10)*%
X46670000Y-54460000D03*
%TO.P,EN_1,11,Pin_11*%
%TO.N,unconnected-(EN_1-Pin_11-Pad11)*%
X44130000Y-54460000D03*
%TO.P,EN_1,12,Pin_12*%
%TO.N,unconnected-(EN_1-Pin_12-Pad12)*%
X41590000Y-54460000D03*
%TO.P,EN_1,13,Pin_13*%
%TO.N,unconnected-(EN_1-Pin_13-Pad13)*%
X39050000Y-54460000D03*
%TO.P,EN_1,14,Pin_14*%
%TO.N,GND*%
X36510000Y-54460000D03*
%TO.P,EN_1,15,Pin_15*%
%TO.N,+5V*%
X33970000Y-54460000D03*
%TD*%
D19*
%TO.P,J1,1,Pin_1*%
%TO.N,CAN-*%
X83990000Y-47420000D03*
D20*
%TO.P,J1,2,Pin_2*%
%TO.N,CAN+*%
X83990000Y-52420000D03*
%TD*%
D19*
%TO.P,J2,1,Pin_1*%
%TO.N,CAN-*%
X83940000Y-33110000D03*
D20*
%TO.P,J2,2,Pin_2*%
%TO.N,CAN+*%
X83940000Y-38110000D03*
%TD*%
D13*
%TO.P,BOOT_1,1,Pin_1*%
%TO.N,unconnected-(BOOT_1-Pin_1-Pad1)*%
X33970000Y-29110000D03*
D14*
%TO.P,BOOT_1,2,Pin_2*%
%TO.N,unconnected-(BOOT_1-Pin_2-Pad2)*%
X36510000Y-29110000D03*
%TO.P,BOOT_1,3,Pin_3*%
%TO.N,unconnected-(BOOT_1-Pin_3-Pad3)*%
X39050000Y-29110000D03*
%TO.P,BOOT_1,4,Pin_4*%
%TO.N,unconnected-(BOOT_1-Pin_4-Pad4)*%
X41590000Y-29110000D03*
%TO.P,BOOT_1,5,Pin_5*%
%TO.N,unconnected-(BOOT_1-Pin_5-Pad5)*%
X44130000Y-29110000D03*
%TO.P,BOOT_1,6,Pin_6*%
%TO.N,unconnected-(BOOT_1-Pin_6-Pad6)*%
X46670000Y-29110000D03*
%TO.P,BOOT_1,7,Pin_7*%
%TO.N,unconnected-(BOOT_1-Pin_7-Pad7)*%
X49210000Y-29110000D03*
%TO.P,BOOT_1,8,Pin_8*%
%TO.N,unconnected-(BOOT_1-Pin_8-Pad8)*%
X51750000Y-29110000D03*
%TO.P,BOOT_1,9,Pin_9*%
%TO.N,unconnected-(BOOT_1-Pin_9-Pad9)*%
X54290000Y-29110000D03*
%TO.P,BOOT_1,10,Pin_10*%
%TO.N,unconnected-(BOOT_1-Pin_10-Pad10)*%
X56830000Y-29110000D03*
%TO.P,BOOT_1,11,Pin_11*%
%TO.N,SDA*%
X59370000Y-29110000D03*
%TO.P,BOOT_1,12,Pin_12*%
%TO.N,unconnected-(BOOT_1-Pin_12-Pad12)*%
X61910000Y-29110000D03*
%TO.P,BOOT_1,13,Pin_13*%
%TO.N,unconnected-(BOOT_1-Pin_13-Pad13)*%
X64450000Y-29110000D03*
%TO.P,BOOT_1,14,Pin_14*%
%TO.N,SCL*%
X66990000Y-29110000D03*
%TO.P,BOOT_1,15,Pin_15*%
%TO.N,unconnected-(BOOT_1-Pin_15-Pad15)*%
X69530000Y-29110000D03*
%TD*%
D21*
%TO.P,Y1,1,1*%
%TO.N,Net-(U2-OSC1)*%
X27865000Y-39870000D03*
%TO.P,Y1,2,2*%
%TO.N,Net-(U2-OSC2)*%
X27865000Y-34990000D03*
%TD*%
D22*
%TO.N,Net-(U2-OSC2)*%
X37440000Y-70810000D03*
X37810000Y-73410000D03*
X40165000Y-66410000D03*
%TO.N,Net-(U2-OSC1)*%
X40225000Y-47240000D03*
X41365000Y-67040000D03*
X41585000Y-56650000D03*
%TO.N,+5V*%
X30560000Y-51480000D03*
%TO.N,SCL*%
X29120000Y-25620000D03*
%TO.N,GND*%
X69540000Y-48270000D03*
X55135000Y-56860000D03*
X50505000Y-56840000D03*
X37990000Y-67870000D03*
X47665000Y-70530000D03*
X63440000Y-51480000D03*
X35035000Y-65090000D03*
X35860000Y-73260000D03*
X36140000Y-69000000D03*
%TO.N,CS*%
X28675000Y-60290000D03*
X25855000Y-59530000D03*
%TO.N,CAN+*%
X76195000Y-41370000D03*
X50750000Y-64910000D03*
X73600000Y-36190000D03*
X71139479Y-64939479D03*
%TO.N,CAN-*%
X73630000Y-34200000D03*
X50670000Y-66160000D03*
X71740521Y-65540521D03*
X77045000Y-41370000D03*
%TO.N,Net-(U2-~{RESET})*%
X29530000Y-73300000D03*
X32625000Y-61820000D03*
X31840000Y-67190000D03*
%TO.N,Net-(U2-RXCAN)*%
X54775000Y-60330000D03*
%TO.N,Net-(U2-TXCAN)*%
X45415000Y-57780000D03*
%TD*%
D23*
%TO.N,Net-(U2-OSC2)*%
X26815000Y-36040000D02*
X27865000Y-34990000D01*
X40185000Y-66410000D02*
X40165000Y-66410000D01*
X31695000Y-62461471D02*
X27615000Y-58381471D01*
X37440000Y-70810000D02*
X37440000Y-69870000D01*
X26815000Y-44850000D02*
X26815000Y-36040000D01*
X32555000Y-65412500D02*
X31695000Y-64552500D01*
X27615000Y-58381471D02*
X27615000Y-45650000D01*
X40185000Y-68230000D02*
X40185000Y-66410000D01*
X27615000Y-45650000D02*
X26815000Y-44850000D01*
X38735000Y-69680000D02*
X40185000Y-68230000D01*
X37440000Y-69870000D02*
X37250000Y-69680000D01*
X40185000Y-66410000D02*
X40185000Y-66410000D01*
X30895000Y-67072500D02*
X30895000Y-69460000D01*
X37250000Y-69680000D02*
X38735000Y-69680000D01*
X31115000Y-69680000D02*
X37250000Y-69680000D01*
X32555000Y-65412500D02*
X30895000Y-67072500D01*
X30895000Y-69460000D02*
X31115000Y-69680000D01*
X40165000Y-66410000D02*
X40165000Y-66430000D01*
X31695000Y-64552500D02*
X31695000Y-62461471D01*
X40165000Y-66430000D02*
X41615000Y-64980000D01*
%TO.N,Net-(U2-OSC1)*%
X41685000Y-56650000D02*
X41585000Y-56650000D01*
X42615000Y-65980000D02*
X41615000Y-66980000D01*
X32855000Y-39870000D02*
X27865000Y-39870000D01*
X40225000Y-47240000D02*
X32855000Y-39870000D01*
X42615000Y-62017500D02*
X42615000Y-65980000D01*
X41727500Y-56692500D02*
X41685000Y-56650000D01*
X41727500Y-61130000D02*
X42615000Y-62017500D01*
X41585000Y-56650000D02*
X41585000Y-56550000D01*
X41585000Y-56550000D02*
X41685000Y-56650000D01*
X41727500Y-61130000D02*
X41727500Y-56692500D01*
%TO.N,+5V*%
X49205000Y-63674999D02*
X49205000Y-62985000D01*
X45750000Y-66155000D02*
X46724999Y-66155000D01*
X61875000Y-25320000D02*
X63060000Y-26505000D01*
X63060000Y-26505000D02*
X63060000Y-47170000D01*
X60316827Y-49346827D02*
X62493654Y-47170000D01*
X30560000Y-51480000D02*
X32693173Y-49346827D01*
X60316827Y-49346827D02*
X55440000Y-54223654D01*
X55440000Y-55670000D02*
X53690000Y-57420000D01*
X53690000Y-57420000D02*
X53690000Y-58500000D01*
X46724999Y-66155000D02*
X49205000Y-63674999D01*
X49205000Y-62985000D02*
X53690000Y-58500000D01*
X55440000Y-54223654D02*
X55440000Y-55670000D01*
X32693173Y-49346827D02*
X60316827Y-49346827D01*
X62493654Y-47170000D02*
X63060000Y-47170000D01*
%TO.N,SDA*%
X28655000Y-29950000D02*
X33555000Y-34850000D01*
X25025000Y-70885000D02*
X25025000Y-32800000D01*
X33555000Y-34850000D02*
X53630000Y-34850000D01*
X53630000Y-34850000D02*
X59370000Y-29110000D01*
X43490000Y-71950000D02*
X26090000Y-71950000D01*
X45120000Y-73580000D02*
X43490000Y-71950000D01*
X26090000Y-71950000D02*
X25025000Y-70885000D01*
X25025000Y-32800000D02*
X27875000Y-29950000D01*
X27875000Y-29950000D02*
X28655000Y-29950000D01*
%TO.N,SCL*%
X29120000Y-25620000D02*
X29115000Y-25630000D01*
X40850000Y-73580000D02*
X42580000Y-73580000D01*
X39760000Y-74670000D02*
X40850000Y-73580000D01*
X27579000Y-74670000D02*
X39760000Y-74670000D01*
X29115000Y-25631000D02*
X29120000Y-25620000D01*
X24380000Y-71471000D02*
X24380000Y-30366000D01*
X27579000Y-74670000D02*
X24380000Y-71471000D01*
X24380000Y-30366000D02*
X29115000Y-25631000D01*
%TO.N,GND*%
X67205000Y-56860000D02*
X65223654Y-56860000D01*
X48575000Y-60070000D02*
X50145000Y-58500000D01*
X48575000Y-63034999D02*
X48575000Y-60070000D01*
X64415000Y-25320000D02*
X66955000Y-25320000D01*
X33695000Y-63700000D02*
X33705000Y-63700000D01*
X63845000Y-60220000D02*
X59375000Y-60220000D01*
X47665000Y-70530000D02*
X47665000Y-71045000D01*
X35035000Y-65090000D02*
X35095000Y-65090000D01*
X50145000Y-58500000D02*
X51615000Y-58500000D01*
X35035000Y-65030000D02*
X35035000Y-65090000D01*
X44775001Y-64885000D02*
X43695000Y-65965001D01*
X43802500Y-63912499D02*
X44775001Y-64885000D01*
X63300000Y-54936346D02*
X63300000Y-51620000D01*
X50505000Y-56960000D02*
X50505000Y-56840000D01*
X50505000Y-56840000D02*
X50385000Y-56840000D01*
X43695000Y-65965001D02*
X43695000Y-68910000D01*
X32695000Y-59930000D02*
X32695000Y-58275000D01*
X64040000Y-51510000D02*
X63440000Y-51480000D01*
X43695000Y-68910000D02*
X45315000Y-70530000D01*
X51615000Y-58500000D02*
X51615000Y-58070000D01*
X36140000Y-69000000D02*
X36920000Y-69000000D01*
X45315000Y-70530000D02*
X47665000Y-70530000D01*
X31600000Y-73270000D02*
X35672500Y-73270000D01*
X35672500Y-73270000D02*
X35860000Y-73260000D01*
X51615000Y-58070000D02*
X50505000Y-56960000D01*
X45750000Y-64885000D02*
X46724999Y-64885000D01*
X50385000Y-56840000D02*
X50465000Y-56920000D01*
X63300000Y-51620000D02*
X63440000Y-51480000D01*
X68380000Y-47110000D02*
X68380000Y-26745000D01*
X32695000Y-58275000D02*
X36510000Y-54460000D01*
X35095000Y-65090000D02*
X35035000Y-65030000D01*
X67205000Y-56860000D02*
X63845000Y-60220000D01*
X69540000Y-48270000D02*
X68380000Y-47110000D01*
X33705000Y-63700000D02*
X35035000Y-65030000D01*
X55135000Y-56860000D02*
X67205000Y-56860000D01*
X43802500Y-61130000D02*
X43802500Y-63912499D01*
X33695000Y-60930000D02*
X33695000Y-63700000D01*
X35860000Y-73260000D02*
X35712500Y-73310000D01*
X68380000Y-26745000D02*
X66955000Y-25320000D01*
X32695000Y-59930000D02*
X33695000Y-60930000D01*
X46724999Y-64885000D02*
X48575000Y-63034999D01*
X44775001Y-64885000D02*
X45750000Y-64885000D01*
X47665000Y-71045000D02*
X50200000Y-73580000D01*
X36920000Y-69000000D02*
X38010000Y-67910000D01*
X65223654Y-56860000D02*
X63300000Y-54936346D01*
X63440000Y-51480000D02*
X63440000Y-51510000D01*
%TO.N,CS*%
X25855000Y-59530000D02*
X26605000Y-60280000D01*
X28675000Y-60290000D02*
X28545000Y-60280000D01*
X28525000Y-60280000D02*
X28675000Y-60290000D01*
X26605000Y-60280000D02*
X28525000Y-60280000D01*
X28545000Y-60280000D02*
X28535000Y-60280000D01*
%TO.N,CAN+*%
X73610000Y-36200000D02*
X73600000Y-36190000D01*
X71139479Y-64939479D02*
X71422322Y-64939479D01*
X71422322Y-64939479D02*
X76394999Y-59966802D01*
X76394999Y-59966802D02*
X76394999Y-41569999D01*
X76394999Y-41569999D02*
X76195000Y-41370000D01*
X73600000Y-36190000D02*
X73610000Y-36180000D01*
X50750000Y-64910000D02*
X50775000Y-64885000D01*
X73610000Y-57851800D02*
X73610000Y-36200000D01*
X50775000Y-64885000D02*
X52162501Y-64885000D01*
X50700000Y-64885000D02*
X50725000Y-64885000D01*
X73610000Y-36180000D02*
X73610000Y-36160000D01*
X66166800Y-65295000D02*
X73610000Y-57851800D01*
X52162501Y-64885000D02*
X52572501Y-65295000D01*
X50725000Y-64885000D02*
X50750000Y-64910000D01*
X52572501Y-65295000D02*
X66166800Y-65295000D01*
%TO.N,CAN-*%
X76845001Y-60153198D02*
X76845001Y-41569999D01*
X74060000Y-35025256D02*
X74060000Y-34610000D01*
X66353200Y-65745000D02*
X74060000Y-58038200D01*
X50705000Y-66155000D02*
X52162501Y-66155000D01*
X52572501Y-65745000D02*
X66353200Y-65745000D01*
X74060000Y-34610000D02*
X73650000Y-34200000D01*
X50700000Y-66155000D02*
X50695000Y-66155000D01*
X74060000Y-58038200D02*
X74060000Y-37294744D01*
X74610000Y-35575256D02*
X74060000Y-35025256D01*
X73630000Y-34180000D02*
X73610000Y-34160000D01*
X73630000Y-34200000D02*
X73630000Y-34180000D01*
X74060000Y-37294744D02*
X74610000Y-36744744D01*
X71740521Y-65540521D02*
X71740521Y-65257678D01*
X71740521Y-65257678D02*
X76845001Y-60153198D01*
X73650000Y-34200000D02*
X73630000Y-34200000D01*
X50670000Y-66160000D02*
X50705000Y-66155000D01*
X76845001Y-41569999D02*
X77045000Y-41370000D01*
X74610000Y-36744744D02*
X74610000Y-35575256D01*
X50695000Y-66155000D02*
X50670000Y-66160000D01*
X52162501Y-66155000D02*
X52572501Y-65745000D01*
%TO.N,Net-(U2-~{RESET})*%
X32625000Y-61820000D02*
X32955000Y-62150000D01*
X32955000Y-62150000D02*
X32955000Y-66105000D01*
X31840000Y-67220000D02*
X31900000Y-67160000D01*
X31870000Y-67190000D02*
X31840000Y-67190000D01*
X31840000Y-67190000D02*
X31840000Y-67220000D01*
X32955000Y-66105000D02*
X31870000Y-67190000D01*
%TO.N,Net-(U3-Rs)*%
X54485000Y-59730000D02*
X50700000Y-63515000D01*
X56885000Y-59730000D02*
X54485000Y-59730000D01*
X57375000Y-60220000D02*
X56885000Y-59730000D01*
X50700000Y-63515000D02*
X50700000Y-63615000D01*
%TO.N,Net-(U2-RXCAN)*%
X54685000Y-61245552D02*
X54775000Y-60330000D01*
X45750000Y-67425000D02*
X46544448Y-67425000D01*
X51715552Y-64215000D02*
X54685000Y-61245552D01*
X46544448Y-67425000D02*
X49754448Y-64215000D01*
X54775000Y-60330000D02*
X54685000Y-60300000D01*
X49754448Y-64215000D02*
X51715552Y-64215000D01*
%TO.N,Net-(U2-TXCAN)*%
X45750000Y-63615000D02*
X45750000Y-58095000D01*
X45415000Y-57780000D02*
X45415000Y-57760000D01*
X45435000Y-57780000D02*
X45415000Y-57780000D01*
X45415000Y-57760000D02*
X45495000Y-57840000D01*
X45750000Y-58095000D02*
X45435000Y-57780000D01*
%TD*%
M02*
