%TF.GenerationSoftware,KiCad,Pcbnew,8.0.2-1*%
%TF.CreationDate,2024-05-16T23:29:46-04:00*%
%TF.ProjectId,ORA_Arduino_ESP_CAN_Shield_Rev_1.1,4f52415f-4172-4647-9569-6e6f5f455350,rev?*%
%TF.SameCoordinates,Original*%
%TF.FileFunction,Legend,Bot*%
%TF.FilePolarity,Positive*%
%FSLAX46Y46*%
G04 Gerber Fmt 4.6, Leading zero omitted, Abs format (unit mm)*
G04 Created by KiCad (PCBNEW 8.0.2-1) date 2024-05-16 23:29:46*
%MOMM*%
%LPD*%
G01*
G04 APERTURE LIST*
%ADD10C,0.150000*%
%ADD11C,0.300000*%
%ADD12C,0.120000*%
%ADD13C,0.000000*%
G04 APERTURE END LIST*
D10*
X74126792Y-65389819D02*
X74460125Y-64913628D01*
X74698220Y-65389819D02*
X74698220Y-64389819D01*
X74698220Y-64389819D02*
X74317268Y-64389819D01*
X74317268Y-64389819D02*
X74222030Y-64437438D01*
X74222030Y-64437438D02*
X74174411Y-64485057D01*
X74174411Y-64485057D02*
X74126792Y-64580295D01*
X74126792Y-64580295D02*
X74126792Y-64723152D01*
X74126792Y-64723152D02*
X74174411Y-64818390D01*
X74174411Y-64818390D02*
X74222030Y-64866009D01*
X74222030Y-64866009D02*
X74317268Y-64913628D01*
X74317268Y-64913628D02*
X74698220Y-64913628D01*
X73555363Y-65389819D02*
X73650601Y-65342200D01*
X73650601Y-65342200D02*
X73698220Y-65294580D01*
X73698220Y-65294580D02*
X73745839Y-65199342D01*
X73745839Y-65199342D02*
X73745839Y-64913628D01*
X73745839Y-64913628D02*
X73698220Y-64818390D01*
X73698220Y-64818390D02*
X73650601Y-64770771D01*
X73650601Y-64770771D02*
X73555363Y-64723152D01*
X73555363Y-64723152D02*
X73412506Y-64723152D01*
X73412506Y-64723152D02*
X73317268Y-64770771D01*
X73317268Y-64770771D02*
X73269649Y-64818390D01*
X73269649Y-64818390D02*
X73222030Y-64913628D01*
X73222030Y-64913628D02*
X73222030Y-65199342D01*
X73222030Y-65199342D02*
X73269649Y-65294580D01*
X73269649Y-65294580D02*
X73317268Y-65342200D01*
X73317268Y-65342200D02*
X73412506Y-65389819D01*
X73412506Y-65389819D02*
X73555363Y-65389819D01*
X72793458Y-65389819D02*
X72793458Y-64389819D01*
X72793458Y-64770771D02*
X72698220Y-64723152D01*
X72698220Y-64723152D02*
X72507744Y-64723152D01*
X72507744Y-64723152D02*
X72412506Y-64770771D01*
X72412506Y-64770771D02*
X72364887Y-64818390D01*
X72364887Y-64818390D02*
X72317268Y-64913628D01*
X72317268Y-64913628D02*
X72317268Y-65199342D01*
X72317268Y-65199342D02*
X72364887Y-65294580D01*
X72364887Y-65294580D02*
X72412506Y-65342200D01*
X72412506Y-65342200D02*
X72507744Y-65389819D01*
X72507744Y-65389819D02*
X72698220Y-65389819D01*
X72698220Y-65389819D02*
X72793458Y-65342200D01*
X71745839Y-65389819D02*
X71841077Y-65342200D01*
X71841077Y-65342200D02*
X71888696Y-65294580D01*
X71888696Y-65294580D02*
X71936315Y-65199342D01*
X71936315Y-65199342D02*
X71936315Y-64913628D01*
X71936315Y-64913628D02*
X71888696Y-64818390D01*
X71888696Y-64818390D02*
X71841077Y-64770771D01*
X71841077Y-64770771D02*
X71745839Y-64723152D01*
X71745839Y-64723152D02*
X71602982Y-64723152D01*
X71602982Y-64723152D02*
X71507744Y-64770771D01*
X71507744Y-64770771D02*
X71460125Y-64818390D01*
X71460125Y-64818390D02*
X71412506Y-64913628D01*
X71412506Y-64913628D02*
X71412506Y-65199342D01*
X71412506Y-65199342D02*
X71460125Y-65294580D01*
X71460125Y-65294580D02*
X71507744Y-65342200D01*
X71507744Y-65342200D02*
X71602982Y-65389819D01*
X71602982Y-65389819D02*
X71745839Y-65389819D01*
X71126791Y-64723152D02*
X70745839Y-64723152D01*
X70983934Y-64389819D02*
X70983934Y-65246961D01*
X70983934Y-65246961D02*
X70936315Y-65342200D01*
X70936315Y-65342200D02*
X70841077Y-65389819D01*
X70841077Y-65389819D02*
X70745839Y-65389819D01*
X70412505Y-65389819D02*
X70412505Y-64723152D01*
X70412505Y-64389819D02*
X70460124Y-64437438D01*
X70460124Y-64437438D02*
X70412505Y-64485057D01*
X70412505Y-64485057D02*
X70364886Y-64437438D01*
X70364886Y-64437438D02*
X70412505Y-64389819D01*
X70412505Y-64389819D02*
X70412505Y-64485057D01*
X69507744Y-65342200D02*
X69602982Y-65389819D01*
X69602982Y-65389819D02*
X69793458Y-65389819D01*
X69793458Y-65389819D02*
X69888696Y-65342200D01*
X69888696Y-65342200D02*
X69936315Y-65294580D01*
X69936315Y-65294580D02*
X69983934Y-65199342D01*
X69983934Y-65199342D02*
X69983934Y-64913628D01*
X69983934Y-64913628D02*
X69936315Y-64818390D01*
X69936315Y-64818390D02*
X69888696Y-64770771D01*
X69888696Y-64770771D02*
X69793458Y-64723152D01*
X69793458Y-64723152D02*
X69602982Y-64723152D01*
X69602982Y-64723152D02*
X69507744Y-64770771D01*
X69126791Y-65342200D02*
X69031553Y-65389819D01*
X69031553Y-65389819D02*
X68841077Y-65389819D01*
X68841077Y-65389819D02*
X68745839Y-65342200D01*
X68745839Y-65342200D02*
X68698220Y-65246961D01*
X68698220Y-65246961D02*
X68698220Y-65199342D01*
X68698220Y-65199342D02*
X68745839Y-65104104D01*
X68745839Y-65104104D02*
X68841077Y-65056485D01*
X68841077Y-65056485D02*
X68983934Y-65056485D01*
X68983934Y-65056485D02*
X69079172Y-65008866D01*
X69079172Y-65008866D02*
X69126791Y-64913628D01*
X69126791Y-64913628D02*
X69126791Y-64866009D01*
X69126791Y-64866009D02*
X69079172Y-64770771D01*
X69079172Y-64770771D02*
X68983934Y-64723152D01*
X68983934Y-64723152D02*
X68841077Y-64723152D01*
X68841077Y-64723152D02*
X68745839Y-64770771D01*
X67555362Y-65104104D02*
X67079172Y-65104104D01*
X67650600Y-65389819D02*
X67317267Y-64389819D01*
X67317267Y-64389819D02*
X66983934Y-65389819D01*
X66698219Y-65342200D02*
X66602981Y-65389819D01*
X66602981Y-65389819D02*
X66412505Y-65389819D01*
X66412505Y-65389819D02*
X66317267Y-65342200D01*
X66317267Y-65342200D02*
X66269648Y-65246961D01*
X66269648Y-65246961D02*
X66269648Y-65199342D01*
X66269648Y-65199342D02*
X66317267Y-65104104D01*
X66317267Y-65104104D02*
X66412505Y-65056485D01*
X66412505Y-65056485D02*
X66555362Y-65056485D01*
X66555362Y-65056485D02*
X66650600Y-65008866D01*
X66650600Y-65008866D02*
X66698219Y-64913628D01*
X66698219Y-64913628D02*
X66698219Y-64866009D01*
X66698219Y-64866009D02*
X66650600Y-64770771D01*
X66650600Y-64770771D02*
X66555362Y-64723152D01*
X66555362Y-64723152D02*
X66412505Y-64723152D01*
X66412505Y-64723152D02*
X66317267Y-64770771D01*
X65888695Y-65342200D02*
X65793457Y-65389819D01*
X65793457Y-65389819D02*
X65602981Y-65389819D01*
X65602981Y-65389819D02*
X65507743Y-65342200D01*
X65507743Y-65342200D02*
X65460124Y-65246961D01*
X65460124Y-65246961D02*
X65460124Y-65199342D01*
X65460124Y-65199342D02*
X65507743Y-65104104D01*
X65507743Y-65104104D02*
X65602981Y-65056485D01*
X65602981Y-65056485D02*
X65745838Y-65056485D01*
X65745838Y-65056485D02*
X65841076Y-65008866D01*
X65841076Y-65008866D02*
X65888695Y-64913628D01*
X65888695Y-64913628D02*
X65888695Y-64866009D01*
X65888695Y-64866009D02*
X65841076Y-64770771D01*
X65841076Y-64770771D02*
X65745838Y-64723152D01*
X65745838Y-64723152D02*
X65602981Y-64723152D01*
X65602981Y-64723152D02*
X65507743Y-64770771D01*
X64888695Y-65389819D02*
X64983933Y-65342200D01*
X64983933Y-65342200D02*
X65031552Y-65294580D01*
X65031552Y-65294580D02*
X65079171Y-65199342D01*
X65079171Y-65199342D02*
X65079171Y-64913628D01*
X65079171Y-64913628D02*
X65031552Y-64818390D01*
X65031552Y-64818390D02*
X64983933Y-64770771D01*
X64983933Y-64770771D02*
X64888695Y-64723152D01*
X64888695Y-64723152D02*
X64745838Y-64723152D01*
X64745838Y-64723152D02*
X64650600Y-64770771D01*
X64650600Y-64770771D02*
X64602981Y-64818390D01*
X64602981Y-64818390D02*
X64555362Y-64913628D01*
X64555362Y-64913628D02*
X64555362Y-65199342D01*
X64555362Y-65199342D02*
X64602981Y-65294580D01*
X64602981Y-65294580D02*
X64650600Y-65342200D01*
X64650600Y-65342200D02*
X64745838Y-65389819D01*
X64745838Y-65389819D02*
X64888695Y-65389819D01*
X63698219Y-65342200D02*
X63793457Y-65389819D01*
X63793457Y-65389819D02*
X63983933Y-65389819D01*
X63983933Y-65389819D02*
X64079171Y-65342200D01*
X64079171Y-65342200D02*
X64126790Y-65294580D01*
X64126790Y-65294580D02*
X64174409Y-65199342D01*
X64174409Y-65199342D02*
X64174409Y-64913628D01*
X64174409Y-64913628D02*
X64126790Y-64818390D01*
X64126790Y-64818390D02*
X64079171Y-64770771D01*
X64079171Y-64770771D02*
X63983933Y-64723152D01*
X63983933Y-64723152D02*
X63793457Y-64723152D01*
X63793457Y-64723152D02*
X63698219Y-64770771D01*
X63269647Y-65389819D02*
X63269647Y-64723152D01*
X63269647Y-64389819D02*
X63317266Y-64437438D01*
X63317266Y-64437438D02*
X63269647Y-64485057D01*
X63269647Y-64485057D02*
X63222028Y-64437438D01*
X63222028Y-64437438D02*
X63269647Y-64389819D01*
X63269647Y-64389819D02*
X63269647Y-64485057D01*
X62364886Y-65389819D02*
X62364886Y-64866009D01*
X62364886Y-64866009D02*
X62412505Y-64770771D01*
X62412505Y-64770771D02*
X62507743Y-64723152D01*
X62507743Y-64723152D02*
X62698219Y-64723152D01*
X62698219Y-64723152D02*
X62793457Y-64770771D01*
X62364886Y-65342200D02*
X62460124Y-65389819D01*
X62460124Y-65389819D02*
X62698219Y-65389819D01*
X62698219Y-65389819D02*
X62793457Y-65342200D01*
X62793457Y-65342200D02*
X62841076Y-65246961D01*
X62841076Y-65246961D02*
X62841076Y-65151723D01*
X62841076Y-65151723D02*
X62793457Y-65056485D01*
X62793457Y-65056485D02*
X62698219Y-65008866D01*
X62698219Y-65008866D02*
X62460124Y-65008866D01*
X62460124Y-65008866D02*
X62364886Y-64961247D01*
X62031552Y-64723152D02*
X61650600Y-64723152D01*
X61888695Y-64389819D02*
X61888695Y-65246961D01*
X61888695Y-65246961D02*
X61841076Y-65342200D01*
X61841076Y-65342200D02*
X61745838Y-65389819D01*
X61745838Y-65389819D02*
X61650600Y-65389819D01*
X61317266Y-65389819D02*
X61317266Y-64723152D01*
X61317266Y-64389819D02*
X61364885Y-64437438D01*
X61364885Y-64437438D02*
X61317266Y-64485057D01*
X61317266Y-64485057D02*
X61269647Y-64437438D01*
X61269647Y-64437438D02*
X61317266Y-64389819D01*
X61317266Y-64389819D02*
X61317266Y-64485057D01*
X60698219Y-65389819D02*
X60793457Y-65342200D01*
X60793457Y-65342200D02*
X60841076Y-65294580D01*
X60841076Y-65294580D02*
X60888695Y-65199342D01*
X60888695Y-65199342D02*
X60888695Y-64913628D01*
X60888695Y-64913628D02*
X60841076Y-64818390D01*
X60841076Y-64818390D02*
X60793457Y-64770771D01*
X60793457Y-64770771D02*
X60698219Y-64723152D01*
X60698219Y-64723152D02*
X60555362Y-64723152D01*
X60555362Y-64723152D02*
X60460124Y-64770771D01*
X60460124Y-64770771D02*
X60412505Y-64818390D01*
X60412505Y-64818390D02*
X60364886Y-64913628D01*
X60364886Y-64913628D02*
X60364886Y-65199342D01*
X60364886Y-65199342D02*
X60412505Y-65294580D01*
X60412505Y-65294580D02*
X60460124Y-65342200D01*
X60460124Y-65342200D02*
X60555362Y-65389819D01*
X60555362Y-65389819D02*
X60698219Y-65389819D01*
X59936314Y-64723152D02*
X59936314Y-65389819D01*
X59936314Y-64818390D02*
X59888695Y-64770771D01*
X59888695Y-64770771D02*
X59793457Y-64723152D01*
X59793457Y-64723152D02*
X59650600Y-64723152D01*
X59650600Y-64723152D02*
X59555362Y-64770771D01*
X59555362Y-64770771D02*
X59507743Y-64866009D01*
X59507743Y-64866009D02*
X59507743Y-65389819D01*
X58126790Y-65389819D02*
X58222028Y-65342200D01*
X58222028Y-65342200D02*
X58269647Y-65294580D01*
X58269647Y-65294580D02*
X58317266Y-65199342D01*
X58317266Y-65199342D02*
X58317266Y-64913628D01*
X58317266Y-64913628D02*
X58269647Y-64818390D01*
X58269647Y-64818390D02*
X58222028Y-64770771D01*
X58222028Y-64770771D02*
X58126790Y-64723152D01*
X58126790Y-64723152D02*
X57983933Y-64723152D01*
X57983933Y-64723152D02*
X57888695Y-64770771D01*
X57888695Y-64770771D02*
X57841076Y-64818390D01*
X57841076Y-64818390D02*
X57793457Y-64913628D01*
X57793457Y-64913628D02*
X57793457Y-65199342D01*
X57793457Y-65199342D02*
X57841076Y-65294580D01*
X57841076Y-65294580D02*
X57888695Y-65342200D01*
X57888695Y-65342200D02*
X57983933Y-65389819D01*
X57983933Y-65389819D02*
X58126790Y-65389819D01*
X57507742Y-64723152D02*
X57126790Y-64723152D01*
X57364885Y-65389819D02*
X57364885Y-64532676D01*
X57364885Y-64532676D02*
X57317266Y-64437438D01*
X57317266Y-64437438D02*
X57222028Y-64389819D01*
X57222028Y-64389819D02*
X57126790Y-64389819D01*
X55841075Y-64389819D02*
X55650599Y-64389819D01*
X55650599Y-64389819D02*
X55555361Y-64437438D01*
X55555361Y-64437438D02*
X55460123Y-64532676D01*
X55460123Y-64532676D02*
X55412504Y-64723152D01*
X55412504Y-64723152D02*
X55412504Y-65056485D01*
X55412504Y-65056485D02*
X55460123Y-65246961D01*
X55460123Y-65246961D02*
X55555361Y-65342200D01*
X55555361Y-65342200D02*
X55650599Y-65389819D01*
X55650599Y-65389819D02*
X55841075Y-65389819D01*
X55841075Y-65389819D02*
X55936313Y-65342200D01*
X55936313Y-65342200D02*
X56031551Y-65246961D01*
X56031551Y-65246961D02*
X56079170Y-65056485D01*
X56079170Y-65056485D02*
X56079170Y-64723152D01*
X56079170Y-64723152D02*
X56031551Y-64532676D01*
X56031551Y-64532676D02*
X55936313Y-64437438D01*
X55936313Y-64437438D02*
X55841075Y-64389819D01*
X54555361Y-65389819D02*
X54555361Y-64866009D01*
X54555361Y-64866009D02*
X54602980Y-64770771D01*
X54602980Y-64770771D02*
X54698218Y-64723152D01*
X54698218Y-64723152D02*
X54888694Y-64723152D01*
X54888694Y-64723152D02*
X54983932Y-64770771D01*
X54555361Y-65342200D02*
X54650599Y-65389819D01*
X54650599Y-65389819D02*
X54888694Y-65389819D01*
X54888694Y-65389819D02*
X54983932Y-65342200D01*
X54983932Y-65342200D02*
X55031551Y-65246961D01*
X55031551Y-65246961D02*
X55031551Y-65151723D01*
X55031551Y-65151723D02*
X54983932Y-65056485D01*
X54983932Y-65056485D02*
X54888694Y-65008866D01*
X54888694Y-65008866D02*
X54650599Y-65008866D01*
X54650599Y-65008866D02*
X54555361Y-64961247D01*
X54079170Y-65389819D02*
X54079170Y-64389819D01*
X53983932Y-65008866D02*
X53698218Y-65389819D01*
X53698218Y-64723152D02*
X54079170Y-65104104D01*
X53126789Y-65389819D02*
X53222027Y-65342200D01*
X53222027Y-65342200D02*
X53269646Y-65246961D01*
X53269646Y-65246961D02*
X53269646Y-64389819D01*
X52317265Y-65389819D02*
X52317265Y-64866009D01*
X52317265Y-64866009D02*
X52364884Y-64770771D01*
X52364884Y-64770771D02*
X52460122Y-64723152D01*
X52460122Y-64723152D02*
X52650598Y-64723152D01*
X52650598Y-64723152D02*
X52745836Y-64770771D01*
X52317265Y-65342200D02*
X52412503Y-65389819D01*
X52412503Y-65389819D02*
X52650598Y-65389819D01*
X52650598Y-65389819D02*
X52745836Y-65342200D01*
X52745836Y-65342200D02*
X52793455Y-65246961D01*
X52793455Y-65246961D02*
X52793455Y-65151723D01*
X52793455Y-65151723D02*
X52745836Y-65056485D01*
X52745836Y-65056485D02*
X52650598Y-65008866D01*
X52650598Y-65008866D02*
X52412503Y-65008866D01*
X52412503Y-65008866D02*
X52317265Y-64961247D01*
X51841074Y-64723152D02*
X51841074Y-65389819D01*
X51841074Y-64818390D02*
X51793455Y-64770771D01*
X51793455Y-64770771D02*
X51698217Y-64723152D01*
X51698217Y-64723152D02*
X51555360Y-64723152D01*
X51555360Y-64723152D02*
X51460122Y-64770771D01*
X51460122Y-64770771D02*
X51412503Y-64866009D01*
X51412503Y-64866009D02*
X51412503Y-65389819D01*
X50507741Y-65389819D02*
X50507741Y-64389819D01*
X50507741Y-65342200D02*
X50602979Y-65389819D01*
X50602979Y-65389819D02*
X50793455Y-65389819D01*
X50793455Y-65389819D02*
X50888693Y-65342200D01*
X50888693Y-65342200D02*
X50936312Y-65294580D01*
X50936312Y-65294580D02*
X50983931Y-65199342D01*
X50983931Y-65199342D02*
X50983931Y-64913628D01*
X50983931Y-64913628D02*
X50936312Y-64818390D01*
X50936312Y-64818390D02*
X50888693Y-64770771D01*
X50888693Y-64770771D02*
X50793455Y-64723152D01*
X50793455Y-64723152D02*
X50602979Y-64723152D01*
X50602979Y-64723152D02*
X50507741Y-64770771D01*
X49269645Y-64389819D02*
X49269645Y-65199342D01*
X49269645Y-65199342D02*
X49222026Y-65294580D01*
X49222026Y-65294580D02*
X49174407Y-65342200D01*
X49174407Y-65342200D02*
X49079169Y-65389819D01*
X49079169Y-65389819D02*
X48888693Y-65389819D01*
X48888693Y-65389819D02*
X48793455Y-65342200D01*
X48793455Y-65342200D02*
X48745836Y-65294580D01*
X48745836Y-65294580D02*
X48698217Y-65199342D01*
X48698217Y-65199342D02*
X48698217Y-64389819D01*
X48222026Y-64723152D02*
X48222026Y-65389819D01*
X48222026Y-64818390D02*
X48174407Y-64770771D01*
X48174407Y-64770771D02*
X48079169Y-64723152D01*
X48079169Y-64723152D02*
X47936312Y-64723152D01*
X47936312Y-64723152D02*
X47841074Y-64770771D01*
X47841074Y-64770771D02*
X47793455Y-64866009D01*
X47793455Y-64866009D02*
X47793455Y-65389819D01*
X47317264Y-65389819D02*
X47317264Y-64723152D01*
X47317264Y-64389819D02*
X47364883Y-64437438D01*
X47364883Y-64437438D02*
X47317264Y-64485057D01*
X47317264Y-64485057D02*
X47269645Y-64437438D01*
X47269645Y-64437438D02*
X47317264Y-64389819D01*
X47317264Y-64389819D02*
X47317264Y-64485057D01*
X46936312Y-64723152D02*
X46698217Y-65389819D01*
X46698217Y-65389819D02*
X46460122Y-64723152D01*
X45698217Y-65342200D02*
X45793455Y-65389819D01*
X45793455Y-65389819D02*
X45983931Y-65389819D01*
X45983931Y-65389819D02*
X46079169Y-65342200D01*
X46079169Y-65342200D02*
X46126788Y-65246961D01*
X46126788Y-65246961D02*
X46126788Y-64866009D01*
X46126788Y-64866009D02*
X46079169Y-64770771D01*
X46079169Y-64770771D02*
X45983931Y-64723152D01*
X45983931Y-64723152D02*
X45793455Y-64723152D01*
X45793455Y-64723152D02*
X45698217Y-64770771D01*
X45698217Y-64770771D02*
X45650598Y-64866009D01*
X45650598Y-64866009D02*
X45650598Y-64961247D01*
X45650598Y-64961247D02*
X46126788Y-65056485D01*
X45222026Y-65389819D02*
X45222026Y-64723152D01*
X45222026Y-64913628D02*
X45174407Y-64818390D01*
X45174407Y-64818390D02*
X45126788Y-64770771D01*
X45126788Y-64770771D02*
X45031550Y-64723152D01*
X45031550Y-64723152D02*
X44936312Y-64723152D01*
X44650597Y-65342200D02*
X44555359Y-65389819D01*
X44555359Y-65389819D02*
X44364883Y-65389819D01*
X44364883Y-65389819D02*
X44269645Y-65342200D01*
X44269645Y-65342200D02*
X44222026Y-65246961D01*
X44222026Y-65246961D02*
X44222026Y-65199342D01*
X44222026Y-65199342D02*
X44269645Y-65104104D01*
X44269645Y-65104104D02*
X44364883Y-65056485D01*
X44364883Y-65056485D02*
X44507740Y-65056485D01*
X44507740Y-65056485D02*
X44602978Y-65008866D01*
X44602978Y-65008866D02*
X44650597Y-64913628D01*
X44650597Y-64913628D02*
X44650597Y-64866009D01*
X44650597Y-64866009D02*
X44602978Y-64770771D01*
X44602978Y-64770771D02*
X44507740Y-64723152D01*
X44507740Y-64723152D02*
X44364883Y-64723152D01*
X44364883Y-64723152D02*
X44269645Y-64770771D01*
X43793454Y-65389819D02*
X43793454Y-64723152D01*
X43793454Y-64389819D02*
X43841073Y-64437438D01*
X43841073Y-64437438D02*
X43793454Y-64485057D01*
X43793454Y-64485057D02*
X43745835Y-64437438D01*
X43745835Y-64437438D02*
X43793454Y-64389819D01*
X43793454Y-64389819D02*
X43793454Y-64485057D01*
X43460121Y-64723152D02*
X43079169Y-64723152D01*
X43317264Y-64389819D02*
X43317264Y-65246961D01*
X43317264Y-65246961D02*
X43269645Y-65342200D01*
X43269645Y-65342200D02*
X43174407Y-65389819D01*
X43174407Y-65389819D02*
X43079169Y-65389819D01*
X42841073Y-64723152D02*
X42602978Y-65389819D01*
X42364883Y-64723152D02*
X42602978Y-65389819D01*
X42602978Y-65389819D02*
X42698216Y-65627914D01*
X42698216Y-65627914D02*
X42745835Y-65675533D01*
X42745835Y-65675533D02*
X42841073Y-65723152D01*
D11*
X91440828Y-38304510D02*
X89940828Y-38304510D01*
X90655114Y-38304510D02*
X90655114Y-39161653D01*
X91440828Y-39161653D02*
X89940828Y-39161653D01*
X91470828Y-47608796D02*
X91470828Y-46894510D01*
X91470828Y-46894510D02*
X89970828Y-46894510D01*
X91470828Y-52394510D02*
X89970828Y-52394510D01*
X90685114Y-52394510D02*
X90685114Y-53251653D01*
X91470828Y-53251653D02*
X89970828Y-53251653D01*
X91440828Y-33518796D02*
X91440828Y-32804510D01*
X91440828Y-32804510D02*
X89940828Y-32804510D01*
D10*
X57367618Y-71084819D02*
X57367618Y-70084819D01*
X57367618Y-70084819D02*
X57129523Y-70084819D01*
X57129523Y-70084819D02*
X56986666Y-70132438D01*
X56986666Y-70132438D02*
X56891428Y-70227676D01*
X56891428Y-70227676D02*
X56843809Y-70322914D01*
X56843809Y-70322914D02*
X56796190Y-70513390D01*
X56796190Y-70513390D02*
X56796190Y-70656247D01*
X56796190Y-70656247D02*
X56843809Y-70846723D01*
X56843809Y-70846723D02*
X56891428Y-70941961D01*
X56891428Y-70941961D02*
X56986666Y-71037200D01*
X56986666Y-71037200D02*
X57129523Y-71084819D01*
X57129523Y-71084819D02*
X57367618Y-71084819D01*
X56367618Y-71084819D02*
X56367618Y-70418152D01*
X56367618Y-70084819D02*
X56415237Y-70132438D01*
X56415237Y-70132438D02*
X56367618Y-70180057D01*
X56367618Y-70180057D02*
X56319999Y-70132438D01*
X56319999Y-70132438D02*
X56367618Y-70084819D01*
X56367618Y-70084819D02*
X56367618Y-70180057D01*
X55462857Y-70418152D02*
X55462857Y-71227676D01*
X55462857Y-71227676D02*
X55510476Y-71322914D01*
X55510476Y-71322914D02*
X55558095Y-71370533D01*
X55558095Y-71370533D02*
X55653333Y-71418152D01*
X55653333Y-71418152D02*
X55796190Y-71418152D01*
X55796190Y-71418152D02*
X55891428Y-71370533D01*
X55462857Y-71037200D02*
X55558095Y-71084819D01*
X55558095Y-71084819D02*
X55748571Y-71084819D01*
X55748571Y-71084819D02*
X55843809Y-71037200D01*
X55843809Y-71037200D02*
X55891428Y-70989580D01*
X55891428Y-70989580D02*
X55939047Y-70894342D01*
X55939047Y-70894342D02*
X55939047Y-70608628D01*
X55939047Y-70608628D02*
X55891428Y-70513390D01*
X55891428Y-70513390D02*
X55843809Y-70465771D01*
X55843809Y-70465771D02*
X55748571Y-70418152D01*
X55748571Y-70418152D02*
X55558095Y-70418152D01*
X55558095Y-70418152D02*
X55462857Y-70465771D01*
X54986666Y-71084819D02*
X54986666Y-70418152D01*
X54986666Y-70084819D02*
X55034285Y-70132438D01*
X55034285Y-70132438D02*
X54986666Y-70180057D01*
X54986666Y-70180057D02*
X54939047Y-70132438D01*
X54939047Y-70132438D02*
X54986666Y-70084819D01*
X54986666Y-70084819D02*
X54986666Y-70180057D01*
X54653333Y-70418152D02*
X54272381Y-70418152D01*
X54510476Y-70084819D02*
X54510476Y-70941961D01*
X54510476Y-70941961D02*
X54462857Y-71037200D01*
X54462857Y-71037200D02*
X54367619Y-71084819D01*
X54367619Y-71084819D02*
X54272381Y-71084819D01*
X53510476Y-71084819D02*
X53510476Y-70561009D01*
X53510476Y-70561009D02*
X53558095Y-70465771D01*
X53558095Y-70465771D02*
X53653333Y-70418152D01*
X53653333Y-70418152D02*
X53843809Y-70418152D01*
X53843809Y-70418152D02*
X53939047Y-70465771D01*
X53510476Y-71037200D02*
X53605714Y-71084819D01*
X53605714Y-71084819D02*
X53843809Y-71084819D01*
X53843809Y-71084819D02*
X53939047Y-71037200D01*
X53939047Y-71037200D02*
X53986666Y-70941961D01*
X53986666Y-70941961D02*
X53986666Y-70846723D01*
X53986666Y-70846723D02*
X53939047Y-70751485D01*
X53939047Y-70751485D02*
X53843809Y-70703866D01*
X53843809Y-70703866D02*
X53605714Y-70703866D01*
X53605714Y-70703866D02*
X53510476Y-70656247D01*
X52891428Y-71084819D02*
X52986666Y-71037200D01*
X52986666Y-71037200D02*
X53034285Y-70941961D01*
X53034285Y-70941961D02*
X53034285Y-70084819D01*
X52748571Y-71180057D02*
X51986666Y-71180057D01*
X51224761Y-71084819D02*
X51796189Y-71084819D01*
X51510475Y-71084819D02*
X51510475Y-70084819D01*
X51510475Y-70084819D02*
X51605713Y-70227676D01*
X51605713Y-70227676D02*
X51700951Y-70322914D01*
X51700951Y-70322914D02*
X51796189Y-70370533D01*
X49303333Y-25854819D02*
X49303333Y-24854819D01*
X49303333Y-24854819D02*
X48922381Y-24854819D01*
X48922381Y-24854819D02*
X48827143Y-24902438D01*
X48827143Y-24902438D02*
X48779524Y-24950057D01*
X48779524Y-24950057D02*
X48731905Y-25045295D01*
X48731905Y-25045295D02*
X48731905Y-25188152D01*
X48731905Y-25188152D02*
X48779524Y-25283390D01*
X48779524Y-25283390D02*
X48827143Y-25331009D01*
X48827143Y-25331009D02*
X48922381Y-25378628D01*
X48922381Y-25378628D02*
X49303333Y-25378628D01*
X48160476Y-25854819D02*
X48255714Y-25807200D01*
X48255714Y-25807200D02*
X48303333Y-25759580D01*
X48303333Y-25759580D02*
X48350952Y-25664342D01*
X48350952Y-25664342D02*
X48350952Y-25378628D01*
X48350952Y-25378628D02*
X48303333Y-25283390D01*
X48303333Y-25283390D02*
X48255714Y-25235771D01*
X48255714Y-25235771D02*
X48160476Y-25188152D01*
X48160476Y-25188152D02*
X48017619Y-25188152D01*
X48017619Y-25188152D02*
X47922381Y-25235771D01*
X47922381Y-25235771D02*
X47874762Y-25283390D01*
X47874762Y-25283390D02*
X47827143Y-25378628D01*
X47827143Y-25378628D02*
X47827143Y-25664342D01*
X47827143Y-25664342D02*
X47874762Y-25759580D01*
X47874762Y-25759580D02*
X47922381Y-25807200D01*
X47922381Y-25807200D02*
X48017619Y-25854819D01*
X48017619Y-25854819D02*
X48160476Y-25854819D01*
X47493809Y-25188152D02*
X47303333Y-25854819D01*
X47303333Y-25854819D02*
X47112857Y-25378628D01*
X47112857Y-25378628D02*
X46922381Y-25854819D01*
X46922381Y-25854819D02*
X46731905Y-25188152D01*
X45970000Y-25807200D02*
X46065238Y-25854819D01*
X46065238Y-25854819D02*
X46255714Y-25854819D01*
X46255714Y-25854819D02*
X46350952Y-25807200D01*
X46350952Y-25807200D02*
X46398571Y-25711961D01*
X46398571Y-25711961D02*
X46398571Y-25331009D01*
X46398571Y-25331009D02*
X46350952Y-25235771D01*
X46350952Y-25235771D02*
X46255714Y-25188152D01*
X46255714Y-25188152D02*
X46065238Y-25188152D01*
X46065238Y-25188152D02*
X45970000Y-25235771D01*
X45970000Y-25235771D02*
X45922381Y-25331009D01*
X45922381Y-25331009D02*
X45922381Y-25426247D01*
X45922381Y-25426247D02*
X46398571Y-25521485D01*
X45493809Y-25854819D02*
X45493809Y-25188152D01*
X45493809Y-25378628D02*
X45446190Y-25283390D01*
X45446190Y-25283390D02*
X45398571Y-25235771D01*
X45398571Y-25235771D02*
X45303333Y-25188152D01*
X45303333Y-25188152D02*
X45208095Y-25188152D01*
X45112857Y-25950057D02*
X44350952Y-25950057D01*
X43589047Y-25854819D02*
X44160475Y-25854819D01*
X43874761Y-25854819D02*
X43874761Y-24854819D01*
X43874761Y-24854819D02*
X43969999Y-24997676D01*
X43969999Y-24997676D02*
X44065237Y-25092914D01*
X44065237Y-25092914D02*
X44160475Y-25140533D01*
X83756666Y-28349104D02*
X83280476Y-28349104D01*
X83851904Y-28634819D02*
X83518571Y-27634819D01*
X83518571Y-27634819D02*
X83185238Y-28634819D01*
X82851904Y-27968152D02*
X82851904Y-28634819D01*
X82851904Y-28063390D02*
X82804285Y-28015771D01*
X82804285Y-28015771D02*
X82709047Y-27968152D01*
X82709047Y-27968152D02*
X82566190Y-27968152D01*
X82566190Y-27968152D02*
X82470952Y-28015771D01*
X82470952Y-28015771D02*
X82423333Y-28111009D01*
X82423333Y-28111009D02*
X82423333Y-28634819D01*
X81518571Y-28634819D02*
X81518571Y-28111009D01*
X81518571Y-28111009D02*
X81566190Y-28015771D01*
X81566190Y-28015771D02*
X81661428Y-27968152D01*
X81661428Y-27968152D02*
X81851904Y-27968152D01*
X81851904Y-27968152D02*
X81947142Y-28015771D01*
X81518571Y-28587200D02*
X81613809Y-28634819D01*
X81613809Y-28634819D02*
X81851904Y-28634819D01*
X81851904Y-28634819D02*
X81947142Y-28587200D01*
X81947142Y-28587200D02*
X81994761Y-28491961D01*
X81994761Y-28491961D02*
X81994761Y-28396723D01*
X81994761Y-28396723D02*
X81947142Y-28301485D01*
X81947142Y-28301485D02*
X81851904Y-28253866D01*
X81851904Y-28253866D02*
X81613809Y-28253866D01*
X81613809Y-28253866D02*
X81518571Y-28206247D01*
X80899523Y-28634819D02*
X80994761Y-28587200D01*
X80994761Y-28587200D02*
X81042380Y-28491961D01*
X81042380Y-28491961D02*
X81042380Y-27634819D01*
X80375713Y-28634819D02*
X80470951Y-28587200D01*
X80470951Y-28587200D02*
X80518570Y-28539580D01*
X80518570Y-28539580D02*
X80566189Y-28444342D01*
X80566189Y-28444342D02*
X80566189Y-28158628D01*
X80566189Y-28158628D02*
X80518570Y-28063390D01*
X80518570Y-28063390D02*
X80470951Y-28015771D01*
X80470951Y-28015771D02*
X80375713Y-27968152D01*
X80375713Y-27968152D02*
X80232856Y-27968152D01*
X80232856Y-27968152D02*
X80137618Y-28015771D01*
X80137618Y-28015771D02*
X80089999Y-28063390D01*
X80089999Y-28063390D02*
X80042380Y-28158628D01*
X80042380Y-28158628D02*
X80042380Y-28444342D01*
X80042380Y-28444342D02*
X80089999Y-28539580D01*
X80089999Y-28539580D02*
X80137618Y-28587200D01*
X80137618Y-28587200D02*
X80232856Y-28634819D01*
X80232856Y-28634819D02*
X80375713Y-28634819D01*
X79185237Y-27968152D02*
X79185237Y-28777676D01*
X79185237Y-28777676D02*
X79232856Y-28872914D01*
X79232856Y-28872914D02*
X79280475Y-28920533D01*
X79280475Y-28920533D02*
X79375713Y-28968152D01*
X79375713Y-28968152D02*
X79518570Y-28968152D01*
X79518570Y-28968152D02*
X79613808Y-28920533D01*
X79185237Y-28587200D02*
X79280475Y-28634819D01*
X79280475Y-28634819D02*
X79470951Y-28634819D01*
X79470951Y-28634819D02*
X79566189Y-28587200D01*
X79566189Y-28587200D02*
X79613808Y-28539580D01*
X79613808Y-28539580D02*
X79661427Y-28444342D01*
X79661427Y-28444342D02*
X79661427Y-28158628D01*
X79661427Y-28158628D02*
X79613808Y-28063390D01*
X79613808Y-28063390D02*
X79566189Y-28015771D01*
X79566189Y-28015771D02*
X79470951Y-27968152D01*
X79470951Y-27968152D02*
X79280475Y-27968152D01*
X79280475Y-27968152D02*
X79185237Y-28015771D01*
X78947142Y-28730057D02*
X78185237Y-28730057D01*
X77423332Y-28634819D02*
X77994760Y-28634819D01*
X77709046Y-28634819D02*
X77709046Y-27634819D01*
X77709046Y-27634819D02*
X77804284Y-27777676D01*
X77804284Y-27777676D02*
X77899522Y-27872914D01*
X77899522Y-27872914D02*
X77994760Y-27920533D01*
X81907618Y-70954819D02*
X81907618Y-69954819D01*
X81907618Y-69954819D02*
X81669523Y-69954819D01*
X81669523Y-69954819D02*
X81526666Y-70002438D01*
X81526666Y-70002438D02*
X81431428Y-70097676D01*
X81431428Y-70097676D02*
X81383809Y-70192914D01*
X81383809Y-70192914D02*
X81336190Y-70383390D01*
X81336190Y-70383390D02*
X81336190Y-70526247D01*
X81336190Y-70526247D02*
X81383809Y-70716723D01*
X81383809Y-70716723D02*
X81431428Y-70811961D01*
X81431428Y-70811961D02*
X81526666Y-70907200D01*
X81526666Y-70907200D02*
X81669523Y-70954819D01*
X81669523Y-70954819D02*
X81907618Y-70954819D01*
X80907618Y-70954819D02*
X80907618Y-70288152D01*
X80907618Y-69954819D02*
X80955237Y-70002438D01*
X80955237Y-70002438D02*
X80907618Y-70050057D01*
X80907618Y-70050057D02*
X80859999Y-70002438D01*
X80859999Y-70002438D02*
X80907618Y-69954819D01*
X80907618Y-69954819D02*
X80907618Y-70050057D01*
X80002857Y-70288152D02*
X80002857Y-71097676D01*
X80002857Y-71097676D02*
X80050476Y-71192914D01*
X80050476Y-71192914D02*
X80098095Y-71240533D01*
X80098095Y-71240533D02*
X80193333Y-71288152D01*
X80193333Y-71288152D02*
X80336190Y-71288152D01*
X80336190Y-71288152D02*
X80431428Y-71240533D01*
X80002857Y-70907200D02*
X80098095Y-70954819D01*
X80098095Y-70954819D02*
X80288571Y-70954819D01*
X80288571Y-70954819D02*
X80383809Y-70907200D01*
X80383809Y-70907200D02*
X80431428Y-70859580D01*
X80431428Y-70859580D02*
X80479047Y-70764342D01*
X80479047Y-70764342D02*
X80479047Y-70478628D01*
X80479047Y-70478628D02*
X80431428Y-70383390D01*
X80431428Y-70383390D02*
X80383809Y-70335771D01*
X80383809Y-70335771D02*
X80288571Y-70288152D01*
X80288571Y-70288152D02*
X80098095Y-70288152D01*
X80098095Y-70288152D02*
X80002857Y-70335771D01*
X79526666Y-70954819D02*
X79526666Y-70288152D01*
X79526666Y-69954819D02*
X79574285Y-70002438D01*
X79574285Y-70002438D02*
X79526666Y-70050057D01*
X79526666Y-70050057D02*
X79479047Y-70002438D01*
X79479047Y-70002438D02*
X79526666Y-69954819D01*
X79526666Y-69954819D02*
X79526666Y-70050057D01*
X79193333Y-70288152D02*
X78812381Y-70288152D01*
X79050476Y-69954819D02*
X79050476Y-70811961D01*
X79050476Y-70811961D02*
X79002857Y-70907200D01*
X79002857Y-70907200D02*
X78907619Y-70954819D01*
X78907619Y-70954819D02*
X78812381Y-70954819D01*
X78050476Y-70954819D02*
X78050476Y-70431009D01*
X78050476Y-70431009D02*
X78098095Y-70335771D01*
X78098095Y-70335771D02*
X78193333Y-70288152D01*
X78193333Y-70288152D02*
X78383809Y-70288152D01*
X78383809Y-70288152D02*
X78479047Y-70335771D01*
X78050476Y-70907200D02*
X78145714Y-70954819D01*
X78145714Y-70954819D02*
X78383809Y-70954819D01*
X78383809Y-70954819D02*
X78479047Y-70907200D01*
X78479047Y-70907200D02*
X78526666Y-70811961D01*
X78526666Y-70811961D02*
X78526666Y-70716723D01*
X78526666Y-70716723D02*
X78479047Y-70621485D01*
X78479047Y-70621485D02*
X78383809Y-70573866D01*
X78383809Y-70573866D02*
X78145714Y-70573866D01*
X78145714Y-70573866D02*
X78050476Y-70526247D01*
X77431428Y-70954819D02*
X77526666Y-70907200D01*
X77526666Y-70907200D02*
X77574285Y-70811961D01*
X77574285Y-70811961D02*
X77574285Y-69954819D01*
X77288571Y-71050057D02*
X76526666Y-71050057D01*
X76336189Y-70050057D02*
X76288570Y-70002438D01*
X76288570Y-70002438D02*
X76193332Y-69954819D01*
X76193332Y-69954819D02*
X75955237Y-69954819D01*
X75955237Y-69954819D02*
X75859999Y-70002438D01*
X75859999Y-70002438D02*
X75812380Y-70050057D01*
X75812380Y-70050057D02*
X75764761Y-70145295D01*
X75764761Y-70145295D02*
X75764761Y-70240533D01*
X75764761Y-70240533D02*
X75812380Y-70383390D01*
X75812380Y-70383390D02*
X76383808Y-70954819D01*
X76383808Y-70954819D02*
X75764761Y-70954819D01*
X31351904Y-55314819D02*
X31351904Y-56124342D01*
X31351904Y-56124342D02*
X31304285Y-56219580D01*
X31304285Y-56219580D02*
X31256666Y-56267200D01*
X31256666Y-56267200D02*
X31161428Y-56314819D01*
X31161428Y-56314819D02*
X30970952Y-56314819D01*
X30970952Y-56314819D02*
X30875714Y-56267200D01*
X30875714Y-56267200D02*
X30828095Y-56219580D01*
X30828095Y-56219580D02*
X30780476Y-56124342D01*
X30780476Y-56124342D02*
X30780476Y-55314819D01*
X30351904Y-55410057D02*
X30304285Y-55362438D01*
X30304285Y-55362438D02*
X30209047Y-55314819D01*
X30209047Y-55314819D02*
X29970952Y-55314819D01*
X29970952Y-55314819D02*
X29875714Y-55362438D01*
X29875714Y-55362438D02*
X29828095Y-55410057D01*
X29828095Y-55410057D02*
X29780476Y-55505295D01*
X29780476Y-55505295D02*
X29780476Y-55600533D01*
X29780476Y-55600533D02*
X29828095Y-55743390D01*
X29828095Y-55743390D02*
X30399523Y-56314819D01*
X30399523Y-56314819D02*
X29780476Y-56314819D01*
X54125237Y-50961009D02*
X53791904Y-50961009D01*
X53649047Y-51484819D02*
X54125237Y-51484819D01*
X54125237Y-51484819D02*
X54125237Y-50484819D01*
X54125237Y-50484819D02*
X53649047Y-50484819D01*
X53220475Y-51484819D02*
X53220475Y-50484819D01*
X53220475Y-50484819D02*
X52649047Y-51484819D01*
X52649047Y-51484819D02*
X52649047Y-50484819D01*
X52410952Y-51580057D02*
X51649047Y-51580057D01*
X50887142Y-51484819D02*
X51458570Y-51484819D01*
X51172856Y-51484819D02*
X51172856Y-50484819D01*
X51172856Y-50484819D02*
X51268094Y-50627676D01*
X51268094Y-50627676D02*
X51363332Y-50722914D01*
X51363332Y-50722914D02*
X51458570Y-50770533D01*
X77184819Y-49586666D02*
X77899104Y-49586666D01*
X77899104Y-49586666D02*
X78041961Y-49539047D01*
X78041961Y-49539047D02*
X78137200Y-49443809D01*
X78137200Y-49443809D02*
X78184819Y-49300952D01*
X78184819Y-49300952D02*
X78184819Y-49205714D01*
X78184819Y-50586666D02*
X78184819Y-50015238D01*
X78184819Y-50300952D02*
X77184819Y-50300952D01*
X77184819Y-50300952D02*
X77327676Y-50205714D01*
X77327676Y-50205714D02*
X77422914Y-50110476D01*
X77422914Y-50110476D02*
X77470533Y-50015238D01*
X77134819Y-35276666D02*
X77849104Y-35276666D01*
X77849104Y-35276666D02*
X77991961Y-35229047D01*
X77991961Y-35229047D02*
X78087200Y-35133809D01*
X78087200Y-35133809D02*
X78134819Y-34990952D01*
X78134819Y-34990952D02*
X78134819Y-34895714D01*
X77230057Y-35705238D02*
X77182438Y-35752857D01*
X77182438Y-35752857D02*
X77134819Y-35848095D01*
X77134819Y-35848095D02*
X77134819Y-36086190D01*
X77134819Y-36086190D02*
X77182438Y-36181428D01*
X77182438Y-36181428D02*
X77230057Y-36229047D01*
X77230057Y-36229047D02*
X77325295Y-36276666D01*
X77325295Y-36276666D02*
X77420533Y-36276666D01*
X77420533Y-36276666D02*
X77563390Y-36229047D01*
X77563390Y-36229047D02*
X78134819Y-35657619D01*
X78134819Y-35657619D02*
X78134819Y-36276666D01*
X52069285Y-32071009D02*
X51926428Y-32118628D01*
X51926428Y-32118628D02*
X51878809Y-32166247D01*
X51878809Y-32166247D02*
X51831190Y-32261485D01*
X51831190Y-32261485D02*
X51831190Y-32404342D01*
X51831190Y-32404342D02*
X51878809Y-32499580D01*
X51878809Y-32499580D02*
X51926428Y-32547200D01*
X51926428Y-32547200D02*
X52021666Y-32594819D01*
X52021666Y-32594819D02*
X52402618Y-32594819D01*
X52402618Y-32594819D02*
X52402618Y-31594819D01*
X52402618Y-31594819D02*
X52069285Y-31594819D01*
X52069285Y-31594819D02*
X51974047Y-31642438D01*
X51974047Y-31642438D02*
X51926428Y-31690057D01*
X51926428Y-31690057D02*
X51878809Y-31785295D01*
X51878809Y-31785295D02*
X51878809Y-31880533D01*
X51878809Y-31880533D02*
X51926428Y-31975771D01*
X51926428Y-31975771D02*
X51974047Y-32023390D01*
X51974047Y-32023390D02*
X52069285Y-32071009D01*
X52069285Y-32071009D02*
X52402618Y-32071009D01*
X51212142Y-31594819D02*
X51021666Y-31594819D01*
X51021666Y-31594819D02*
X50926428Y-31642438D01*
X50926428Y-31642438D02*
X50831190Y-31737676D01*
X50831190Y-31737676D02*
X50783571Y-31928152D01*
X50783571Y-31928152D02*
X50783571Y-32261485D01*
X50783571Y-32261485D02*
X50831190Y-32451961D01*
X50831190Y-32451961D02*
X50926428Y-32547200D01*
X50926428Y-32547200D02*
X51021666Y-32594819D01*
X51021666Y-32594819D02*
X51212142Y-32594819D01*
X51212142Y-32594819D02*
X51307380Y-32547200D01*
X51307380Y-32547200D02*
X51402618Y-32451961D01*
X51402618Y-32451961D02*
X51450237Y-32261485D01*
X51450237Y-32261485D02*
X51450237Y-31928152D01*
X51450237Y-31928152D02*
X51402618Y-31737676D01*
X51402618Y-31737676D02*
X51307380Y-31642438D01*
X51307380Y-31642438D02*
X51212142Y-31594819D01*
X50164523Y-31594819D02*
X49974047Y-31594819D01*
X49974047Y-31594819D02*
X49878809Y-31642438D01*
X49878809Y-31642438D02*
X49783571Y-31737676D01*
X49783571Y-31737676D02*
X49735952Y-31928152D01*
X49735952Y-31928152D02*
X49735952Y-32261485D01*
X49735952Y-32261485D02*
X49783571Y-32451961D01*
X49783571Y-32451961D02*
X49878809Y-32547200D01*
X49878809Y-32547200D02*
X49974047Y-32594819D01*
X49974047Y-32594819D02*
X50164523Y-32594819D01*
X50164523Y-32594819D02*
X50259761Y-32547200D01*
X50259761Y-32547200D02*
X50354999Y-32451961D01*
X50354999Y-32451961D02*
X50402618Y-32261485D01*
X50402618Y-32261485D02*
X50402618Y-31928152D01*
X50402618Y-31928152D02*
X50354999Y-31737676D01*
X50354999Y-31737676D02*
X50259761Y-31642438D01*
X50259761Y-31642438D02*
X50164523Y-31594819D01*
X49450237Y-31594819D02*
X48878809Y-31594819D01*
X49164523Y-32594819D02*
X49164523Y-31594819D01*
X48783571Y-32690057D02*
X48021666Y-32690057D01*
X47259761Y-32594819D02*
X47831189Y-32594819D01*
X47545475Y-32594819D02*
X47545475Y-31594819D01*
X47545475Y-31594819D02*
X47640713Y-31737676D01*
X47640713Y-31737676D02*
X47735951Y-31832914D01*
X47735951Y-31832914D02*
X47831189Y-31880533D01*
X31368628Y-36953809D02*
X31844819Y-36953809D01*
X30844819Y-36620476D02*
X31368628Y-36953809D01*
X31368628Y-36953809D02*
X30844819Y-37287142D01*
X31844819Y-38144285D02*
X31844819Y-37572857D01*
X31844819Y-37858571D02*
X30844819Y-37858571D01*
X30844819Y-37858571D02*
X30987676Y-37763333D01*
X30987676Y-37763333D02*
X31082914Y-37668095D01*
X31082914Y-37668095D02*
X31130533Y-37572857D01*
D12*
%TO.C,U2*%
X29465000Y-56925000D02*
X33325000Y-56925000D01*
X29465000Y-57170000D02*
X29465000Y-56925000D01*
X29465000Y-68450000D02*
X29465000Y-68695000D01*
X29465000Y-68695000D02*
X33325000Y-68695000D01*
X37185000Y-56925000D02*
X33325000Y-56925000D01*
X37185000Y-57170000D02*
X37185000Y-56925000D01*
X37185000Y-68450000D02*
X37185000Y-68695000D01*
X37185000Y-68695000D02*
X33325000Y-68695000D01*
X38037500Y-57170000D02*
X37697500Y-56700000D01*
X38377500Y-56700000D01*
X38037500Y-57170000D01*
G36*
X38037500Y-57170000D02*
G01*
X37697500Y-56700000D01*
X38377500Y-56700000D01*
X38037500Y-57170000D01*
G37*
D13*
%TO.C,G\u002A\u002A\u002A*%
G36*
X84572975Y-60216768D02*
G01*
X84618875Y-60234102D01*
X84687550Y-60266799D01*
X84751775Y-60305921D01*
X84811195Y-60351153D01*
X84865454Y-60402185D01*
X84914196Y-60458701D01*
X84957065Y-60520390D01*
X84993706Y-60586938D01*
X85003755Y-60608895D01*
X85015371Y-60637343D01*
X85026271Y-60667161D01*
X85036204Y-60697372D01*
X85044921Y-60726998D01*
X85052172Y-60755059D01*
X85057708Y-60780580D01*
X85061279Y-60802580D01*
X85062635Y-60820082D01*
X85061526Y-60832109D01*
X85057704Y-60837681D01*
X85056834Y-60838117D01*
X85050078Y-60842022D01*
X85037548Y-60849523D01*
X85019998Y-60860160D01*
X84998182Y-60873474D01*
X84972854Y-60889005D01*
X84944770Y-60906293D01*
X84914682Y-60924879D01*
X84911786Y-60926670D01*
X84859681Y-60958903D01*
X84813998Y-60987149D01*
X84774382Y-61011626D01*
X84740476Y-61032554D01*
X84711922Y-61050153D01*
X84688363Y-61064643D01*
X84669444Y-61076243D01*
X84654806Y-61085172D01*
X84644093Y-61091650D01*
X84636948Y-61095897D01*
X84633014Y-61098131D01*
X84632085Y-61098543D01*
X84623101Y-61100385D01*
X84609210Y-61101472D01*
X84593008Y-61101579D01*
X84590058Y-61101505D01*
X84577540Y-61101241D01*
X84558092Y-61100869D01*
X84532474Y-61100402D01*
X84501445Y-61099854D01*
X84465765Y-61099237D01*
X84426192Y-61098565D01*
X84383487Y-61097851D01*
X84338410Y-61097108D01*
X84291718Y-61096350D01*
X84022294Y-61092004D01*
X83849222Y-61004087D01*
X83676150Y-60916170D01*
X83640735Y-60871294D01*
X83637822Y-60867604D01*
X83623766Y-60849820D01*
X83610557Y-60833142D01*
X83599564Y-60819295D01*
X83592155Y-60810006D01*
X83578991Y-60793594D01*
X83637999Y-60778501D01*
X83656956Y-60773423D01*
X83681373Y-60766455D01*
X83707937Y-60758538D01*
X83735006Y-60750187D01*
X83760938Y-60741918D01*
X83784089Y-60734248D01*
X83802817Y-60727691D01*
X83815480Y-60722765D01*
X83817709Y-60722224D01*
X83820048Y-60723979D01*
X83821664Y-60729865D01*
X83822858Y-60741172D01*
X83823928Y-60759189D01*
X83824935Y-60772486D01*
X83832915Y-60814061D01*
X83848240Y-60852729D01*
X83871169Y-60889201D01*
X83883996Y-60904913D01*
X83915290Y-60934491D01*
X83950663Y-60957306D01*
X83989695Y-60973167D01*
X84031969Y-60981883D01*
X84077066Y-60983262D01*
X84116616Y-60978143D01*
X84157528Y-60965648D01*
X84194855Y-60946449D01*
X84227969Y-60921037D01*
X84256243Y-60889902D01*
X84279053Y-60853531D01*
X84295769Y-60812416D01*
X84302970Y-60779438D01*
X84305375Y-60741060D01*
X84302255Y-60702630D01*
X84293654Y-60667082D01*
X84284449Y-60643618D01*
X84263418Y-60605503D01*
X84236848Y-60572887D01*
X84205019Y-60546151D01*
X84194099Y-60538304D01*
X84186187Y-60531982D01*
X84183215Y-60528707D01*
X84184714Y-60526949D01*
X84191460Y-60521190D01*
X84202381Y-60512629D01*
X84216100Y-60502368D01*
X84226055Y-60494969D01*
X84268744Y-60461192D01*
X84313445Y-60422876D01*
X84358673Y-60381455D01*
X84402945Y-60338363D01*
X84444775Y-60295033D01*
X84482682Y-60252900D01*
X84515180Y-60213396D01*
X84525224Y-60200469D01*
X84572975Y-60216768D01*
G37*
G36*
X86007327Y-59030836D02*
G01*
X86049207Y-59032180D01*
X86087195Y-59034365D01*
X86119388Y-59037392D01*
X86189609Y-59047216D01*
X86282807Y-59064969D01*
X86373931Y-59088112D01*
X86464982Y-59117173D01*
X86557963Y-59152677D01*
X86564317Y-59155292D01*
X86582781Y-59163044D01*
X86595756Y-59169062D01*
X86604746Y-59174346D01*
X86611254Y-59179895D01*
X86616784Y-59186707D01*
X86622839Y-59195781D01*
X86640239Y-59224703D01*
X86660208Y-59261992D01*
X86680765Y-59304092D01*
X86701243Y-59349462D01*
X86720974Y-59396562D01*
X86739289Y-59443852D01*
X86755521Y-59489791D01*
X86769002Y-59532840D01*
X86785203Y-59592423D01*
X86798216Y-59649112D01*
X86808069Y-59704125D01*
X86815123Y-59759836D01*
X86819740Y-59818617D01*
X86822280Y-59882841D01*
X86822677Y-59947076D01*
X86819380Y-60028119D01*
X86811457Y-60105705D01*
X86798630Y-60181772D01*
X86780621Y-60258256D01*
X86757153Y-60337096D01*
X86739545Y-60387068D01*
X86718671Y-60439369D01*
X86695431Y-60492030D01*
X86670616Y-60543411D01*
X86645020Y-60591872D01*
X86619434Y-60635773D01*
X86594652Y-60673474D01*
X86586804Y-60684554D01*
X86574131Y-60674090D01*
X86573634Y-60673674D01*
X86566303Y-60667102D01*
X86554502Y-60656095D01*
X86539343Y-60641706D01*
X86521937Y-60624990D01*
X86503396Y-60607000D01*
X86493876Y-60597719D01*
X86472477Y-60576874D01*
X86449914Y-60554923D01*
X86425859Y-60531548D01*
X86399984Y-60506432D01*
X86371962Y-60479257D01*
X86341462Y-60449704D01*
X86308158Y-60417458D01*
X86271720Y-60382198D01*
X86231822Y-60343609D01*
X86188133Y-60301372D01*
X86140326Y-60255170D01*
X86088073Y-60204684D01*
X86031046Y-60149597D01*
X85968915Y-60089592D01*
X85901354Y-60024350D01*
X85898399Y-60021497D01*
X85864165Y-59988439D01*
X85830266Y-59955701D01*
X85797380Y-59923940D01*
X85766186Y-59893809D01*
X85737359Y-59865963D01*
X85711578Y-59841056D01*
X85689521Y-59819743D01*
X85671865Y-59802679D01*
X85659287Y-59790518D01*
X85658447Y-59789705D01*
X85646331Y-59777987D01*
X85629094Y-59761317D01*
X85607315Y-59740256D01*
X85581571Y-59715363D01*
X85552442Y-59687195D01*
X85520505Y-59656314D01*
X85486338Y-59623277D01*
X85450520Y-59588644D01*
X85413628Y-59552974D01*
X85376243Y-59516827D01*
X85363026Y-59504046D01*
X85327856Y-59470017D01*
X85294554Y-59437769D01*
X85263553Y-59407722D01*
X85235285Y-59380295D01*
X85210180Y-59355908D01*
X85188671Y-59334981D01*
X85171191Y-59317933D01*
X85158170Y-59305184D01*
X85150041Y-59297154D01*
X85147235Y-59294263D01*
X85147272Y-59294138D01*
X85151166Y-59290816D01*
X85160686Y-59284152D01*
X85174713Y-59274846D01*
X85192130Y-59263603D01*
X85211821Y-59251126D01*
X85232667Y-59238117D01*
X85253551Y-59225281D01*
X85273356Y-59213319D01*
X85290965Y-59202935D01*
X85305260Y-59194832D01*
X85315045Y-59189520D01*
X85404741Y-59145778D01*
X85498723Y-59108483D01*
X85596300Y-59077857D01*
X85696782Y-59054118D01*
X85799480Y-59037486D01*
X85806087Y-59036705D01*
X85838909Y-59033854D01*
X85877345Y-59031842D01*
X85919494Y-59030667D01*
X85963455Y-59030332D01*
X86007327Y-59030836D01*
G37*
G36*
X87514182Y-63454340D02*
G01*
X87512191Y-63471130D01*
X87509667Y-63489717D01*
X87509232Y-63492765D01*
X87507506Y-63505078D01*
X87504792Y-63524592D01*
X87501160Y-63550804D01*
X87496678Y-63583213D01*
X87491416Y-63621317D01*
X87485443Y-63664613D01*
X87478828Y-63712601D01*
X87471641Y-63764777D01*
X87463951Y-63820641D01*
X87455826Y-63879690D01*
X87447336Y-63941422D01*
X87438550Y-64005336D01*
X87429538Y-64070930D01*
X87427309Y-64087159D01*
X87418098Y-64154204D01*
X87408998Y-64220422D01*
X87400091Y-64285221D01*
X87391458Y-64348011D01*
X87383181Y-64408198D01*
X87375342Y-64465193D01*
X87368020Y-64518401D01*
X87361299Y-64567234D01*
X87355258Y-64611097D01*
X87349981Y-64649400D01*
X87345547Y-64681552D01*
X87342040Y-64706960D01*
X87339539Y-64725033D01*
X87338305Y-64733931D01*
X87332911Y-64772891D01*
X87326911Y-64816311D01*
X87320445Y-64863159D01*
X87313655Y-64912403D01*
X87306685Y-64963012D01*
X87299674Y-65013953D01*
X87292767Y-65064193D01*
X87286104Y-65112700D01*
X87279827Y-65158443D01*
X87274078Y-65200389D01*
X87269000Y-65237505D01*
X87264734Y-65268761D01*
X87261422Y-65293122D01*
X87258565Y-65314097D01*
X87255113Y-65339187D01*
X87251943Y-65361975D01*
X87249314Y-65380583D01*
X87247490Y-65393138D01*
X87247252Y-65394743D01*
X87245691Y-65405666D01*
X87243198Y-65423429D01*
X87239893Y-65447165D01*
X87235895Y-65476010D01*
X87231325Y-65509098D01*
X87226302Y-65545565D01*
X87220946Y-65584546D01*
X87215376Y-65625174D01*
X87215047Y-65627577D01*
X87202874Y-65716429D01*
X87191746Y-65797544D01*
X87181636Y-65871111D01*
X87172519Y-65937319D01*
X87164368Y-65996354D01*
X87157158Y-66048406D01*
X87150861Y-66093663D01*
X87145451Y-66132312D01*
X87140903Y-66164542D01*
X87137190Y-66190541D01*
X87134286Y-66210496D01*
X87132165Y-66224597D01*
X87130800Y-66233031D01*
X87130164Y-66235987D01*
X87129171Y-66234638D01*
X87124628Y-66227159D01*
X87116705Y-66213626D01*
X87105721Y-66194597D01*
X87091995Y-66170630D01*
X87075845Y-66142283D01*
X87057589Y-66110116D01*
X87037546Y-66074685D01*
X87016035Y-66036549D01*
X86993373Y-65996267D01*
X86986120Y-65983355D01*
X86958864Y-65934832D01*
X86935208Y-65892729D01*
X86914887Y-65856602D01*
X86897636Y-65826011D01*
X86883190Y-65800512D01*
X86871285Y-65779665D01*
X86861655Y-65763025D01*
X86854035Y-65750152D01*
X86848161Y-65740603D01*
X86843768Y-65733936D01*
X86840591Y-65729709D01*
X86838364Y-65727480D01*
X86836823Y-65726806D01*
X86835704Y-65727246D01*
X86834741Y-65728356D01*
X86833669Y-65729696D01*
X86833136Y-65730348D01*
X86828610Y-65736600D01*
X86820276Y-65748525D01*
X86808643Y-65765380D01*
X86794222Y-65786420D01*
X86777523Y-65810901D01*
X86759057Y-65838080D01*
X86739333Y-65867213D01*
X86736363Y-65871607D01*
X86715884Y-65901889D01*
X86696085Y-65931138D01*
X86677598Y-65958422D01*
X86661056Y-65982807D01*
X86647093Y-66003360D01*
X86636341Y-66019148D01*
X86629434Y-66029238D01*
X86626344Y-66033747D01*
X86618313Y-66045520D01*
X86606352Y-66063087D01*
X86590794Y-66085959D01*
X86571971Y-66113648D01*
X86550214Y-66145664D01*
X86525855Y-66181521D01*
X86499226Y-66220728D01*
X86470659Y-66262798D01*
X86440487Y-66307242D01*
X86409040Y-66353571D01*
X86376652Y-66401297D01*
X86354758Y-66433560D01*
X86315054Y-66492066D01*
X86272883Y-66554204D01*
X86229016Y-66618837D01*
X86184227Y-66684825D01*
X86139291Y-66751029D01*
X86094979Y-66816308D01*
X86052067Y-66879525D01*
X86011326Y-66939538D01*
X85973531Y-66995209D01*
X85939454Y-67045398D01*
X85924971Y-67066729D01*
X85893678Y-67112819D01*
X85858721Y-67164308D01*
X85820648Y-67220389D01*
X85780007Y-67280254D01*
X85737346Y-67343096D01*
X85693213Y-67408108D01*
X85648155Y-67474484D01*
X85602721Y-67541415D01*
X85557458Y-67608096D01*
X85512914Y-67673718D01*
X85469638Y-67737476D01*
X85428176Y-67798561D01*
X85407300Y-67829310D01*
X85371256Y-67882365D01*
X85336595Y-67933337D01*
X85303577Y-67981848D01*
X85272460Y-68027519D01*
X85243502Y-68069972D01*
X85216964Y-68108828D01*
X85193102Y-68143710D01*
X85172177Y-68174239D01*
X85154447Y-68200035D01*
X85140170Y-68220722D01*
X85129605Y-68235920D01*
X85123011Y-68245252D01*
X85120648Y-68248338D01*
X85120496Y-68247525D01*
X85119634Y-68240181D01*
X85118101Y-68225649D01*
X85115950Y-68204474D01*
X85113235Y-68177200D01*
X85110009Y-68144371D01*
X85106324Y-68106531D01*
X85102235Y-68064226D01*
X85097793Y-68017999D01*
X85093053Y-67968395D01*
X85088066Y-67915958D01*
X85082887Y-67861232D01*
X85080642Y-67837486D01*
X85075537Y-67783670D01*
X85070645Y-67732374D01*
X85066019Y-67684142D01*
X85061712Y-67639519D01*
X85057779Y-67599049D01*
X85054272Y-67563277D01*
X85051245Y-67532748D01*
X85048750Y-67508006D01*
X85046842Y-67489597D01*
X85045573Y-67478065D01*
X85044997Y-67473954D01*
X85044866Y-67473840D01*
X85044470Y-67473733D01*
X85043698Y-67473900D01*
X85042324Y-67474490D01*
X85040123Y-67475651D01*
X85036871Y-67477531D01*
X85032344Y-67480276D01*
X85026315Y-67484037D01*
X85018561Y-67488960D01*
X85008857Y-67495193D01*
X84996977Y-67502885D01*
X84982698Y-67512183D01*
X84965793Y-67523235D01*
X84946039Y-67536190D01*
X84923211Y-67551195D01*
X84897083Y-67568398D01*
X84867432Y-67587947D01*
X84834031Y-67609990D01*
X84796657Y-67634675D01*
X84755085Y-67662150D01*
X84709089Y-67692563D01*
X84658446Y-67726062D01*
X84602929Y-67762795D01*
X84542315Y-67802910D01*
X84476378Y-67846554D01*
X84404895Y-67893877D01*
X84327639Y-67945024D01*
X84244386Y-68000146D01*
X84154912Y-68059389D01*
X84058991Y-68122902D01*
X84035996Y-68138126D01*
X84001587Y-68160901D01*
X83962225Y-68186949D01*
X83918874Y-68215633D01*
X83872497Y-68246316D01*
X83824056Y-68278361D01*
X83774515Y-68311131D01*
X83724837Y-68343988D01*
X83675986Y-68376296D01*
X83628923Y-68407417D01*
X83586136Y-68435710D01*
X83532745Y-68471019D01*
X83475036Y-68509188D01*
X83414256Y-68549391D01*
X83351651Y-68590803D01*
X83288470Y-68632600D01*
X83225957Y-68673956D01*
X83165361Y-68714048D01*
X83107928Y-68752050D01*
X83054905Y-68787137D01*
X83027333Y-68805383D01*
X82979475Y-68837051D01*
X82931652Y-68868692D01*
X82884602Y-68899819D01*
X82839063Y-68929944D01*
X82795772Y-68958579D01*
X82755465Y-68985236D01*
X82718882Y-69009428D01*
X82686758Y-69030667D01*
X82659831Y-69048465D01*
X82638840Y-69062334D01*
X82617560Y-69076379D01*
X82592341Y-69092993D01*
X82569930Y-69107724D01*
X82551100Y-69120065D01*
X82536623Y-69129510D01*
X82527272Y-69135552D01*
X82523822Y-69137686D01*
X82523796Y-69137486D01*
X82523682Y-69131827D01*
X82523572Y-69118701D01*
X82523467Y-69098548D01*
X82523367Y-69071805D01*
X82523273Y-69038908D01*
X82523186Y-69000295D01*
X82523107Y-68956404D01*
X82523036Y-68907672D01*
X82522973Y-68854537D01*
X82522921Y-68797436D01*
X82522878Y-68736806D01*
X82522847Y-68673086D01*
X82522828Y-68606712D01*
X82522822Y-68538122D01*
X82522822Y-67938517D01*
X82555827Y-67933576D01*
X82608701Y-67924726D01*
X82697651Y-67905756D01*
X82785525Y-67882050D01*
X82870713Y-67854108D01*
X82951604Y-67822429D01*
X83026587Y-67787514D01*
X83073063Y-67762064D01*
X83139688Y-67719487D01*
X83206684Y-67669710D01*
X83273589Y-67613153D01*
X83339943Y-67550237D01*
X83405282Y-67481383D01*
X83469147Y-67407010D01*
X83531076Y-67327541D01*
X83538399Y-67317647D01*
X83552223Y-67298792D01*
X83564644Y-67281633D01*
X83574531Y-67267737D01*
X83580752Y-67258675D01*
X83583290Y-67255122D01*
X83588334Y-67249515D01*
X83595428Y-67243331D01*
X83605392Y-67236015D01*
X83619048Y-67227009D01*
X83637217Y-67215755D01*
X83660719Y-67201696D01*
X83690376Y-67184275D01*
X83713322Y-67170864D01*
X83743707Y-67153097D01*
X83773967Y-67135397D01*
X83802404Y-67118756D01*
X83827324Y-67104165D01*
X83847030Y-67092616D01*
X83847425Y-67092385D01*
X83861438Y-67084171D01*
X83878421Y-67074222D01*
X83898703Y-67062346D01*
X83922611Y-67048352D01*
X83950473Y-67032046D01*
X83982619Y-67013238D01*
X84019375Y-66991736D01*
X84061070Y-66967346D01*
X84108031Y-66939878D01*
X84160588Y-66909140D01*
X84219068Y-66874939D01*
X84283800Y-66837084D01*
X84355110Y-66795383D01*
X84399070Y-66769674D01*
X84458574Y-66734870D01*
X84523008Y-66697178D01*
X84591282Y-66657234D01*
X84662307Y-66615678D01*
X84734994Y-66573145D01*
X84808253Y-66530274D01*
X84880995Y-66487702D01*
X84952131Y-66446067D01*
X85020571Y-66406005D01*
X85085225Y-66368155D01*
X85122296Y-66346454D01*
X85174491Y-66315912D01*
X85220439Y-66289045D01*
X85260538Y-66265628D01*
X85295185Y-66245433D01*
X85324779Y-66228232D01*
X85349716Y-66213798D01*
X85370394Y-66201903D01*
X85387212Y-66192321D01*
X85400567Y-66184823D01*
X85410856Y-66179183D01*
X85418477Y-66175172D01*
X85423828Y-66172565D01*
X85427306Y-66171133D01*
X85429310Y-66170648D01*
X85430237Y-66170884D01*
X85430822Y-66174815D01*
X85431783Y-66186149D01*
X85433061Y-66204243D01*
X85434620Y-66228466D01*
X85436421Y-66258186D01*
X85438427Y-66292772D01*
X85440601Y-66331592D01*
X85442906Y-66374014D01*
X85445305Y-66419406D01*
X85447759Y-66467139D01*
X85450024Y-66511607D01*
X85452385Y-66557526D01*
X85454624Y-66600651D01*
X85456706Y-66640332D01*
X85458598Y-66675920D01*
X85460263Y-66706765D01*
X85461667Y-66732218D01*
X85462776Y-66751628D01*
X85463555Y-66764346D01*
X85463968Y-66769723D01*
X85465319Y-66772046D01*
X85468641Y-66770261D01*
X85474474Y-66763589D01*
X85483379Y-66751387D01*
X85495914Y-66733012D01*
X85498099Y-66729767D01*
X85506132Y-66717913D01*
X85518064Y-66700366D01*
X85533464Y-66677759D01*
X85551899Y-66650722D01*
X85572937Y-66619887D01*
X85596147Y-66585887D01*
X85621096Y-66549353D01*
X85647354Y-66510917D01*
X85674488Y-66471210D01*
X85702066Y-66430864D01*
X85729656Y-66390511D01*
X85756827Y-66350783D01*
X85783146Y-66312311D01*
X85808183Y-66275728D01*
X85831504Y-66241664D01*
X85852678Y-66210752D01*
X85871274Y-66183623D01*
X85886859Y-66160909D01*
X85899002Y-66143242D01*
X85907270Y-66131254D01*
X85909265Y-66128359D01*
X85916158Y-66118315D01*
X85927067Y-66102394D01*
X85941670Y-66081066D01*
X85959650Y-66054796D01*
X85980687Y-66024051D01*
X86004461Y-65989300D01*
X86030652Y-65951009D01*
X86058942Y-65909646D01*
X86089012Y-65865677D01*
X86120540Y-65819570D01*
X86153209Y-65771793D01*
X86186699Y-65722812D01*
X86220690Y-65673094D01*
X86254862Y-65623107D01*
X86288897Y-65573318D01*
X86322476Y-65524195D01*
X86355277Y-65476203D01*
X86386983Y-65429812D01*
X86417274Y-65385487D01*
X86445830Y-65343696D01*
X86472331Y-65304907D01*
X86496459Y-65269586D01*
X86517895Y-65238200D01*
X86536317Y-65211218D01*
X86551408Y-65189106D01*
X86554346Y-65184800D01*
X86577213Y-65151314D01*
X86602154Y-65114832D01*
X86627852Y-65077276D01*
X86652994Y-65040567D01*
X86676263Y-65006628D01*
X86696343Y-64977381D01*
X86703086Y-64967579D01*
X86721221Y-64941225D01*
X86735484Y-64920164D01*
X86746286Y-64903352D01*
X86754040Y-64889748D01*
X86759157Y-64878307D01*
X86762047Y-64867986D01*
X86763123Y-64857743D01*
X86762795Y-64846534D01*
X86761475Y-64833317D01*
X86759575Y-64817047D01*
X86758985Y-64811776D01*
X86757240Y-64795882D01*
X86754856Y-64773934D01*
X86751971Y-64747204D01*
X86748722Y-64716962D01*
X86745246Y-64684477D01*
X86741679Y-64651021D01*
X86740263Y-64637712D01*
X86737594Y-64612630D01*
X86734185Y-64580589D01*
X86730098Y-64542173D01*
X86725394Y-64497964D01*
X86720135Y-64448545D01*
X86714384Y-64394498D01*
X86708203Y-64336406D01*
X86701653Y-64274853D01*
X86694797Y-64210419D01*
X86687697Y-64143689D01*
X86680414Y-64075245D01*
X86673010Y-64005669D01*
X86665548Y-63935545D01*
X86665172Y-63932005D01*
X86657995Y-63864503D01*
X86651056Y-63799144D01*
X86644402Y-63736376D01*
X86638080Y-63676644D01*
X86632138Y-63620397D01*
X86626621Y-63568081D01*
X86621577Y-63520145D01*
X86617054Y-63477034D01*
X86613097Y-63439197D01*
X86609755Y-63407079D01*
X86607073Y-63381129D01*
X86605099Y-63361794D01*
X86603881Y-63349521D01*
X86603464Y-63344756D01*
X86601583Y-63341853D01*
X86594707Y-63335569D01*
X86582560Y-63325949D01*
X86564905Y-63312820D01*
X86541503Y-63296009D01*
X86512117Y-63275342D01*
X86476508Y-63250647D01*
X86434438Y-63221750D01*
X86400478Y-63198510D01*
X86360953Y-63171460D01*
X86317154Y-63141485D01*
X86270247Y-63109382D01*
X86221400Y-63075951D01*
X86171780Y-63041991D01*
X86122553Y-63008299D01*
X86074886Y-62975674D01*
X86029945Y-62944916D01*
X85999098Y-62923827D01*
X85961540Y-62898221D01*
X85926240Y-62874232D01*
X85893741Y-62852223D01*
X85864584Y-62832559D01*
X85839312Y-62815605D01*
X85818466Y-62801725D01*
X85802589Y-62791283D01*
X85792222Y-62784645D01*
X85787907Y-62782173D01*
X85787439Y-62782087D01*
X85780794Y-62781061D01*
X85766780Y-62778981D01*
X85745836Y-62775910D01*
X85718399Y-62771911D01*
X85684907Y-62767048D01*
X85645798Y-62761383D01*
X85601509Y-62754979D01*
X85552479Y-62747901D01*
X85499145Y-62740212D01*
X85441945Y-62731974D01*
X85381317Y-62723250D01*
X85317698Y-62714105D01*
X85251527Y-62704602D01*
X85183241Y-62694803D01*
X85167976Y-62692613D01*
X85099783Y-62682830D01*
X85033623Y-62673337D01*
X84969949Y-62664199D01*
X84909215Y-62655481D01*
X84851872Y-62647248D01*
X84798374Y-62639565D01*
X84749174Y-62632497D01*
X84704724Y-62626109D01*
X84665477Y-62620467D01*
X84631887Y-62615635D01*
X84604405Y-62611679D01*
X84583486Y-62608662D01*
X84569581Y-62606652D01*
X84563143Y-62605712D01*
X84552836Y-62603811D01*
X84544165Y-62600631D01*
X84541878Y-62596554D01*
X84545442Y-62565388D01*
X84550635Y-62505020D01*
X84554215Y-62440977D01*
X84556160Y-62375172D01*
X84556447Y-62309521D01*
X84555056Y-62245937D01*
X84551964Y-62186333D01*
X84547150Y-62132624D01*
X84539681Y-62074573D01*
X84520636Y-61966266D01*
X84495431Y-61862854D01*
X84463971Y-61764090D01*
X84426164Y-61669723D01*
X84381913Y-61579504D01*
X84331125Y-61493183D01*
X84273705Y-61410511D01*
X84245052Y-61374087D01*
X84210090Y-61333361D01*
X84169999Y-61290085D01*
X84123979Y-61243368D01*
X84064229Y-61184242D01*
X84136658Y-61186603D01*
X84142282Y-61186783D01*
X84163009Y-61187404D01*
X84190291Y-61188181D01*
X84223066Y-61189085D01*
X84260271Y-61190088D01*
X84300844Y-61191161D01*
X84343721Y-61192276D01*
X84387840Y-61193405D01*
X84432138Y-61194518D01*
X84655190Y-61200070D01*
X84700181Y-61174729D01*
X84704606Y-61172240D01*
X84718851Y-61164254D01*
X84739042Y-61152953D01*
X84764468Y-61138736D01*
X84794420Y-61121998D01*
X84828188Y-61103136D01*
X84865060Y-61082547D01*
X84904328Y-61060628D01*
X84945282Y-61037775D01*
X84987210Y-61014385D01*
X85014343Y-60999249D01*
X85053476Y-60977413D01*
X85090144Y-60956945D01*
X85123780Y-60938163D01*
X85153820Y-60921380D01*
X85179697Y-60906915D01*
X85200848Y-60895082D01*
X85216705Y-60886198D01*
X85226705Y-60880578D01*
X85230282Y-60878538D01*
X85229920Y-60875877D01*
X85227705Y-60866929D01*
X85223935Y-60853225D01*
X85219038Y-60836367D01*
X85215154Y-60823555D01*
X85187678Y-60744280D01*
X85154958Y-60666571D01*
X85117748Y-60591958D01*
X85076800Y-60521971D01*
X85032867Y-60458138D01*
X85000928Y-60417263D01*
X84935297Y-60342760D01*
X84864756Y-60274377D01*
X84789555Y-60212316D01*
X84709948Y-60156775D01*
X84626185Y-60107953D01*
X84538517Y-60066051D01*
X84507891Y-60052924D01*
X84490119Y-60079615D01*
X84482159Y-60091158D01*
X84469544Y-60108673D01*
X84455277Y-60127885D01*
X84441181Y-60146312D01*
X84382957Y-60216362D01*
X84310154Y-60292672D01*
X84232406Y-60363014D01*
X84150084Y-60427180D01*
X84063560Y-60484962D01*
X83973205Y-60536153D01*
X83879390Y-60580544D01*
X83782488Y-60617927D01*
X83682870Y-60648095D01*
X83580908Y-60670839D01*
X83476972Y-60685952D01*
X83476592Y-60685992D01*
X83444044Y-60689111D01*
X83413491Y-60691355D01*
X83386117Y-60692682D01*
X83363111Y-60693055D01*
X83345660Y-60692431D01*
X83334949Y-60690771D01*
X83333829Y-60690369D01*
X83325578Y-60686822D01*
X83311731Y-60680451D01*
X83293521Y-60671836D01*
X83272179Y-60661560D01*
X83248936Y-60650201D01*
X83239635Y-60645650D01*
X83160028Y-60608951D01*
X83082134Y-60577363D01*
X83004633Y-60550545D01*
X82926205Y-60528153D01*
X82845531Y-60509846D01*
X82761290Y-60495281D01*
X82672163Y-60484117D01*
X82576830Y-60476012D01*
X82558917Y-60474782D01*
X82538891Y-60473360D01*
X82522936Y-60472171D01*
X82512356Y-60471314D01*
X82508457Y-60470886D01*
X82508451Y-60470816D01*
X82508425Y-60465861D01*
X82508427Y-60453439D01*
X82508457Y-60434024D01*
X82508513Y-60408092D01*
X82508594Y-60376117D01*
X82508698Y-60338574D01*
X82508824Y-60295938D01*
X82508971Y-60248683D01*
X82509138Y-60197284D01*
X82509322Y-60142216D01*
X82509522Y-60083953D01*
X82509738Y-60022971D01*
X82509967Y-59959744D01*
X82511544Y-59529633D01*
X82694849Y-59529633D01*
X82694849Y-59928805D01*
X82694849Y-60327978D01*
X82707851Y-60329913D01*
X82713179Y-60330638D01*
X82726503Y-60332278D01*
X82743860Y-60334294D01*
X82762859Y-60336404D01*
X82854462Y-60349543D01*
X82954980Y-60371130D01*
X83055138Y-60399973D01*
X83153972Y-60435757D01*
X83250518Y-60478165D01*
X83343812Y-60526883D01*
X83352584Y-60531784D01*
X83365963Y-60538547D01*
X83376774Y-60542330D01*
X83387798Y-60543968D01*
X83401821Y-60544296D01*
X83423977Y-60543375D01*
X83453228Y-60540628D01*
X83485836Y-60536353D01*
X83519538Y-60530849D01*
X83552071Y-60524416D01*
X83556479Y-60523443D01*
X83636918Y-60501537D01*
X83717643Y-60471715D01*
X83798537Y-60434048D01*
X83879483Y-60388606D01*
X83960366Y-60335460D01*
X84041068Y-60274680D01*
X84121472Y-60206338D01*
X84201463Y-60130505D01*
X84233935Y-60097623D01*
X84269022Y-60060557D01*
X84298928Y-60026852D01*
X84324298Y-59995668D01*
X84345773Y-59966164D01*
X84363996Y-59937497D01*
X84379609Y-59908827D01*
X84393254Y-59879311D01*
X84393487Y-59878765D01*
X84401072Y-59861213D01*
X84407657Y-59846408D01*
X84412545Y-59835892D01*
X84415035Y-59831211D01*
X84418988Y-59831318D01*
X84429369Y-59833769D01*
X84444930Y-59838251D01*
X84464470Y-59844361D01*
X84486791Y-59851696D01*
X84510691Y-59859854D01*
X84534971Y-59868431D01*
X84558432Y-59877025D01*
X84579872Y-59885234D01*
X84598093Y-59892654D01*
X84630203Y-59906719D01*
X84722398Y-59952169D01*
X84809069Y-60002934D01*
X84890956Y-60059511D01*
X84968797Y-60122397D01*
X85043334Y-60192091D01*
X85066520Y-60215706D01*
X85106778Y-60259104D01*
X85143004Y-60301839D01*
X85177067Y-60346169D01*
X85210836Y-60394351D01*
X85246644Y-60450352D01*
X85293892Y-60534388D01*
X85335195Y-60620794D01*
X85369926Y-60708223D01*
X85397459Y-60795328D01*
X85400514Y-60806762D01*
X85406116Y-60828927D01*
X85411986Y-60853374D01*
X85417808Y-60878669D01*
X85423270Y-60903375D01*
X85428055Y-60926058D01*
X85431851Y-60945283D01*
X85434341Y-60959613D01*
X85435212Y-60967615D01*
X85432218Y-60972690D01*
X85422339Y-60980477D01*
X85406208Y-60990018D01*
X85396468Y-60995337D01*
X85380161Y-61004343D01*
X85358054Y-61016611D01*
X85330743Y-61031808D01*
X85298823Y-61049600D01*
X85262890Y-61069655D01*
X85223540Y-61091640D01*
X85181368Y-61115222D01*
X85136970Y-61140067D01*
X85090941Y-61165842D01*
X85043878Y-61192215D01*
X84996376Y-61218852D01*
X84949030Y-61245420D01*
X84902436Y-61271586D01*
X84857189Y-61297018D01*
X84705165Y-61382506D01*
X84580144Y-61382506D01*
X84564652Y-61382527D01*
X84535177Y-61382687D01*
X84508913Y-61382989D01*
X84486817Y-61383412D01*
X84469849Y-61383935D01*
X84458965Y-61384538D01*
X84455125Y-61385200D01*
X84455257Y-61385798D01*
X84458545Y-61391309D01*
X84464869Y-61399473D01*
X84465322Y-61400018D01*
X84471728Y-61408296D01*
X84481329Y-61421299D01*
X84492903Y-61437353D01*
X84505228Y-61454783D01*
X84517028Y-61471947D01*
X84569149Y-61556039D01*
X84615701Y-61645507D01*
X84656565Y-61739931D01*
X84691616Y-61838891D01*
X84720735Y-61941967D01*
X84743798Y-62048739D01*
X84760685Y-62158786D01*
X84771274Y-62271689D01*
X84775442Y-62387028D01*
X84775563Y-62397502D01*
X84776033Y-62417746D01*
X84776736Y-62434519D01*
X84777598Y-62446311D01*
X84778547Y-62451610D01*
X84778906Y-62451819D01*
X84784590Y-62453147D01*
X84797183Y-62455352D01*
X84816755Y-62458444D01*
X84843373Y-62462433D01*
X84877106Y-62467327D01*
X84918023Y-62473137D01*
X84966191Y-62479871D01*
X85021679Y-62487539D01*
X85084557Y-62496151D01*
X85154891Y-62505716D01*
X85232751Y-62516243D01*
X85318204Y-62527742D01*
X85411321Y-62540222D01*
X85512168Y-62553693D01*
X85620814Y-62568164D01*
X85737328Y-62583645D01*
X85877350Y-62602228D01*
X86329421Y-62922055D01*
X86365461Y-62947552D01*
X86418094Y-62984790D01*
X86468668Y-63020572D01*
X86516811Y-63054635D01*
X86562148Y-63086714D01*
X86604308Y-63116546D01*
X86642918Y-63143867D01*
X86677605Y-63168414D01*
X86707997Y-63189922D01*
X86733720Y-63208128D01*
X86754402Y-63222768D01*
X86769670Y-63233579D01*
X86779151Y-63240296D01*
X86782474Y-63242656D01*
X86782888Y-63245137D01*
X86784207Y-63254906D01*
X86786339Y-63271491D01*
X86789205Y-63294256D01*
X86792726Y-63322568D01*
X86796825Y-63355794D01*
X86801423Y-63393300D01*
X86806442Y-63434452D01*
X86811802Y-63478616D01*
X86817427Y-63525159D01*
X86817501Y-63525774D01*
X86822286Y-63565452D01*
X86827930Y-63612258D01*
X86834336Y-63665389D01*
X86841409Y-63724042D01*
X86849051Y-63787416D01*
X86857166Y-63854706D01*
X86865656Y-63925113D01*
X86874425Y-63997831D01*
X86883376Y-64072060D01*
X86892413Y-64146997D01*
X86901438Y-64221838D01*
X86910355Y-64295783D01*
X86919067Y-64368028D01*
X86986737Y-64929168D01*
X86887943Y-65076139D01*
X86835639Y-65153953D01*
X86778453Y-65239035D01*
X86725406Y-65317968D01*
X86676319Y-65391015D01*
X86631017Y-65458439D01*
X86589321Y-65520504D01*
X86551056Y-65577474D01*
X86516043Y-65629613D01*
X86484106Y-65677183D01*
X86463709Y-65707555D01*
X86440895Y-65741500D01*
X86418152Y-65775316D01*
X86396357Y-65807698D01*
X86376388Y-65837344D01*
X86359120Y-65862951D01*
X86345432Y-65883215D01*
X86341116Y-65889602D01*
X86328619Y-65908133D01*
X86312415Y-65932196D01*
X86293019Y-65961027D01*
X86270944Y-65993860D01*
X86246706Y-66029930D01*
X86220819Y-66068470D01*
X86193797Y-66108716D01*
X86166155Y-66149903D01*
X86138407Y-66191264D01*
X86135540Y-66195539D01*
X86104360Y-66242015D01*
X86069726Y-66293623D01*
X86032561Y-66348991D01*
X85993784Y-66406747D01*
X85954318Y-66465520D01*
X85915083Y-66523937D01*
X85877000Y-66580627D01*
X85840991Y-66634219D01*
X85807976Y-66683341D01*
X85802311Y-66691767D01*
X85769238Y-66740972D01*
X85733695Y-66793855D01*
X85696550Y-66849127D01*
X85658669Y-66905498D01*
X85620919Y-66961677D01*
X85584167Y-67016376D01*
X85549279Y-67068304D01*
X85517122Y-67116172D01*
X85488563Y-67158690D01*
X85341265Y-67377998D01*
X85338559Y-67362722D01*
X85338112Y-67358945D01*
X85337025Y-67347315D01*
X85335418Y-67328669D01*
X85333334Y-67303562D01*
X85330818Y-67272546D01*
X85327913Y-67236172D01*
X85324663Y-67194995D01*
X85321112Y-67149565D01*
X85317303Y-67100436D01*
X85313282Y-67048161D01*
X85309090Y-66993292D01*
X85304772Y-66936381D01*
X85301348Y-66891337D01*
X85297137Y-66836583D01*
X85293079Y-66784547D01*
X85289220Y-66735753D01*
X85285601Y-66690730D01*
X85282268Y-66650002D01*
X85279263Y-66614096D01*
X85276631Y-66583539D01*
X85274415Y-66558856D01*
X85272658Y-66540573D01*
X85271404Y-66529218D01*
X85270697Y-66525316D01*
X85269842Y-66525604D01*
X85267200Y-66526904D01*
X85262517Y-66529424D01*
X85255469Y-66533354D01*
X85245731Y-66538881D01*
X85232981Y-66546194D01*
X85216893Y-66555482D01*
X85197144Y-66566934D01*
X85173410Y-66580736D01*
X85145366Y-66597079D01*
X85112690Y-66616150D01*
X85075055Y-66638139D01*
X85032139Y-66663233D01*
X84983618Y-66691621D01*
X84929167Y-66723492D01*
X84868463Y-66759034D01*
X84801180Y-66798436D01*
X84800692Y-66798721D01*
X84776043Y-66813155D01*
X84745511Y-66831029D01*
X84710097Y-66851758D01*
X84670801Y-66874756D01*
X84628625Y-66899438D01*
X84584568Y-66925218D01*
X84539632Y-66951511D01*
X84494818Y-66977730D01*
X84451125Y-67003291D01*
X84427589Y-67017059D01*
X84360436Y-67056345D01*
X84294295Y-67095042D01*
X84229588Y-67132904D01*
X84166735Y-67169684D01*
X84106158Y-67205136D01*
X84048277Y-67239013D01*
X83993514Y-67271068D01*
X83942290Y-67301056D01*
X83895025Y-67328729D01*
X83852141Y-67353842D01*
X83814058Y-67376147D01*
X83781199Y-67395399D01*
X83753982Y-67411351D01*
X83732831Y-67423756D01*
X83718165Y-67432368D01*
X83716421Y-67433394D01*
X83696792Y-67445100D01*
X83682685Y-67454073D01*
X83672756Y-67461426D01*
X83665658Y-67468268D01*
X83660045Y-67475712D01*
X83654570Y-67484869D01*
X83646545Y-67498723D01*
X83612723Y-67550941D01*
X83573476Y-67603371D01*
X83530422Y-67653951D01*
X83485180Y-67700620D01*
X83484158Y-67701602D01*
X83424567Y-67754367D01*
X83357918Y-67805443D01*
X83285038Y-67854394D01*
X83206757Y-67900787D01*
X83123904Y-67944185D01*
X83037307Y-67984156D01*
X82947797Y-68020262D01*
X82856200Y-68052071D01*
X82763348Y-68079147D01*
X82757157Y-68080786D01*
X82738395Y-68085851D01*
X82723036Y-68090143D01*
X82712528Y-68093250D01*
X82708317Y-68094764D01*
X82708129Y-68097955D01*
X82707943Y-68108610D01*
X82707790Y-68126188D01*
X82707670Y-68150114D01*
X82707584Y-68179813D01*
X82707533Y-68214709D01*
X82707517Y-68254226D01*
X82707538Y-68297790D01*
X82707597Y-68344825D01*
X82707693Y-68394756D01*
X82707829Y-68447008D01*
X82708851Y-68797742D01*
X82722853Y-68788000D01*
X82722908Y-68787962D01*
X82728625Y-68784102D01*
X82740449Y-68776206D01*
X82757824Y-68764642D01*
X82780196Y-68749778D01*
X82807008Y-68731981D01*
X82837704Y-68711620D01*
X82871731Y-68689063D01*
X82908532Y-68664677D01*
X82947552Y-68638830D01*
X82988235Y-68611891D01*
X83030026Y-68584227D01*
X83072370Y-68556206D01*
X83114711Y-68528196D01*
X83156494Y-68500564D01*
X83197163Y-68473680D01*
X83236164Y-68447910D01*
X83272940Y-68423623D01*
X83283841Y-68416425D01*
X83306293Y-68401597D01*
X83330534Y-68385581D01*
X83357008Y-68368086D01*
X83386160Y-68348816D01*
X83418433Y-68327478D01*
X83454270Y-68303779D01*
X83494117Y-68277426D01*
X83538416Y-68248124D01*
X83587612Y-68215580D01*
X83642148Y-68179501D01*
X83702469Y-68139592D01*
X83769018Y-68095562D01*
X83786986Y-68083674D01*
X83825331Y-68058306D01*
X83866648Y-68030975D01*
X83909008Y-68002957D01*
X83950482Y-67975526D01*
X83989142Y-67949959D01*
X84023058Y-67927532D01*
X84033221Y-67920812D01*
X84150608Y-67843191D01*
X84262420Y-67769249D01*
X84369675Y-67698313D01*
X84473390Y-67629710D01*
X84574582Y-67562767D01*
X84674268Y-67496812D01*
X84773465Y-67431170D01*
X84873192Y-67365170D01*
X84876032Y-67363291D01*
X84911106Y-67340078D01*
X84947802Y-67315794D01*
X84984737Y-67291353D01*
X85020530Y-67267670D01*
X85053798Y-67245660D01*
X85083158Y-67226237D01*
X85107229Y-67210316D01*
X85197243Y-67150783D01*
X85199954Y-67165101D01*
X85200286Y-67167383D01*
X85201451Y-67177526D01*
X85203239Y-67194589D01*
X85205583Y-67217878D01*
X85208416Y-67246699D01*
X85211669Y-67280356D01*
X85215277Y-67318155D01*
X85219170Y-67359402D01*
X85223283Y-67403402D01*
X85227547Y-67449462D01*
X85229913Y-67475032D01*
X85234074Y-67519492D01*
X85238041Y-67561239D01*
X85241749Y-67599616D01*
X85245131Y-67633967D01*
X85248122Y-67663634D01*
X85250657Y-67687960D01*
X85252668Y-67706288D01*
X85254091Y-67717962D01*
X85254860Y-67722324D01*
X85257214Y-67719690D01*
X85263775Y-67710858D01*
X85274237Y-67696235D01*
X85288306Y-67676246D01*
X85305687Y-67651320D01*
X85326085Y-67621883D01*
X85349205Y-67588361D01*
X85374752Y-67551182D01*
X85402430Y-67510772D01*
X85431946Y-67467558D01*
X85463004Y-67421967D01*
X85495309Y-67374425D01*
X85505668Y-67359160D01*
X85541304Y-67306651D01*
X85577596Y-67253173D01*
X85614029Y-67199486D01*
X85650089Y-67146349D01*
X85685260Y-67094520D01*
X85719028Y-67044759D01*
X85750878Y-66997824D01*
X85780294Y-66954474D01*
X85806761Y-66915469D01*
X85829766Y-66881565D01*
X85848792Y-66853524D01*
X85872758Y-66818206D01*
X85896798Y-66782788D01*
X85920199Y-66748322D01*
X85942319Y-66715751D01*
X85962516Y-66686022D01*
X85980148Y-66660078D01*
X85994572Y-66638867D01*
X86005148Y-66623332D01*
X86006796Y-66620912D01*
X86016543Y-66606590D01*
X86030241Y-66586444D01*
X86047451Y-66561122D01*
X86067734Y-66531271D01*
X86090650Y-66497537D01*
X86115759Y-66460568D01*
X86142622Y-66421011D01*
X86170800Y-66379512D01*
X86199853Y-66336719D01*
X86229342Y-66293280D01*
X86236198Y-66283178D01*
X86265622Y-66239832D01*
X86294507Y-66197283D01*
X86322413Y-66156177D01*
X86348900Y-66117163D01*
X86373530Y-66080888D01*
X86395863Y-66047997D01*
X86415460Y-66019139D01*
X86431881Y-65994960D01*
X86444688Y-65976107D01*
X86453440Y-65963228D01*
X86486831Y-65914104D01*
X86526667Y-65855473D01*
X86566030Y-65797511D01*
X86605745Y-65739000D01*
X86646637Y-65678726D01*
X86689531Y-65615470D01*
X86735253Y-65548017D01*
X86784628Y-65475151D01*
X86799889Y-65452698D01*
X86814834Y-65430855D01*
X86827894Y-65411917D01*
X86838424Y-65396816D01*
X86845776Y-65386485D01*
X86849304Y-65381857D01*
X86849969Y-65381335D01*
X86852656Y-65381654D01*
X86856660Y-65385459D01*
X86862467Y-65393467D01*
X86870566Y-65406394D01*
X86881442Y-65424955D01*
X86895584Y-65449867D01*
X86898959Y-65455867D01*
X86911312Y-65477843D01*
X86922367Y-65497535D01*
X86931466Y-65513770D01*
X86937952Y-65525376D01*
X86941169Y-65531183D01*
X86960291Y-65566092D01*
X86978081Y-65597742D01*
X86993282Y-65623857D01*
X87005696Y-65644112D01*
X87015124Y-65658185D01*
X87021366Y-65665751D01*
X87024224Y-65666487D01*
X87024238Y-65666451D01*
X87025533Y-65660541D01*
X87027689Y-65647826D01*
X87030539Y-65629419D01*
X87033916Y-65606432D01*
X87037652Y-65579976D01*
X87041580Y-65551163D01*
X87044653Y-65528279D01*
X87049070Y-65495513D01*
X87053421Y-65463395D01*
X87057456Y-65433746D01*
X87060929Y-65408386D01*
X87063593Y-65389137D01*
X87063812Y-65387564D01*
X87066828Y-65365874D01*
X87070587Y-65338719D01*
X87074777Y-65308365D01*
X87079085Y-65277076D01*
X87083199Y-65247115D01*
X87086017Y-65226583D01*
X87090592Y-65193304D01*
X87095722Y-65156040D01*
X87101093Y-65117065D01*
X87106392Y-65078655D01*
X87111306Y-65043083D01*
X87111427Y-65042205D01*
X87114633Y-65018997D01*
X87118797Y-64988811D01*
X87123794Y-64952554D01*
X87129501Y-64911135D01*
X87135791Y-64865460D01*
X87142540Y-64816437D01*
X87149623Y-64764973D01*
X87156915Y-64711976D01*
X87164291Y-64658354D01*
X87171626Y-64605014D01*
X87178022Y-64558510D01*
X87186085Y-64499910D01*
X87194928Y-64435664D01*
X87204385Y-64366979D01*
X87214290Y-64295060D01*
X87224476Y-64221113D01*
X87234778Y-64146344D01*
X87245029Y-64071959D01*
X87255064Y-63999162D01*
X87264716Y-63929162D01*
X87273820Y-63863162D01*
X87275144Y-63853566D01*
X87284218Y-63787740D01*
X87292256Y-63729311D01*
X87299312Y-63677816D01*
X87305441Y-63632792D01*
X87310698Y-63593772D01*
X87315139Y-63560295D01*
X87318818Y-63531896D01*
X87321790Y-63508110D01*
X87324112Y-63488474D01*
X87325837Y-63472524D01*
X87327021Y-63459795D01*
X87327719Y-63449824D01*
X87327987Y-63442147D01*
X87327878Y-63436299D01*
X87327449Y-63431817D01*
X87326755Y-63428236D01*
X87325850Y-63425093D01*
X87325002Y-63422315D01*
X87321889Y-63411754D01*
X87316827Y-63394364D01*
X87309971Y-63370690D01*
X87301480Y-63341281D01*
X87291510Y-63306683D01*
X87280221Y-63267444D01*
X87267768Y-63224109D01*
X87254309Y-63177227D01*
X87240002Y-63127344D01*
X87225003Y-63075008D01*
X87209472Y-63020764D01*
X87198985Y-62984126D01*
X87180395Y-62919188D01*
X87160893Y-62851071D01*
X87140823Y-62780983D01*
X87120533Y-62710133D01*
X87100367Y-62639728D01*
X87080673Y-62570976D01*
X87061795Y-62505085D01*
X87044081Y-62443263D01*
X87027875Y-62386717D01*
X87013525Y-62336657D01*
X87002355Y-62297695D01*
X86971115Y-62188721D01*
X86941993Y-62087118D01*
X86914921Y-61992647D01*
X86889832Y-61905070D01*
X86866656Y-61824149D01*
X86845328Y-61749644D01*
X86825778Y-61681319D01*
X86807938Y-61618933D01*
X86791742Y-61562251D01*
X86777120Y-61511031D01*
X86764006Y-61465038D01*
X86752331Y-61424031D01*
X86742027Y-61387774D01*
X86733027Y-61356026D01*
X86725262Y-61328551D01*
X86718665Y-61305110D01*
X86713167Y-61285464D01*
X86708702Y-61269375D01*
X86705201Y-61256605D01*
X86702596Y-61246916D01*
X86700819Y-61240068D01*
X86699803Y-61235825D01*
X86699479Y-61233947D01*
X86699564Y-61233443D01*
X86700663Y-61230262D01*
X86703115Y-61224231D01*
X86707027Y-61215120D01*
X86712507Y-61202695D01*
X86719661Y-61186726D01*
X86728596Y-61166981D01*
X86739418Y-61143229D01*
X86752235Y-61115237D01*
X86767154Y-61082774D01*
X86784280Y-61045609D01*
X86803722Y-61003509D01*
X86825586Y-60956243D01*
X86849978Y-60903580D01*
X86877006Y-60845287D01*
X86906776Y-60781134D01*
X86939395Y-60710888D01*
X86974971Y-60634318D01*
X87013609Y-60551192D01*
X87055417Y-60461278D01*
X87100501Y-60364346D01*
X87105758Y-60353043D01*
X87125447Y-60310695D01*
X87145442Y-60267665D01*
X87165217Y-60225086D01*
X87184245Y-60184092D01*
X87202000Y-60145817D01*
X87217956Y-60111394D01*
X87231588Y-60081958D01*
X87242369Y-60058642D01*
X87288397Y-59958971D01*
X87245476Y-59812603D01*
X87236287Y-59781259D01*
X87225934Y-59745925D01*
X87215968Y-59711887D01*
X87206761Y-59680423D01*
X87198686Y-59652807D01*
X87192118Y-59630317D01*
X87187429Y-59614228D01*
X87185307Y-59606942D01*
X87180302Y-59589795D01*
X87173417Y-59566233D01*
X87164875Y-59537023D01*
X87154903Y-59502934D01*
X87143724Y-59464733D01*
X87131563Y-59423189D01*
X87118646Y-59379069D01*
X87105197Y-59333142D01*
X87091440Y-59286176D01*
X87080686Y-59249462D01*
X87067760Y-59205328D01*
X87055575Y-59163713D01*
X87044319Y-59125263D01*
X87034182Y-59090622D01*
X87025350Y-59060436D01*
X87018014Y-59035349D01*
X87012362Y-59016006D01*
X87008582Y-59003051D01*
X87006863Y-58997131D01*
X87006514Y-58995977D01*
X87002478Y-58987572D01*
X86998038Y-58984129D01*
X86993325Y-58983129D01*
X86981654Y-58980231D01*
X86963810Y-58975638D01*
X86940570Y-58969556D01*
X86912712Y-58962187D01*
X86881012Y-58953738D01*
X86846247Y-58944413D01*
X86809196Y-58934416D01*
X86765861Y-58922691D01*
X86644051Y-58889735D01*
X86529722Y-58858807D01*
X86422692Y-58829857D01*
X86322780Y-58802838D01*
X86229806Y-58777700D01*
X86143590Y-58754395D01*
X86063949Y-58732873D01*
X85990704Y-58713087D01*
X85923674Y-58694987D01*
X85862678Y-58678525D01*
X85807535Y-58663651D01*
X85758064Y-58650318D01*
X85714085Y-58638476D01*
X85675417Y-58628076D01*
X85641879Y-58619071D01*
X85613290Y-58611411D01*
X85589470Y-58605047D01*
X85570238Y-58599931D01*
X85555412Y-58596013D01*
X85544812Y-58593246D01*
X85538258Y-58591580D01*
X85535569Y-58590967D01*
X85534866Y-58591097D01*
X85528561Y-58594771D01*
X85516750Y-58603201D01*
X85499883Y-58616035D01*
X85478409Y-58632920D01*
X85452778Y-58653504D01*
X85423440Y-58677434D01*
X85390844Y-58704359D01*
X85345351Y-58742146D01*
X85265701Y-58808293D01*
X85186810Y-58873797D01*
X85109576Y-58937912D01*
X85034898Y-58999891D01*
X84963675Y-59058990D01*
X84896805Y-59114462D01*
X84835186Y-59165561D01*
X84821241Y-59177126D01*
X84793939Y-59199790D01*
X84768644Y-59220814D01*
X84746049Y-59239622D01*
X84726846Y-59255635D01*
X84711727Y-59268277D01*
X84701386Y-59276970D01*
X84696515Y-59281138D01*
X84687865Y-59288911D01*
X84512486Y-59210902D01*
X84484299Y-59198361D01*
X84443098Y-59180017D01*
X84396934Y-59159455D01*
X84347118Y-59137258D01*
X84294959Y-59114009D01*
X84241765Y-59090291D01*
X84188845Y-59066689D01*
X84137510Y-59043787D01*
X84089068Y-59022166D01*
X84075889Y-59016283D01*
X84031969Y-58996685D01*
X83988851Y-58977455D01*
X83947348Y-58958954D01*
X83908272Y-58941545D01*
X83872438Y-58925589D01*
X83840657Y-58911449D01*
X83813743Y-58899487D01*
X83792508Y-58890065D01*
X83777766Y-58883544D01*
X83714502Y-58855650D01*
X83581735Y-58897470D01*
X83566727Y-58902195D01*
X83536162Y-58911812D01*
X83499568Y-58923320D01*
X83457949Y-58936404D01*
X83412309Y-58950747D01*
X83363651Y-58966034D01*
X83312980Y-58981951D01*
X83261299Y-58998181D01*
X83209611Y-59014409D01*
X83158922Y-59030320D01*
X83153038Y-59032166D01*
X83106957Y-59046634D01*
X83063213Y-59060375D01*
X83022396Y-59073203D01*
X82985094Y-59084935D01*
X82951895Y-59095385D01*
X82923388Y-59104366D01*
X82900162Y-59111695D01*
X82882805Y-59117185D01*
X82871905Y-59120651D01*
X82868051Y-59121908D01*
X82868536Y-59123889D01*
X82871240Y-59132414D01*
X82875994Y-59146715D01*
X82882447Y-59165757D01*
X82890250Y-59188503D01*
X82899056Y-59213919D01*
X82905228Y-59231748D01*
X82913495Y-59255951D01*
X82920558Y-59277016D01*
X82926053Y-59293841D01*
X82929617Y-59305323D01*
X82930886Y-59310361D01*
X82930016Y-59312787D01*
X82924605Y-59319862D01*
X82915883Y-59328362D01*
X82905719Y-59337323D01*
X82892154Y-59349499D01*
X82878666Y-59361782D01*
X82870949Y-59368856D01*
X82857590Y-59381079D01*
X82840320Y-59396866D01*
X82820199Y-59415246D01*
X82798289Y-59435251D01*
X82775650Y-59455912D01*
X82694849Y-59529633D01*
X82511544Y-59529633D01*
X82511839Y-59449125D01*
X82611912Y-59357649D01*
X82629790Y-59341336D01*
X82652303Y-59320880D01*
X82672464Y-59302660D01*
X82689564Y-59287311D01*
X82702895Y-59275468D01*
X82711750Y-59267765D01*
X82715419Y-59264839D01*
X82716754Y-59263884D01*
X82718852Y-59257991D01*
X82718464Y-59256124D01*
X82715873Y-59247384D01*
X82711120Y-59232561D01*
X82704519Y-59212602D01*
X82696384Y-59188453D01*
X82687031Y-59161062D01*
X82676774Y-59131377D01*
X82671001Y-59114673D01*
X82661328Y-59086240D01*
X82652819Y-59060667D01*
X82645776Y-59038893D01*
X82640498Y-59021852D01*
X82637288Y-59010482D01*
X82636444Y-59005719D01*
X82640764Y-59001823D01*
X82649518Y-58998388D01*
X82653033Y-58997398D01*
X82663975Y-58994111D01*
X82681128Y-58988855D01*
X82703660Y-58981889D01*
X82730734Y-58973471D01*
X82761517Y-58963861D01*
X82795174Y-58953318D01*
X82830870Y-58942100D01*
X82851628Y-58935567D01*
X82886396Y-58924625D01*
X82927234Y-58911774D01*
X82973235Y-58897300D01*
X83023491Y-58881487D01*
X83077094Y-58864621D01*
X83133135Y-58846989D01*
X83190707Y-58828876D01*
X83248902Y-58810567D01*
X83306811Y-58792349D01*
X83363527Y-58774506D01*
X83726156Y-58660428D01*
X83953620Y-58761763D01*
X83962067Y-58765527D01*
X84011812Y-58787695D01*
X84065935Y-58811823D01*
X84122767Y-58837166D01*
X84180637Y-58862979D01*
X84237877Y-58888517D01*
X84292817Y-58913035D01*
X84343786Y-58935789D01*
X84389115Y-58956033D01*
X84413845Y-58967078D01*
X84452476Y-58984320D01*
X84489268Y-59000728D01*
X84523441Y-59015954D01*
X84554214Y-59029652D01*
X84580807Y-59041474D01*
X84602438Y-59051072D01*
X84618326Y-59058098D01*
X84627691Y-59062206D01*
X84658233Y-59075444D01*
X84793773Y-58962776D01*
X84809841Y-58949420D01*
X84839007Y-58925179D01*
X84867869Y-58901196D01*
X84896964Y-58877024D01*
X84926831Y-58852215D01*
X84958009Y-58826322D01*
X84991037Y-58798898D01*
X85026453Y-58769497D01*
X85064796Y-58737669D01*
X85106604Y-58702970D01*
X85152416Y-58664951D01*
X85202771Y-58623165D01*
X85258206Y-58577165D01*
X85319262Y-58526504D01*
X85324784Y-58521922D01*
X85354936Y-58496901D01*
X85383247Y-58473403D01*
X85409101Y-58451940D01*
X85431881Y-58433024D01*
X85450970Y-58417168D01*
X85465751Y-58404884D01*
X85475607Y-58396684D01*
X85479922Y-58393080D01*
X85482592Y-58391421D01*
X85487327Y-58390514D01*
X85494790Y-58391070D01*
X85506220Y-58393284D01*
X85522855Y-58397349D01*
X85545933Y-58403462D01*
X85549632Y-58404459D01*
X85573473Y-58410891D01*
X85604174Y-58419179D01*
X85641007Y-58429126D01*
X85683246Y-58440537D01*
X85730165Y-58453214D01*
X85781037Y-58466961D01*
X85835136Y-58481582D01*
X85891735Y-58496881D01*
X85950109Y-58512661D01*
X86009529Y-58528725D01*
X86069272Y-58544878D01*
X86128608Y-58560923D01*
X86186813Y-58576664D01*
X86243160Y-58591904D01*
X86296922Y-58606446D01*
X86347374Y-58620096D01*
X86393788Y-58632655D01*
X86435438Y-58643928D01*
X86438096Y-58644648D01*
X86490768Y-58658903D01*
X86549145Y-58674699D01*
X86611313Y-58691517D01*
X86675355Y-58708840D01*
X86739356Y-58726148D01*
X86801402Y-58742924D01*
X86859576Y-58758651D01*
X86911965Y-58772809D01*
X87150455Y-58837253D01*
X87178709Y-58933695D01*
X87181543Y-58943367D01*
X87189702Y-58971222D01*
X87199521Y-59004754D01*
X87210589Y-59042549D01*
X87222491Y-59083199D01*
X87234814Y-59125292D01*
X87247146Y-59167417D01*
X87259073Y-59208164D01*
X87263360Y-59222809D01*
X87274423Y-59260599D01*
X87287238Y-59304369D01*
X87301460Y-59352944D01*
X87316746Y-59405151D01*
X87332753Y-59459815D01*
X87349136Y-59515761D01*
X87365552Y-59571817D01*
X87381656Y-59626807D01*
X87397106Y-59679558D01*
X87483028Y-59972924D01*
X87461811Y-60019611D01*
X87461192Y-60020971D01*
X87455581Y-60033205D01*
X87446955Y-60051913D01*
X87435624Y-60076425D01*
X87421898Y-60106073D01*
X87406089Y-60140188D01*
X87388505Y-60178100D01*
X87369456Y-60219141D01*
X87349254Y-60262641D01*
X87328208Y-60307932D01*
X87306629Y-60354344D01*
X87296489Y-60376148D01*
X87270244Y-60432589D01*
X87241608Y-60494179D01*
X87211271Y-60559437D01*
X87179922Y-60626877D01*
X87148251Y-60695017D01*
X87116948Y-60762372D01*
X87086703Y-60827459D01*
X87058204Y-60888794D01*
X87032142Y-60944894D01*
X86891621Y-61247398D01*
X87007789Y-61653006D01*
X87012135Y-61668177D01*
X87035372Y-61749309D01*
X87059364Y-61833072D01*
X87083963Y-61918949D01*
X87109021Y-62006426D01*
X87134390Y-62094984D01*
X87159922Y-62184109D01*
X87185470Y-62273285D01*
X87210884Y-62361994D01*
X87236018Y-62449721D01*
X87260724Y-62535950D01*
X87284854Y-62620164D01*
X87308259Y-62701848D01*
X87330792Y-62780486D01*
X87352306Y-62855560D01*
X87372651Y-62926556D01*
X87391681Y-62992956D01*
X87409247Y-63054245D01*
X87425201Y-63109907D01*
X87439397Y-63159425D01*
X87451684Y-63202283D01*
X87461917Y-63237966D01*
X87462514Y-63240047D01*
X87473196Y-63277551D01*
X87483153Y-63312967D01*
X87492171Y-63345498D01*
X87500033Y-63374343D01*
X87506523Y-63398702D01*
X87511426Y-63417777D01*
X87514527Y-63430769D01*
X87515608Y-63436876D01*
X87515379Y-63441674D01*
X87515334Y-63442147D01*
X87514182Y-63454340D01*
G37*
G36*
X87945181Y-63470835D02*
G01*
X87945164Y-63480004D01*
X87945051Y-63497294D01*
X87944724Y-63512529D01*
X87944052Y-63526813D01*
X87942902Y-63541250D01*
X87941142Y-63556943D01*
X87938638Y-63574995D01*
X87935260Y-63596511D01*
X87930874Y-63622593D01*
X87925348Y-63654345D01*
X87918549Y-63692870D01*
X87916494Y-63704495D01*
X87910606Y-63737847D01*
X87904178Y-63774320D01*
X87897142Y-63814311D01*
X87889427Y-63858217D01*
X87880965Y-63906434D01*
X87871686Y-63959359D01*
X87861520Y-64017389D01*
X87850398Y-64080921D01*
X87838250Y-64150352D01*
X87825007Y-64226078D01*
X87810599Y-64308496D01*
X87794957Y-64398004D01*
X87778011Y-64494996D01*
X87770096Y-64540337D01*
X87746374Y-64676632D01*
X87723756Y-64807251D01*
X87701957Y-64933850D01*
X87680696Y-65058083D01*
X87659687Y-65181607D01*
X87638648Y-65306075D01*
X87617295Y-65433144D01*
X87615541Y-65443611D01*
X87600743Y-65531874D01*
X87587138Y-65612942D01*
X87574619Y-65687441D01*
X87563076Y-65755998D01*
X87552402Y-65819239D01*
X87542488Y-65877790D01*
X87533227Y-65932279D01*
X87524510Y-65983332D01*
X87516230Y-66031575D01*
X87508277Y-66077635D01*
X87500544Y-66122139D01*
X87492923Y-66165712D01*
X87485306Y-66208982D01*
X87477584Y-66252575D01*
X87469649Y-66297117D01*
X87461393Y-66343236D01*
X87452709Y-66391556D01*
X87443487Y-66442706D01*
X87433621Y-66497312D01*
X87429266Y-66521418D01*
X87422013Y-66561644D01*
X87413708Y-66607782D01*
X87404558Y-66658677D01*
X87394769Y-66713176D01*
X87384550Y-66770124D01*
X87374106Y-66828367D01*
X87363647Y-66886752D01*
X87353377Y-66944123D01*
X87343506Y-66999326D01*
X87339910Y-67019441D01*
X87331268Y-67067720D01*
X87323070Y-67113437D01*
X87315422Y-67156002D01*
X87308431Y-67194824D01*
X87302204Y-67229312D01*
X87296848Y-67258877D01*
X87292469Y-67282926D01*
X87289174Y-67300871D01*
X87287071Y-67312119D01*
X87286264Y-67316082D01*
X87285394Y-67314773D01*
X87282098Y-67309047D01*
X87276265Y-67298618D01*
X87267804Y-67283321D01*
X87256624Y-67262990D01*
X87242633Y-67237456D01*
X87225741Y-67206554D01*
X87205858Y-67170116D01*
X87182891Y-67127976D01*
X87156751Y-67079968D01*
X87127347Y-67025924D01*
X87094586Y-66965678D01*
X87058379Y-66899063D01*
X87018635Y-66825913D01*
X86975263Y-66746059D01*
X86928171Y-66659337D01*
X86923952Y-66651567D01*
X86904756Y-66616238D01*
X86886498Y-66582667D01*
X86869588Y-66551608D01*
X86854439Y-66523815D01*
X86841460Y-66500042D01*
X86831062Y-66481042D01*
X86823658Y-66467567D01*
X86819657Y-66460373D01*
X86808890Y-66441438D01*
X86741183Y-66541481D01*
X86722998Y-66568350D01*
X86686320Y-66622539D01*
X86645892Y-66682263D01*
X86602191Y-66746817D01*
X86555696Y-66815495D01*
X86506884Y-66887591D01*
X86456233Y-66962401D01*
X86404220Y-67039217D01*
X86351324Y-67117335D01*
X86327794Y-67152085D01*
X86294311Y-67201534D01*
X86264617Y-67245394D01*
X86238284Y-67284294D01*
X86214883Y-67318868D01*
X86193990Y-67349747D01*
X86175175Y-67377561D01*
X86158013Y-67402943D01*
X86142075Y-67426525D01*
X86126936Y-67448937D01*
X86112167Y-67470811D01*
X86097341Y-67492779D01*
X86082031Y-67515472D01*
X86079906Y-67518622D01*
X86060615Y-67547192D01*
X86039442Y-67578511D01*
X86017974Y-67610232D01*
X85997799Y-67640009D01*
X85980506Y-67665496D01*
X85979780Y-67666563D01*
X85968646Y-67682971D01*
X85953621Y-67705132D01*
X85935252Y-67732239D01*
X85914086Y-67763486D01*
X85890669Y-67798063D01*
X85865548Y-67835165D01*
X85839271Y-67873984D01*
X85812383Y-67913712D01*
X85785432Y-67953541D01*
X85742930Y-68016359D01*
X85693999Y-68088675D01*
X85646260Y-68159226D01*
X85599949Y-68227663D01*
X85555301Y-68293639D01*
X85512551Y-68356807D01*
X85471934Y-68416820D01*
X85433684Y-68473331D01*
X85398038Y-68525993D01*
X85365229Y-68574457D01*
X85335493Y-68618378D01*
X85309066Y-68657407D01*
X85286181Y-68691198D01*
X85267074Y-68719403D01*
X85251980Y-68741676D01*
X85241135Y-68757668D01*
X85230330Y-68773603D01*
X85215259Y-68795854D01*
X85197011Y-68822811D01*
X85176253Y-68853488D01*
X85153651Y-68886902D01*
X85129872Y-68922066D01*
X85105583Y-68957995D01*
X85081450Y-68993705D01*
X85077887Y-68998977D01*
X85054900Y-69032996D01*
X85032715Y-69065826D01*
X85011858Y-69096691D01*
X84992855Y-69124811D01*
X84976230Y-69149411D01*
X84962510Y-69169713D01*
X84952218Y-69184940D01*
X84945880Y-69194314D01*
X84940872Y-69201641D01*
X84932582Y-69213368D01*
X84926635Y-69221242D01*
X84924069Y-69223855D01*
X84923739Y-69222443D01*
X84922925Y-69217133D01*
X84921637Y-69207649D01*
X84919844Y-69193737D01*
X84917515Y-69175147D01*
X84914621Y-69151627D01*
X84911132Y-69122926D01*
X84907017Y-69088793D01*
X84902247Y-69048975D01*
X84896790Y-69003222D01*
X84890618Y-68951281D01*
X84883700Y-68892902D01*
X84876005Y-68827833D01*
X84867505Y-68755822D01*
X84858168Y-68676619D01*
X84847965Y-68589971D01*
X84836865Y-68495626D01*
X84832548Y-68458956D01*
X84826151Y-68404704D01*
X84820047Y-68353075D01*
X84814302Y-68304600D01*
X84808979Y-68259813D01*
X84804141Y-68219246D01*
X84799853Y-68183432D01*
X84796177Y-68152902D01*
X84793178Y-68128189D01*
X84790919Y-68109825D01*
X84789464Y-68098344D01*
X84788876Y-68094277D01*
X84788832Y-68094254D01*
X84787918Y-68094584D01*
X84785724Y-68095785D01*
X84782051Y-68097989D01*
X84776699Y-68101327D01*
X84769470Y-68105933D01*
X84760164Y-68111937D01*
X84748582Y-68119474D01*
X84734525Y-68128673D01*
X84717794Y-68139669D01*
X84698190Y-68152592D01*
X84675513Y-68167576D01*
X84649566Y-68184752D01*
X84620147Y-68204253D01*
X84587059Y-68226210D01*
X84550102Y-68250757D01*
X84509077Y-68278024D01*
X84463785Y-68308145D01*
X84414027Y-68341251D01*
X84359603Y-68377475D01*
X84300315Y-68416949D01*
X84235964Y-68459805D01*
X84166349Y-68506175D01*
X84091273Y-68556192D01*
X84010536Y-68609987D01*
X83923939Y-68667693D01*
X83831282Y-68729443D01*
X83732368Y-68795367D01*
X83626995Y-68865599D01*
X83547833Y-68918351D01*
X83448649Y-68984406D01*
X83355933Y-69046108D01*
X83269586Y-69103520D01*
X83189511Y-69156708D01*
X83115610Y-69205734D01*
X83047786Y-69250664D01*
X82985941Y-69291563D01*
X82929977Y-69328493D01*
X82879797Y-69361520D01*
X82835302Y-69390709D01*
X82796396Y-69416122D01*
X82762981Y-69437826D01*
X82734958Y-69455883D01*
X82712231Y-69470359D01*
X82694702Y-69481318D01*
X82682272Y-69488823D01*
X82674846Y-69492940D01*
X82637351Y-69509791D01*
X82578590Y-69530646D01*
X82518169Y-69546021D01*
X82458812Y-69555131D01*
X82456070Y-69555391D01*
X82414709Y-69557163D01*
X82369374Y-69555637D01*
X82323065Y-69551009D01*
X82278783Y-69543472D01*
X82273357Y-69542274D01*
X82251600Y-69536847D01*
X82224179Y-69529317D01*
X82192524Y-69520122D01*
X82158063Y-69509698D01*
X82122226Y-69498485D01*
X82086441Y-69486918D01*
X82052137Y-69475435D01*
X82020743Y-69464474D01*
X81925221Y-69428867D01*
X81809496Y-69381790D01*
X81695214Y-69330778D01*
X81581438Y-69275352D01*
X81467227Y-69215031D01*
X81351643Y-69149334D01*
X81233747Y-69077781D01*
X81112600Y-68999892D01*
X81098280Y-68990414D01*
X80982807Y-68911749D01*
X80869676Y-68830566D01*
X80758062Y-68746192D01*
X80647137Y-68657956D01*
X80536074Y-68565185D01*
X80424048Y-68467208D01*
X80310232Y-68363352D01*
X80193799Y-68252946D01*
X80178681Y-68238375D01*
X80157065Y-68217619D01*
X80137765Y-68199178D01*
X80121467Y-68183702D01*
X80108857Y-68171842D01*
X80100621Y-68164249D01*
X80097446Y-68161574D01*
X80097406Y-68162837D01*
X80098435Y-68170601D01*
X80100697Y-68184493D01*
X80104003Y-68203417D01*
X80108164Y-68226278D01*
X80112993Y-68251979D01*
X80115867Y-68267117D01*
X80119925Y-68288785D01*
X80123743Y-68309651D01*
X80127414Y-68330339D01*
X80131033Y-68351471D01*
X80134693Y-68373673D01*
X80138488Y-68397567D01*
X80142512Y-68423776D01*
X80146858Y-68452926D01*
X80151622Y-68485639D01*
X80156895Y-68522539D01*
X80162773Y-68564250D01*
X80169349Y-68611395D01*
X80176717Y-68664598D01*
X80184970Y-68724483D01*
X80194203Y-68791673D01*
X80196920Y-68811459D01*
X80203686Y-68860719D01*
X80210138Y-68907671D01*
X80216190Y-68951690D01*
X80221756Y-68992153D01*
X80226751Y-69028434D01*
X80231087Y-69059909D01*
X80234681Y-69085955D01*
X80237444Y-69105946D01*
X80239292Y-69119259D01*
X80240139Y-69125270D01*
X80242136Y-69138816D01*
X80233298Y-69130858D01*
X80233055Y-69130640D01*
X80226900Y-69125245D01*
X80215858Y-69115673D01*
X80201033Y-69102877D01*
X80183529Y-69087810D01*
X80164450Y-69071426D01*
X80129355Y-69041289D01*
X80084748Y-69002897D01*
X80038990Y-68963429D01*
X79992638Y-68923368D01*
X79946246Y-68883197D01*
X79900370Y-68843401D01*
X79855566Y-68804464D01*
X79812389Y-68766868D01*
X79771394Y-68731098D01*
X79733137Y-68697638D01*
X79698173Y-68666971D01*
X79667058Y-68639581D01*
X79640348Y-68615953D01*
X79618597Y-68596568D01*
X79602362Y-68581912D01*
X79456102Y-68443902D01*
X79305124Y-68291521D01*
X79158789Y-68133404D01*
X79017909Y-67970403D01*
X78901608Y-67826500D01*
X78774301Y-67657327D01*
X78654041Y-67484380D01*
X78540784Y-67307585D01*
X78434487Y-67126868D01*
X78335106Y-66942154D01*
X78242599Y-66753370D01*
X78156921Y-66560440D01*
X78078028Y-66363291D01*
X78078010Y-66363241D01*
X78069175Y-66339940D01*
X78061031Y-66318484D01*
X78054113Y-66300282D01*
X78048956Y-66286743D01*
X78046096Y-66279277D01*
X78045359Y-66277413D01*
X78043494Y-66273842D01*
X78041462Y-66273332D01*
X78038703Y-66276756D01*
X78034660Y-66284990D01*
X78028773Y-66298908D01*
X78020484Y-66319385D01*
X78011492Y-66341081D01*
X77999755Y-66368171D01*
X77987774Y-66394776D01*
X77977098Y-66417401D01*
X77975108Y-66421375D01*
X77968666Y-66433854D01*
X77959056Y-66452201D01*
X77946691Y-66475645D01*
X77931979Y-66503419D01*
X77915334Y-66534754D01*
X77897165Y-66568881D01*
X77877884Y-66605032D01*
X77857903Y-66642437D01*
X77837631Y-66680328D01*
X77817481Y-66717937D01*
X77797862Y-66754494D01*
X77779188Y-66789231D01*
X77761867Y-66821380D01*
X77746312Y-66850171D01*
X77732934Y-66874836D01*
X77722143Y-66894606D01*
X77714351Y-66908713D01*
X77712389Y-66908605D01*
X77707579Y-66902078D01*
X77700405Y-66888659D01*
X77691073Y-66868706D01*
X77687099Y-66859852D01*
X77679743Y-66843496D01*
X77669615Y-66820999D01*
X77656991Y-66792972D01*
X77642146Y-66760027D01*
X77625357Y-66722775D01*
X77606897Y-66681827D01*
X77587044Y-66637795D01*
X77566072Y-66591291D01*
X77544258Y-66542926D01*
X77521876Y-66493311D01*
X77492493Y-66428179D01*
X77463950Y-66364900D01*
X77438324Y-66308070D01*
X77415420Y-66257253D01*
X77395046Y-66212010D01*
X77377008Y-66171906D01*
X77361112Y-66136503D01*
X77347165Y-66105363D01*
X77334972Y-66078051D01*
X77324341Y-66054129D01*
X77315077Y-66033160D01*
X77306987Y-66014707D01*
X77299878Y-65998333D01*
X77293555Y-65983601D01*
X77287825Y-65970074D01*
X77282495Y-65957315D01*
X77277370Y-65944887D01*
X77272258Y-65932353D01*
X77266964Y-65919276D01*
X77261295Y-65905219D01*
X77194317Y-65730181D01*
X77128960Y-65538276D01*
X77071427Y-65344775D01*
X77021689Y-65149553D01*
X76979717Y-64952485D01*
X76945482Y-64753449D01*
X76918957Y-64552320D01*
X76900111Y-64348973D01*
X76896380Y-64295098D01*
X76892610Y-64231192D01*
X76889652Y-64167757D01*
X76887450Y-64103101D01*
X76885947Y-64035533D01*
X76885089Y-63963363D01*
X76884961Y-63926306D01*
X77099593Y-63926306D01*
X77103819Y-64129015D01*
X77115043Y-64328194D01*
X77133287Y-64524023D01*
X77158572Y-64716680D01*
X77190920Y-64906342D01*
X77230353Y-65093189D01*
X77276893Y-65277398D01*
X77330561Y-65459148D01*
X77332189Y-65464277D01*
X77356978Y-65540540D01*
X77381913Y-65613590D01*
X77407553Y-65684870D01*
X77434460Y-65755825D01*
X77463192Y-65827896D01*
X77494312Y-65902528D01*
X77528380Y-65981162D01*
X77565955Y-66065244D01*
X77581874Y-66100442D01*
X77600495Y-66141682D01*
X77620105Y-66185169D01*
X77639631Y-66228520D01*
X77657998Y-66269352D01*
X77674132Y-66305282D01*
X77681909Y-66322606D01*
X77694169Y-66349863D01*
X77705138Y-66374180D01*
X77714420Y-66394684D01*
X77721619Y-66410502D01*
X77726341Y-66420761D01*
X77728190Y-66424590D01*
X77728674Y-66424422D01*
X77732123Y-66419498D01*
X77738206Y-66408956D01*
X77746322Y-66393967D01*
X77755872Y-66375706D01*
X77766254Y-66355344D01*
X77776868Y-66334054D01*
X77787113Y-66313010D01*
X77796389Y-66293383D01*
X77804096Y-66276348D01*
X77806813Y-66269854D01*
X77812826Y-66254784D01*
X77821137Y-66233469D01*
X77831470Y-66206646D01*
X77843547Y-66175054D01*
X77857092Y-66139431D01*
X77871827Y-66100514D01*
X77887475Y-66059041D01*
X77903760Y-66015750D01*
X77920404Y-65971378D01*
X77937130Y-65926665D01*
X77953661Y-65882347D01*
X77969721Y-65839163D01*
X77985031Y-65797850D01*
X77999315Y-65759146D01*
X78012297Y-65723790D01*
X78023698Y-65692518D01*
X78033242Y-65666069D01*
X78034031Y-65663894D01*
X78039547Y-65650381D01*
X78043874Y-65642811D01*
X78046525Y-65642065D01*
X78047019Y-65643120D01*
X78048539Y-65646884D01*
X78051068Y-65653513D01*
X78054736Y-65663367D01*
X78059672Y-65676803D01*
X78066007Y-65694182D01*
X78073869Y-65715862D01*
X78083390Y-65742202D01*
X78094697Y-65773563D01*
X78107922Y-65810302D01*
X78123194Y-65852778D01*
X78140643Y-65901352D01*
X78160398Y-65956382D01*
X78182589Y-66018228D01*
X78207346Y-66087247D01*
X78217093Y-66114372D01*
X78240991Y-66180353D01*
X78262971Y-66240143D01*
X78283439Y-66294766D01*
X78302803Y-66345244D01*
X78321469Y-66392603D01*
X78339844Y-66437864D01*
X78358336Y-66482053D01*
X78377351Y-66526192D01*
X78397297Y-66571306D01*
X78418581Y-66618417D01*
X78451856Y-66690053D01*
X78538364Y-66864671D01*
X78630655Y-67035014D01*
X78729037Y-67201552D01*
X78833818Y-67364753D01*
X78945306Y-67525084D01*
X79063809Y-67683015D01*
X79189635Y-67839013D01*
X79323092Y-67993547D01*
X79327362Y-67998322D01*
X79366042Y-68040726D01*
X79409454Y-68087007D01*
X79456492Y-68136062D01*
X79506050Y-68186786D01*
X79557022Y-68238074D01*
X79608302Y-68288821D01*
X79658785Y-68337924D01*
X79707365Y-68384276D01*
X79752936Y-68426775D01*
X79794392Y-68464315D01*
X79807887Y-68476303D01*
X79845046Y-68509214D01*
X79876387Y-68536808D01*
X79901977Y-68559144D01*
X79921884Y-68576280D01*
X79936176Y-68588276D01*
X79944921Y-68595189D01*
X79948188Y-68597079D01*
X79948325Y-68594905D01*
X79947657Y-68586213D01*
X79946117Y-68572541D01*
X79943885Y-68555636D01*
X79940205Y-68529724D01*
X79935395Y-68496902D01*
X79930495Y-68464858D01*
X79925337Y-68432632D01*
X79919755Y-68399269D01*
X79913581Y-68363809D01*
X79906648Y-68325297D01*
X79898787Y-68282774D01*
X79889832Y-68235283D01*
X79879615Y-68181867D01*
X79867969Y-68121568D01*
X79867529Y-68119296D01*
X79859815Y-68079490D01*
X79851286Y-68035470D01*
X79842410Y-67989650D01*
X79833655Y-67944444D01*
X79825488Y-67902265D01*
X79818377Y-67865527D01*
X79812839Y-67836932D01*
X79804762Y-67795269D01*
X79796195Y-67751122D01*
X79787640Y-67707075D01*
X79779599Y-67665714D01*
X79772573Y-67629623D01*
X79771206Y-67622600D01*
X79765646Y-67593871D01*
X79760665Y-67567891D01*
X79756456Y-67545681D01*
X79753211Y-67528261D01*
X79751124Y-67516651D01*
X79750385Y-67511872D01*
X79753058Y-67514020D01*
X79761030Y-67521456D01*
X79773936Y-67533831D01*
X79791407Y-67550782D01*
X79813076Y-67571949D01*
X79838575Y-67596970D01*
X79867537Y-67625484D01*
X79899595Y-67657130D01*
X79934381Y-67691547D01*
X79971528Y-67728372D01*
X80010667Y-67767246D01*
X80051432Y-67807807D01*
X80054019Y-67810383D01*
X80113408Y-67869483D01*
X80167623Y-67923336D01*
X80217103Y-67972360D01*
X80262286Y-68016974D01*
X80303614Y-68057596D01*
X80341524Y-68094644D01*
X80376457Y-68128537D01*
X80408852Y-68159694D01*
X80439148Y-68188532D01*
X80467785Y-68215471D01*
X80495203Y-68240928D01*
X80521840Y-68265321D01*
X80548137Y-68289070D01*
X80574532Y-68312593D01*
X80601466Y-68336308D01*
X80629377Y-68360633D01*
X80658705Y-68385988D01*
X80791273Y-68496880D01*
X80925741Y-68602793D01*
X81061505Y-68703315D01*
X81198060Y-68798118D01*
X81334902Y-68886875D01*
X81471527Y-68969258D01*
X81607430Y-69044941D01*
X81742106Y-69113596D01*
X81875050Y-69174896D01*
X81900155Y-69185682D01*
X81958299Y-69209592D01*
X82019099Y-69233274D01*
X82080929Y-69256149D01*
X82142164Y-69277640D01*
X82201179Y-69297170D01*
X82256348Y-69314161D01*
X82306044Y-69328036D01*
X82333834Y-69333812D01*
X82366869Y-69338044D01*
X82400959Y-69340205D01*
X82433231Y-69340117D01*
X82460812Y-69337604D01*
X82488928Y-69331904D01*
X82530952Y-69319234D01*
X82572829Y-69302046D01*
X82574593Y-69301116D01*
X82583640Y-69295694D01*
X82599102Y-69285971D01*
X82620813Y-69272059D01*
X82648605Y-69254065D01*
X82682313Y-69232101D01*
X82721769Y-69206277D01*
X82766807Y-69176702D01*
X82817261Y-69143487D01*
X82872964Y-69106741D01*
X82933749Y-69066574D01*
X82999450Y-69023097D01*
X83069899Y-68976418D01*
X83144931Y-68926649D01*
X83224379Y-68873900D01*
X83308076Y-68818279D01*
X83395856Y-68759898D01*
X83487552Y-68698866D01*
X83582997Y-68635293D01*
X83636473Y-68599664D01*
X83717564Y-68545645D01*
X83797447Y-68492442D01*
X83875818Y-68440256D01*
X83952374Y-68389288D01*
X84026814Y-68339739D01*
X84098834Y-68291811D01*
X84168131Y-68245705D01*
X84234403Y-68201623D01*
X84297348Y-68159764D01*
X84356662Y-68120332D01*
X84412042Y-68083526D01*
X84463187Y-68049549D01*
X84509793Y-68018601D01*
X84551558Y-67990884D01*
X84588179Y-67966599D01*
X84619354Y-67945947D01*
X84644778Y-67929129D01*
X84664151Y-67916348D01*
X84677169Y-67907803D01*
X84688271Y-67900555D01*
X84720272Y-67879669D01*
X84753155Y-67858214D01*
X84785405Y-67837178D01*
X84815505Y-67817551D01*
X84841939Y-67800321D01*
X84863190Y-67786478D01*
X84867364Y-67783759D01*
X84889174Y-67769518D01*
X84909326Y-67756302D01*
X84926557Y-67744944D01*
X84939604Y-67736276D01*
X84947203Y-67731131D01*
X84961206Y-67721367D01*
X84964111Y-67738438D01*
X84964405Y-67740272D01*
X84965964Y-67751326D01*
X84968197Y-67768445D01*
X84970920Y-67790162D01*
X84973948Y-67815011D01*
X84977097Y-67841523D01*
X84978388Y-67852527D01*
X84981266Y-67877008D01*
X84984883Y-67907741D01*
X84989113Y-67943657D01*
X84993832Y-67983687D01*
X84998912Y-68026762D01*
X85004228Y-68071814D01*
X85009653Y-68117775D01*
X85015062Y-68163574D01*
X85017666Y-68185619D01*
X85023272Y-68233102D01*
X85028927Y-68281021D01*
X85034489Y-68328177D01*
X85039817Y-68373375D01*
X85044770Y-68415417D01*
X85049207Y-68453104D01*
X85052986Y-68485241D01*
X85055968Y-68510629D01*
X85056460Y-68514816D01*
X85059889Y-68543258D01*
X85063106Y-68568776D01*
X85065973Y-68590366D01*
X85068354Y-68607021D01*
X85070111Y-68617737D01*
X85071106Y-68621507D01*
X85071296Y-68621413D01*
X85074808Y-68617272D01*
X85081678Y-68607903D01*
X85091009Y-68594561D01*
X85101901Y-68578500D01*
X85103507Y-68576103D01*
X85111563Y-68564128D01*
X85123577Y-68546312D01*
X85139143Y-68523256D01*
X85157855Y-68495561D01*
X85179308Y-68463827D01*
X85203095Y-68428654D01*
X85228811Y-68390644D01*
X85256048Y-68350396D01*
X85284402Y-68308511D01*
X85313466Y-68265590D01*
X85335453Y-68233125D01*
X85390137Y-68152375D01*
X85440676Y-68077741D01*
X85487315Y-68008856D01*
X85530305Y-67945353D01*
X85569893Y-67886866D01*
X85606328Y-67833026D01*
X85639858Y-67783469D01*
X85670731Y-67737825D01*
X85699195Y-67695729D01*
X85725500Y-67656813D01*
X85749892Y-67620711D01*
X85772621Y-67587055D01*
X85793934Y-67555478D01*
X85794459Y-67554700D01*
X85807504Y-67535383D01*
X85824165Y-67510730D01*
X85843610Y-67481971D01*
X85865008Y-67450337D01*
X85887526Y-67417055D01*
X85910334Y-67383356D01*
X85932600Y-67350469D01*
X85953107Y-67320186D01*
X85977883Y-67283596D01*
X86005358Y-67243019D01*
X86034623Y-67199797D01*
X86064768Y-67155275D01*
X86094884Y-67110794D01*
X86124062Y-67067697D01*
X86151393Y-67027327D01*
X86176706Y-66989938D01*
X86206252Y-66946298D01*
X86236999Y-66900887D01*
X86267998Y-66855105D01*
X86298302Y-66810350D01*
X86326963Y-66768024D01*
X86353033Y-66729524D01*
X86375567Y-66696251D01*
X86382376Y-66686195D01*
X86403288Y-66655309D01*
X86427748Y-66619171D01*
X86455080Y-66578784D01*
X86484606Y-66535148D01*
X86515649Y-66489265D01*
X86547532Y-66442136D01*
X86579577Y-66394761D01*
X86611108Y-66348143D01*
X86641445Y-66303281D01*
X86668337Y-66263523D01*
X86694541Y-66224803D01*
X86719269Y-66188284D01*
X86742148Y-66154517D01*
X86762801Y-66124058D01*
X86780853Y-66097459D01*
X86795927Y-66075275D01*
X86807649Y-66058060D01*
X86815642Y-66046366D01*
X86819532Y-66040749D01*
X86829893Y-66026255D01*
X86909465Y-66172769D01*
X86913667Y-66180506D01*
X86939849Y-66228703D01*
X86966092Y-66276996D01*
X86992072Y-66324789D01*
X87017465Y-66371490D01*
X87041949Y-66416504D01*
X87065201Y-66459238D01*
X87086896Y-66499097D01*
X87106713Y-66535489D01*
X87124327Y-66567818D01*
X87139416Y-66595491D01*
X87151656Y-66617915D01*
X87160724Y-66634495D01*
X87166297Y-66644637D01*
X87167259Y-66646368D01*
X87174104Y-66658065D01*
X87179317Y-66665947D01*
X87181837Y-66668391D01*
X87182156Y-66667693D01*
X87183959Y-66660512D01*
X87186994Y-66645999D01*
X87191189Y-66624571D01*
X87196470Y-66596645D01*
X87202765Y-66562637D01*
X87210000Y-66522963D01*
X87218101Y-66478040D01*
X87226996Y-66428283D01*
X87236612Y-66374111D01*
X87246876Y-66315939D01*
X87257714Y-66254183D01*
X87269052Y-66189261D01*
X87280819Y-66121588D01*
X87292941Y-66051581D01*
X87305345Y-65979656D01*
X87317957Y-65906230D01*
X87330705Y-65831719D01*
X87343515Y-65756541D01*
X87356314Y-65681110D01*
X87369029Y-65605844D01*
X87381587Y-65531160D01*
X87387174Y-65497866D01*
X87401614Y-65411984D01*
X87416189Y-65325521D01*
X87430755Y-65239323D01*
X87445167Y-65154239D01*
X87459281Y-65071117D01*
X87472953Y-64990802D01*
X87486039Y-64914144D01*
X87498395Y-64841989D01*
X87509876Y-64775186D01*
X87520339Y-64714581D01*
X87529638Y-64661023D01*
X87536413Y-64622157D01*
X87544843Y-64573841D01*
X87553121Y-64526441D01*
X87561389Y-64479157D01*
X87569788Y-64431190D01*
X87578456Y-64381740D01*
X87587535Y-64330007D01*
X87597166Y-64275192D01*
X87607487Y-64216496D01*
X87618640Y-64153119D01*
X87630765Y-64084262D01*
X87644003Y-64009124D01*
X87658493Y-63926907D01*
X87661070Y-63912284D01*
X87672232Y-63848930D01*
X87682099Y-63792827D01*
X87690752Y-63743455D01*
X87698270Y-63700295D01*
X87704733Y-63662831D01*
X87710220Y-63630544D01*
X87714812Y-63602915D01*
X87718589Y-63579427D01*
X87721630Y-63559560D01*
X87724015Y-63542797D01*
X87725824Y-63528620D01*
X87727137Y-63516511D01*
X87728033Y-63505950D01*
X87728593Y-63496420D01*
X87728896Y-63487404D01*
X87729022Y-63478381D01*
X87729050Y-63468835D01*
X87728941Y-63453783D01*
X87728122Y-63430609D01*
X87726285Y-63408555D01*
X87723175Y-63386389D01*
X87718536Y-63362882D01*
X87712112Y-63336803D01*
X87703647Y-63306923D01*
X87692886Y-63272011D01*
X87679573Y-63230837D01*
X87677051Y-63223122D01*
X87666121Y-63189171D01*
X87654494Y-63152347D01*
X87642983Y-63115262D01*
X87632401Y-63080531D01*
X87623561Y-63050769D01*
X87619813Y-63037933D01*
X87609657Y-63003369D01*
X87599102Y-62967785D01*
X87587897Y-62930354D01*
X87575792Y-62890248D01*
X87562534Y-62846643D01*
X87547874Y-62798712D01*
X87531561Y-62745629D01*
X87513343Y-62686568D01*
X87492970Y-62620701D01*
X87491441Y-62615761D01*
X87482796Y-62587803D01*
X87474052Y-62559456D01*
X87465070Y-62530266D01*
X87455711Y-62499779D01*
X87445839Y-62467539D01*
X87435314Y-62433093D01*
X87423998Y-62395986D01*
X87411754Y-62355764D01*
X87398443Y-62311971D01*
X87383926Y-62264154D01*
X87368067Y-62211857D01*
X87350726Y-62154627D01*
X87331765Y-62092010D01*
X87311047Y-62023549D01*
X87288433Y-61948792D01*
X87263785Y-61867283D01*
X87236964Y-61778569D01*
X87228922Y-61751980D01*
X87215381Y-61707280D01*
X87201435Y-61661311D01*
X87187535Y-61615561D01*
X87174134Y-61571518D01*
X87161686Y-61530672D01*
X87150642Y-61494509D01*
X87141455Y-61464519D01*
X87139283Y-61457435D01*
X87126540Y-61415329D01*
X87116147Y-61379742D01*
X87107907Y-61349760D01*
X87101625Y-61324465D01*
X87097107Y-61302942D01*
X87094155Y-61284276D01*
X87092576Y-61267550D01*
X87092174Y-61251849D01*
X87092752Y-61236256D01*
X87093161Y-61230184D01*
X87094410Y-61215997D01*
X87096230Y-61202633D01*
X87098931Y-61189299D01*
X87102822Y-61175199D01*
X87108212Y-61159542D01*
X87115411Y-61141534D01*
X87124728Y-61120380D01*
X87136471Y-61095288D01*
X87150952Y-61065463D01*
X87168479Y-61030113D01*
X87189360Y-60988444D01*
X87196342Y-60974541D01*
X87242322Y-60882373D01*
X87289711Y-60786349D01*
X87338937Y-60685590D01*
X87390429Y-60579220D01*
X87444616Y-60466362D01*
X87451193Y-60452613D01*
X87465305Y-60423113D01*
X87479469Y-60393504D01*
X87492810Y-60365617D01*
X87504450Y-60341285D01*
X87513514Y-60322339D01*
X87513657Y-60322040D01*
X87522166Y-60304312D01*
X87533411Y-60280961D01*
X87546649Y-60253528D01*
X87561135Y-60223554D01*
X87576126Y-60192581D01*
X87590876Y-60162149D01*
X87594235Y-60155200D01*
X87607583Y-60127099D01*
X87619831Y-60100569D01*
X87630484Y-60076728D01*
X87639050Y-60056695D01*
X87645037Y-60041589D01*
X87647952Y-60032527D01*
X87648623Y-60029240D01*
X87651497Y-60005298D01*
X87651065Y-59978989D01*
X87647185Y-59949153D01*
X87639715Y-59914632D01*
X87628512Y-59874269D01*
X87625408Y-59863907D01*
X87618924Y-59842187D01*
X87610486Y-59813851D01*
X87600280Y-59779535D01*
X87588497Y-59739876D01*
X87575325Y-59695513D01*
X87560953Y-59647082D01*
X87545570Y-59595220D01*
X87529366Y-59540565D01*
X87512528Y-59483755D01*
X87495246Y-59425426D01*
X87477708Y-59366216D01*
X87460104Y-59306761D01*
X87442623Y-59247700D01*
X87425453Y-59189670D01*
X87408783Y-59133307D01*
X87392803Y-59079250D01*
X87377701Y-59028136D01*
X87375051Y-59019179D01*
X87363445Y-58980276D01*
X87352225Y-58943176D01*
X87341655Y-58908720D01*
X87331998Y-58877748D01*
X87323519Y-58851100D01*
X87316482Y-58829615D01*
X87311150Y-58814133D01*
X87307786Y-58805495D01*
X87292512Y-58779800D01*
X87270499Y-58756084D01*
X87244279Y-58738452D01*
X87237075Y-58735429D01*
X87222695Y-58730198D01*
X87202580Y-58723319D01*
X87177748Y-58715126D01*
X87149216Y-58705954D01*
X87118000Y-58696138D01*
X87085117Y-58686014D01*
X87068877Y-58681065D01*
X87037558Y-58671508D01*
X87006192Y-58661919D01*
X86974238Y-58652130D01*
X86941152Y-58641973D01*
X86906392Y-58631281D01*
X86869416Y-58619886D01*
X86829682Y-58607621D01*
X86786647Y-58594318D01*
X86739768Y-58579809D01*
X86688505Y-58563927D01*
X86632314Y-58546504D01*
X86570652Y-58527372D01*
X86502978Y-58506365D01*
X86428750Y-58483314D01*
X86347424Y-58458052D01*
X86328598Y-58452204D01*
X86276413Y-58436000D01*
X86224630Y-58419932D01*
X86174054Y-58404246D01*
X86125488Y-58389194D01*
X86079738Y-58375023D01*
X86037606Y-58361982D01*
X85999898Y-58350321D01*
X85967418Y-58340290D01*
X85940969Y-58332135D01*
X85921357Y-58326108D01*
X85904336Y-58320882D01*
X85872034Y-58310926D01*
X85834990Y-58299473D01*
X85794983Y-58287073D01*
X85753789Y-58274280D01*
X85713189Y-58261643D01*
X85674960Y-58249715D01*
X85666318Y-58247016D01*
X85624956Y-58234171D01*
X85590316Y-58223583D01*
X85561655Y-58215067D01*
X85538228Y-58208438D01*
X85519290Y-58203514D01*
X85504096Y-58200109D01*
X85491901Y-58198039D01*
X85481960Y-58197120D01*
X85473530Y-58197169D01*
X85465864Y-58198000D01*
X85465016Y-58198131D01*
X85448346Y-58201292D01*
X85432998Y-58205649D01*
X85417956Y-58211818D01*
X85402201Y-58220416D01*
X85384717Y-58232060D01*
X85364487Y-58247366D01*
X85340492Y-58266952D01*
X85311715Y-58291433D01*
X85306375Y-58296025D01*
X85285171Y-58314162D01*
X85260214Y-58335395D01*
X85233346Y-58358163D01*
X85206407Y-58380905D01*
X85181240Y-58402059D01*
X85156738Y-58422613D01*
X85123413Y-58450598D01*
X85087254Y-58480993D01*
X85048951Y-58513217D01*
X85009191Y-58546689D01*
X84968665Y-58580826D01*
X84928061Y-58615048D01*
X84888069Y-58648773D01*
X84849379Y-58681420D01*
X84812679Y-58712409D01*
X84778659Y-58741156D01*
X84748008Y-58767082D01*
X84721415Y-58789605D01*
X84699570Y-58808144D01*
X84683162Y-58822117D01*
X84675648Y-58828527D01*
X84656600Y-58844707D01*
X84639796Y-58858884D01*
X84626193Y-58870256D01*
X84616748Y-58878020D01*
X84612418Y-58881375D01*
X84611795Y-58881523D01*
X84609528Y-58881208D01*
X84605503Y-58880028D01*
X84599394Y-58877838D01*
X84590876Y-58874494D01*
X84579626Y-58869852D01*
X84565317Y-58863768D01*
X84547626Y-58856097D01*
X84526227Y-58846695D01*
X84500795Y-58835418D01*
X84471007Y-58822121D01*
X84436535Y-58806661D01*
X84397057Y-58788892D01*
X84352247Y-58768672D01*
X84301781Y-58745854D01*
X84245333Y-58720296D01*
X84182578Y-58691853D01*
X84113193Y-58660380D01*
X84036851Y-58625733D01*
X84028952Y-58622151D01*
X83988108Y-58603720D01*
X83949043Y-58586246D01*
X83912443Y-58570025D01*
X83878995Y-58555354D01*
X83849385Y-58542533D01*
X83824300Y-58531858D01*
X83804427Y-58523628D01*
X83790453Y-58518139D01*
X83783064Y-58515690D01*
X83775690Y-58514430D01*
X83756811Y-58512935D01*
X83739124Y-58513412D01*
X83737719Y-58513598D01*
X83727274Y-58515694D01*
X83710354Y-58519711D01*
X83687936Y-58525393D01*
X83660998Y-58532482D01*
X83630518Y-58540722D01*
X83597474Y-58549858D01*
X83562844Y-58559632D01*
X83548296Y-58563777D01*
X83514427Y-58573414D01*
X83474500Y-58584758D01*
X83429606Y-58597500D01*
X83380832Y-58611333D01*
X83329270Y-58625947D01*
X83276008Y-58641034D01*
X83222135Y-58656284D01*
X83168741Y-58671390D01*
X83116915Y-58686041D01*
X83096630Y-58691774D01*
X83042632Y-58707042D01*
X82986704Y-58722863D01*
X82930051Y-58738897D01*
X82873874Y-58754803D01*
X82819379Y-58770240D01*
X82767770Y-58784867D01*
X82720249Y-58798343D01*
X82678021Y-58810327D01*
X82642289Y-58820477D01*
X82459710Y-58872384D01*
X82314238Y-58814642D01*
X82277373Y-58800032D01*
X82232780Y-58782448D01*
X82193624Y-58767145D01*
X82158769Y-58753696D01*
X82127077Y-58741676D01*
X82097410Y-58730660D01*
X82068632Y-58720220D01*
X82039605Y-58709932D01*
X82009192Y-58699370D01*
X81976255Y-58688108D01*
X81872566Y-58654516D01*
X81750233Y-58619443D01*
X81632259Y-58590813D01*
X81518475Y-58568593D01*
X81408714Y-58552753D01*
X81302808Y-58543260D01*
X81200589Y-58540081D01*
X81134870Y-58541881D01*
X81063579Y-58548178D01*
X80991772Y-58559230D01*
X80918177Y-58575278D01*
X80841525Y-58596561D01*
X80760544Y-58623321D01*
X80722017Y-58637399D01*
X80669645Y-58657614D01*
X80612982Y-58680489D01*
X80553530Y-58705374D01*
X80492789Y-58731619D01*
X80432261Y-58758571D01*
X80373449Y-58785582D01*
X80317852Y-58811999D01*
X80266973Y-58837174D01*
X80248066Y-58846695D01*
X80221216Y-58859990D01*
X80197202Y-58871615D01*
X80176879Y-58881170D01*
X80161102Y-58888256D01*
X80150725Y-58892473D01*
X80146604Y-58893421D01*
X80146356Y-58893131D01*
X80142212Y-58888205D01*
X80133742Y-58878105D01*
X80121621Y-58863639D01*
X80106525Y-58845612D01*
X80089129Y-58824830D01*
X80070108Y-58802100D01*
X80024083Y-58748430D01*
X79967266Y-58686214D01*
X79911639Y-58630073D01*
X79856351Y-58579196D01*
X79800550Y-58532768D01*
X79743386Y-58489977D01*
X79684816Y-58450554D01*
X79592392Y-58396264D01*
X79495864Y-58348655D01*
X79395696Y-58307926D01*
X79292352Y-58274281D01*
X79186296Y-58247921D01*
X79087155Y-58230552D01*
X78983171Y-58220055D01*
X78879608Y-58217545D01*
X78776484Y-58223020D01*
X78673821Y-58236476D01*
X78571636Y-58257912D01*
X78469950Y-58287325D01*
X78368782Y-58324711D01*
X78268152Y-58370070D01*
X78266214Y-58371024D01*
X78161891Y-58426834D01*
X78062114Y-58489043D01*
X77967154Y-58557393D01*
X77877282Y-58631630D01*
X77792769Y-58711497D01*
X77713887Y-58796737D01*
X77640906Y-58887096D01*
X77574099Y-58982317D01*
X77513736Y-59082144D01*
X77465212Y-59175792D01*
X77419241Y-59279988D01*
X77379112Y-59388479D01*
X77345085Y-59500409D01*
X77317418Y-59614920D01*
X77296370Y-59731157D01*
X77282200Y-59848265D01*
X77280793Y-59868155D01*
X77279538Y-59897012D01*
X77278683Y-59930431D01*
X77278229Y-59966617D01*
X77278178Y-60003778D01*
X77278530Y-60040121D01*
X77279286Y-60073852D01*
X77280449Y-60103179D01*
X77282018Y-60126308D01*
X77291230Y-60206757D01*
X77310286Y-60317413D01*
X77336626Y-60425956D01*
X77370369Y-60532714D01*
X77411634Y-60638013D01*
X77460541Y-60742182D01*
X77517210Y-60845548D01*
X77581758Y-60948438D01*
X77588985Y-60959209D01*
X77610666Y-60990688D01*
X77633230Y-61022118D01*
X77657580Y-61054691D01*
X77684618Y-61089599D01*
X77715246Y-61128033D01*
X77750366Y-61171184D01*
X77769719Y-61194847D01*
X77785733Y-61214687D01*
X77797620Y-61229857D01*
X77805901Y-61241108D01*
X77811099Y-61249192D01*
X77813736Y-61254862D01*
X77814333Y-61258868D01*
X77813413Y-61261963D01*
X77810647Y-61266977D01*
X77804342Y-61278151D01*
X77795161Y-61294307D01*
X77783681Y-61314428D01*
X77770483Y-61337499D01*
X77756144Y-61362503D01*
X77727060Y-61413561D01*
X77689475Y-61481046D01*
X77655192Y-61544651D01*
X77623432Y-61605922D01*
X77593416Y-61666404D01*
X77564363Y-61727644D01*
X77535495Y-61791188D01*
X77506032Y-61858581D01*
X77491801Y-61892087D01*
X77428612Y-62051349D01*
X77370334Y-62215988D01*
X77317179Y-62385072D01*
X77269359Y-62557669D01*
X77227085Y-62732848D01*
X77190571Y-62909677D01*
X77160028Y-63087224D01*
X77135668Y-63264558D01*
X77117703Y-63440746D01*
X77106345Y-63614858D01*
X77102343Y-63719889D01*
X77099593Y-63926306D01*
X76884961Y-63926306D01*
X76884819Y-63884900D01*
X76885031Y-63828747D01*
X76887246Y-63699999D01*
X76891978Y-63576594D01*
X76899359Y-63456905D01*
X76909521Y-63339304D01*
X76922595Y-63222164D01*
X76938714Y-63103858D01*
X76958010Y-62982758D01*
X76991627Y-62801771D01*
X77035364Y-62602953D01*
X77085427Y-62408806D01*
X77141797Y-62219389D01*
X77204454Y-62034757D01*
X77273380Y-61854967D01*
X77348553Y-61680076D01*
X77429956Y-61510141D01*
X77517569Y-61345219D01*
X77517612Y-61345142D01*
X77529095Y-61324425D01*
X77539091Y-61306093D01*
X77546988Y-61291291D01*
X77552174Y-61281164D01*
X77554039Y-61276860D01*
X77552583Y-61274022D01*
X77547027Y-61265935D01*
X77538286Y-61254164D01*
X77527394Y-61240135D01*
X77499967Y-61204931D01*
X77422244Y-61098183D01*
X77352352Y-60990890D01*
X77290165Y-60882764D01*
X77235555Y-60773516D01*
X77188397Y-60662856D01*
X77148562Y-60550496D01*
X77115926Y-60436146D01*
X77090360Y-60319517D01*
X77071739Y-60200320D01*
X77070970Y-60193717D01*
X77068734Y-60168179D01*
X77066803Y-60136641D01*
X77065203Y-60100620D01*
X77063962Y-60061630D01*
X77063105Y-60021189D01*
X77062661Y-59980812D01*
X77062655Y-59942015D01*
X77063115Y-59906314D01*
X77064068Y-59875225D01*
X77065539Y-59850265D01*
X77069429Y-59807456D01*
X77086079Y-59678704D01*
X77109911Y-59551979D01*
X77140778Y-59427723D01*
X77178533Y-59306376D01*
X77223029Y-59188379D01*
X77274121Y-59074173D01*
X77331660Y-58964197D01*
X77395501Y-58858894D01*
X77418383Y-58824634D01*
X77486707Y-58731428D01*
X77561144Y-58642135D01*
X77641179Y-58557126D01*
X77726296Y-58476771D01*
X77815977Y-58401440D01*
X77909707Y-58331505D01*
X78006969Y-58267336D01*
X78107248Y-58209303D01*
X78210025Y-58157777D01*
X78314786Y-58113130D01*
X78421014Y-58075730D01*
X78528193Y-58045949D01*
X78574848Y-58035368D01*
X78654815Y-58020519D01*
X78733943Y-58010306D01*
X78814874Y-58004421D01*
X78900251Y-58002557D01*
X78913842Y-58002608D01*
X79001736Y-58005318D01*
X79086104Y-58012358D01*
X79168746Y-58024028D01*
X79251464Y-58040628D01*
X79336059Y-58062457D01*
X79424334Y-58089816D01*
X79425511Y-58090209D01*
X79533551Y-58130136D01*
X79637049Y-58176313D01*
X79736291Y-58228929D01*
X79831559Y-58288176D01*
X79923140Y-58354244D01*
X80011318Y-58427325D01*
X80096377Y-58507608D01*
X80178602Y-58595284D01*
X80204456Y-58624506D01*
X80250778Y-58602634D01*
X80268542Y-58594377D01*
X80299336Y-58580451D01*
X80335095Y-58564625D01*
X80374458Y-58547477D01*
X80416063Y-58529585D01*
X80458548Y-58511526D01*
X80500552Y-58493878D01*
X80540713Y-58477219D01*
X80577670Y-58462127D01*
X80610061Y-58449179D01*
X80636525Y-58438953D01*
X80683545Y-58421724D01*
X80770318Y-58392708D01*
X80853276Y-58369003D01*
X80933700Y-58350448D01*
X81012869Y-58336881D01*
X81092061Y-58328140D01*
X81172557Y-58324065D01*
X81255634Y-58324493D01*
X81342572Y-58329264D01*
X81434650Y-58338216D01*
X81487893Y-58344965D01*
X81563368Y-58356607D01*
X81639872Y-58370896D01*
X81718042Y-58388013D01*
X81798515Y-58408138D01*
X81881928Y-58431454D01*
X81968919Y-58458139D01*
X82060125Y-58488375D01*
X82156183Y-58522344D01*
X82257730Y-58560224D01*
X82365405Y-58602198D01*
X82471239Y-58644246D01*
X82812080Y-58547699D01*
X82844344Y-58538561D01*
X82897243Y-58523580D01*
X82949265Y-58508850D01*
X82999653Y-58494586D01*
X83047648Y-58481002D01*
X83092493Y-58468313D01*
X83133430Y-58456732D01*
X83169701Y-58446475D01*
X83200547Y-58437756D01*
X83225211Y-58430789D01*
X83242935Y-58425789D01*
X83247724Y-58424439D01*
X83273415Y-58417183D01*
X83305038Y-58408234D01*
X83341151Y-58398002D01*
X83380311Y-58386895D01*
X83421079Y-58375322D01*
X83462012Y-58363692D01*
X83501669Y-58352413D01*
X83510845Y-58349809D01*
X83549894Y-58338880D01*
X83586718Y-58328817D01*
X83620411Y-58319854D01*
X83650063Y-58312225D01*
X83674767Y-58306166D01*
X83693616Y-58301910D01*
X83705701Y-58299692D01*
X83713650Y-58298731D01*
X83765325Y-58297116D01*
X83818526Y-58303304D01*
X83873138Y-58317275D01*
X83929043Y-58339007D01*
X83932546Y-58340596D01*
X83949309Y-58348215D01*
X83971612Y-58358372D01*
X83998097Y-58370446D01*
X84027406Y-58383820D01*
X84058182Y-58397873D01*
X84089068Y-58411987D01*
X84112607Y-58422735D01*
X84140729Y-58435552D01*
X84172487Y-58450009D01*
X84207101Y-58465752D01*
X84243791Y-58482426D01*
X84281777Y-58499679D01*
X84320280Y-58517156D01*
X84358518Y-58534504D01*
X84395713Y-58551368D01*
X84431085Y-58567397D01*
X84463853Y-58582234D01*
X84493237Y-58595528D01*
X84518458Y-58606923D01*
X84538736Y-58616067D01*
X84553291Y-58622605D01*
X84561342Y-58626185D01*
X84573543Y-58631511D01*
X84661357Y-58557383D01*
X84675924Y-58545091D01*
X84706777Y-58519078D01*
X84740066Y-58491033D01*
X84773655Y-58462757D01*
X84805407Y-58436047D01*
X84833185Y-58412704D01*
X84835618Y-58410661D01*
X84856313Y-58393259D01*
X84881994Y-58371633D01*
X84911679Y-58346614D01*
X84944385Y-58319031D01*
X84979127Y-58289715D01*
X85014922Y-58259493D01*
X85050787Y-58229197D01*
X85085737Y-58199657D01*
X85101413Y-58186431D01*
X85133561Y-58159481D01*
X85164400Y-58133851D01*
X85193249Y-58110096D01*
X85219426Y-58088768D01*
X85242249Y-58070422D01*
X85261035Y-58055612D01*
X85275102Y-58044891D01*
X85283769Y-58038815D01*
X85329462Y-58014169D01*
X85376931Y-57996560D01*
X85426457Y-57986235D01*
X85479287Y-57982837D01*
X85483157Y-57982839D01*
X85501137Y-57983083D01*
X85517493Y-57983896D01*
X85533378Y-57985524D01*
X85549944Y-57988209D01*
X85568343Y-57992195D01*
X85589727Y-57997727D01*
X85615249Y-58005048D01*
X85646059Y-58014403D01*
X85683312Y-58026035D01*
X85696558Y-58030193D01*
X85726839Y-58039660D01*
X85762589Y-58050795D01*
X85802380Y-58063157D01*
X85844782Y-58076302D01*
X85888366Y-58089787D01*
X85931703Y-58103168D01*
X85973365Y-58116002D01*
X85989617Y-58121005D01*
X86032037Y-58134084D01*
X86079958Y-58148884D01*
X86131888Y-58164942D01*
X86186334Y-58181797D01*
X86241804Y-58198985D01*
X86296805Y-58216046D01*
X86349845Y-58232517D01*
X86399432Y-58247935D01*
X86462315Y-58267494D01*
X86566532Y-58299869D01*
X86666876Y-58330990D01*
X86762810Y-58360690D01*
X86853797Y-58388805D01*
X86939301Y-58415169D01*
X87018785Y-58439615D01*
X87091714Y-58461979D01*
X87157551Y-58482094D01*
X87185587Y-58490745D01*
X87218529Y-58501170D01*
X87249514Y-58511245D01*
X87277398Y-58520586D01*
X87301038Y-58528810D01*
X87319292Y-58535531D01*
X87331016Y-58540367D01*
X87366011Y-58559053D01*
X87408649Y-58589598D01*
X87446286Y-58626388D01*
X87478918Y-58669420D01*
X87483777Y-58677011D01*
X87492372Y-58691456D01*
X87500266Y-58706485D01*
X87507855Y-58723121D01*
X87515534Y-58742383D01*
X87523698Y-58765292D01*
X87532742Y-58792869D01*
X87543060Y-58826135D01*
X87555049Y-58866110D01*
X87558859Y-58878953D01*
X87565983Y-58902968D01*
X87575036Y-58933483D01*
X87585816Y-58969818D01*
X87598120Y-59011290D01*
X87611746Y-59057217D01*
X87626491Y-59106919D01*
X87642155Y-59159714D01*
X87658533Y-59214921D01*
X87675425Y-59271857D01*
X87692629Y-59329841D01*
X87709941Y-59388192D01*
X87727685Y-59447987D01*
X87747753Y-59515589D01*
X87765763Y-59576271D01*
X87781827Y-59630451D01*
X87796059Y-59678547D01*
X87808571Y-59720978D01*
X87819475Y-59758161D01*
X87828883Y-59790516D01*
X87836908Y-59818459D01*
X87843663Y-59842410D01*
X87849260Y-59862786D01*
X87853811Y-59880006D01*
X87857430Y-59894488D01*
X87860227Y-59906650D01*
X87862316Y-59916909D01*
X87863810Y-59925686D01*
X87864820Y-59933397D01*
X87865459Y-59940460D01*
X87865840Y-59947295D01*
X87866075Y-59954319D01*
X87866277Y-59961950D01*
X87866557Y-59970607D01*
X87867147Y-59996910D01*
X87866357Y-60026611D01*
X87863532Y-60054265D01*
X87858305Y-60081346D01*
X87850308Y-60109324D01*
X87839176Y-60139674D01*
X87824540Y-60173866D01*
X87806035Y-60213373D01*
X87802211Y-60221309D01*
X87793006Y-60240437D01*
X87780932Y-60265540D01*
X87766370Y-60295830D01*
X87749698Y-60330520D01*
X87731294Y-60368821D01*
X87711538Y-60409945D01*
X87690808Y-60453104D01*
X87669482Y-60497509D01*
X87647940Y-60542374D01*
X87625851Y-60588268D01*
X87599655Y-60642455D01*
X87572086Y-60699266D01*
X87543832Y-60757295D01*
X87515579Y-60815133D01*
X87488016Y-60871375D01*
X87461828Y-60924613D01*
X87437705Y-60973439D01*
X87416333Y-61016449D01*
X87395821Y-61057523D01*
X87375664Y-61097910D01*
X87358616Y-61132331D01*
X87344473Y-61161441D01*
X87333034Y-61185895D01*
X87324092Y-61206348D01*
X87317446Y-61223456D01*
X87312891Y-61237874D01*
X87310224Y-61250256D01*
X87309242Y-61261258D01*
X87309740Y-61271535D01*
X87311515Y-61281742D01*
X87314363Y-61292535D01*
X87318081Y-61304568D01*
X87322466Y-61318496D01*
X87324244Y-61324272D01*
X87333493Y-61354402D01*
X87344750Y-61391186D01*
X87357765Y-61433802D01*
X87372288Y-61481429D01*
X87388070Y-61533246D01*
X87404862Y-61588431D01*
X87422413Y-61646163D01*
X87440474Y-61705620D01*
X87458795Y-61765982D01*
X87477128Y-61826427D01*
X87495221Y-61886134D01*
X87512826Y-61944281D01*
X87529693Y-62000048D01*
X87545573Y-62052612D01*
X87552601Y-62075887D01*
X87567074Y-62123768D01*
X87581377Y-62171033D01*
X87595243Y-62216802D01*
X87608405Y-62260193D01*
X87620595Y-62300326D01*
X87631546Y-62336321D01*
X87640991Y-62367297D01*
X87648662Y-62392373D01*
X87654292Y-62410668D01*
X87657499Y-62421038D01*
X87684439Y-62508231D01*
X87709373Y-62589114D01*
X87732251Y-62663522D01*
X87753022Y-62731290D01*
X87771637Y-62792253D01*
X87788044Y-62846246D01*
X87802193Y-62893104D01*
X87814034Y-62932662D01*
X87823516Y-62964755D01*
X87825666Y-62972073D01*
X87836123Y-63007059D01*
X87847812Y-63045382D01*
X87859881Y-63084283D01*
X87871473Y-63121003D01*
X87881736Y-63152785D01*
X87889421Y-63176373D01*
X87903635Y-63221244D01*
X87915304Y-63260365D01*
X87924659Y-63294899D01*
X87931932Y-63326006D01*
X87937354Y-63354851D01*
X87941159Y-63382594D01*
X87943577Y-63410397D01*
X87944840Y-63439424D01*
X87945159Y-63468835D01*
X87945181Y-63470835D01*
G37*
G36*
X80236131Y-59347147D02*
G01*
X80152226Y-59397348D01*
X80070830Y-59448205D01*
X79992928Y-59499194D01*
X79925414Y-59545302D01*
X79778074Y-59651931D01*
X79637554Y-59762287D01*
X79503528Y-59876666D01*
X79375671Y-59995364D01*
X79253655Y-60118679D01*
X79137156Y-60246909D01*
X79025848Y-60380348D01*
X78941373Y-60489866D01*
X78837628Y-60635930D01*
X78739973Y-60787092D01*
X78648462Y-60943243D01*
X78563145Y-61104271D01*
X78484076Y-61270064D01*
X78411307Y-61440512D01*
X78344890Y-61615504D01*
X78284877Y-61794928D01*
X78231322Y-61978674D01*
X78184275Y-62166630D01*
X78170036Y-62229734D01*
X78129122Y-62428647D01*
X78094500Y-62626835D01*
X78066041Y-62825383D01*
X78043619Y-63025374D01*
X78027108Y-63227895D01*
X78016379Y-63434030D01*
X78011307Y-63644863D01*
X78010997Y-63680758D01*
X78010788Y-63745200D01*
X78010996Y-63809963D01*
X78011600Y-63874007D01*
X78012577Y-63936293D01*
X78013907Y-63995780D01*
X78015569Y-64051429D01*
X78017541Y-64102199D01*
X78019803Y-64147052D01*
X78022332Y-64184948D01*
X78024117Y-64206540D01*
X78027356Y-64240371D01*
X78030797Y-64270486D01*
X78034318Y-64296029D01*
X78037796Y-64316146D01*
X78041108Y-64329982D01*
X78044131Y-64336682D01*
X78045903Y-64338462D01*
X78047997Y-64339982D01*
X78049779Y-64339377D01*
X78051545Y-64335688D01*
X78053588Y-64327959D01*
X78056201Y-64315233D01*
X78059679Y-64296553D01*
X78064316Y-64270961D01*
X78064439Y-64270283D01*
X78068978Y-64246921D01*
X78074986Y-64218303D01*
X78081933Y-64186830D01*
X78089288Y-64154907D01*
X78096522Y-64124938D01*
X78119747Y-64037446D01*
X78159689Y-63908587D01*
X78206036Y-63781843D01*
X78259009Y-63656769D01*
X78318825Y-63532921D01*
X78385704Y-63409856D01*
X78459864Y-63287127D01*
X78541526Y-63164292D01*
X78630907Y-63040906D01*
X78634317Y-63036385D01*
X78652973Y-63011751D01*
X78670613Y-62988622D01*
X78686482Y-62967978D01*
X78699823Y-62950797D01*
X78709880Y-62938061D01*
X78715897Y-62930750D01*
X78729924Y-62914748D01*
X78730074Y-62935205D01*
X78730010Y-62940340D01*
X78728779Y-62958583D01*
X78726452Y-62975552D01*
X78724561Y-62987358D01*
X78721940Y-63007308D01*
X78718883Y-63033404D01*
X78715477Y-63064675D01*
X78711816Y-63100154D01*
X78707988Y-63138870D01*
X78704084Y-63179854D01*
X78700196Y-63222138D01*
X78696413Y-63264750D01*
X78692826Y-63306724D01*
X78689525Y-63347088D01*
X78686602Y-63384873D01*
X78684146Y-63419111D01*
X78682249Y-63448832D01*
X78681487Y-63463527D01*
X78680404Y-63489349D01*
X78679305Y-63520547D01*
X78678236Y-63555609D01*
X78677243Y-63593024D01*
X78676369Y-63631280D01*
X78675661Y-63668866D01*
X78675010Y-63790827D01*
X78679848Y-63986461D01*
X78691980Y-64178943D01*
X78711400Y-64368247D01*
X78738104Y-64554347D01*
X78772086Y-64737218D01*
X78813340Y-64916834D01*
X78861860Y-65093170D01*
X78917642Y-65266199D01*
X78980679Y-65435898D01*
X79050966Y-65602238D01*
X79128497Y-65765196D01*
X79140839Y-65789630D01*
X79163772Y-65834454D01*
X79183767Y-65872703D01*
X79200760Y-65904260D01*
X79214685Y-65929008D01*
X79225479Y-65946830D01*
X79233076Y-65957608D01*
X79237411Y-65961227D01*
X79238327Y-65961067D01*
X79239569Y-65959897D01*
X79240545Y-65957097D01*
X79241249Y-65952089D01*
X79241672Y-65944294D01*
X79241807Y-65933133D01*
X79241644Y-65918029D01*
X79241177Y-65898402D01*
X79240397Y-65873675D01*
X79239296Y-65843268D01*
X79237867Y-65806603D01*
X79236102Y-65763102D01*
X79233992Y-65712185D01*
X79232192Y-65658041D01*
X79231199Y-65548667D01*
X79233589Y-65438913D01*
X79239273Y-65330725D01*
X79248165Y-65226049D01*
X79260178Y-65126831D01*
X79262372Y-65111845D01*
X79268391Y-65074393D01*
X79275472Y-65034343D01*
X79283336Y-64993011D01*
X79291704Y-64951709D01*
X79300297Y-64911753D01*
X79308836Y-64874455D01*
X79317042Y-64841131D01*
X79324636Y-64813093D01*
X79331339Y-64791657D01*
X79334682Y-64783232D01*
X79337873Y-64779630D01*
X79341306Y-64781819D01*
X79341899Y-64782832D01*
X79344864Y-64790555D01*
X79349344Y-64804387D01*
X79354970Y-64823106D01*
X79361371Y-64845490D01*
X79368174Y-64870317D01*
X79403318Y-64994120D01*
X79459126Y-65167108D01*
X79521835Y-65336473D01*
X79591603Y-65502567D01*
X79668591Y-65665740D01*
X79752958Y-65826346D01*
X79835866Y-65969229D01*
X79844863Y-65984734D01*
X79944464Y-66141256D01*
X79953002Y-66154064D01*
X80011040Y-66239139D01*
X80067961Y-66318886D01*
X80125194Y-66395217D01*
X80184167Y-66470042D01*
X80246306Y-66545272D01*
X80272380Y-66575769D01*
X80294654Y-66600964D01*
X80312638Y-66620298D01*
X80326239Y-66633688D01*
X80335364Y-66641049D01*
X80339922Y-66642297D01*
X80339818Y-66637347D01*
X80334961Y-66626114D01*
X80333857Y-66623887D01*
X80328287Y-66611549D01*
X80324421Y-66601328D01*
X80324296Y-66600945D01*
X80321351Y-66593625D01*
X80315618Y-66580508D01*
X80307679Y-66562888D01*
X80298115Y-66542059D01*
X80287510Y-66519315D01*
X80245799Y-66429397D01*
X80167975Y-66254729D01*
X80095872Y-66083006D01*
X80074000Y-66027359D01*
X81257046Y-66027359D01*
X81257508Y-66076299D01*
X81259964Y-66129995D01*
X81264380Y-66187576D01*
X81270724Y-66248175D01*
X81278961Y-66310923D01*
X81295782Y-66409354D01*
X81322200Y-66523215D01*
X81355564Y-66633174D01*
X81395934Y-66739374D01*
X81443370Y-66841957D01*
X81497933Y-66941063D01*
X81559683Y-67036834D01*
X81628681Y-67129411D01*
X81648887Y-67154241D01*
X81714379Y-67228330D01*
X81782132Y-67295595D01*
X81851922Y-67355890D01*
X81923521Y-67409071D01*
X81996706Y-67454991D01*
X82071251Y-67493504D01*
X82146929Y-67524466D01*
X82223516Y-67547731D01*
X82300787Y-67563153D01*
X82339559Y-67567902D01*
X82418766Y-67571626D01*
X82498277Y-67567433D01*
X82577735Y-67555351D01*
X82656787Y-67535408D01*
X82677423Y-67528855D01*
X82752662Y-67499953D01*
X82827450Y-67463488D01*
X82901351Y-67419806D01*
X82973930Y-67369249D01*
X83044752Y-67312162D01*
X83113381Y-67248889D01*
X83179383Y-67179774D01*
X83242322Y-67105162D01*
X83301764Y-67025395D01*
X83330851Y-66982245D01*
X83385094Y-66891680D01*
X83432859Y-66797109D01*
X83474223Y-66698322D01*
X83509260Y-66595110D01*
X83538045Y-66487263D01*
X83560653Y-66374572D01*
X83577159Y-66256828D01*
X83578256Y-66244411D01*
X84468109Y-66244411D01*
X84468336Y-66244603D01*
X84473455Y-66243043D01*
X84484988Y-66237675D01*
X84502543Y-66228705D01*
X84525728Y-66216342D01*
X84554153Y-66200795D01*
X84587425Y-66182270D01*
X84625153Y-66160976D01*
X84664581Y-66138593D01*
X84721753Y-66106137D01*
X84772589Y-66077276D01*
X84817473Y-66051793D01*
X84856787Y-66029472D01*
X84890914Y-66010093D01*
X84920235Y-65993440D01*
X84945133Y-65979295D01*
X84965991Y-65967441D01*
X84983191Y-65957661D01*
X84997115Y-65949735D01*
X85008146Y-65943449D01*
X85016667Y-65938582D01*
X85023059Y-65934919D01*
X85027705Y-65932242D01*
X85030988Y-65930333D01*
X85033290Y-65928975D01*
X85034994Y-65927949D01*
X85036481Y-65927040D01*
X85036620Y-65926962D01*
X85037241Y-65926746D01*
X85037823Y-65926594D01*
X85038372Y-65926261D01*
X85038895Y-65925503D01*
X85039399Y-65924075D01*
X85039890Y-65921733D01*
X85040376Y-65918233D01*
X85040861Y-65913330D01*
X85041354Y-65906780D01*
X85041862Y-65898339D01*
X85042389Y-65887762D01*
X85042944Y-65874805D01*
X85043533Y-65859225D01*
X85044162Y-65840775D01*
X85044839Y-65819213D01*
X85045569Y-65794294D01*
X85046360Y-65765773D01*
X85047218Y-65733406D01*
X85048150Y-65696949D01*
X85049162Y-65656158D01*
X85050261Y-65610788D01*
X85051454Y-65560595D01*
X85052747Y-65505334D01*
X85054148Y-65444762D01*
X85055662Y-65378633D01*
X85057296Y-65306705D01*
X85059057Y-65228731D01*
X85060952Y-65144469D01*
X85062987Y-65053673D01*
X85065169Y-64956100D01*
X85065762Y-64929549D01*
X85699953Y-64929549D01*
X85701836Y-65120337D01*
X85702239Y-65157815D01*
X85702699Y-65194499D01*
X85703189Y-65228238D01*
X85703693Y-65258190D01*
X85704196Y-65283512D01*
X85704682Y-65303361D01*
X85705135Y-65316895D01*
X85705542Y-65323271D01*
X85706095Y-65326126D01*
X85707546Y-65329540D01*
X85710578Y-65332952D01*
X85716020Y-65336806D01*
X85724700Y-65341542D01*
X85737445Y-65347604D01*
X85755085Y-65355432D01*
X85778447Y-65365471D01*
X85808360Y-65378161D01*
X85831526Y-65387960D01*
X85861031Y-65400425D01*
X85889375Y-65412384D01*
X85915007Y-65423184D01*
X85936376Y-65432171D01*
X85951929Y-65438689D01*
X85994503Y-65456473D01*
X86165629Y-65199775D01*
X86170906Y-65191857D01*
X86197833Y-65151395D01*
X86223364Y-65112927D01*
X86247161Y-65076971D01*
X86268885Y-65044045D01*
X86288195Y-65014665D01*
X86304753Y-64989350D01*
X86318219Y-64968615D01*
X86328255Y-64952979D01*
X86334519Y-64942959D01*
X86336674Y-64939071D01*
X86336598Y-64938281D01*
X86334794Y-64930668D01*
X86330877Y-64917225D01*
X86325228Y-64899073D01*
X86318229Y-64877331D01*
X86310258Y-64853121D01*
X86301698Y-64827563D01*
X86292927Y-64801777D01*
X86284327Y-64776884D01*
X86276279Y-64754004D01*
X86269162Y-64734259D01*
X86263356Y-64718767D01*
X86259244Y-64708651D01*
X86257204Y-64705030D01*
X86257175Y-64705032D01*
X86252695Y-64706602D01*
X86241534Y-64710887D01*
X86224395Y-64717604D01*
X86201982Y-64726471D01*
X86174998Y-64737202D01*
X86144149Y-64749517D01*
X86110137Y-64763131D01*
X86073667Y-64777761D01*
X86035442Y-64793124D01*
X85996168Y-64808937D01*
X85956547Y-64824917D01*
X85917284Y-64840779D01*
X85879083Y-64856243D01*
X85842648Y-64871023D01*
X85808682Y-64884837D01*
X85777889Y-64897402D01*
X85750975Y-64908434D01*
X85728642Y-64917651D01*
X85699953Y-64929549D01*
X85065762Y-64929549D01*
X85067505Y-64851505D01*
X85070001Y-64739643D01*
X85072664Y-64620271D01*
X85075500Y-64493144D01*
X85088039Y-63931203D01*
X85076631Y-63922049D01*
X85072168Y-63918703D01*
X85061457Y-63910972D01*
X85045712Y-63899761D01*
X85025774Y-63885663D01*
X85002483Y-63869272D01*
X84976680Y-63851184D01*
X84949204Y-63831990D01*
X84936893Y-63823404D01*
X84904844Y-63801050D01*
X84871784Y-63777984D01*
X84839226Y-63755265D01*
X84808687Y-63733949D01*
X84781681Y-63715094D01*
X84759724Y-63699757D01*
X84748961Y-63692271D01*
X84728708Y-63678379D01*
X84711174Y-63666608D01*
X84697312Y-63657584D01*
X84688074Y-63651932D01*
X84684413Y-63650279D01*
X84683998Y-63653789D01*
X84682935Y-63664987D01*
X84681259Y-63683587D01*
X84678995Y-63709293D01*
X84676167Y-63741807D01*
X84672802Y-63780832D01*
X84668923Y-63826072D01*
X84664557Y-63877229D01*
X84659728Y-63934008D01*
X84654461Y-63996110D01*
X84648782Y-64063239D01*
X84642715Y-64135099D01*
X84636286Y-64211391D01*
X84629520Y-64291820D01*
X84622442Y-64376088D01*
X84615077Y-64463899D01*
X84607450Y-64554956D01*
X84599587Y-64648961D01*
X84591511Y-64745618D01*
X84583250Y-64844630D01*
X84574827Y-64945700D01*
X84567078Y-65038785D01*
X84564622Y-65068315D01*
X84558825Y-65138026D01*
X84550773Y-65234953D01*
X84542946Y-65329268D01*
X84535370Y-65420674D01*
X84528067Y-65508873D01*
X84521064Y-65593566D01*
X84514384Y-65674457D01*
X84508052Y-65751246D01*
X84502092Y-65823636D01*
X84496529Y-65891330D01*
X84491388Y-65954029D01*
X84489898Y-65972245D01*
X84486692Y-66011436D01*
X84482466Y-66063252D01*
X84478735Y-66109180D01*
X84475523Y-66148921D01*
X84472855Y-66182179D01*
X84470755Y-66208655D01*
X84469248Y-66228051D01*
X84468358Y-66240069D01*
X84468109Y-66244411D01*
X83578256Y-66244411D01*
X83578322Y-66243665D01*
X83579518Y-66224918D01*
X83580697Y-66201761D01*
X83581836Y-66175148D01*
X83582913Y-66146033D01*
X83583905Y-66115371D01*
X83584787Y-66084115D01*
X83585538Y-66053220D01*
X83586133Y-66023641D01*
X83586550Y-65996331D01*
X83586766Y-65972245D01*
X83586757Y-65952336D01*
X83586501Y-65937560D01*
X83585973Y-65928871D01*
X83585152Y-65927222D01*
X83584355Y-65929892D01*
X83581967Y-65939474D01*
X83578428Y-65954525D01*
X83574066Y-65973647D01*
X83569208Y-65995437D01*
X83563121Y-66022388D01*
X83536588Y-66126785D01*
X83506805Y-66224263D01*
X83473589Y-66315219D01*
X83436760Y-66400044D01*
X83396135Y-66479133D01*
X83383038Y-66500788D01*
X83351531Y-66552880D01*
X83302766Y-66621678D01*
X83249658Y-66685920D01*
X83193992Y-66743666D01*
X83127619Y-66802269D01*
X83056625Y-66855222D01*
X82981752Y-66902066D01*
X82903741Y-66942341D01*
X82823334Y-66975587D01*
X82741270Y-67001344D01*
X82706659Y-67009802D01*
X82622732Y-67025049D01*
X82535519Y-67033985D01*
X82446082Y-67036671D01*
X82355486Y-67033169D01*
X82264791Y-67023542D01*
X82175063Y-67007849D01*
X82087362Y-66986154D01*
X82002752Y-66958517D01*
X81999872Y-66957441D01*
X81971159Y-66945810D01*
X81938717Y-66931345D01*
X81904800Y-66915151D01*
X81871659Y-66898335D01*
X81841548Y-66882000D01*
X81816719Y-66867252D01*
X81751702Y-66822206D01*
X81684133Y-66766620D01*
X81620955Y-66705172D01*
X81563063Y-66638736D01*
X81511349Y-66568187D01*
X81482166Y-66522302D01*
X81475209Y-66509770D01*
X81676359Y-66509770D01*
X81676829Y-66525077D01*
X81680246Y-66538080D01*
X81687285Y-66549810D01*
X81698619Y-66561300D01*
X81714923Y-66573584D01*
X81736869Y-66587694D01*
X81765133Y-66604664D01*
X81814646Y-66632303D01*
X81892298Y-66669117D01*
X81973000Y-66699586D01*
X82057451Y-66723933D01*
X82146352Y-66742380D01*
X82240404Y-66755147D01*
X82262322Y-66757138D01*
X82302702Y-66759804D01*
X82347313Y-66761756D01*
X82393844Y-66762943D01*
X82439985Y-66763313D01*
X82483425Y-66762816D01*
X82521852Y-66761400D01*
X82567114Y-66758382D01*
X82666192Y-66747374D01*
X82759991Y-66730562D01*
X82848737Y-66707886D01*
X82932656Y-66679281D01*
X83011972Y-66644685D01*
X83086910Y-66604036D01*
X83116582Y-66584511D01*
X83139189Y-66565341D01*
X83155169Y-66545652D01*
X83165148Y-66524462D01*
X83169747Y-66500788D01*
X83169591Y-66473645D01*
X83169132Y-66468975D01*
X83166160Y-66449424D01*
X83161262Y-66424590D01*
X83154873Y-66396246D01*
X83147426Y-66366169D01*
X83139355Y-66336132D01*
X83131092Y-66307910D01*
X83123073Y-66283278D01*
X83118288Y-66270321D01*
X83108054Y-66245513D01*
X83095992Y-66218867D01*
X83083025Y-66192251D01*
X83070076Y-66167531D01*
X83058069Y-66146577D01*
X83047927Y-66131254D01*
X83032943Y-66111251D01*
X83029981Y-66155258D01*
X83028529Y-66175262D01*
X83025787Y-66208129D01*
X83022504Y-66243256D01*
X83018825Y-66279362D01*
X83014899Y-66315169D01*
X83010872Y-66349397D01*
X83006891Y-66380767D01*
X83003102Y-66407999D01*
X82999654Y-66429813D01*
X82996693Y-66444931D01*
X82995510Y-66449391D01*
X82993531Y-66451508D01*
X82989680Y-66448539D01*
X82982366Y-66439927D01*
X82973815Y-66430791D01*
X82955753Y-66416922D01*
X82936481Y-66407763D01*
X82918298Y-66404583D01*
X82903138Y-66407094D01*
X82886851Y-66415224D01*
X82869541Y-66429590D01*
X82850296Y-66450813D01*
X82846726Y-66455073D01*
X82836834Y-66466202D01*
X82829026Y-66474017D01*
X82824744Y-66477040D01*
X82823665Y-66476717D01*
X82817552Y-66472380D01*
X82808061Y-66464028D01*
X82796740Y-66452992D01*
X82794206Y-66450454D01*
X82780711Y-66438018D01*
X82767524Y-66427361D01*
X82757177Y-66420558D01*
X82755986Y-66419953D01*
X82744494Y-66415609D01*
X82733469Y-66414972D01*
X82721813Y-66418546D01*
X82708426Y-66426834D01*
X82692210Y-66440339D01*
X82672066Y-66459567D01*
X82669425Y-66462165D01*
X82654740Y-66475988D01*
X82641834Y-66487144D01*
X82631958Y-66494597D01*
X82626368Y-66497312D01*
X82621630Y-66495346D01*
X82612789Y-66486342D01*
X82601430Y-66470238D01*
X82592257Y-66456614D01*
X82576026Y-66435905D01*
X82560987Y-66421077D01*
X82547909Y-66412950D01*
X82530254Y-66409629D01*
X82511149Y-66413633D01*
X82492231Y-66425472D01*
X82473634Y-66445059D01*
X82455493Y-66472308D01*
X82454009Y-66474864D01*
X82445234Y-66488327D01*
X82437183Y-66496132D01*
X82428625Y-66498235D01*
X82418329Y-66494594D01*
X82405064Y-66485164D01*
X82387599Y-66469903D01*
X82384812Y-66467373D01*
X82363732Y-66448990D01*
X82346719Y-66435865D01*
X82332687Y-66427324D01*
X82320548Y-66422693D01*
X82309215Y-66421300D01*
X82303450Y-66421547D01*
X82297205Y-66423013D01*
X82290555Y-66426610D01*
X82282212Y-66433244D01*
X82270887Y-66443823D01*
X82255294Y-66459252D01*
X82217342Y-66497205D01*
X82193054Y-66474128D01*
X82183805Y-66465404D01*
X82160846Y-66444693D01*
X82141850Y-66429734D01*
X82125810Y-66420363D01*
X82111721Y-66416416D01*
X82098578Y-66417730D01*
X82085376Y-66424141D01*
X82071108Y-66435484D01*
X82054769Y-66451596D01*
X82030065Y-66477323D01*
X81999400Y-66450955D01*
X81986071Y-66439773D01*
X81965704Y-66424497D01*
X81948397Y-66414853D01*
X81932773Y-66410557D01*
X81917458Y-66411329D01*
X81901074Y-66416886D01*
X81882246Y-66426945D01*
X81881668Y-66427289D01*
X81869346Y-66434362D01*
X81859793Y-66439390D01*
X81855035Y-66441303D01*
X81853982Y-66439525D01*
X81851658Y-66430927D01*
X81848577Y-66416119D01*
X81844924Y-66396126D01*
X81840882Y-66371973D01*
X81836637Y-66344684D01*
X81832371Y-66315283D01*
X81831695Y-66308317D01*
X81830760Y-66293428D01*
X81829780Y-66272941D01*
X81828813Y-66248193D01*
X81827915Y-66220522D01*
X81827142Y-66191264D01*
X81824712Y-66087247D01*
X81801007Y-66125253D01*
X81798361Y-66129527D01*
X81765548Y-66188878D01*
X81737600Y-66252387D01*
X81714273Y-66320764D01*
X81695323Y-66394716D01*
X81680506Y-66474952D01*
X81678163Y-66491124D01*
X81676359Y-66509770D01*
X81475209Y-66509770D01*
X81437371Y-66441607D01*
X81397495Y-66355691D01*
X81362428Y-66264259D01*
X81332061Y-66167015D01*
X81306286Y-66063662D01*
X81284993Y-65953904D01*
X81283508Y-65945205D01*
X81280070Y-65925823D01*
X81277085Y-65910007D01*
X81274832Y-65899200D01*
X81273589Y-65894847D01*
X81272637Y-65896470D01*
X81270466Y-65904399D01*
X81267578Y-65917483D01*
X81264337Y-65934176D01*
X81262242Y-65947219D01*
X81258613Y-65984043D01*
X81257046Y-66027359D01*
X80074000Y-66027359D01*
X80029046Y-65912989D01*
X79967051Y-65743437D01*
X79909444Y-65573110D01*
X79855779Y-65400769D01*
X79805610Y-65225173D01*
X79788426Y-65159491D01*
X81632857Y-65159491D01*
X81638726Y-65257911D01*
X81650383Y-65354717D01*
X81667726Y-65448502D01*
X81690652Y-65537862D01*
X81712240Y-65604855D01*
X81747642Y-65695831D01*
X81789187Y-65783311D01*
X81837246Y-65867931D01*
X81892189Y-65950327D01*
X81954386Y-66031137D01*
X82024207Y-66110995D01*
X82049699Y-66137821D01*
X82097175Y-66183786D01*
X82143173Y-66222710D01*
X82188314Y-66254975D01*
X82233224Y-66280964D01*
X82278525Y-66301061D01*
X82324842Y-66315649D01*
X82372798Y-66325110D01*
X82424150Y-66328483D01*
X82476805Y-66324179D01*
X82530322Y-66312336D01*
X82584297Y-66293098D01*
X82638328Y-66266607D01*
X82692012Y-66233007D01*
X82744947Y-66192442D01*
X82778353Y-66163051D01*
X82838214Y-66103341D01*
X82895006Y-66037478D01*
X82947903Y-65966530D01*
X82996076Y-65891565D01*
X83038697Y-65813648D01*
X83046733Y-65797313D01*
X83081534Y-65719676D01*
X83113825Y-65636306D01*
X83143077Y-65548877D01*
X83168762Y-65459065D01*
X83190352Y-65368544D01*
X83207318Y-65278988D01*
X83210190Y-65257652D01*
X83213095Y-65226394D01*
X83215428Y-65190221D01*
X83217159Y-65150745D01*
X83218262Y-65109573D01*
X83218707Y-65068315D01*
X83218466Y-65028582D01*
X83217512Y-64991981D01*
X83215816Y-64960123D01*
X83213350Y-64934617D01*
X83210737Y-64916689D01*
X83197436Y-64854757D01*
X83178300Y-64797199D01*
X83153658Y-64744337D01*
X83123837Y-64696491D01*
X83089168Y-64653982D01*
X83049980Y-64617132D01*
X83006600Y-64586261D01*
X82959360Y-64561692D01*
X82908587Y-64543745D01*
X82854611Y-64532741D01*
X82797761Y-64529002D01*
X82740328Y-64532502D01*
X82684681Y-64543225D01*
X82630629Y-64561366D01*
X82577594Y-64587117D01*
X82524997Y-64620674D01*
X82518924Y-64624992D01*
X82496413Y-64640500D01*
X82478377Y-64651754D01*
X82463406Y-64659392D01*
X82450093Y-64664053D01*
X82437029Y-64666375D01*
X82422806Y-64666997D01*
X82418214Y-64666925D01*
X82405218Y-64665707D01*
X82392523Y-64662508D01*
X82378830Y-64656711D01*
X82362841Y-64647697D01*
X82343256Y-64634851D01*
X82318778Y-64617555D01*
X82292298Y-64599809D01*
X82239205Y-64570969D01*
X82182705Y-64548227D01*
X82124759Y-64532444D01*
X82112915Y-64530589D01*
X82091199Y-64528720D01*
X82065692Y-64527718D01*
X82038743Y-64527582D01*
X82012702Y-64528314D01*
X81989916Y-64529915D01*
X81972735Y-64532386D01*
X81934087Y-64542183D01*
X81884779Y-64560245D01*
X81840013Y-64583975D01*
X81798588Y-64614042D01*
X81759302Y-64651112D01*
X81747338Y-64664268D01*
X81716040Y-64705022D01*
X81690496Y-64749247D01*
X81670347Y-64797760D01*
X81655231Y-64851378D01*
X81644789Y-64910918D01*
X81638896Y-64963424D01*
X81632879Y-65060860D01*
X81632857Y-65159491D01*
X79788426Y-65159491D01*
X79758494Y-65045083D01*
X79718381Y-64877713D01*
X79680324Y-64702131D01*
X79646870Y-64527922D01*
X79617796Y-64353639D01*
X79592881Y-64177837D01*
X79571903Y-63999070D01*
X79554639Y-63815893D01*
X79540869Y-63626860D01*
X79539165Y-63600111D01*
X79537339Y-63570069D01*
X79536368Y-63547271D01*
X79536576Y-63531699D01*
X79538285Y-63523331D01*
X79541816Y-63522149D01*
X79547492Y-63528131D01*
X79555635Y-63541258D01*
X79566567Y-63561511D01*
X79580610Y-63588868D01*
X79598087Y-63623311D01*
X79608074Y-63642888D01*
X79631517Y-63688148D01*
X79652518Y-63727529D01*
X79671655Y-63762064D01*
X79689509Y-63792783D01*
X79706657Y-63820716D01*
X79723679Y-63846894D01*
X79729192Y-63855016D01*
X79744383Y-63876582D01*
X79761772Y-63900412D01*
X79780016Y-63924731D01*
X79797776Y-63947765D01*
X79813708Y-63967738D01*
X79826472Y-63982878D01*
X79847676Y-64006843D01*
X79844835Y-63954873D01*
X79844490Y-63948817D01*
X79843097Y-63926836D01*
X79841224Y-63899621D01*
X79839017Y-63869204D01*
X79836621Y-63837616D01*
X79834184Y-63806888D01*
X79827865Y-63719671D01*
X79821845Y-63596353D01*
X79819715Y-63477257D01*
X79821479Y-63360731D01*
X79827145Y-63245123D01*
X79836717Y-63128781D01*
X79837235Y-63123606D01*
X79840776Y-63091449D01*
X79844999Y-63057570D01*
X79849726Y-63023044D01*
X79854781Y-62988945D01*
X79859987Y-62956349D01*
X79865166Y-62926329D01*
X79870141Y-62899959D01*
X79874736Y-62878316D01*
X79878773Y-62862473D01*
X79882076Y-62853504D01*
X79883522Y-62855038D01*
X79886200Y-62863230D01*
X79889744Y-62877129D01*
X79893866Y-62895602D01*
X79898280Y-62917514D01*
X79909966Y-62975504D01*
X79946990Y-63131704D01*
X79991645Y-63285842D01*
X80043789Y-63437638D01*
X80103280Y-63586813D01*
X80169979Y-63733086D01*
X80243743Y-63876179D01*
X80324432Y-64015811D01*
X80411904Y-64151703D01*
X80506020Y-64283575D01*
X80606636Y-64411148D01*
X80713614Y-64534141D01*
X80731374Y-64553241D01*
X80752302Y-64575124D01*
X80775447Y-64598831D01*
X80800205Y-64623784D01*
X80825973Y-64649404D01*
X80852149Y-64675114D01*
X80878130Y-64700334D01*
X80903312Y-64724486D01*
X80927092Y-64746994D01*
X80948869Y-64767277D01*
X80968038Y-64784758D01*
X80983997Y-64798859D01*
X80996143Y-64809002D01*
X81003872Y-64814607D01*
X81006583Y-64815098D01*
X81006448Y-64814498D01*
X81004138Y-64808189D01*
X80999405Y-64796361D01*
X80992823Y-64780426D01*
X80984964Y-64761798D01*
X80960457Y-64703798D01*
X80928441Y-64626780D01*
X80895881Y-64547142D01*
X80863026Y-64465548D01*
X80830125Y-64382661D01*
X80797427Y-64299146D01*
X80765182Y-64215667D01*
X80733637Y-64132886D01*
X80703043Y-64051468D01*
X80673648Y-63972077D01*
X80645702Y-63895376D01*
X80619452Y-63822029D01*
X80595150Y-63752701D01*
X80573042Y-63688054D01*
X80553380Y-63628754D01*
X80536411Y-63575462D01*
X80522384Y-63528844D01*
X80506841Y-63472925D01*
X80478524Y-63357664D01*
X80453308Y-63236053D01*
X80431312Y-63108823D01*
X80412656Y-62976703D01*
X80397461Y-62840423D01*
X80385848Y-62700714D01*
X80385710Y-62698670D01*
X80384386Y-62673761D01*
X80383283Y-62643114D01*
X80382401Y-62607873D01*
X80381739Y-62569182D01*
X80381299Y-62528188D01*
X80381079Y-62486034D01*
X80381081Y-62443865D01*
X80381305Y-62402826D01*
X80381751Y-62364061D01*
X80382419Y-62328716D01*
X80383121Y-62304480D01*
X80644601Y-62304480D01*
X80646022Y-62400067D01*
X80651793Y-62499026D01*
X80661958Y-62601745D01*
X80676559Y-62708614D01*
X80695637Y-62820022D01*
X80719237Y-62936356D01*
X80747399Y-63058007D01*
X80780167Y-63185362D01*
X80817582Y-63318811D01*
X80818558Y-63322145D01*
X80825809Y-63346137D01*
X80835360Y-63376734D01*
X80846939Y-63413116D01*
X80860275Y-63454464D01*
X80875096Y-63499959D01*
X80891131Y-63548783D01*
X80908107Y-63600116D01*
X80925754Y-63653139D01*
X80943799Y-63707034D01*
X80961972Y-63760981D01*
X80980001Y-63814161D01*
X80997614Y-63865756D01*
X81014539Y-63914946D01*
X81030505Y-63960912D01*
X81058160Y-64040941D01*
X81086428Y-64124562D01*
X81113328Y-64206028D01*
X81138524Y-64284289D01*
X81161677Y-64358299D01*
X81182452Y-64427009D01*
X81200510Y-64489371D01*
X81203456Y-64498894D01*
X81207956Y-64510871D01*
X81211717Y-64518156D01*
X81217647Y-64523015D01*
X81227618Y-64527216D01*
X81232745Y-64528229D01*
X81237550Y-64527049D01*
X81238619Y-64520795D01*
X81238619Y-64520770D01*
X81238052Y-64515157D01*
X81236449Y-64502350D01*
X81233908Y-64483064D01*
X81230527Y-64458013D01*
X81226404Y-64427912D01*
X81221637Y-64393478D01*
X81216324Y-64355425D01*
X81210563Y-64314468D01*
X81204452Y-64271322D01*
X81199918Y-64239324D01*
X81189535Y-64165255D01*
X81179717Y-64094116D01*
X81170537Y-64026460D01*
X81162066Y-63962840D01*
X81154376Y-63903811D01*
X81147539Y-63849924D01*
X81141625Y-63801733D01*
X81136706Y-63759792D01*
X81132854Y-63724653D01*
X81130141Y-63696871D01*
X81129773Y-63692546D01*
X81127822Y-63662420D01*
X81126445Y-63627866D01*
X81125641Y-63590657D01*
X81125410Y-63552565D01*
X81125751Y-63515364D01*
X81126664Y-63480826D01*
X81128149Y-63450723D01*
X81130205Y-63426828D01*
X81138786Y-63366822D01*
X81151968Y-63301446D01*
X81168519Y-63239740D01*
X81188078Y-63183038D01*
X81210282Y-63132672D01*
X81212182Y-63128909D01*
X81224195Y-63108258D01*
X81511663Y-63108258D01*
X81513705Y-63136425D01*
X81518479Y-63171132D01*
X81529825Y-63235565D01*
X81553842Y-63342109D01*
X81584408Y-63447742D01*
X81621870Y-63553612D01*
X81666576Y-63660865D01*
X81667228Y-63662321D01*
X81675318Y-63680007D01*
X81682462Y-63694986D01*
X81687909Y-63705717D01*
X81690904Y-63710657D01*
X81691269Y-63710569D01*
X81692137Y-63705098D01*
X81692721Y-63692195D01*
X81693016Y-63672278D01*
X81693020Y-63645766D01*
X81692727Y-63613079D01*
X81692135Y-63574635D01*
X81691641Y-63541977D01*
X81691349Y-63483876D01*
X81691973Y-63432450D01*
X81693547Y-63386852D01*
X81696106Y-63346238D01*
X81699684Y-63309760D01*
X81704316Y-63276573D01*
X81705999Y-63266600D01*
X81712173Y-63236807D01*
X81719322Y-63214158D01*
X81728082Y-63197989D01*
X81739085Y-63187634D01*
X81752966Y-63182430D01*
X81770361Y-63181712D01*
X81791902Y-63184814D01*
X81803562Y-63187003D01*
X81821814Y-63189161D01*
X81836928Y-63188267D01*
X81850503Y-63183662D01*
X81864139Y-63174683D01*
X81879434Y-63160669D01*
X81897988Y-63140960D01*
X81907063Y-63131329D01*
X81919261Y-63119555D01*
X81928916Y-63111661D01*
X81934736Y-63108778D01*
X81936280Y-63109123D01*
X81943628Y-63113816D01*
X81953883Y-63122947D01*
X81965476Y-63135167D01*
X81965662Y-63135378D01*
X81988793Y-63158532D01*
X82010679Y-63173859D01*
X82031758Y-63181351D01*
X82052468Y-63181001D01*
X82073247Y-63172803D01*
X82094535Y-63156749D01*
X82116770Y-63132834D01*
X82123172Y-63125177D01*
X82140074Y-63106989D01*
X82154404Y-63095600D01*
X82167060Y-63090820D01*
X82178940Y-63092457D01*
X82190942Y-63100318D01*
X82203965Y-63114213D01*
X82212741Y-63124723D01*
X82233100Y-63147315D01*
X82250552Y-63163678D01*
X82265759Y-63174387D01*
X82279381Y-63180019D01*
X82297090Y-63182139D01*
X82319598Y-63178080D01*
X82340716Y-63166650D01*
X82359549Y-63148203D01*
X82367007Y-63139141D01*
X82379216Y-63124940D01*
X82391359Y-63111373D01*
X82399354Y-63102986D01*
X82408113Y-63095510D01*
X82415849Y-63092031D01*
X82424838Y-63091175D01*
X82425792Y-63091177D01*
X82431605Y-63091480D01*
X82436820Y-63092886D01*
X82442398Y-63096227D01*
X82449300Y-63102340D01*
X82458486Y-63112059D01*
X82470918Y-63126218D01*
X82487555Y-63145652D01*
X82498500Y-63157242D01*
X82510428Y-63167739D01*
X82520165Y-63174209D01*
X82527855Y-63177339D01*
X82550134Y-63180880D01*
X82572914Y-63176635D01*
X82595924Y-63164729D01*
X82618891Y-63145288D01*
X82641545Y-63118436D01*
X82649066Y-63108583D01*
X82660177Y-63096585D01*
X82670478Y-63090282D01*
X82681181Y-63089744D01*
X82693494Y-63095041D01*
X82708629Y-63106243D01*
X82727796Y-63123420D01*
X82738910Y-63133683D01*
X82757762Y-63150144D01*
X82772975Y-63161704D01*
X82785679Y-63169076D01*
X82797002Y-63172970D01*
X82808071Y-63174101D01*
X82810400Y-63174068D01*
X82821971Y-63172723D01*
X82833589Y-63168862D01*
X82846685Y-63161732D01*
X82862695Y-63150577D01*
X82883050Y-63134643D01*
X82892811Y-63126877D01*
X82905008Y-63117535D01*
X82913934Y-63111145D01*
X82918136Y-63108778D01*
X82918279Y-63108796D01*
X82922726Y-63111861D01*
X82930863Y-63119178D01*
X82941038Y-63129270D01*
X82952000Y-63139919D01*
X82968613Y-63154639D01*
X82984334Y-63167276D01*
X82990950Y-63172096D01*
X83003379Y-63179880D01*
X83013662Y-63183712D01*
X83024341Y-63184702D01*
X83027873Y-63184584D01*
X83047247Y-63180704D01*
X83069241Y-63171051D01*
X83094822Y-63155222D01*
X83105097Y-63148383D01*
X83114081Y-63142890D01*
X83118577Y-63140783D01*
X83118580Y-63140783D01*
X83120793Y-63144497D01*
X83124075Y-63154664D01*
X83128091Y-63169862D01*
X83132508Y-63188670D01*
X83136990Y-63209667D01*
X83141205Y-63231430D01*
X83144819Y-63252538D01*
X83149006Y-63283409D01*
X83153128Y-63327511D01*
X83155971Y-63377767D01*
X83157553Y-63434617D01*
X83157890Y-63498499D01*
X83156999Y-63569851D01*
X83156491Y-63597586D01*
X83156050Y-63627806D01*
X83155781Y-63654568D01*
X83155686Y-63676964D01*
X83155769Y-63694085D01*
X83156034Y-63705024D01*
X83156484Y-63708873D01*
X83158288Y-63706641D01*
X83162924Y-63698475D01*
X83169476Y-63685722D01*
X83177159Y-63669866D01*
X83201180Y-63616975D01*
X83244924Y-63507319D01*
X83280804Y-63396929D01*
X83308909Y-63285515D01*
X83329326Y-63172788D01*
X83331541Y-63157252D01*
X83335928Y-63122593D01*
X83338466Y-63094990D01*
X83339182Y-63073922D01*
X83338100Y-63058873D01*
X83335245Y-63049321D01*
X83332843Y-63045721D01*
X83327321Y-63040544D01*
X83318631Y-63035146D01*
X83305873Y-63029117D01*
X83288146Y-63022044D01*
X83264550Y-63013517D01*
X83234184Y-63003123D01*
X83218350Y-62997884D01*
X83135709Y-62973445D01*
X83049368Y-62952727D01*
X82958399Y-62935552D01*
X82861873Y-62921740D01*
X82758859Y-62911110D01*
X82751103Y-62910456D01*
X82653866Y-62903678D01*
X82554499Y-62899243D01*
X82454405Y-62897132D01*
X82354985Y-62897328D01*
X82257644Y-62899812D01*
X82163783Y-62904569D01*
X82074804Y-62911578D01*
X81992111Y-62920823D01*
X81970074Y-62923837D01*
X81922565Y-62931132D01*
X81874273Y-62939536D01*
X81826071Y-62948835D01*
X81778830Y-62958815D01*
X81733422Y-62969261D01*
X81690719Y-62979960D01*
X81651591Y-62990699D01*
X81616912Y-63001262D01*
X81587553Y-63011437D01*
X81564384Y-63021008D01*
X81548279Y-63029763D01*
X81535273Y-63039813D01*
X81524157Y-63052408D01*
X81516666Y-63067308D01*
X81512575Y-63085572D01*
X81511663Y-63108258D01*
X81224195Y-63108258D01*
X81246637Y-63069681D01*
X81286837Y-63016007D01*
X81332660Y-62967999D01*
X81383986Y-62925773D01*
X81440693Y-62889440D01*
X81502661Y-62859115D01*
X81506400Y-62857576D01*
X81523060Y-62851202D01*
X81545572Y-62843089D01*
X81572563Y-62833709D01*
X81602661Y-62823535D01*
X81634493Y-62813038D01*
X81666687Y-62802690D01*
X81702923Y-62791134D01*
X81750906Y-62775533D01*
X81792902Y-62761432D01*
X81829939Y-62748447D01*
X81863046Y-62736193D01*
X81893250Y-62724287D01*
X81921581Y-62712344D01*
X81949067Y-62699980D01*
X81976736Y-62686810D01*
X82017250Y-62666217D01*
X82072592Y-62634623D01*
X82122130Y-62601532D01*
X82167185Y-62565958D01*
X82209079Y-62526914D01*
X82249132Y-62483414D01*
X82283507Y-62441211D01*
X82316339Y-62395292D01*
X82342625Y-62351566D01*
X82362238Y-62310303D01*
X82375053Y-62271771D01*
X82380944Y-62236239D01*
X82380383Y-62220638D01*
X82469156Y-62220638D01*
X82469748Y-62236239D01*
X82469947Y-62241500D01*
X82472763Y-62263898D01*
X82478152Y-62285659D01*
X82486677Y-62308536D01*
X82498902Y-62334285D01*
X82515390Y-62364661D01*
X82525859Y-62382577D01*
X82568159Y-62444955D01*
X82617108Y-62502984D01*
X82672750Y-62556709D01*
X82735131Y-62606176D01*
X82804297Y-62651429D01*
X82842684Y-62673192D01*
X82891296Y-62697879D01*
X82943354Y-62721233D01*
X82999768Y-62743611D01*
X83061445Y-62765367D01*
X83129294Y-62786861D01*
X83204223Y-62808447D01*
X83236720Y-62817825D01*
X83299617Y-62838758D01*
X83356008Y-62861774D01*
X83406831Y-62887372D01*
X83453020Y-62916049D01*
X83495512Y-62948304D01*
X83535244Y-62984635D01*
X83566439Y-63018180D01*
X83603040Y-63065655D01*
X83608088Y-63073922D01*
X83634448Y-63117091D01*
X83660946Y-63173108D01*
X83682818Y-63234323D01*
X83700345Y-63301354D01*
X83713811Y-63374820D01*
X83715687Y-63388447D01*
X83717340Y-63403743D01*
X83718619Y-63420533D01*
X83719565Y-63439902D01*
X83720219Y-63462934D01*
X83720619Y-63490713D01*
X83720805Y-63524324D01*
X83720819Y-63564850D01*
X83720728Y-63593354D01*
X83720451Y-63624528D01*
X83719920Y-63653815D01*
X83719063Y-63681915D01*
X83717808Y-63709527D01*
X83716082Y-63737349D01*
X83713813Y-63766080D01*
X83710927Y-63796421D01*
X83707354Y-63829069D01*
X83703021Y-63864724D01*
X83697854Y-63904086D01*
X83691782Y-63947852D01*
X83684733Y-63996722D01*
X83676633Y-64051395D01*
X83667410Y-64112570D01*
X83656993Y-64180947D01*
X83654324Y-64198462D01*
X83646064Y-64253701D01*
X83639153Y-64301819D01*
X83633532Y-64343401D01*
X83629144Y-64379031D01*
X83625932Y-64409292D01*
X83623839Y-64434768D01*
X83622806Y-64456043D01*
X83622776Y-64473700D01*
X83623691Y-64488324D01*
X83625495Y-64500497D01*
X83625630Y-64501153D01*
X83628109Y-64509541D01*
X83630582Y-64512999D01*
X83631672Y-64511660D01*
X83634872Y-64504250D01*
X83639276Y-64491807D01*
X83644270Y-64475993D01*
X83650234Y-64456541D01*
X83660094Y-64425419D01*
X83672276Y-64387834D01*
X83686577Y-64344390D01*
X83702795Y-64295690D01*
X83720725Y-64242338D01*
X83740166Y-64184937D01*
X83760914Y-64124090D01*
X83782766Y-64060400D01*
X83805520Y-63994471D01*
X83828972Y-63926907D01*
X83856158Y-63848603D01*
X83885493Y-63763541D01*
X83912374Y-63684876D01*
X83936985Y-63612018D01*
X83959512Y-63544374D01*
X83980139Y-63481352D01*
X83999051Y-63422360D01*
X84008958Y-63390696D01*
X84567850Y-63390696D01*
X84570364Y-63392324D01*
X84579124Y-63397888D01*
X84593616Y-63407054D01*
X84613273Y-63419467D01*
X84637527Y-63434768D01*
X84665811Y-63452602D01*
X84697559Y-63472610D01*
X84732204Y-63494436D01*
X84769178Y-63517722D01*
X84807915Y-63542113D01*
X84847848Y-63567250D01*
X84888409Y-63592777D01*
X84929032Y-63618336D01*
X84969150Y-63643571D01*
X85008195Y-63668125D01*
X85045602Y-63691640D01*
X85080802Y-63713760D01*
X85113230Y-63734127D01*
X85126589Y-63742519D01*
X85152674Y-63758927D01*
X85176510Y-63773948D01*
X85197192Y-63787011D01*
X85213813Y-63797542D01*
X85225467Y-63804968D01*
X85231248Y-63808718D01*
X85232807Y-63809761D01*
X85243734Y-63816791D01*
X85255736Y-63824195D01*
X85270223Y-63832907D01*
X85272677Y-63793893D01*
X85273731Y-63775763D01*
X85275046Y-63750406D01*
X85276512Y-63719825D01*
X85278106Y-63684681D01*
X85279802Y-63645634D01*
X85281577Y-63603346D01*
X85283407Y-63558478D01*
X85285267Y-63511690D01*
X85287133Y-63463643D01*
X85288981Y-63414998D01*
X85290786Y-63366417D01*
X85292525Y-63318560D01*
X85294172Y-63272088D01*
X85295704Y-63227662D01*
X85296882Y-63192363D01*
X85752963Y-63192363D01*
X85753167Y-63209483D01*
X85753664Y-63229797D01*
X85753886Y-63238143D01*
X85754295Y-63256678D01*
X85754790Y-63281866D01*
X85755356Y-63312901D01*
X85755981Y-63348979D01*
X85756651Y-63389296D01*
X85757352Y-63433046D01*
X85758070Y-63479426D01*
X85758793Y-63527629D01*
X85759506Y-63576852D01*
X85760142Y-63621002D01*
X85760995Y-63679047D01*
X85761943Y-63742481D01*
X85762964Y-63809894D01*
X85764036Y-63879874D01*
X85764830Y-63931203D01*
X85765137Y-63951014D01*
X85766247Y-64021901D01*
X85767342Y-64091127D01*
X85768402Y-64157281D01*
X85769404Y-64218953D01*
X85769976Y-64253976D01*
X85770848Y-64307927D01*
X85771690Y-64360558D01*
X85772489Y-64411127D01*
X85773234Y-64458891D01*
X85773915Y-64503109D01*
X85774518Y-64543038D01*
X85775034Y-64577936D01*
X85775450Y-64607060D01*
X85775756Y-64629669D01*
X85775940Y-64645020D01*
X85776265Y-64667151D01*
X85776804Y-64689833D01*
X85777480Y-64709128D01*
X85778237Y-64723499D01*
X85779021Y-64731408D01*
X85781335Y-64743783D01*
X85979366Y-64670569D01*
X85995803Y-64664492D01*
X86032781Y-64650814D01*
X86067183Y-64638082D01*
X86098302Y-64626558D01*
X86125437Y-64616503D01*
X86147881Y-64608176D01*
X86164933Y-64601840D01*
X86175886Y-64597756D01*
X86180039Y-64596183D01*
X86180105Y-64595998D01*
X86180992Y-64590468D01*
X86182768Y-64577682D01*
X86185360Y-64558208D01*
X86188698Y-64532616D01*
X86192712Y-64501475D01*
X86197330Y-64465354D01*
X86202482Y-64424822D01*
X86208096Y-64380447D01*
X86214102Y-64332800D01*
X86220430Y-64282448D01*
X86227008Y-64229962D01*
X86233765Y-64175910D01*
X86240631Y-64120861D01*
X86247534Y-64065384D01*
X86254405Y-64010049D01*
X86261171Y-63955424D01*
X86267763Y-63902078D01*
X86274110Y-63850581D01*
X86280140Y-63801501D01*
X86285783Y-63755408D01*
X86290967Y-63712871D01*
X86295623Y-63674458D01*
X86299680Y-63640738D01*
X86303066Y-63612282D01*
X86305710Y-63589657D01*
X86307542Y-63573433D01*
X86308492Y-63564180D01*
X86308459Y-63562792D01*
X86307659Y-63560399D01*
X86305590Y-63557375D01*
X86301842Y-63553423D01*
X86296004Y-63548242D01*
X86287667Y-63541535D01*
X86276419Y-63533002D01*
X86261850Y-63522345D01*
X86243550Y-63509264D01*
X86221107Y-63493461D01*
X86194113Y-63474637D01*
X86162155Y-63452492D01*
X86124823Y-63426728D01*
X86081708Y-63397047D01*
X86032397Y-63363148D01*
X86005018Y-63344340D01*
X85964051Y-63316219D01*
X85925307Y-63289651D01*
X85889274Y-63264968D01*
X85856435Y-63242500D01*
X85827275Y-63222580D01*
X85802282Y-63205539D01*
X85781938Y-63191708D01*
X85766731Y-63181418D01*
X85757144Y-63175001D01*
X85753664Y-63172788D01*
X85753436Y-63173375D01*
X85753052Y-63179854D01*
X85752963Y-63192363D01*
X85296882Y-63192363D01*
X85297096Y-63185943D01*
X85298324Y-63147591D01*
X85299365Y-63113268D01*
X85300193Y-63083635D01*
X85300784Y-63059353D01*
X85301114Y-63041082D01*
X85301159Y-63029484D01*
X85300895Y-63025219D01*
X85297644Y-63024364D01*
X85287052Y-63022462D01*
X85269833Y-63019703D01*
X85246699Y-63016191D01*
X85218362Y-63012030D01*
X85185534Y-63007325D01*
X85148926Y-63002180D01*
X85109252Y-62996699D01*
X85067222Y-62990986D01*
X85033022Y-62986368D01*
X84992432Y-62980871D01*
X84954598Y-62975728D01*
X84920257Y-62971041D01*
X84890150Y-62966911D01*
X84865016Y-62963440D01*
X84845594Y-62960729D01*
X84832624Y-62958880D01*
X84826844Y-62957995D01*
X84826599Y-62957950D01*
X84824350Y-62957861D01*
X84821900Y-62958707D01*
X84818934Y-62960987D01*
X84815136Y-62965203D01*
X84810192Y-62971854D01*
X84803785Y-62981441D01*
X84795602Y-62994465D01*
X84785326Y-63011426D01*
X84772643Y-63032823D01*
X84757236Y-63059158D01*
X84738792Y-63090932D01*
X84716995Y-63128643D01*
X84691529Y-63172793D01*
X84687336Y-63180067D01*
X84665625Y-63217800D01*
X84645241Y-63253326D01*
X84626519Y-63286058D01*
X84609794Y-63315403D01*
X84595401Y-63340773D01*
X84583676Y-63361578D01*
X84574952Y-63377226D01*
X84569565Y-63387129D01*
X84567850Y-63390696D01*
X84008958Y-63390696D01*
X84016433Y-63366807D01*
X84032470Y-63314100D01*
X84047347Y-63263648D01*
X84061248Y-63214858D01*
X84074358Y-63167139D01*
X84086863Y-63119899D01*
X84098947Y-63072546D01*
X84110795Y-63024487D01*
X84111947Y-63019726D01*
X84142365Y-62883656D01*
X84166857Y-62752094D01*
X84185418Y-62625134D01*
X84198046Y-62502868D01*
X84204739Y-62385390D01*
X84205492Y-62272791D01*
X84200303Y-62165166D01*
X84189169Y-62062606D01*
X84172086Y-61965205D01*
X84149052Y-61873056D01*
X84123436Y-61795703D01*
X84087621Y-61710999D01*
X84044858Y-61630164D01*
X83995226Y-61553292D01*
X83938802Y-61480473D01*
X83875666Y-61411801D01*
X83805897Y-61347367D01*
X83729572Y-61287264D01*
X83646772Y-61231583D01*
X83557574Y-61180418D01*
X83554951Y-61179032D01*
X83535044Y-61168809D01*
X83520956Y-61162462D01*
X83511699Y-61159861D01*
X83506285Y-61160878D01*
X83503728Y-61165381D01*
X83503037Y-61173241D01*
X83502170Y-61179237D01*
X83498951Y-61192365D01*
X83493814Y-61210275D01*
X83487245Y-61231452D01*
X83479732Y-61254379D01*
X83471761Y-61277540D01*
X83463821Y-61299418D01*
X83456396Y-61318496D01*
X83421773Y-61393319D01*
X83379034Y-61467612D01*
X83328496Y-61540668D01*
X83270224Y-61612392D01*
X83204286Y-61682687D01*
X83163369Y-61722233D01*
X83082482Y-61793251D01*
X82999636Y-61856646D01*
X82914609Y-61912560D01*
X82827177Y-61961132D01*
X82737120Y-62002503D01*
X82644215Y-62036813D01*
X82636566Y-62039349D01*
X82596006Y-62054404D01*
X82562467Y-62070117D01*
X82535108Y-62087079D01*
X82513091Y-62105880D01*
X82495577Y-62127112D01*
X82481727Y-62151367D01*
X82480826Y-62153274D01*
X82475263Y-62165773D01*
X82471769Y-62176255D01*
X82469889Y-62187225D01*
X82469169Y-62201184D01*
X82469156Y-62220638D01*
X82380383Y-62220638D01*
X82379784Y-62203977D01*
X82377286Y-62190753D01*
X82366815Y-62158741D01*
X82350326Y-62130013D01*
X82327449Y-62104194D01*
X82297812Y-62080914D01*
X82261044Y-62059798D01*
X82216773Y-62040475D01*
X82150827Y-62014156D01*
X82069544Y-61978716D01*
X81994635Y-61942231D01*
X81925171Y-61904153D01*
X81860224Y-61863934D01*
X81798867Y-61821023D01*
X81740171Y-61774873D01*
X81683208Y-61724935D01*
X81682021Y-61723838D01*
X81619263Y-61660699D01*
X81560373Y-61591259D01*
X81505976Y-61516516D01*
X81456695Y-61437469D01*
X81413153Y-61355116D01*
X81375973Y-61270457D01*
X81345780Y-61184490D01*
X81345741Y-61184362D01*
X81341551Y-61171119D01*
X81338219Y-61161311D01*
X81336462Y-61157053D01*
X81333835Y-61157347D01*
X81325139Y-61161090D01*
X81311412Y-61168143D01*
X81293630Y-61177935D01*
X81272773Y-61189893D01*
X81249820Y-61203447D01*
X81225748Y-61218023D01*
X81201536Y-61233051D01*
X81178163Y-61247957D01*
X81156606Y-61262172D01*
X81106722Y-61297421D01*
X81031226Y-61358070D01*
X80962497Y-61422957D01*
X80900558Y-61492044D01*
X80845437Y-61565291D01*
X80797158Y-61642661D01*
X80755746Y-61724116D01*
X80721227Y-61809616D01*
X80693626Y-61899125D01*
X80672968Y-61992602D01*
X80666022Y-62034062D01*
X80654644Y-62121867D01*
X80647490Y-62211876D01*
X80644601Y-62304480D01*
X80383121Y-62304480D01*
X80383310Y-62297935D01*
X80384423Y-62272863D01*
X80385759Y-62254644D01*
X80387730Y-62235583D01*
X80398721Y-62145777D01*
X80411984Y-62062350D01*
X80427772Y-61984158D01*
X80446338Y-61910056D01*
X80467934Y-61838901D01*
X80492812Y-61769546D01*
X80509493Y-61729681D01*
X80540501Y-61666807D01*
X80577483Y-61602604D01*
X80619641Y-61538264D01*
X80666181Y-61474975D01*
X80716306Y-61413929D01*
X80769220Y-61356314D01*
X80794724Y-61330121D01*
X80750751Y-61325232D01*
X80715354Y-61320196D01*
X80657571Y-61307685D01*
X80600245Y-61290329D01*
X80545749Y-61268885D01*
X80496455Y-61244112D01*
X80475490Y-61231801D01*
X80441440Y-61209788D01*
X80410148Y-61186433D01*
X80379271Y-61159928D01*
X80346464Y-61128466D01*
X80335241Y-61117078D01*
X80299691Y-61078062D01*
X80269342Y-61039305D01*
X80242524Y-60998536D01*
X80217563Y-60953486D01*
X80214705Y-60947943D01*
X80205700Y-60930884D01*
X80198102Y-60917090D01*
X80192638Y-60907856D01*
X80190037Y-60904479D01*
X80188357Y-60906130D01*
X80184974Y-60914112D01*
X80180919Y-60927243D01*
X80176605Y-60943881D01*
X80172447Y-60962388D01*
X80168861Y-60981122D01*
X80166262Y-60998446D01*
X80165134Y-61008739D01*
X80163762Y-61031768D01*
X80164208Y-61055507D01*
X80166566Y-61082294D01*
X80170930Y-61114464D01*
X80172197Y-61122065D01*
X80175589Y-61139559D01*
X80179947Y-61159875D01*
X80184772Y-61180880D01*
X80189568Y-61200437D01*
X80193836Y-61216410D01*
X80197078Y-61226663D01*
X80197673Y-61228594D01*
X80196590Y-61230474D01*
X80191147Y-61228695D01*
X80180115Y-61222992D01*
X80144284Y-61200158D01*
X80106789Y-61169876D01*
X80068056Y-61132584D01*
X80028411Y-61088668D01*
X79988180Y-61038510D01*
X79947688Y-60982494D01*
X79907261Y-60921004D01*
X79867225Y-60854423D01*
X79857242Y-60836923D01*
X79836746Y-60799509D01*
X79820337Y-60766833D01*
X79814097Y-60752598D01*
X80448207Y-60752598D01*
X80449047Y-60765735D01*
X80451948Y-60783188D01*
X80456529Y-60803295D01*
X80462407Y-60824393D01*
X80469199Y-60844819D01*
X80476522Y-60862912D01*
X80496308Y-60900322D01*
X80520615Y-60934216D01*
X80550986Y-60966473D01*
X80587056Y-60997088D01*
X80632689Y-61028392D01*
X80682685Y-61056221D01*
X80735420Y-61079858D01*
X80789272Y-61098583D01*
X80842619Y-61111678D01*
X80893839Y-61118423D01*
X80898619Y-61118746D01*
X80916376Y-61119985D01*
X80932003Y-61121129D01*
X80942573Y-61121965D01*
X80942804Y-61121984D01*
X80955638Y-61122204D01*
X80973905Y-61121477D01*
X80995178Y-61119998D01*
X81017031Y-61117966D01*
X81037039Y-61115576D01*
X81052777Y-61113026D01*
X81054766Y-61112581D01*
X81068950Y-61107950D01*
X81086045Y-61100659D01*
X81102785Y-61092079D01*
X81114854Y-61085392D01*
X81173277Y-61056698D01*
X81237642Y-61030614D01*
X81241661Y-61029113D01*
X81265054Y-61019192D01*
X81283778Y-61009159D01*
X81297064Y-60999554D01*
X81304148Y-60990914D01*
X81304262Y-60983779D01*
X81300845Y-60979770D01*
X81292103Y-60971637D01*
X81279551Y-60960932D01*
X81264434Y-60948618D01*
X81247994Y-60935658D01*
X81231476Y-60923016D01*
X81216122Y-60911653D01*
X81203175Y-60902534D01*
X81193881Y-60896622D01*
X81189481Y-60894879D01*
X81188350Y-60895632D01*
X81182484Y-60901494D01*
X81173809Y-60911581D01*
X81163757Y-60924256D01*
X81153864Y-60936332D01*
X81122608Y-60966312D01*
X81086136Y-60991468D01*
X81045582Y-61011393D01*
X81002080Y-61025683D01*
X80956764Y-61033935D01*
X80910768Y-61035743D01*
X80865227Y-61030704D01*
X80862365Y-61030142D01*
X80818926Y-61018017D01*
X80778800Y-61000158D01*
X80742572Y-60977239D01*
X80710828Y-60949932D01*
X80684152Y-60918912D01*
X80663129Y-60884853D01*
X80648346Y-60848427D01*
X80640385Y-60810310D01*
X80639834Y-60771173D01*
X80640886Y-60762023D01*
X80644730Y-60740880D01*
X80650213Y-60718787D01*
X80656548Y-60698715D01*
X80662950Y-60683639D01*
X80664399Y-60679660D01*
X80662600Y-60674439D01*
X80660807Y-60673840D01*
X80651641Y-60673600D01*
X80637393Y-60674958D01*
X80619971Y-60677599D01*
X80601284Y-60681208D01*
X80583240Y-60685472D01*
X80567748Y-60690074D01*
X80554973Y-60694817D01*
X80537346Y-60702044D01*
X80518061Y-60710473D01*
X80498628Y-60719394D01*
X80480553Y-60728097D01*
X80465346Y-60735869D01*
X80454514Y-60742000D01*
X80449566Y-60745780D01*
X80448207Y-60752598D01*
X79814097Y-60752598D01*
X79807564Y-60737693D01*
X79797972Y-60710881D01*
X79791109Y-60685195D01*
X79786522Y-60659430D01*
X79783758Y-60632379D01*
X79783148Y-60621128D01*
X79784025Y-60584359D01*
X79789583Y-60548071D01*
X79800115Y-60511725D01*
X79815912Y-60474780D01*
X79837268Y-60436696D01*
X79864474Y-60396933D01*
X79897824Y-60354950D01*
X79937608Y-60310209D01*
X79984120Y-60262168D01*
X80053009Y-60197099D01*
X80127402Y-60135007D01*
X80203593Y-60079822D01*
X80282360Y-60030983D01*
X80364482Y-59987929D01*
X80395728Y-59973325D01*
X80436841Y-59955682D01*
X80476241Y-59940953D01*
X80516749Y-59928107D01*
X80561184Y-59916115D01*
X80564823Y-59915205D01*
X80594194Y-59908381D01*
X80616090Y-59904371D01*
X80630526Y-59903176D01*
X80637515Y-59904801D01*
X80637074Y-59909248D01*
X80629216Y-59916520D01*
X80613956Y-59926620D01*
X80586090Y-59944729D01*
X80546706Y-59973648D01*
X80506671Y-60006395D01*
X80467975Y-60041240D01*
X80432610Y-60076453D01*
X80402564Y-60110306D01*
X80369838Y-60153783D01*
X80331857Y-60215542D01*
X80300370Y-60281206D01*
X80275828Y-60349802D01*
X80258685Y-60420355D01*
X80255480Y-60436962D01*
X80251678Y-60455411D01*
X80248330Y-60470377D01*
X80245911Y-60479664D01*
X80243832Y-60487416D01*
X80244200Y-60494231D01*
X80249733Y-60495803D01*
X80261446Y-60493003D01*
X80290074Y-60484230D01*
X80355584Y-60464918D01*
X80419938Y-60446978D01*
X80482433Y-60430564D01*
X80542361Y-60415834D01*
X80599018Y-60402944D01*
X80651699Y-60392051D01*
X80699698Y-60383311D01*
X80742310Y-60376881D01*
X80778830Y-60372917D01*
X80808552Y-60371577D01*
X80815771Y-60371656D01*
X80833084Y-60372697D01*
X80849469Y-60375334D01*
X80866495Y-60380054D01*
X80885728Y-60387347D01*
X80908735Y-60397698D01*
X80937084Y-60411598D01*
X80951257Y-60418808D01*
X80978712Y-60433385D01*
X81005961Y-60448770D01*
X81033806Y-60465494D01*
X81063050Y-60484085D01*
X81094495Y-60505073D01*
X81128943Y-60528986D01*
X81167196Y-60556355D01*
X81210056Y-60587708D01*
X81258326Y-60623575D01*
X81269637Y-60632003D01*
X81299437Y-60653980D01*
X81329671Y-60675990D01*
X81358980Y-60697057D01*
X81386001Y-60716208D01*
X81409374Y-60732468D01*
X81427737Y-60744861D01*
X81487426Y-60784137D01*
X81514046Y-60762741D01*
X81529760Y-60750499D01*
X81575166Y-60719261D01*
X81624077Y-60691629D01*
X81677580Y-60667084D01*
X81736761Y-60645110D01*
X81802708Y-60625188D01*
X81831595Y-60617572D01*
X81915538Y-60598299D01*
X82005527Y-60581520D01*
X82100363Y-60567421D01*
X82198848Y-60556187D01*
X82299783Y-60548005D01*
X82320829Y-60546890D01*
X82354901Y-60545779D01*
X82393644Y-60545137D01*
X82435651Y-60544942D01*
X82479515Y-60545172D01*
X82523826Y-60545805D01*
X82567179Y-60546820D01*
X82608165Y-60548195D01*
X82645378Y-60549908D01*
X82677408Y-60551936D01*
X82702850Y-60554259D01*
X82788027Y-60565621D01*
X82882508Y-60582757D01*
X82971415Y-60604185D01*
X83055529Y-60630152D01*
X83135634Y-60660902D01*
X83212511Y-60696682D01*
X83286942Y-60737738D01*
X83317964Y-60759214D01*
X83351234Y-60788255D01*
X83384185Y-60822768D01*
X83415764Y-60861553D01*
X83444922Y-60903413D01*
X83470606Y-60947147D01*
X83483431Y-60971210D01*
X83517529Y-60983779D01*
X83524208Y-60986241D01*
X83622668Y-61026103D01*
X83717094Y-61071930D01*
X83806015Y-61123268D01*
X83889765Y-61180328D01*
X83968680Y-61243321D01*
X84043098Y-61312459D01*
X84076922Y-61347491D01*
X84143126Y-61424069D01*
X84203229Y-61505237D01*
X84257319Y-61591172D01*
X84305488Y-61682054D01*
X84347826Y-61778061D01*
X84384424Y-61879371D01*
X84415370Y-61986165D01*
X84440758Y-62098619D01*
X84447033Y-62130990D01*
X84453548Y-62166251D01*
X84458635Y-62196742D01*
X84462465Y-62224164D01*
X84465213Y-62250213D01*
X84466785Y-62272791D01*
X84467050Y-62276589D01*
X84468149Y-62304990D01*
X84468683Y-62337115D01*
X84468824Y-62374663D01*
X84468660Y-62414267D01*
X84468024Y-62449545D01*
X84466743Y-62480398D01*
X84464648Y-62508653D01*
X84461567Y-62536133D01*
X84457329Y-62564664D01*
X84451764Y-62596069D01*
X84444700Y-62632174D01*
X84444236Y-62634485D01*
X84440655Y-62653015D01*
X84437936Y-62668305D01*
X84436339Y-62678824D01*
X84436120Y-62683041D01*
X84436148Y-62683055D01*
X84440690Y-62683936D01*
X84452689Y-62686057D01*
X84471737Y-62689348D01*
X84497425Y-62693739D01*
X84529345Y-62699164D01*
X84567088Y-62705552D01*
X84610246Y-62712835D01*
X84658411Y-62720944D01*
X84711172Y-62729811D01*
X84768124Y-62739366D01*
X84828856Y-62749541D01*
X84892960Y-62760266D01*
X84960028Y-62771475D01*
X85029651Y-62783096D01*
X85101421Y-62795062D01*
X85765332Y-62905694D01*
X85940354Y-63029484D01*
X86049377Y-63106594D01*
X86072165Y-63122712D01*
X86116701Y-63154213D01*
X86160556Y-63185234D01*
X86203080Y-63215314D01*
X86243623Y-63243994D01*
X86281534Y-63270814D01*
X86316163Y-63295313D01*
X86346861Y-63317032D01*
X86372976Y-63335511D01*
X86393859Y-63350290D01*
X86408860Y-63360908D01*
X86420692Y-63369358D01*
X86441391Y-63384511D01*
X86459408Y-63398173D01*
X86473767Y-63409581D01*
X86483492Y-63417969D01*
X86487609Y-63422576D01*
X86487758Y-63423047D01*
X86488973Y-63430114D01*
X86490778Y-63444066D01*
X86493074Y-63463980D01*
X86495762Y-63488936D01*
X86498740Y-63518014D01*
X86501911Y-63550293D01*
X86503222Y-63564180D01*
X86505173Y-63584853D01*
X86506286Y-63596853D01*
X86508651Y-63622225D01*
X86511581Y-63653565D01*
X86515028Y-63690337D01*
X86518939Y-63732005D01*
X86523264Y-63778033D01*
X86527954Y-63827885D01*
X86532956Y-63881025D01*
X86538221Y-63936918D01*
X86543698Y-63995027D01*
X86549336Y-64054816D01*
X86555085Y-64115750D01*
X86560894Y-64177293D01*
X86566712Y-64238909D01*
X86572489Y-64300061D01*
X86578174Y-64360214D01*
X86583717Y-64418832D01*
X86589067Y-64475379D01*
X86594173Y-64529319D01*
X86598984Y-64580117D01*
X86603451Y-64627235D01*
X86607522Y-64670139D01*
X86611147Y-64708293D01*
X86614275Y-64741160D01*
X86616856Y-64768205D01*
X86618838Y-64788891D01*
X86620172Y-64802684D01*
X86620807Y-64809046D01*
X86621015Y-64810000D01*
X86621421Y-64810852D01*
X86621860Y-64811566D01*
X86622185Y-64812351D01*
X86622253Y-64813414D01*
X86621916Y-64814965D01*
X86621031Y-64817212D01*
X86619453Y-64820363D01*
X86617035Y-64824628D01*
X86613633Y-64830215D01*
X86609101Y-64837332D01*
X86603295Y-64846188D01*
X86596070Y-64856992D01*
X86587279Y-64869952D01*
X86576778Y-64885277D01*
X86564421Y-64903176D01*
X86550064Y-64923857D01*
X86539458Y-64939071D01*
X86533562Y-64947528D01*
X86514768Y-64974399D01*
X86493538Y-65004677D01*
X86469727Y-65038572D01*
X86443189Y-65076292D01*
X86413779Y-65118046D01*
X86381353Y-65164042D01*
X86345764Y-65214489D01*
X86306868Y-65269595D01*
X86264519Y-65329569D01*
X86218573Y-65394620D01*
X86168884Y-65464957D01*
X86115307Y-65540787D01*
X86057696Y-65622320D01*
X85995907Y-65709763D01*
X85929794Y-65803327D01*
X85859213Y-65903218D01*
X85836390Y-65935520D01*
X85803942Y-65981447D01*
X85772758Y-66025590D01*
X85743172Y-66067473D01*
X85715520Y-66106622D01*
X85690137Y-66142561D01*
X85667359Y-66174815D01*
X85647521Y-66202910D01*
X85630960Y-66226371D01*
X85618009Y-66244722D01*
X85609005Y-66257489D01*
X85604283Y-66264196D01*
X85602843Y-66266239D01*
X85594096Y-66278220D01*
X85587026Y-66287224D01*
X85583050Y-66291436D01*
X85582771Y-66291258D01*
X85581892Y-66285615D01*
X85581108Y-66272529D01*
X85580429Y-66252429D01*
X85579864Y-66225746D01*
X85579423Y-66192908D01*
X85579116Y-66154345D01*
X85578952Y-66110487D01*
X85578861Y-66080711D01*
X85578652Y-66043853D01*
X85578351Y-66009586D01*
X85577973Y-65978811D01*
X85577531Y-65952432D01*
X85577038Y-65931348D01*
X85576507Y-65916463D01*
X85575952Y-65908677D01*
X85573302Y-65890132D01*
X85439281Y-65969040D01*
X85416878Y-65982231D01*
X85380953Y-66003389D01*
X85340619Y-66027148D01*
X85297315Y-66052660D01*
X85252484Y-66079074D01*
X85207565Y-66105543D01*
X85164001Y-66131217D01*
X85123231Y-66155247D01*
X85119619Y-66157376D01*
X85082114Y-66179479D01*
X85044633Y-66201559D01*
X85008156Y-66223038D01*
X84973667Y-66243341D01*
X84942144Y-66261888D01*
X84914570Y-66278103D01*
X84891926Y-66291408D01*
X84875192Y-66301226D01*
X84861800Y-66309082D01*
X84840857Y-66321387D01*
X84814612Y-66336818D01*
X84783910Y-66354880D01*
X84749598Y-66375075D01*
X84712520Y-66396904D01*
X84673522Y-66419870D01*
X84633449Y-66443477D01*
X84593148Y-66467225D01*
X84586567Y-66471103D01*
X84523500Y-66508270D01*
X84460804Y-66545214D01*
X84399021Y-66581616D01*
X84338697Y-66617156D01*
X84280373Y-66651514D01*
X84224594Y-66684370D01*
X84171903Y-66715402D01*
X84122844Y-66744292D01*
X84077960Y-66770720D01*
X84037795Y-66794364D01*
X84002892Y-66814906D01*
X83973795Y-66832024D01*
X83951047Y-66845399D01*
X83934267Y-66855264D01*
X83908442Y-66870454D01*
X83882802Y-66885545D01*
X83859585Y-66899219D01*
X83841029Y-66910158D01*
X83831170Y-66915971D01*
X83812766Y-66926812D01*
X83789494Y-66940513D01*
X83762519Y-66956389D01*
X83733003Y-66973755D01*
X83702109Y-66991927D01*
X83671002Y-67010220D01*
X83644696Y-67025697D01*
X83615789Y-67042722D01*
X83588963Y-67058542D01*
X83565181Y-67072587D01*
X83545409Y-67084287D01*
X83530608Y-67093074D01*
X83521743Y-67098379D01*
X83514016Y-67103239D01*
X83505865Y-67109355D01*
X83498757Y-67116602D01*
X83491488Y-67126459D01*
X83482852Y-67140409D01*
X83471645Y-67159932D01*
X83431038Y-67227957D01*
X83388337Y-67291368D01*
X83342965Y-67350508D01*
X83293474Y-67407260D01*
X83238418Y-67463506D01*
X83210296Y-67490001D01*
X83133471Y-67554882D01*
X83052212Y-67613227D01*
X82966881Y-67664866D01*
X82877841Y-67709628D01*
X82785452Y-67747341D01*
X82690077Y-67777834D01*
X82592078Y-67800937D01*
X82491817Y-67816477D01*
X82434808Y-67823065D01*
X82434759Y-68059330D01*
X82434721Y-68093779D01*
X82434578Y-68144372D01*
X82434337Y-68199808D01*
X82434006Y-68259286D01*
X82433593Y-68322002D01*
X82433107Y-68387154D01*
X82432555Y-68453938D01*
X82431946Y-68521552D01*
X82431289Y-68589193D01*
X82430590Y-68656059D01*
X82429858Y-68721346D01*
X82429102Y-68784251D01*
X82428330Y-68843973D01*
X82427549Y-68899707D01*
X82426769Y-68950651D01*
X82425996Y-68996003D01*
X82425240Y-69034959D01*
X82424509Y-69066716D01*
X82424056Y-69084143D01*
X82423289Y-69111624D01*
X82422563Y-69132492D01*
X82421782Y-69147657D01*
X82420853Y-69158028D01*
X82419679Y-69164511D01*
X82418166Y-69168018D01*
X82416220Y-69169455D01*
X82413745Y-69169733D01*
X82409735Y-69169327D01*
X82397083Y-69166596D01*
X82378371Y-69161557D01*
X82354528Y-69154521D01*
X82326487Y-69145798D01*
X82295178Y-69135699D01*
X82261533Y-69124536D01*
X82226483Y-69112618D01*
X82190959Y-69100256D01*
X82155893Y-69087762D01*
X82122215Y-69075446D01*
X82090856Y-69063619D01*
X82062749Y-69052592D01*
X81997643Y-69025752D01*
X81862251Y-68965550D01*
X81729065Y-68900220D01*
X81597634Y-68829466D01*
X81467504Y-68752993D01*
X81338224Y-68670508D01*
X81209341Y-68581715D01*
X81080403Y-68486320D01*
X80950958Y-68384027D01*
X80820553Y-68274543D01*
X80688735Y-68157573D01*
X80669709Y-68140168D01*
X80618577Y-68092709D01*
X80562467Y-68039741D01*
X80501674Y-67981550D01*
X80436491Y-67918426D01*
X80367214Y-67850657D01*
X80294135Y-67778531D01*
X80217548Y-67702336D01*
X80137748Y-67622362D01*
X80055029Y-67538896D01*
X79969684Y-67452226D01*
X79949180Y-67431332D01*
X79904902Y-67386163D01*
X79861800Y-67342126D01*
X79820241Y-67299602D01*
X79780597Y-67258973D01*
X79743236Y-67220618D01*
X79708529Y-67184920D01*
X79676845Y-67152258D01*
X79648554Y-67123014D01*
X79624025Y-67097569D01*
X79603630Y-67076304D01*
X79587736Y-67059600D01*
X79576715Y-67047837D01*
X79570935Y-67041397D01*
X79570423Y-67040782D01*
X79565013Y-67034693D01*
X79562911Y-67034531D01*
X79562488Y-67040035D01*
X79562565Y-67041141D01*
X79563426Y-67049229D01*
X79565198Y-67064593D01*
X79567823Y-67086765D01*
X79571243Y-67115273D01*
X79575401Y-67149649D01*
X79580241Y-67189424D01*
X79585704Y-67234127D01*
X79591733Y-67283289D01*
X79598271Y-67336439D01*
X79605261Y-67393110D01*
X79612645Y-67452830D01*
X79620365Y-67515131D01*
X79628366Y-67579543D01*
X79631780Y-67607006D01*
X79639664Y-67670473D01*
X79647247Y-67731578D01*
X79654471Y-67789857D01*
X79661280Y-67844844D01*
X79667614Y-67896074D01*
X79673419Y-67943083D01*
X79678635Y-67985406D01*
X79683206Y-68022578D01*
X79687074Y-68054134D01*
X79690183Y-68079610D01*
X79692474Y-68098540D01*
X79693891Y-68110460D01*
X79694376Y-68114905D01*
X79694329Y-68115081D01*
X79691056Y-68113210D01*
X79683041Y-68106123D01*
X79670864Y-68094427D01*
X79655104Y-68078730D01*
X79636342Y-68059640D01*
X79615157Y-68037766D01*
X79592129Y-68013717D01*
X79567838Y-67988099D01*
X79542864Y-67961521D01*
X79517786Y-67934592D01*
X79493184Y-67907919D01*
X79469638Y-67882111D01*
X79447729Y-67857776D01*
X79428034Y-67835522D01*
X79301726Y-67686006D01*
X79177817Y-67527942D01*
X79061387Y-67367130D01*
X78952460Y-67203604D01*
X78851060Y-67037397D01*
X78770795Y-66894901D01*
X78676094Y-66713449D01*
X78587034Y-66527487D01*
X78504064Y-66338046D01*
X78427632Y-66146162D01*
X78363318Y-65967148D01*
X79243160Y-65967148D01*
X79243639Y-65971896D01*
X79244842Y-65972522D01*
X79246306Y-65969229D01*
X79246017Y-65967111D01*
X79243639Y-65966562D01*
X79243160Y-65967148D01*
X78363318Y-65967148D01*
X78358187Y-65952867D01*
X78296178Y-65759196D01*
X78295549Y-65757099D01*
X78277352Y-65694821D01*
X78258983Y-65628930D01*
X78240740Y-65560671D01*
X78222927Y-65491288D01*
X78205843Y-65422026D01*
X78189789Y-65354130D01*
X78175066Y-65288844D01*
X78161976Y-65227413D01*
X78150819Y-65171082D01*
X78141897Y-65121095D01*
X78141472Y-65118585D01*
X78138703Y-65104115D01*
X78136076Y-65093143D01*
X78134110Y-65087877D01*
X78131702Y-65090160D01*
X78126077Y-65098981D01*
X78117587Y-65113745D01*
X78106558Y-65133813D01*
X78093315Y-65158548D01*
X78078183Y-65187312D01*
X78061486Y-65219467D01*
X78043549Y-65254374D01*
X78024697Y-65291397D01*
X78005255Y-65329897D01*
X77985547Y-65369236D01*
X77965898Y-65408776D01*
X77946634Y-65447880D01*
X77928078Y-65485909D01*
X77910555Y-65522225D01*
X77894392Y-65556191D01*
X77879911Y-65587168D01*
X77860266Y-65630356D01*
X77821065Y-65721573D01*
X77787351Y-65807709D01*
X77758982Y-65889136D01*
X77735817Y-65966228D01*
X77735786Y-65966340D01*
X77731355Y-65980005D01*
X77727066Y-65987162D01*
X77722067Y-65989232D01*
X77719560Y-65988366D01*
X77715823Y-65984290D01*
X77711092Y-65976090D01*
X77704943Y-65962913D01*
X77696952Y-65943908D01*
X77686692Y-65918221D01*
X77676091Y-65891109D01*
X77605937Y-65701854D01*
X77543207Y-65514127D01*
X77487728Y-65327143D01*
X77439323Y-65140118D01*
X77397817Y-64952269D01*
X77363035Y-64762811D01*
X77334801Y-64570961D01*
X77312941Y-64375934D01*
X77297279Y-64176946D01*
X77295808Y-64147972D01*
X77294537Y-64110471D01*
X77293567Y-64067328D01*
X77292895Y-64019759D01*
X77292515Y-63968978D01*
X77292423Y-63916200D01*
X77292615Y-63862639D01*
X77293086Y-63809510D01*
X77293831Y-63758028D01*
X77294846Y-63709406D01*
X77296126Y-63664860D01*
X77297668Y-63625605D01*
X77299465Y-63592854D01*
X77300762Y-63573706D01*
X77318342Y-63371089D01*
X77342724Y-63172541D01*
X77373958Y-62977846D01*
X77412097Y-62786790D01*
X77457191Y-62599159D01*
X77509291Y-62414737D01*
X77568449Y-62233310D01*
X77634715Y-62054664D01*
X77708141Y-61878584D01*
X77715187Y-61862728D01*
X77747406Y-61793081D01*
X77783366Y-61719383D01*
X77822106Y-61643451D01*
X77862665Y-61567101D01*
X77904083Y-61492150D01*
X77945401Y-61420413D01*
X77985657Y-61353708D01*
X77993631Y-61340758D01*
X78008399Y-61316036D01*
X78019344Y-61296258D01*
X78026972Y-61280293D01*
X78031792Y-61267015D01*
X78034311Y-61255294D01*
X78035038Y-61244003D01*
X78035020Y-61242166D01*
X78033988Y-61231427D01*
X78030933Y-61220704D01*
X78025247Y-61209057D01*
X78016317Y-61195544D01*
X78003534Y-61179224D01*
X77986288Y-61159156D01*
X77963967Y-61134397D01*
X77891809Y-61051889D01*
X77815842Y-60955746D01*
X77747605Y-60858423D01*
X77686973Y-60759698D01*
X77633820Y-60659350D01*
X77588020Y-60557155D01*
X77549448Y-60452894D01*
X77517978Y-60346343D01*
X77505059Y-60293807D01*
X77493216Y-60237559D01*
X77484255Y-60183352D01*
X77477835Y-60128711D01*
X77473614Y-60071162D01*
X77471249Y-60008231D01*
X77470734Y-59977175D01*
X77742676Y-59977175D01*
X77743301Y-60023168D01*
X77745723Y-60064299D01*
X77748250Y-60090193D01*
X77751590Y-60119738D01*
X77755381Y-60149790D01*
X77759385Y-60178655D01*
X77763369Y-60204636D01*
X77767095Y-60226040D01*
X77770328Y-60241171D01*
X77771459Y-60245820D01*
X77774989Y-60262176D01*
X77777980Y-60278332D01*
X77780443Y-60291141D01*
X77785383Y-60312437D01*
X77791959Y-60337927D01*
X77799803Y-60366417D01*
X77808549Y-60396715D01*
X77817830Y-60427627D01*
X77827281Y-60457960D01*
X77836534Y-60486520D01*
X77845222Y-60512114D01*
X77852980Y-60533549D01*
X77859441Y-60549632D01*
X77864238Y-60559168D01*
X77869828Y-60566014D01*
X77879355Y-60574265D01*
X77883115Y-60576378D01*
X77892696Y-60580251D01*
X77902819Y-60583097D01*
X77910835Y-60584248D01*
X77914096Y-60583035D01*
X77913901Y-60581699D01*
X77912317Y-60574022D01*
X77909486Y-60561335D01*
X77905826Y-60545529D01*
X77897437Y-60508732D01*
X77883107Y-60439594D01*
X77871000Y-60372311D01*
X77861234Y-60307814D01*
X77853930Y-60247034D01*
X77849207Y-60190901D01*
X77847186Y-60140347D01*
X77847986Y-60096304D01*
X77851199Y-60051404D01*
X77862670Y-59958217D01*
X77880328Y-59868904D01*
X77904056Y-59783758D01*
X77933740Y-59703070D01*
X77969266Y-59627134D01*
X78010517Y-59556242D01*
X78057379Y-59490687D01*
X78109737Y-59430762D01*
X78128076Y-59412247D01*
X78184512Y-59361021D01*
X78244345Y-59315300D01*
X78308979Y-59274075D01*
X78379818Y-59236333D01*
X78386204Y-59233234D01*
X78436120Y-59210512D01*
X78482211Y-59192499D01*
X78526297Y-59178539D01*
X78570199Y-59167979D01*
X78583794Y-59165336D01*
X78599489Y-59162865D01*
X78614915Y-59161358D01*
X78632135Y-59160689D01*
X78653214Y-59160736D01*
X78680216Y-59161374D01*
X78693631Y-59161842D01*
X78729804Y-59164189D01*
X78761321Y-59168329D01*
X78790634Y-59174762D01*
X78820196Y-59183989D01*
X78852460Y-59196510D01*
X78865742Y-59202372D01*
X78885022Y-59213047D01*
X78897973Y-59224402D01*
X78904734Y-59237292D01*
X78905444Y-59252572D01*
X78900241Y-59271099D01*
X78889263Y-59293728D01*
X78872648Y-59321315D01*
X78849538Y-59361282D01*
X78830190Y-59404023D01*
X78814717Y-59450198D01*
X78802292Y-59501934D01*
X78800205Y-59512729D01*
X78796745Y-59535770D01*
X78796134Y-59551804D01*
X78798376Y-59561173D01*
X78803480Y-59564220D01*
X78805235Y-59563601D01*
X78812331Y-59558717D01*
X78822738Y-59550024D01*
X78834887Y-59538796D01*
X78876834Y-59500576D01*
X78921265Y-59465576D01*
X78965886Y-59436365D01*
X79012039Y-59411983D01*
X79030104Y-59403820D01*
X79080928Y-59384464D01*
X79130464Y-59370839D01*
X79177826Y-59363107D01*
X79222131Y-59361431D01*
X79262493Y-59365974D01*
X79273929Y-59368558D01*
X79309394Y-59380660D01*
X79340684Y-59398329D01*
X79368087Y-59421908D01*
X79391891Y-59451737D01*
X79412383Y-59488159D01*
X79429853Y-59531516D01*
X79444586Y-59582148D01*
X79447049Y-59592047D01*
X79452210Y-59611943D01*
X79456330Y-59625541D01*
X79459957Y-59633908D01*
X79463638Y-59638116D01*
X79467923Y-59639235D01*
X79473357Y-59638334D01*
X79479516Y-59635364D01*
X79491003Y-59628267D01*
X79506439Y-59617902D01*
X79524602Y-59605091D01*
X79544268Y-59590657D01*
X79549168Y-59586996D01*
X79569539Y-59571826D01*
X79594530Y-59553281D01*
X79622726Y-59532408D01*
X79652710Y-59510254D01*
X79683067Y-59487866D01*
X79712379Y-59466293D01*
X79720022Y-59460675D01*
X79759101Y-59431959D01*
X79792313Y-59407527D01*
X79820133Y-59386970D01*
X79843038Y-59369883D01*
X79861503Y-59355857D01*
X79876003Y-59344486D01*
X79887016Y-59335361D01*
X79895016Y-59328076D01*
X79900480Y-59322223D01*
X79903884Y-59317394D01*
X79905703Y-59313182D01*
X79906413Y-59309180D01*
X79906490Y-59304980D01*
X79906410Y-59300175D01*
X79905600Y-59293186D01*
X79900608Y-59276669D01*
X79891532Y-59255324D01*
X79878916Y-59230080D01*
X79863302Y-59201864D01*
X79845234Y-59171605D01*
X79825255Y-59140231D01*
X79803907Y-59108671D01*
X79781734Y-59077852D01*
X79759278Y-59048703D01*
X79747886Y-59034728D01*
X79688433Y-58969297D01*
X79623795Y-58909878D01*
X79554137Y-58856549D01*
X79479625Y-58809391D01*
X79400425Y-58768480D01*
X79316703Y-58733896D01*
X79228624Y-58705718D01*
X79136355Y-58684024D01*
X79040061Y-58668892D01*
X78939909Y-58660401D01*
X78885829Y-58658891D01*
X78795939Y-58662077D01*
X78709356Y-58672545D01*
X78626084Y-58690293D01*
X78546126Y-58715321D01*
X78469488Y-58747628D01*
X78396172Y-58787212D01*
X78341798Y-58822754D01*
X78277572Y-58871681D01*
X78214262Y-58927281D01*
X78152539Y-58988837D01*
X78093074Y-59055632D01*
X78036538Y-59126948D01*
X77983601Y-59202068D01*
X77934934Y-59280276D01*
X77924245Y-59299274D01*
X77911436Y-59323242D01*
X77897841Y-59349661D01*
X77884117Y-59377174D01*
X77870919Y-59404427D01*
X77858904Y-59430064D01*
X77848726Y-59452729D01*
X77841042Y-59471067D01*
X77836508Y-59483722D01*
X77833751Y-59492536D01*
X77829731Y-59503572D01*
X77826719Y-59509726D01*
X77826640Y-59509832D01*
X77823870Y-59515953D01*
X77819367Y-59528450D01*
X77813523Y-59546050D01*
X77806729Y-59567479D01*
X77799375Y-59591463D01*
X77791852Y-59616727D01*
X77784552Y-59641997D01*
X77777866Y-59666001D01*
X77772183Y-59687462D01*
X77769758Y-59697450D01*
X77762191Y-59735738D01*
X77755680Y-59779701D01*
X77750350Y-59827582D01*
X77746324Y-59877626D01*
X77743725Y-59928076D01*
X77742676Y-59977175D01*
X77470734Y-59977175D01*
X77470616Y-59970068D01*
X77470800Y-59923518D01*
X77472313Y-59880482D01*
X77475302Y-59838420D01*
X77479913Y-59794794D01*
X77486293Y-59747066D01*
X77488451Y-59732653D01*
X77508551Y-59628672D01*
X77536474Y-59525057D01*
X77572065Y-59422148D01*
X77615170Y-59320286D01*
X77665630Y-59219811D01*
X77723293Y-59121065D01*
X77788000Y-59024388D01*
X77859598Y-58930120D01*
X77868800Y-58919010D01*
X77889909Y-58894886D01*
X77914774Y-58867781D01*
X77941927Y-58839203D01*
X77969904Y-58810661D01*
X77997239Y-58783661D01*
X78022465Y-58759713D01*
X78044116Y-58740323D01*
X78091778Y-58701185D01*
X78177177Y-58639042D01*
X78266181Y-58584034D01*
X78358703Y-58536199D01*
X78454655Y-58495577D01*
X78553952Y-58462205D01*
X78656505Y-58436125D01*
X78762229Y-58417373D01*
X78780727Y-58415228D01*
X78810984Y-58412903D01*
X78845985Y-58411217D01*
X78884141Y-58410170D01*
X78923862Y-58409761D01*
X78963557Y-58409992D01*
X79001636Y-58410863D01*
X79036510Y-58412374D01*
X79066588Y-58414525D01*
X79090281Y-58417317D01*
X79172773Y-58432342D01*
X79255164Y-58452468D01*
X79333755Y-58477473D01*
X79410248Y-58507972D01*
X79486344Y-58544576D01*
X79563742Y-58587899D01*
X79613290Y-58619040D01*
X79689507Y-58673575D01*
X79763170Y-58734718D01*
X79834544Y-58802730D01*
X79903897Y-58877869D01*
X79971495Y-58960395D01*
X80037602Y-59050569D01*
X80044261Y-59060069D01*
X80062800Y-59085399D01*
X80078459Y-59104514D01*
X80092020Y-59117992D01*
X80104266Y-59126412D01*
X80115978Y-59130355D01*
X80127937Y-59130399D01*
X80140926Y-59127123D01*
X80141468Y-59126928D01*
X80150379Y-59122907D01*
X80164696Y-59115627D01*
X80183066Y-59105810D01*
X80204131Y-59094179D01*
X80226537Y-59081457D01*
X80261960Y-59061271D01*
X80382019Y-58996112D01*
X80499166Y-58937722D01*
X80613998Y-58885840D01*
X80727112Y-58840208D01*
X80839105Y-58800567D01*
X80950574Y-58766655D01*
X80995862Y-58754333D01*
X81035851Y-58744314D01*
X81071549Y-58736524D01*
X81104583Y-58730716D01*
X81136580Y-58726643D01*
X81169167Y-58724060D01*
X81203971Y-58722719D01*
X81242620Y-58722373D01*
X81269908Y-58722537D01*
X81294777Y-58723038D01*
X81317691Y-58724020D01*
X81340053Y-58725626D01*
X81363266Y-58728001D01*
X81388730Y-58731288D01*
X81417849Y-58735632D01*
X81452024Y-58741176D01*
X81492659Y-58748066D01*
X81493365Y-58748187D01*
X81561509Y-58762440D01*
X81630681Y-58782072D01*
X81656311Y-58790091D01*
X81687900Y-58799710D01*
X81721948Y-58809867D01*
X81755776Y-58819764D01*
X81786706Y-58828602D01*
X81828909Y-58840525D01*
X81874716Y-58853635D01*
X81915096Y-58865433D01*
X81951323Y-58876315D01*
X81984671Y-58886679D01*
X82016415Y-58896923D01*
X82047828Y-58907443D01*
X82080184Y-58918637D01*
X82114757Y-58930902D01*
X82162240Y-58947900D01*
X82210941Y-58965304D01*
X82253335Y-58980409D01*
X82290075Y-58993443D01*
X82321816Y-59004633D01*
X82349210Y-59014207D01*
X82372912Y-59022390D01*
X82393577Y-59029411D01*
X82411857Y-59035495D01*
X82428406Y-59040871D01*
X82443880Y-59045766D01*
X82458931Y-59050405D01*
X82467238Y-59052953D01*
X82498327Y-59062923D01*
X82523051Y-59071776D01*
X82542573Y-59080047D01*
X82558060Y-59088271D01*
X82570674Y-59096983D01*
X82581581Y-59106717D01*
X82587767Y-59113543D01*
X82600527Y-59135182D01*
X82605995Y-59159644D01*
X82604114Y-59186461D01*
X82594824Y-59215161D01*
X82589876Y-59225210D01*
X82572855Y-59248958D01*
X82551444Y-59266593D01*
X82526434Y-59277572D01*
X82498612Y-59281352D01*
X82495604Y-59281325D01*
X82481262Y-59280380D01*
X82466178Y-59277815D01*
X82449298Y-59273271D01*
X82429572Y-59266390D01*
X82405947Y-59256812D01*
X82377372Y-59244177D01*
X82342793Y-59228126D01*
X82337936Y-59225839D01*
X82280466Y-59199258D01*
X82227834Y-59175940D01*
X82178139Y-59155141D01*
X82129482Y-59136114D01*
X82079963Y-59118116D01*
X82027680Y-59100400D01*
X81970735Y-59082221D01*
X81958807Y-59078482D01*
X81928088Y-59068686D01*
X81895349Y-59058059D01*
X81863816Y-59047654D01*
X81836714Y-59038522D01*
X81832036Y-59036930D01*
X81732762Y-59006882D01*
X81632585Y-58983799D01*
X81530506Y-58967520D01*
X81425522Y-58957883D01*
X81316632Y-58954728D01*
X81286145Y-58955002D01*
X81212353Y-58958188D01*
X81142207Y-58965225D01*
X81073831Y-58976459D01*
X81005348Y-58992236D01*
X80934883Y-59012900D01*
X80860560Y-59038799D01*
X80811009Y-59057996D01*
X80737113Y-59088975D01*
X80658832Y-59124267D01*
X80577152Y-59163351D01*
X80493057Y-59205704D01*
X80407532Y-59250802D01*
X80321562Y-59298124D01*
X80309614Y-59304980D01*
X80236131Y-59347147D01*
G37*
D12*
%TO.C,EN_1*%
X32640000Y-53130000D02*
X32640000Y-55790000D01*
X32640000Y-53130000D02*
X68260000Y-53130000D01*
X32640000Y-55790000D02*
X68260000Y-55790000D01*
X68260000Y-53130000D02*
X68260000Y-55790000D01*
X69530000Y-53130000D02*
X70860000Y-53130000D01*
X70860000Y-53130000D02*
X70860000Y-54460000D01*
%TO.C,J1*%
X78729000Y-54980000D02*
X78729000Y-44860000D01*
X81689000Y-54980000D02*
X81689000Y-44860000D01*
X82751000Y-53455000D02*
X82715000Y-53490000D01*
X82967000Y-53648000D02*
X82921000Y-53695000D01*
X85059000Y-51146000D02*
X85013000Y-51193000D01*
X85264000Y-51351000D02*
X85229000Y-51386000D01*
X86590000Y-54980000D02*
X86590000Y-44860000D01*
X88090000Y-54980000D02*
X88090000Y-44860000D01*
X88650000Y-44860000D02*
X78729000Y-44860000D01*
X88650000Y-54980000D02*
X78729000Y-54980000D01*
X88650000Y-54980000D02*
X88650000Y-44860000D01*
X88890000Y-44620000D02*
X88150000Y-44620000D01*
X88890000Y-45120000D02*
X88890000Y-44620000D01*
X82455000Y-48104000D02*
G75*
G02*
X82454573Y-46736958I1534993J684001D01*
G01*
X83306000Y-45885000D02*
G75*
G02*
X84673042Y-45884573I684001J-1534993D01*
G01*
X84674000Y-48955000D02*
G75*
G02*
X83306958Y-48955427I-684001J1535004D01*
G01*
X85525000Y-46736000D02*
G75*
G02*
X85670253Y-47448805I-1535001J-683999D01*
G01*
X85670000Y-47420000D02*
G75*
G02*
X85524756Y-48103318I-1680000J0D01*
G01*
X85670000Y-52420000D02*
G75*
G02*
X82310000Y-52420000I-1680000J0D01*
G01*
X82310000Y-52420000D02*
G75*
G02*
X85670000Y-52420000I1680000J0D01*
G01*
%TO.C,J2*%
X78679000Y-40670000D02*
X78679000Y-30550000D01*
X81639000Y-40670000D02*
X81639000Y-30550000D01*
X82701000Y-39145000D02*
X82665000Y-39180000D01*
X82917000Y-39338000D02*
X82871000Y-39385000D01*
X85009000Y-36836000D02*
X84963000Y-36883000D01*
X85214000Y-37041000D02*
X85179000Y-37076000D01*
X86540000Y-40670000D02*
X86540000Y-30550000D01*
X88040000Y-40670000D02*
X88040000Y-30550000D01*
X88600000Y-30550000D02*
X78679000Y-30550000D01*
X88600000Y-40670000D02*
X78679000Y-40670000D01*
X88600000Y-40670000D02*
X88600000Y-30550000D01*
X88840000Y-30310000D02*
X88100000Y-30310000D01*
X88840000Y-30810000D02*
X88840000Y-30310000D01*
X82405000Y-33794000D02*
G75*
G02*
X82404573Y-32426958I1534993J684001D01*
G01*
X83256000Y-31575000D02*
G75*
G02*
X84623042Y-31574573I684001J-1534993D01*
G01*
X84624000Y-34645000D02*
G75*
G02*
X83256958Y-34645427I-684001J1535004D01*
G01*
X85475000Y-32426000D02*
G75*
G02*
X85620253Y-33138805I-1535001J-683999D01*
G01*
X85620000Y-33110000D02*
G75*
G02*
X85474756Y-33793318I-1680000J0D01*
G01*
X85620000Y-38110000D02*
G75*
G02*
X82260000Y-38110000I-1680000J0D01*
G01*
X82260000Y-38110000D02*
G75*
G02*
X85620000Y-38110000I1680000J0D01*
G01*
%TO.C,BOOT_1*%
X32640000Y-30390000D02*
X32640000Y-29060000D01*
X33970000Y-30390000D02*
X32640000Y-30390000D01*
X35240000Y-30390000D02*
X35240000Y-27730000D01*
X70860000Y-27730000D02*
X35240000Y-27730000D01*
X70860000Y-30390000D02*
X35240000Y-30390000D01*
X70860000Y-30390000D02*
X70860000Y-27730000D01*
%TO.C,Y1*%
X25340000Y-34230000D02*
X25340000Y-40630000D01*
X30390000Y-34230000D02*
X30390000Y-40630000D01*
X25340000Y-34230000D02*
G75*
G02*
X30390000Y-34230000I2525000J0D01*
G01*
X30390000Y-40630000D02*
G75*
G02*
X25340000Y-40630000I-2525000J0D01*
G01*
%TD*%
M02*
