%TF.GenerationSoftware,KiCad,Pcbnew,8.0.2*%
%TF.CreationDate,2024-05-23T15:50:05-04:00*%
%TF.ProjectId,ORA_Arduino_ESP_CAN_Shield_Rev_1.1,4f52415f-4172-4647-9569-6e6f5f455350,rev?*%
%TF.SameCoordinates,Original*%
%TF.FileFunction,Drillmap*%
%TF.FilePolarity,Positive*%
%FSLAX45Y45*%
G04 Gerber Fmt 4.5, Leading zero omitted, Abs format (unit mm)*
G04 Created by KiCad (PCBNEW 8.0.2) date 2024-05-23 15:50:05*
%MOMM*%
%LPD*%
G01*
G04 APERTURE LIST*
%ADD10C,0.050000*%
%ADD11C,0.200000*%
%ADD12C,0.100000*%
%ADD13C,0.130000*%
G04 APERTURE END LIST*
D10*
X9230000Y-6067000D02*
X9236000Y-6061000D01*
X8982000Y-6315000D02*
X8982000Y-6327000D01*
X9227000Y-6070000D02*
X9230000Y-6067000D01*
X2378000Y-2277000D02*
X2378000Y-7596000D01*
X8982000Y-7431000D02*
X8982000Y-6327000D01*
X2378000Y-7611000D02*
X8819000Y-7611000D01*
X8982000Y-2531000D02*
X8982000Y-2290000D01*
X7533000Y-2277000D02*
X2378000Y-2277000D01*
X8851000Y-7590000D02*
X8972000Y-7469000D01*
X9236000Y-2785000D02*
X9216000Y-2765000D01*
X8830000Y-7611000D02*
X8819000Y-7611000D01*
X9216000Y-2765000D02*
X8982000Y-2531000D01*
X2378000Y-7596000D02*
X2378000Y-7611000D01*
X8982000Y-2290000D02*
X8982000Y-2277000D01*
X8993000Y-6304000D02*
X9227000Y-6070000D01*
X8982000Y-2277000D02*
X8963000Y-2277000D01*
X8982000Y-7459000D02*
X8982000Y-7451000D01*
X9236000Y-2801000D02*
X9236000Y-2785000D01*
X8972000Y-7469000D02*
X8982000Y-7459000D01*
X8982000Y-7431000D02*
X8982000Y-7451000D01*
X8993000Y-6304000D02*
X8982000Y-6315000D01*
X8851000Y-7590000D02*
X8830000Y-7611000D01*
X9236000Y-6061000D02*
X9236000Y-2801000D01*
X8963000Y-2277000D02*
X7533000Y-2277000D01*
D11*
D12*
X2570500Y-5938000D02*
X2600500Y-5968000D01*
X2600500Y-5938000D02*
X2570500Y-5968000D01*
X2852500Y-6014000D02*
X2882500Y-6044000D01*
X2882500Y-6014000D02*
X2852500Y-6044000D01*
X2897000Y-2547000D02*
X2927000Y-2577000D01*
X2927000Y-2547000D02*
X2897000Y-2577000D01*
X2938000Y-7315000D02*
X2968000Y-7345000D01*
X2968000Y-7315000D02*
X2938000Y-7345000D01*
X3041000Y-5133000D02*
X3071000Y-5163000D01*
X3071000Y-5133000D02*
X3041000Y-5163000D01*
X3169000Y-6704000D02*
X3199000Y-6734000D01*
X3199000Y-6704000D02*
X3169000Y-6734000D01*
X3247500Y-6167000D02*
X3277500Y-6197000D01*
X3277500Y-6167000D02*
X3247500Y-6197000D01*
X3488500Y-6494000D02*
X3518500Y-6524000D01*
X3518500Y-6494000D02*
X3488500Y-6524000D01*
X3571000Y-7311000D02*
X3601000Y-7341000D01*
X3601000Y-7311000D02*
X3571000Y-7341000D01*
X3599000Y-6885000D02*
X3629000Y-6915000D01*
X3629000Y-6885000D02*
X3599000Y-6915000D01*
X3729000Y-7066000D02*
X3759000Y-7096000D01*
X3759000Y-7066000D02*
X3729000Y-7096000D01*
X3766000Y-7326000D02*
X3796000Y-7356000D01*
X3796000Y-7326000D02*
X3766000Y-7356000D01*
X3784000Y-6772000D02*
X3814000Y-6802000D01*
X3814000Y-6772000D02*
X3784000Y-6802000D01*
X4001500Y-6626000D02*
X4031500Y-6656000D01*
X4031500Y-6626000D02*
X4001500Y-6656000D01*
X4007500Y-4709000D02*
X4037500Y-4739000D01*
X4037500Y-4709000D02*
X4007500Y-4739000D01*
X4121500Y-6689000D02*
X4151500Y-6719000D01*
X4151500Y-6689000D02*
X4121500Y-6719000D01*
X4143500Y-5650000D02*
X4173500Y-5680000D01*
X4173500Y-5650000D02*
X4143500Y-5680000D01*
X4526500Y-5763000D02*
X4556500Y-5793000D01*
X4556500Y-5763000D02*
X4526500Y-5793000D01*
X4751500Y-7038000D02*
X4781500Y-7068000D01*
X4781500Y-7038000D02*
X4751500Y-7068000D01*
X5035500Y-5669000D02*
X5065500Y-5699000D01*
X5065500Y-5669000D02*
X5035500Y-5699000D01*
X5052000Y-6601000D02*
X5082000Y-6631000D01*
X5082000Y-6601000D02*
X5052000Y-6631000D01*
X5060000Y-6476000D02*
X5090000Y-6506000D01*
X5090000Y-6476000D02*
X5060000Y-6506000D01*
X5462500Y-6018000D02*
X5492500Y-6048000D01*
X5492500Y-6018000D02*
X5462500Y-6048000D01*
X5498500Y-5671000D02*
X5528500Y-5701000D01*
X5528500Y-5671000D02*
X5498500Y-5701000D01*
X6329000Y-5133000D02*
X6359000Y-5163000D01*
X6359000Y-5133000D02*
X6329000Y-5163000D01*
X6939000Y-4812000D02*
X6969000Y-4842000D01*
X6969000Y-4812000D02*
X6939000Y-4842000D01*
X7098948Y-6478948D02*
X7128948Y-6508948D01*
X7128948Y-6478948D02*
X7098948Y-6508948D01*
X7159052Y-6539052D02*
X7189052Y-6569052D01*
X7189052Y-6539052D02*
X7159052Y-6569052D01*
X7345000Y-3604000D02*
X7375000Y-3634000D01*
X7375000Y-3604000D02*
X7345000Y-3634000D01*
X7348000Y-3405000D02*
X7378000Y-3435000D01*
X7378000Y-3405000D02*
X7348000Y-3435000D01*
X7604500Y-4122000D02*
X7634500Y-4152000D01*
X7634500Y-4122000D02*
X7604500Y-4152000D01*
X7689500Y-4122000D02*
X7719500Y-4152000D01*
X7719500Y-4122000D02*
X7689500Y-4152000D01*
X2826500Y-3499000D02*
G75*
G02*
X2746500Y-3499000I-40000J0D01*
G01*
X2746500Y-3499000D02*
G75*
G02*
X2826500Y-3499000I40000J0D01*
G01*
X2826500Y-3987000D02*
G75*
G02*
X2746500Y-3987000I-40000J0D01*
G01*
X2746500Y-3987000D02*
G75*
G02*
X2826500Y-3987000I40000J0D01*
G01*
X3397000Y-2861000D02*
X3397000Y-2961000D01*
X3347000Y-2911000D02*
X3447000Y-2911000D01*
X3397000Y-5396000D02*
X3397000Y-5496000D01*
X3347000Y-5446000D02*
X3447000Y-5446000D01*
X3651000Y-2861000D02*
X3651000Y-2961000D01*
X3601000Y-2911000D02*
X3701000Y-2911000D01*
X3651000Y-5396000D02*
X3651000Y-5496000D01*
X3601000Y-5446000D02*
X3701000Y-5446000D01*
X3905000Y-2861000D02*
X3905000Y-2961000D01*
X3855000Y-2911000D02*
X3955000Y-2911000D01*
X3905000Y-5396000D02*
X3905000Y-5496000D01*
X3855000Y-5446000D02*
X3955000Y-5446000D01*
X4159000Y-2861000D02*
X4159000Y-2961000D01*
X4109000Y-2911000D02*
X4209000Y-2911000D01*
X4159000Y-5396000D02*
X4159000Y-5496000D01*
X4109000Y-5446000D02*
X4209000Y-5446000D01*
X4256000Y-7308000D02*
X4256000Y-7408000D01*
X4206000Y-7358000D02*
X4306000Y-7358000D01*
X4413000Y-2861000D02*
X4413000Y-2961000D01*
X4363000Y-2911000D02*
X4463000Y-2911000D01*
X4413000Y-5396000D02*
X4413000Y-5496000D01*
X4363000Y-5446000D02*
X4463000Y-5446000D01*
X4510000Y-7308000D02*
X4510000Y-7408000D01*
X4460000Y-7358000D02*
X4560000Y-7358000D01*
X4667000Y-2861000D02*
X4667000Y-2961000D01*
X4617000Y-2911000D02*
X4717000Y-2911000D01*
X4667000Y-5396000D02*
X4667000Y-5496000D01*
X4617000Y-5446000D02*
X4717000Y-5446000D01*
X4764000Y-7308000D02*
X4764000Y-7408000D01*
X4714000Y-7358000D02*
X4814000Y-7358000D01*
X4921000Y-2861000D02*
X4921000Y-2961000D01*
X4871000Y-2911000D02*
X4971000Y-2911000D01*
X4921000Y-5396000D02*
X4921000Y-5496000D01*
X4871000Y-5446000D02*
X4971000Y-5446000D01*
X5018000Y-7308000D02*
X5018000Y-7408000D01*
X4968000Y-7358000D02*
X5068000Y-7358000D01*
X5171500Y-2482000D02*
X5171500Y-2582000D01*
X5121500Y-2532000D02*
X5221500Y-2532000D01*
X5175000Y-2861000D02*
X5175000Y-2961000D01*
X5125000Y-2911000D02*
X5225000Y-2911000D01*
X5175000Y-5396000D02*
X5175000Y-5496000D01*
X5125000Y-5446000D02*
X5225000Y-5446000D01*
X5272000Y-7308000D02*
X5272000Y-7408000D01*
X5222000Y-7358000D02*
X5322000Y-7358000D01*
X5425500Y-2482000D02*
X5425500Y-2582000D01*
X5375500Y-2532000D02*
X5475500Y-2532000D01*
X5429000Y-2861000D02*
X5429000Y-2961000D01*
X5379000Y-2911000D02*
X5479000Y-2911000D01*
X5429000Y-5396000D02*
X5429000Y-5496000D01*
X5379000Y-5446000D02*
X5479000Y-5446000D01*
X5526000Y-7308000D02*
X5526000Y-7408000D01*
X5476000Y-7358000D02*
X5576000Y-7358000D01*
X5679500Y-2482000D02*
X5679500Y-2582000D01*
X5629500Y-2532000D02*
X5729500Y-2532000D01*
X5683000Y-2861000D02*
X5683000Y-2961000D01*
X5633000Y-2911000D02*
X5733000Y-2911000D01*
X5683000Y-5396000D02*
X5683000Y-5496000D01*
X5633000Y-5446000D02*
X5733000Y-5446000D01*
X5780000Y-7308000D02*
X5780000Y-7408000D01*
X5730000Y-7358000D02*
X5830000Y-7358000D01*
X5933500Y-2482000D02*
X5933500Y-2582000D01*
X5883500Y-2532000D02*
X5983500Y-2532000D01*
X5937000Y-2861000D02*
X5937000Y-2961000D01*
X5887000Y-2911000D02*
X5987000Y-2911000D01*
X5937000Y-5396000D02*
X5937000Y-5496000D01*
X5887000Y-5446000D02*
X5987000Y-5446000D01*
X6034000Y-7308000D02*
X6034000Y-7408000D01*
X5984000Y-7358000D02*
X6084000Y-7358000D01*
X6187500Y-2482000D02*
X6187500Y-2582000D01*
X6137500Y-2532000D02*
X6237500Y-2532000D01*
X6191000Y-2861000D02*
X6191000Y-2961000D01*
X6141000Y-2911000D02*
X6241000Y-2911000D01*
X6191000Y-5396000D02*
X6191000Y-5496000D01*
X6141000Y-5446000D02*
X6241000Y-5446000D01*
X6288000Y-7308000D02*
X6288000Y-7408000D01*
X6238000Y-7358000D02*
X6338000Y-7358000D01*
X6441500Y-2482000D02*
X6441500Y-2582000D01*
X6391500Y-2532000D02*
X6491500Y-2532000D01*
X6445000Y-2861000D02*
X6445000Y-2961000D01*
X6395000Y-2911000D02*
X6495000Y-2911000D01*
X6445000Y-5396000D02*
X6445000Y-5496000D01*
X6395000Y-5446000D02*
X6495000Y-5446000D01*
X6542000Y-7308000D02*
X6542000Y-7408000D01*
X6492000Y-7358000D02*
X6592000Y-7358000D01*
X6695500Y-2482000D02*
X6695500Y-2582000D01*
X6645500Y-2532000D02*
X6745500Y-2532000D01*
X6699000Y-2861000D02*
X6699000Y-2961000D01*
X6649000Y-2911000D02*
X6749000Y-2911000D01*
X6699000Y-5396000D02*
X6699000Y-5496000D01*
X6649000Y-5446000D02*
X6749000Y-5446000D01*
X6949000Y-7308000D02*
X6949000Y-7408000D01*
X6899000Y-7358000D02*
X6999000Y-7358000D01*
X6949500Y-2482000D02*
X6949500Y-2582000D01*
X6899500Y-2532000D02*
X6999500Y-2532000D01*
X6953000Y-2861000D02*
X6953000Y-2961000D01*
X6903000Y-2911000D02*
X7003000Y-2911000D01*
X6953000Y-5396000D02*
X6953000Y-5496000D01*
X6903000Y-5446000D02*
X7003000Y-5446000D01*
X7203000Y-7308000D02*
X7203000Y-7408000D01*
X7153000Y-7358000D02*
X7253000Y-7358000D01*
X7457000Y-2481000D02*
X7457000Y-2581000D01*
X7407000Y-2531000D02*
X7507000Y-2531000D01*
X7457000Y-7308000D02*
X7457000Y-7408000D01*
X7407000Y-7358000D02*
X7507000Y-7358000D01*
X7711000Y-2481000D02*
X7711000Y-2581000D01*
X7661000Y-2531000D02*
X7761000Y-2531000D01*
X7711000Y-7308000D02*
X7711000Y-7408000D01*
X7661000Y-7358000D02*
X7761000Y-7358000D01*
X7965000Y-2481000D02*
X7965000Y-2581000D01*
X7915000Y-2531000D02*
X8015000Y-2531000D01*
X7965000Y-7308000D02*
X7965000Y-7408000D01*
X7915000Y-7358000D02*
X8015000Y-7358000D01*
X8219000Y-2481000D02*
X8219000Y-2581000D01*
X8169000Y-2531000D02*
X8269000Y-2531000D01*
X8219000Y-7308000D02*
X8219000Y-7408000D01*
X8169000Y-7358000D02*
X8269000Y-7358000D01*
X8473000Y-2481000D02*
X8473000Y-2581000D01*
X8423000Y-2531000D02*
X8523000Y-2531000D01*
X8473000Y-7308000D02*
X8473000Y-7408000D01*
X8423000Y-7358000D02*
X8523000Y-7358000D01*
X8727000Y-2481000D02*
X8727000Y-2581000D01*
X8677000Y-2531000D02*
X8777000Y-2531000D01*
X8727000Y-7308000D02*
X8727000Y-7408000D01*
X8677000Y-7358000D02*
X8777000Y-7358000D01*
D13*
X8439962Y-3356962D02*
X8439962Y-3265038D01*
X8348038Y-3265038D01*
X8348038Y-3356962D01*
X8439962Y-3356962D01*
X8439962Y-3856962D02*
X8439962Y-3765038D01*
X8348038Y-3765038D01*
X8348038Y-3856962D01*
X8439962Y-3856962D01*
X8444962Y-4787962D02*
X8444962Y-4696038D01*
X8353038Y-4696038D01*
X8353038Y-4787962D01*
X8444962Y-4787962D01*
X8444962Y-5287962D02*
X8444962Y-5196038D01*
X8353038Y-5196038D01*
X8353038Y-5287962D01*
X8444962Y-5287962D01*
D11*
X2636277Y-7924984D02*
X2636277Y-7724984D01*
X2636277Y-7724984D02*
X2683896Y-7724984D01*
X2683896Y-7724984D02*
X2712467Y-7734508D01*
X2712467Y-7734508D02*
X2731515Y-7753555D01*
X2731515Y-7753555D02*
X2741039Y-7772603D01*
X2741039Y-7772603D02*
X2750563Y-7810698D01*
X2750563Y-7810698D02*
X2750563Y-7839269D01*
X2750563Y-7839269D02*
X2741039Y-7877365D01*
X2741039Y-7877365D02*
X2731515Y-7896412D01*
X2731515Y-7896412D02*
X2712467Y-7915460D01*
X2712467Y-7915460D02*
X2683896Y-7924984D01*
X2683896Y-7924984D02*
X2636277Y-7924984D01*
X2836277Y-7924984D02*
X2836277Y-7791650D01*
X2836277Y-7829746D02*
X2845801Y-7810698D01*
X2845801Y-7810698D02*
X2855324Y-7801174D01*
X2855324Y-7801174D02*
X2874372Y-7791650D01*
X2874372Y-7791650D02*
X2893420Y-7791650D01*
X2960086Y-7924984D02*
X2960086Y-7791650D01*
X2960086Y-7724984D02*
X2950562Y-7734508D01*
X2950562Y-7734508D02*
X2960086Y-7744031D01*
X2960086Y-7744031D02*
X2969610Y-7734508D01*
X2969610Y-7734508D02*
X2960086Y-7724984D01*
X2960086Y-7724984D02*
X2960086Y-7744031D01*
X3083896Y-7924984D02*
X3064848Y-7915460D01*
X3064848Y-7915460D02*
X3055324Y-7896412D01*
X3055324Y-7896412D02*
X3055324Y-7724984D01*
X3188658Y-7924984D02*
X3169610Y-7915460D01*
X3169610Y-7915460D02*
X3160086Y-7896412D01*
X3160086Y-7896412D02*
X3160086Y-7724984D01*
X3417229Y-7924984D02*
X3417229Y-7724984D01*
X3417229Y-7724984D02*
X3483896Y-7867841D01*
X3483896Y-7867841D02*
X3550562Y-7724984D01*
X3550562Y-7724984D02*
X3550562Y-7924984D01*
X3731515Y-7924984D02*
X3731515Y-7820222D01*
X3731515Y-7820222D02*
X3721991Y-7801174D01*
X3721991Y-7801174D02*
X3702943Y-7791650D01*
X3702943Y-7791650D02*
X3664848Y-7791650D01*
X3664848Y-7791650D02*
X3645801Y-7801174D01*
X3731515Y-7915460D02*
X3712467Y-7924984D01*
X3712467Y-7924984D02*
X3664848Y-7924984D01*
X3664848Y-7924984D02*
X3645801Y-7915460D01*
X3645801Y-7915460D02*
X3636277Y-7896412D01*
X3636277Y-7896412D02*
X3636277Y-7877365D01*
X3636277Y-7877365D02*
X3645801Y-7858317D01*
X3645801Y-7858317D02*
X3664848Y-7848793D01*
X3664848Y-7848793D02*
X3712467Y-7848793D01*
X3712467Y-7848793D02*
X3731515Y-7839269D01*
X3826753Y-7791650D02*
X3826753Y-7991650D01*
X3826753Y-7801174D02*
X3845801Y-7791650D01*
X3845801Y-7791650D02*
X3883896Y-7791650D01*
X3883896Y-7791650D02*
X3902943Y-7801174D01*
X3902943Y-7801174D02*
X3912467Y-7810698D01*
X3912467Y-7810698D02*
X3921991Y-7829746D01*
X3921991Y-7829746D02*
X3921991Y-7886888D01*
X3921991Y-7886888D02*
X3912467Y-7905936D01*
X3912467Y-7905936D02*
X3902943Y-7915460D01*
X3902943Y-7915460D02*
X3883896Y-7924984D01*
X3883896Y-7924984D02*
X3845801Y-7924984D01*
X3845801Y-7924984D02*
X3826753Y-7915460D01*
X4007705Y-7905936D02*
X4017229Y-7915460D01*
X4017229Y-7915460D02*
X4007705Y-7924984D01*
X4007705Y-7924984D02*
X3998182Y-7915460D01*
X3998182Y-7915460D02*
X4007705Y-7905936D01*
X4007705Y-7905936D02*
X4007705Y-7924984D01*
X4007705Y-7801174D02*
X4017229Y-7810698D01*
X4017229Y-7810698D02*
X4007705Y-7820222D01*
X4007705Y-7820222D02*
X3998182Y-7810698D01*
X3998182Y-7810698D02*
X4007705Y-7801174D01*
X4007705Y-7801174D02*
X4007705Y-7820222D01*
D12*
X2345500Y-8238500D02*
X2375500Y-8268500D01*
X2375500Y-8238500D02*
X2345500Y-8268500D01*
D11*
X2674372Y-8144984D02*
X2693420Y-8144984D01*
X2693420Y-8144984D02*
X2712467Y-8154508D01*
X2712467Y-8154508D02*
X2721991Y-8164031D01*
X2721991Y-8164031D02*
X2731515Y-8183079D01*
X2731515Y-8183079D02*
X2741039Y-8221174D01*
X2741039Y-8221174D02*
X2741039Y-8268793D01*
X2741039Y-8268793D02*
X2731515Y-8306888D01*
X2731515Y-8306888D02*
X2721991Y-8325936D01*
X2721991Y-8325936D02*
X2712467Y-8335460D01*
X2712467Y-8335460D02*
X2693420Y-8344984D01*
X2693420Y-8344984D02*
X2674372Y-8344984D01*
X2674372Y-8344984D02*
X2655324Y-8335460D01*
X2655324Y-8335460D02*
X2645801Y-8325936D01*
X2645801Y-8325936D02*
X2636277Y-8306888D01*
X2636277Y-8306888D02*
X2626753Y-8268793D01*
X2626753Y-8268793D02*
X2626753Y-8221174D01*
X2626753Y-8221174D02*
X2636277Y-8183079D01*
X2636277Y-8183079D02*
X2645801Y-8164031D01*
X2645801Y-8164031D02*
X2655324Y-8154508D01*
X2655324Y-8154508D02*
X2674372Y-8144984D01*
X2826753Y-8325936D02*
X2836277Y-8335460D01*
X2836277Y-8335460D02*
X2826753Y-8344984D01*
X2826753Y-8344984D02*
X2817229Y-8335460D01*
X2817229Y-8335460D02*
X2826753Y-8325936D01*
X2826753Y-8325936D02*
X2826753Y-8344984D01*
X2902943Y-8144984D02*
X3026753Y-8144984D01*
X3026753Y-8144984D02*
X2960086Y-8221174D01*
X2960086Y-8221174D02*
X2988658Y-8221174D01*
X2988658Y-8221174D02*
X3007705Y-8230698D01*
X3007705Y-8230698D02*
X3017229Y-8240222D01*
X3017229Y-8240222D02*
X3026753Y-8259269D01*
X3026753Y-8259269D02*
X3026753Y-8306888D01*
X3026753Y-8306888D02*
X3017229Y-8325936D01*
X3017229Y-8325936D02*
X3007705Y-8335460D01*
X3007705Y-8335460D02*
X2988658Y-8344984D01*
X2988658Y-8344984D02*
X2931515Y-8344984D01*
X2931515Y-8344984D02*
X2912467Y-8335460D01*
X2912467Y-8335460D02*
X2902943Y-8325936D01*
X3150562Y-8144984D02*
X3169610Y-8144984D01*
X3169610Y-8144984D02*
X3188658Y-8154508D01*
X3188658Y-8154508D02*
X3198182Y-8164031D01*
X3198182Y-8164031D02*
X3207705Y-8183079D01*
X3207705Y-8183079D02*
X3217229Y-8221174D01*
X3217229Y-8221174D02*
X3217229Y-8268793D01*
X3217229Y-8268793D02*
X3207705Y-8306888D01*
X3207705Y-8306888D02*
X3198182Y-8325936D01*
X3198182Y-8325936D02*
X3188658Y-8335460D01*
X3188658Y-8335460D02*
X3169610Y-8344984D01*
X3169610Y-8344984D02*
X3150562Y-8344984D01*
X3150562Y-8344984D02*
X3131515Y-8335460D01*
X3131515Y-8335460D02*
X3121991Y-8325936D01*
X3121991Y-8325936D02*
X3112467Y-8306888D01*
X3112467Y-8306888D02*
X3102943Y-8268793D01*
X3102943Y-8268793D02*
X3102943Y-8221174D01*
X3102943Y-8221174D02*
X3112467Y-8183079D01*
X3112467Y-8183079D02*
X3121991Y-8164031D01*
X3121991Y-8164031D02*
X3131515Y-8154508D01*
X3131515Y-8154508D02*
X3150562Y-8144984D01*
X3341039Y-8144984D02*
X3360086Y-8144984D01*
X3360086Y-8144984D02*
X3379134Y-8154508D01*
X3379134Y-8154508D02*
X3388658Y-8164031D01*
X3388658Y-8164031D02*
X3398182Y-8183079D01*
X3398182Y-8183079D02*
X3407705Y-8221174D01*
X3407705Y-8221174D02*
X3407705Y-8268793D01*
X3407705Y-8268793D02*
X3398182Y-8306888D01*
X3398182Y-8306888D02*
X3388658Y-8325936D01*
X3388658Y-8325936D02*
X3379134Y-8335460D01*
X3379134Y-8335460D02*
X3360086Y-8344984D01*
X3360086Y-8344984D02*
X3341039Y-8344984D01*
X3341039Y-8344984D02*
X3321991Y-8335460D01*
X3321991Y-8335460D02*
X3312467Y-8325936D01*
X3312467Y-8325936D02*
X3302943Y-8306888D01*
X3302943Y-8306888D02*
X3293420Y-8268793D01*
X3293420Y-8268793D02*
X3293420Y-8221174D01*
X3293420Y-8221174D02*
X3302943Y-8183079D01*
X3302943Y-8183079D02*
X3312467Y-8164031D01*
X3312467Y-8164031D02*
X3321991Y-8154508D01*
X3321991Y-8154508D02*
X3341039Y-8144984D01*
X3493420Y-8344984D02*
X3493420Y-8211650D01*
X3493420Y-8230698D02*
X3502943Y-8221174D01*
X3502943Y-8221174D02*
X3521991Y-8211650D01*
X3521991Y-8211650D02*
X3550563Y-8211650D01*
X3550563Y-8211650D02*
X3569610Y-8221174D01*
X3569610Y-8221174D02*
X3579134Y-8240222D01*
X3579134Y-8240222D02*
X3579134Y-8344984D01*
X3579134Y-8240222D02*
X3588658Y-8221174D01*
X3588658Y-8221174D02*
X3607705Y-8211650D01*
X3607705Y-8211650D02*
X3636277Y-8211650D01*
X3636277Y-8211650D02*
X3655324Y-8221174D01*
X3655324Y-8221174D02*
X3664848Y-8240222D01*
X3664848Y-8240222D02*
X3664848Y-8344984D01*
X3760086Y-8344984D02*
X3760086Y-8211650D01*
X3760086Y-8230698D02*
X3769610Y-8221174D01*
X3769610Y-8221174D02*
X3788658Y-8211650D01*
X3788658Y-8211650D02*
X3817229Y-8211650D01*
X3817229Y-8211650D02*
X3836277Y-8221174D01*
X3836277Y-8221174D02*
X3845801Y-8240222D01*
X3845801Y-8240222D02*
X3845801Y-8344984D01*
X3845801Y-8240222D02*
X3855324Y-8221174D01*
X3855324Y-8221174D02*
X3874372Y-8211650D01*
X3874372Y-8211650D02*
X3902943Y-8211650D01*
X3902943Y-8211650D02*
X3921991Y-8221174D01*
X3921991Y-8221174D02*
X3931515Y-8240222D01*
X3931515Y-8240222D02*
X3931515Y-8344984D01*
X4321991Y-8135460D02*
X4150563Y-8392603D01*
X4579134Y-8144984D02*
X4598182Y-8144984D01*
X4598182Y-8144984D02*
X4617229Y-8154508D01*
X4617229Y-8154508D02*
X4626753Y-8164031D01*
X4626753Y-8164031D02*
X4636277Y-8183079D01*
X4636277Y-8183079D02*
X4645801Y-8221174D01*
X4645801Y-8221174D02*
X4645801Y-8268793D01*
X4645801Y-8268793D02*
X4636277Y-8306888D01*
X4636277Y-8306888D02*
X4626753Y-8325936D01*
X4626753Y-8325936D02*
X4617229Y-8335460D01*
X4617229Y-8335460D02*
X4598182Y-8344984D01*
X4598182Y-8344984D02*
X4579134Y-8344984D01*
X4579134Y-8344984D02*
X4560087Y-8335460D01*
X4560087Y-8335460D02*
X4550563Y-8325936D01*
X4550563Y-8325936D02*
X4541039Y-8306888D01*
X4541039Y-8306888D02*
X4531515Y-8268793D01*
X4531515Y-8268793D02*
X4531515Y-8221174D01*
X4531515Y-8221174D02*
X4541039Y-8183079D01*
X4541039Y-8183079D02*
X4550563Y-8164031D01*
X4550563Y-8164031D02*
X4560087Y-8154508D01*
X4560087Y-8154508D02*
X4579134Y-8144984D01*
X4731515Y-8325936D02*
X4741039Y-8335460D01*
X4741039Y-8335460D02*
X4731515Y-8344984D01*
X4731515Y-8344984D02*
X4721991Y-8335460D01*
X4721991Y-8335460D02*
X4731515Y-8325936D01*
X4731515Y-8325936D02*
X4731515Y-8344984D01*
X4864848Y-8144984D02*
X4883896Y-8144984D01*
X4883896Y-8144984D02*
X4902944Y-8154508D01*
X4902944Y-8154508D02*
X4912468Y-8164031D01*
X4912468Y-8164031D02*
X4921991Y-8183079D01*
X4921991Y-8183079D02*
X4931515Y-8221174D01*
X4931515Y-8221174D02*
X4931515Y-8268793D01*
X4931515Y-8268793D02*
X4921991Y-8306888D01*
X4921991Y-8306888D02*
X4912468Y-8325936D01*
X4912468Y-8325936D02*
X4902944Y-8335460D01*
X4902944Y-8335460D02*
X4883896Y-8344984D01*
X4883896Y-8344984D02*
X4864848Y-8344984D01*
X4864848Y-8344984D02*
X4845801Y-8335460D01*
X4845801Y-8335460D02*
X4836277Y-8325936D01*
X4836277Y-8325936D02*
X4826753Y-8306888D01*
X4826753Y-8306888D02*
X4817229Y-8268793D01*
X4817229Y-8268793D02*
X4817229Y-8221174D01*
X4817229Y-8221174D02*
X4826753Y-8183079D01*
X4826753Y-8183079D02*
X4836277Y-8164031D01*
X4836277Y-8164031D02*
X4845801Y-8154508D01*
X4845801Y-8154508D02*
X4864848Y-8144984D01*
X5121991Y-8344984D02*
X5007706Y-8344984D01*
X5064848Y-8344984D02*
X5064848Y-8144984D01*
X5064848Y-8144984D02*
X5045801Y-8173555D01*
X5045801Y-8173555D02*
X5026753Y-8192603D01*
X5026753Y-8192603D02*
X5007706Y-8202127D01*
X5312468Y-8344984D02*
X5198182Y-8344984D01*
X5255325Y-8344984D02*
X5255325Y-8144984D01*
X5255325Y-8144984D02*
X5236277Y-8173555D01*
X5236277Y-8173555D02*
X5217229Y-8192603D01*
X5217229Y-8192603D02*
X5198182Y-8202127D01*
X5426753Y-8230698D02*
X5407706Y-8221174D01*
X5407706Y-8221174D02*
X5398182Y-8211650D01*
X5398182Y-8211650D02*
X5388658Y-8192603D01*
X5388658Y-8192603D02*
X5388658Y-8183079D01*
X5388658Y-8183079D02*
X5398182Y-8164031D01*
X5398182Y-8164031D02*
X5407706Y-8154508D01*
X5407706Y-8154508D02*
X5426753Y-8144984D01*
X5426753Y-8144984D02*
X5464849Y-8144984D01*
X5464849Y-8144984D02*
X5483896Y-8154508D01*
X5483896Y-8154508D02*
X5493420Y-8164031D01*
X5493420Y-8164031D02*
X5502944Y-8183079D01*
X5502944Y-8183079D02*
X5502944Y-8192603D01*
X5502944Y-8192603D02*
X5493420Y-8211650D01*
X5493420Y-8211650D02*
X5483896Y-8221174D01*
X5483896Y-8221174D02*
X5464849Y-8230698D01*
X5464849Y-8230698D02*
X5426753Y-8230698D01*
X5426753Y-8230698D02*
X5407706Y-8240222D01*
X5407706Y-8240222D02*
X5398182Y-8249746D01*
X5398182Y-8249746D02*
X5388658Y-8268793D01*
X5388658Y-8268793D02*
X5388658Y-8306888D01*
X5388658Y-8306888D02*
X5398182Y-8325936D01*
X5398182Y-8325936D02*
X5407706Y-8335460D01*
X5407706Y-8335460D02*
X5426753Y-8344984D01*
X5426753Y-8344984D02*
X5464849Y-8344984D01*
X5464849Y-8344984D02*
X5483896Y-8335460D01*
X5483896Y-8335460D02*
X5493420Y-8325936D01*
X5493420Y-8325936D02*
X5502944Y-8306888D01*
X5502944Y-8306888D02*
X5502944Y-8268793D01*
X5502944Y-8268793D02*
X5493420Y-8249746D01*
X5493420Y-8249746D02*
X5483896Y-8240222D01*
X5483896Y-8240222D02*
X5464849Y-8230698D01*
X5579134Y-8144984D02*
X5579134Y-8183079D01*
X5655325Y-8144984D02*
X5655325Y-8183079D01*
X5950563Y-8421174D02*
X5941039Y-8411650D01*
X5941039Y-8411650D02*
X5921991Y-8383079D01*
X5921991Y-8383079D02*
X5912468Y-8364031D01*
X5912468Y-8364031D02*
X5902944Y-8335460D01*
X5902944Y-8335460D02*
X5893420Y-8287841D01*
X5893420Y-8287841D02*
X5893420Y-8249746D01*
X5893420Y-8249746D02*
X5902944Y-8202127D01*
X5902944Y-8202127D02*
X5912468Y-8173555D01*
X5912468Y-8173555D02*
X5921991Y-8154508D01*
X5921991Y-8154508D02*
X5941039Y-8125936D01*
X5941039Y-8125936D02*
X5950563Y-8116412D01*
X6007706Y-8144984D02*
X6131515Y-8144984D01*
X6131515Y-8144984D02*
X6064848Y-8221174D01*
X6064848Y-8221174D02*
X6093420Y-8221174D01*
X6093420Y-8221174D02*
X6112468Y-8230698D01*
X6112468Y-8230698D02*
X6121991Y-8240222D01*
X6121991Y-8240222D02*
X6131515Y-8259269D01*
X6131515Y-8259269D02*
X6131515Y-8306888D01*
X6131515Y-8306888D02*
X6121991Y-8325936D01*
X6121991Y-8325936D02*
X6112468Y-8335460D01*
X6112468Y-8335460D02*
X6093420Y-8344984D01*
X6093420Y-8344984D02*
X6036277Y-8344984D01*
X6036277Y-8344984D02*
X6017229Y-8335460D01*
X6017229Y-8335460D02*
X6007706Y-8325936D01*
X6207706Y-8164031D02*
X6217229Y-8154508D01*
X6217229Y-8154508D02*
X6236277Y-8144984D01*
X6236277Y-8144984D02*
X6283896Y-8144984D01*
X6283896Y-8144984D02*
X6302944Y-8154508D01*
X6302944Y-8154508D02*
X6312468Y-8164031D01*
X6312468Y-8164031D02*
X6321991Y-8183079D01*
X6321991Y-8183079D02*
X6321991Y-8202127D01*
X6321991Y-8202127D02*
X6312468Y-8230698D01*
X6312468Y-8230698D02*
X6198182Y-8344984D01*
X6198182Y-8344984D02*
X6321991Y-8344984D01*
X6560087Y-8344984D02*
X6560087Y-8144984D01*
X6645801Y-8344984D02*
X6645801Y-8240222D01*
X6645801Y-8240222D02*
X6636277Y-8221174D01*
X6636277Y-8221174D02*
X6617230Y-8211650D01*
X6617230Y-8211650D02*
X6588658Y-8211650D01*
X6588658Y-8211650D02*
X6569610Y-8221174D01*
X6569610Y-8221174D02*
X6560087Y-8230698D01*
X6769610Y-8344984D02*
X6750563Y-8335460D01*
X6750563Y-8335460D02*
X6741039Y-8325936D01*
X6741039Y-8325936D02*
X6731515Y-8306888D01*
X6731515Y-8306888D02*
X6731515Y-8249746D01*
X6731515Y-8249746D02*
X6741039Y-8230698D01*
X6741039Y-8230698D02*
X6750563Y-8221174D01*
X6750563Y-8221174D02*
X6769610Y-8211650D01*
X6769610Y-8211650D02*
X6798182Y-8211650D01*
X6798182Y-8211650D02*
X6817230Y-8221174D01*
X6817230Y-8221174D02*
X6826753Y-8230698D01*
X6826753Y-8230698D02*
X6836277Y-8249746D01*
X6836277Y-8249746D02*
X6836277Y-8306888D01*
X6836277Y-8306888D02*
X6826753Y-8325936D01*
X6826753Y-8325936D02*
X6817230Y-8335460D01*
X6817230Y-8335460D02*
X6798182Y-8344984D01*
X6798182Y-8344984D02*
X6769610Y-8344984D01*
X6950563Y-8344984D02*
X6931515Y-8335460D01*
X6931515Y-8335460D02*
X6921991Y-8316412D01*
X6921991Y-8316412D02*
X6921991Y-8144984D01*
X7102944Y-8335460D02*
X7083896Y-8344984D01*
X7083896Y-8344984D02*
X7045801Y-8344984D01*
X7045801Y-8344984D02*
X7026753Y-8335460D01*
X7026753Y-8335460D02*
X7017230Y-8316412D01*
X7017230Y-8316412D02*
X7017230Y-8240222D01*
X7017230Y-8240222D02*
X7026753Y-8221174D01*
X7026753Y-8221174D02*
X7045801Y-8211650D01*
X7045801Y-8211650D02*
X7083896Y-8211650D01*
X7083896Y-8211650D02*
X7102944Y-8221174D01*
X7102944Y-8221174D02*
X7112468Y-8240222D01*
X7112468Y-8240222D02*
X7112468Y-8259269D01*
X7112468Y-8259269D02*
X7017230Y-8278317D01*
X7188658Y-8335460D02*
X7207706Y-8344984D01*
X7207706Y-8344984D02*
X7245801Y-8344984D01*
X7245801Y-8344984D02*
X7264849Y-8335460D01*
X7264849Y-8335460D02*
X7274372Y-8316412D01*
X7274372Y-8316412D02*
X7274372Y-8306888D01*
X7274372Y-8306888D02*
X7264849Y-8287841D01*
X7264849Y-8287841D02*
X7245801Y-8278317D01*
X7245801Y-8278317D02*
X7217230Y-8278317D01*
X7217230Y-8278317D02*
X7198182Y-8268793D01*
X7198182Y-8268793D02*
X7188658Y-8249746D01*
X7188658Y-8249746D02*
X7188658Y-8240222D01*
X7188658Y-8240222D02*
X7198182Y-8221174D01*
X7198182Y-8221174D02*
X7217230Y-8211650D01*
X7217230Y-8211650D02*
X7245801Y-8211650D01*
X7245801Y-8211650D02*
X7264849Y-8221174D01*
X7341039Y-8421174D02*
X7350563Y-8411650D01*
X7350563Y-8411650D02*
X7369611Y-8383079D01*
X7369611Y-8383079D02*
X7379134Y-8364031D01*
X7379134Y-8364031D02*
X7388658Y-8335460D01*
X7388658Y-8335460D02*
X7398182Y-8287841D01*
X7398182Y-8287841D02*
X7398182Y-8249746D01*
X7398182Y-8249746D02*
X7388658Y-8202127D01*
X7388658Y-8202127D02*
X7379134Y-8173555D01*
X7379134Y-8173555D02*
X7369611Y-8154508D01*
X7369611Y-8154508D02*
X7350563Y-8125936D01*
X7350563Y-8125936D02*
X7341039Y-8116412D01*
D12*
X2375500Y-8517500D02*
G75*
G02*
X2295500Y-8517500I-40000J0D01*
G01*
X2295500Y-8517500D02*
G75*
G02*
X2375500Y-8517500I40000J0D01*
G01*
D11*
X2674372Y-8408984D02*
X2693420Y-8408984D01*
X2693420Y-8408984D02*
X2712467Y-8418508D01*
X2712467Y-8418508D02*
X2721991Y-8428031D01*
X2721991Y-8428031D02*
X2731515Y-8447079D01*
X2731515Y-8447079D02*
X2741039Y-8485174D01*
X2741039Y-8485174D02*
X2741039Y-8532793D01*
X2741039Y-8532793D02*
X2731515Y-8570889D01*
X2731515Y-8570889D02*
X2721991Y-8589936D01*
X2721991Y-8589936D02*
X2712467Y-8599460D01*
X2712467Y-8599460D02*
X2693420Y-8608984D01*
X2693420Y-8608984D02*
X2674372Y-8608984D01*
X2674372Y-8608984D02*
X2655324Y-8599460D01*
X2655324Y-8599460D02*
X2645801Y-8589936D01*
X2645801Y-8589936D02*
X2636277Y-8570889D01*
X2636277Y-8570889D02*
X2626753Y-8532793D01*
X2626753Y-8532793D02*
X2626753Y-8485174D01*
X2626753Y-8485174D02*
X2636277Y-8447079D01*
X2636277Y-8447079D02*
X2645801Y-8428031D01*
X2645801Y-8428031D02*
X2655324Y-8418508D01*
X2655324Y-8418508D02*
X2674372Y-8408984D01*
X2826753Y-8589936D02*
X2836277Y-8599460D01*
X2836277Y-8599460D02*
X2826753Y-8608984D01*
X2826753Y-8608984D02*
X2817229Y-8599460D01*
X2817229Y-8599460D02*
X2826753Y-8589936D01*
X2826753Y-8589936D02*
X2826753Y-8608984D01*
X2950562Y-8494698D02*
X2931515Y-8485174D01*
X2931515Y-8485174D02*
X2921991Y-8475650D01*
X2921991Y-8475650D02*
X2912467Y-8456603D01*
X2912467Y-8456603D02*
X2912467Y-8447079D01*
X2912467Y-8447079D02*
X2921991Y-8428031D01*
X2921991Y-8428031D02*
X2931515Y-8418508D01*
X2931515Y-8418508D02*
X2950562Y-8408984D01*
X2950562Y-8408984D02*
X2988658Y-8408984D01*
X2988658Y-8408984D02*
X3007705Y-8418508D01*
X3007705Y-8418508D02*
X3017229Y-8428031D01*
X3017229Y-8428031D02*
X3026753Y-8447079D01*
X3026753Y-8447079D02*
X3026753Y-8456603D01*
X3026753Y-8456603D02*
X3017229Y-8475650D01*
X3017229Y-8475650D02*
X3007705Y-8485174D01*
X3007705Y-8485174D02*
X2988658Y-8494698D01*
X2988658Y-8494698D02*
X2950562Y-8494698D01*
X2950562Y-8494698D02*
X2931515Y-8504222D01*
X2931515Y-8504222D02*
X2921991Y-8513746D01*
X2921991Y-8513746D02*
X2912467Y-8532793D01*
X2912467Y-8532793D02*
X2912467Y-8570889D01*
X2912467Y-8570889D02*
X2921991Y-8589936D01*
X2921991Y-8589936D02*
X2931515Y-8599460D01*
X2931515Y-8599460D02*
X2950562Y-8608984D01*
X2950562Y-8608984D02*
X2988658Y-8608984D01*
X2988658Y-8608984D02*
X3007705Y-8599460D01*
X3007705Y-8599460D02*
X3017229Y-8589936D01*
X3017229Y-8589936D02*
X3026753Y-8570889D01*
X3026753Y-8570889D02*
X3026753Y-8532793D01*
X3026753Y-8532793D02*
X3017229Y-8513746D01*
X3017229Y-8513746D02*
X3007705Y-8504222D01*
X3007705Y-8504222D02*
X2988658Y-8494698D01*
X3150562Y-8408984D02*
X3169610Y-8408984D01*
X3169610Y-8408984D02*
X3188658Y-8418508D01*
X3188658Y-8418508D02*
X3198182Y-8428031D01*
X3198182Y-8428031D02*
X3207705Y-8447079D01*
X3207705Y-8447079D02*
X3217229Y-8485174D01*
X3217229Y-8485174D02*
X3217229Y-8532793D01*
X3217229Y-8532793D02*
X3207705Y-8570889D01*
X3207705Y-8570889D02*
X3198182Y-8589936D01*
X3198182Y-8589936D02*
X3188658Y-8599460D01*
X3188658Y-8599460D02*
X3169610Y-8608984D01*
X3169610Y-8608984D02*
X3150562Y-8608984D01*
X3150562Y-8608984D02*
X3131515Y-8599460D01*
X3131515Y-8599460D02*
X3121991Y-8589936D01*
X3121991Y-8589936D02*
X3112467Y-8570889D01*
X3112467Y-8570889D02*
X3102943Y-8532793D01*
X3102943Y-8532793D02*
X3102943Y-8485174D01*
X3102943Y-8485174D02*
X3112467Y-8447079D01*
X3112467Y-8447079D02*
X3121991Y-8428031D01*
X3121991Y-8428031D02*
X3131515Y-8418508D01*
X3131515Y-8418508D02*
X3150562Y-8408984D01*
X3341039Y-8408984D02*
X3360086Y-8408984D01*
X3360086Y-8408984D02*
X3379134Y-8418508D01*
X3379134Y-8418508D02*
X3388658Y-8428031D01*
X3388658Y-8428031D02*
X3398182Y-8447079D01*
X3398182Y-8447079D02*
X3407705Y-8485174D01*
X3407705Y-8485174D02*
X3407705Y-8532793D01*
X3407705Y-8532793D02*
X3398182Y-8570889D01*
X3398182Y-8570889D02*
X3388658Y-8589936D01*
X3388658Y-8589936D02*
X3379134Y-8599460D01*
X3379134Y-8599460D02*
X3360086Y-8608984D01*
X3360086Y-8608984D02*
X3341039Y-8608984D01*
X3341039Y-8608984D02*
X3321991Y-8599460D01*
X3321991Y-8599460D02*
X3312467Y-8589936D01*
X3312467Y-8589936D02*
X3302943Y-8570889D01*
X3302943Y-8570889D02*
X3293420Y-8532793D01*
X3293420Y-8532793D02*
X3293420Y-8485174D01*
X3293420Y-8485174D02*
X3302943Y-8447079D01*
X3302943Y-8447079D02*
X3312467Y-8428031D01*
X3312467Y-8428031D02*
X3321991Y-8418508D01*
X3321991Y-8418508D02*
X3341039Y-8408984D01*
X3493420Y-8608984D02*
X3493420Y-8475650D01*
X3493420Y-8494698D02*
X3502943Y-8485174D01*
X3502943Y-8485174D02*
X3521991Y-8475650D01*
X3521991Y-8475650D02*
X3550563Y-8475650D01*
X3550563Y-8475650D02*
X3569610Y-8485174D01*
X3569610Y-8485174D02*
X3579134Y-8504222D01*
X3579134Y-8504222D02*
X3579134Y-8608984D01*
X3579134Y-8504222D02*
X3588658Y-8485174D01*
X3588658Y-8485174D02*
X3607705Y-8475650D01*
X3607705Y-8475650D02*
X3636277Y-8475650D01*
X3636277Y-8475650D02*
X3655324Y-8485174D01*
X3655324Y-8485174D02*
X3664848Y-8504222D01*
X3664848Y-8504222D02*
X3664848Y-8608984D01*
X3760086Y-8608984D02*
X3760086Y-8475650D01*
X3760086Y-8494698D02*
X3769610Y-8485174D01*
X3769610Y-8485174D02*
X3788658Y-8475650D01*
X3788658Y-8475650D02*
X3817229Y-8475650D01*
X3817229Y-8475650D02*
X3836277Y-8485174D01*
X3836277Y-8485174D02*
X3845801Y-8504222D01*
X3845801Y-8504222D02*
X3845801Y-8608984D01*
X3845801Y-8504222D02*
X3855324Y-8485174D01*
X3855324Y-8485174D02*
X3874372Y-8475650D01*
X3874372Y-8475650D02*
X3902943Y-8475650D01*
X3902943Y-8475650D02*
X3921991Y-8485174D01*
X3921991Y-8485174D02*
X3931515Y-8504222D01*
X3931515Y-8504222D02*
X3931515Y-8608984D01*
X4321991Y-8399460D02*
X4150563Y-8656603D01*
X4579134Y-8408984D02*
X4598182Y-8408984D01*
X4598182Y-8408984D02*
X4617229Y-8418508D01*
X4617229Y-8418508D02*
X4626753Y-8428031D01*
X4626753Y-8428031D02*
X4636277Y-8447079D01*
X4636277Y-8447079D02*
X4645801Y-8485174D01*
X4645801Y-8485174D02*
X4645801Y-8532793D01*
X4645801Y-8532793D02*
X4636277Y-8570889D01*
X4636277Y-8570889D02*
X4626753Y-8589936D01*
X4626753Y-8589936D02*
X4617229Y-8599460D01*
X4617229Y-8599460D02*
X4598182Y-8608984D01*
X4598182Y-8608984D02*
X4579134Y-8608984D01*
X4579134Y-8608984D02*
X4560087Y-8599460D01*
X4560087Y-8599460D02*
X4550563Y-8589936D01*
X4550563Y-8589936D02*
X4541039Y-8570889D01*
X4541039Y-8570889D02*
X4531515Y-8532793D01*
X4531515Y-8532793D02*
X4531515Y-8485174D01*
X4531515Y-8485174D02*
X4541039Y-8447079D01*
X4541039Y-8447079D02*
X4550563Y-8428031D01*
X4550563Y-8428031D02*
X4560087Y-8418508D01*
X4560087Y-8418508D02*
X4579134Y-8408984D01*
X4731515Y-8589936D02*
X4741039Y-8599460D01*
X4741039Y-8599460D02*
X4731515Y-8608984D01*
X4731515Y-8608984D02*
X4721991Y-8599460D01*
X4721991Y-8599460D02*
X4731515Y-8589936D01*
X4731515Y-8589936D02*
X4731515Y-8608984D01*
X4864848Y-8408984D02*
X4883896Y-8408984D01*
X4883896Y-8408984D02*
X4902944Y-8418508D01*
X4902944Y-8418508D02*
X4912468Y-8428031D01*
X4912468Y-8428031D02*
X4921991Y-8447079D01*
X4921991Y-8447079D02*
X4931515Y-8485174D01*
X4931515Y-8485174D02*
X4931515Y-8532793D01*
X4931515Y-8532793D02*
X4921991Y-8570889D01*
X4921991Y-8570889D02*
X4912468Y-8589936D01*
X4912468Y-8589936D02*
X4902944Y-8599460D01*
X4902944Y-8599460D02*
X4883896Y-8608984D01*
X4883896Y-8608984D02*
X4864848Y-8608984D01*
X4864848Y-8608984D02*
X4845801Y-8599460D01*
X4845801Y-8599460D02*
X4836277Y-8589936D01*
X4836277Y-8589936D02*
X4826753Y-8570889D01*
X4826753Y-8570889D02*
X4817229Y-8532793D01*
X4817229Y-8532793D02*
X4817229Y-8485174D01*
X4817229Y-8485174D02*
X4826753Y-8447079D01*
X4826753Y-8447079D02*
X4836277Y-8428031D01*
X4836277Y-8428031D02*
X4845801Y-8418508D01*
X4845801Y-8418508D02*
X4864848Y-8408984D01*
X4998182Y-8408984D02*
X5121991Y-8408984D01*
X5121991Y-8408984D02*
X5055325Y-8485174D01*
X5055325Y-8485174D02*
X5083896Y-8485174D01*
X5083896Y-8485174D02*
X5102944Y-8494698D01*
X5102944Y-8494698D02*
X5112468Y-8504222D01*
X5112468Y-8504222D02*
X5121991Y-8523270D01*
X5121991Y-8523270D02*
X5121991Y-8570889D01*
X5121991Y-8570889D02*
X5112468Y-8589936D01*
X5112468Y-8589936D02*
X5102944Y-8599460D01*
X5102944Y-8599460D02*
X5083896Y-8608984D01*
X5083896Y-8608984D02*
X5026753Y-8608984D01*
X5026753Y-8608984D02*
X5007706Y-8599460D01*
X5007706Y-8599460D02*
X4998182Y-8589936D01*
X5312468Y-8608984D02*
X5198182Y-8608984D01*
X5255325Y-8608984D02*
X5255325Y-8408984D01*
X5255325Y-8408984D02*
X5236277Y-8437555D01*
X5236277Y-8437555D02*
X5217229Y-8456603D01*
X5217229Y-8456603D02*
X5198182Y-8466127D01*
X5493420Y-8408984D02*
X5398182Y-8408984D01*
X5398182Y-8408984D02*
X5388658Y-8504222D01*
X5388658Y-8504222D02*
X5398182Y-8494698D01*
X5398182Y-8494698D02*
X5417229Y-8485174D01*
X5417229Y-8485174D02*
X5464849Y-8485174D01*
X5464849Y-8485174D02*
X5483896Y-8494698D01*
X5483896Y-8494698D02*
X5493420Y-8504222D01*
X5493420Y-8504222D02*
X5502944Y-8523270D01*
X5502944Y-8523270D02*
X5502944Y-8570889D01*
X5502944Y-8570889D02*
X5493420Y-8589936D01*
X5493420Y-8589936D02*
X5483896Y-8599460D01*
X5483896Y-8599460D02*
X5464849Y-8608984D01*
X5464849Y-8608984D02*
X5417229Y-8608984D01*
X5417229Y-8608984D02*
X5398182Y-8599460D01*
X5398182Y-8599460D02*
X5388658Y-8589936D01*
X5579134Y-8408984D02*
X5579134Y-8447079D01*
X5655325Y-8408984D02*
X5655325Y-8447079D01*
X5950563Y-8685174D02*
X5941039Y-8675650D01*
X5941039Y-8675650D02*
X5921991Y-8647079D01*
X5921991Y-8647079D02*
X5912468Y-8628031D01*
X5912468Y-8628031D02*
X5902944Y-8599460D01*
X5902944Y-8599460D02*
X5893420Y-8551841D01*
X5893420Y-8551841D02*
X5893420Y-8513746D01*
X5893420Y-8513746D02*
X5902944Y-8466127D01*
X5902944Y-8466127D02*
X5912468Y-8437555D01*
X5912468Y-8437555D02*
X5921991Y-8418508D01*
X5921991Y-8418508D02*
X5941039Y-8389936D01*
X5941039Y-8389936D02*
X5950563Y-8380412D01*
X6017229Y-8428031D02*
X6026753Y-8418508D01*
X6026753Y-8418508D02*
X6045801Y-8408984D01*
X6045801Y-8408984D02*
X6093420Y-8408984D01*
X6093420Y-8408984D02*
X6112468Y-8418508D01*
X6112468Y-8418508D02*
X6121991Y-8428031D01*
X6121991Y-8428031D02*
X6131515Y-8447079D01*
X6131515Y-8447079D02*
X6131515Y-8466127D01*
X6131515Y-8466127D02*
X6121991Y-8494698D01*
X6121991Y-8494698D02*
X6007706Y-8608984D01*
X6007706Y-8608984D02*
X6131515Y-8608984D01*
X6369610Y-8608984D02*
X6369610Y-8408984D01*
X6455325Y-8608984D02*
X6455325Y-8504222D01*
X6455325Y-8504222D02*
X6445801Y-8485174D01*
X6445801Y-8485174D02*
X6426753Y-8475650D01*
X6426753Y-8475650D02*
X6398182Y-8475650D01*
X6398182Y-8475650D02*
X6379134Y-8485174D01*
X6379134Y-8485174D02*
X6369610Y-8494698D01*
X6579134Y-8608984D02*
X6560087Y-8599460D01*
X6560087Y-8599460D02*
X6550563Y-8589936D01*
X6550563Y-8589936D02*
X6541039Y-8570889D01*
X6541039Y-8570889D02*
X6541039Y-8513746D01*
X6541039Y-8513746D02*
X6550563Y-8494698D01*
X6550563Y-8494698D02*
X6560087Y-8485174D01*
X6560087Y-8485174D02*
X6579134Y-8475650D01*
X6579134Y-8475650D02*
X6607706Y-8475650D01*
X6607706Y-8475650D02*
X6626753Y-8485174D01*
X6626753Y-8485174D02*
X6636277Y-8494698D01*
X6636277Y-8494698D02*
X6645801Y-8513746D01*
X6645801Y-8513746D02*
X6645801Y-8570889D01*
X6645801Y-8570889D02*
X6636277Y-8589936D01*
X6636277Y-8589936D02*
X6626753Y-8599460D01*
X6626753Y-8599460D02*
X6607706Y-8608984D01*
X6607706Y-8608984D02*
X6579134Y-8608984D01*
X6760087Y-8608984D02*
X6741039Y-8599460D01*
X6741039Y-8599460D02*
X6731515Y-8580412D01*
X6731515Y-8580412D02*
X6731515Y-8408984D01*
X6912468Y-8599460D02*
X6893420Y-8608984D01*
X6893420Y-8608984D02*
X6855325Y-8608984D01*
X6855325Y-8608984D02*
X6836277Y-8599460D01*
X6836277Y-8599460D02*
X6826753Y-8580412D01*
X6826753Y-8580412D02*
X6826753Y-8504222D01*
X6826753Y-8504222D02*
X6836277Y-8485174D01*
X6836277Y-8485174D02*
X6855325Y-8475650D01*
X6855325Y-8475650D02*
X6893420Y-8475650D01*
X6893420Y-8475650D02*
X6912468Y-8485174D01*
X6912468Y-8485174D02*
X6921991Y-8504222D01*
X6921991Y-8504222D02*
X6921991Y-8523270D01*
X6921991Y-8523270D02*
X6826753Y-8542317D01*
X6998182Y-8599460D02*
X7017230Y-8608984D01*
X7017230Y-8608984D02*
X7055325Y-8608984D01*
X7055325Y-8608984D02*
X7074372Y-8599460D01*
X7074372Y-8599460D02*
X7083896Y-8580412D01*
X7083896Y-8580412D02*
X7083896Y-8570889D01*
X7083896Y-8570889D02*
X7074372Y-8551841D01*
X7074372Y-8551841D02*
X7055325Y-8542317D01*
X7055325Y-8542317D02*
X7026753Y-8542317D01*
X7026753Y-8542317D02*
X7007706Y-8532793D01*
X7007706Y-8532793D02*
X6998182Y-8513746D01*
X6998182Y-8513746D02*
X6998182Y-8504222D01*
X6998182Y-8504222D02*
X7007706Y-8485174D01*
X7007706Y-8485174D02*
X7026753Y-8475650D01*
X7026753Y-8475650D02*
X7055325Y-8475650D01*
X7055325Y-8475650D02*
X7074372Y-8485174D01*
X7150563Y-8685174D02*
X7160087Y-8675650D01*
X7160087Y-8675650D02*
X7179134Y-8647079D01*
X7179134Y-8647079D02*
X7188658Y-8628031D01*
X7188658Y-8628031D02*
X7198182Y-8599460D01*
X7198182Y-8599460D02*
X7207706Y-8551841D01*
X7207706Y-8551841D02*
X7207706Y-8513746D01*
X7207706Y-8513746D02*
X7198182Y-8466127D01*
X7198182Y-8466127D02*
X7188658Y-8437555D01*
X7188658Y-8437555D02*
X7179134Y-8418508D01*
X7179134Y-8418508D02*
X7160087Y-8389936D01*
X7160087Y-8389936D02*
X7150563Y-8380412D01*
D12*
X2325500Y-8731500D02*
X2325500Y-8831500D01*
X2275500Y-8781500D02*
X2375500Y-8781500D01*
D11*
X2741039Y-8872984D02*
X2626753Y-8872984D01*
X2683896Y-8872984D02*
X2683896Y-8672984D01*
X2683896Y-8672984D02*
X2664848Y-8701555D01*
X2664848Y-8701555D02*
X2645801Y-8720603D01*
X2645801Y-8720603D02*
X2626753Y-8730127D01*
X2826753Y-8853936D02*
X2836277Y-8863460D01*
X2836277Y-8863460D02*
X2826753Y-8872984D01*
X2826753Y-8872984D02*
X2817229Y-8863460D01*
X2817229Y-8863460D02*
X2826753Y-8853936D01*
X2826753Y-8853936D02*
X2826753Y-8872984D01*
X2960086Y-8672984D02*
X2979134Y-8672984D01*
X2979134Y-8672984D02*
X2998182Y-8682508D01*
X2998182Y-8682508D02*
X3007705Y-8692031D01*
X3007705Y-8692031D02*
X3017229Y-8711079D01*
X3017229Y-8711079D02*
X3026753Y-8749174D01*
X3026753Y-8749174D02*
X3026753Y-8796793D01*
X3026753Y-8796793D02*
X3017229Y-8834889D01*
X3017229Y-8834889D02*
X3007705Y-8853936D01*
X3007705Y-8853936D02*
X2998182Y-8863460D01*
X2998182Y-8863460D02*
X2979134Y-8872984D01*
X2979134Y-8872984D02*
X2960086Y-8872984D01*
X2960086Y-8872984D02*
X2941039Y-8863460D01*
X2941039Y-8863460D02*
X2931515Y-8853936D01*
X2931515Y-8853936D02*
X2921991Y-8834889D01*
X2921991Y-8834889D02*
X2912467Y-8796793D01*
X2912467Y-8796793D02*
X2912467Y-8749174D01*
X2912467Y-8749174D02*
X2921991Y-8711079D01*
X2921991Y-8711079D02*
X2931515Y-8692031D01*
X2931515Y-8692031D02*
X2941039Y-8682508D01*
X2941039Y-8682508D02*
X2960086Y-8672984D01*
X3150562Y-8672984D02*
X3169610Y-8672984D01*
X3169610Y-8672984D02*
X3188658Y-8682508D01*
X3188658Y-8682508D02*
X3198182Y-8692031D01*
X3198182Y-8692031D02*
X3207705Y-8711079D01*
X3207705Y-8711079D02*
X3217229Y-8749174D01*
X3217229Y-8749174D02*
X3217229Y-8796793D01*
X3217229Y-8796793D02*
X3207705Y-8834889D01*
X3207705Y-8834889D02*
X3198182Y-8853936D01*
X3198182Y-8853936D02*
X3188658Y-8863460D01*
X3188658Y-8863460D02*
X3169610Y-8872984D01*
X3169610Y-8872984D02*
X3150562Y-8872984D01*
X3150562Y-8872984D02*
X3131515Y-8863460D01*
X3131515Y-8863460D02*
X3121991Y-8853936D01*
X3121991Y-8853936D02*
X3112467Y-8834889D01*
X3112467Y-8834889D02*
X3102943Y-8796793D01*
X3102943Y-8796793D02*
X3102943Y-8749174D01*
X3102943Y-8749174D02*
X3112467Y-8711079D01*
X3112467Y-8711079D02*
X3121991Y-8692031D01*
X3121991Y-8692031D02*
X3131515Y-8682508D01*
X3131515Y-8682508D02*
X3150562Y-8672984D01*
X3341039Y-8672984D02*
X3360086Y-8672984D01*
X3360086Y-8672984D02*
X3379134Y-8682508D01*
X3379134Y-8682508D02*
X3388658Y-8692031D01*
X3388658Y-8692031D02*
X3398182Y-8711079D01*
X3398182Y-8711079D02*
X3407705Y-8749174D01*
X3407705Y-8749174D02*
X3407705Y-8796793D01*
X3407705Y-8796793D02*
X3398182Y-8834889D01*
X3398182Y-8834889D02*
X3388658Y-8853936D01*
X3388658Y-8853936D02*
X3379134Y-8863460D01*
X3379134Y-8863460D02*
X3360086Y-8872984D01*
X3360086Y-8872984D02*
X3341039Y-8872984D01*
X3341039Y-8872984D02*
X3321991Y-8863460D01*
X3321991Y-8863460D02*
X3312467Y-8853936D01*
X3312467Y-8853936D02*
X3302943Y-8834889D01*
X3302943Y-8834889D02*
X3293420Y-8796793D01*
X3293420Y-8796793D02*
X3293420Y-8749174D01*
X3293420Y-8749174D02*
X3302943Y-8711079D01*
X3302943Y-8711079D02*
X3312467Y-8692031D01*
X3312467Y-8692031D02*
X3321991Y-8682508D01*
X3321991Y-8682508D02*
X3341039Y-8672984D01*
X3493420Y-8872984D02*
X3493420Y-8739650D01*
X3493420Y-8758698D02*
X3502943Y-8749174D01*
X3502943Y-8749174D02*
X3521991Y-8739650D01*
X3521991Y-8739650D02*
X3550563Y-8739650D01*
X3550563Y-8739650D02*
X3569610Y-8749174D01*
X3569610Y-8749174D02*
X3579134Y-8768222D01*
X3579134Y-8768222D02*
X3579134Y-8872984D01*
X3579134Y-8768222D02*
X3588658Y-8749174D01*
X3588658Y-8749174D02*
X3607705Y-8739650D01*
X3607705Y-8739650D02*
X3636277Y-8739650D01*
X3636277Y-8739650D02*
X3655324Y-8749174D01*
X3655324Y-8749174D02*
X3664848Y-8768222D01*
X3664848Y-8768222D02*
X3664848Y-8872984D01*
X3760086Y-8872984D02*
X3760086Y-8739650D01*
X3760086Y-8758698D02*
X3769610Y-8749174D01*
X3769610Y-8749174D02*
X3788658Y-8739650D01*
X3788658Y-8739650D02*
X3817229Y-8739650D01*
X3817229Y-8739650D02*
X3836277Y-8749174D01*
X3836277Y-8749174D02*
X3845801Y-8768222D01*
X3845801Y-8768222D02*
X3845801Y-8872984D01*
X3845801Y-8768222D02*
X3855324Y-8749174D01*
X3855324Y-8749174D02*
X3874372Y-8739650D01*
X3874372Y-8739650D02*
X3902943Y-8739650D01*
X3902943Y-8739650D02*
X3921991Y-8749174D01*
X3921991Y-8749174D02*
X3931515Y-8768222D01*
X3931515Y-8768222D02*
X3931515Y-8872984D01*
X4321991Y-8663460D02*
X4150563Y-8920603D01*
X4579134Y-8672984D02*
X4598182Y-8672984D01*
X4598182Y-8672984D02*
X4617229Y-8682508D01*
X4617229Y-8682508D02*
X4626753Y-8692031D01*
X4626753Y-8692031D02*
X4636277Y-8711079D01*
X4636277Y-8711079D02*
X4645801Y-8749174D01*
X4645801Y-8749174D02*
X4645801Y-8796793D01*
X4645801Y-8796793D02*
X4636277Y-8834889D01*
X4636277Y-8834889D02*
X4626753Y-8853936D01*
X4626753Y-8853936D02*
X4617229Y-8863460D01*
X4617229Y-8863460D02*
X4598182Y-8872984D01*
X4598182Y-8872984D02*
X4579134Y-8872984D01*
X4579134Y-8872984D02*
X4560087Y-8863460D01*
X4560087Y-8863460D02*
X4550563Y-8853936D01*
X4550563Y-8853936D02*
X4541039Y-8834889D01*
X4541039Y-8834889D02*
X4531515Y-8796793D01*
X4531515Y-8796793D02*
X4531515Y-8749174D01*
X4531515Y-8749174D02*
X4541039Y-8711079D01*
X4541039Y-8711079D02*
X4550563Y-8692031D01*
X4550563Y-8692031D02*
X4560087Y-8682508D01*
X4560087Y-8682508D02*
X4579134Y-8672984D01*
X4731515Y-8853936D02*
X4741039Y-8863460D01*
X4741039Y-8863460D02*
X4731515Y-8872984D01*
X4731515Y-8872984D02*
X4721991Y-8863460D01*
X4721991Y-8863460D02*
X4731515Y-8853936D01*
X4731515Y-8853936D02*
X4731515Y-8872984D01*
X4864848Y-8672984D02*
X4883896Y-8672984D01*
X4883896Y-8672984D02*
X4902944Y-8682508D01*
X4902944Y-8682508D02*
X4912468Y-8692031D01*
X4912468Y-8692031D02*
X4921991Y-8711079D01*
X4921991Y-8711079D02*
X4931515Y-8749174D01*
X4931515Y-8749174D02*
X4931515Y-8796793D01*
X4931515Y-8796793D02*
X4921991Y-8834889D01*
X4921991Y-8834889D02*
X4912468Y-8853936D01*
X4912468Y-8853936D02*
X4902944Y-8863460D01*
X4902944Y-8863460D02*
X4883896Y-8872984D01*
X4883896Y-8872984D02*
X4864848Y-8872984D01*
X4864848Y-8872984D02*
X4845801Y-8863460D01*
X4845801Y-8863460D02*
X4836277Y-8853936D01*
X4836277Y-8853936D02*
X4826753Y-8834889D01*
X4826753Y-8834889D02*
X4817229Y-8796793D01*
X4817229Y-8796793D02*
X4817229Y-8749174D01*
X4817229Y-8749174D02*
X4826753Y-8711079D01*
X4826753Y-8711079D02*
X4836277Y-8692031D01*
X4836277Y-8692031D02*
X4845801Y-8682508D01*
X4845801Y-8682508D02*
X4864848Y-8672984D01*
X4998182Y-8672984D02*
X5121991Y-8672984D01*
X5121991Y-8672984D02*
X5055325Y-8749174D01*
X5055325Y-8749174D02*
X5083896Y-8749174D01*
X5083896Y-8749174D02*
X5102944Y-8758698D01*
X5102944Y-8758698D02*
X5112468Y-8768222D01*
X5112468Y-8768222D02*
X5121991Y-8787270D01*
X5121991Y-8787270D02*
X5121991Y-8834889D01*
X5121991Y-8834889D02*
X5112468Y-8853936D01*
X5112468Y-8853936D02*
X5102944Y-8863460D01*
X5102944Y-8863460D02*
X5083896Y-8872984D01*
X5083896Y-8872984D02*
X5026753Y-8872984D01*
X5026753Y-8872984D02*
X5007706Y-8863460D01*
X5007706Y-8863460D02*
X4998182Y-8853936D01*
X5217229Y-8872984D02*
X5255325Y-8872984D01*
X5255325Y-8872984D02*
X5274372Y-8863460D01*
X5274372Y-8863460D02*
X5283896Y-8853936D01*
X5283896Y-8853936D02*
X5302944Y-8825365D01*
X5302944Y-8825365D02*
X5312468Y-8787270D01*
X5312468Y-8787270D02*
X5312468Y-8711079D01*
X5312468Y-8711079D02*
X5302944Y-8692031D01*
X5302944Y-8692031D02*
X5293420Y-8682508D01*
X5293420Y-8682508D02*
X5274372Y-8672984D01*
X5274372Y-8672984D02*
X5236277Y-8672984D01*
X5236277Y-8672984D02*
X5217229Y-8682508D01*
X5217229Y-8682508D02*
X5207706Y-8692031D01*
X5207706Y-8692031D02*
X5198182Y-8711079D01*
X5198182Y-8711079D02*
X5198182Y-8758698D01*
X5198182Y-8758698D02*
X5207706Y-8777746D01*
X5207706Y-8777746D02*
X5217229Y-8787270D01*
X5217229Y-8787270D02*
X5236277Y-8796793D01*
X5236277Y-8796793D02*
X5274372Y-8796793D01*
X5274372Y-8796793D02*
X5293420Y-8787270D01*
X5293420Y-8787270D02*
X5302944Y-8777746D01*
X5302944Y-8777746D02*
X5312468Y-8758698D01*
X5483896Y-8739650D02*
X5483896Y-8872984D01*
X5436277Y-8663460D02*
X5388658Y-8806317D01*
X5388658Y-8806317D02*
X5512468Y-8806317D01*
X5579134Y-8672984D02*
X5579134Y-8711079D01*
X5655325Y-8672984D02*
X5655325Y-8711079D01*
X5950563Y-8949174D02*
X5941039Y-8939650D01*
X5941039Y-8939650D02*
X5921991Y-8911079D01*
X5921991Y-8911079D02*
X5912468Y-8892031D01*
X5912468Y-8892031D02*
X5902944Y-8863460D01*
X5902944Y-8863460D02*
X5893420Y-8815841D01*
X5893420Y-8815841D02*
X5893420Y-8777746D01*
X5893420Y-8777746D02*
X5902944Y-8730127D01*
X5902944Y-8730127D02*
X5912468Y-8701555D01*
X5912468Y-8701555D02*
X5921991Y-8682508D01*
X5921991Y-8682508D02*
X5941039Y-8653936D01*
X5941039Y-8653936D02*
X5950563Y-8644412D01*
X6112468Y-8672984D02*
X6074372Y-8672984D01*
X6074372Y-8672984D02*
X6055325Y-8682508D01*
X6055325Y-8682508D02*
X6045801Y-8692031D01*
X6045801Y-8692031D02*
X6026753Y-8720603D01*
X6026753Y-8720603D02*
X6017229Y-8758698D01*
X6017229Y-8758698D02*
X6017229Y-8834889D01*
X6017229Y-8834889D02*
X6026753Y-8853936D01*
X6026753Y-8853936D02*
X6036277Y-8863460D01*
X6036277Y-8863460D02*
X6055325Y-8872984D01*
X6055325Y-8872984D02*
X6093420Y-8872984D01*
X6093420Y-8872984D02*
X6112468Y-8863460D01*
X6112468Y-8863460D02*
X6121991Y-8853936D01*
X6121991Y-8853936D02*
X6131515Y-8834889D01*
X6131515Y-8834889D02*
X6131515Y-8787270D01*
X6131515Y-8787270D02*
X6121991Y-8768222D01*
X6121991Y-8768222D02*
X6112468Y-8758698D01*
X6112468Y-8758698D02*
X6093420Y-8749174D01*
X6093420Y-8749174D02*
X6055325Y-8749174D01*
X6055325Y-8749174D02*
X6036277Y-8758698D01*
X6036277Y-8758698D02*
X6026753Y-8768222D01*
X6026753Y-8768222D02*
X6017229Y-8787270D01*
X6207706Y-8692031D02*
X6217229Y-8682508D01*
X6217229Y-8682508D02*
X6236277Y-8672984D01*
X6236277Y-8672984D02*
X6283896Y-8672984D01*
X6283896Y-8672984D02*
X6302944Y-8682508D01*
X6302944Y-8682508D02*
X6312468Y-8692031D01*
X6312468Y-8692031D02*
X6321991Y-8711079D01*
X6321991Y-8711079D02*
X6321991Y-8730127D01*
X6321991Y-8730127D02*
X6312468Y-8758698D01*
X6312468Y-8758698D02*
X6198182Y-8872984D01*
X6198182Y-8872984D02*
X6321991Y-8872984D01*
X6560087Y-8872984D02*
X6560087Y-8672984D01*
X6645801Y-8872984D02*
X6645801Y-8768222D01*
X6645801Y-8768222D02*
X6636277Y-8749174D01*
X6636277Y-8749174D02*
X6617230Y-8739650D01*
X6617230Y-8739650D02*
X6588658Y-8739650D01*
X6588658Y-8739650D02*
X6569610Y-8749174D01*
X6569610Y-8749174D02*
X6560087Y-8758698D01*
X6769610Y-8872984D02*
X6750563Y-8863460D01*
X6750563Y-8863460D02*
X6741039Y-8853936D01*
X6741039Y-8853936D02*
X6731515Y-8834889D01*
X6731515Y-8834889D02*
X6731515Y-8777746D01*
X6731515Y-8777746D02*
X6741039Y-8758698D01*
X6741039Y-8758698D02*
X6750563Y-8749174D01*
X6750563Y-8749174D02*
X6769610Y-8739650D01*
X6769610Y-8739650D02*
X6798182Y-8739650D01*
X6798182Y-8739650D02*
X6817230Y-8749174D01*
X6817230Y-8749174D02*
X6826753Y-8758698D01*
X6826753Y-8758698D02*
X6836277Y-8777746D01*
X6836277Y-8777746D02*
X6836277Y-8834889D01*
X6836277Y-8834889D02*
X6826753Y-8853936D01*
X6826753Y-8853936D02*
X6817230Y-8863460D01*
X6817230Y-8863460D02*
X6798182Y-8872984D01*
X6798182Y-8872984D02*
X6769610Y-8872984D01*
X6950563Y-8872984D02*
X6931515Y-8863460D01*
X6931515Y-8863460D02*
X6921991Y-8844412D01*
X6921991Y-8844412D02*
X6921991Y-8672984D01*
X7102944Y-8863460D02*
X7083896Y-8872984D01*
X7083896Y-8872984D02*
X7045801Y-8872984D01*
X7045801Y-8872984D02*
X7026753Y-8863460D01*
X7026753Y-8863460D02*
X7017230Y-8844412D01*
X7017230Y-8844412D02*
X7017230Y-8768222D01*
X7017230Y-8768222D02*
X7026753Y-8749174D01*
X7026753Y-8749174D02*
X7045801Y-8739650D01*
X7045801Y-8739650D02*
X7083896Y-8739650D01*
X7083896Y-8739650D02*
X7102944Y-8749174D01*
X7102944Y-8749174D02*
X7112468Y-8768222D01*
X7112468Y-8768222D02*
X7112468Y-8787270D01*
X7112468Y-8787270D02*
X7017230Y-8806317D01*
X7188658Y-8863460D02*
X7207706Y-8872984D01*
X7207706Y-8872984D02*
X7245801Y-8872984D01*
X7245801Y-8872984D02*
X7264849Y-8863460D01*
X7264849Y-8863460D02*
X7274372Y-8844412D01*
X7274372Y-8844412D02*
X7274372Y-8834889D01*
X7274372Y-8834889D02*
X7264849Y-8815841D01*
X7264849Y-8815841D02*
X7245801Y-8806317D01*
X7245801Y-8806317D02*
X7217230Y-8806317D01*
X7217230Y-8806317D02*
X7198182Y-8796793D01*
X7198182Y-8796793D02*
X7188658Y-8777746D01*
X7188658Y-8777746D02*
X7188658Y-8768222D01*
X7188658Y-8768222D02*
X7198182Y-8749174D01*
X7198182Y-8749174D02*
X7217230Y-8739650D01*
X7217230Y-8739650D02*
X7245801Y-8739650D01*
X7245801Y-8739650D02*
X7264849Y-8749174D01*
X7341039Y-8949174D02*
X7350563Y-8939650D01*
X7350563Y-8939650D02*
X7369611Y-8911079D01*
X7369611Y-8911079D02*
X7379134Y-8892031D01*
X7379134Y-8892031D02*
X7388658Y-8863460D01*
X7388658Y-8863460D02*
X7398182Y-8815841D01*
X7398182Y-8815841D02*
X7398182Y-8777746D01*
X7398182Y-8777746D02*
X7388658Y-8730127D01*
X7388658Y-8730127D02*
X7379134Y-8701555D01*
X7379134Y-8701555D02*
X7369611Y-8682508D01*
X7369611Y-8682508D02*
X7350563Y-8653936D01*
X7350563Y-8653936D02*
X7341039Y-8644412D01*
D13*
X2356462Y-9091462D02*
X2356462Y-8999538D01*
X2264538Y-8999538D01*
X2264538Y-9091462D01*
X2356462Y-9091462D01*
D11*
X2741039Y-9136984D02*
X2626753Y-9136984D01*
X2683896Y-9136984D02*
X2683896Y-8936984D01*
X2683896Y-8936984D02*
X2664848Y-8965555D01*
X2664848Y-8965555D02*
X2645801Y-8984603D01*
X2645801Y-8984603D02*
X2626753Y-8994127D01*
X2826753Y-9117936D02*
X2836277Y-9127460D01*
X2836277Y-9127460D02*
X2826753Y-9136984D01*
X2826753Y-9136984D02*
X2817229Y-9127460D01*
X2817229Y-9127460D02*
X2826753Y-9117936D01*
X2826753Y-9117936D02*
X2826753Y-9136984D01*
X2902943Y-8936984D02*
X3026753Y-8936984D01*
X3026753Y-8936984D02*
X2960086Y-9013174D01*
X2960086Y-9013174D02*
X2988658Y-9013174D01*
X2988658Y-9013174D02*
X3007705Y-9022698D01*
X3007705Y-9022698D02*
X3017229Y-9032222D01*
X3017229Y-9032222D02*
X3026753Y-9051270D01*
X3026753Y-9051270D02*
X3026753Y-9098889D01*
X3026753Y-9098889D02*
X3017229Y-9117936D01*
X3017229Y-9117936D02*
X3007705Y-9127460D01*
X3007705Y-9127460D02*
X2988658Y-9136984D01*
X2988658Y-9136984D02*
X2931515Y-9136984D01*
X2931515Y-9136984D02*
X2912467Y-9127460D01*
X2912467Y-9127460D02*
X2902943Y-9117936D01*
X3150562Y-8936984D02*
X3169610Y-8936984D01*
X3169610Y-8936984D02*
X3188658Y-8946508D01*
X3188658Y-8946508D02*
X3198182Y-8956031D01*
X3198182Y-8956031D02*
X3207705Y-8975079D01*
X3207705Y-8975079D02*
X3217229Y-9013174D01*
X3217229Y-9013174D02*
X3217229Y-9060793D01*
X3217229Y-9060793D02*
X3207705Y-9098889D01*
X3207705Y-9098889D02*
X3198182Y-9117936D01*
X3198182Y-9117936D02*
X3188658Y-9127460D01*
X3188658Y-9127460D02*
X3169610Y-9136984D01*
X3169610Y-9136984D02*
X3150562Y-9136984D01*
X3150562Y-9136984D02*
X3131515Y-9127460D01*
X3131515Y-9127460D02*
X3121991Y-9117936D01*
X3121991Y-9117936D02*
X3112467Y-9098889D01*
X3112467Y-9098889D02*
X3102943Y-9060793D01*
X3102943Y-9060793D02*
X3102943Y-9013174D01*
X3102943Y-9013174D02*
X3112467Y-8975079D01*
X3112467Y-8975079D02*
X3121991Y-8956031D01*
X3121991Y-8956031D02*
X3131515Y-8946508D01*
X3131515Y-8946508D02*
X3150562Y-8936984D01*
X3341039Y-8936984D02*
X3360086Y-8936984D01*
X3360086Y-8936984D02*
X3379134Y-8946508D01*
X3379134Y-8946508D02*
X3388658Y-8956031D01*
X3388658Y-8956031D02*
X3398182Y-8975079D01*
X3398182Y-8975079D02*
X3407705Y-9013174D01*
X3407705Y-9013174D02*
X3407705Y-9060793D01*
X3407705Y-9060793D02*
X3398182Y-9098889D01*
X3398182Y-9098889D02*
X3388658Y-9117936D01*
X3388658Y-9117936D02*
X3379134Y-9127460D01*
X3379134Y-9127460D02*
X3360086Y-9136984D01*
X3360086Y-9136984D02*
X3341039Y-9136984D01*
X3341039Y-9136984D02*
X3321991Y-9127460D01*
X3321991Y-9127460D02*
X3312467Y-9117936D01*
X3312467Y-9117936D02*
X3302943Y-9098889D01*
X3302943Y-9098889D02*
X3293420Y-9060793D01*
X3293420Y-9060793D02*
X3293420Y-9013174D01*
X3293420Y-9013174D02*
X3302943Y-8975079D01*
X3302943Y-8975079D02*
X3312467Y-8956031D01*
X3312467Y-8956031D02*
X3321991Y-8946508D01*
X3321991Y-8946508D02*
X3341039Y-8936984D01*
X3493420Y-9136984D02*
X3493420Y-9003650D01*
X3493420Y-9022698D02*
X3502943Y-9013174D01*
X3502943Y-9013174D02*
X3521991Y-9003650D01*
X3521991Y-9003650D02*
X3550563Y-9003650D01*
X3550563Y-9003650D02*
X3569610Y-9013174D01*
X3569610Y-9013174D02*
X3579134Y-9032222D01*
X3579134Y-9032222D02*
X3579134Y-9136984D01*
X3579134Y-9032222D02*
X3588658Y-9013174D01*
X3588658Y-9013174D02*
X3607705Y-9003650D01*
X3607705Y-9003650D02*
X3636277Y-9003650D01*
X3636277Y-9003650D02*
X3655324Y-9013174D01*
X3655324Y-9013174D02*
X3664848Y-9032222D01*
X3664848Y-9032222D02*
X3664848Y-9136984D01*
X3760086Y-9136984D02*
X3760086Y-9003650D01*
X3760086Y-9022698D02*
X3769610Y-9013174D01*
X3769610Y-9013174D02*
X3788658Y-9003650D01*
X3788658Y-9003650D02*
X3817229Y-9003650D01*
X3817229Y-9003650D02*
X3836277Y-9013174D01*
X3836277Y-9013174D02*
X3845801Y-9032222D01*
X3845801Y-9032222D02*
X3845801Y-9136984D01*
X3845801Y-9032222D02*
X3855324Y-9013174D01*
X3855324Y-9013174D02*
X3874372Y-9003650D01*
X3874372Y-9003650D02*
X3902943Y-9003650D01*
X3902943Y-9003650D02*
X3921991Y-9013174D01*
X3921991Y-9013174D02*
X3931515Y-9032222D01*
X3931515Y-9032222D02*
X3931515Y-9136984D01*
X4321991Y-8927460D02*
X4150563Y-9184603D01*
X4579134Y-8936984D02*
X4598182Y-8936984D01*
X4598182Y-8936984D02*
X4617229Y-8946508D01*
X4617229Y-8946508D02*
X4626753Y-8956031D01*
X4626753Y-8956031D02*
X4636277Y-8975079D01*
X4636277Y-8975079D02*
X4645801Y-9013174D01*
X4645801Y-9013174D02*
X4645801Y-9060793D01*
X4645801Y-9060793D02*
X4636277Y-9098889D01*
X4636277Y-9098889D02*
X4626753Y-9117936D01*
X4626753Y-9117936D02*
X4617229Y-9127460D01*
X4617229Y-9127460D02*
X4598182Y-9136984D01*
X4598182Y-9136984D02*
X4579134Y-9136984D01*
X4579134Y-9136984D02*
X4560087Y-9127460D01*
X4560087Y-9127460D02*
X4550563Y-9117936D01*
X4550563Y-9117936D02*
X4541039Y-9098889D01*
X4541039Y-9098889D02*
X4531515Y-9060793D01*
X4531515Y-9060793D02*
X4531515Y-9013174D01*
X4531515Y-9013174D02*
X4541039Y-8975079D01*
X4541039Y-8975079D02*
X4550563Y-8956031D01*
X4550563Y-8956031D02*
X4560087Y-8946508D01*
X4560087Y-8946508D02*
X4579134Y-8936984D01*
X4731515Y-9117936D02*
X4741039Y-9127460D01*
X4741039Y-9127460D02*
X4731515Y-9136984D01*
X4731515Y-9136984D02*
X4721991Y-9127460D01*
X4721991Y-9127460D02*
X4731515Y-9117936D01*
X4731515Y-9117936D02*
X4731515Y-9136984D01*
X4864848Y-8936984D02*
X4883896Y-8936984D01*
X4883896Y-8936984D02*
X4902944Y-8946508D01*
X4902944Y-8946508D02*
X4912468Y-8956031D01*
X4912468Y-8956031D02*
X4921991Y-8975079D01*
X4921991Y-8975079D02*
X4931515Y-9013174D01*
X4931515Y-9013174D02*
X4931515Y-9060793D01*
X4931515Y-9060793D02*
X4921991Y-9098889D01*
X4921991Y-9098889D02*
X4912468Y-9117936D01*
X4912468Y-9117936D02*
X4902944Y-9127460D01*
X4902944Y-9127460D02*
X4883896Y-9136984D01*
X4883896Y-9136984D02*
X4864848Y-9136984D01*
X4864848Y-9136984D02*
X4845801Y-9127460D01*
X4845801Y-9127460D02*
X4836277Y-9117936D01*
X4836277Y-9117936D02*
X4826753Y-9098889D01*
X4826753Y-9098889D02*
X4817229Y-9060793D01*
X4817229Y-9060793D02*
X4817229Y-9013174D01*
X4817229Y-9013174D02*
X4826753Y-8975079D01*
X4826753Y-8975079D02*
X4836277Y-8956031D01*
X4836277Y-8956031D02*
X4845801Y-8946508D01*
X4845801Y-8946508D02*
X4864848Y-8936984D01*
X5112468Y-8936984D02*
X5017229Y-8936984D01*
X5017229Y-8936984D02*
X5007706Y-9032222D01*
X5007706Y-9032222D02*
X5017229Y-9022698D01*
X5017229Y-9022698D02*
X5036277Y-9013174D01*
X5036277Y-9013174D02*
X5083896Y-9013174D01*
X5083896Y-9013174D02*
X5102944Y-9022698D01*
X5102944Y-9022698D02*
X5112468Y-9032222D01*
X5112468Y-9032222D02*
X5121991Y-9051270D01*
X5121991Y-9051270D02*
X5121991Y-9098889D01*
X5121991Y-9098889D02*
X5112468Y-9117936D01*
X5112468Y-9117936D02*
X5102944Y-9127460D01*
X5102944Y-9127460D02*
X5083896Y-9136984D01*
X5083896Y-9136984D02*
X5036277Y-9136984D01*
X5036277Y-9136984D02*
X5017229Y-9127460D01*
X5017229Y-9127460D02*
X5007706Y-9117936D01*
X5312468Y-9136984D02*
X5198182Y-9136984D01*
X5255325Y-9136984D02*
X5255325Y-8936984D01*
X5255325Y-8936984D02*
X5236277Y-8965555D01*
X5236277Y-8965555D02*
X5217229Y-8984603D01*
X5217229Y-8984603D02*
X5198182Y-8994127D01*
X5388658Y-8956031D02*
X5398182Y-8946508D01*
X5398182Y-8946508D02*
X5417229Y-8936984D01*
X5417229Y-8936984D02*
X5464849Y-8936984D01*
X5464849Y-8936984D02*
X5483896Y-8946508D01*
X5483896Y-8946508D02*
X5493420Y-8956031D01*
X5493420Y-8956031D02*
X5502944Y-8975079D01*
X5502944Y-8975079D02*
X5502944Y-8994127D01*
X5502944Y-8994127D02*
X5493420Y-9022698D01*
X5493420Y-9022698D02*
X5379134Y-9136984D01*
X5379134Y-9136984D02*
X5502944Y-9136984D01*
X5579134Y-8936984D02*
X5579134Y-8975079D01*
X5655325Y-8936984D02*
X5655325Y-8975079D01*
X5950563Y-9213174D02*
X5941039Y-9203650D01*
X5941039Y-9203650D02*
X5921991Y-9175079D01*
X5921991Y-9175079D02*
X5912468Y-9156031D01*
X5912468Y-9156031D02*
X5902944Y-9127460D01*
X5902944Y-9127460D02*
X5893420Y-9079841D01*
X5893420Y-9079841D02*
X5893420Y-9041746D01*
X5893420Y-9041746D02*
X5902944Y-8994127D01*
X5902944Y-8994127D02*
X5912468Y-8965555D01*
X5912468Y-8965555D02*
X5921991Y-8946508D01*
X5921991Y-8946508D02*
X5941039Y-8917936D01*
X5941039Y-8917936D02*
X5950563Y-8908412D01*
X6112468Y-9003650D02*
X6112468Y-9136984D01*
X6064848Y-8927460D02*
X6017229Y-9070317D01*
X6017229Y-9070317D02*
X6141039Y-9070317D01*
X6369610Y-9136984D02*
X6369610Y-8936984D01*
X6455325Y-9136984D02*
X6455325Y-9032222D01*
X6455325Y-9032222D02*
X6445801Y-9013174D01*
X6445801Y-9013174D02*
X6426753Y-9003650D01*
X6426753Y-9003650D02*
X6398182Y-9003650D01*
X6398182Y-9003650D02*
X6379134Y-9013174D01*
X6379134Y-9013174D02*
X6369610Y-9022698D01*
X6579134Y-9136984D02*
X6560087Y-9127460D01*
X6560087Y-9127460D02*
X6550563Y-9117936D01*
X6550563Y-9117936D02*
X6541039Y-9098889D01*
X6541039Y-9098889D02*
X6541039Y-9041746D01*
X6541039Y-9041746D02*
X6550563Y-9022698D01*
X6550563Y-9022698D02*
X6560087Y-9013174D01*
X6560087Y-9013174D02*
X6579134Y-9003650D01*
X6579134Y-9003650D02*
X6607706Y-9003650D01*
X6607706Y-9003650D02*
X6626753Y-9013174D01*
X6626753Y-9013174D02*
X6636277Y-9022698D01*
X6636277Y-9022698D02*
X6645801Y-9041746D01*
X6645801Y-9041746D02*
X6645801Y-9098889D01*
X6645801Y-9098889D02*
X6636277Y-9117936D01*
X6636277Y-9117936D02*
X6626753Y-9127460D01*
X6626753Y-9127460D02*
X6607706Y-9136984D01*
X6607706Y-9136984D02*
X6579134Y-9136984D01*
X6760087Y-9136984D02*
X6741039Y-9127460D01*
X6741039Y-9127460D02*
X6731515Y-9108412D01*
X6731515Y-9108412D02*
X6731515Y-8936984D01*
X6912468Y-9127460D02*
X6893420Y-9136984D01*
X6893420Y-9136984D02*
X6855325Y-9136984D01*
X6855325Y-9136984D02*
X6836277Y-9127460D01*
X6836277Y-9127460D02*
X6826753Y-9108412D01*
X6826753Y-9108412D02*
X6826753Y-9032222D01*
X6826753Y-9032222D02*
X6836277Y-9013174D01*
X6836277Y-9013174D02*
X6855325Y-9003650D01*
X6855325Y-9003650D02*
X6893420Y-9003650D01*
X6893420Y-9003650D02*
X6912468Y-9013174D01*
X6912468Y-9013174D02*
X6921991Y-9032222D01*
X6921991Y-9032222D02*
X6921991Y-9051270D01*
X6921991Y-9051270D02*
X6826753Y-9070317D01*
X6998182Y-9127460D02*
X7017230Y-9136984D01*
X7017230Y-9136984D02*
X7055325Y-9136984D01*
X7055325Y-9136984D02*
X7074372Y-9127460D01*
X7074372Y-9127460D02*
X7083896Y-9108412D01*
X7083896Y-9108412D02*
X7083896Y-9098889D01*
X7083896Y-9098889D02*
X7074372Y-9079841D01*
X7074372Y-9079841D02*
X7055325Y-9070317D01*
X7055325Y-9070317D02*
X7026753Y-9070317D01*
X7026753Y-9070317D02*
X7007706Y-9060793D01*
X7007706Y-9060793D02*
X6998182Y-9041746D01*
X6998182Y-9041746D02*
X6998182Y-9032222D01*
X6998182Y-9032222D02*
X7007706Y-9013174D01*
X7007706Y-9013174D02*
X7026753Y-9003650D01*
X7026753Y-9003650D02*
X7055325Y-9003650D01*
X7055325Y-9003650D02*
X7074372Y-9013174D01*
X7150563Y-9213174D02*
X7160087Y-9203650D01*
X7160087Y-9203650D02*
X7179134Y-9175079D01*
X7179134Y-9175079D02*
X7188658Y-9156031D01*
X7188658Y-9156031D02*
X7198182Y-9127460D01*
X7198182Y-9127460D02*
X7207706Y-9079841D01*
X7207706Y-9079841D02*
X7207706Y-9041746D01*
X7207706Y-9041746D02*
X7198182Y-8994127D01*
X7198182Y-8994127D02*
X7188658Y-8965555D01*
X7188658Y-8965555D02*
X7179134Y-8946508D01*
X7179134Y-8946508D02*
X7160087Y-8917936D01*
X7160087Y-8917936D02*
X7150563Y-8908412D01*
M02*
