%TF.GenerationSoftware,KiCad,Pcbnew,8.0.2*%
%TF.CreationDate,2024-05-23T15:40:16-04:00*%
%TF.ProjectId,ORA_Arduino_ESP_CAN_Shield_Rev_1.2,4f52415f-4172-4647-9569-6e6f5f455350,rev?*%
%TF.SameCoordinates,Original*%
%TF.FileFunction,Legend,Top*%
%TF.FilePolarity,Positive*%
%FSLAX46Y46*%
G04 Gerber Fmt 4.6, Leading zero omitted, Abs format (unit mm)*
G04 Created by KiCad (PCBNEW 8.0.2) date 2024-05-23 15:40:16*
%MOMM*%
%LPD*%
G01*
G04 APERTURE LIST*
%ADD10C,0.300000*%
%ADD11C,0.150000*%
%ADD12C,0.120000*%
%ADD13C,0.000000*%
G04 APERTURE END LIST*
D10*
X167470828Y-69061203D02*
X167470828Y-69775489D01*
X167470828Y-69775489D02*
X165970828Y-69775489D01*
X167500828Y-65005489D02*
X166000828Y-65005489D01*
X166715114Y-65005489D02*
X166715114Y-64148346D01*
X167500828Y-64148346D02*
X166000828Y-64148346D01*
D11*
X106208207Y-93249819D02*
X105874874Y-92773628D01*
X105636779Y-93249819D02*
X105636779Y-92249819D01*
X105636779Y-92249819D02*
X106017731Y-92249819D01*
X106017731Y-92249819D02*
X106112969Y-92297438D01*
X106112969Y-92297438D02*
X106160588Y-92345057D01*
X106160588Y-92345057D02*
X106208207Y-92440295D01*
X106208207Y-92440295D02*
X106208207Y-92583152D01*
X106208207Y-92583152D02*
X106160588Y-92678390D01*
X106160588Y-92678390D02*
X106112969Y-92726009D01*
X106112969Y-92726009D02*
X106017731Y-92773628D01*
X106017731Y-92773628D02*
X105636779Y-92773628D01*
X106779636Y-93249819D02*
X106684398Y-93202200D01*
X106684398Y-93202200D02*
X106636779Y-93154580D01*
X106636779Y-93154580D02*
X106589160Y-93059342D01*
X106589160Y-93059342D02*
X106589160Y-92773628D01*
X106589160Y-92773628D02*
X106636779Y-92678390D01*
X106636779Y-92678390D02*
X106684398Y-92630771D01*
X106684398Y-92630771D02*
X106779636Y-92583152D01*
X106779636Y-92583152D02*
X106922493Y-92583152D01*
X106922493Y-92583152D02*
X107017731Y-92630771D01*
X107017731Y-92630771D02*
X107065350Y-92678390D01*
X107065350Y-92678390D02*
X107112969Y-92773628D01*
X107112969Y-92773628D02*
X107112969Y-93059342D01*
X107112969Y-93059342D02*
X107065350Y-93154580D01*
X107065350Y-93154580D02*
X107017731Y-93202200D01*
X107017731Y-93202200D02*
X106922493Y-93249819D01*
X106922493Y-93249819D02*
X106779636Y-93249819D01*
X107541541Y-93249819D02*
X107541541Y-92249819D01*
X107541541Y-92630771D02*
X107636779Y-92583152D01*
X107636779Y-92583152D02*
X107827255Y-92583152D01*
X107827255Y-92583152D02*
X107922493Y-92630771D01*
X107922493Y-92630771D02*
X107970112Y-92678390D01*
X107970112Y-92678390D02*
X108017731Y-92773628D01*
X108017731Y-92773628D02*
X108017731Y-93059342D01*
X108017731Y-93059342D02*
X107970112Y-93154580D01*
X107970112Y-93154580D02*
X107922493Y-93202200D01*
X107922493Y-93202200D02*
X107827255Y-93249819D01*
X107827255Y-93249819D02*
X107636779Y-93249819D01*
X107636779Y-93249819D02*
X107541541Y-93202200D01*
X108589160Y-93249819D02*
X108493922Y-93202200D01*
X108493922Y-93202200D02*
X108446303Y-93154580D01*
X108446303Y-93154580D02*
X108398684Y-93059342D01*
X108398684Y-93059342D02*
X108398684Y-92773628D01*
X108398684Y-92773628D02*
X108446303Y-92678390D01*
X108446303Y-92678390D02*
X108493922Y-92630771D01*
X108493922Y-92630771D02*
X108589160Y-92583152D01*
X108589160Y-92583152D02*
X108732017Y-92583152D01*
X108732017Y-92583152D02*
X108827255Y-92630771D01*
X108827255Y-92630771D02*
X108874874Y-92678390D01*
X108874874Y-92678390D02*
X108922493Y-92773628D01*
X108922493Y-92773628D02*
X108922493Y-93059342D01*
X108922493Y-93059342D02*
X108874874Y-93154580D01*
X108874874Y-93154580D02*
X108827255Y-93202200D01*
X108827255Y-93202200D02*
X108732017Y-93249819D01*
X108732017Y-93249819D02*
X108589160Y-93249819D01*
X109208208Y-92583152D02*
X109589160Y-92583152D01*
X109351065Y-92249819D02*
X109351065Y-93106961D01*
X109351065Y-93106961D02*
X109398684Y-93202200D01*
X109398684Y-93202200D02*
X109493922Y-93249819D01*
X109493922Y-93249819D02*
X109589160Y-93249819D01*
X109922494Y-93249819D02*
X109922494Y-92583152D01*
X109922494Y-92249819D02*
X109874875Y-92297438D01*
X109874875Y-92297438D02*
X109922494Y-92345057D01*
X109922494Y-92345057D02*
X109970113Y-92297438D01*
X109970113Y-92297438D02*
X109922494Y-92249819D01*
X109922494Y-92249819D02*
X109922494Y-92345057D01*
X110827255Y-93202200D02*
X110732017Y-93249819D01*
X110732017Y-93249819D02*
X110541541Y-93249819D01*
X110541541Y-93249819D02*
X110446303Y-93202200D01*
X110446303Y-93202200D02*
X110398684Y-93154580D01*
X110398684Y-93154580D02*
X110351065Y-93059342D01*
X110351065Y-93059342D02*
X110351065Y-92773628D01*
X110351065Y-92773628D02*
X110398684Y-92678390D01*
X110398684Y-92678390D02*
X110446303Y-92630771D01*
X110446303Y-92630771D02*
X110541541Y-92583152D01*
X110541541Y-92583152D02*
X110732017Y-92583152D01*
X110732017Y-92583152D02*
X110827255Y-92630771D01*
X111208208Y-93202200D02*
X111303446Y-93249819D01*
X111303446Y-93249819D02*
X111493922Y-93249819D01*
X111493922Y-93249819D02*
X111589160Y-93202200D01*
X111589160Y-93202200D02*
X111636779Y-93106961D01*
X111636779Y-93106961D02*
X111636779Y-93059342D01*
X111636779Y-93059342D02*
X111589160Y-92964104D01*
X111589160Y-92964104D02*
X111493922Y-92916485D01*
X111493922Y-92916485D02*
X111351065Y-92916485D01*
X111351065Y-92916485D02*
X111255827Y-92868866D01*
X111255827Y-92868866D02*
X111208208Y-92773628D01*
X111208208Y-92773628D02*
X111208208Y-92726009D01*
X111208208Y-92726009D02*
X111255827Y-92630771D01*
X111255827Y-92630771D02*
X111351065Y-92583152D01*
X111351065Y-92583152D02*
X111493922Y-92583152D01*
X111493922Y-92583152D02*
X111589160Y-92630771D01*
X112779637Y-92964104D02*
X113255827Y-92964104D01*
X112684399Y-93249819D02*
X113017732Y-92249819D01*
X113017732Y-92249819D02*
X113351065Y-93249819D01*
X113636780Y-93202200D02*
X113732018Y-93249819D01*
X113732018Y-93249819D02*
X113922494Y-93249819D01*
X113922494Y-93249819D02*
X114017732Y-93202200D01*
X114017732Y-93202200D02*
X114065351Y-93106961D01*
X114065351Y-93106961D02*
X114065351Y-93059342D01*
X114065351Y-93059342D02*
X114017732Y-92964104D01*
X114017732Y-92964104D02*
X113922494Y-92916485D01*
X113922494Y-92916485D02*
X113779637Y-92916485D01*
X113779637Y-92916485D02*
X113684399Y-92868866D01*
X113684399Y-92868866D02*
X113636780Y-92773628D01*
X113636780Y-92773628D02*
X113636780Y-92726009D01*
X113636780Y-92726009D02*
X113684399Y-92630771D01*
X113684399Y-92630771D02*
X113779637Y-92583152D01*
X113779637Y-92583152D02*
X113922494Y-92583152D01*
X113922494Y-92583152D02*
X114017732Y-92630771D01*
X114446304Y-93202200D02*
X114541542Y-93249819D01*
X114541542Y-93249819D02*
X114732018Y-93249819D01*
X114732018Y-93249819D02*
X114827256Y-93202200D01*
X114827256Y-93202200D02*
X114874875Y-93106961D01*
X114874875Y-93106961D02*
X114874875Y-93059342D01*
X114874875Y-93059342D02*
X114827256Y-92964104D01*
X114827256Y-92964104D02*
X114732018Y-92916485D01*
X114732018Y-92916485D02*
X114589161Y-92916485D01*
X114589161Y-92916485D02*
X114493923Y-92868866D01*
X114493923Y-92868866D02*
X114446304Y-92773628D01*
X114446304Y-92773628D02*
X114446304Y-92726009D01*
X114446304Y-92726009D02*
X114493923Y-92630771D01*
X114493923Y-92630771D02*
X114589161Y-92583152D01*
X114589161Y-92583152D02*
X114732018Y-92583152D01*
X114732018Y-92583152D02*
X114827256Y-92630771D01*
X115446304Y-93249819D02*
X115351066Y-93202200D01*
X115351066Y-93202200D02*
X115303447Y-93154580D01*
X115303447Y-93154580D02*
X115255828Y-93059342D01*
X115255828Y-93059342D02*
X115255828Y-92773628D01*
X115255828Y-92773628D02*
X115303447Y-92678390D01*
X115303447Y-92678390D02*
X115351066Y-92630771D01*
X115351066Y-92630771D02*
X115446304Y-92583152D01*
X115446304Y-92583152D02*
X115589161Y-92583152D01*
X115589161Y-92583152D02*
X115684399Y-92630771D01*
X115684399Y-92630771D02*
X115732018Y-92678390D01*
X115732018Y-92678390D02*
X115779637Y-92773628D01*
X115779637Y-92773628D02*
X115779637Y-93059342D01*
X115779637Y-93059342D02*
X115732018Y-93154580D01*
X115732018Y-93154580D02*
X115684399Y-93202200D01*
X115684399Y-93202200D02*
X115589161Y-93249819D01*
X115589161Y-93249819D02*
X115446304Y-93249819D01*
X116636780Y-93202200D02*
X116541542Y-93249819D01*
X116541542Y-93249819D02*
X116351066Y-93249819D01*
X116351066Y-93249819D02*
X116255828Y-93202200D01*
X116255828Y-93202200D02*
X116208209Y-93154580D01*
X116208209Y-93154580D02*
X116160590Y-93059342D01*
X116160590Y-93059342D02*
X116160590Y-92773628D01*
X116160590Y-92773628D02*
X116208209Y-92678390D01*
X116208209Y-92678390D02*
X116255828Y-92630771D01*
X116255828Y-92630771D02*
X116351066Y-92583152D01*
X116351066Y-92583152D02*
X116541542Y-92583152D01*
X116541542Y-92583152D02*
X116636780Y-92630771D01*
X117065352Y-93249819D02*
X117065352Y-92583152D01*
X117065352Y-92249819D02*
X117017733Y-92297438D01*
X117017733Y-92297438D02*
X117065352Y-92345057D01*
X117065352Y-92345057D02*
X117112971Y-92297438D01*
X117112971Y-92297438D02*
X117065352Y-92249819D01*
X117065352Y-92249819D02*
X117065352Y-92345057D01*
X117970113Y-93249819D02*
X117970113Y-92726009D01*
X117970113Y-92726009D02*
X117922494Y-92630771D01*
X117922494Y-92630771D02*
X117827256Y-92583152D01*
X117827256Y-92583152D02*
X117636780Y-92583152D01*
X117636780Y-92583152D02*
X117541542Y-92630771D01*
X117970113Y-93202200D02*
X117874875Y-93249819D01*
X117874875Y-93249819D02*
X117636780Y-93249819D01*
X117636780Y-93249819D02*
X117541542Y-93202200D01*
X117541542Y-93202200D02*
X117493923Y-93106961D01*
X117493923Y-93106961D02*
X117493923Y-93011723D01*
X117493923Y-93011723D02*
X117541542Y-92916485D01*
X117541542Y-92916485D02*
X117636780Y-92868866D01*
X117636780Y-92868866D02*
X117874875Y-92868866D01*
X117874875Y-92868866D02*
X117970113Y-92821247D01*
X118303447Y-92583152D02*
X118684399Y-92583152D01*
X118446304Y-92249819D02*
X118446304Y-93106961D01*
X118446304Y-93106961D02*
X118493923Y-93202200D01*
X118493923Y-93202200D02*
X118589161Y-93249819D01*
X118589161Y-93249819D02*
X118684399Y-93249819D01*
X119017733Y-93249819D02*
X119017733Y-92583152D01*
X119017733Y-92249819D02*
X118970114Y-92297438D01*
X118970114Y-92297438D02*
X119017733Y-92345057D01*
X119017733Y-92345057D02*
X119065352Y-92297438D01*
X119065352Y-92297438D02*
X119017733Y-92249819D01*
X119017733Y-92249819D02*
X119017733Y-92345057D01*
X119636780Y-93249819D02*
X119541542Y-93202200D01*
X119541542Y-93202200D02*
X119493923Y-93154580D01*
X119493923Y-93154580D02*
X119446304Y-93059342D01*
X119446304Y-93059342D02*
X119446304Y-92773628D01*
X119446304Y-92773628D02*
X119493923Y-92678390D01*
X119493923Y-92678390D02*
X119541542Y-92630771D01*
X119541542Y-92630771D02*
X119636780Y-92583152D01*
X119636780Y-92583152D02*
X119779637Y-92583152D01*
X119779637Y-92583152D02*
X119874875Y-92630771D01*
X119874875Y-92630771D02*
X119922494Y-92678390D01*
X119922494Y-92678390D02*
X119970113Y-92773628D01*
X119970113Y-92773628D02*
X119970113Y-93059342D01*
X119970113Y-93059342D02*
X119922494Y-93154580D01*
X119922494Y-93154580D02*
X119874875Y-93202200D01*
X119874875Y-93202200D02*
X119779637Y-93249819D01*
X119779637Y-93249819D02*
X119636780Y-93249819D01*
X120398685Y-92583152D02*
X120398685Y-93249819D01*
X120398685Y-92678390D02*
X120446304Y-92630771D01*
X120446304Y-92630771D02*
X120541542Y-92583152D01*
X120541542Y-92583152D02*
X120684399Y-92583152D01*
X120684399Y-92583152D02*
X120779637Y-92630771D01*
X120779637Y-92630771D02*
X120827256Y-92726009D01*
X120827256Y-92726009D02*
X120827256Y-93249819D01*
X122208209Y-93249819D02*
X122112971Y-93202200D01*
X122112971Y-93202200D02*
X122065352Y-93154580D01*
X122065352Y-93154580D02*
X122017733Y-93059342D01*
X122017733Y-93059342D02*
X122017733Y-92773628D01*
X122017733Y-92773628D02*
X122065352Y-92678390D01*
X122065352Y-92678390D02*
X122112971Y-92630771D01*
X122112971Y-92630771D02*
X122208209Y-92583152D01*
X122208209Y-92583152D02*
X122351066Y-92583152D01*
X122351066Y-92583152D02*
X122446304Y-92630771D01*
X122446304Y-92630771D02*
X122493923Y-92678390D01*
X122493923Y-92678390D02*
X122541542Y-92773628D01*
X122541542Y-92773628D02*
X122541542Y-93059342D01*
X122541542Y-93059342D02*
X122493923Y-93154580D01*
X122493923Y-93154580D02*
X122446304Y-93202200D01*
X122446304Y-93202200D02*
X122351066Y-93249819D01*
X122351066Y-93249819D02*
X122208209Y-93249819D01*
X122827257Y-92583152D02*
X123208209Y-92583152D01*
X122970114Y-93249819D02*
X122970114Y-92392676D01*
X122970114Y-92392676D02*
X123017733Y-92297438D01*
X123017733Y-92297438D02*
X123112971Y-92249819D01*
X123112971Y-92249819D02*
X123208209Y-92249819D01*
X124493924Y-92249819D02*
X124684400Y-92249819D01*
X124684400Y-92249819D02*
X124779638Y-92297438D01*
X124779638Y-92297438D02*
X124874876Y-92392676D01*
X124874876Y-92392676D02*
X124922495Y-92583152D01*
X124922495Y-92583152D02*
X124922495Y-92916485D01*
X124922495Y-92916485D02*
X124874876Y-93106961D01*
X124874876Y-93106961D02*
X124779638Y-93202200D01*
X124779638Y-93202200D02*
X124684400Y-93249819D01*
X124684400Y-93249819D02*
X124493924Y-93249819D01*
X124493924Y-93249819D02*
X124398686Y-93202200D01*
X124398686Y-93202200D02*
X124303448Y-93106961D01*
X124303448Y-93106961D02*
X124255829Y-92916485D01*
X124255829Y-92916485D02*
X124255829Y-92583152D01*
X124255829Y-92583152D02*
X124303448Y-92392676D01*
X124303448Y-92392676D02*
X124398686Y-92297438D01*
X124398686Y-92297438D02*
X124493924Y-92249819D01*
X125779638Y-93249819D02*
X125779638Y-92726009D01*
X125779638Y-92726009D02*
X125732019Y-92630771D01*
X125732019Y-92630771D02*
X125636781Y-92583152D01*
X125636781Y-92583152D02*
X125446305Y-92583152D01*
X125446305Y-92583152D02*
X125351067Y-92630771D01*
X125779638Y-93202200D02*
X125684400Y-93249819D01*
X125684400Y-93249819D02*
X125446305Y-93249819D01*
X125446305Y-93249819D02*
X125351067Y-93202200D01*
X125351067Y-93202200D02*
X125303448Y-93106961D01*
X125303448Y-93106961D02*
X125303448Y-93011723D01*
X125303448Y-93011723D02*
X125351067Y-92916485D01*
X125351067Y-92916485D02*
X125446305Y-92868866D01*
X125446305Y-92868866D02*
X125684400Y-92868866D01*
X125684400Y-92868866D02*
X125779638Y-92821247D01*
X126255829Y-93249819D02*
X126255829Y-92249819D01*
X126351067Y-92868866D02*
X126636781Y-93249819D01*
X126636781Y-92583152D02*
X126255829Y-92964104D01*
X127208210Y-93249819D02*
X127112972Y-93202200D01*
X127112972Y-93202200D02*
X127065353Y-93106961D01*
X127065353Y-93106961D02*
X127065353Y-92249819D01*
X128017734Y-93249819D02*
X128017734Y-92726009D01*
X128017734Y-92726009D02*
X127970115Y-92630771D01*
X127970115Y-92630771D02*
X127874877Y-92583152D01*
X127874877Y-92583152D02*
X127684401Y-92583152D01*
X127684401Y-92583152D02*
X127589163Y-92630771D01*
X128017734Y-93202200D02*
X127922496Y-93249819D01*
X127922496Y-93249819D02*
X127684401Y-93249819D01*
X127684401Y-93249819D02*
X127589163Y-93202200D01*
X127589163Y-93202200D02*
X127541544Y-93106961D01*
X127541544Y-93106961D02*
X127541544Y-93011723D01*
X127541544Y-93011723D02*
X127589163Y-92916485D01*
X127589163Y-92916485D02*
X127684401Y-92868866D01*
X127684401Y-92868866D02*
X127922496Y-92868866D01*
X127922496Y-92868866D02*
X128017734Y-92821247D01*
X128493925Y-92583152D02*
X128493925Y-93249819D01*
X128493925Y-92678390D02*
X128541544Y-92630771D01*
X128541544Y-92630771D02*
X128636782Y-92583152D01*
X128636782Y-92583152D02*
X128779639Y-92583152D01*
X128779639Y-92583152D02*
X128874877Y-92630771D01*
X128874877Y-92630771D02*
X128922496Y-92726009D01*
X128922496Y-92726009D02*
X128922496Y-93249819D01*
X129827258Y-93249819D02*
X129827258Y-92249819D01*
X129827258Y-93202200D02*
X129732020Y-93249819D01*
X129732020Y-93249819D02*
X129541544Y-93249819D01*
X129541544Y-93249819D02*
X129446306Y-93202200D01*
X129446306Y-93202200D02*
X129398687Y-93154580D01*
X129398687Y-93154580D02*
X129351068Y-93059342D01*
X129351068Y-93059342D02*
X129351068Y-92773628D01*
X129351068Y-92773628D02*
X129398687Y-92678390D01*
X129398687Y-92678390D02*
X129446306Y-92630771D01*
X129446306Y-92630771D02*
X129541544Y-92583152D01*
X129541544Y-92583152D02*
X129732020Y-92583152D01*
X129732020Y-92583152D02*
X129827258Y-92630771D01*
X131065354Y-92249819D02*
X131065354Y-93059342D01*
X131065354Y-93059342D02*
X131112973Y-93154580D01*
X131112973Y-93154580D02*
X131160592Y-93202200D01*
X131160592Y-93202200D02*
X131255830Y-93249819D01*
X131255830Y-93249819D02*
X131446306Y-93249819D01*
X131446306Y-93249819D02*
X131541544Y-93202200D01*
X131541544Y-93202200D02*
X131589163Y-93154580D01*
X131589163Y-93154580D02*
X131636782Y-93059342D01*
X131636782Y-93059342D02*
X131636782Y-92249819D01*
X132112973Y-92583152D02*
X132112973Y-93249819D01*
X132112973Y-92678390D02*
X132160592Y-92630771D01*
X132160592Y-92630771D02*
X132255830Y-92583152D01*
X132255830Y-92583152D02*
X132398687Y-92583152D01*
X132398687Y-92583152D02*
X132493925Y-92630771D01*
X132493925Y-92630771D02*
X132541544Y-92726009D01*
X132541544Y-92726009D02*
X132541544Y-93249819D01*
X133017735Y-93249819D02*
X133017735Y-92583152D01*
X133017735Y-92249819D02*
X132970116Y-92297438D01*
X132970116Y-92297438D02*
X133017735Y-92345057D01*
X133017735Y-92345057D02*
X133065354Y-92297438D01*
X133065354Y-92297438D02*
X133017735Y-92249819D01*
X133017735Y-92249819D02*
X133017735Y-92345057D01*
X133398687Y-92583152D02*
X133636782Y-93249819D01*
X133636782Y-93249819D02*
X133874877Y-92583152D01*
X134636782Y-93202200D02*
X134541544Y-93249819D01*
X134541544Y-93249819D02*
X134351068Y-93249819D01*
X134351068Y-93249819D02*
X134255830Y-93202200D01*
X134255830Y-93202200D02*
X134208211Y-93106961D01*
X134208211Y-93106961D02*
X134208211Y-92726009D01*
X134208211Y-92726009D02*
X134255830Y-92630771D01*
X134255830Y-92630771D02*
X134351068Y-92583152D01*
X134351068Y-92583152D02*
X134541544Y-92583152D01*
X134541544Y-92583152D02*
X134636782Y-92630771D01*
X134636782Y-92630771D02*
X134684401Y-92726009D01*
X134684401Y-92726009D02*
X134684401Y-92821247D01*
X134684401Y-92821247D02*
X134208211Y-92916485D01*
X135112973Y-93249819D02*
X135112973Y-92583152D01*
X135112973Y-92773628D02*
X135160592Y-92678390D01*
X135160592Y-92678390D02*
X135208211Y-92630771D01*
X135208211Y-92630771D02*
X135303449Y-92583152D01*
X135303449Y-92583152D02*
X135398687Y-92583152D01*
X135684402Y-93202200D02*
X135779640Y-93249819D01*
X135779640Y-93249819D02*
X135970116Y-93249819D01*
X135970116Y-93249819D02*
X136065354Y-93202200D01*
X136065354Y-93202200D02*
X136112973Y-93106961D01*
X136112973Y-93106961D02*
X136112973Y-93059342D01*
X136112973Y-93059342D02*
X136065354Y-92964104D01*
X136065354Y-92964104D02*
X135970116Y-92916485D01*
X135970116Y-92916485D02*
X135827259Y-92916485D01*
X135827259Y-92916485D02*
X135732021Y-92868866D01*
X135732021Y-92868866D02*
X135684402Y-92773628D01*
X135684402Y-92773628D02*
X135684402Y-92726009D01*
X135684402Y-92726009D02*
X135732021Y-92630771D01*
X135732021Y-92630771D02*
X135827259Y-92583152D01*
X135827259Y-92583152D02*
X135970116Y-92583152D01*
X135970116Y-92583152D02*
X136065354Y-92630771D01*
X136541545Y-93249819D02*
X136541545Y-92583152D01*
X136541545Y-92249819D02*
X136493926Y-92297438D01*
X136493926Y-92297438D02*
X136541545Y-92345057D01*
X136541545Y-92345057D02*
X136589164Y-92297438D01*
X136589164Y-92297438D02*
X136541545Y-92249819D01*
X136541545Y-92249819D02*
X136541545Y-92345057D01*
X136874878Y-92583152D02*
X137255830Y-92583152D01*
X137017735Y-92249819D02*
X137017735Y-93106961D01*
X137017735Y-93106961D02*
X137065354Y-93202200D01*
X137065354Y-93202200D02*
X137160592Y-93249819D01*
X137160592Y-93249819D02*
X137255830Y-93249819D01*
X137493926Y-92583152D02*
X137732021Y-93249819D01*
X137970116Y-92583152D02*
X137732021Y-93249819D01*
X137732021Y-93249819D02*
X137636783Y-93487914D01*
X137636783Y-93487914D02*
X137589164Y-93535533D01*
X137589164Y-93535533D02*
X137493926Y-93583152D01*
D10*
X167530828Y-75865489D02*
X166030828Y-75865489D01*
X166745114Y-75865489D02*
X166745114Y-75008346D01*
X167530828Y-75008346D02*
X166030828Y-75008346D01*
X167500828Y-79921203D02*
X167500828Y-80635489D01*
X167500828Y-80635489D02*
X166000828Y-80635489D01*
D11*
X125064819Y-97793333D02*
X125779104Y-97793333D01*
X125779104Y-97793333D02*
X125921961Y-97840952D01*
X125921961Y-97840952D02*
X126017200Y-97936190D01*
X126017200Y-97936190D02*
X126064819Y-98079047D01*
X126064819Y-98079047D02*
X126064819Y-98174285D01*
X126064819Y-96793333D02*
X126064819Y-97364761D01*
X126064819Y-97079047D02*
X125064819Y-97079047D01*
X125064819Y-97079047D02*
X125207676Y-97174285D01*
X125207676Y-97174285D02*
X125302914Y-97269523D01*
X125302914Y-97269523D02*
X125350533Y-97364761D01*
X147924819Y-97793333D02*
X148639104Y-97793333D01*
X148639104Y-97793333D02*
X148781961Y-97840952D01*
X148781961Y-97840952D02*
X148877200Y-97936190D01*
X148877200Y-97936190D02*
X148924819Y-98079047D01*
X148924819Y-98079047D02*
X148924819Y-98174285D01*
X147924819Y-97412380D02*
X147924819Y-96793333D01*
X147924819Y-96793333D02*
X148305771Y-97126666D01*
X148305771Y-97126666D02*
X148305771Y-96983809D01*
X148305771Y-96983809D02*
X148353390Y-96888571D01*
X148353390Y-96888571D02*
X148401009Y-96840952D01*
X148401009Y-96840952D02*
X148496247Y-96793333D01*
X148496247Y-96793333D02*
X148734342Y-96793333D01*
X148734342Y-96793333D02*
X148829580Y-96840952D01*
X148829580Y-96840952D02*
X148877200Y-96888571D01*
X148877200Y-96888571D02*
X148924819Y-96983809D01*
X148924819Y-96983809D02*
X148924819Y-97269523D01*
X148924819Y-97269523D02*
X148877200Y-97364761D01*
X148877200Y-97364761D02*
X148829580Y-97412380D01*
X115920819Y-49533333D02*
X116635104Y-49533333D01*
X116635104Y-49533333D02*
X116777961Y-49580952D01*
X116777961Y-49580952D02*
X116873200Y-49676190D01*
X116873200Y-49676190D02*
X116920819Y-49819047D01*
X116920819Y-49819047D02*
X116920819Y-49914285D01*
X116016057Y-49104761D02*
X115968438Y-49057142D01*
X115968438Y-49057142D02*
X115920819Y-48961904D01*
X115920819Y-48961904D02*
X115920819Y-48723809D01*
X115920819Y-48723809D02*
X115968438Y-48628571D01*
X115968438Y-48628571D02*
X116016057Y-48580952D01*
X116016057Y-48580952D02*
X116111295Y-48533333D01*
X116111295Y-48533333D02*
X116206533Y-48533333D01*
X116206533Y-48533333D02*
X116349390Y-48580952D01*
X116349390Y-48580952D02*
X116920819Y-49152380D01*
X116920819Y-49152380D02*
X116920819Y-48533333D01*
X142844819Y-49533333D02*
X143559104Y-49533333D01*
X143559104Y-49533333D02*
X143701961Y-49580952D01*
X143701961Y-49580952D02*
X143797200Y-49676190D01*
X143797200Y-49676190D02*
X143844819Y-49819047D01*
X143844819Y-49819047D02*
X143844819Y-49914285D01*
X143178152Y-48628571D02*
X143844819Y-48628571D01*
X142797200Y-48866666D02*
X143511485Y-49104761D01*
X143511485Y-49104761D02*
X143511485Y-48485714D01*
X145909580Y-71829166D02*
X145957200Y-71876785D01*
X145957200Y-71876785D02*
X146004819Y-72019642D01*
X146004819Y-72019642D02*
X146004819Y-72114880D01*
X146004819Y-72114880D02*
X145957200Y-72257737D01*
X145957200Y-72257737D02*
X145861961Y-72352975D01*
X145861961Y-72352975D02*
X145766723Y-72400594D01*
X145766723Y-72400594D02*
X145576247Y-72448213D01*
X145576247Y-72448213D02*
X145433390Y-72448213D01*
X145433390Y-72448213D02*
X145242914Y-72400594D01*
X145242914Y-72400594D02*
X145147676Y-72352975D01*
X145147676Y-72352975D02*
X145052438Y-72257737D01*
X145052438Y-72257737D02*
X145004819Y-72114880D01*
X145004819Y-72114880D02*
X145004819Y-72019642D01*
X145004819Y-72019642D02*
X145052438Y-71876785D01*
X145052438Y-71876785D02*
X145100057Y-71829166D01*
X145004819Y-71495832D02*
X145004819Y-70876785D01*
X145004819Y-70876785D02*
X145385771Y-71210118D01*
X145385771Y-71210118D02*
X145385771Y-71067261D01*
X145385771Y-71067261D02*
X145433390Y-70972023D01*
X145433390Y-70972023D02*
X145481009Y-70924404D01*
X145481009Y-70924404D02*
X145576247Y-70876785D01*
X145576247Y-70876785D02*
X145814342Y-70876785D01*
X145814342Y-70876785D02*
X145909580Y-70924404D01*
X145909580Y-70924404D02*
X145957200Y-70972023D01*
X145957200Y-70972023D02*
X146004819Y-71067261D01*
X146004819Y-71067261D02*
X146004819Y-71352975D01*
X146004819Y-71352975D02*
X145957200Y-71448213D01*
X145957200Y-71448213D02*
X145909580Y-71495832D01*
X110793628Y-54806190D02*
X111269819Y-54806190D01*
X110269819Y-55139523D02*
X110793628Y-54806190D01*
X110793628Y-54806190D02*
X110269819Y-54472857D01*
X111269819Y-53615714D02*
X111269819Y-54187142D01*
X111269819Y-53901428D02*
X110269819Y-53901428D01*
X110269819Y-53901428D02*
X110412676Y-53996666D01*
X110412676Y-53996666D02*
X110507914Y-54091904D01*
X110507914Y-54091904D02*
X110555533Y-54187142D01*
X153559819Y-78433333D02*
X154274104Y-78433333D01*
X154274104Y-78433333D02*
X154416961Y-78480952D01*
X154416961Y-78480952D02*
X154512200Y-78576190D01*
X154512200Y-78576190D02*
X154559819Y-78719047D01*
X154559819Y-78719047D02*
X154559819Y-78814285D01*
X153559819Y-77480952D02*
X153559819Y-77957142D01*
X153559819Y-77957142D02*
X154036009Y-78004761D01*
X154036009Y-78004761D02*
X153988390Y-77957142D01*
X153988390Y-77957142D02*
X153940771Y-77861904D01*
X153940771Y-77861904D02*
X153940771Y-77623809D01*
X153940771Y-77623809D02*
X153988390Y-77528571D01*
X153988390Y-77528571D02*
X154036009Y-77480952D01*
X154036009Y-77480952D02*
X154131247Y-77433333D01*
X154131247Y-77433333D02*
X154369342Y-77433333D01*
X154369342Y-77433333D02*
X154464580Y-77480952D01*
X154464580Y-77480952D02*
X154512200Y-77528571D01*
X154512200Y-77528571D02*
X154559819Y-77623809D01*
X154559819Y-77623809D02*
X154559819Y-77861904D01*
X154559819Y-77861904D02*
X154512200Y-77957142D01*
X154512200Y-77957142D02*
X154464580Y-78004761D01*
X142459580Y-69656666D02*
X142507200Y-69704285D01*
X142507200Y-69704285D02*
X142554819Y-69847142D01*
X142554819Y-69847142D02*
X142554819Y-69942380D01*
X142554819Y-69942380D02*
X142507200Y-70085237D01*
X142507200Y-70085237D02*
X142411961Y-70180475D01*
X142411961Y-70180475D02*
X142316723Y-70228094D01*
X142316723Y-70228094D02*
X142126247Y-70275713D01*
X142126247Y-70275713D02*
X141983390Y-70275713D01*
X141983390Y-70275713D02*
X141792914Y-70228094D01*
X141792914Y-70228094D02*
X141697676Y-70180475D01*
X141697676Y-70180475D02*
X141602438Y-70085237D01*
X141602438Y-70085237D02*
X141554819Y-69942380D01*
X141554819Y-69942380D02*
X141554819Y-69847142D01*
X141554819Y-69847142D02*
X141602438Y-69704285D01*
X141602438Y-69704285D02*
X141650057Y-69656666D01*
X141650057Y-69275713D02*
X141602438Y-69228094D01*
X141602438Y-69228094D02*
X141554819Y-69132856D01*
X141554819Y-69132856D02*
X141554819Y-68894761D01*
X141554819Y-68894761D02*
X141602438Y-68799523D01*
X141602438Y-68799523D02*
X141650057Y-68751904D01*
X141650057Y-68751904D02*
X141745295Y-68704285D01*
X141745295Y-68704285D02*
X141840533Y-68704285D01*
X141840533Y-68704285D02*
X141983390Y-68751904D01*
X141983390Y-68751904D02*
X142554819Y-69323332D01*
X142554819Y-69323332D02*
X142554819Y-68704285D01*
X155984819Y-66973333D02*
X156699104Y-66973333D01*
X156699104Y-66973333D02*
X156841961Y-67020952D01*
X156841961Y-67020952D02*
X156937200Y-67116190D01*
X156937200Y-67116190D02*
X156984819Y-67259047D01*
X156984819Y-67259047D02*
X156984819Y-67354285D01*
X155984819Y-66068571D02*
X155984819Y-66259047D01*
X155984819Y-66259047D02*
X156032438Y-66354285D01*
X156032438Y-66354285D02*
X156080057Y-66401904D01*
X156080057Y-66401904D02*
X156222914Y-66497142D01*
X156222914Y-66497142D02*
X156413390Y-66544761D01*
X156413390Y-66544761D02*
X156794342Y-66544761D01*
X156794342Y-66544761D02*
X156889580Y-66497142D01*
X156889580Y-66497142D02*
X156937200Y-66449523D01*
X156937200Y-66449523D02*
X156984819Y-66354285D01*
X156984819Y-66354285D02*
X156984819Y-66163809D01*
X156984819Y-66163809D02*
X156937200Y-66068571D01*
X156937200Y-66068571D02*
X156889580Y-66020952D01*
X156889580Y-66020952D02*
X156794342Y-65973333D01*
X156794342Y-65973333D02*
X156556247Y-65973333D01*
X156556247Y-65973333D02*
X156461009Y-66020952D01*
X156461009Y-66020952D02*
X156413390Y-66068571D01*
X156413390Y-66068571D02*
X156365771Y-66163809D01*
X156365771Y-66163809D02*
X156365771Y-66354285D01*
X156365771Y-66354285D02*
X156413390Y-66449523D01*
X156413390Y-66449523D02*
X156461009Y-66497142D01*
X156461009Y-66497142D02*
X156556247Y-66544761D01*
X127830833Y-71559580D02*
X127783214Y-71607200D01*
X127783214Y-71607200D02*
X127640357Y-71654819D01*
X127640357Y-71654819D02*
X127545119Y-71654819D01*
X127545119Y-71654819D02*
X127402262Y-71607200D01*
X127402262Y-71607200D02*
X127307024Y-71511961D01*
X127307024Y-71511961D02*
X127259405Y-71416723D01*
X127259405Y-71416723D02*
X127211786Y-71226247D01*
X127211786Y-71226247D02*
X127211786Y-71083390D01*
X127211786Y-71083390D02*
X127259405Y-70892914D01*
X127259405Y-70892914D02*
X127307024Y-70797676D01*
X127307024Y-70797676D02*
X127402262Y-70702438D01*
X127402262Y-70702438D02*
X127545119Y-70654819D01*
X127545119Y-70654819D02*
X127640357Y-70654819D01*
X127640357Y-70654819D02*
X127783214Y-70702438D01*
X127783214Y-70702438D02*
X127830833Y-70750057D01*
X128783214Y-71654819D02*
X128211786Y-71654819D01*
X128497500Y-71654819D02*
X128497500Y-70654819D01*
X128497500Y-70654819D02*
X128402262Y-70797676D01*
X128402262Y-70797676D02*
X128307024Y-70892914D01*
X128307024Y-70892914D02*
X128211786Y-70940533D01*
X121333333Y-66674819D02*
X121000000Y-66198628D01*
X120761905Y-66674819D02*
X120761905Y-65674819D01*
X120761905Y-65674819D02*
X121142857Y-65674819D01*
X121142857Y-65674819D02*
X121238095Y-65722438D01*
X121238095Y-65722438D02*
X121285714Y-65770057D01*
X121285714Y-65770057D02*
X121333333Y-65865295D01*
X121333333Y-65865295D02*
X121333333Y-66008152D01*
X121333333Y-66008152D02*
X121285714Y-66103390D01*
X121285714Y-66103390D02*
X121238095Y-66151009D01*
X121238095Y-66151009D02*
X121142857Y-66198628D01*
X121142857Y-66198628D02*
X120761905Y-66198628D01*
X121666667Y-65674819D02*
X122285714Y-65674819D01*
X122285714Y-65674819D02*
X121952381Y-66055771D01*
X121952381Y-66055771D02*
X122095238Y-66055771D01*
X122095238Y-66055771D02*
X122190476Y-66103390D01*
X122190476Y-66103390D02*
X122238095Y-66151009D01*
X122238095Y-66151009D02*
X122285714Y-66246247D01*
X122285714Y-66246247D02*
X122285714Y-66484342D01*
X122285714Y-66484342D02*
X122238095Y-66579580D01*
X122238095Y-66579580D02*
X122190476Y-66627200D01*
X122190476Y-66627200D02*
X122095238Y-66674819D01*
X122095238Y-66674819D02*
X121809524Y-66674819D01*
X121809524Y-66674819D02*
X121714286Y-66627200D01*
X121714286Y-66627200D02*
X121666667Y-66579580D01*
D12*
%TO.C,J1*%
X126610000Y-98790000D02*
X126610000Y-97460000D01*
X127940000Y-98790000D02*
X126610000Y-98790000D01*
X129210000Y-96130000D02*
X147050000Y-96130000D01*
X129210000Y-98790000D02*
X129210000Y-96130000D01*
X129210000Y-98790000D02*
X147050000Y-98790000D01*
X147050000Y-98790000D02*
X147050000Y-96130000D01*
%TO.C,J3*%
X149470000Y-98790000D02*
X149470000Y-97460000D01*
X150800000Y-98790000D02*
X149470000Y-98790000D01*
X152070000Y-96130000D02*
X164830000Y-96130000D01*
X152070000Y-98790000D02*
X152070000Y-96130000D01*
X152070000Y-98790000D02*
X164830000Y-98790000D01*
X164830000Y-98790000D02*
X164830000Y-96130000D01*
%TO.C,J2*%
X117466000Y-50530000D02*
X117466000Y-49200000D01*
X118796000Y-50530000D02*
X117466000Y-50530000D01*
X120066000Y-47870000D02*
X142986000Y-47870000D01*
X120066000Y-50530000D02*
X120066000Y-47870000D01*
X120066000Y-50530000D02*
X142986000Y-50530000D01*
X142986000Y-50530000D02*
X142986000Y-47870000D01*
%TO.C,J4*%
X144390000Y-50530000D02*
X144390000Y-49200000D01*
X145720000Y-50530000D02*
X144390000Y-50530000D01*
X146990000Y-47870000D02*
X164830000Y-47870000D01*
X146990000Y-50530000D02*
X146990000Y-47870000D01*
X146990000Y-50530000D02*
X164830000Y-50530000D01*
X164830000Y-50530000D02*
X164830000Y-47870000D01*
%TO.C,C3*%
X146495000Y-71923752D02*
X146495000Y-71401248D01*
X147965000Y-71923752D02*
X147965000Y-71401248D01*
%TO.C,Y1*%
X104765000Y-51130000D02*
X104765000Y-57530000D01*
X109815000Y-51130000D02*
X109815000Y-57530000D01*
X104765000Y-51130000D02*
G75*
G02*
X109815000Y-51130000I2525000J0D01*
G01*
X109815000Y-57530000D02*
G75*
G02*
X104765000Y-57530000I-2525000J0D01*
G01*
%TO.C,J5*%
X155104000Y-73040000D02*
X165025000Y-73040000D01*
X155104000Y-83160000D02*
X155104000Y-73040000D01*
X155104000Y-83160000D02*
X165025000Y-83160000D01*
X158064000Y-83160000D02*
X158064000Y-73040000D01*
X159090000Y-74530000D02*
X159126000Y-74565000D01*
X159296000Y-74325000D02*
X159342000Y-74372000D01*
X161388000Y-76827000D02*
X161434000Y-76874000D01*
X161604000Y-76634000D02*
X161639000Y-76669000D01*
X162965000Y-83160000D02*
X162965000Y-73040000D01*
X164465000Y-83160000D02*
X164465000Y-73040000D01*
X164525000Y-83400000D02*
X165265000Y-83400000D01*
X165025000Y-83160000D02*
X165025000Y-73040000D01*
X165265000Y-83400000D02*
X165265000Y-82900000D01*
X158829573Y-81283042D02*
G75*
G02*
X158830000Y-79916000I1535420J683041D01*
G01*
X159681958Y-79064573D02*
G75*
G02*
X161049000Y-79065000I683042J-1535427D01*
G01*
X161048042Y-82135427D02*
G75*
G02*
X159681000Y-82135000I-683041J1535420D01*
G01*
X161899756Y-79916682D02*
G75*
G02*
X162045000Y-80600000I-1534756J-683318D01*
G01*
X162045253Y-80571195D02*
G75*
G02*
X161900000Y-81284000I-1680254J-28806D01*
G01*
X162045000Y-75600000D02*
G75*
G02*
X158685000Y-75600000I-1680000J0D01*
G01*
X158685000Y-75600000D02*
G75*
G02*
X162045000Y-75600000I1680000J0D01*
G01*
%TO.C,C2*%
X139685000Y-69228748D02*
X139685000Y-69751252D01*
X141155000Y-69228748D02*
X141155000Y-69751252D01*
%TO.C,J6*%
X155104000Y-61780000D02*
X165025000Y-61780000D01*
X155104000Y-71900000D02*
X155104000Y-61780000D01*
X155104000Y-71900000D02*
X165025000Y-71900000D01*
X158064000Y-71900000D02*
X158064000Y-61780000D01*
X159090000Y-63270000D02*
X159126000Y-63305000D01*
X159296000Y-63065000D02*
X159342000Y-63112000D01*
X161388000Y-65567000D02*
X161434000Y-65614000D01*
X161604000Y-65374000D02*
X161639000Y-65409000D01*
X162965000Y-71900000D02*
X162965000Y-61780000D01*
X164465000Y-71900000D02*
X164465000Y-61780000D01*
X164525000Y-72140000D02*
X165265000Y-72140000D01*
X165025000Y-71900000D02*
X165025000Y-61780000D01*
X165265000Y-72140000D02*
X165265000Y-71640000D01*
X158829573Y-70023042D02*
G75*
G02*
X158830000Y-68656000I1535420J683041D01*
G01*
X159681958Y-67804573D02*
G75*
G02*
X161049000Y-67805000I683042J-1535427D01*
G01*
X161048042Y-70875427D02*
G75*
G02*
X159681000Y-70875000I-683041J1535420D01*
G01*
X161899756Y-68656682D02*
G75*
G02*
X162045000Y-69340000I-1534756J-683318D01*
G01*
X162045253Y-69311195D02*
G75*
G02*
X161900000Y-70024000I-1680254J-28806D01*
G01*
X162045000Y-64340000D02*
G75*
G02*
X158685000Y-64340000I-1680000J0D01*
G01*
X158685000Y-64340000D02*
G75*
G02*
X162045000Y-64340000I1680000J0D01*
G01*
%TO.C,C1*%
X127736248Y-72145000D02*
X128258752Y-72145000D01*
X127736248Y-73615000D02*
X128258752Y-73615000D01*
%TO.C,U1*%
X113820000Y-57880000D02*
X113820000Y-60540000D01*
X113820000Y-57880000D02*
X113820000Y-60540000D01*
X113860000Y-83340000D02*
X115190000Y-83340000D01*
X113860000Y-83340000D02*
X115190000Y-83340000D01*
X113860000Y-84670000D02*
X113860000Y-83340000D01*
X113860000Y-84670000D02*
X113860000Y-83340000D01*
X116460000Y-83340000D02*
X152080000Y-83340000D01*
X116460000Y-83340000D02*
X152080000Y-83340000D01*
X116460000Y-86000000D02*
X116460000Y-83340000D01*
X116460000Y-86000000D02*
X116460000Y-83340000D01*
X116460000Y-86000000D02*
X152080000Y-86000000D01*
X116460000Y-86000000D02*
X152080000Y-86000000D01*
X149440000Y-57880000D02*
X113820000Y-57880000D01*
X149440000Y-57880000D02*
X113820000Y-57880000D01*
X149440000Y-57880000D02*
X149440000Y-60540000D01*
X149440000Y-57880000D02*
X149440000Y-60540000D01*
X149440000Y-60540000D02*
X113820000Y-60540000D01*
X149440000Y-60540000D02*
X113820000Y-60540000D01*
X152040000Y-59210000D02*
X152040000Y-60540000D01*
X152040000Y-59210000D02*
X152040000Y-60540000D01*
X152040000Y-60540000D02*
X150710000Y-60540000D01*
X152040000Y-60540000D02*
X150710000Y-60540000D01*
X152080000Y-86000000D02*
X152080000Y-83340000D01*
X152080000Y-86000000D02*
X152080000Y-83340000D01*
D13*
%TO.C,G\u002A\u002A\u002A*%
G36*
X104239820Y-77653396D02*
G01*
X104272318Y-77692900D01*
X104310225Y-77735033D01*
X104352055Y-77778363D01*
X104396327Y-77821455D01*
X104441555Y-77862876D01*
X104486256Y-77901192D01*
X104528945Y-77934969D01*
X104538900Y-77942368D01*
X104552619Y-77952629D01*
X104563540Y-77961190D01*
X104570286Y-77966949D01*
X104571785Y-77968707D01*
X104568813Y-77971982D01*
X104560901Y-77978304D01*
X104549981Y-77986151D01*
X104518152Y-78012887D01*
X104491582Y-78045503D01*
X104470551Y-78083618D01*
X104461346Y-78107082D01*
X104452745Y-78142630D01*
X104449625Y-78181060D01*
X104452030Y-78219438D01*
X104459231Y-78252416D01*
X104475947Y-78293531D01*
X104498757Y-78329902D01*
X104527031Y-78361037D01*
X104560145Y-78386449D01*
X104597472Y-78405648D01*
X104638384Y-78418143D01*
X104677934Y-78423262D01*
X104723031Y-78421883D01*
X104765305Y-78413167D01*
X104804337Y-78397306D01*
X104839710Y-78374491D01*
X104871004Y-78344913D01*
X104883831Y-78329201D01*
X104906760Y-78292729D01*
X104922085Y-78254061D01*
X104930065Y-78212486D01*
X104931072Y-78199189D01*
X104932142Y-78181172D01*
X104933336Y-78169865D01*
X104934952Y-78163979D01*
X104937291Y-78162224D01*
X104939520Y-78162765D01*
X104952183Y-78167691D01*
X104970911Y-78174248D01*
X104994062Y-78181918D01*
X105019994Y-78190187D01*
X105047063Y-78198538D01*
X105073627Y-78206455D01*
X105098044Y-78213423D01*
X105117001Y-78218501D01*
X105176009Y-78233594D01*
X105162845Y-78250006D01*
X105155436Y-78259295D01*
X105144443Y-78273142D01*
X105131234Y-78289820D01*
X105117178Y-78307604D01*
X105114265Y-78311294D01*
X105078850Y-78356170D01*
X104905778Y-78444087D01*
X104732706Y-78532004D01*
X104463282Y-78536350D01*
X104416590Y-78537108D01*
X104371513Y-78537851D01*
X104328808Y-78538565D01*
X104289235Y-78539237D01*
X104253555Y-78539854D01*
X104222526Y-78540402D01*
X104196908Y-78540869D01*
X104177460Y-78541241D01*
X104164942Y-78541505D01*
X104161992Y-78541579D01*
X104145790Y-78541472D01*
X104131899Y-78540385D01*
X104122915Y-78538543D01*
X104121986Y-78538131D01*
X104118052Y-78535897D01*
X104110907Y-78531650D01*
X104100194Y-78525172D01*
X104085556Y-78516243D01*
X104066637Y-78504643D01*
X104043078Y-78490153D01*
X104014524Y-78472554D01*
X103980618Y-78451626D01*
X103941002Y-78427149D01*
X103895319Y-78398903D01*
X103843214Y-78366670D01*
X103840318Y-78364879D01*
X103810230Y-78346293D01*
X103782146Y-78329005D01*
X103756818Y-78313474D01*
X103735002Y-78300160D01*
X103717452Y-78289523D01*
X103704922Y-78282022D01*
X103698166Y-78278117D01*
X103697296Y-78277681D01*
X103693474Y-78272109D01*
X103692365Y-78260082D01*
X103693721Y-78242580D01*
X103697292Y-78220580D01*
X103702828Y-78195059D01*
X103710079Y-78166998D01*
X103718796Y-78137372D01*
X103728729Y-78107161D01*
X103739629Y-78077343D01*
X103751245Y-78048895D01*
X103761294Y-78026938D01*
X103797935Y-77960390D01*
X103840804Y-77898701D01*
X103889546Y-77842185D01*
X103943805Y-77791153D01*
X104003225Y-77745921D01*
X104067450Y-77706799D01*
X104136125Y-77674102D01*
X104182025Y-77656768D01*
X104229776Y-77640469D01*
X104239820Y-77653396D01*
G37*
G36*
X102835506Y-76470667D02*
G01*
X102877655Y-76471842D01*
X102916091Y-76473854D01*
X102948913Y-76476705D01*
X102955520Y-76477486D01*
X103058218Y-76494118D01*
X103158700Y-76517857D01*
X103256277Y-76548483D01*
X103350259Y-76585778D01*
X103439955Y-76629520D01*
X103449740Y-76634832D01*
X103464035Y-76642935D01*
X103481644Y-76653319D01*
X103501449Y-76665281D01*
X103522333Y-76678117D01*
X103543179Y-76691126D01*
X103562870Y-76703603D01*
X103580287Y-76714846D01*
X103594314Y-76724152D01*
X103603834Y-76730816D01*
X103607728Y-76734138D01*
X103607765Y-76734263D01*
X103604959Y-76737154D01*
X103596830Y-76745184D01*
X103583809Y-76757933D01*
X103566329Y-76774981D01*
X103544820Y-76795908D01*
X103519715Y-76820295D01*
X103491447Y-76847722D01*
X103460446Y-76877769D01*
X103427144Y-76910017D01*
X103391974Y-76944046D01*
X103378757Y-76956827D01*
X103341372Y-76992974D01*
X103304480Y-77028644D01*
X103268662Y-77063277D01*
X103234495Y-77096314D01*
X103202558Y-77127195D01*
X103173429Y-77155363D01*
X103147685Y-77180256D01*
X103125906Y-77201317D01*
X103108669Y-77217987D01*
X103096553Y-77229705D01*
X103095713Y-77230518D01*
X103083135Y-77242679D01*
X103065479Y-77259743D01*
X103043422Y-77281056D01*
X103017641Y-77305963D01*
X102988814Y-77333809D01*
X102957620Y-77363940D01*
X102924734Y-77395701D01*
X102890835Y-77428439D01*
X102856601Y-77461497D01*
X102853646Y-77464350D01*
X102786085Y-77529592D01*
X102723954Y-77589597D01*
X102666927Y-77644684D01*
X102614674Y-77695170D01*
X102566867Y-77741372D01*
X102523178Y-77783609D01*
X102483280Y-77822198D01*
X102446842Y-77857458D01*
X102413538Y-77889704D01*
X102383038Y-77919257D01*
X102355016Y-77946432D01*
X102329141Y-77971548D01*
X102305086Y-77994923D01*
X102282523Y-78016874D01*
X102261124Y-78037719D01*
X102251604Y-78047000D01*
X102233063Y-78064990D01*
X102215657Y-78081706D01*
X102200498Y-78096095D01*
X102188697Y-78107102D01*
X102181366Y-78113674D01*
X102180869Y-78114090D01*
X102168196Y-78124554D01*
X102160348Y-78113474D01*
X102135566Y-78075773D01*
X102109980Y-78031872D01*
X102084384Y-77983411D01*
X102059569Y-77932030D01*
X102036329Y-77879369D01*
X102015455Y-77827068D01*
X101997847Y-77777096D01*
X101974379Y-77698256D01*
X101956370Y-77621772D01*
X101943543Y-77545705D01*
X101935620Y-77468119D01*
X101932323Y-77387076D01*
X101932720Y-77322841D01*
X101935260Y-77258617D01*
X101939877Y-77199836D01*
X101946931Y-77144125D01*
X101956784Y-77089112D01*
X101969797Y-77032423D01*
X101985998Y-76972840D01*
X101999479Y-76929791D01*
X102015711Y-76883852D01*
X102034026Y-76836562D01*
X102053757Y-76789462D01*
X102074235Y-76744092D01*
X102094792Y-76701992D01*
X102114761Y-76664703D01*
X102132161Y-76635781D01*
X102138216Y-76626707D01*
X102143746Y-76619895D01*
X102150254Y-76614346D01*
X102159244Y-76609062D01*
X102172219Y-76603044D01*
X102190683Y-76595292D01*
X102197037Y-76592677D01*
X102290018Y-76557173D01*
X102381069Y-76528112D01*
X102472193Y-76504969D01*
X102565391Y-76487216D01*
X102635612Y-76477392D01*
X102667805Y-76474365D01*
X102705793Y-76472180D01*
X102747673Y-76470836D01*
X102791545Y-76470332D01*
X102835506Y-76470667D01*
G37*
G36*
X103272408Y-75831421D02*
G01*
X103275078Y-75833080D01*
X103279393Y-75836684D01*
X103289249Y-75844884D01*
X103304030Y-75857168D01*
X103323119Y-75873024D01*
X103345899Y-75891940D01*
X103371753Y-75913403D01*
X103400064Y-75936901D01*
X103430216Y-75961922D01*
X103435738Y-75966504D01*
X103496794Y-76017165D01*
X103552229Y-76063165D01*
X103602584Y-76104951D01*
X103648396Y-76142970D01*
X103690204Y-76177669D01*
X103728547Y-76209497D01*
X103763963Y-76238898D01*
X103796991Y-76266322D01*
X103828169Y-76292215D01*
X103858036Y-76317024D01*
X103887131Y-76341196D01*
X103915993Y-76365179D01*
X103945159Y-76389420D01*
X103961227Y-76402776D01*
X104096767Y-76515444D01*
X104127309Y-76502206D01*
X104136674Y-76498098D01*
X104152562Y-76491072D01*
X104174193Y-76481474D01*
X104200786Y-76469652D01*
X104231559Y-76455954D01*
X104265732Y-76440728D01*
X104302524Y-76424320D01*
X104341155Y-76407078D01*
X104365885Y-76396033D01*
X104411214Y-76375789D01*
X104462183Y-76353035D01*
X104517123Y-76328517D01*
X104574363Y-76302979D01*
X104632233Y-76277166D01*
X104689065Y-76251823D01*
X104743188Y-76227695D01*
X104792933Y-76205527D01*
X104801380Y-76201763D01*
X105028844Y-76100428D01*
X105391473Y-76214506D01*
X105448189Y-76232349D01*
X105506098Y-76250567D01*
X105564293Y-76268876D01*
X105621865Y-76286989D01*
X105677906Y-76304621D01*
X105731509Y-76321487D01*
X105781765Y-76337300D01*
X105827766Y-76351774D01*
X105868604Y-76364625D01*
X105903372Y-76375567D01*
X105924130Y-76382100D01*
X105959826Y-76393318D01*
X105993483Y-76403861D01*
X106024266Y-76413471D01*
X106051340Y-76421889D01*
X106073872Y-76428855D01*
X106091025Y-76434111D01*
X106101967Y-76437398D01*
X106105482Y-76438388D01*
X106114236Y-76441823D01*
X106118556Y-76445719D01*
X106117712Y-76450482D01*
X106114502Y-76461852D01*
X106109224Y-76478893D01*
X106102181Y-76500667D01*
X106093672Y-76526240D01*
X106083999Y-76554673D01*
X106078226Y-76571377D01*
X106067969Y-76601062D01*
X106058616Y-76628453D01*
X106050481Y-76652602D01*
X106043880Y-76672561D01*
X106039127Y-76687384D01*
X106036536Y-76696124D01*
X106036148Y-76697991D01*
X106038246Y-76703884D01*
X106039581Y-76704839D01*
X106043250Y-76707765D01*
X106052105Y-76715468D01*
X106065436Y-76727311D01*
X106082536Y-76742660D01*
X106102697Y-76760880D01*
X106125210Y-76781336D01*
X106143088Y-76797649D01*
X106243161Y-76889125D01*
X106245033Y-77399744D01*
X106245262Y-77462971D01*
X106245478Y-77523953D01*
X106245678Y-77582216D01*
X106245862Y-77637284D01*
X106246029Y-77688683D01*
X106246176Y-77735938D01*
X106246302Y-77778574D01*
X106246406Y-77816117D01*
X106246487Y-77848092D01*
X106246543Y-77874024D01*
X106246573Y-77893439D01*
X106246575Y-77905861D01*
X106246549Y-77910816D01*
X106246543Y-77910886D01*
X106242644Y-77911314D01*
X106232064Y-77912171D01*
X106216109Y-77913360D01*
X106196083Y-77914782D01*
X106178170Y-77916012D01*
X106082837Y-77924117D01*
X105993710Y-77935281D01*
X105909469Y-77949846D01*
X105828795Y-77968153D01*
X105750367Y-77990545D01*
X105672866Y-78017363D01*
X105594972Y-78048951D01*
X105515365Y-78085650D01*
X105506064Y-78090201D01*
X105482821Y-78101560D01*
X105461479Y-78111836D01*
X105443269Y-78120451D01*
X105429422Y-78126822D01*
X105421171Y-78130369D01*
X105420051Y-78130771D01*
X105409340Y-78132431D01*
X105391889Y-78133055D01*
X105368883Y-78132682D01*
X105341509Y-78131355D01*
X105310956Y-78129111D01*
X105278408Y-78125992D01*
X105278028Y-78125952D01*
X105174092Y-78110839D01*
X105072130Y-78088095D01*
X104972512Y-78057927D01*
X104875610Y-78020544D01*
X104781795Y-77976153D01*
X104691440Y-77924962D01*
X104604916Y-77867180D01*
X104522594Y-77803014D01*
X104444846Y-77732672D01*
X104372043Y-77656362D01*
X104313819Y-77586312D01*
X104299723Y-77567885D01*
X104285456Y-77548673D01*
X104272841Y-77531158D01*
X104264881Y-77519615D01*
X104247109Y-77492924D01*
X104216483Y-77506051D01*
X104128815Y-77547953D01*
X104045052Y-77596775D01*
X103965445Y-77652316D01*
X103890244Y-77714377D01*
X103819703Y-77782760D01*
X103754072Y-77857263D01*
X103722133Y-77898138D01*
X103678200Y-77961971D01*
X103637252Y-78031958D01*
X103600042Y-78106571D01*
X103567322Y-78184280D01*
X103539846Y-78263555D01*
X103535962Y-78276367D01*
X103531065Y-78293225D01*
X103527295Y-78306929D01*
X103525080Y-78315877D01*
X103524718Y-78318538D01*
X103528295Y-78320578D01*
X103538295Y-78326198D01*
X103554152Y-78335082D01*
X103575303Y-78346915D01*
X103601180Y-78361380D01*
X103631220Y-78378163D01*
X103664856Y-78396945D01*
X103701524Y-78417413D01*
X103740657Y-78439249D01*
X103767790Y-78454385D01*
X103809718Y-78477775D01*
X103850672Y-78500628D01*
X103889940Y-78522547D01*
X103926812Y-78543136D01*
X103960580Y-78561998D01*
X103990532Y-78578736D01*
X104015958Y-78592953D01*
X104036149Y-78604254D01*
X104050394Y-78612240D01*
X104054819Y-78614729D01*
X104099810Y-78640070D01*
X104322862Y-78634518D01*
X104367160Y-78633405D01*
X104411279Y-78632276D01*
X104454156Y-78631161D01*
X104494729Y-78630088D01*
X104531934Y-78629085D01*
X104564709Y-78628181D01*
X104591991Y-78627404D01*
X104612718Y-78626783D01*
X104618342Y-78626603D01*
X104690771Y-78624242D01*
X104631021Y-78683368D01*
X104585001Y-78730085D01*
X104544910Y-78773361D01*
X104509948Y-78814087D01*
X104481295Y-78850511D01*
X104423875Y-78933183D01*
X104373087Y-79019504D01*
X104328836Y-79109723D01*
X104291029Y-79204090D01*
X104259569Y-79302854D01*
X104234364Y-79406266D01*
X104215319Y-79514573D01*
X104207850Y-79572624D01*
X104203036Y-79626333D01*
X104199944Y-79685937D01*
X104198553Y-79749521D01*
X104198840Y-79815172D01*
X104200785Y-79880977D01*
X104204365Y-79945020D01*
X104209558Y-80005388D01*
X104213122Y-80036554D01*
X104210835Y-80040631D01*
X104202164Y-80043811D01*
X104191857Y-80045712D01*
X104185419Y-80046652D01*
X104171514Y-80048662D01*
X104150595Y-80051679D01*
X104123113Y-80055635D01*
X104089523Y-80060467D01*
X104050276Y-80066109D01*
X104005826Y-80072497D01*
X103956626Y-80079565D01*
X103903128Y-80087248D01*
X103845785Y-80095481D01*
X103785051Y-80104199D01*
X103721377Y-80113337D01*
X103655217Y-80122830D01*
X103587024Y-80132613D01*
X103571759Y-80134803D01*
X103503473Y-80144602D01*
X103437302Y-80154105D01*
X103373683Y-80163250D01*
X103313055Y-80171974D01*
X103255855Y-80180212D01*
X103202521Y-80187901D01*
X103153491Y-80194979D01*
X103109202Y-80201383D01*
X103070093Y-80207048D01*
X103036601Y-80211911D01*
X103009164Y-80215910D01*
X102988220Y-80218981D01*
X102974206Y-80221061D01*
X102967561Y-80222087D01*
X102967093Y-80222173D01*
X102962778Y-80224645D01*
X102952411Y-80231283D01*
X102936534Y-80241725D01*
X102915688Y-80255605D01*
X102890416Y-80272559D01*
X102861259Y-80292223D01*
X102828760Y-80314232D01*
X102793460Y-80338221D01*
X102755902Y-80363827D01*
X102725055Y-80384916D01*
X102680114Y-80415674D01*
X102632447Y-80448299D01*
X102583220Y-80481991D01*
X102533600Y-80515951D01*
X102484753Y-80549382D01*
X102437846Y-80581485D01*
X102394047Y-80611460D01*
X102354522Y-80638510D01*
X102320562Y-80661750D01*
X102278492Y-80690647D01*
X102242883Y-80715342D01*
X102213497Y-80736009D01*
X102190095Y-80752820D01*
X102172440Y-80765949D01*
X102160293Y-80775569D01*
X102153417Y-80781853D01*
X102151536Y-80784756D01*
X102151119Y-80789521D01*
X102149901Y-80801794D01*
X102147927Y-80821129D01*
X102145245Y-80847079D01*
X102141903Y-80879197D01*
X102137946Y-80917034D01*
X102133423Y-80960145D01*
X102128379Y-81008081D01*
X102122862Y-81060397D01*
X102116920Y-81116644D01*
X102110598Y-81176376D01*
X102103944Y-81239144D01*
X102097005Y-81304503D01*
X102089828Y-81372005D01*
X102089452Y-81375545D01*
X102081990Y-81445669D01*
X102074586Y-81515245D01*
X102067303Y-81583689D01*
X102060203Y-81650419D01*
X102053347Y-81714853D01*
X102046797Y-81776406D01*
X102040616Y-81834498D01*
X102034865Y-81888545D01*
X102029606Y-81937964D01*
X102024902Y-81982173D01*
X102020815Y-82020589D01*
X102017406Y-82052630D01*
X102014737Y-82077712D01*
X102013321Y-82091021D01*
X102009754Y-82124477D01*
X102006278Y-82156962D01*
X102003029Y-82187204D01*
X102000144Y-82213934D01*
X101997760Y-82235882D01*
X101996015Y-82251776D01*
X101995425Y-82257047D01*
X101993525Y-82273317D01*
X101992205Y-82286534D01*
X101991877Y-82297743D01*
X101992953Y-82307986D01*
X101995843Y-82318307D01*
X102000960Y-82329748D01*
X102008714Y-82343352D01*
X102019516Y-82360164D01*
X102033779Y-82381225D01*
X102051914Y-82407579D01*
X102058657Y-82417381D01*
X102078737Y-82446628D01*
X102102006Y-82480567D01*
X102127148Y-82517276D01*
X102152846Y-82554832D01*
X102177787Y-82591314D01*
X102200654Y-82624800D01*
X102203592Y-82629106D01*
X102218683Y-82651218D01*
X102237105Y-82678200D01*
X102258541Y-82709586D01*
X102282669Y-82744907D01*
X102309170Y-82783696D01*
X102337726Y-82825487D01*
X102368017Y-82869812D01*
X102399723Y-82916203D01*
X102432524Y-82964195D01*
X102466103Y-83013318D01*
X102500138Y-83063107D01*
X102534310Y-83113094D01*
X102568301Y-83162812D01*
X102601791Y-83211793D01*
X102634460Y-83259570D01*
X102665988Y-83305677D01*
X102696058Y-83349646D01*
X102724348Y-83391009D01*
X102750539Y-83429300D01*
X102774313Y-83464051D01*
X102795350Y-83494796D01*
X102813330Y-83521066D01*
X102827933Y-83542394D01*
X102838842Y-83558315D01*
X102845735Y-83568359D01*
X102847730Y-83571254D01*
X102855998Y-83583242D01*
X102868141Y-83600909D01*
X102883726Y-83623623D01*
X102902322Y-83650752D01*
X102923496Y-83681664D01*
X102946817Y-83715728D01*
X102971854Y-83752311D01*
X102998173Y-83790783D01*
X103025344Y-83830511D01*
X103052934Y-83870864D01*
X103080512Y-83911210D01*
X103107646Y-83950917D01*
X103133904Y-83989353D01*
X103158853Y-84025887D01*
X103182063Y-84059887D01*
X103203101Y-84090722D01*
X103221536Y-84117759D01*
X103236936Y-84140366D01*
X103248868Y-84157913D01*
X103256901Y-84169767D01*
X103259086Y-84173012D01*
X103271621Y-84191387D01*
X103280526Y-84203589D01*
X103286359Y-84210261D01*
X103289681Y-84212046D01*
X103291032Y-84209723D01*
X103291445Y-84204346D01*
X103292224Y-84191628D01*
X103293333Y-84172218D01*
X103294737Y-84146765D01*
X103296402Y-84115920D01*
X103298294Y-84080332D01*
X103300376Y-84040651D01*
X103302615Y-83997526D01*
X103304976Y-83951607D01*
X103307241Y-83907139D01*
X103309695Y-83859406D01*
X103312094Y-83814014D01*
X103314399Y-83771592D01*
X103316573Y-83732772D01*
X103318579Y-83698186D01*
X103320380Y-83668466D01*
X103321939Y-83644243D01*
X103323217Y-83626149D01*
X103324178Y-83614815D01*
X103324763Y-83610884D01*
X103325690Y-83610648D01*
X103327694Y-83611133D01*
X103331172Y-83612565D01*
X103336523Y-83615172D01*
X103344144Y-83619183D01*
X103354433Y-83624823D01*
X103367788Y-83632321D01*
X103384606Y-83641903D01*
X103405284Y-83653798D01*
X103430221Y-83668232D01*
X103459815Y-83685433D01*
X103494462Y-83705628D01*
X103534561Y-83729045D01*
X103580509Y-83755912D01*
X103632704Y-83786454D01*
X103669775Y-83808155D01*
X103734429Y-83846005D01*
X103802869Y-83886067D01*
X103874005Y-83927702D01*
X103946747Y-83970274D01*
X104020006Y-84013145D01*
X104092693Y-84055678D01*
X104163718Y-84097234D01*
X104231992Y-84137178D01*
X104296426Y-84174870D01*
X104355930Y-84209674D01*
X104399890Y-84235383D01*
X104471200Y-84277084D01*
X104535932Y-84314939D01*
X104594412Y-84349140D01*
X104646969Y-84379878D01*
X104693930Y-84407346D01*
X104735625Y-84431736D01*
X104772381Y-84453238D01*
X104804527Y-84472046D01*
X104832389Y-84488352D01*
X104856297Y-84502346D01*
X104876579Y-84514222D01*
X104893562Y-84524171D01*
X104907575Y-84532385D01*
X104907970Y-84532616D01*
X104927676Y-84544165D01*
X104952596Y-84558756D01*
X104981033Y-84575397D01*
X105011293Y-84593097D01*
X105041678Y-84610864D01*
X105064624Y-84624275D01*
X105094281Y-84641696D01*
X105117783Y-84655755D01*
X105135952Y-84667009D01*
X105149608Y-84676015D01*
X105159572Y-84683331D01*
X105166666Y-84689515D01*
X105171710Y-84695122D01*
X105174248Y-84698675D01*
X105180469Y-84707737D01*
X105190356Y-84721633D01*
X105202777Y-84738792D01*
X105216601Y-84757647D01*
X105223924Y-84767541D01*
X105285853Y-84847010D01*
X105349718Y-84921383D01*
X105415057Y-84990237D01*
X105481411Y-85053153D01*
X105548316Y-85109710D01*
X105615312Y-85159487D01*
X105681937Y-85202064D01*
X105728413Y-85227514D01*
X105803396Y-85262429D01*
X105884287Y-85294108D01*
X105969475Y-85322050D01*
X106057349Y-85345756D01*
X106146299Y-85364726D01*
X106199173Y-85373576D01*
X106232178Y-85378517D01*
X106232178Y-85978122D01*
X106232172Y-86046712D01*
X106232153Y-86113086D01*
X106232122Y-86176806D01*
X106232079Y-86237436D01*
X106232027Y-86294537D01*
X106231964Y-86347672D01*
X106231893Y-86396404D01*
X106231814Y-86440295D01*
X106231727Y-86478908D01*
X106231633Y-86511805D01*
X106231533Y-86538548D01*
X106231428Y-86558701D01*
X106231318Y-86571827D01*
X106231204Y-86577486D01*
X106231178Y-86577686D01*
X106227728Y-86575552D01*
X106218377Y-86569510D01*
X106203900Y-86560065D01*
X106185070Y-86547724D01*
X106162659Y-86532993D01*
X106137440Y-86516379D01*
X106116160Y-86502334D01*
X106095169Y-86488465D01*
X106068242Y-86470667D01*
X106036118Y-86449428D01*
X105999535Y-86425236D01*
X105959228Y-86398579D01*
X105915937Y-86369944D01*
X105870398Y-86339819D01*
X105823348Y-86308692D01*
X105775525Y-86277051D01*
X105727667Y-86245383D01*
X105700095Y-86227137D01*
X105647072Y-86192050D01*
X105589639Y-86154048D01*
X105529043Y-86113956D01*
X105466530Y-86072600D01*
X105403349Y-86030803D01*
X105340744Y-85989391D01*
X105279964Y-85949188D01*
X105222255Y-85911019D01*
X105168864Y-85875710D01*
X105126077Y-85847417D01*
X105079014Y-85816296D01*
X105030163Y-85783988D01*
X104980485Y-85751131D01*
X104930944Y-85718361D01*
X104882503Y-85686316D01*
X104836126Y-85655633D01*
X104792775Y-85626949D01*
X104753413Y-85600901D01*
X104719004Y-85578126D01*
X104696009Y-85562902D01*
X104600088Y-85499389D01*
X104510614Y-85440146D01*
X104427361Y-85385024D01*
X104350105Y-85333877D01*
X104278622Y-85286554D01*
X104212685Y-85242910D01*
X104152071Y-85202795D01*
X104096554Y-85166062D01*
X104045911Y-85132563D01*
X103999915Y-85102150D01*
X103958343Y-85074675D01*
X103920969Y-85049990D01*
X103887568Y-85027947D01*
X103857917Y-85008398D01*
X103831789Y-84991195D01*
X103808961Y-84976190D01*
X103789207Y-84963235D01*
X103772302Y-84952183D01*
X103758023Y-84942885D01*
X103746143Y-84935193D01*
X103736439Y-84928960D01*
X103728685Y-84924037D01*
X103722656Y-84920276D01*
X103718129Y-84917531D01*
X103714877Y-84915651D01*
X103712676Y-84914490D01*
X103711302Y-84913900D01*
X103710530Y-84913733D01*
X103710134Y-84913840D01*
X103710003Y-84913954D01*
X103709427Y-84918065D01*
X103708158Y-84929597D01*
X103706250Y-84948006D01*
X103703755Y-84972748D01*
X103700728Y-85003277D01*
X103697221Y-85039049D01*
X103693288Y-85079519D01*
X103688981Y-85124142D01*
X103684355Y-85172374D01*
X103679463Y-85223670D01*
X103674358Y-85277486D01*
X103672113Y-85301232D01*
X103666934Y-85355958D01*
X103661947Y-85408395D01*
X103657207Y-85457999D01*
X103652765Y-85504226D01*
X103648676Y-85546531D01*
X103644991Y-85584371D01*
X103641765Y-85617200D01*
X103639050Y-85644474D01*
X103636899Y-85665649D01*
X103635366Y-85680181D01*
X103634504Y-85687525D01*
X103634352Y-85688338D01*
X103631989Y-85685252D01*
X103625395Y-85675920D01*
X103614830Y-85660722D01*
X103600553Y-85640035D01*
X103582823Y-85614239D01*
X103561898Y-85583710D01*
X103538036Y-85548828D01*
X103511498Y-85509972D01*
X103482540Y-85467519D01*
X103451423Y-85421848D01*
X103418405Y-85373337D01*
X103383744Y-85322365D01*
X103347700Y-85269310D01*
X103326824Y-85238561D01*
X103285362Y-85177476D01*
X103242086Y-85113718D01*
X103197542Y-85048096D01*
X103152279Y-84981415D01*
X103106845Y-84914484D01*
X103061787Y-84848108D01*
X103017654Y-84783096D01*
X102974993Y-84720254D01*
X102934352Y-84660389D01*
X102896279Y-84604308D01*
X102861322Y-84552819D01*
X102830029Y-84506729D01*
X102815546Y-84485398D01*
X102781469Y-84435209D01*
X102743674Y-84379538D01*
X102702933Y-84319525D01*
X102660021Y-84256308D01*
X102615709Y-84191029D01*
X102570773Y-84124825D01*
X102525984Y-84058837D01*
X102482117Y-83994204D01*
X102439946Y-83932066D01*
X102400242Y-83873560D01*
X102378348Y-83841297D01*
X102345960Y-83793571D01*
X102314513Y-83747242D01*
X102284341Y-83702798D01*
X102255774Y-83660728D01*
X102229145Y-83621521D01*
X102204786Y-83585664D01*
X102183029Y-83553648D01*
X102164206Y-83525959D01*
X102148648Y-83503087D01*
X102136687Y-83485520D01*
X102128656Y-83473747D01*
X102125566Y-83469238D01*
X102118659Y-83459148D01*
X102107907Y-83443360D01*
X102093944Y-83422807D01*
X102077402Y-83398422D01*
X102058915Y-83371138D01*
X102039116Y-83341889D01*
X102018637Y-83311607D01*
X102015667Y-83307213D01*
X101995943Y-83278080D01*
X101977477Y-83250901D01*
X101960778Y-83226420D01*
X101946357Y-83205380D01*
X101934724Y-83188525D01*
X101926390Y-83176600D01*
X101921864Y-83170348D01*
X101921331Y-83169696D01*
X101920259Y-83168356D01*
X101919296Y-83167246D01*
X101918177Y-83166806D01*
X101916636Y-83167480D01*
X101914409Y-83169709D01*
X101911232Y-83173936D01*
X101906839Y-83180603D01*
X101900965Y-83190152D01*
X101893345Y-83203025D01*
X101883715Y-83219665D01*
X101871810Y-83240512D01*
X101857364Y-83266011D01*
X101840113Y-83296602D01*
X101819792Y-83332729D01*
X101796136Y-83374832D01*
X101768880Y-83423355D01*
X101761627Y-83436267D01*
X101738965Y-83476549D01*
X101717454Y-83514685D01*
X101697411Y-83550116D01*
X101679155Y-83582283D01*
X101663005Y-83610630D01*
X101649279Y-83634597D01*
X101638295Y-83653626D01*
X101630372Y-83667159D01*
X101625829Y-83674638D01*
X101624836Y-83675987D01*
X101624200Y-83673031D01*
X101622835Y-83664597D01*
X101620714Y-83650496D01*
X101617810Y-83630541D01*
X101614097Y-83604542D01*
X101609549Y-83572312D01*
X101604139Y-83533663D01*
X101597842Y-83488406D01*
X101590632Y-83436354D01*
X101582481Y-83377319D01*
X101573364Y-83311111D01*
X101563254Y-83237544D01*
X101552126Y-83156429D01*
X101539953Y-83067577D01*
X101539624Y-83065174D01*
X101534054Y-83024546D01*
X101528698Y-82985565D01*
X101523675Y-82949098D01*
X101519105Y-82916010D01*
X101515107Y-82887165D01*
X101511802Y-82863429D01*
X101509309Y-82845666D01*
X101507748Y-82834743D01*
X101507510Y-82833138D01*
X101505686Y-82820583D01*
X101503057Y-82801975D01*
X101499887Y-82779187D01*
X101496435Y-82754097D01*
X101493578Y-82733122D01*
X101490266Y-82708761D01*
X101486000Y-82677505D01*
X101480922Y-82640389D01*
X101475173Y-82598443D01*
X101468896Y-82552700D01*
X101462233Y-82504193D01*
X101455326Y-82453953D01*
X101448315Y-82403012D01*
X101441345Y-82352403D01*
X101434555Y-82303159D01*
X101428089Y-82256311D01*
X101422089Y-82212891D01*
X101416695Y-82173931D01*
X101415461Y-82165033D01*
X101412960Y-82146960D01*
X101409453Y-82121552D01*
X101405019Y-82089400D01*
X101399742Y-82051097D01*
X101393701Y-82007234D01*
X101386980Y-81958401D01*
X101379658Y-81905193D01*
X101371819Y-81848198D01*
X101363542Y-81788011D01*
X101354909Y-81725221D01*
X101346002Y-81660422D01*
X101336902Y-81594204D01*
X101327691Y-81527159D01*
X101325462Y-81510930D01*
X101316450Y-81445336D01*
X101307664Y-81381422D01*
X101299174Y-81319690D01*
X101291049Y-81260641D01*
X101283359Y-81204777D01*
X101276172Y-81152601D01*
X101269557Y-81104613D01*
X101263584Y-81061317D01*
X101258322Y-81023213D01*
X101253840Y-80990804D01*
X101250208Y-80964592D01*
X101247494Y-80945078D01*
X101245768Y-80932765D01*
X101245333Y-80929717D01*
X101242809Y-80911130D01*
X101240818Y-80894340D01*
X101239666Y-80882147D01*
X101427013Y-80882147D01*
X101427281Y-80889824D01*
X101427979Y-80899795D01*
X101429163Y-80912524D01*
X101430888Y-80928474D01*
X101433210Y-80948110D01*
X101436182Y-80971896D01*
X101439861Y-81000295D01*
X101444302Y-81033772D01*
X101449559Y-81072792D01*
X101455688Y-81117816D01*
X101462744Y-81169311D01*
X101470782Y-81227740D01*
X101479856Y-81293566D01*
X101481180Y-81303162D01*
X101490284Y-81369162D01*
X101499936Y-81439162D01*
X101509971Y-81511959D01*
X101520222Y-81586344D01*
X101530524Y-81661113D01*
X101540710Y-81735060D01*
X101550615Y-81806979D01*
X101560072Y-81875664D01*
X101568915Y-81939910D01*
X101576978Y-81998510D01*
X101583374Y-82045014D01*
X101590709Y-82098354D01*
X101598085Y-82151976D01*
X101605377Y-82204973D01*
X101612460Y-82256437D01*
X101619209Y-82305460D01*
X101625499Y-82351135D01*
X101631206Y-82392554D01*
X101636203Y-82428811D01*
X101640367Y-82458997D01*
X101643573Y-82482205D01*
X101643694Y-82483083D01*
X101648608Y-82518655D01*
X101653907Y-82557065D01*
X101659278Y-82596040D01*
X101664408Y-82633304D01*
X101668983Y-82666583D01*
X101671801Y-82687115D01*
X101675915Y-82717076D01*
X101680223Y-82748365D01*
X101684413Y-82778719D01*
X101688172Y-82805874D01*
X101691188Y-82827564D01*
X101691407Y-82829137D01*
X101694071Y-82848386D01*
X101697544Y-82873746D01*
X101701579Y-82903395D01*
X101705930Y-82935513D01*
X101710347Y-82968279D01*
X101713420Y-82991163D01*
X101717348Y-83019976D01*
X101721084Y-83046432D01*
X101724461Y-83069419D01*
X101727311Y-83087826D01*
X101729467Y-83100541D01*
X101730762Y-83106451D01*
X101730776Y-83106487D01*
X101733634Y-83105751D01*
X101739876Y-83098185D01*
X101749304Y-83084112D01*
X101761718Y-83063857D01*
X101776919Y-83037742D01*
X101794709Y-83006092D01*
X101813831Y-82971183D01*
X101817048Y-82965376D01*
X101823534Y-82953770D01*
X101832633Y-82937535D01*
X101843688Y-82917843D01*
X101856041Y-82895867D01*
X101859416Y-82889867D01*
X101873558Y-82864955D01*
X101884434Y-82846394D01*
X101892533Y-82833467D01*
X101898340Y-82825459D01*
X101902344Y-82821654D01*
X101905031Y-82821335D01*
X101905696Y-82821857D01*
X101909224Y-82826485D01*
X101916576Y-82836816D01*
X101927106Y-82851917D01*
X101940166Y-82870855D01*
X101955111Y-82892698D01*
X101970372Y-82915151D01*
X102019747Y-82988017D01*
X102065469Y-83055470D01*
X102108363Y-83118726D01*
X102149255Y-83179000D01*
X102188970Y-83237511D01*
X102228333Y-83295473D01*
X102268169Y-83354104D01*
X102301560Y-83403228D01*
X102310312Y-83416107D01*
X102323119Y-83434960D01*
X102339540Y-83459139D01*
X102359137Y-83487997D01*
X102381470Y-83520888D01*
X102406100Y-83557163D01*
X102432587Y-83596177D01*
X102460493Y-83637283D01*
X102489378Y-83679832D01*
X102518802Y-83723178D01*
X102525658Y-83733280D01*
X102555147Y-83776719D01*
X102584200Y-83819512D01*
X102612378Y-83861011D01*
X102639241Y-83900568D01*
X102664350Y-83937537D01*
X102687266Y-83971271D01*
X102707549Y-84001122D01*
X102724759Y-84026444D01*
X102738457Y-84046590D01*
X102748204Y-84060912D01*
X102749852Y-84063332D01*
X102760428Y-84078867D01*
X102774852Y-84100078D01*
X102792484Y-84126022D01*
X102812681Y-84155751D01*
X102834801Y-84188322D01*
X102858202Y-84222788D01*
X102882242Y-84258206D01*
X102906208Y-84293524D01*
X102925234Y-84321565D01*
X102948239Y-84355469D01*
X102974706Y-84394474D01*
X103004122Y-84437824D01*
X103035972Y-84484759D01*
X103069740Y-84534520D01*
X103104911Y-84586349D01*
X103140971Y-84639486D01*
X103177404Y-84693173D01*
X103213696Y-84746651D01*
X103249332Y-84799160D01*
X103259691Y-84814425D01*
X103291996Y-84861967D01*
X103323054Y-84907558D01*
X103352570Y-84950772D01*
X103380248Y-84991182D01*
X103405795Y-85028361D01*
X103428915Y-85061883D01*
X103449313Y-85091320D01*
X103466694Y-85116246D01*
X103480763Y-85136235D01*
X103491225Y-85150858D01*
X103497786Y-85159690D01*
X103500140Y-85162324D01*
X103500909Y-85157962D01*
X103502332Y-85146288D01*
X103504343Y-85127960D01*
X103506878Y-85103634D01*
X103509869Y-85073967D01*
X103513251Y-85039616D01*
X103516959Y-85001239D01*
X103520926Y-84959492D01*
X103525087Y-84915032D01*
X103527453Y-84889462D01*
X103531717Y-84843402D01*
X103535830Y-84799402D01*
X103539723Y-84758155D01*
X103543331Y-84720356D01*
X103546584Y-84686699D01*
X103549417Y-84657878D01*
X103551761Y-84634589D01*
X103553549Y-84617526D01*
X103554714Y-84607383D01*
X103555046Y-84605101D01*
X103557757Y-84590783D01*
X103647771Y-84650316D01*
X103671842Y-84666237D01*
X103701202Y-84685660D01*
X103734470Y-84707670D01*
X103770263Y-84731353D01*
X103807198Y-84755794D01*
X103843894Y-84780078D01*
X103878968Y-84803291D01*
X103881808Y-84805170D01*
X103981535Y-84871170D01*
X104080732Y-84936812D01*
X104180418Y-85002767D01*
X104281610Y-85069710D01*
X104385325Y-85138313D01*
X104492580Y-85209249D01*
X104604392Y-85283191D01*
X104721779Y-85360812D01*
X104731942Y-85367532D01*
X104765858Y-85389959D01*
X104804518Y-85415526D01*
X104845992Y-85442957D01*
X104888352Y-85470975D01*
X104929669Y-85498306D01*
X104968014Y-85523674D01*
X104985982Y-85535562D01*
X105052531Y-85579592D01*
X105112852Y-85619501D01*
X105167388Y-85655580D01*
X105216584Y-85688124D01*
X105260883Y-85717426D01*
X105300730Y-85743779D01*
X105336567Y-85767478D01*
X105368840Y-85788816D01*
X105397992Y-85808086D01*
X105424466Y-85825581D01*
X105448707Y-85841597D01*
X105471159Y-85856425D01*
X105482060Y-85863623D01*
X105518836Y-85887910D01*
X105557837Y-85913680D01*
X105598506Y-85940564D01*
X105640289Y-85968196D01*
X105682630Y-85996206D01*
X105724974Y-86024227D01*
X105766765Y-86051891D01*
X105807448Y-86078830D01*
X105846468Y-86104677D01*
X105883269Y-86129063D01*
X105917296Y-86151620D01*
X105947992Y-86171981D01*
X105974804Y-86189778D01*
X105997176Y-86204642D01*
X106014551Y-86216206D01*
X106026375Y-86224102D01*
X106032092Y-86227962D01*
X106032147Y-86228000D01*
X106046149Y-86237742D01*
X106047171Y-85887008D01*
X106047307Y-85834756D01*
X106047403Y-85784825D01*
X106047462Y-85737790D01*
X106047483Y-85694226D01*
X106047467Y-85654709D01*
X106047416Y-85619813D01*
X106047330Y-85590114D01*
X106047210Y-85566188D01*
X106047057Y-85548610D01*
X106046871Y-85537955D01*
X106046683Y-85534764D01*
X106042472Y-85533250D01*
X106031964Y-85530143D01*
X106016605Y-85525851D01*
X105997843Y-85520786D01*
X105991652Y-85519147D01*
X105898800Y-85492071D01*
X105807203Y-85460262D01*
X105717693Y-85424156D01*
X105631096Y-85384185D01*
X105548243Y-85340787D01*
X105469962Y-85294394D01*
X105397082Y-85245443D01*
X105330433Y-85194367D01*
X105270842Y-85141602D01*
X105269820Y-85140620D01*
X105224578Y-85093951D01*
X105181524Y-85043371D01*
X105142277Y-84990941D01*
X105108455Y-84938723D01*
X105100430Y-84924869D01*
X105094955Y-84915712D01*
X105089342Y-84908268D01*
X105082244Y-84901426D01*
X105072315Y-84894073D01*
X105058208Y-84885100D01*
X105038579Y-84873394D01*
X105036835Y-84872368D01*
X105022169Y-84863756D01*
X105001018Y-84851351D01*
X104973801Y-84835399D01*
X104940942Y-84816147D01*
X104902859Y-84793842D01*
X104859975Y-84768729D01*
X104812710Y-84741056D01*
X104761486Y-84711068D01*
X104706723Y-84679013D01*
X104648842Y-84645136D01*
X104588265Y-84609684D01*
X104525412Y-84572904D01*
X104460705Y-84535042D01*
X104394564Y-84496345D01*
X104327411Y-84457059D01*
X104303875Y-84443291D01*
X104260182Y-84417730D01*
X104215368Y-84391511D01*
X104170432Y-84365218D01*
X104126375Y-84339438D01*
X104084199Y-84314756D01*
X104044903Y-84291758D01*
X104009489Y-84271029D01*
X103978957Y-84253155D01*
X103954308Y-84238721D01*
X103953820Y-84238436D01*
X103886537Y-84199034D01*
X103825833Y-84163492D01*
X103771382Y-84131621D01*
X103722861Y-84103233D01*
X103679945Y-84078139D01*
X103642310Y-84056150D01*
X103609634Y-84037079D01*
X103581590Y-84020736D01*
X103557856Y-84006934D01*
X103538107Y-83995482D01*
X103522019Y-83986194D01*
X103509269Y-83978881D01*
X103499531Y-83973354D01*
X103492483Y-83969424D01*
X103487800Y-83966904D01*
X103485158Y-83965604D01*
X103484303Y-83965316D01*
X103483596Y-83969218D01*
X103482342Y-83980573D01*
X103480585Y-83998856D01*
X103478369Y-84023539D01*
X103475737Y-84054096D01*
X103472732Y-84090002D01*
X103469399Y-84130730D01*
X103465780Y-84175753D01*
X103461921Y-84224547D01*
X103457863Y-84276583D01*
X103453652Y-84331337D01*
X103450228Y-84376381D01*
X103445910Y-84433292D01*
X103441718Y-84488161D01*
X103437697Y-84540436D01*
X103433888Y-84589565D01*
X103430337Y-84634995D01*
X103427087Y-84676172D01*
X103424182Y-84712546D01*
X103421666Y-84743562D01*
X103419582Y-84768669D01*
X103417975Y-84787315D01*
X103416888Y-84798945D01*
X103416441Y-84802722D01*
X103413735Y-84817998D01*
X103266437Y-84598690D01*
X103237878Y-84556172D01*
X103205721Y-84508304D01*
X103170833Y-84456376D01*
X103134081Y-84401677D01*
X103096331Y-84345498D01*
X103058450Y-84289127D01*
X103021305Y-84233855D01*
X102985762Y-84180972D01*
X102952689Y-84131767D01*
X102947024Y-84123341D01*
X102914009Y-84074219D01*
X102878000Y-84020627D01*
X102839917Y-83963937D01*
X102800682Y-83905520D01*
X102761216Y-83846747D01*
X102722439Y-83788991D01*
X102685274Y-83733623D01*
X102650640Y-83682015D01*
X102619460Y-83635539D01*
X102616593Y-83631264D01*
X102588845Y-83589903D01*
X102561203Y-83548716D01*
X102534181Y-83508470D01*
X102508294Y-83469930D01*
X102484056Y-83433860D01*
X102461981Y-83401027D01*
X102442585Y-83372196D01*
X102426381Y-83348133D01*
X102413884Y-83329602D01*
X102409568Y-83323215D01*
X102395880Y-83302951D01*
X102378612Y-83277344D01*
X102358643Y-83247698D01*
X102336848Y-83215316D01*
X102314105Y-83181500D01*
X102291291Y-83147555D01*
X102270894Y-83117183D01*
X102238957Y-83069613D01*
X102203944Y-83017474D01*
X102165679Y-82960504D01*
X102123983Y-82898439D01*
X102078681Y-82831015D01*
X102029594Y-82757968D01*
X101976547Y-82679035D01*
X101919361Y-82593953D01*
X101867057Y-82516139D01*
X101768263Y-82369168D01*
X101835933Y-81808028D01*
X101844645Y-81735783D01*
X101853562Y-81661838D01*
X101862587Y-81586997D01*
X101871624Y-81512060D01*
X101880575Y-81437831D01*
X101889344Y-81365113D01*
X101897834Y-81294706D01*
X101905949Y-81227416D01*
X101913591Y-81164042D01*
X101920664Y-81105389D01*
X101927070Y-81052258D01*
X101932714Y-81005452D01*
X101937499Y-80965774D01*
X101937573Y-80965159D01*
X101943198Y-80918616D01*
X101948558Y-80874452D01*
X101953577Y-80833300D01*
X101958175Y-80795794D01*
X101962274Y-80762568D01*
X101965795Y-80734256D01*
X101968661Y-80711491D01*
X101970793Y-80694906D01*
X101972112Y-80685137D01*
X101972526Y-80682656D01*
X101975849Y-80680296D01*
X101985330Y-80673579D01*
X102000598Y-80662768D01*
X102021280Y-80648128D01*
X102047003Y-80629922D01*
X102077395Y-80608414D01*
X102112082Y-80583867D01*
X102150692Y-80556546D01*
X102192852Y-80526714D01*
X102238189Y-80494635D01*
X102286332Y-80460572D01*
X102336906Y-80424790D01*
X102389539Y-80387552D01*
X102425579Y-80362055D01*
X102877650Y-80042228D01*
X103017672Y-80023645D01*
X103134186Y-80008164D01*
X103242832Y-79993693D01*
X103343679Y-79980222D01*
X103436796Y-79967742D01*
X103522249Y-79956243D01*
X103600109Y-79945716D01*
X103670443Y-79936151D01*
X103733321Y-79927539D01*
X103788809Y-79919871D01*
X103836977Y-79913137D01*
X103877894Y-79907327D01*
X103911627Y-79902433D01*
X103938245Y-79898444D01*
X103957817Y-79895352D01*
X103970410Y-79893147D01*
X103976094Y-79891819D01*
X103976453Y-79891610D01*
X103977402Y-79886311D01*
X103978264Y-79874519D01*
X103978967Y-79857746D01*
X103979437Y-79837502D01*
X103979558Y-79827028D01*
X103983726Y-79711689D01*
X103994315Y-79598786D01*
X104011202Y-79488739D01*
X104034265Y-79381967D01*
X104063384Y-79278891D01*
X104098435Y-79179931D01*
X104139299Y-79085507D01*
X104185851Y-78996039D01*
X104237972Y-78911947D01*
X104249772Y-78894783D01*
X104262097Y-78877353D01*
X104273671Y-78861299D01*
X104283272Y-78848296D01*
X104289678Y-78840018D01*
X104290131Y-78839473D01*
X104296455Y-78831309D01*
X104299743Y-78825798D01*
X104299875Y-78825200D01*
X104296035Y-78824538D01*
X104285151Y-78823935D01*
X104268183Y-78823412D01*
X104246087Y-78822989D01*
X104219823Y-78822687D01*
X104190348Y-78822527D01*
X104174856Y-78822506D01*
X104049835Y-78822506D01*
X103897811Y-78737018D01*
X103852564Y-78711586D01*
X103805970Y-78685420D01*
X103758624Y-78658852D01*
X103711122Y-78632215D01*
X103664059Y-78605842D01*
X103618030Y-78580067D01*
X103573632Y-78555222D01*
X103531460Y-78531640D01*
X103492110Y-78509655D01*
X103456177Y-78489600D01*
X103424257Y-78471808D01*
X103396946Y-78456611D01*
X103374839Y-78444343D01*
X103358532Y-78435337D01*
X103348792Y-78430018D01*
X103332661Y-78420477D01*
X103322782Y-78412690D01*
X103319788Y-78407615D01*
X103320659Y-78399613D01*
X103323149Y-78385283D01*
X103326945Y-78366058D01*
X103331730Y-78343375D01*
X103337192Y-78318669D01*
X103343014Y-78293374D01*
X103348884Y-78268927D01*
X103354486Y-78246762D01*
X103357541Y-78235328D01*
X103385074Y-78148223D01*
X103419805Y-78060794D01*
X103461108Y-77974388D01*
X103508356Y-77890352D01*
X103544164Y-77834351D01*
X103577933Y-77786169D01*
X103611996Y-77741839D01*
X103648222Y-77699104D01*
X103688480Y-77655706D01*
X103711666Y-77632091D01*
X103786203Y-77562397D01*
X103864044Y-77499511D01*
X103945931Y-77442934D01*
X104032602Y-77392169D01*
X104124797Y-77346719D01*
X104156907Y-77332654D01*
X104175128Y-77325234D01*
X104196568Y-77317025D01*
X104220029Y-77308431D01*
X104244309Y-77299854D01*
X104268209Y-77291696D01*
X104290530Y-77284361D01*
X104310070Y-77278251D01*
X104325631Y-77273769D01*
X104336012Y-77271318D01*
X104339965Y-77271211D01*
X104342455Y-77275892D01*
X104347343Y-77286408D01*
X104353928Y-77301213D01*
X104361513Y-77318765D01*
X104361746Y-77319311D01*
X104375391Y-77348827D01*
X104391004Y-77377497D01*
X104409227Y-77406164D01*
X104430702Y-77435668D01*
X104456072Y-77466852D01*
X104485978Y-77500557D01*
X104521065Y-77537623D01*
X104553537Y-77570505D01*
X104633528Y-77646338D01*
X104713932Y-77714680D01*
X104794634Y-77775460D01*
X104875517Y-77828606D01*
X104956463Y-77874048D01*
X105037357Y-77911715D01*
X105118082Y-77941537D01*
X105198521Y-77963443D01*
X105202929Y-77964416D01*
X105235462Y-77970849D01*
X105269164Y-77976353D01*
X105301772Y-77980628D01*
X105331023Y-77983375D01*
X105353179Y-77984296D01*
X105367202Y-77983968D01*
X105378226Y-77982330D01*
X105389037Y-77978547D01*
X105402416Y-77971784D01*
X105411188Y-77966883D01*
X105504482Y-77918165D01*
X105601028Y-77875757D01*
X105699862Y-77839973D01*
X105800020Y-77811130D01*
X105900538Y-77789543D01*
X105992141Y-77776404D01*
X106011140Y-77774294D01*
X106028497Y-77772278D01*
X106041821Y-77770638D01*
X106047149Y-77769913D01*
X106060151Y-77767978D01*
X106060151Y-77368805D01*
X106060151Y-76969633D01*
X105979350Y-76895912D01*
X105956711Y-76875251D01*
X105934801Y-76855246D01*
X105914680Y-76836866D01*
X105897410Y-76821079D01*
X105884051Y-76808856D01*
X105876334Y-76801782D01*
X105862846Y-76789499D01*
X105849281Y-76777323D01*
X105839117Y-76768362D01*
X105830395Y-76759862D01*
X105824984Y-76752787D01*
X105824114Y-76750361D01*
X105825383Y-76745323D01*
X105828947Y-76733841D01*
X105834442Y-76717016D01*
X105841505Y-76695951D01*
X105849772Y-76671748D01*
X105855944Y-76653919D01*
X105864750Y-76628503D01*
X105872553Y-76605757D01*
X105879006Y-76586715D01*
X105883760Y-76572414D01*
X105886464Y-76563889D01*
X105886949Y-76561908D01*
X105883095Y-76560651D01*
X105872195Y-76557185D01*
X105854838Y-76551695D01*
X105831612Y-76544366D01*
X105803105Y-76535385D01*
X105769906Y-76524935D01*
X105732604Y-76513203D01*
X105691787Y-76500375D01*
X105648043Y-76486634D01*
X105601962Y-76472166D01*
X105596078Y-76470320D01*
X105545389Y-76454409D01*
X105493701Y-76438181D01*
X105442020Y-76421951D01*
X105391349Y-76406034D01*
X105342691Y-76390747D01*
X105297051Y-76376404D01*
X105255432Y-76363320D01*
X105218838Y-76351812D01*
X105188273Y-76342195D01*
X105173265Y-76337470D01*
X105040498Y-76295650D01*
X104977234Y-76323544D01*
X104962492Y-76330065D01*
X104941257Y-76339487D01*
X104914343Y-76351449D01*
X104882562Y-76365589D01*
X104846728Y-76381545D01*
X104807652Y-76398954D01*
X104766149Y-76417455D01*
X104723031Y-76436685D01*
X104679111Y-76456283D01*
X104665932Y-76462166D01*
X104617490Y-76483787D01*
X104566155Y-76506689D01*
X104513235Y-76530291D01*
X104460041Y-76554009D01*
X104407882Y-76577258D01*
X104358066Y-76599455D01*
X104311902Y-76620017D01*
X104270701Y-76638361D01*
X104242514Y-76650902D01*
X104067135Y-76728911D01*
X104058485Y-76721138D01*
X104053614Y-76716970D01*
X104043273Y-76708277D01*
X104028154Y-76695635D01*
X104008951Y-76679622D01*
X103986356Y-76660814D01*
X103961061Y-76639790D01*
X103933759Y-76617126D01*
X103919814Y-76605561D01*
X103858195Y-76554462D01*
X103791325Y-76498990D01*
X103720102Y-76439891D01*
X103645424Y-76377912D01*
X103568190Y-76313797D01*
X103489299Y-76248293D01*
X103409649Y-76182146D01*
X103364156Y-76144359D01*
X103331560Y-76117434D01*
X103302222Y-76093504D01*
X103276591Y-76072920D01*
X103255117Y-76056035D01*
X103238250Y-76043201D01*
X103226439Y-76034771D01*
X103220134Y-76031097D01*
X103219431Y-76030967D01*
X103216742Y-76031580D01*
X103210188Y-76033246D01*
X103199588Y-76036013D01*
X103184762Y-76039931D01*
X103165530Y-76045047D01*
X103141710Y-76051411D01*
X103113121Y-76059071D01*
X103079583Y-76068076D01*
X103040915Y-76078476D01*
X102996936Y-76090318D01*
X102947465Y-76103651D01*
X102892322Y-76118525D01*
X102831326Y-76134987D01*
X102764296Y-76153087D01*
X102691051Y-76172873D01*
X102611410Y-76194395D01*
X102525194Y-76217700D01*
X102432220Y-76242838D01*
X102332308Y-76269857D01*
X102225278Y-76298807D01*
X102110949Y-76329735D01*
X101989139Y-76362691D01*
X101945804Y-76374416D01*
X101908753Y-76384413D01*
X101873988Y-76393738D01*
X101842288Y-76402187D01*
X101814430Y-76409556D01*
X101791190Y-76415638D01*
X101773346Y-76420231D01*
X101761675Y-76423129D01*
X101756962Y-76424129D01*
X101752522Y-76427572D01*
X101748486Y-76435977D01*
X101748137Y-76437131D01*
X101746418Y-76443051D01*
X101742638Y-76456006D01*
X101736986Y-76475349D01*
X101729650Y-76500436D01*
X101720818Y-76530622D01*
X101710681Y-76565263D01*
X101699425Y-76603713D01*
X101687240Y-76645328D01*
X101674314Y-76689462D01*
X101663560Y-76726176D01*
X101649803Y-76773142D01*
X101636354Y-76819069D01*
X101623437Y-76863189D01*
X101611276Y-76904733D01*
X101600097Y-76942934D01*
X101590125Y-76977023D01*
X101581583Y-77006233D01*
X101574698Y-77029795D01*
X101569693Y-77046942D01*
X101567571Y-77054228D01*
X101562882Y-77070317D01*
X101556314Y-77092807D01*
X101548239Y-77120423D01*
X101539032Y-77151887D01*
X101529066Y-77185925D01*
X101518713Y-77221259D01*
X101509524Y-77252603D01*
X101466603Y-77398971D01*
X101512631Y-77498642D01*
X101523412Y-77521958D01*
X101537044Y-77551394D01*
X101553000Y-77585817D01*
X101570755Y-77624092D01*
X101589783Y-77665086D01*
X101609558Y-77707665D01*
X101629553Y-77750695D01*
X101649242Y-77793043D01*
X101654499Y-77804346D01*
X101699583Y-77901278D01*
X101741391Y-77991192D01*
X101780029Y-78074318D01*
X101815605Y-78150888D01*
X101848224Y-78221134D01*
X101877994Y-78285287D01*
X101905022Y-78343580D01*
X101929414Y-78396243D01*
X101951278Y-78443509D01*
X101970720Y-78485609D01*
X101987846Y-78522774D01*
X102002765Y-78555237D01*
X102015582Y-78583229D01*
X102026404Y-78606981D01*
X102035339Y-78626726D01*
X102042493Y-78642695D01*
X102047973Y-78655120D01*
X102051885Y-78664231D01*
X102054337Y-78670262D01*
X102055436Y-78673443D01*
X102055521Y-78673947D01*
X102055197Y-78675825D01*
X102054181Y-78680068D01*
X102052404Y-78686916D01*
X102049799Y-78696605D01*
X102046298Y-78709375D01*
X102041833Y-78725464D01*
X102036335Y-78745110D01*
X102029738Y-78768551D01*
X102021973Y-78796026D01*
X102012973Y-78827774D01*
X102002669Y-78864031D01*
X101990994Y-78905038D01*
X101977880Y-78951031D01*
X101963258Y-79002251D01*
X101947062Y-79058933D01*
X101929222Y-79121319D01*
X101909672Y-79189644D01*
X101888344Y-79264149D01*
X101865168Y-79345070D01*
X101840079Y-79432647D01*
X101813007Y-79527118D01*
X101783885Y-79628721D01*
X101752645Y-79737695D01*
X101741475Y-79776657D01*
X101727125Y-79826717D01*
X101710919Y-79883263D01*
X101693205Y-79945085D01*
X101674327Y-80010976D01*
X101654633Y-80079728D01*
X101634467Y-80150133D01*
X101614177Y-80220983D01*
X101594107Y-80291071D01*
X101574605Y-80359188D01*
X101556015Y-80424126D01*
X101545528Y-80460764D01*
X101529997Y-80515008D01*
X101514998Y-80567344D01*
X101500691Y-80617227D01*
X101487232Y-80664109D01*
X101474779Y-80707444D01*
X101463490Y-80746683D01*
X101453520Y-80781281D01*
X101445029Y-80810690D01*
X101438173Y-80834364D01*
X101433111Y-80851754D01*
X101429998Y-80862315D01*
X101429150Y-80865093D01*
X101428245Y-80868236D01*
X101427551Y-80871817D01*
X101427122Y-80876299D01*
X101427013Y-80882147D01*
X101239666Y-80882147D01*
X101239621Y-80881674D01*
X101239392Y-80876876D01*
X101240473Y-80870769D01*
X101243574Y-80857777D01*
X101248477Y-80838702D01*
X101254967Y-80814343D01*
X101262829Y-80785498D01*
X101271847Y-80752967D01*
X101281804Y-80717551D01*
X101292486Y-80680047D01*
X101293083Y-80677966D01*
X101303316Y-80642283D01*
X101315603Y-80599425D01*
X101329799Y-80549907D01*
X101345753Y-80494245D01*
X101363319Y-80432956D01*
X101382349Y-80366556D01*
X101402694Y-80295560D01*
X101424208Y-80220486D01*
X101446741Y-80141848D01*
X101470146Y-80060164D01*
X101494276Y-79975950D01*
X101518982Y-79889721D01*
X101544116Y-79801994D01*
X101569530Y-79713285D01*
X101595078Y-79624109D01*
X101620610Y-79534984D01*
X101645979Y-79446426D01*
X101671037Y-79358949D01*
X101695636Y-79273072D01*
X101719628Y-79189309D01*
X101742865Y-79108177D01*
X101747211Y-79093006D01*
X101863379Y-78687398D01*
X101722858Y-78384894D01*
X101696796Y-78328794D01*
X101668297Y-78267459D01*
X101638052Y-78202372D01*
X101606749Y-78135017D01*
X101575078Y-78066877D01*
X101543729Y-77999437D01*
X101513392Y-77934179D01*
X101484756Y-77872589D01*
X101458511Y-77816148D01*
X101448371Y-77794344D01*
X101426792Y-77747932D01*
X101405746Y-77702641D01*
X101385544Y-77659141D01*
X101366495Y-77618100D01*
X101348911Y-77580188D01*
X101333102Y-77546073D01*
X101319376Y-77516425D01*
X101308045Y-77491913D01*
X101299419Y-77473205D01*
X101293808Y-77460971D01*
X101293189Y-77459611D01*
X101271972Y-77412924D01*
X101357894Y-77119558D01*
X101373344Y-77066807D01*
X101389448Y-77011817D01*
X101405864Y-76955761D01*
X101422247Y-76899815D01*
X101438254Y-76845151D01*
X101453540Y-76792944D01*
X101467762Y-76744369D01*
X101480577Y-76700599D01*
X101491640Y-76662809D01*
X101495927Y-76648164D01*
X101507854Y-76607417D01*
X101520186Y-76565292D01*
X101532509Y-76523199D01*
X101544411Y-76482549D01*
X101555479Y-76444754D01*
X101565298Y-76411222D01*
X101573457Y-76383367D01*
X101576291Y-76373695D01*
X101604545Y-76277253D01*
X101843035Y-76212809D01*
X101895424Y-76198651D01*
X101953598Y-76182924D01*
X102015644Y-76166148D01*
X102079645Y-76148840D01*
X102143687Y-76131517D01*
X102205855Y-76114699D01*
X102264232Y-76098903D01*
X102316904Y-76084648D01*
X102319562Y-76083928D01*
X102361212Y-76072655D01*
X102407626Y-76060096D01*
X102458078Y-76046446D01*
X102511840Y-76031904D01*
X102568187Y-76016664D01*
X102626392Y-76000923D01*
X102685728Y-75984878D01*
X102745471Y-75968725D01*
X102804891Y-75952661D01*
X102863265Y-75936881D01*
X102919864Y-75921582D01*
X102973963Y-75906961D01*
X103024835Y-75893214D01*
X103071754Y-75880537D01*
X103113993Y-75869126D01*
X103150826Y-75859179D01*
X103181527Y-75850891D01*
X103205368Y-75844459D01*
X103209067Y-75843462D01*
X103232145Y-75837349D01*
X103248780Y-75833284D01*
X103260210Y-75831070D01*
X103267673Y-75830514D01*
X103272408Y-75831421D01*
G37*
G36*
X103328543Y-75426235D02*
G01*
X103378069Y-75436560D01*
X103425538Y-75454169D01*
X103471231Y-75478815D01*
X103479898Y-75484891D01*
X103493965Y-75495612D01*
X103512751Y-75510422D01*
X103535574Y-75528768D01*
X103561751Y-75550096D01*
X103590600Y-75573851D01*
X103621439Y-75599481D01*
X103653587Y-75626431D01*
X103669263Y-75639657D01*
X103704213Y-75669197D01*
X103740078Y-75699493D01*
X103775873Y-75729715D01*
X103810615Y-75759031D01*
X103843321Y-75786614D01*
X103873006Y-75811633D01*
X103898687Y-75833259D01*
X103919382Y-75850661D01*
X103921815Y-75852704D01*
X103949593Y-75876047D01*
X103981345Y-75902757D01*
X104014934Y-75931033D01*
X104048223Y-75959078D01*
X104079076Y-75985091D01*
X104093643Y-75997383D01*
X104181457Y-76071511D01*
X104193658Y-76066185D01*
X104201709Y-76062605D01*
X104216264Y-76056067D01*
X104236542Y-76046923D01*
X104261763Y-76035528D01*
X104291147Y-76022234D01*
X104323915Y-76007397D01*
X104359287Y-75991368D01*
X104396482Y-75974504D01*
X104434720Y-75957156D01*
X104473223Y-75939679D01*
X104511209Y-75922426D01*
X104547899Y-75905752D01*
X104582513Y-75890009D01*
X104614271Y-75875552D01*
X104642393Y-75862735D01*
X104665932Y-75851987D01*
X104696818Y-75837873D01*
X104727594Y-75823820D01*
X104756903Y-75810446D01*
X104783388Y-75798372D01*
X104805691Y-75788215D01*
X104822454Y-75780596D01*
X104825957Y-75779007D01*
X104881862Y-75757275D01*
X104936474Y-75743304D01*
X104989675Y-75737116D01*
X105041350Y-75738731D01*
X105049299Y-75739692D01*
X105061384Y-75741910D01*
X105080233Y-75746166D01*
X105104937Y-75752225D01*
X105134589Y-75759854D01*
X105168282Y-75768817D01*
X105205106Y-75778880D01*
X105244155Y-75789809D01*
X105253331Y-75792413D01*
X105292988Y-75803692D01*
X105333921Y-75815322D01*
X105374689Y-75826895D01*
X105413849Y-75838002D01*
X105449962Y-75848234D01*
X105481585Y-75857183D01*
X105507276Y-75864439D01*
X105512065Y-75865789D01*
X105529789Y-75870789D01*
X105554453Y-75877756D01*
X105585299Y-75886475D01*
X105621570Y-75896732D01*
X105662507Y-75908313D01*
X105707352Y-75921002D01*
X105755347Y-75934586D01*
X105805735Y-75948850D01*
X105857757Y-75963580D01*
X105910656Y-75978561D01*
X105942920Y-75987699D01*
X106283761Y-76084246D01*
X106389595Y-76042198D01*
X106497270Y-76000224D01*
X106598817Y-75962344D01*
X106694875Y-75928375D01*
X106786081Y-75898139D01*
X106873072Y-75871454D01*
X106956485Y-75848138D01*
X107036958Y-75828013D01*
X107115128Y-75810896D01*
X107191632Y-75796607D01*
X107267107Y-75784965D01*
X107320350Y-75778216D01*
X107412428Y-75769264D01*
X107499366Y-75764493D01*
X107582443Y-75764065D01*
X107662939Y-75768140D01*
X107742131Y-75776881D01*
X107821300Y-75790448D01*
X107901724Y-75809003D01*
X107984682Y-75832708D01*
X108071455Y-75861724D01*
X108118475Y-75878953D01*
X108144939Y-75889179D01*
X108177330Y-75902127D01*
X108214287Y-75917219D01*
X108254448Y-75933878D01*
X108296452Y-75951526D01*
X108338937Y-75969585D01*
X108380542Y-75987477D01*
X108419905Y-76004625D01*
X108455664Y-76020451D01*
X108486458Y-76034377D01*
X108504222Y-76042634D01*
X108550544Y-76064506D01*
X108576398Y-76035284D01*
X108658623Y-75947608D01*
X108743682Y-75867325D01*
X108831860Y-75794244D01*
X108923441Y-75728176D01*
X109018709Y-75668929D01*
X109117951Y-75616313D01*
X109221449Y-75570136D01*
X109329489Y-75530209D01*
X109330666Y-75529816D01*
X109418941Y-75502457D01*
X109503536Y-75480628D01*
X109586254Y-75464028D01*
X109668896Y-75452358D01*
X109753264Y-75445318D01*
X109841158Y-75442608D01*
X109854749Y-75442557D01*
X109940126Y-75444421D01*
X110021057Y-75450306D01*
X110100185Y-75460519D01*
X110180152Y-75475368D01*
X110226807Y-75485949D01*
X110333986Y-75515730D01*
X110440214Y-75553130D01*
X110544975Y-75597777D01*
X110647752Y-75649303D01*
X110748031Y-75707336D01*
X110845293Y-75771505D01*
X110939023Y-75841440D01*
X111028704Y-75916771D01*
X111113821Y-75997126D01*
X111193856Y-76082135D01*
X111268293Y-76171428D01*
X111336617Y-76264634D01*
X111359499Y-76298894D01*
X111423340Y-76404197D01*
X111480879Y-76514173D01*
X111531971Y-76628379D01*
X111576467Y-76746376D01*
X111614222Y-76867723D01*
X111645089Y-76991979D01*
X111668921Y-77118704D01*
X111685571Y-77247456D01*
X111689461Y-77290265D01*
X111690932Y-77315225D01*
X111691885Y-77346314D01*
X111692345Y-77382015D01*
X111692339Y-77420812D01*
X111691895Y-77461189D01*
X111691038Y-77501630D01*
X111689797Y-77540620D01*
X111688197Y-77576641D01*
X111686266Y-77608179D01*
X111684030Y-77633717D01*
X111683261Y-77640320D01*
X111664640Y-77759517D01*
X111639074Y-77876146D01*
X111606438Y-77990496D01*
X111566603Y-78102856D01*
X111519445Y-78213516D01*
X111464835Y-78322764D01*
X111402648Y-78430890D01*
X111332756Y-78538183D01*
X111255033Y-78644931D01*
X111227606Y-78680135D01*
X111216714Y-78694164D01*
X111207973Y-78705935D01*
X111202417Y-78714022D01*
X111200961Y-78716860D01*
X111202826Y-78721164D01*
X111208012Y-78731291D01*
X111215909Y-78746093D01*
X111225905Y-78764425D01*
X111237388Y-78785142D01*
X111237431Y-78785219D01*
X111325044Y-78950141D01*
X111406447Y-79120076D01*
X111481620Y-79294967D01*
X111550546Y-79474757D01*
X111613203Y-79659389D01*
X111669573Y-79848806D01*
X111719636Y-80042953D01*
X111763373Y-80241771D01*
X111796990Y-80422758D01*
X111816286Y-80543858D01*
X111832405Y-80662164D01*
X111845479Y-80779304D01*
X111855641Y-80896905D01*
X111863022Y-81016594D01*
X111867754Y-81139999D01*
X111869969Y-81268747D01*
X111870181Y-81324900D01*
X111869911Y-81403363D01*
X111869053Y-81475533D01*
X111867550Y-81543101D01*
X111865348Y-81607757D01*
X111862390Y-81671192D01*
X111858620Y-81735098D01*
X111854889Y-81788973D01*
X111836043Y-81992320D01*
X111809518Y-82193449D01*
X111775283Y-82392485D01*
X111733311Y-82589553D01*
X111683573Y-82784775D01*
X111626040Y-82978276D01*
X111560683Y-83170181D01*
X111493705Y-83345219D01*
X111488036Y-83359276D01*
X111482742Y-83372353D01*
X111477630Y-83384887D01*
X111472505Y-83397315D01*
X111467175Y-83410074D01*
X111461445Y-83423601D01*
X111455122Y-83438333D01*
X111448013Y-83454707D01*
X111439923Y-83473160D01*
X111430659Y-83494129D01*
X111420028Y-83518051D01*
X111407835Y-83545363D01*
X111393888Y-83576503D01*
X111377992Y-83611906D01*
X111359954Y-83652010D01*
X111339580Y-83697253D01*
X111316676Y-83748070D01*
X111291050Y-83804900D01*
X111262507Y-83868179D01*
X111233124Y-83933311D01*
X111210742Y-83982926D01*
X111188928Y-84031291D01*
X111167956Y-84077795D01*
X111148103Y-84121827D01*
X111129643Y-84162775D01*
X111112854Y-84200027D01*
X111098009Y-84232972D01*
X111085385Y-84260999D01*
X111075257Y-84283496D01*
X111067901Y-84299852D01*
X111063927Y-84308706D01*
X111054595Y-84328659D01*
X111047421Y-84342078D01*
X111042611Y-84348605D01*
X111040649Y-84348713D01*
X111032857Y-84334606D01*
X111022066Y-84314836D01*
X111008688Y-84290171D01*
X110993133Y-84261380D01*
X110975812Y-84229231D01*
X110957138Y-84194494D01*
X110937519Y-84157937D01*
X110917369Y-84120328D01*
X110897097Y-84082437D01*
X110877116Y-84045032D01*
X110857835Y-84008881D01*
X110839666Y-83974754D01*
X110823021Y-83943419D01*
X110808309Y-83915645D01*
X110795944Y-83892201D01*
X110786334Y-83873854D01*
X110779892Y-83861375D01*
X110777902Y-83857401D01*
X110767226Y-83834776D01*
X110755245Y-83808171D01*
X110743508Y-83781081D01*
X110734516Y-83759385D01*
X110726227Y-83738908D01*
X110720340Y-83724990D01*
X110716297Y-83716756D01*
X110713538Y-83713332D01*
X110711506Y-83713842D01*
X110709641Y-83717413D01*
X110708904Y-83719277D01*
X110706044Y-83726743D01*
X110700887Y-83740282D01*
X110693969Y-83758484D01*
X110685825Y-83779940D01*
X110676990Y-83803241D01*
X110676972Y-83803291D01*
X110598079Y-84000440D01*
X110512401Y-84193370D01*
X110419894Y-84382154D01*
X110320513Y-84566868D01*
X110214216Y-84747585D01*
X110100959Y-84924380D01*
X109980699Y-85097327D01*
X109853392Y-85266500D01*
X109737091Y-85410403D01*
X109596211Y-85573404D01*
X109449876Y-85731521D01*
X109298898Y-85883902D01*
X109152638Y-86021912D01*
X109136403Y-86036568D01*
X109114652Y-86055953D01*
X109087942Y-86079581D01*
X109056827Y-86106971D01*
X109021863Y-86137638D01*
X108983606Y-86171098D01*
X108942611Y-86206868D01*
X108899434Y-86244464D01*
X108854630Y-86283401D01*
X108808754Y-86323197D01*
X108762362Y-86363368D01*
X108716010Y-86403429D01*
X108670252Y-86442897D01*
X108625645Y-86481289D01*
X108590550Y-86511426D01*
X108571471Y-86527810D01*
X108553967Y-86542877D01*
X108539142Y-86555673D01*
X108528100Y-86565245D01*
X108521945Y-86570640D01*
X108521702Y-86570858D01*
X108512864Y-86578816D01*
X108514861Y-86565270D01*
X108515708Y-86559259D01*
X108517556Y-86545946D01*
X108520319Y-86525955D01*
X108523913Y-86499909D01*
X108528249Y-86468434D01*
X108533244Y-86432153D01*
X108538810Y-86391690D01*
X108544862Y-86347671D01*
X108551314Y-86300719D01*
X108558080Y-86251459D01*
X108560797Y-86231673D01*
X108570030Y-86164483D01*
X108578283Y-86104598D01*
X108585651Y-86051395D01*
X108592227Y-86004250D01*
X108598105Y-85962539D01*
X108603378Y-85925639D01*
X108608142Y-85892926D01*
X108612488Y-85863776D01*
X108616512Y-85837567D01*
X108620307Y-85813673D01*
X108623967Y-85791471D01*
X108627586Y-85770339D01*
X108631257Y-85749651D01*
X108635075Y-85728785D01*
X108639133Y-85707117D01*
X108642007Y-85691979D01*
X108646836Y-85666278D01*
X108650997Y-85643417D01*
X108654303Y-85624493D01*
X108656565Y-85610601D01*
X108657594Y-85602837D01*
X108657554Y-85601574D01*
X108654379Y-85604249D01*
X108646143Y-85611842D01*
X108633533Y-85623702D01*
X108617235Y-85639178D01*
X108597935Y-85657619D01*
X108576319Y-85678375D01*
X108561201Y-85692946D01*
X108444768Y-85803352D01*
X108330952Y-85907208D01*
X108218926Y-86005185D01*
X108107863Y-86097956D01*
X107996938Y-86186192D01*
X107885324Y-86270566D01*
X107772193Y-86351749D01*
X107656720Y-86430414D01*
X107642400Y-86439892D01*
X107521253Y-86517781D01*
X107403357Y-86589334D01*
X107287773Y-86655031D01*
X107173562Y-86715352D01*
X107059786Y-86770778D01*
X106945504Y-86821790D01*
X106829779Y-86868867D01*
X106734257Y-86904474D01*
X106702863Y-86915435D01*
X106668559Y-86926918D01*
X106632774Y-86938485D01*
X106596937Y-86949698D01*
X106562476Y-86960122D01*
X106530821Y-86969317D01*
X106503400Y-86976847D01*
X106481643Y-86982274D01*
X106476217Y-86983472D01*
X106431935Y-86991009D01*
X106385626Y-86995637D01*
X106340291Y-86997163D01*
X106298930Y-86995391D01*
X106296188Y-86995131D01*
X106236831Y-86986021D01*
X106176410Y-86970646D01*
X106117649Y-86949791D01*
X106080154Y-86932940D01*
X106072728Y-86928823D01*
X106060298Y-86921318D01*
X106042769Y-86910359D01*
X106020042Y-86895883D01*
X105992019Y-86877826D01*
X105958604Y-86856122D01*
X105919698Y-86830709D01*
X105875203Y-86801520D01*
X105825023Y-86768493D01*
X105769059Y-86731563D01*
X105707214Y-86690664D01*
X105639390Y-86645734D01*
X105565489Y-86596708D01*
X105485414Y-86543520D01*
X105399067Y-86486108D01*
X105306351Y-86424406D01*
X105207167Y-86358351D01*
X105128005Y-86305599D01*
X105022632Y-86235367D01*
X104923718Y-86169443D01*
X104831061Y-86107693D01*
X104744464Y-86049987D01*
X104663727Y-85996192D01*
X104588651Y-85946175D01*
X104519036Y-85899805D01*
X104454685Y-85856949D01*
X104395397Y-85817475D01*
X104340973Y-85781251D01*
X104291215Y-85748145D01*
X104245923Y-85718024D01*
X104204898Y-85690757D01*
X104167941Y-85666210D01*
X104134853Y-85644253D01*
X104105434Y-85624752D01*
X104079487Y-85607576D01*
X104056810Y-85592592D01*
X104037206Y-85579669D01*
X104020475Y-85568673D01*
X104006418Y-85559474D01*
X103994836Y-85551937D01*
X103985530Y-85545933D01*
X103978301Y-85541327D01*
X103972949Y-85537989D01*
X103969276Y-85535785D01*
X103967082Y-85534584D01*
X103966168Y-85534254D01*
X103966124Y-85534277D01*
X103965536Y-85538344D01*
X103964081Y-85549825D01*
X103961822Y-85568189D01*
X103958823Y-85592902D01*
X103955147Y-85623432D01*
X103950859Y-85659246D01*
X103946021Y-85699813D01*
X103940698Y-85744600D01*
X103934953Y-85793075D01*
X103928849Y-85844704D01*
X103922452Y-85898956D01*
X103918135Y-85935626D01*
X103907035Y-86029971D01*
X103896832Y-86116619D01*
X103887495Y-86195822D01*
X103878995Y-86267833D01*
X103871300Y-86332902D01*
X103864382Y-86391281D01*
X103858210Y-86443222D01*
X103852753Y-86488975D01*
X103847983Y-86528793D01*
X103843868Y-86562926D01*
X103840379Y-86591627D01*
X103837485Y-86615147D01*
X103835156Y-86633737D01*
X103833363Y-86647649D01*
X103832075Y-86657133D01*
X103831261Y-86662443D01*
X103830931Y-86663855D01*
X103828365Y-86661242D01*
X103822418Y-86653368D01*
X103814128Y-86641641D01*
X103809120Y-86634314D01*
X103802782Y-86624940D01*
X103792490Y-86609713D01*
X103778770Y-86589411D01*
X103762145Y-86564811D01*
X103743142Y-86536691D01*
X103722285Y-86505826D01*
X103700100Y-86472996D01*
X103677113Y-86438977D01*
X103673550Y-86433705D01*
X103649417Y-86397995D01*
X103625128Y-86362066D01*
X103601349Y-86326902D01*
X103578747Y-86293488D01*
X103557989Y-86262811D01*
X103539741Y-86235854D01*
X103524670Y-86213603D01*
X103513865Y-86197668D01*
X103503020Y-86181676D01*
X103487926Y-86159403D01*
X103468819Y-86131198D01*
X103445934Y-86097407D01*
X103419507Y-86058378D01*
X103389771Y-86014457D01*
X103356962Y-85965993D01*
X103321316Y-85913331D01*
X103283066Y-85856820D01*
X103242449Y-85796807D01*
X103199699Y-85733639D01*
X103155051Y-85667663D01*
X103108740Y-85599226D01*
X103061001Y-85528675D01*
X103012070Y-85456359D01*
X102969568Y-85393541D01*
X102942617Y-85353712D01*
X102915729Y-85313984D01*
X102889452Y-85275165D01*
X102864331Y-85238063D01*
X102840914Y-85203486D01*
X102819748Y-85172239D01*
X102801379Y-85145132D01*
X102786354Y-85122971D01*
X102775220Y-85106563D01*
X102774494Y-85105496D01*
X102757201Y-85080009D01*
X102737026Y-85050232D01*
X102715558Y-85018511D01*
X102694385Y-84987192D01*
X102675094Y-84958622D01*
X102672969Y-84955472D01*
X102657659Y-84932779D01*
X102642833Y-84910811D01*
X102628064Y-84888937D01*
X102612925Y-84866525D01*
X102596987Y-84842943D01*
X102579825Y-84817561D01*
X102561010Y-84789747D01*
X102540117Y-84758868D01*
X102516716Y-84724294D01*
X102490383Y-84685394D01*
X102460689Y-84641534D01*
X102427206Y-84592085D01*
X102403676Y-84557335D01*
X102350780Y-84479217D01*
X102298767Y-84402401D01*
X102248116Y-84327591D01*
X102199304Y-84255495D01*
X102152809Y-84186817D01*
X102109108Y-84122263D01*
X102068680Y-84062539D01*
X102032002Y-84008350D01*
X102013817Y-83981481D01*
X101946110Y-83881438D01*
X101935343Y-83900373D01*
X101931342Y-83907567D01*
X101923938Y-83921042D01*
X101913540Y-83940042D01*
X101900561Y-83963815D01*
X101885412Y-83991608D01*
X101868502Y-84022667D01*
X101850244Y-84056238D01*
X101831048Y-84091567D01*
X101826829Y-84099337D01*
X101779737Y-84186059D01*
X101736365Y-84265913D01*
X101696621Y-84339063D01*
X101660414Y-84405678D01*
X101627653Y-84465924D01*
X101598249Y-84519968D01*
X101572109Y-84567976D01*
X101549142Y-84610116D01*
X101529259Y-84646554D01*
X101512367Y-84677456D01*
X101498376Y-84702990D01*
X101487196Y-84723321D01*
X101478735Y-84738618D01*
X101472902Y-84749047D01*
X101469606Y-84754773D01*
X101468736Y-84756082D01*
X101467929Y-84752119D01*
X101465826Y-84740871D01*
X101462531Y-84722926D01*
X101458152Y-84698877D01*
X101452796Y-84669312D01*
X101446569Y-84634824D01*
X101439578Y-84596002D01*
X101431930Y-84553437D01*
X101423732Y-84507720D01*
X101415090Y-84459441D01*
X101411494Y-84439326D01*
X101401623Y-84384123D01*
X101391353Y-84326752D01*
X101380894Y-84268367D01*
X101370450Y-84210124D01*
X101360231Y-84153176D01*
X101350442Y-84098677D01*
X101341292Y-84047782D01*
X101332987Y-84001644D01*
X101325734Y-83961418D01*
X101321379Y-83937312D01*
X101311513Y-83882706D01*
X101302291Y-83831556D01*
X101293607Y-83783236D01*
X101285351Y-83737117D01*
X101277416Y-83692575D01*
X101269694Y-83648982D01*
X101262077Y-83605712D01*
X101254456Y-83562139D01*
X101246723Y-83517635D01*
X101238770Y-83471575D01*
X101230490Y-83423332D01*
X101221773Y-83372279D01*
X101212512Y-83317790D01*
X101202598Y-83259239D01*
X101191924Y-83195998D01*
X101180381Y-83127441D01*
X101167862Y-83052942D01*
X101154257Y-82971874D01*
X101139459Y-82883611D01*
X101137705Y-82873144D01*
X101116352Y-82746075D01*
X101095313Y-82621607D01*
X101074304Y-82498083D01*
X101053043Y-82373850D01*
X101031244Y-82247251D01*
X101008626Y-82116632D01*
X100984904Y-81980337D01*
X100976989Y-81934996D01*
X100960043Y-81838004D01*
X100944401Y-81748496D01*
X100929993Y-81666078D01*
X100916750Y-81590352D01*
X100904602Y-81520921D01*
X100893480Y-81457389D01*
X100883314Y-81399359D01*
X100874035Y-81346434D01*
X100865573Y-81298217D01*
X100857858Y-81254311D01*
X100850822Y-81214320D01*
X100844394Y-81177847D01*
X100838506Y-81144495D01*
X100836451Y-81132870D01*
X100829652Y-81094345D01*
X100824126Y-81062593D01*
X100819740Y-81036511D01*
X100816362Y-81014995D01*
X100813858Y-80996943D01*
X100812098Y-80981250D01*
X100810948Y-80966813D01*
X100810276Y-80952529D01*
X100809949Y-80937294D01*
X100809836Y-80920004D01*
X100809819Y-80910835D01*
X100809841Y-80908835D01*
X101025950Y-80908835D01*
X101025978Y-80918381D01*
X101026104Y-80927404D01*
X101026407Y-80936420D01*
X101026967Y-80945950D01*
X101027863Y-80956511D01*
X101029176Y-80968620D01*
X101030985Y-80982797D01*
X101033370Y-80999560D01*
X101036411Y-81019427D01*
X101040188Y-81042915D01*
X101044780Y-81070544D01*
X101050267Y-81102831D01*
X101056730Y-81140295D01*
X101064248Y-81183455D01*
X101072901Y-81232827D01*
X101082768Y-81288930D01*
X101093930Y-81352284D01*
X101096507Y-81366907D01*
X101110997Y-81449124D01*
X101124235Y-81524262D01*
X101136360Y-81593119D01*
X101147513Y-81656496D01*
X101157834Y-81715192D01*
X101167465Y-81770007D01*
X101176544Y-81821740D01*
X101185212Y-81871190D01*
X101193611Y-81919157D01*
X101201879Y-81966441D01*
X101210157Y-82013841D01*
X101218587Y-82062157D01*
X101225362Y-82101023D01*
X101234661Y-82154581D01*
X101245124Y-82215186D01*
X101256605Y-82281989D01*
X101268961Y-82354144D01*
X101282047Y-82430802D01*
X101295719Y-82511117D01*
X101309833Y-82594239D01*
X101324245Y-82679323D01*
X101338811Y-82765521D01*
X101353386Y-82851984D01*
X101367826Y-82937866D01*
X101373413Y-82971160D01*
X101385971Y-83045844D01*
X101398686Y-83121110D01*
X101411485Y-83196541D01*
X101424295Y-83271719D01*
X101437043Y-83346230D01*
X101449655Y-83419656D01*
X101462059Y-83491581D01*
X101474181Y-83561588D01*
X101485948Y-83629261D01*
X101497286Y-83694183D01*
X101508124Y-83755939D01*
X101518388Y-83814111D01*
X101528004Y-83868283D01*
X101536899Y-83918040D01*
X101545000Y-83962963D01*
X101552235Y-84002637D01*
X101558530Y-84036645D01*
X101563811Y-84064571D01*
X101568006Y-84085999D01*
X101571041Y-84100512D01*
X101572844Y-84107693D01*
X101573163Y-84108391D01*
X101575683Y-84105947D01*
X101580896Y-84098065D01*
X101587741Y-84086368D01*
X101588703Y-84084637D01*
X101594276Y-84074495D01*
X101603344Y-84057915D01*
X101615584Y-84035491D01*
X101630673Y-84007818D01*
X101648287Y-83975489D01*
X101668104Y-83939097D01*
X101689799Y-83899238D01*
X101713051Y-83856504D01*
X101737535Y-83811490D01*
X101762928Y-83764789D01*
X101788908Y-83716996D01*
X101815151Y-83668703D01*
X101841333Y-83620506D01*
X101845535Y-83612769D01*
X101925107Y-83466255D01*
X101935468Y-83480749D01*
X101939358Y-83486366D01*
X101947351Y-83498060D01*
X101959073Y-83515275D01*
X101974147Y-83537459D01*
X101992199Y-83564058D01*
X102012852Y-83594517D01*
X102035731Y-83628284D01*
X102060459Y-83664803D01*
X102086663Y-83703523D01*
X102113555Y-83743281D01*
X102143892Y-83788143D01*
X102175423Y-83834761D01*
X102207468Y-83882136D01*
X102239351Y-83929265D01*
X102270394Y-83975148D01*
X102299920Y-84018784D01*
X102327252Y-84059171D01*
X102351712Y-84095309D01*
X102372624Y-84126195D01*
X102379433Y-84136251D01*
X102401967Y-84169524D01*
X102428037Y-84208024D01*
X102456698Y-84250350D01*
X102487002Y-84295105D01*
X102518001Y-84340887D01*
X102548748Y-84386298D01*
X102578294Y-84429938D01*
X102603607Y-84467327D01*
X102630938Y-84507697D01*
X102660116Y-84550794D01*
X102690232Y-84595275D01*
X102720377Y-84639797D01*
X102749642Y-84683019D01*
X102777117Y-84723596D01*
X102801893Y-84760186D01*
X102822400Y-84790469D01*
X102844666Y-84823356D01*
X102867474Y-84857055D01*
X102889992Y-84890337D01*
X102911390Y-84921971D01*
X102930835Y-84950730D01*
X102947496Y-84975383D01*
X102960541Y-84994700D01*
X102961066Y-84995478D01*
X102982379Y-85027055D01*
X103005108Y-85060711D01*
X103029500Y-85096813D01*
X103055805Y-85135729D01*
X103084269Y-85177825D01*
X103115142Y-85223469D01*
X103148672Y-85273026D01*
X103185107Y-85326866D01*
X103224695Y-85385353D01*
X103267685Y-85448856D01*
X103314324Y-85517741D01*
X103364863Y-85592375D01*
X103419547Y-85673125D01*
X103441534Y-85705590D01*
X103470598Y-85748511D01*
X103498952Y-85790396D01*
X103526189Y-85830644D01*
X103551905Y-85868654D01*
X103575692Y-85903827D01*
X103597145Y-85935561D01*
X103615857Y-85963256D01*
X103631423Y-85986312D01*
X103643437Y-86004128D01*
X103651493Y-86016103D01*
X103653099Y-86018500D01*
X103663991Y-86034561D01*
X103673322Y-86047903D01*
X103680192Y-86057272D01*
X103683704Y-86061413D01*
X103683894Y-86061507D01*
X103684889Y-86057737D01*
X103686646Y-86047021D01*
X103689027Y-86030366D01*
X103691894Y-86008776D01*
X103695111Y-85983258D01*
X103698540Y-85954816D01*
X103699032Y-85950629D01*
X103702014Y-85925241D01*
X103705793Y-85893104D01*
X103710230Y-85855417D01*
X103715183Y-85813375D01*
X103720511Y-85768177D01*
X103726073Y-85721021D01*
X103731728Y-85673102D01*
X103737334Y-85625619D01*
X103739938Y-85603574D01*
X103745347Y-85557775D01*
X103750772Y-85511814D01*
X103756088Y-85466762D01*
X103761168Y-85423687D01*
X103765887Y-85383657D01*
X103770117Y-85347741D01*
X103773734Y-85317008D01*
X103776612Y-85292527D01*
X103777903Y-85281523D01*
X103781052Y-85255011D01*
X103784080Y-85230162D01*
X103786803Y-85208445D01*
X103789036Y-85191326D01*
X103790595Y-85180272D01*
X103790889Y-85178438D01*
X103793794Y-85161367D01*
X103807797Y-85171131D01*
X103815396Y-85176276D01*
X103828443Y-85184944D01*
X103845674Y-85196302D01*
X103865826Y-85209518D01*
X103887636Y-85223759D01*
X103891810Y-85226478D01*
X103913061Y-85240321D01*
X103939495Y-85257551D01*
X103969595Y-85277178D01*
X104001845Y-85298214D01*
X104034728Y-85319669D01*
X104066729Y-85340555D01*
X104077831Y-85347803D01*
X104090849Y-85356348D01*
X104110222Y-85369129D01*
X104135646Y-85385947D01*
X104166821Y-85406599D01*
X104203442Y-85430884D01*
X104245207Y-85458601D01*
X104291813Y-85489549D01*
X104342958Y-85523526D01*
X104398338Y-85560332D01*
X104457652Y-85599764D01*
X104520597Y-85641623D01*
X104586869Y-85685705D01*
X104656166Y-85731811D01*
X104728186Y-85779739D01*
X104802626Y-85829288D01*
X104879182Y-85880256D01*
X104957553Y-85932442D01*
X105037436Y-85985645D01*
X105118527Y-86039664D01*
X105172003Y-86075293D01*
X105267448Y-86138866D01*
X105359144Y-86199898D01*
X105446924Y-86258279D01*
X105530621Y-86313900D01*
X105610069Y-86366649D01*
X105685101Y-86416418D01*
X105755550Y-86463097D01*
X105821251Y-86506574D01*
X105882036Y-86546741D01*
X105937739Y-86583487D01*
X105988193Y-86616702D01*
X106033231Y-86646277D01*
X106072687Y-86672101D01*
X106106395Y-86694065D01*
X106134187Y-86712059D01*
X106155898Y-86725971D01*
X106171360Y-86735694D01*
X106180407Y-86741116D01*
X106182171Y-86742046D01*
X106224048Y-86759234D01*
X106266072Y-86771904D01*
X106294188Y-86777604D01*
X106321769Y-86780117D01*
X106354041Y-86780205D01*
X106388131Y-86778044D01*
X106421166Y-86773812D01*
X106448956Y-86768036D01*
X106498652Y-86754161D01*
X106553821Y-86737170D01*
X106612836Y-86717640D01*
X106674071Y-86696149D01*
X106735901Y-86673274D01*
X106796701Y-86649592D01*
X106854845Y-86625682D01*
X106879950Y-86614896D01*
X107012894Y-86553596D01*
X107147570Y-86484941D01*
X107283473Y-86409258D01*
X107420098Y-86326875D01*
X107556940Y-86238118D01*
X107693495Y-86143315D01*
X107829259Y-86042793D01*
X107963727Y-85936880D01*
X108096295Y-85825988D01*
X108125623Y-85800633D01*
X108153534Y-85776308D01*
X108180468Y-85752593D01*
X108206863Y-85729070D01*
X108233160Y-85705321D01*
X108259797Y-85680928D01*
X108287215Y-85655471D01*
X108315852Y-85628532D01*
X108346148Y-85599694D01*
X108378543Y-85568537D01*
X108413476Y-85534644D01*
X108451386Y-85497596D01*
X108492714Y-85456974D01*
X108537897Y-85412360D01*
X108587377Y-85363336D01*
X108641592Y-85309483D01*
X108700981Y-85250383D01*
X108703568Y-85247807D01*
X108744333Y-85207246D01*
X108783472Y-85168372D01*
X108820619Y-85131547D01*
X108855405Y-85097130D01*
X108887463Y-85065484D01*
X108916425Y-85036970D01*
X108941924Y-85011949D01*
X108963593Y-84990782D01*
X108981064Y-84973831D01*
X108993970Y-84961456D01*
X109001942Y-84954020D01*
X109004615Y-84951872D01*
X109003876Y-84956651D01*
X109001789Y-84968261D01*
X108998544Y-84985681D01*
X108994335Y-85007891D01*
X108989354Y-85033871D01*
X108983794Y-85062600D01*
X108982427Y-85069623D01*
X108975401Y-85105714D01*
X108967360Y-85147075D01*
X108958805Y-85191122D01*
X108950238Y-85235269D01*
X108942161Y-85276932D01*
X108936623Y-85305527D01*
X108929512Y-85342265D01*
X108921345Y-85384444D01*
X108912590Y-85429650D01*
X108903714Y-85475470D01*
X108895185Y-85519490D01*
X108887471Y-85559296D01*
X108887031Y-85561568D01*
X108875385Y-85621867D01*
X108865168Y-85675283D01*
X108856213Y-85722774D01*
X108848352Y-85765297D01*
X108841419Y-85803809D01*
X108835245Y-85839269D01*
X108829663Y-85872632D01*
X108824505Y-85904858D01*
X108819605Y-85936902D01*
X108814795Y-85969724D01*
X108811115Y-85995636D01*
X108808883Y-86012541D01*
X108807343Y-86026213D01*
X108806675Y-86034905D01*
X108806812Y-86037079D01*
X108810079Y-86035189D01*
X108818824Y-86028276D01*
X108833116Y-86016280D01*
X108853023Y-85999144D01*
X108878613Y-85976808D01*
X108909954Y-85949214D01*
X108947113Y-85916303D01*
X108960608Y-85904315D01*
X109002064Y-85866775D01*
X109047635Y-85824276D01*
X109096215Y-85777924D01*
X109146698Y-85728821D01*
X109197978Y-85678074D01*
X109248950Y-85626786D01*
X109298508Y-85576062D01*
X109345546Y-85527007D01*
X109388958Y-85480726D01*
X109427638Y-85438322D01*
X109431908Y-85433547D01*
X109565365Y-85279013D01*
X109691191Y-85123015D01*
X109809694Y-84965084D01*
X109921182Y-84804753D01*
X110025963Y-84641552D01*
X110124345Y-84475014D01*
X110216636Y-84304671D01*
X110303144Y-84130053D01*
X110336419Y-84058417D01*
X110357703Y-84011306D01*
X110377649Y-83966192D01*
X110396664Y-83922053D01*
X110415156Y-83877864D01*
X110433531Y-83832603D01*
X110452197Y-83785244D01*
X110471561Y-83734766D01*
X110492029Y-83680143D01*
X110514009Y-83620353D01*
X110537907Y-83554372D01*
X110547654Y-83527247D01*
X110572411Y-83458228D01*
X110594602Y-83396382D01*
X110614357Y-83341352D01*
X110631806Y-83292778D01*
X110647078Y-83250302D01*
X110660303Y-83213563D01*
X110671610Y-83182202D01*
X110681131Y-83155862D01*
X110688993Y-83134182D01*
X110695328Y-83116803D01*
X110700264Y-83103367D01*
X110703932Y-83093513D01*
X110706461Y-83086884D01*
X110707981Y-83083120D01*
X110708475Y-83082065D01*
X110711126Y-83082811D01*
X110715453Y-83090381D01*
X110720969Y-83103894D01*
X110721758Y-83106069D01*
X110731302Y-83132518D01*
X110742703Y-83163790D01*
X110755685Y-83199146D01*
X110769969Y-83237850D01*
X110785279Y-83279163D01*
X110801339Y-83322347D01*
X110817870Y-83366665D01*
X110834596Y-83411378D01*
X110851240Y-83455750D01*
X110867525Y-83499041D01*
X110883173Y-83540514D01*
X110897908Y-83579431D01*
X110911453Y-83615054D01*
X110923530Y-83646646D01*
X110933863Y-83673469D01*
X110942174Y-83694784D01*
X110948187Y-83709854D01*
X110950904Y-83716348D01*
X110958611Y-83733383D01*
X110967887Y-83753010D01*
X110978132Y-83774054D01*
X110988746Y-83795344D01*
X110999128Y-83815706D01*
X111008678Y-83833967D01*
X111016794Y-83848956D01*
X111022877Y-83859498D01*
X111026326Y-83864422D01*
X111026810Y-83864590D01*
X111028659Y-83860761D01*
X111033381Y-83850502D01*
X111040580Y-83834684D01*
X111049862Y-83814180D01*
X111060831Y-83789863D01*
X111073091Y-83762606D01*
X111080868Y-83745282D01*
X111097002Y-83709352D01*
X111115369Y-83668520D01*
X111134895Y-83625169D01*
X111154505Y-83581682D01*
X111173126Y-83540442D01*
X111189045Y-83505244D01*
X111226620Y-83421162D01*
X111260688Y-83342528D01*
X111291808Y-83267896D01*
X111320540Y-83195825D01*
X111347447Y-83124870D01*
X111373087Y-83053590D01*
X111398022Y-82980540D01*
X111422811Y-82904277D01*
X111424439Y-82899148D01*
X111478107Y-82717398D01*
X111524647Y-82533189D01*
X111564080Y-82346342D01*
X111596428Y-82156680D01*
X111621713Y-81964023D01*
X111639957Y-81768194D01*
X111651181Y-81569015D01*
X111655407Y-81366306D01*
X111652657Y-81159889D01*
X111648655Y-81054858D01*
X111637297Y-80880746D01*
X111619332Y-80704558D01*
X111594972Y-80527224D01*
X111564429Y-80349677D01*
X111527915Y-80172848D01*
X111485641Y-79997669D01*
X111437821Y-79825072D01*
X111384666Y-79655988D01*
X111326388Y-79491349D01*
X111263199Y-79332087D01*
X111248968Y-79298581D01*
X111219505Y-79231188D01*
X111190637Y-79167644D01*
X111161584Y-79106404D01*
X111131568Y-79045922D01*
X111099808Y-78984651D01*
X111065525Y-78921046D01*
X111027940Y-78853561D01*
X110998856Y-78802503D01*
X110984517Y-78777499D01*
X110971319Y-78754428D01*
X110959839Y-78734307D01*
X110950658Y-78718151D01*
X110944353Y-78706977D01*
X110941587Y-78701963D01*
X110940667Y-78698868D01*
X110941264Y-78694862D01*
X110943901Y-78689192D01*
X110949099Y-78681108D01*
X110957380Y-78669857D01*
X110969267Y-78654687D01*
X110985281Y-78634847D01*
X111004634Y-78611184D01*
X111039754Y-78568033D01*
X111070382Y-78529599D01*
X111097420Y-78494691D01*
X111121770Y-78462118D01*
X111144334Y-78430688D01*
X111166015Y-78399209D01*
X111173242Y-78388438D01*
X111237790Y-78285548D01*
X111294459Y-78182182D01*
X111343366Y-78078013D01*
X111384631Y-77972714D01*
X111418374Y-77865956D01*
X111444714Y-77757413D01*
X111463770Y-77646757D01*
X111472982Y-77566308D01*
X111474551Y-77543179D01*
X111475714Y-77513852D01*
X111476470Y-77480121D01*
X111476822Y-77443778D01*
X111476771Y-77406617D01*
X111476317Y-77370431D01*
X111475462Y-77337012D01*
X111474207Y-77308155D01*
X111472800Y-77288265D01*
X111458630Y-77171157D01*
X111437582Y-77054920D01*
X111409915Y-76940409D01*
X111375888Y-76828479D01*
X111335759Y-76719988D01*
X111289788Y-76615792D01*
X111241264Y-76522144D01*
X111180901Y-76422317D01*
X111114094Y-76327096D01*
X111041113Y-76236737D01*
X110962231Y-76151497D01*
X110877718Y-76071630D01*
X110787846Y-75997393D01*
X110692886Y-75929043D01*
X110593109Y-75866834D01*
X110488786Y-75811024D01*
X110486848Y-75810070D01*
X110386218Y-75764711D01*
X110285050Y-75727325D01*
X110183364Y-75697912D01*
X110081179Y-75676476D01*
X109978516Y-75663020D01*
X109875392Y-75657545D01*
X109771829Y-75660055D01*
X109667845Y-75670552D01*
X109568704Y-75687921D01*
X109462648Y-75714281D01*
X109359304Y-75747926D01*
X109259136Y-75788655D01*
X109162608Y-75836264D01*
X109070184Y-75890554D01*
X109011614Y-75929977D01*
X108954450Y-75972768D01*
X108898649Y-76019196D01*
X108843361Y-76070073D01*
X108787734Y-76126214D01*
X108730917Y-76188430D01*
X108684892Y-76242100D01*
X108665871Y-76264830D01*
X108648475Y-76285612D01*
X108633379Y-76303639D01*
X108621258Y-76318105D01*
X108612788Y-76328205D01*
X108608644Y-76333131D01*
X108608396Y-76333421D01*
X108604275Y-76332473D01*
X108593898Y-76328256D01*
X108578121Y-76321170D01*
X108557798Y-76311615D01*
X108533784Y-76299990D01*
X108506934Y-76286695D01*
X108488027Y-76277174D01*
X108437148Y-76251999D01*
X108381551Y-76225582D01*
X108322739Y-76198571D01*
X108262211Y-76171619D01*
X108201470Y-76145374D01*
X108142018Y-76120489D01*
X108085355Y-76097614D01*
X108032983Y-76077399D01*
X107994456Y-76063321D01*
X107913475Y-76036561D01*
X107836823Y-76015278D01*
X107763228Y-75999230D01*
X107691421Y-75988178D01*
X107620130Y-75981881D01*
X107554411Y-75980081D01*
X107452192Y-75983260D01*
X107346286Y-75992753D01*
X107236525Y-76008593D01*
X107122741Y-76030813D01*
X107004767Y-76059443D01*
X106882434Y-76094516D01*
X106778745Y-76128108D01*
X106745808Y-76139370D01*
X106715395Y-76149932D01*
X106686368Y-76160220D01*
X106657590Y-76170660D01*
X106627923Y-76181676D01*
X106596231Y-76193696D01*
X106561376Y-76207145D01*
X106522220Y-76222448D01*
X106477627Y-76240032D01*
X106440762Y-76254642D01*
X106295290Y-76312384D01*
X106112711Y-76260477D01*
X106076979Y-76250327D01*
X106034751Y-76238343D01*
X105987230Y-76224867D01*
X105935621Y-76210240D01*
X105881126Y-76194803D01*
X105824949Y-76178897D01*
X105768296Y-76162863D01*
X105712368Y-76147042D01*
X105658370Y-76131774D01*
X105638085Y-76126041D01*
X105586259Y-76111390D01*
X105532865Y-76096284D01*
X105478992Y-76081034D01*
X105425730Y-76065947D01*
X105374168Y-76051333D01*
X105325394Y-76037500D01*
X105280500Y-76024758D01*
X105240573Y-76013414D01*
X105206704Y-76003777D01*
X105192156Y-75999632D01*
X105157526Y-75989858D01*
X105124482Y-75980722D01*
X105094002Y-75972482D01*
X105067064Y-75965393D01*
X105044646Y-75959711D01*
X105027726Y-75955694D01*
X105017281Y-75953598D01*
X105015876Y-75953412D01*
X104998189Y-75952935D01*
X104979310Y-75954430D01*
X104971936Y-75955690D01*
X104964547Y-75958139D01*
X104950573Y-75963628D01*
X104930700Y-75971858D01*
X104905615Y-75982533D01*
X104876005Y-75995354D01*
X104842557Y-76010025D01*
X104805957Y-76026246D01*
X104766892Y-76043720D01*
X104726048Y-76062151D01*
X104718149Y-76065733D01*
X104641807Y-76100380D01*
X104572422Y-76131853D01*
X104509667Y-76160296D01*
X104453219Y-76185854D01*
X104402753Y-76208672D01*
X104357943Y-76228892D01*
X104318465Y-76246661D01*
X104283993Y-76262121D01*
X104254205Y-76275418D01*
X104228773Y-76286695D01*
X104207374Y-76296097D01*
X104189683Y-76303768D01*
X104175374Y-76309852D01*
X104164124Y-76314494D01*
X104155606Y-76317838D01*
X104149497Y-76320028D01*
X104145472Y-76321208D01*
X104143205Y-76321523D01*
X104142582Y-76321375D01*
X104138252Y-76318020D01*
X104128807Y-76310256D01*
X104115204Y-76298884D01*
X104098400Y-76284707D01*
X104079352Y-76268527D01*
X104071838Y-76262117D01*
X104055430Y-76248144D01*
X104033585Y-76229605D01*
X104006992Y-76207082D01*
X103976341Y-76181156D01*
X103942321Y-76152409D01*
X103905621Y-76121420D01*
X103866931Y-76088773D01*
X103826939Y-76055048D01*
X103786335Y-76020826D01*
X103745809Y-75986689D01*
X103706049Y-75953217D01*
X103667746Y-75920993D01*
X103631587Y-75890598D01*
X103598262Y-75862613D01*
X103573760Y-75842059D01*
X103548593Y-75820905D01*
X103521654Y-75798163D01*
X103494786Y-75775395D01*
X103469829Y-75754162D01*
X103448625Y-75736025D01*
X103443285Y-75731433D01*
X103414508Y-75706952D01*
X103390513Y-75687366D01*
X103370283Y-75672060D01*
X103352799Y-75660416D01*
X103337044Y-75651818D01*
X103322002Y-75645649D01*
X103306654Y-75641292D01*
X103289984Y-75638131D01*
X103289136Y-75638000D01*
X103281470Y-75637169D01*
X103273040Y-75637120D01*
X103263099Y-75638039D01*
X103250904Y-75640109D01*
X103235710Y-75643514D01*
X103216772Y-75648438D01*
X103193345Y-75655067D01*
X103164684Y-75663583D01*
X103130044Y-75674171D01*
X103088682Y-75687016D01*
X103080040Y-75689715D01*
X103041811Y-75701643D01*
X103001211Y-75714280D01*
X102960017Y-75727073D01*
X102920010Y-75739473D01*
X102882966Y-75750926D01*
X102850664Y-75760882D01*
X102833643Y-75766108D01*
X102814031Y-75772135D01*
X102787582Y-75780290D01*
X102755102Y-75790321D01*
X102717394Y-75801982D01*
X102675262Y-75815023D01*
X102629512Y-75829194D01*
X102580946Y-75844246D01*
X102530370Y-75859932D01*
X102478587Y-75876000D01*
X102426402Y-75892204D01*
X102407576Y-75898052D01*
X102326250Y-75923314D01*
X102252022Y-75946365D01*
X102184348Y-75967372D01*
X102122686Y-75986504D01*
X102066495Y-76003927D01*
X102015232Y-76019809D01*
X101968353Y-76034318D01*
X101925318Y-76047621D01*
X101885584Y-76059886D01*
X101848608Y-76071281D01*
X101813848Y-76081973D01*
X101780762Y-76092130D01*
X101748808Y-76101919D01*
X101717442Y-76111508D01*
X101686123Y-76121065D01*
X101669883Y-76126014D01*
X101637000Y-76136138D01*
X101605784Y-76145954D01*
X101577252Y-76155126D01*
X101552420Y-76163319D01*
X101532305Y-76170198D01*
X101517925Y-76175429D01*
X101510721Y-76178452D01*
X101484501Y-76196084D01*
X101462488Y-76219800D01*
X101447214Y-76245495D01*
X101443850Y-76254133D01*
X101438518Y-76269615D01*
X101431481Y-76291100D01*
X101423002Y-76317748D01*
X101413345Y-76348720D01*
X101402775Y-76383176D01*
X101391555Y-76420276D01*
X101379949Y-76459179D01*
X101377299Y-76468136D01*
X101362197Y-76519250D01*
X101346217Y-76573307D01*
X101329547Y-76629670D01*
X101312377Y-76687700D01*
X101294896Y-76746761D01*
X101277292Y-76806216D01*
X101259754Y-76865426D01*
X101242472Y-76923755D01*
X101225634Y-76980565D01*
X101209430Y-77035220D01*
X101194047Y-77087082D01*
X101179675Y-77135513D01*
X101166503Y-77179876D01*
X101154720Y-77219535D01*
X101144514Y-77253851D01*
X101136076Y-77282187D01*
X101129592Y-77303907D01*
X101126488Y-77314269D01*
X101115285Y-77354632D01*
X101107815Y-77389153D01*
X101103935Y-77418989D01*
X101103503Y-77445298D01*
X101106377Y-77469240D01*
X101107048Y-77472527D01*
X101109963Y-77481589D01*
X101115950Y-77496695D01*
X101124516Y-77516728D01*
X101135169Y-77540569D01*
X101147417Y-77567099D01*
X101160765Y-77595200D01*
X101164124Y-77602149D01*
X101178874Y-77632581D01*
X101193865Y-77663554D01*
X101208351Y-77693528D01*
X101221589Y-77720961D01*
X101232834Y-77744312D01*
X101241343Y-77762040D01*
X101241486Y-77762339D01*
X101250550Y-77781285D01*
X101262190Y-77805617D01*
X101275531Y-77833504D01*
X101289695Y-77863113D01*
X101303807Y-77892613D01*
X101310384Y-77906362D01*
X101364571Y-78019220D01*
X101416063Y-78125590D01*
X101465289Y-78226349D01*
X101512678Y-78322373D01*
X101558658Y-78414541D01*
X101565640Y-78428444D01*
X101586521Y-78470113D01*
X101604048Y-78505463D01*
X101618529Y-78535288D01*
X101630272Y-78560380D01*
X101639589Y-78581534D01*
X101646788Y-78599542D01*
X101652178Y-78615199D01*
X101656069Y-78629299D01*
X101658770Y-78642633D01*
X101660590Y-78655997D01*
X101661839Y-78670184D01*
X101662248Y-78676256D01*
X101662826Y-78691849D01*
X101662424Y-78707550D01*
X101660845Y-78724276D01*
X101657893Y-78742942D01*
X101653375Y-78764465D01*
X101647093Y-78789760D01*
X101638853Y-78819742D01*
X101628460Y-78855329D01*
X101615717Y-78897435D01*
X101613545Y-78904519D01*
X101604358Y-78934509D01*
X101593314Y-78970672D01*
X101580866Y-79011518D01*
X101567465Y-79055561D01*
X101553565Y-79101311D01*
X101539619Y-79147280D01*
X101526078Y-79191980D01*
X101518036Y-79218569D01*
X101491215Y-79307283D01*
X101466567Y-79388792D01*
X101443953Y-79463549D01*
X101423235Y-79532010D01*
X101404274Y-79594627D01*
X101386933Y-79651857D01*
X101371074Y-79704154D01*
X101356557Y-79751971D01*
X101343246Y-79795764D01*
X101331002Y-79835986D01*
X101319686Y-79873093D01*
X101309161Y-79907539D01*
X101299289Y-79939779D01*
X101289930Y-79970266D01*
X101280948Y-79999456D01*
X101272204Y-80027803D01*
X101263559Y-80055761D01*
X101262030Y-80060701D01*
X101241657Y-80126568D01*
X101223439Y-80185629D01*
X101207126Y-80238712D01*
X101192466Y-80286643D01*
X101179208Y-80330248D01*
X101167103Y-80370354D01*
X101155898Y-80407785D01*
X101145343Y-80443369D01*
X101135187Y-80477933D01*
X101131439Y-80490769D01*
X101122599Y-80520531D01*
X101112017Y-80555262D01*
X101100506Y-80592347D01*
X101088879Y-80629171D01*
X101077949Y-80663122D01*
X101075427Y-80670837D01*
X101062114Y-80712011D01*
X101051353Y-80746923D01*
X101042888Y-80776803D01*
X101036464Y-80802882D01*
X101031825Y-80826389D01*
X101028715Y-80848555D01*
X101026878Y-80870609D01*
X101026059Y-80893783D01*
X101025950Y-80908835D01*
X100809841Y-80908835D01*
X100810160Y-80879424D01*
X100811423Y-80850397D01*
X100813841Y-80822594D01*
X100817646Y-80794851D01*
X100823068Y-80766006D01*
X100830341Y-80734899D01*
X100839696Y-80700365D01*
X100851365Y-80661244D01*
X100865579Y-80616373D01*
X100873264Y-80592785D01*
X100883527Y-80561003D01*
X100895119Y-80524283D01*
X100907188Y-80485382D01*
X100918877Y-80447059D01*
X100929334Y-80412073D01*
X100931484Y-80404755D01*
X100940966Y-80372662D01*
X100952807Y-80333104D01*
X100966956Y-80286246D01*
X100983363Y-80232253D01*
X101001978Y-80171290D01*
X101022749Y-80103522D01*
X101045627Y-80029114D01*
X101070561Y-79948231D01*
X101097501Y-79861038D01*
X101100708Y-79850668D01*
X101106338Y-79832373D01*
X101114009Y-79807297D01*
X101123454Y-79776321D01*
X101134405Y-79740326D01*
X101146595Y-79700193D01*
X101159757Y-79656802D01*
X101173623Y-79611033D01*
X101187926Y-79563768D01*
X101202399Y-79515887D01*
X101209427Y-79492612D01*
X101225307Y-79440048D01*
X101242174Y-79384281D01*
X101259779Y-79326134D01*
X101277872Y-79266427D01*
X101296205Y-79205982D01*
X101314526Y-79145620D01*
X101332587Y-79086163D01*
X101350138Y-79028431D01*
X101366930Y-78973246D01*
X101382712Y-78921429D01*
X101397235Y-78873802D01*
X101410250Y-78831186D01*
X101421507Y-78794402D01*
X101430756Y-78764272D01*
X101432534Y-78758496D01*
X101436919Y-78744568D01*
X101440637Y-78732535D01*
X101443485Y-78721742D01*
X101445260Y-78711535D01*
X101445758Y-78701258D01*
X101444776Y-78690256D01*
X101442109Y-78677874D01*
X101437554Y-78663456D01*
X101430908Y-78646348D01*
X101421966Y-78625895D01*
X101410527Y-78601441D01*
X101396384Y-78572331D01*
X101379336Y-78537910D01*
X101359179Y-78497523D01*
X101338667Y-78456449D01*
X101317295Y-78413439D01*
X101293172Y-78364613D01*
X101266984Y-78311375D01*
X101239421Y-78255133D01*
X101211168Y-78197295D01*
X101182914Y-78139266D01*
X101155345Y-78082455D01*
X101129149Y-78028268D01*
X101107060Y-77982374D01*
X101085518Y-77937509D01*
X101064192Y-77893104D01*
X101043462Y-77849945D01*
X101023706Y-77808821D01*
X101005302Y-77770520D01*
X100988630Y-77735830D01*
X100974068Y-77705540D01*
X100961994Y-77680437D01*
X100952789Y-77661309D01*
X100948965Y-77653373D01*
X100930460Y-77613866D01*
X100915824Y-77579674D01*
X100904692Y-77549324D01*
X100896695Y-77521346D01*
X100891468Y-77494265D01*
X100888643Y-77466611D01*
X100887853Y-77436910D01*
X100888443Y-77410607D01*
X100888723Y-77401950D01*
X100888925Y-77394319D01*
X100889160Y-77387295D01*
X100889541Y-77380460D01*
X100890180Y-77373397D01*
X100891190Y-77365686D01*
X100892684Y-77356909D01*
X100894773Y-77346650D01*
X100897570Y-77334488D01*
X100901189Y-77320006D01*
X100905740Y-77302786D01*
X100911337Y-77282410D01*
X100918092Y-77258459D01*
X100926117Y-77230516D01*
X100935525Y-77198161D01*
X100946429Y-77160978D01*
X100958941Y-77118547D01*
X100973173Y-77070451D01*
X100989237Y-77016271D01*
X101007247Y-76955589D01*
X101027315Y-76887987D01*
X101045059Y-76828192D01*
X101062371Y-76769841D01*
X101079575Y-76711857D01*
X101096467Y-76654921D01*
X101112845Y-76599714D01*
X101128509Y-76546919D01*
X101143254Y-76497217D01*
X101156880Y-76451290D01*
X101169184Y-76409818D01*
X101179964Y-76373483D01*
X101189017Y-76342968D01*
X101196141Y-76318953D01*
X101199951Y-76306110D01*
X101211940Y-76266135D01*
X101222258Y-76232869D01*
X101231302Y-76205292D01*
X101239466Y-76182383D01*
X101247145Y-76163121D01*
X101254734Y-76146485D01*
X101262628Y-76131456D01*
X101271223Y-76117011D01*
X101276082Y-76109420D01*
X101308714Y-76066388D01*
X101346351Y-76029598D01*
X101388989Y-75999053D01*
X101423984Y-75980367D01*
X101435708Y-75975531D01*
X101453962Y-75968810D01*
X101477602Y-75960586D01*
X101505486Y-75951245D01*
X101536471Y-75941170D01*
X101569413Y-75930745D01*
X101597449Y-75922094D01*
X101663286Y-75901979D01*
X101736215Y-75879615D01*
X101815699Y-75855169D01*
X101901203Y-75828805D01*
X101992190Y-75800690D01*
X102088124Y-75770990D01*
X102188468Y-75739869D01*
X102292685Y-75707494D01*
X102355568Y-75687935D01*
X102405155Y-75672517D01*
X102458195Y-75656046D01*
X102513196Y-75638985D01*
X102568666Y-75621797D01*
X102623112Y-75604942D01*
X102675042Y-75588884D01*
X102722963Y-75574084D01*
X102765383Y-75561005D01*
X102781635Y-75556002D01*
X102823297Y-75543168D01*
X102866634Y-75529787D01*
X102910218Y-75516302D01*
X102952620Y-75503157D01*
X102992411Y-75490795D01*
X103028161Y-75479660D01*
X103058442Y-75470193D01*
X103071688Y-75466035D01*
X103108941Y-75454403D01*
X103139751Y-75445048D01*
X103165273Y-75437727D01*
X103186657Y-75432195D01*
X103205056Y-75428209D01*
X103221622Y-75425524D01*
X103237507Y-75423896D01*
X103253863Y-75423083D01*
X103271843Y-75422839D01*
X103275713Y-75422837D01*
X103328543Y-75426235D01*
G37*
G36*
X109870859Y-75850170D02*
G01*
X109909015Y-75851217D01*
X109944016Y-75852903D01*
X109974273Y-75855228D01*
X109992771Y-75857373D01*
X110098495Y-75876125D01*
X110201048Y-75902205D01*
X110300345Y-75935577D01*
X110396297Y-75976199D01*
X110488819Y-76024034D01*
X110577823Y-76079042D01*
X110663222Y-76141185D01*
X110710884Y-76180323D01*
X110732535Y-76199713D01*
X110757761Y-76223661D01*
X110785096Y-76250661D01*
X110813073Y-76279203D01*
X110840226Y-76307781D01*
X110865091Y-76334886D01*
X110886200Y-76359010D01*
X110895402Y-76370120D01*
X110967000Y-76464388D01*
X111031707Y-76561065D01*
X111089370Y-76659811D01*
X111139830Y-76760286D01*
X111182935Y-76862148D01*
X111218526Y-76965057D01*
X111246449Y-77068672D01*
X111266549Y-77172653D01*
X111268707Y-77187066D01*
X111275087Y-77234794D01*
X111279698Y-77278420D01*
X111282687Y-77320482D01*
X111284200Y-77363518D01*
X111284384Y-77410068D01*
X111283751Y-77448231D01*
X111281386Y-77511162D01*
X111277165Y-77568711D01*
X111270745Y-77623352D01*
X111261784Y-77677559D01*
X111249941Y-77733807D01*
X111237022Y-77786343D01*
X111205552Y-77892894D01*
X111166980Y-77997155D01*
X111121180Y-78099350D01*
X111068027Y-78199698D01*
X111007395Y-78298423D01*
X110939158Y-78395746D01*
X110863191Y-78491889D01*
X110791033Y-78574397D01*
X110768712Y-78599156D01*
X110751466Y-78619224D01*
X110738683Y-78635544D01*
X110729753Y-78649057D01*
X110724067Y-78660704D01*
X110721012Y-78671427D01*
X110719980Y-78682166D01*
X110719962Y-78684003D01*
X110720689Y-78695294D01*
X110723208Y-78707015D01*
X110728028Y-78720293D01*
X110735656Y-78736258D01*
X110746601Y-78756036D01*
X110761369Y-78780758D01*
X110769343Y-78793708D01*
X110809599Y-78860413D01*
X110850917Y-78932150D01*
X110892335Y-79007101D01*
X110932894Y-79083451D01*
X110971634Y-79159383D01*
X111007594Y-79233081D01*
X111039813Y-79302728D01*
X111046859Y-79318584D01*
X111120285Y-79494664D01*
X111186551Y-79673310D01*
X111245709Y-79854737D01*
X111297809Y-80039159D01*
X111342903Y-80226790D01*
X111381042Y-80417846D01*
X111412276Y-80612541D01*
X111436658Y-80811089D01*
X111454238Y-81013706D01*
X111455535Y-81032854D01*
X111457332Y-81065605D01*
X111458874Y-81104860D01*
X111460154Y-81149406D01*
X111461169Y-81198028D01*
X111461914Y-81249510D01*
X111462385Y-81302639D01*
X111462577Y-81356200D01*
X111462485Y-81408978D01*
X111462105Y-81459759D01*
X111461433Y-81507328D01*
X111460463Y-81550471D01*
X111459192Y-81587972D01*
X111457721Y-81616946D01*
X111442059Y-81815934D01*
X111420199Y-82010961D01*
X111391965Y-82202811D01*
X111357183Y-82392269D01*
X111315677Y-82580118D01*
X111267272Y-82767143D01*
X111211793Y-82954127D01*
X111149063Y-83141854D01*
X111078909Y-83331109D01*
X111068308Y-83358221D01*
X111058048Y-83383908D01*
X111050057Y-83402913D01*
X111043908Y-83416090D01*
X111039177Y-83424290D01*
X111035440Y-83428366D01*
X111032933Y-83429232D01*
X111027934Y-83427162D01*
X111023645Y-83420005D01*
X111019214Y-83406340D01*
X111019183Y-83406228D01*
X110996018Y-83329136D01*
X110967649Y-83247709D01*
X110933935Y-83161573D01*
X110894734Y-83070356D01*
X110875089Y-83027168D01*
X110860608Y-82996191D01*
X110844445Y-82962225D01*
X110826922Y-82925909D01*
X110808366Y-82887880D01*
X110789102Y-82848776D01*
X110769453Y-82809236D01*
X110749745Y-82769897D01*
X110730303Y-82731397D01*
X110711451Y-82694374D01*
X110693514Y-82659467D01*
X110676817Y-82627312D01*
X110661685Y-82598548D01*
X110648442Y-82573813D01*
X110637413Y-82553745D01*
X110628923Y-82538981D01*
X110623298Y-82530160D01*
X110620890Y-82527877D01*
X110618924Y-82533143D01*
X110616297Y-82544115D01*
X110613528Y-82558585D01*
X110613103Y-82561095D01*
X110604181Y-82611082D01*
X110593024Y-82667413D01*
X110579934Y-82728844D01*
X110565211Y-82794130D01*
X110549157Y-82862026D01*
X110532073Y-82931288D01*
X110514260Y-83000671D01*
X110496017Y-83068930D01*
X110477648Y-83134821D01*
X110459451Y-83197099D01*
X110458822Y-83199196D01*
X110396813Y-83392867D01*
X110327368Y-83586162D01*
X110250936Y-83778046D01*
X110167966Y-83967487D01*
X110078906Y-84153449D01*
X109984205Y-84334901D01*
X109903940Y-84477397D01*
X109802540Y-84643604D01*
X109693613Y-84807130D01*
X109577183Y-84967942D01*
X109453274Y-85126006D01*
X109326966Y-85275522D01*
X109307271Y-85297776D01*
X109285362Y-85322111D01*
X109261816Y-85347919D01*
X109237214Y-85374592D01*
X109212136Y-85401521D01*
X109187162Y-85428099D01*
X109162871Y-85453717D01*
X109139843Y-85477766D01*
X109118658Y-85499640D01*
X109099896Y-85518730D01*
X109084136Y-85534427D01*
X109071959Y-85546123D01*
X109063944Y-85553210D01*
X109060671Y-85555081D01*
X109060624Y-85554905D01*
X109061109Y-85550460D01*
X109062526Y-85538540D01*
X109064817Y-85519610D01*
X109067926Y-85494134D01*
X109071794Y-85462578D01*
X109076365Y-85425406D01*
X109081581Y-85383083D01*
X109087386Y-85336074D01*
X109093720Y-85284844D01*
X109100529Y-85229857D01*
X109107753Y-85171578D01*
X109115336Y-85110473D01*
X109123220Y-85047006D01*
X109126634Y-85019543D01*
X109134635Y-84955131D01*
X109142355Y-84892830D01*
X109149739Y-84833110D01*
X109156729Y-84776439D01*
X109163267Y-84723289D01*
X109169296Y-84674127D01*
X109174759Y-84629424D01*
X109179599Y-84589649D01*
X109183757Y-84555273D01*
X109187177Y-84526765D01*
X109189802Y-84504593D01*
X109191574Y-84489229D01*
X109192435Y-84481141D01*
X109192512Y-84480035D01*
X109192089Y-84474531D01*
X109189987Y-84474693D01*
X109184577Y-84480782D01*
X109184065Y-84481397D01*
X109178285Y-84487837D01*
X109167264Y-84499600D01*
X109151370Y-84516304D01*
X109130975Y-84537569D01*
X109106446Y-84563014D01*
X109078155Y-84592258D01*
X109046471Y-84624920D01*
X109011764Y-84660618D01*
X108974403Y-84698973D01*
X108934759Y-84739602D01*
X108893200Y-84782126D01*
X108850098Y-84826163D01*
X108805820Y-84871332D01*
X108785316Y-84892226D01*
X108699971Y-84978896D01*
X108617252Y-85062362D01*
X108537452Y-85142336D01*
X108460865Y-85218531D01*
X108387786Y-85290657D01*
X108318509Y-85358426D01*
X108253326Y-85421550D01*
X108192533Y-85479741D01*
X108136423Y-85532709D01*
X108085291Y-85580168D01*
X108066265Y-85597573D01*
X107934447Y-85714543D01*
X107804042Y-85824027D01*
X107674597Y-85926320D01*
X107545659Y-86021715D01*
X107416776Y-86110508D01*
X107287496Y-86192993D01*
X107157366Y-86269466D01*
X107025935Y-86340220D01*
X106892749Y-86405550D01*
X106757357Y-86465752D01*
X106692251Y-86492592D01*
X106664144Y-86503619D01*
X106632785Y-86515446D01*
X106599107Y-86527762D01*
X106564041Y-86540256D01*
X106528517Y-86552618D01*
X106493467Y-86564536D01*
X106459822Y-86575699D01*
X106428513Y-86585798D01*
X106400472Y-86594521D01*
X106376629Y-86601557D01*
X106357917Y-86606596D01*
X106345265Y-86609327D01*
X106341255Y-86609733D01*
X106338780Y-86609455D01*
X106336834Y-86608018D01*
X106335321Y-86604511D01*
X106334147Y-86598028D01*
X106333218Y-86587657D01*
X106332437Y-86572492D01*
X106331711Y-86551624D01*
X106330944Y-86524143D01*
X106330491Y-86506716D01*
X106329760Y-86474959D01*
X106329004Y-86436003D01*
X106328231Y-86390651D01*
X106327451Y-86339707D01*
X106326670Y-86283973D01*
X106325898Y-86224251D01*
X106325142Y-86161346D01*
X106324410Y-86096059D01*
X106323711Y-86029193D01*
X106323054Y-85961552D01*
X106322445Y-85893938D01*
X106321893Y-85827154D01*
X106321407Y-85762002D01*
X106320994Y-85699286D01*
X106320663Y-85639808D01*
X106320422Y-85584372D01*
X106320279Y-85533779D01*
X106320241Y-85499330D01*
X106320192Y-85263065D01*
X106263183Y-85256477D01*
X106162922Y-85240937D01*
X106064923Y-85217834D01*
X105969548Y-85187341D01*
X105877159Y-85149628D01*
X105788119Y-85104866D01*
X105702788Y-85053227D01*
X105621529Y-84994882D01*
X105544704Y-84930001D01*
X105516582Y-84903506D01*
X105461526Y-84847260D01*
X105412035Y-84790508D01*
X105366663Y-84731368D01*
X105323962Y-84667957D01*
X105283355Y-84599932D01*
X105272148Y-84580409D01*
X105263512Y-84566459D01*
X105256243Y-84556602D01*
X105249135Y-84549355D01*
X105240984Y-84543239D01*
X105233257Y-84538379D01*
X105224392Y-84533074D01*
X105209591Y-84524287D01*
X105189819Y-84512587D01*
X105166037Y-84498542D01*
X105139211Y-84482722D01*
X105110304Y-84465697D01*
X105083998Y-84450220D01*
X105052891Y-84431927D01*
X105021997Y-84413755D01*
X104992481Y-84396389D01*
X104965506Y-84380513D01*
X104942234Y-84366812D01*
X104923830Y-84355971D01*
X104913971Y-84350158D01*
X104895415Y-84339219D01*
X104872198Y-84325545D01*
X104846558Y-84310454D01*
X104820733Y-84295264D01*
X104803953Y-84285399D01*
X104781205Y-84272024D01*
X104752108Y-84254906D01*
X104717205Y-84234364D01*
X104677040Y-84210720D01*
X104632156Y-84184292D01*
X104583097Y-84155402D01*
X104530406Y-84124370D01*
X104474627Y-84091514D01*
X104416303Y-84057156D01*
X104355979Y-84021616D01*
X104294196Y-83985214D01*
X104231500Y-83948270D01*
X104168433Y-83911103D01*
X104161852Y-83907225D01*
X104121551Y-83883477D01*
X104081478Y-83859870D01*
X104042480Y-83836904D01*
X104005402Y-83815075D01*
X103971090Y-83794880D01*
X103940388Y-83776818D01*
X103914143Y-83761387D01*
X103893200Y-83749082D01*
X103879808Y-83741226D01*
X103863074Y-83731408D01*
X103840430Y-83718103D01*
X103812856Y-83701888D01*
X103781333Y-83683341D01*
X103746844Y-83663038D01*
X103710367Y-83641559D01*
X103672886Y-83619479D01*
X103635381Y-83597376D01*
X103631769Y-83595247D01*
X103590999Y-83571217D01*
X103547435Y-83545543D01*
X103502516Y-83519074D01*
X103457685Y-83492660D01*
X103414381Y-83467148D01*
X103374047Y-83443389D01*
X103338122Y-83422231D01*
X103315719Y-83409040D01*
X103181698Y-83330132D01*
X103179048Y-83348677D01*
X103178493Y-83356463D01*
X103177962Y-83371348D01*
X103177469Y-83392432D01*
X103177027Y-83418811D01*
X103176649Y-83449586D01*
X103176348Y-83483853D01*
X103176139Y-83520711D01*
X103176048Y-83550487D01*
X103175884Y-83594345D01*
X103175577Y-83632908D01*
X103175136Y-83665746D01*
X103174571Y-83692429D01*
X103173892Y-83712529D01*
X103173108Y-83725615D01*
X103172229Y-83731258D01*
X103171950Y-83731436D01*
X103167974Y-83727224D01*
X103160904Y-83718220D01*
X103152157Y-83706239D01*
X103150717Y-83704196D01*
X103145995Y-83697489D01*
X103136991Y-83684722D01*
X103124040Y-83666371D01*
X103107479Y-83642910D01*
X103087641Y-83614815D01*
X103064863Y-83582561D01*
X103039480Y-83546622D01*
X103011828Y-83507473D01*
X102982242Y-83465590D01*
X102951058Y-83421447D01*
X102918610Y-83375520D01*
X102895787Y-83343218D01*
X102825206Y-83243327D01*
X102759093Y-83149763D01*
X102697304Y-83062320D01*
X102639693Y-82980787D01*
X102586116Y-82904957D01*
X102536427Y-82834620D01*
X102490481Y-82769569D01*
X102448132Y-82709595D01*
X102409236Y-82654489D01*
X102373647Y-82604042D01*
X102341221Y-82558046D01*
X102311811Y-82516292D01*
X102285273Y-82478572D01*
X102261462Y-82444677D01*
X102240232Y-82414399D01*
X102221438Y-82387528D01*
X102215542Y-82379071D01*
X102418326Y-82379071D01*
X102420481Y-82382959D01*
X102426745Y-82392979D01*
X102436781Y-82408615D01*
X102450247Y-82429350D01*
X102466805Y-82454665D01*
X102486115Y-82484045D01*
X102507839Y-82516971D01*
X102531636Y-82552927D01*
X102557167Y-82591395D01*
X102584094Y-82631857D01*
X102589371Y-82639775D01*
X102760497Y-82896473D01*
X102803071Y-82878689D01*
X102818624Y-82872171D01*
X102839993Y-82863184D01*
X102865625Y-82852384D01*
X102893969Y-82840425D01*
X102923474Y-82827960D01*
X102946640Y-82818161D01*
X102976553Y-82805471D01*
X102999915Y-82795432D01*
X103017555Y-82787604D01*
X103030300Y-82781542D01*
X103038980Y-82776806D01*
X103044422Y-82772952D01*
X103047454Y-82769540D01*
X103048905Y-82766126D01*
X103049458Y-82763271D01*
X103049865Y-82756895D01*
X103050318Y-82743361D01*
X103050804Y-82723512D01*
X103051307Y-82698190D01*
X103051811Y-82668238D01*
X103052301Y-82634499D01*
X103052761Y-82597815D01*
X103053164Y-82560337D01*
X103055047Y-82369549D01*
X103026358Y-82357651D01*
X103004025Y-82348434D01*
X102977111Y-82337402D01*
X102946318Y-82324837D01*
X102912352Y-82311023D01*
X102875917Y-82296243D01*
X102837716Y-82280779D01*
X102798453Y-82264917D01*
X102758832Y-82248937D01*
X102719558Y-82233124D01*
X102681333Y-82217761D01*
X102644863Y-82203131D01*
X102610851Y-82189517D01*
X102580002Y-82177202D01*
X102553018Y-82166471D01*
X102530605Y-82157604D01*
X102513466Y-82150887D01*
X102502305Y-82146602D01*
X102497825Y-82145032D01*
X102497796Y-82145030D01*
X102495756Y-82148651D01*
X102491644Y-82158767D01*
X102485838Y-82174259D01*
X102478721Y-82194004D01*
X102470673Y-82216884D01*
X102462073Y-82241777D01*
X102453302Y-82267563D01*
X102444742Y-82293121D01*
X102436771Y-82317331D01*
X102429772Y-82339073D01*
X102424123Y-82357225D01*
X102420206Y-82370668D01*
X102418402Y-82378281D01*
X102418326Y-82379071D01*
X102215542Y-82379071D01*
X102204936Y-82363857D01*
X102190579Y-82343176D01*
X102178222Y-82325277D01*
X102167721Y-82309952D01*
X102158930Y-82296992D01*
X102151705Y-82286188D01*
X102145899Y-82277332D01*
X102141367Y-82270215D01*
X102137965Y-82264628D01*
X102135547Y-82260363D01*
X102133969Y-82257212D01*
X102133084Y-82254965D01*
X102132747Y-82253414D01*
X102132815Y-82252351D01*
X102133140Y-82251566D01*
X102133579Y-82250852D01*
X102133985Y-82250000D01*
X102134193Y-82249046D01*
X102134828Y-82242684D01*
X102136162Y-82228891D01*
X102138144Y-82208205D01*
X102140725Y-82181160D01*
X102143853Y-82148293D01*
X102147478Y-82110139D01*
X102151549Y-82067235D01*
X102156016Y-82020117D01*
X102160827Y-81969319D01*
X102165933Y-81915379D01*
X102171283Y-81858832D01*
X102176826Y-81800214D01*
X102182511Y-81740061D01*
X102188288Y-81678909D01*
X102194106Y-81617293D01*
X102199915Y-81555750D01*
X102205664Y-81494816D01*
X102211302Y-81435027D01*
X102216779Y-81376918D01*
X102222044Y-81321025D01*
X102227046Y-81267885D01*
X102231736Y-81218033D01*
X102236061Y-81172005D01*
X102239972Y-81130337D01*
X102243419Y-81093565D01*
X102246349Y-81062225D01*
X102248714Y-81036853D01*
X102249827Y-81024853D01*
X102251778Y-81004180D01*
X102446508Y-81004180D01*
X102447458Y-81013433D01*
X102449290Y-81029657D01*
X102451934Y-81052282D01*
X102455320Y-81080738D01*
X102459377Y-81114458D01*
X102464033Y-81152871D01*
X102469217Y-81195408D01*
X102474860Y-81241501D01*
X102480890Y-81290581D01*
X102487237Y-81342078D01*
X102493829Y-81395424D01*
X102500595Y-81450049D01*
X102507466Y-81505384D01*
X102514369Y-81560861D01*
X102521235Y-81615910D01*
X102527992Y-81669962D01*
X102534570Y-81722448D01*
X102540898Y-81772800D01*
X102546904Y-81820447D01*
X102552518Y-81864822D01*
X102557670Y-81905354D01*
X102562288Y-81941475D01*
X102566302Y-81972616D01*
X102569640Y-81998208D01*
X102572232Y-82017682D01*
X102574008Y-82030468D01*
X102574895Y-82035998D01*
X102574961Y-82036183D01*
X102579114Y-82037756D01*
X102590067Y-82041840D01*
X102607119Y-82048176D01*
X102629563Y-82056503D01*
X102656698Y-82066558D01*
X102687817Y-82078082D01*
X102722219Y-82090814D01*
X102759197Y-82104492D01*
X102775634Y-82110569D01*
X102973665Y-82183783D01*
X102975979Y-82171408D01*
X102976763Y-82163499D01*
X102977520Y-82149128D01*
X102978196Y-82129833D01*
X102978735Y-82107151D01*
X102979060Y-82085020D01*
X102979244Y-82069669D01*
X102979550Y-82047060D01*
X102979966Y-82017936D01*
X102980482Y-81983038D01*
X102981085Y-81943109D01*
X102981766Y-81898891D01*
X102982511Y-81851127D01*
X102983310Y-81800558D01*
X102984152Y-81747927D01*
X102985024Y-81693976D01*
X102985596Y-81658953D01*
X102986598Y-81597281D01*
X102987658Y-81531127D01*
X102988753Y-81461901D01*
X102989863Y-81391014D01*
X102990170Y-81371203D01*
X103666961Y-81371203D01*
X103679500Y-81933144D01*
X103682336Y-82060271D01*
X103684999Y-82179643D01*
X103687495Y-82291505D01*
X103689831Y-82396100D01*
X103692013Y-82493673D01*
X103694048Y-82584469D01*
X103695943Y-82668731D01*
X103697704Y-82746705D01*
X103699338Y-82818633D01*
X103700852Y-82884762D01*
X103702253Y-82945334D01*
X103703546Y-83000595D01*
X103704739Y-83050788D01*
X103705838Y-83096158D01*
X103706850Y-83136949D01*
X103707782Y-83173406D01*
X103708640Y-83205773D01*
X103709431Y-83234294D01*
X103710161Y-83259213D01*
X103710838Y-83280775D01*
X103711467Y-83299225D01*
X103712056Y-83314805D01*
X103712611Y-83327762D01*
X103713138Y-83338339D01*
X103713646Y-83346780D01*
X103714139Y-83353330D01*
X103714624Y-83358233D01*
X103715110Y-83361733D01*
X103715601Y-83364075D01*
X103716105Y-83365503D01*
X103716628Y-83366261D01*
X103717177Y-83366594D01*
X103717759Y-83366746D01*
X103718380Y-83366962D01*
X103718519Y-83367040D01*
X103720006Y-83367949D01*
X103721710Y-83368975D01*
X103724012Y-83370333D01*
X103727295Y-83372242D01*
X103731941Y-83374919D01*
X103738333Y-83378582D01*
X103746854Y-83383449D01*
X103757885Y-83389735D01*
X103771809Y-83397661D01*
X103789009Y-83407441D01*
X103809867Y-83419295D01*
X103834765Y-83433440D01*
X103864086Y-83450093D01*
X103898213Y-83469472D01*
X103937527Y-83491793D01*
X103982411Y-83517276D01*
X104033247Y-83546137D01*
X104090419Y-83578593D01*
X104129847Y-83600976D01*
X104167575Y-83622270D01*
X104200847Y-83640795D01*
X104229272Y-83656342D01*
X104252457Y-83668705D01*
X104270012Y-83677675D01*
X104281545Y-83683043D01*
X104286664Y-83684603D01*
X104286891Y-83684411D01*
X104286642Y-83680069D01*
X104285752Y-83668051D01*
X104284245Y-83648655D01*
X104282145Y-83622179D01*
X104279477Y-83588921D01*
X104276265Y-83549180D01*
X104272534Y-83503252D01*
X104268308Y-83451436D01*
X104265102Y-83412245D01*
X105168234Y-83412245D01*
X105168450Y-83436331D01*
X105168867Y-83463641D01*
X105169462Y-83493220D01*
X105170213Y-83524115D01*
X105171095Y-83555371D01*
X105172087Y-83586033D01*
X105173164Y-83615148D01*
X105174303Y-83641761D01*
X105175482Y-83664918D01*
X105176678Y-83683665D01*
X105177841Y-83696828D01*
X105194347Y-83814572D01*
X105216955Y-83927263D01*
X105245740Y-84035110D01*
X105280777Y-84138322D01*
X105322141Y-84237109D01*
X105369906Y-84331680D01*
X105424149Y-84422245D01*
X105453236Y-84465395D01*
X105512678Y-84545162D01*
X105575617Y-84619774D01*
X105641619Y-84688889D01*
X105710248Y-84752162D01*
X105781070Y-84809249D01*
X105853649Y-84859806D01*
X105927550Y-84903488D01*
X106002338Y-84939953D01*
X106077577Y-84968855D01*
X106098213Y-84975408D01*
X106177265Y-84995351D01*
X106256723Y-85007433D01*
X106336234Y-85011626D01*
X106415441Y-85007902D01*
X106454213Y-85003153D01*
X106531484Y-84987731D01*
X106608071Y-84964466D01*
X106683749Y-84933504D01*
X106758294Y-84894991D01*
X106831479Y-84849071D01*
X106903078Y-84795890D01*
X106972868Y-84735595D01*
X107040621Y-84668330D01*
X107106113Y-84594241D01*
X107126319Y-84569411D01*
X107195317Y-84476834D01*
X107257067Y-84381063D01*
X107311630Y-84281957D01*
X107359066Y-84179374D01*
X107399436Y-84073174D01*
X107432800Y-83963215D01*
X107459218Y-83849354D01*
X107476039Y-83750923D01*
X107484276Y-83688175D01*
X107490620Y-83627576D01*
X107495036Y-83569995D01*
X107497492Y-83516299D01*
X107497954Y-83467359D01*
X107496387Y-83424043D01*
X107492758Y-83387219D01*
X107490663Y-83374176D01*
X107487422Y-83357483D01*
X107484534Y-83344399D01*
X107482363Y-83336470D01*
X107481411Y-83334847D01*
X107480168Y-83339200D01*
X107477915Y-83350007D01*
X107474930Y-83365823D01*
X107471492Y-83385205D01*
X107470007Y-83393904D01*
X107448714Y-83503662D01*
X107422939Y-83607015D01*
X107392572Y-83704259D01*
X107357505Y-83795691D01*
X107317629Y-83881607D01*
X107272834Y-83962302D01*
X107243651Y-84008187D01*
X107191937Y-84078736D01*
X107134045Y-84145172D01*
X107070867Y-84206620D01*
X107003298Y-84262206D01*
X106938281Y-84307252D01*
X106913452Y-84322000D01*
X106883341Y-84338335D01*
X106850200Y-84355151D01*
X106816283Y-84371345D01*
X106783841Y-84385810D01*
X106755128Y-84397441D01*
X106752248Y-84398517D01*
X106667638Y-84426154D01*
X106579937Y-84447849D01*
X106490209Y-84463542D01*
X106399514Y-84473169D01*
X106308918Y-84476671D01*
X106219481Y-84473985D01*
X106132268Y-84465049D01*
X106048341Y-84449802D01*
X106013730Y-84441344D01*
X105931666Y-84415587D01*
X105851259Y-84382341D01*
X105773248Y-84342066D01*
X105698375Y-84295222D01*
X105627381Y-84242269D01*
X105561008Y-84183666D01*
X105505342Y-84125920D01*
X105452234Y-84061678D01*
X105403469Y-83992880D01*
X105371962Y-83940788D01*
X105585253Y-83940788D01*
X105589852Y-83964462D01*
X105599831Y-83985652D01*
X105615811Y-84005341D01*
X105638418Y-84024511D01*
X105668090Y-84044036D01*
X105743028Y-84084685D01*
X105822344Y-84119281D01*
X105906263Y-84147886D01*
X105995009Y-84170562D01*
X106088808Y-84187374D01*
X106187886Y-84198382D01*
X106233148Y-84201400D01*
X106271575Y-84202816D01*
X106315015Y-84203313D01*
X106361156Y-84202943D01*
X106407687Y-84201756D01*
X106452298Y-84199804D01*
X106492678Y-84197138D01*
X106514596Y-84195147D01*
X106608648Y-84182380D01*
X106697549Y-84163933D01*
X106782000Y-84139586D01*
X106862702Y-84109117D01*
X106940354Y-84072303D01*
X106989867Y-84044664D01*
X107018131Y-84027694D01*
X107040077Y-84013584D01*
X107056381Y-84001300D01*
X107067715Y-83989810D01*
X107074754Y-83978080D01*
X107078171Y-83965077D01*
X107078641Y-83949770D01*
X107076837Y-83931124D01*
X107074494Y-83914952D01*
X107059677Y-83834716D01*
X107040727Y-83760764D01*
X107017400Y-83692387D01*
X106989452Y-83628878D01*
X106956639Y-83569527D01*
X106953993Y-83565253D01*
X106930288Y-83527247D01*
X106927858Y-83631264D01*
X106927085Y-83660522D01*
X106926187Y-83688193D01*
X106925220Y-83712941D01*
X106924240Y-83733428D01*
X106923305Y-83748317D01*
X106922629Y-83755283D01*
X106918363Y-83784684D01*
X106914118Y-83811973D01*
X106910076Y-83836126D01*
X106906423Y-83856119D01*
X106903342Y-83870927D01*
X106901018Y-83879525D01*
X106899965Y-83881303D01*
X106895207Y-83879390D01*
X106885654Y-83874362D01*
X106873332Y-83867289D01*
X106872754Y-83866945D01*
X106853926Y-83856886D01*
X106837542Y-83851329D01*
X106822227Y-83850557D01*
X106806603Y-83854853D01*
X106789296Y-83864497D01*
X106768929Y-83879773D01*
X106755600Y-83890955D01*
X106724935Y-83917323D01*
X106700231Y-83891596D01*
X106683892Y-83875484D01*
X106669624Y-83864141D01*
X106656422Y-83857730D01*
X106643279Y-83856416D01*
X106629190Y-83860363D01*
X106613150Y-83869734D01*
X106594154Y-83884693D01*
X106571195Y-83905404D01*
X106561946Y-83914128D01*
X106537658Y-83937205D01*
X106499706Y-83899252D01*
X106484113Y-83883823D01*
X106472788Y-83873244D01*
X106464445Y-83866610D01*
X106457795Y-83863013D01*
X106451550Y-83861547D01*
X106445785Y-83861300D01*
X106434452Y-83862693D01*
X106422313Y-83867324D01*
X106408281Y-83875865D01*
X106391268Y-83888990D01*
X106370188Y-83907373D01*
X106367401Y-83909903D01*
X106349936Y-83925164D01*
X106336671Y-83934594D01*
X106326375Y-83938235D01*
X106317817Y-83936132D01*
X106309766Y-83928327D01*
X106300991Y-83914864D01*
X106299507Y-83912308D01*
X106281366Y-83885059D01*
X106262769Y-83865472D01*
X106243851Y-83853633D01*
X106224746Y-83849629D01*
X106207091Y-83852950D01*
X106194013Y-83861077D01*
X106178974Y-83875905D01*
X106162743Y-83896614D01*
X106153570Y-83910238D01*
X106142211Y-83926342D01*
X106133370Y-83935346D01*
X106128632Y-83937312D01*
X106123042Y-83934597D01*
X106113166Y-83927144D01*
X106100260Y-83915988D01*
X106085575Y-83902165D01*
X106082934Y-83899567D01*
X106062790Y-83880339D01*
X106046574Y-83866834D01*
X106033187Y-83858546D01*
X106021531Y-83854972D01*
X106010506Y-83855609D01*
X105999014Y-83859953D01*
X105997823Y-83860558D01*
X105987476Y-83867361D01*
X105974289Y-83878018D01*
X105960794Y-83890454D01*
X105958260Y-83892992D01*
X105946939Y-83904028D01*
X105937448Y-83912380D01*
X105931335Y-83916717D01*
X105930256Y-83917040D01*
X105925974Y-83914017D01*
X105918166Y-83906202D01*
X105908274Y-83895073D01*
X105904704Y-83890813D01*
X105885459Y-83869590D01*
X105868149Y-83855224D01*
X105851862Y-83847094D01*
X105836702Y-83844583D01*
X105818519Y-83847763D01*
X105799247Y-83856922D01*
X105781185Y-83870791D01*
X105772634Y-83879927D01*
X105765320Y-83888539D01*
X105761469Y-83891508D01*
X105759490Y-83889391D01*
X105758307Y-83884931D01*
X105755346Y-83869813D01*
X105751898Y-83847999D01*
X105748109Y-83820767D01*
X105744128Y-83789397D01*
X105740101Y-83755169D01*
X105736175Y-83719362D01*
X105732496Y-83683256D01*
X105729213Y-83648129D01*
X105726471Y-83615262D01*
X105725019Y-83595258D01*
X105722057Y-83551251D01*
X105707073Y-83571254D01*
X105696931Y-83586577D01*
X105684924Y-83607531D01*
X105671975Y-83632251D01*
X105659008Y-83658867D01*
X105646946Y-83685513D01*
X105636712Y-83710321D01*
X105631927Y-83723278D01*
X105623908Y-83747910D01*
X105615645Y-83776132D01*
X105607574Y-83806169D01*
X105600127Y-83836246D01*
X105593738Y-83864590D01*
X105588840Y-83889424D01*
X105585868Y-83908975D01*
X105585409Y-83913645D01*
X105585253Y-83940788D01*
X105371962Y-83940788D01*
X105358865Y-83919133D01*
X105318240Y-83840044D01*
X105281411Y-83755219D01*
X105248195Y-83664263D01*
X105218412Y-83566785D01*
X105191879Y-83462388D01*
X105185792Y-83435437D01*
X105180934Y-83413647D01*
X105176572Y-83394525D01*
X105173033Y-83379474D01*
X105170645Y-83369892D01*
X105169848Y-83367222D01*
X105169027Y-83368871D01*
X105168499Y-83377560D01*
X105168243Y-83392336D01*
X105168234Y-83412245D01*
X104265102Y-83412245D01*
X104263612Y-83394029D01*
X104258471Y-83331330D01*
X104252908Y-83263636D01*
X104246948Y-83191246D01*
X104240616Y-83114457D01*
X104233936Y-83033566D01*
X104226933Y-82948873D01*
X104219630Y-82860674D01*
X104212054Y-82769268D01*
X104204227Y-82674953D01*
X104196175Y-82578026D01*
X104190378Y-82508315D01*
X105536293Y-82508315D01*
X105536738Y-82549573D01*
X105537841Y-82590745D01*
X105539572Y-82630221D01*
X105541905Y-82666394D01*
X105544810Y-82697652D01*
X105547682Y-82718988D01*
X105564648Y-82808544D01*
X105586238Y-82899065D01*
X105611923Y-82988877D01*
X105641175Y-83076306D01*
X105673466Y-83159676D01*
X105708267Y-83237313D01*
X105716303Y-83253648D01*
X105758924Y-83331565D01*
X105807097Y-83406530D01*
X105859994Y-83477478D01*
X105916786Y-83543341D01*
X105976647Y-83603051D01*
X106010053Y-83632442D01*
X106062988Y-83673007D01*
X106116672Y-83706607D01*
X106170703Y-83733098D01*
X106224678Y-83752336D01*
X106278195Y-83764179D01*
X106330850Y-83768483D01*
X106382202Y-83765110D01*
X106430158Y-83755649D01*
X106476475Y-83741061D01*
X106521776Y-83720964D01*
X106566686Y-83694975D01*
X106611827Y-83662710D01*
X106657825Y-83623786D01*
X106705301Y-83577821D01*
X106730793Y-83550995D01*
X106800614Y-83471137D01*
X106862811Y-83390327D01*
X106917754Y-83307931D01*
X106965813Y-83223311D01*
X107007358Y-83135831D01*
X107042760Y-83044855D01*
X107064348Y-82977862D01*
X107087274Y-82888502D01*
X107104617Y-82794717D01*
X107116274Y-82697911D01*
X107122143Y-82599491D01*
X107122121Y-82500860D01*
X107116104Y-82403424D01*
X107110211Y-82350918D01*
X107099769Y-82291378D01*
X107084653Y-82237760D01*
X107064504Y-82189247D01*
X107038960Y-82145022D01*
X107007662Y-82104268D01*
X106995698Y-82091112D01*
X106956412Y-82054042D01*
X106914987Y-82023975D01*
X106870221Y-82000245D01*
X106820913Y-81982183D01*
X106782265Y-81972386D01*
X106765084Y-81969915D01*
X106742298Y-81968314D01*
X106716257Y-81967582D01*
X106689308Y-81967718D01*
X106663801Y-81968720D01*
X106642085Y-81970589D01*
X106630241Y-81972444D01*
X106572295Y-81988227D01*
X106515795Y-82010969D01*
X106462702Y-82039809D01*
X106436222Y-82057555D01*
X106411744Y-82074851D01*
X106392159Y-82087697D01*
X106376170Y-82096711D01*
X106362477Y-82102508D01*
X106349782Y-82105707D01*
X106336786Y-82106925D01*
X106332194Y-82106997D01*
X106317971Y-82106375D01*
X106304907Y-82104053D01*
X106291594Y-82099392D01*
X106276623Y-82091754D01*
X106258587Y-82080500D01*
X106236076Y-82064992D01*
X106230003Y-82060674D01*
X106177406Y-82027117D01*
X106124371Y-82001366D01*
X106070319Y-81983225D01*
X106014672Y-81972502D01*
X105957239Y-81969002D01*
X105900389Y-81972741D01*
X105846413Y-81983745D01*
X105795640Y-82001692D01*
X105748400Y-82026261D01*
X105705020Y-82057132D01*
X105665832Y-82093982D01*
X105631163Y-82136491D01*
X105601342Y-82184337D01*
X105576700Y-82237199D01*
X105557564Y-82294757D01*
X105544263Y-82356689D01*
X105541650Y-82374617D01*
X105539184Y-82400123D01*
X105537488Y-82431981D01*
X105536534Y-82468582D01*
X105536293Y-82508315D01*
X104190378Y-82508315D01*
X104187922Y-82478785D01*
X104180173Y-82385700D01*
X104171750Y-82284630D01*
X104163489Y-82185618D01*
X104155413Y-82088961D01*
X104147550Y-81994956D01*
X104139923Y-81903899D01*
X104132558Y-81816088D01*
X104125480Y-81731820D01*
X104118714Y-81651391D01*
X104112285Y-81575099D01*
X104106218Y-81503239D01*
X104100539Y-81436110D01*
X104095272Y-81374008D01*
X104090443Y-81317229D01*
X104086077Y-81266072D01*
X104082198Y-81220832D01*
X104078833Y-81181807D01*
X104076005Y-81149293D01*
X104073741Y-81123587D01*
X104072065Y-81104987D01*
X104071002Y-81093789D01*
X104070587Y-81090279D01*
X104066926Y-81091932D01*
X104057688Y-81097584D01*
X104043826Y-81106608D01*
X104026292Y-81118379D01*
X104006039Y-81132271D01*
X103995276Y-81139757D01*
X103973319Y-81155094D01*
X103946313Y-81173949D01*
X103915774Y-81195265D01*
X103883216Y-81217984D01*
X103850156Y-81241050D01*
X103818107Y-81263404D01*
X103805796Y-81271990D01*
X103778320Y-81291184D01*
X103752517Y-81309272D01*
X103729226Y-81325663D01*
X103709288Y-81339761D01*
X103693543Y-81350972D01*
X103682832Y-81358703D01*
X103678369Y-81362049D01*
X103666961Y-81371203D01*
X102990170Y-81371203D01*
X102990964Y-81319874D01*
X102992036Y-81249894D01*
X102993057Y-81182481D01*
X102994005Y-81119047D01*
X102994858Y-81061002D01*
X102995494Y-81016852D01*
X102996207Y-80967629D01*
X102996930Y-80919426D01*
X102997648Y-80873046D01*
X102998349Y-80829296D01*
X102999019Y-80788979D01*
X102999644Y-80752901D01*
X103000210Y-80721866D01*
X103000705Y-80696678D01*
X103001114Y-80678143D01*
X103001336Y-80669797D01*
X103001833Y-80649483D01*
X103002037Y-80632363D01*
X103001948Y-80619854D01*
X103001564Y-80613375D01*
X103001336Y-80612788D01*
X102997856Y-80615001D01*
X102988269Y-80621418D01*
X102973062Y-80631708D01*
X102952718Y-80645539D01*
X102927725Y-80662580D01*
X102898565Y-80682500D01*
X102865726Y-80704968D01*
X102829693Y-80729651D01*
X102790949Y-80756219D01*
X102749982Y-80784340D01*
X102722603Y-80803148D01*
X102673292Y-80837047D01*
X102630177Y-80866728D01*
X102592845Y-80892492D01*
X102560887Y-80914637D01*
X102533893Y-80933461D01*
X102511450Y-80949264D01*
X102493150Y-80962345D01*
X102478581Y-80973002D01*
X102467333Y-80981535D01*
X102458996Y-80988242D01*
X102453158Y-80993423D01*
X102449410Y-80997375D01*
X102447341Y-81000399D01*
X102446541Y-81002792D01*
X102446508Y-81004180D01*
X102251778Y-81004180D01*
X102253089Y-80990293D01*
X102256260Y-80958014D01*
X102259238Y-80928936D01*
X102261926Y-80903980D01*
X102264222Y-80884066D01*
X102266027Y-80870114D01*
X102267242Y-80863047D01*
X102267391Y-80862576D01*
X102271508Y-80857969D01*
X102281233Y-80849581D01*
X102295592Y-80838173D01*
X102313609Y-80824511D01*
X102334308Y-80809358D01*
X102346140Y-80800908D01*
X102361141Y-80790290D01*
X102382024Y-80775511D01*
X102408139Y-80757032D01*
X102438837Y-80735313D01*
X102473466Y-80710814D01*
X102511377Y-80683994D01*
X102551920Y-80655314D01*
X102594444Y-80625234D01*
X102638299Y-80594213D01*
X102682835Y-80562712D01*
X102705623Y-80546594D01*
X102814646Y-80469484D01*
X103453841Y-80469484D01*
X103453886Y-80481082D01*
X103454216Y-80499353D01*
X103454807Y-80523635D01*
X103455635Y-80553268D01*
X103456676Y-80587591D01*
X103457904Y-80625943D01*
X103459296Y-80667662D01*
X103460828Y-80712088D01*
X103462475Y-80758560D01*
X103464214Y-80806417D01*
X103466019Y-80854998D01*
X103467867Y-80903643D01*
X103469733Y-80951690D01*
X103471593Y-80998478D01*
X103473423Y-81043346D01*
X103475198Y-81085634D01*
X103476894Y-81124681D01*
X103478488Y-81159825D01*
X103479954Y-81190406D01*
X103481269Y-81215763D01*
X103482323Y-81233893D01*
X103484777Y-81272907D01*
X103499264Y-81264195D01*
X103511266Y-81256791D01*
X103522193Y-81249761D01*
X103523752Y-81248718D01*
X103529533Y-81244968D01*
X103541187Y-81237542D01*
X103557808Y-81227011D01*
X103578490Y-81213948D01*
X103602326Y-81198927D01*
X103628411Y-81182519D01*
X103641770Y-81174127D01*
X103674198Y-81153760D01*
X103709398Y-81131640D01*
X103746805Y-81108125D01*
X103785850Y-81083571D01*
X103825968Y-81058336D01*
X103866591Y-81032777D01*
X103907152Y-81007250D01*
X103947085Y-80982113D01*
X103985822Y-80957722D01*
X104022796Y-80934436D01*
X104057441Y-80912610D01*
X104089189Y-80892602D01*
X104117473Y-80874768D01*
X104141727Y-80859467D01*
X104161384Y-80847054D01*
X104175876Y-80837888D01*
X104184636Y-80832324D01*
X104187150Y-80830696D01*
X104185435Y-80827129D01*
X104180048Y-80817226D01*
X104171324Y-80801578D01*
X104159599Y-80780773D01*
X104145206Y-80755403D01*
X104128481Y-80726058D01*
X104109759Y-80693326D01*
X104089375Y-80657800D01*
X104067664Y-80620067D01*
X104063471Y-80612793D01*
X104038005Y-80568643D01*
X104016208Y-80530932D01*
X103997764Y-80499158D01*
X103982357Y-80472823D01*
X103969674Y-80451426D01*
X103959398Y-80434465D01*
X103951215Y-80421441D01*
X103944808Y-80411854D01*
X103939864Y-80405203D01*
X103936066Y-80400987D01*
X103933100Y-80398707D01*
X103930650Y-80397861D01*
X103928401Y-80397950D01*
X103928156Y-80397995D01*
X103922376Y-80398880D01*
X103909406Y-80400729D01*
X103889984Y-80403440D01*
X103864850Y-80406911D01*
X103834743Y-80411041D01*
X103800402Y-80415728D01*
X103762568Y-80420871D01*
X103721978Y-80426368D01*
X103687778Y-80430986D01*
X103645748Y-80436699D01*
X103606074Y-80442180D01*
X103569466Y-80447325D01*
X103536638Y-80452030D01*
X103508301Y-80456191D01*
X103485167Y-80459703D01*
X103467948Y-80462462D01*
X103457356Y-80464364D01*
X103454105Y-80465219D01*
X103453841Y-80469484D01*
X102814646Y-80469484D01*
X102989668Y-80345694D01*
X103653579Y-80235062D01*
X103725349Y-80223096D01*
X103794972Y-80211475D01*
X103862040Y-80200266D01*
X103926144Y-80189541D01*
X103986876Y-80179366D01*
X104043828Y-80169811D01*
X104096589Y-80160944D01*
X104144754Y-80152835D01*
X104187912Y-80145552D01*
X104225655Y-80139164D01*
X104257575Y-80133739D01*
X104283263Y-80129348D01*
X104302311Y-80126057D01*
X104314310Y-80123936D01*
X104318852Y-80123055D01*
X104318880Y-80123041D01*
X104318661Y-80118824D01*
X104317064Y-80108305D01*
X104314345Y-80093015D01*
X104310764Y-80074485D01*
X104310300Y-80072174D01*
X104303236Y-80036069D01*
X104297671Y-80004664D01*
X104293433Y-79976133D01*
X104290352Y-79948653D01*
X104288257Y-79920398D01*
X104286976Y-79889545D01*
X104286340Y-79854267D01*
X104286176Y-79814663D01*
X104286317Y-79777115D01*
X104286851Y-79744990D01*
X104287950Y-79716589D01*
X104288215Y-79712791D01*
X104549508Y-79712791D01*
X104550261Y-79825390D01*
X104556954Y-79942868D01*
X104569582Y-80065134D01*
X104588143Y-80192094D01*
X104612635Y-80323656D01*
X104643053Y-80459726D01*
X104644205Y-80464487D01*
X104656053Y-80512546D01*
X104668137Y-80559899D01*
X104680642Y-80607139D01*
X104693752Y-80654858D01*
X104707653Y-80703648D01*
X104722530Y-80754100D01*
X104738567Y-80806807D01*
X104755949Y-80862360D01*
X104774861Y-80921352D01*
X104795488Y-80984374D01*
X104818015Y-81052018D01*
X104842626Y-81124876D01*
X104869507Y-81203541D01*
X104898842Y-81288603D01*
X104926028Y-81366907D01*
X104949480Y-81434471D01*
X104972234Y-81500400D01*
X104994086Y-81564090D01*
X105014834Y-81624937D01*
X105034275Y-81682338D01*
X105052205Y-81735690D01*
X105068423Y-81784390D01*
X105082724Y-81827834D01*
X105094906Y-81865419D01*
X105104766Y-81896541D01*
X105110730Y-81915993D01*
X105115724Y-81931807D01*
X105120128Y-81944250D01*
X105123328Y-81951660D01*
X105124418Y-81952999D01*
X105126891Y-81949541D01*
X105129370Y-81941153D01*
X105129505Y-81940497D01*
X105131309Y-81928324D01*
X105132224Y-81913700D01*
X105132194Y-81896043D01*
X105131161Y-81874768D01*
X105129068Y-81849292D01*
X105125856Y-81819031D01*
X105121468Y-81783401D01*
X105115847Y-81741819D01*
X105108936Y-81693701D01*
X105100676Y-81638462D01*
X105098007Y-81620947D01*
X105087590Y-81552570D01*
X105078367Y-81491395D01*
X105070267Y-81436722D01*
X105063218Y-81387852D01*
X105057146Y-81344086D01*
X105051979Y-81304724D01*
X105047646Y-81269069D01*
X105044073Y-81236421D01*
X105041187Y-81206080D01*
X105038918Y-81177349D01*
X105037192Y-81149527D01*
X105035937Y-81121915D01*
X105035080Y-81093815D01*
X105034549Y-81064528D01*
X105034272Y-81033354D01*
X105034181Y-81004850D01*
X105034195Y-80964324D01*
X105034381Y-80930713D01*
X105034781Y-80902934D01*
X105035435Y-80879902D01*
X105036381Y-80860533D01*
X105037660Y-80843743D01*
X105039313Y-80828447D01*
X105041189Y-80814820D01*
X105054655Y-80741354D01*
X105072182Y-80674323D01*
X105094054Y-80613108D01*
X105120552Y-80557091D01*
X105146912Y-80513922D01*
X105415818Y-80513922D01*
X105416534Y-80534990D01*
X105419072Y-80562593D01*
X105423459Y-80597252D01*
X105425674Y-80612788D01*
X105446091Y-80725515D01*
X105474196Y-80836929D01*
X105510076Y-80947319D01*
X105553820Y-81056975D01*
X105577841Y-81109866D01*
X105585524Y-81125722D01*
X105592076Y-81138475D01*
X105596712Y-81146641D01*
X105598516Y-81148873D01*
X105598966Y-81145024D01*
X105599231Y-81134085D01*
X105599314Y-81116964D01*
X105599219Y-81094568D01*
X105598950Y-81067806D01*
X105598509Y-81037586D01*
X105598001Y-81009851D01*
X105597110Y-80938499D01*
X105597447Y-80874617D01*
X105599029Y-80817767D01*
X105601872Y-80767511D01*
X105605994Y-80723409D01*
X105610181Y-80692538D01*
X105613795Y-80671430D01*
X105618010Y-80649667D01*
X105622492Y-80628670D01*
X105626909Y-80609862D01*
X105630925Y-80594664D01*
X105634207Y-80584497D01*
X105636420Y-80580783D01*
X105636423Y-80580783D01*
X105640919Y-80582890D01*
X105649903Y-80588383D01*
X105660178Y-80595222D01*
X105685759Y-80611051D01*
X105707753Y-80620704D01*
X105727127Y-80624584D01*
X105730659Y-80624702D01*
X105741338Y-80623712D01*
X105751621Y-80619880D01*
X105764050Y-80612096D01*
X105770666Y-80607276D01*
X105786387Y-80594639D01*
X105803000Y-80579919D01*
X105813962Y-80569270D01*
X105824137Y-80559178D01*
X105832274Y-80551861D01*
X105836721Y-80548796D01*
X105836864Y-80548778D01*
X105841066Y-80551145D01*
X105849992Y-80557535D01*
X105862189Y-80566877D01*
X105871950Y-80574643D01*
X105892305Y-80590577D01*
X105908315Y-80601732D01*
X105921411Y-80608862D01*
X105933029Y-80612723D01*
X105944600Y-80614068D01*
X105946929Y-80614101D01*
X105957998Y-80612970D01*
X105969321Y-80609076D01*
X105982025Y-80601704D01*
X105997238Y-80590144D01*
X106016090Y-80573683D01*
X106027204Y-80563420D01*
X106046371Y-80546243D01*
X106061506Y-80535041D01*
X106073819Y-80529744D01*
X106084522Y-80530282D01*
X106094823Y-80536585D01*
X106105934Y-80548583D01*
X106113455Y-80558436D01*
X106136109Y-80585288D01*
X106159076Y-80604729D01*
X106182086Y-80616635D01*
X106204866Y-80620880D01*
X106227145Y-80617339D01*
X106234835Y-80614209D01*
X106244572Y-80607739D01*
X106256500Y-80597242D01*
X106267445Y-80585652D01*
X106284082Y-80566218D01*
X106296514Y-80552059D01*
X106305700Y-80542340D01*
X106312602Y-80536227D01*
X106318180Y-80532886D01*
X106323395Y-80531480D01*
X106329208Y-80531177D01*
X106330162Y-80531175D01*
X106339151Y-80532031D01*
X106346887Y-80535510D01*
X106355646Y-80542986D01*
X106363641Y-80551373D01*
X106375784Y-80564940D01*
X106387993Y-80579141D01*
X106395451Y-80588203D01*
X106414284Y-80606650D01*
X106435402Y-80618080D01*
X106457910Y-80622139D01*
X106475619Y-80620019D01*
X106489241Y-80614387D01*
X106504448Y-80603678D01*
X106521900Y-80587315D01*
X106542259Y-80564723D01*
X106551035Y-80554213D01*
X106564058Y-80540318D01*
X106576060Y-80532457D01*
X106587940Y-80530820D01*
X106600596Y-80535600D01*
X106614926Y-80546989D01*
X106631828Y-80565177D01*
X106638230Y-80572834D01*
X106660465Y-80596749D01*
X106681753Y-80612803D01*
X106702532Y-80621001D01*
X106723242Y-80621351D01*
X106744321Y-80613859D01*
X106766207Y-80598532D01*
X106789338Y-80575378D01*
X106789524Y-80575167D01*
X106801117Y-80562947D01*
X106811372Y-80553816D01*
X106818720Y-80549123D01*
X106820264Y-80548778D01*
X106826084Y-80551661D01*
X106835739Y-80559555D01*
X106847937Y-80571329D01*
X106857012Y-80580960D01*
X106875566Y-80600669D01*
X106890861Y-80614683D01*
X106904497Y-80623662D01*
X106918072Y-80628267D01*
X106933186Y-80629161D01*
X106951438Y-80627003D01*
X106963098Y-80624814D01*
X106984639Y-80621712D01*
X107002034Y-80622430D01*
X107015915Y-80627634D01*
X107026918Y-80637989D01*
X107035678Y-80654158D01*
X107042827Y-80676807D01*
X107049001Y-80706600D01*
X107050684Y-80716573D01*
X107055316Y-80749760D01*
X107058894Y-80786238D01*
X107061453Y-80826852D01*
X107063027Y-80872450D01*
X107063651Y-80923876D01*
X107063359Y-80981977D01*
X107062865Y-81014635D01*
X107062273Y-81053079D01*
X107061980Y-81085766D01*
X107061984Y-81112278D01*
X107062279Y-81132195D01*
X107062863Y-81145098D01*
X107063731Y-81150569D01*
X107064096Y-81150657D01*
X107067091Y-81145717D01*
X107072538Y-81134986D01*
X107079682Y-81120007D01*
X107087772Y-81102321D01*
X107088424Y-81100865D01*
X107133130Y-80993612D01*
X107170592Y-80887742D01*
X107201158Y-80782109D01*
X107225175Y-80675565D01*
X107236521Y-80611132D01*
X107241295Y-80576425D01*
X107243337Y-80548258D01*
X107242425Y-80525572D01*
X107238334Y-80507308D01*
X107230843Y-80492408D01*
X107219727Y-80479813D01*
X107206721Y-80469763D01*
X107190616Y-80461008D01*
X107167447Y-80451437D01*
X107138088Y-80441262D01*
X107103409Y-80430699D01*
X107064281Y-80419960D01*
X107021578Y-80409261D01*
X106976170Y-80398815D01*
X106928929Y-80388835D01*
X106880727Y-80379536D01*
X106832435Y-80371132D01*
X106784926Y-80363837D01*
X106762889Y-80360823D01*
X106680196Y-80351578D01*
X106591217Y-80344569D01*
X106497356Y-80339812D01*
X106400015Y-80337328D01*
X106300595Y-80337132D01*
X106200501Y-80339243D01*
X106101134Y-80343678D01*
X106003897Y-80350456D01*
X105996141Y-80351110D01*
X105893127Y-80361740D01*
X105796601Y-80375552D01*
X105705632Y-80392727D01*
X105619291Y-80413445D01*
X105536650Y-80437884D01*
X105520816Y-80443123D01*
X105490450Y-80453517D01*
X105466854Y-80462044D01*
X105449127Y-80469117D01*
X105436369Y-80475146D01*
X105427679Y-80480544D01*
X105422157Y-80485721D01*
X105419755Y-80489321D01*
X105416900Y-80498873D01*
X105415818Y-80513922D01*
X105146912Y-80513922D01*
X105151960Y-80505655D01*
X105188561Y-80458180D01*
X105219756Y-80424635D01*
X105259488Y-80388304D01*
X105301980Y-80356049D01*
X105348169Y-80327372D01*
X105398992Y-80301774D01*
X105455383Y-80278758D01*
X105518280Y-80257825D01*
X105550777Y-80248447D01*
X105625706Y-80226861D01*
X105693555Y-80205367D01*
X105755232Y-80183611D01*
X105811646Y-80161233D01*
X105863704Y-80137879D01*
X105912316Y-80113192D01*
X105950703Y-80091429D01*
X106019869Y-80046176D01*
X106082250Y-79996709D01*
X106137892Y-79942984D01*
X106186841Y-79884955D01*
X106229141Y-79822577D01*
X106239610Y-79804661D01*
X106256098Y-79774285D01*
X106268323Y-79748536D01*
X106276848Y-79725659D01*
X106282237Y-79703898D01*
X106285053Y-79681500D01*
X106285252Y-79676239D01*
X106374056Y-79676239D01*
X106379947Y-79711771D01*
X106392762Y-79750303D01*
X106412375Y-79791566D01*
X106438661Y-79835292D01*
X106471493Y-79881211D01*
X106505868Y-79923414D01*
X106545921Y-79966914D01*
X106587815Y-80005958D01*
X106632870Y-80041532D01*
X106682408Y-80074623D01*
X106737750Y-80106217D01*
X106778264Y-80126810D01*
X106805933Y-80139980D01*
X106833419Y-80152344D01*
X106861750Y-80164287D01*
X106891954Y-80176193D01*
X106925061Y-80188447D01*
X106962098Y-80201432D01*
X107004094Y-80215533D01*
X107052077Y-80231134D01*
X107088313Y-80242690D01*
X107120507Y-80253038D01*
X107152339Y-80263535D01*
X107182437Y-80273709D01*
X107209428Y-80283089D01*
X107231940Y-80291202D01*
X107248600Y-80297576D01*
X107252339Y-80299115D01*
X107314307Y-80329440D01*
X107371014Y-80365773D01*
X107422340Y-80407999D01*
X107468163Y-80456007D01*
X107508363Y-80509681D01*
X107542818Y-80568909D01*
X107544718Y-80572672D01*
X107566922Y-80623038D01*
X107586481Y-80679740D01*
X107603032Y-80741446D01*
X107616214Y-80806822D01*
X107624795Y-80866828D01*
X107626851Y-80890723D01*
X107628336Y-80920826D01*
X107629249Y-80955364D01*
X107629590Y-80992565D01*
X107629359Y-81030657D01*
X107628555Y-81067866D01*
X107627178Y-81102420D01*
X107625227Y-81132546D01*
X107624859Y-81136871D01*
X107622146Y-81164653D01*
X107618294Y-81199792D01*
X107613375Y-81241733D01*
X107607461Y-81289924D01*
X107600624Y-81343811D01*
X107592934Y-81402840D01*
X107584463Y-81466460D01*
X107575283Y-81534116D01*
X107565465Y-81605255D01*
X107555082Y-81679324D01*
X107550548Y-81711322D01*
X107544437Y-81754468D01*
X107538676Y-81795425D01*
X107533363Y-81833478D01*
X107528596Y-81867912D01*
X107524473Y-81898013D01*
X107521092Y-81923064D01*
X107518551Y-81942350D01*
X107516948Y-81955157D01*
X107516381Y-81960770D01*
X107516381Y-81960795D01*
X107517450Y-81967049D01*
X107522255Y-81968229D01*
X107527382Y-81967216D01*
X107537353Y-81963015D01*
X107543283Y-81958156D01*
X107547044Y-81950871D01*
X107551544Y-81938894D01*
X107554490Y-81929371D01*
X107572548Y-81867009D01*
X107593323Y-81798299D01*
X107616476Y-81724289D01*
X107641672Y-81646028D01*
X107668572Y-81564562D01*
X107696840Y-81480941D01*
X107724495Y-81400912D01*
X107740461Y-81354946D01*
X107757386Y-81305756D01*
X107774999Y-81254161D01*
X107793028Y-81200981D01*
X107811201Y-81147034D01*
X107829246Y-81093139D01*
X107846893Y-81040116D01*
X107863869Y-80988783D01*
X107879904Y-80939959D01*
X107894725Y-80894464D01*
X107908061Y-80853116D01*
X107919640Y-80816734D01*
X107929191Y-80786137D01*
X107936442Y-80762145D01*
X107937418Y-80758811D01*
X107974833Y-80625362D01*
X108007601Y-80498007D01*
X108035763Y-80376356D01*
X108059363Y-80260022D01*
X108078441Y-80148614D01*
X108093042Y-80041745D01*
X108103207Y-79939026D01*
X108108978Y-79840067D01*
X108110399Y-79744480D01*
X108107510Y-79651876D01*
X108100356Y-79561867D01*
X108088978Y-79474062D01*
X108082032Y-79432602D01*
X108061374Y-79339125D01*
X108033773Y-79249616D01*
X107999254Y-79164116D01*
X107957842Y-79082661D01*
X107909563Y-79005291D01*
X107854442Y-78932044D01*
X107792503Y-78862957D01*
X107723774Y-78798070D01*
X107648278Y-78737421D01*
X107598394Y-78702172D01*
X107576837Y-78687957D01*
X107553464Y-78673051D01*
X107529252Y-78658023D01*
X107505180Y-78643447D01*
X107482227Y-78629893D01*
X107461370Y-78617935D01*
X107443588Y-78608143D01*
X107429861Y-78601090D01*
X107421165Y-78597347D01*
X107418538Y-78597053D01*
X107416781Y-78601311D01*
X107413449Y-78611119D01*
X107409259Y-78624362D01*
X107409220Y-78624490D01*
X107379027Y-78710457D01*
X107341847Y-78795116D01*
X107298305Y-78877469D01*
X107249024Y-78956516D01*
X107194627Y-79031259D01*
X107135737Y-79100699D01*
X107072979Y-79163838D01*
X107071792Y-79164935D01*
X107014829Y-79214873D01*
X106956133Y-79261023D01*
X106894776Y-79303934D01*
X106829829Y-79344153D01*
X106760365Y-79382231D01*
X106685456Y-79418716D01*
X106604173Y-79454156D01*
X106538227Y-79480475D01*
X106493956Y-79499798D01*
X106457188Y-79520914D01*
X106427551Y-79544194D01*
X106404674Y-79570013D01*
X106388185Y-79598741D01*
X106377714Y-79630753D01*
X106375216Y-79643977D01*
X106374056Y-79676239D01*
X106285252Y-79676239D01*
X106285844Y-79660638D01*
X106285831Y-79641184D01*
X106285111Y-79627225D01*
X106283231Y-79616255D01*
X106279737Y-79605773D01*
X106274174Y-79593274D01*
X106273273Y-79591367D01*
X106259423Y-79567112D01*
X106241909Y-79545880D01*
X106219892Y-79527079D01*
X106192533Y-79510117D01*
X106158994Y-79494404D01*
X106118434Y-79479349D01*
X106110785Y-79476813D01*
X106017880Y-79442503D01*
X105927823Y-79401132D01*
X105840391Y-79352560D01*
X105755364Y-79296646D01*
X105672518Y-79233251D01*
X105591631Y-79162233D01*
X105550714Y-79122687D01*
X105484776Y-79052392D01*
X105426504Y-78980668D01*
X105375966Y-78907612D01*
X105333227Y-78833319D01*
X105298604Y-78758496D01*
X105291179Y-78739418D01*
X105283239Y-78717540D01*
X105275268Y-78694379D01*
X105267755Y-78671452D01*
X105261186Y-78650275D01*
X105256049Y-78632365D01*
X105252830Y-78619237D01*
X105251963Y-78613241D01*
X105251272Y-78605381D01*
X105248715Y-78600878D01*
X105243301Y-78599861D01*
X105234044Y-78602462D01*
X105219956Y-78608809D01*
X105200049Y-78619032D01*
X105197426Y-78620418D01*
X105108228Y-78671583D01*
X105025428Y-78727264D01*
X104949103Y-78787367D01*
X104879334Y-78851801D01*
X104816198Y-78920473D01*
X104759774Y-78993292D01*
X104710142Y-79070164D01*
X104667379Y-79150999D01*
X104631564Y-79235703D01*
X104605948Y-79313056D01*
X104582914Y-79405205D01*
X104565831Y-79502606D01*
X104554697Y-79605166D01*
X104549508Y-79712791D01*
X104288215Y-79712791D01*
X104289787Y-79690213D01*
X104292535Y-79664164D01*
X104296365Y-79636742D01*
X104301452Y-79606251D01*
X104307967Y-79570990D01*
X104314242Y-79538619D01*
X104339630Y-79426165D01*
X104370576Y-79319371D01*
X104407174Y-79218061D01*
X104449512Y-79122054D01*
X104497681Y-79031172D01*
X104551771Y-78945237D01*
X104611874Y-78864069D01*
X104678078Y-78787491D01*
X104711902Y-78752459D01*
X104786320Y-78683321D01*
X104865235Y-78620328D01*
X104948985Y-78563268D01*
X105037906Y-78511930D01*
X105132332Y-78466103D01*
X105230792Y-78426241D01*
X105237471Y-78423779D01*
X107450738Y-78423779D01*
X107450852Y-78430914D01*
X107457936Y-78439554D01*
X107471222Y-78449159D01*
X107489946Y-78459192D01*
X107513339Y-78469113D01*
X107517358Y-78470614D01*
X107581723Y-78496698D01*
X107640146Y-78525392D01*
X107652215Y-78532079D01*
X107668955Y-78540659D01*
X107686050Y-78547950D01*
X107700234Y-78552581D01*
X107702223Y-78553026D01*
X107717961Y-78555576D01*
X107737969Y-78557966D01*
X107759822Y-78559998D01*
X107781095Y-78561477D01*
X107799362Y-78562204D01*
X107812196Y-78561984D01*
X107812427Y-78561965D01*
X107822997Y-78561129D01*
X107838624Y-78559985D01*
X107856381Y-78558746D01*
X107861161Y-78558423D01*
X107912381Y-78551678D01*
X107965728Y-78538583D01*
X108019580Y-78519858D01*
X108072315Y-78496221D01*
X108122311Y-78468392D01*
X108167944Y-78437088D01*
X108204014Y-78406473D01*
X108234385Y-78374216D01*
X108258692Y-78340322D01*
X108278478Y-78302912D01*
X108285801Y-78284819D01*
X108292593Y-78264393D01*
X108298471Y-78243295D01*
X108303052Y-78223188D01*
X108305953Y-78205735D01*
X108306793Y-78192598D01*
X108305434Y-78185780D01*
X108300486Y-78182000D01*
X108289654Y-78175869D01*
X108274447Y-78168097D01*
X108256372Y-78159394D01*
X108236939Y-78150473D01*
X108217654Y-78142044D01*
X108200027Y-78134817D01*
X108187252Y-78130074D01*
X108171760Y-78125472D01*
X108153716Y-78121208D01*
X108135029Y-78117599D01*
X108117607Y-78114958D01*
X108103359Y-78113600D01*
X108094193Y-78113840D01*
X108092400Y-78114439D01*
X108090601Y-78119660D01*
X108092050Y-78123639D01*
X108098452Y-78138715D01*
X108104787Y-78158787D01*
X108110270Y-78180880D01*
X108114114Y-78202023D01*
X108115166Y-78211173D01*
X108114615Y-78250310D01*
X108106654Y-78288427D01*
X108091871Y-78324853D01*
X108070848Y-78358912D01*
X108044172Y-78389932D01*
X108012428Y-78417239D01*
X107976200Y-78440158D01*
X107936074Y-78458017D01*
X107892635Y-78470142D01*
X107889773Y-78470704D01*
X107844232Y-78475743D01*
X107798236Y-78473935D01*
X107752920Y-78465683D01*
X107709418Y-78451393D01*
X107668864Y-78431468D01*
X107632392Y-78406312D01*
X107601136Y-78376332D01*
X107591243Y-78364256D01*
X107581191Y-78351581D01*
X107572516Y-78341494D01*
X107566650Y-78335632D01*
X107565519Y-78334879D01*
X107561119Y-78336622D01*
X107551825Y-78342534D01*
X107538878Y-78351653D01*
X107523524Y-78363016D01*
X107507006Y-78375658D01*
X107490566Y-78388618D01*
X107475449Y-78400932D01*
X107462897Y-78411637D01*
X107454155Y-78419770D01*
X107450738Y-78423779D01*
X105237471Y-78423779D01*
X105271569Y-78411210D01*
X105284394Y-78387147D01*
X105310078Y-78343413D01*
X105339236Y-78301553D01*
X105370815Y-78262768D01*
X105403766Y-78228255D01*
X105437036Y-78199214D01*
X105468058Y-78177738D01*
X105542489Y-78136682D01*
X105619366Y-78100902D01*
X105699471Y-78070152D01*
X105783585Y-78044185D01*
X105872492Y-78022757D01*
X105966973Y-78005621D01*
X106052150Y-77994259D01*
X106077592Y-77991936D01*
X106109622Y-77989908D01*
X106146835Y-77988195D01*
X106187821Y-77986820D01*
X106231174Y-77985805D01*
X106275485Y-77985172D01*
X106319349Y-77984942D01*
X106361356Y-77985137D01*
X106400099Y-77985779D01*
X106434171Y-77986890D01*
X106455217Y-77988005D01*
X106556152Y-77996187D01*
X106654637Y-78007421D01*
X106749473Y-78021520D01*
X106839462Y-78038299D01*
X106923405Y-78057572D01*
X106952292Y-78065188D01*
X107018239Y-78085110D01*
X107077420Y-78107084D01*
X107130923Y-78131629D01*
X107179834Y-78159261D01*
X107225240Y-78190499D01*
X107240954Y-78202741D01*
X107267574Y-78224137D01*
X107327263Y-78184861D01*
X107345626Y-78172468D01*
X107368999Y-78156208D01*
X107396020Y-78137057D01*
X107425329Y-78115990D01*
X107455563Y-78093980D01*
X107485363Y-78072003D01*
X107496674Y-78063575D01*
X107544944Y-78027708D01*
X107587804Y-77996355D01*
X107626057Y-77968986D01*
X107660505Y-77945073D01*
X107691950Y-77924085D01*
X107721194Y-77905494D01*
X107749039Y-77888770D01*
X107776288Y-77873385D01*
X107803743Y-77858808D01*
X107817916Y-77851598D01*
X107846265Y-77837698D01*
X107869272Y-77827347D01*
X107888505Y-77820054D01*
X107905531Y-77815334D01*
X107921916Y-77812697D01*
X107939229Y-77811656D01*
X107946448Y-77811577D01*
X107976170Y-77812917D01*
X108012690Y-77816881D01*
X108055302Y-77823311D01*
X108103301Y-77832051D01*
X108155982Y-77842944D01*
X108212639Y-77855834D01*
X108272567Y-77870564D01*
X108335062Y-77886978D01*
X108399416Y-77904918D01*
X108464926Y-77924230D01*
X108493554Y-77933003D01*
X108505267Y-77935803D01*
X108510800Y-77934231D01*
X108511168Y-77927416D01*
X108509089Y-77919664D01*
X108506670Y-77910377D01*
X108503322Y-77895411D01*
X108499520Y-77876962D01*
X108496315Y-77860355D01*
X108479172Y-77789802D01*
X108454630Y-77721206D01*
X108423143Y-77655542D01*
X108385162Y-77593783D01*
X108352436Y-77550306D01*
X108322390Y-77516453D01*
X108287025Y-77481240D01*
X108248329Y-77446395D01*
X108208294Y-77413648D01*
X108168910Y-77384729D01*
X108141044Y-77366620D01*
X108125784Y-77356520D01*
X108117926Y-77349248D01*
X108117485Y-77344801D01*
X108124474Y-77343176D01*
X108138910Y-77344371D01*
X108160806Y-77348381D01*
X108190177Y-77355205D01*
X108193816Y-77356115D01*
X108238251Y-77368107D01*
X108278759Y-77380953D01*
X108318159Y-77395682D01*
X108359272Y-77413325D01*
X108390518Y-77427929D01*
X108472640Y-77470983D01*
X108551407Y-77519822D01*
X108627598Y-77575007D01*
X108701991Y-77637099D01*
X108770880Y-77702168D01*
X108817392Y-77750209D01*
X108857176Y-77794950D01*
X108890526Y-77836933D01*
X108917732Y-77876696D01*
X108939088Y-77914780D01*
X108954885Y-77951725D01*
X108965417Y-77988071D01*
X108970975Y-78024359D01*
X108971852Y-78061128D01*
X108971242Y-78072379D01*
X108968478Y-78099430D01*
X108963891Y-78125195D01*
X108957028Y-78150881D01*
X108947436Y-78177693D01*
X108934663Y-78206833D01*
X108918254Y-78239509D01*
X108897758Y-78276923D01*
X108887775Y-78294423D01*
X108847739Y-78361004D01*
X108807312Y-78422494D01*
X108766820Y-78478510D01*
X108726589Y-78528668D01*
X108686944Y-78572584D01*
X108648211Y-78609876D01*
X108610716Y-78640158D01*
X108574885Y-78662992D01*
X108563853Y-78668695D01*
X108558410Y-78670474D01*
X108557327Y-78668594D01*
X108557922Y-78666663D01*
X108561164Y-78656410D01*
X108565432Y-78640437D01*
X108570228Y-78620880D01*
X108575053Y-78599875D01*
X108579411Y-78579559D01*
X108582803Y-78562065D01*
X108584070Y-78554464D01*
X108588434Y-78522294D01*
X108590792Y-78495507D01*
X108591238Y-78471768D01*
X108589866Y-78448739D01*
X108588738Y-78438446D01*
X108586139Y-78421122D01*
X108582553Y-78402388D01*
X108578395Y-78383881D01*
X108574081Y-78367243D01*
X108570026Y-78354112D01*
X108566643Y-78346130D01*
X108564963Y-78344479D01*
X108562362Y-78347856D01*
X108556898Y-78357090D01*
X108549300Y-78370884D01*
X108540295Y-78387943D01*
X108537437Y-78393486D01*
X108512476Y-78438536D01*
X108485658Y-78479305D01*
X108455309Y-78518062D01*
X108419759Y-78557078D01*
X108408536Y-78568466D01*
X108375729Y-78599928D01*
X108344852Y-78626433D01*
X108313560Y-78649788D01*
X108279510Y-78671801D01*
X108258545Y-78684112D01*
X108209251Y-78708885D01*
X108154755Y-78730329D01*
X108097429Y-78747685D01*
X108039646Y-78760196D01*
X108004249Y-78765232D01*
X107960276Y-78770121D01*
X107985780Y-78796314D01*
X108038694Y-78853929D01*
X108088819Y-78914975D01*
X108135359Y-78978264D01*
X108177517Y-79042604D01*
X108214499Y-79106807D01*
X108245507Y-79169681D01*
X108262188Y-79209546D01*
X108287066Y-79278901D01*
X108308662Y-79350056D01*
X108327228Y-79424158D01*
X108343016Y-79502350D01*
X108356279Y-79585777D01*
X108367270Y-79675583D01*
X108369241Y-79694644D01*
X108370577Y-79712863D01*
X108371690Y-79737935D01*
X108372581Y-79768716D01*
X108373249Y-79804061D01*
X108373695Y-79842826D01*
X108373919Y-79883865D01*
X108373921Y-79926034D01*
X108373701Y-79968188D01*
X108373261Y-80009182D01*
X108372599Y-80047873D01*
X108371717Y-80083114D01*
X108370614Y-80113761D01*
X108369290Y-80138670D01*
X108369152Y-80140714D01*
X108357539Y-80280423D01*
X108342344Y-80416703D01*
X108323688Y-80548823D01*
X108301692Y-80676053D01*
X108276476Y-80797664D01*
X108248159Y-80912925D01*
X108232616Y-80968844D01*
X108218589Y-81015462D01*
X108201620Y-81068754D01*
X108181958Y-81128054D01*
X108159850Y-81192701D01*
X108135548Y-81262029D01*
X108109298Y-81335376D01*
X108081352Y-81412077D01*
X108051957Y-81491468D01*
X108021363Y-81572886D01*
X107989818Y-81655667D01*
X107957573Y-81739146D01*
X107924875Y-81822661D01*
X107891974Y-81905548D01*
X107859119Y-81987142D01*
X107826559Y-82066780D01*
X107794543Y-82143798D01*
X107770036Y-82201798D01*
X107762177Y-82220426D01*
X107755595Y-82236361D01*
X107750862Y-82248189D01*
X107748552Y-82254498D01*
X107748417Y-82255098D01*
X107751128Y-82254607D01*
X107758857Y-82249002D01*
X107771003Y-82238859D01*
X107786962Y-82224758D01*
X107806131Y-82207277D01*
X107827908Y-82186994D01*
X107851688Y-82164486D01*
X107876870Y-82140334D01*
X107902851Y-82115114D01*
X107929027Y-82089404D01*
X107954795Y-82063784D01*
X107979553Y-82038831D01*
X108002698Y-82015124D01*
X108023626Y-81993241D01*
X108041386Y-81974141D01*
X108148364Y-81851148D01*
X108248980Y-81723575D01*
X108343096Y-81591703D01*
X108430568Y-81455811D01*
X108511257Y-81316179D01*
X108585021Y-81173086D01*
X108651720Y-81026813D01*
X108711211Y-80877638D01*
X108763355Y-80725842D01*
X108808010Y-80571704D01*
X108845034Y-80415504D01*
X108856720Y-80357514D01*
X108861134Y-80335602D01*
X108865256Y-80317129D01*
X108868800Y-80303230D01*
X108871478Y-80295038D01*
X108872924Y-80293504D01*
X108876227Y-80302473D01*
X108880264Y-80318316D01*
X108884859Y-80339959D01*
X108889834Y-80366329D01*
X108895013Y-80396349D01*
X108900219Y-80428945D01*
X108905274Y-80463044D01*
X108910001Y-80497570D01*
X108914224Y-80531449D01*
X108917765Y-80563606D01*
X108918283Y-80568781D01*
X108927855Y-80685123D01*
X108933521Y-80800731D01*
X108935285Y-80917257D01*
X108933155Y-81036353D01*
X108927135Y-81159671D01*
X108920816Y-81246888D01*
X108918379Y-81277616D01*
X108915983Y-81309204D01*
X108913776Y-81339621D01*
X108911903Y-81366836D01*
X108910510Y-81388817D01*
X108910165Y-81394873D01*
X108907324Y-81446843D01*
X108928528Y-81422878D01*
X108941292Y-81407738D01*
X108957224Y-81387765D01*
X108974984Y-81364731D01*
X108993228Y-81340412D01*
X109010617Y-81316582D01*
X109025808Y-81295016D01*
X109031321Y-81286894D01*
X109048343Y-81260716D01*
X109065491Y-81232783D01*
X109083345Y-81202064D01*
X109102482Y-81167529D01*
X109123483Y-81128148D01*
X109146926Y-81082888D01*
X109156913Y-81063311D01*
X109174390Y-81028868D01*
X109188433Y-81001511D01*
X109199365Y-80981258D01*
X109207508Y-80968131D01*
X109213184Y-80962149D01*
X109216715Y-80963331D01*
X109218424Y-80971699D01*
X109218632Y-80987271D01*
X109217661Y-81010069D01*
X109215835Y-81040111D01*
X109214131Y-81066860D01*
X109200361Y-81255893D01*
X109183097Y-81439070D01*
X109162119Y-81617837D01*
X109137204Y-81793639D01*
X109108130Y-81967922D01*
X109074676Y-82142131D01*
X109036619Y-82317713D01*
X108996506Y-82485083D01*
X108949390Y-82665173D01*
X108899221Y-82840769D01*
X108845556Y-83013110D01*
X108787949Y-83183437D01*
X108725954Y-83352989D01*
X108659128Y-83523006D01*
X108587025Y-83694729D01*
X108509201Y-83869397D01*
X108467490Y-83959315D01*
X108456885Y-83982059D01*
X108447321Y-84002888D01*
X108439382Y-84020508D01*
X108433649Y-84033625D01*
X108430704Y-84040945D01*
X108430579Y-84041328D01*
X108426713Y-84051549D01*
X108421143Y-84063887D01*
X108420039Y-84066114D01*
X108415182Y-84077347D01*
X108415078Y-84082297D01*
X108419636Y-84081049D01*
X108428761Y-84073688D01*
X108442362Y-84060298D01*
X108460346Y-84040964D01*
X108482620Y-84015769D01*
X108508694Y-83985272D01*
X108570833Y-83910042D01*
X108629806Y-83835217D01*
X108687039Y-83758886D01*
X108743960Y-83679139D01*
X108801998Y-83594064D01*
X108810536Y-83581256D01*
X108910137Y-83424734D01*
X108919134Y-83409229D01*
X109508694Y-83409229D01*
X109510158Y-83412522D01*
X109511361Y-83411896D01*
X109511840Y-83407148D01*
X109511361Y-83406562D01*
X109508983Y-83407111D01*
X109508694Y-83409229D01*
X108919134Y-83409229D01*
X109002042Y-83266346D01*
X109086409Y-83105740D01*
X109163397Y-82942567D01*
X109233165Y-82776473D01*
X109295874Y-82607108D01*
X109351682Y-82434120D01*
X109386826Y-82310317D01*
X109393629Y-82285490D01*
X109400030Y-82263106D01*
X109405656Y-82244387D01*
X109410136Y-82230555D01*
X109413101Y-82222832D01*
X109413694Y-82221819D01*
X109417127Y-82219630D01*
X109420318Y-82223232D01*
X109423661Y-82231657D01*
X109430364Y-82253093D01*
X109437958Y-82281131D01*
X109446164Y-82314455D01*
X109454703Y-82351753D01*
X109463296Y-82391709D01*
X109471664Y-82433011D01*
X109479528Y-82474343D01*
X109486609Y-82514393D01*
X109492628Y-82551845D01*
X109494822Y-82566831D01*
X109506835Y-82666049D01*
X109515727Y-82770725D01*
X109521411Y-82878913D01*
X109523801Y-82988667D01*
X109522808Y-83098041D01*
X109521008Y-83152185D01*
X109518898Y-83203102D01*
X109517133Y-83246603D01*
X109515704Y-83283268D01*
X109514603Y-83313675D01*
X109513823Y-83338402D01*
X109513356Y-83358029D01*
X109513193Y-83373133D01*
X109513328Y-83384294D01*
X109513751Y-83392089D01*
X109514455Y-83397097D01*
X109515431Y-83399897D01*
X109516673Y-83401067D01*
X109517589Y-83401227D01*
X109521924Y-83397608D01*
X109529521Y-83386830D01*
X109540315Y-83369008D01*
X109554240Y-83344260D01*
X109571233Y-83312703D01*
X109591228Y-83274454D01*
X109614161Y-83229630D01*
X109626503Y-83205196D01*
X109704034Y-83042238D01*
X109774321Y-82875898D01*
X109837358Y-82706199D01*
X109893140Y-82533170D01*
X109941660Y-82356834D01*
X109982914Y-82177218D01*
X110016896Y-81994347D01*
X110043600Y-81808247D01*
X110063020Y-81618943D01*
X110075152Y-81426461D01*
X110079990Y-81230827D01*
X110079339Y-81108866D01*
X110078631Y-81071280D01*
X110077757Y-81033024D01*
X110076764Y-80995609D01*
X110075695Y-80960547D01*
X110074596Y-80929349D01*
X110073513Y-80903527D01*
X110072751Y-80888832D01*
X110070854Y-80859111D01*
X110068398Y-80824873D01*
X110065475Y-80787088D01*
X110062174Y-80746724D01*
X110058587Y-80704750D01*
X110054804Y-80662138D01*
X110050916Y-80619854D01*
X110047012Y-80578870D01*
X110043184Y-80540154D01*
X110039523Y-80504675D01*
X110036117Y-80473404D01*
X110033060Y-80447308D01*
X110030439Y-80427358D01*
X110028548Y-80415552D01*
X110026221Y-80398583D01*
X110024990Y-80380340D01*
X110024926Y-80375205D01*
X110025076Y-80354748D01*
X110039103Y-80370750D01*
X110045120Y-80378061D01*
X110055177Y-80390797D01*
X110068518Y-80407978D01*
X110084387Y-80428622D01*
X110102027Y-80451751D01*
X110120683Y-80476385D01*
X110124093Y-80480906D01*
X110213474Y-80604292D01*
X110295136Y-80727127D01*
X110369296Y-80849856D01*
X110436175Y-80972921D01*
X110495991Y-81096769D01*
X110548964Y-81221843D01*
X110595311Y-81348587D01*
X110635253Y-81477446D01*
X110658478Y-81564938D01*
X110665712Y-81594907D01*
X110673067Y-81626830D01*
X110680014Y-81658303D01*
X110686022Y-81686921D01*
X110690561Y-81710283D01*
X110690684Y-81710961D01*
X110695321Y-81736553D01*
X110698799Y-81755233D01*
X110701412Y-81767959D01*
X110703455Y-81775688D01*
X110705221Y-81779377D01*
X110707003Y-81779982D01*
X110709097Y-81778462D01*
X110710869Y-81776682D01*
X110713892Y-81769982D01*
X110717204Y-81756146D01*
X110720682Y-81736029D01*
X110724203Y-81710486D01*
X110727644Y-81680371D01*
X110730883Y-81646540D01*
X110732668Y-81624948D01*
X110735197Y-81587052D01*
X110737459Y-81542199D01*
X110739431Y-81491429D01*
X110741093Y-81435780D01*
X110742423Y-81376293D01*
X110743400Y-81314007D01*
X110744004Y-81249963D01*
X110744212Y-81185200D01*
X110744003Y-81120758D01*
X110743693Y-81084863D01*
X110738621Y-80874030D01*
X110727892Y-80667895D01*
X110711381Y-80465374D01*
X110688959Y-80265383D01*
X110660500Y-80066835D01*
X110625878Y-79868647D01*
X110584964Y-79669734D01*
X110570725Y-79606630D01*
X110523678Y-79418674D01*
X110470123Y-79234928D01*
X110410110Y-79055504D01*
X110343693Y-78880512D01*
X110270924Y-78710064D01*
X110191855Y-78544271D01*
X110106538Y-78383243D01*
X110015027Y-78227092D01*
X109917372Y-78075930D01*
X109813627Y-77929866D01*
X109729152Y-77820348D01*
X109617844Y-77686909D01*
X109501345Y-77558679D01*
X109379329Y-77435364D01*
X109251472Y-77316666D01*
X109117446Y-77202287D01*
X108976926Y-77091931D01*
X108829586Y-76985302D01*
X108762072Y-76939194D01*
X108684170Y-76888205D01*
X108602774Y-76837348D01*
X108518869Y-76787147D01*
X108445386Y-76744980D01*
X108848510Y-76744980D01*
X108848587Y-76749180D01*
X108849297Y-76753182D01*
X108851116Y-76757394D01*
X108854520Y-76762223D01*
X108859984Y-76768076D01*
X108867984Y-76775361D01*
X108878997Y-76784486D01*
X108893497Y-76795857D01*
X108911962Y-76809883D01*
X108934867Y-76826970D01*
X108962687Y-76847527D01*
X108995899Y-76871959D01*
X109034978Y-76900675D01*
X109042621Y-76906293D01*
X109071933Y-76927866D01*
X109102290Y-76950254D01*
X109132274Y-76972408D01*
X109160470Y-76993281D01*
X109185461Y-77011826D01*
X109205832Y-77026996D01*
X109210732Y-77030657D01*
X109230398Y-77045091D01*
X109248561Y-77057902D01*
X109263997Y-77068267D01*
X109275484Y-77075364D01*
X109281643Y-77078334D01*
X109287077Y-77079235D01*
X109291362Y-77078116D01*
X109295043Y-77073908D01*
X109298670Y-77065541D01*
X109302790Y-77051943D01*
X109307951Y-77032047D01*
X109310414Y-77022148D01*
X109325147Y-76971516D01*
X109342617Y-76928159D01*
X109363109Y-76891737D01*
X109386913Y-76861908D01*
X109414316Y-76838329D01*
X109445606Y-76820660D01*
X109481071Y-76808558D01*
X109492507Y-76805974D01*
X109532869Y-76801431D01*
X109577174Y-76803107D01*
X109624536Y-76810839D01*
X109674072Y-76824464D01*
X109724896Y-76843820D01*
X109742961Y-76851983D01*
X109789114Y-76876365D01*
X109833735Y-76905576D01*
X109878166Y-76940576D01*
X109920113Y-76978796D01*
X109932262Y-76990024D01*
X109942669Y-76998717D01*
X109949765Y-77003601D01*
X109951520Y-77004220D01*
X109956624Y-77001173D01*
X109958866Y-76991804D01*
X109958255Y-76975770D01*
X109954795Y-76952729D01*
X109952708Y-76941934D01*
X109940283Y-76890198D01*
X109924810Y-76844023D01*
X109905462Y-76801282D01*
X109882352Y-76761315D01*
X109865737Y-76733728D01*
X109854759Y-76711099D01*
X109849556Y-76692572D01*
X109850266Y-76677292D01*
X109857027Y-76664402D01*
X109869978Y-76653047D01*
X109889258Y-76642372D01*
X109902540Y-76636510D01*
X109934804Y-76623989D01*
X109964366Y-76614762D01*
X109993679Y-76608329D01*
X110025196Y-76604189D01*
X110061369Y-76601842D01*
X110074784Y-76601374D01*
X110101786Y-76600736D01*
X110122865Y-76600689D01*
X110140085Y-76601358D01*
X110155511Y-76602865D01*
X110171206Y-76605336D01*
X110184801Y-76607979D01*
X110228703Y-76618539D01*
X110272789Y-76632499D01*
X110318880Y-76650512D01*
X110368796Y-76673234D01*
X110375182Y-76676333D01*
X110446021Y-76714075D01*
X110510655Y-76755300D01*
X110570488Y-76801021D01*
X110626924Y-76852247D01*
X110645263Y-76870762D01*
X110697621Y-76930687D01*
X110744483Y-76996242D01*
X110785734Y-77067134D01*
X110821260Y-77143070D01*
X110850944Y-77223758D01*
X110874672Y-77308904D01*
X110892330Y-77398217D01*
X110903801Y-77491404D01*
X110907014Y-77536304D01*
X110907814Y-77580347D01*
X110905793Y-77630901D01*
X110901070Y-77687034D01*
X110893766Y-77747814D01*
X110884000Y-77812311D01*
X110871893Y-77879594D01*
X110857563Y-77948732D01*
X110849174Y-77985529D01*
X110845514Y-78001335D01*
X110842683Y-78014022D01*
X110841099Y-78021699D01*
X110840904Y-78023035D01*
X110844165Y-78024248D01*
X110852181Y-78023097D01*
X110862304Y-78020251D01*
X110871885Y-78016378D01*
X110875645Y-78014265D01*
X110885172Y-78006014D01*
X110890762Y-77999168D01*
X110895559Y-77989632D01*
X110902020Y-77973549D01*
X110909778Y-77952114D01*
X110918466Y-77926520D01*
X110927719Y-77897960D01*
X110937170Y-77867627D01*
X110946451Y-77836715D01*
X110955197Y-77806417D01*
X110963041Y-77777927D01*
X110969617Y-77752437D01*
X110974557Y-77731141D01*
X110977020Y-77718332D01*
X110980011Y-77702176D01*
X110983541Y-77685820D01*
X110984672Y-77681171D01*
X110987905Y-77666040D01*
X110991631Y-77644636D01*
X110995615Y-77618655D01*
X110999619Y-77589790D01*
X111003410Y-77559738D01*
X111006750Y-77530193D01*
X111009277Y-77504299D01*
X111011699Y-77463168D01*
X111012324Y-77417175D01*
X111011275Y-77368076D01*
X111008676Y-77317626D01*
X111004650Y-77267582D01*
X110999320Y-77219701D01*
X110992809Y-77175738D01*
X110985242Y-77137450D01*
X110982817Y-77127462D01*
X110977134Y-77106001D01*
X110970448Y-77081997D01*
X110963148Y-77056727D01*
X110955625Y-77031463D01*
X110948271Y-77007479D01*
X110941477Y-76986050D01*
X110935633Y-76968450D01*
X110931130Y-76955953D01*
X110928360Y-76949832D01*
X110928281Y-76949726D01*
X110925269Y-76943572D01*
X110921249Y-76932536D01*
X110918492Y-76923722D01*
X110913958Y-76911067D01*
X110906274Y-76892729D01*
X110896096Y-76870064D01*
X110884081Y-76844427D01*
X110870883Y-76817174D01*
X110857159Y-76789661D01*
X110843564Y-76763242D01*
X110830755Y-76739274D01*
X110820066Y-76720276D01*
X110771399Y-76642068D01*
X110718462Y-76566948D01*
X110661926Y-76495632D01*
X110602461Y-76428837D01*
X110540738Y-76367281D01*
X110477428Y-76311681D01*
X110413202Y-76262754D01*
X110358828Y-76227212D01*
X110285512Y-76187628D01*
X110208874Y-76155321D01*
X110128916Y-76130293D01*
X110045644Y-76112545D01*
X109959061Y-76102077D01*
X109869171Y-76098891D01*
X109815091Y-76100401D01*
X109714939Y-76108892D01*
X109618645Y-76124024D01*
X109526376Y-76145718D01*
X109438297Y-76173896D01*
X109354575Y-76208480D01*
X109275375Y-76249391D01*
X109200863Y-76296549D01*
X109131205Y-76349878D01*
X109066567Y-76409297D01*
X109007114Y-76474728D01*
X108995722Y-76488703D01*
X108973266Y-76517852D01*
X108951093Y-76548671D01*
X108929745Y-76580231D01*
X108909766Y-76611605D01*
X108891698Y-76641864D01*
X108876084Y-76670080D01*
X108863468Y-76695324D01*
X108854392Y-76716669D01*
X108849400Y-76733186D01*
X108848590Y-76740175D01*
X108848510Y-76744980D01*
X108445386Y-76744980D01*
X108433438Y-76738124D01*
X108347468Y-76690802D01*
X108261943Y-76645704D01*
X108177848Y-76603351D01*
X108096168Y-76564267D01*
X108017887Y-76528975D01*
X107943991Y-76497996D01*
X107894440Y-76478799D01*
X107820117Y-76452900D01*
X107749652Y-76432236D01*
X107681169Y-76416459D01*
X107612793Y-76405225D01*
X107542647Y-76398188D01*
X107468855Y-76395002D01*
X107438368Y-76394728D01*
X107329478Y-76397883D01*
X107224494Y-76407520D01*
X107122415Y-76423799D01*
X107022238Y-76446882D01*
X106922964Y-76476930D01*
X106918286Y-76478522D01*
X106891184Y-76487654D01*
X106859651Y-76498059D01*
X106826912Y-76508686D01*
X106796193Y-76518482D01*
X106784265Y-76522221D01*
X106727320Y-76540400D01*
X106675037Y-76558116D01*
X106625518Y-76576114D01*
X106576861Y-76595141D01*
X106527166Y-76615940D01*
X106474534Y-76639258D01*
X106417064Y-76665839D01*
X106412207Y-76668126D01*
X106377628Y-76684177D01*
X106349053Y-76696812D01*
X106325428Y-76706390D01*
X106305702Y-76713271D01*
X106288822Y-76717815D01*
X106273738Y-76720380D01*
X106259396Y-76721325D01*
X106256388Y-76721352D01*
X106228566Y-76717572D01*
X106203556Y-76706593D01*
X106182145Y-76688958D01*
X106165124Y-76665210D01*
X106160176Y-76655161D01*
X106150886Y-76626461D01*
X106149005Y-76599644D01*
X106154473Y-76575182D01*
X106167233Y-76553543D01*
X106173419Y-76546717D01*
X106184326Y-76536983D01*
X106196940Y-76528271D01*
X106212427Y-76520047D01*
X106231949Y-76511776D01*
X106256673Y-76502923D01*
X106287762Y-76492953D01*
X106296069Y-76490405D01*
X106311120Y-76485766D01*
X106326594Y-76480871D01*
X106343143Y-76475495D01*
X106361423Y-76469411D01*
X106382088Y-76462390D01*
X106405790Y-76454207D01*
X106433184Y-76444633D01*
X106464925Y-76433443D01*
X106501665Y-76420409D01*
X106544059Y-76405304D01*
X106592760Y-76387900D01*
X106640243Y-76370902D01*
X106674816Y-76358637D01*
X106707172Y-76347443D01*
X106738585Y-76336923D01*
X106770329Y-76326679D01*
X106803677Y-76316315D01*
X106839904Y-76305433D01*
X106880284Y-76293635D01*
X106926091Y-76280525D01*
X106968294Y-76268602D01*
X106999224Y-76259764D01*
X107033052Y-76249867D01*
X107067100Y-76239710D01*
X107098689Y-76230091D01*
X107124319Y-76222072D01*
X107193491Y-76202440D01*
X107261635Y-76188187D01*
X107262341Y-76188066D01*
X107302976Y-76181176D01*
X107337151Y-76175632D01*
X107366270Y-76171288D01*
X107391734Y-76168001D01*
X107414947Y-76165626D01*
X107437309Y-76164020D01*
X107460223Y-76163038D01*
X107485092Y-76162537D01*
X107512380Y-76162373D01*
X107551029Y-76162719D01*
X107585833Y-76164060D01*
X107618420Y-76166643D01*
X107650417Y-76170716D01*
X107683451Y-76176524D01*
X107719149Y-76184314D01*
X107759138Y-76194333D01*
X107804426Y-76206655D01*
X107915895Y-76240567D01*
X108027888Y-76280208D01*
X108141002Y-76325840D01*
X108255834Y-76377722D01*
X108372981Y-76436112D01*
X108493040Y-76501271D01*
X108528463Y-76521457D01*
X108550869Y-76534179D01*
X108571934Y-76545810D01*
X108590304Y-76555627D01*
X108604621Y-76562907D01*
X108613532Y-76566928D01*
X108614074Y-76567123D01*
X108627063Y-76570399D01*
X108639022Y-76570355D01*
X108650734Y-76566412D01*
X108662980Y-76557992D01*
X108676541Y-76544514D01*
X108692200Y-76525399D01*
X108710739Y-76500069D01*
X108717398Y-76490569D01*
X108783505Y-76400395D01*
X108851103Y-76317869D01*
X108920456Y-76242730D01*
X108991830Y-76174718D01*
X109065493Y-76113575D01*
X109141710Y-76059040D01*
X109191258Y-76027899D01*
X109268656Y-75984576D01*
X109344752Y-75947972D01*
X109421245Y-75917473D01*
X109499836Y-75892468D01*
X109582227Y-75872342D01*
X109664719Y-75857317D01*
X109688412Y-75854525D01*
X109718490Y-75852374D01*
X109753364Y-75850863D01*
X109791443Y-75849992D01*
X109831138Y-75849761D01*
X109870859Y-75850170D01*
G37*
D12*
%TO.C,R3*%
X121322936Y-63785000D02*
X121777064Y-63785000D01*
X121322936Y-65255000D02*
X121777064Y-65255000D01*
%TD*%
M02*
