%TF.GenerationSoftware,KiCad,Pcbnew,8.0.2*%
%TF.CreationDate,2024-05-23T15:40:16-04:00*%
%TF.ProjectId,ORA_Arduino_ESP_CAN_Shield_Rev_1.2,4f52415f-4172-4647-9569-6e6f5f455350,rev?*%
%TF.SameCoordinates,Original*%
%TF.FileFunction,Copper,L2,Bot*%
%TF.FilePolarity,Positive*%
%FSLAX46Y46*%
G04 Gerber Fmt 4.6, Leading zero omitted, Abs format (unit mm)*
G04 Created by KiCad (PCBNEW 8.0.2) date 2024-05-23 15:40:16*
%MOMM*%
%LPD*%
G01*
G04 APERTURE LIST*
G04 Aperture macros list*
%AMRoundRect*
0 Rectangle with rounded corners*
0 $1 Rounding radius*
0 $2 $3 $4 $5 $6 $7 $8 $9 X,Y pos of 4 corners*
0 Add a 4 corners polygon primitive as box body*
4,1,4,$2,$3,$4,$5,$6,$7,$8,$9,$2,$3,0*
0 Add four circle primitives for the rounded corners*
1,1,$1+$1,$2,$3*
1,1,$1+$1,$4,$5*
1,1,$1+$1,$6,$7*
1,1,$1+$1,$8,$9*
0 Add four rect primitives between the rounded corners*
20,1,$1+$1,$2,$3,$4,$5,0*
20,1,$1+$1,$4,$5,$6,$7,0*
20,1,$1+$1,$6,$7,$8,$9,0*
20,1,$1+$1,$8,$9,$2,$3,0*%
G04 Aperture macros list end*
%TA.AperFunction,ComponentPad*%
%ADD10R,1.700000X1.700000*%
%TD*%
%TA.AperFunction,ComponentPad*%
%ADD11O,1.700000X1.700000*%
%TD*%
%TA.AperFunction,ComponentPad*%
%ADD12C,1.500000*%
%TD*%
%TA.AperFunction,ComponentPad*%
%ADD13R,2.600000X2.600000*%
%TD*%
%TA.AperFunction,ComponentPad*%
%ADD14C,2.600000*%
%TD*%
%TA.AperFunction,SMDPad,CuDef*%
%ADD15RoundRect,0.150000X-0.875000X-0.150000X0.875000X-0.150000X0.875000X0.150000X-0.875000X0.150000X0*%
%TD*%
%TA.AperFunction,SMDPad,CuDef*%
%ADD16RoundRect,0.250000X0.450000X-0.350000X0.450000X0.350000X-0.450000X0.350000X-0.450000X-0.350000X0*%
%TD*%
%TA.AperFunction,SMDPad,CuDef*%
%ADD17RoundRect,0.250000X-0.450000X0.350000X-0.450000X-0.350000X0.450000X-0.350000X0.450000X0.350000X0*%
%TD*%
%TA.AperFunction,SMDPad,CuDef*%
%ADD18RoundRect,0.150000X0.825000X0.150000X-0.825000X0.150000X-0.825000X-0.150000X0.825000X-0.150000X0*%
%TD*%
%TA.AperFunction,SMDPad,CuDef*%
%ADD19RoundRect,0.250000X-0.350000X-0.450000X0.350000X-0.450000X0.350000X0.450000X-0.350000X0.450000X0*%
%TD*%
%TA.AperFunction,ViaPad*%
%ADD20C,0.600000*%
%TD*%
%TA.AperFunction,Conductor*%
%ADD21C,0.250000*%
%TD*%
%TA.AperFunction,Conductor*%
%ADD22C,0.200000*%
%TD*%
G04 APERTURE END LIST*
D10*
%TO.P,J1,1,Pin_1*%
%TO.N,unconnected-(J1-Pin_1-Pad1)*%
X127940000Y-97460000D03*
D11*
%TO.P,J1,2,Pin_2*%
%TO.N,unconnected-(J1-Pin_2-Pad2)*%
X130480000Y-97460000D03*
%TO.P,J1,3,Pin_3*%
%TO.N,unconnected-(J1-Pin_3-Pad3)*%
X133020000Y-97460000D03*
%TO.P,J1,4,Pin_4*%
%TO.N,unconnected-(J1-Pin_4-Pad4)*%
X135560000Y-97460000D03*
%TO.P,J1,5,Pin_5*%
%TO.N,+5V*%
X138100000Y-97460000D03*
%TO.P,J1,6,Pin_6*%
%TO.N,GND*%
X140640000Y-97460000D03*
%TO.P,J1,7,Pin_7*%
X143180000Y-97460000D03*
%TO.P,J1,8,Pin_8*%
%TO.N,unconnected-(J1-Pin_8-Pad8)*%
X145720000Y-97460000D03*
%TD*%
D10*
%TO.P,J3,1,Pin_1*%
%TO.N,unconnected-(J3-Pin_1-Pad1)*%
X150800000Y-97460000D03*
D11*
%TO.P,J3,2,Pin_2*%
%TO.N,unconnected-(J3-Pin_2-Pad2)*%
X153340000Y-97460000D03*
%TO.P,J3,3,Pin_3*%
%TO.N,unconnected-(J3-Pin_3-Pad3)*%
X155880000Y-97460000D03*
%TO.P,J3,4,Pin_4*%
%TO.N,unconnected-(J3-Pin_4-Pad4)*%
X158420000Y-97460000D03*
%TO.P,J3,5,Pin_5*%
%TO.N,unconnected-(J3-Pin_5-Pad5)*%
X160960000Y-97460000D03*
%TO.P,J3,6,Pin_6*%
%TO.N,unconnected-(J3-Pin_6-Pad6)*%
X163500000Y-97460000D03*
%TD*%
D10*
%TO.P,J2,1,Pin_1*%
%TO.N,SCL*%
X118796000Y-49200000D03*
D11*
%TO.P,J2,2,Pin_2*%
%TO.N,SDA*%
X121336000Y-49200000D03*
%TO.P,J2,3,Pin_3*%
%TO.N,unconnected-(J2-Pin_3-Pad3)*%
X123876000Y-49200000D03*
%TO.P,J2,4,Pin_4*%
%TO.N,GND*%
X126416000Y-49200000D03*
%TO.P,J2,5,Pin_5*%
%TO.N,SCK*%
X128956000Y-49200000D03*
%TO.P,J2,6,Pin_6*%
%TO.N,SO*%
X131496000Y-49200000D03*
%TO.P,J2,7,Pin_7*%
%TO.N,SI*%
X134036000Y-49200000D03*
%TO.P,J2,8,Pin_8*%
%TO.N,CS*%
X136576000Y-49200000D03*
%TO.P,J2,9,Pin_9*%
%TO.N,unconnected-(J2-Pin_9-Pad9)*%
X139116000Y-49200000D03*
%TO.P,J2,10,Pin_10*%
%TO.N,unconnected-(J2-Pin_10-Pad10)*%
X141656000Y-49200000D03*
%TD*%
D10*
%TO.P,J4,1,Pin_1*%
%TO.N,unconnected-(J4-Pin_1-Pad1)*%
X145720000Y-49200000D03*
D11*
%TO.P,J4,2,Pin_2*%
%TO.N,unconnected-(J4-Pin_2-Pad2)*%
X148260000Y-49200000D03*
%TO.P,J4,3,Pin_3*%
%TO.N,unconnected-(J4-Pin_3-Pad3)*%
X150800000Y-49200000D03*
%TO.P,J4,4,Pin_4*%
%TO.N,unconnected-(J4-Pin_4-Pad4)*%
X153340000Y-49200000D03*
%TO.P,J4,5,Pin_5*%
%TO.N,unconnected-(J4-Pin_5-Pad5)*%
X155880000Y-49200000D03*
%TO.P,J4,6,Pin_6*%
%TO.N,unconnected-(J4-Pin_6-Pad6)*%
X158420000Y-49200000D03*
%TO.P,J4,7,Pin_7*%
%TO.N,unconnected-(J4-Pin_7-Pad7)*%
X160960000Y-49200000D03*
%TO.P,J4,8,Pin_8*%
%TO.N,unconnected-(J4-Pin_8-Pad8)*%
X163500000Y-49200000D03*
%TD*%
D12*
%TO.P,Y1,1,1*%
%TO.N,Net-(U2-OSC1)*%
X107290000Y-51890000D03*
%TO.P,Y1,2,2*%
%TO.N,Net-(U2-OSC2)*%
X107290000Y-56770000D03*
%TD*%
D13*
%TO.P,J5,1,Pin_1*%
%TO.N,CAN-*%
X160365000Y-80600000D03*
D14*
%TO.P,J5,2,Pin_2*%
%TO.N,CAN+*%
X160365000Y-75600000D03*
%TD*%
D13*
%TO.P,J6,1,Pin_1*%
%TO.N,CAN-*%
X160365000Y-69340000D03*
D14*
%TO.P,J6,2,Pin_2*%
%TO.N,CAN+*%
X160365000Y-64340000D03*
%TD*%
D10*
%TO.P,U1,1,3V3*%
%TO.N,unconnected-(U1-3V3-Pad1)*%
X150720000Y-59240000D03*
D11*
%TO.P,U1,2,GND*%
%TO.N,GND*%
X148180000Y-59240000D03*
%TO.P,U1,3,D15*%
%TO.N,unconnected-(U1-D15-Pad3)*%
X145640000Y-59240000D03*
%TO.P,U1,4,D2*%
%TO.N,unconnected-(U1-D2-Pad4)*%
X143100000Y-59240000D03*
%TO.P,U1,5,D4*%
%TO.N,unconnected-(U1-D4-Pad5)*%
X140560000Y-59240000D03*
%TO.P,U1,6,RX2*%
%TO.N,unconnected-(U1-RX2-Pad6)*%
X138020000Y-59240000D03*
%TO.P,U1,7,TX2*%
%TO.N,unconnected-(U1-TX2-Pad7)*%
X135480000Y-59240000D03*
%TO.P,U1,8,D5*%
%TO.N,unconnected-(U1-D5-Pad8)*%
X132940000Y-59240000D03*
%TO.P,U1,9,D18*%
%TO.N,unconnected-(U1-D18-Pad9)*%
X130400000Y-59240000D03*
%TO.P,U1,10,D19*%
%TO.N,unconnected-(U1-D19-Pad10)*%
X127860000Y-59240000D03*
%TO.P,U1,11,D21*%
%TO.N,SDA*%
X125320000Y-59240000D03*
%TO.P,U1,12,RX0*%
%TO.N,unconnected-(U1-RX0-Pad12)*%
X122780000Y-59240000D03*
%TO.P,U1,13,TX0*%
%TO.N,unconnected-(U1-TX0-Pad13)*%
X120240000Y-59240000D03*
%TO.P,U1,14,D22*%
%TO.N,SCL*%
X117700000Y-59240000D03*
%TO.P,U1,15,D23*%
%TO.N,unconnected-(U1-D23-Pad15)*%
X115160000Y-59240000D03*
D10*
%TO.P,U1,16,EN*%
%TO.N,unconnected-(U1-EN-Pad16)*%
X115180000Y-84640000D03*
D11*
%TO.P,U1,17,VP*%
%TO.N,unconnected-(U1-VP-Pad17)*%
X117720000Y-84640000D03*
%TO.P,U1,18,VN*%
%TO.N,unconnected-(U1-VN-Pad18)*%
X120260000Y-84640000D03*
%TO.P,U1,19,D34*%
%TO.N,unconnected-(U1-D34-Pad19)*%
X122800000Y-84640000D03*
%TO.P,U1,20,D35*%
%TO.N,unconnected-(U1-D35-Pad20)*%
X125340000Y-84640000D03*
%TO.P,U1,21,D32*%
%TO.N,unconnected-(U1-D32-Pad21)*%
X127880000Y-84640000D03*
%TO.P,U1,22,D33*%
%TO.N,unconnected-(U1-D33-Pad22)*%
X130420000Y-84640000D03*
%TO.P,U1,23,D25*%
%TO.N,unconnected-(U1-D25-Pad23)*%
X132960000Y-84640000D03*
%TO.P,U1,24,D26*%
%TO.N,unconnected-(U1-D26-Pad24)*%
X135500000Y-84640000D03*
%TO.P,U1,25,D27*%
%TO.N,unconnected-(U1-D27-Pad25)*%
X138040000Y-84640000D03*
%TO.P,U1,26,D14*%
%TO.N,unconnected-(U1-D14-Pad26)*%
X140580000Y-84640000D03*
%TO.P,U1,27,D12*%
%TO.N,unconnected-(U1-D12-Pad27)*%
X143120000Y-84640000D03*
%TO.P,U1,28,D13*%
%TO.N,unconnected-(U1-D13-Pad28)*%
X145660000Y-84640000D03*
%TO.P,U1,29,GND*%
%TO.N,GND*%
X148200000Y-84640000D03*
%TO.P,U1,30,VIN*%
%TO.N,+5V*%
X150740000Y-84640000D03*
%TD*%
D15*
%TO.P,U2,1,TXCAN*%
%TO.N,Net-(U2-TXCAN)*%
X134230000Y-77020000D03*
%TO.P,U2,2,RXCAN*%
%TO.N,Net-(U2-RXCAN)*%
X134230000Y-75750000D03*
%TO.P,U2,3,CLKOUT/SOF*%
%TO.N,unconnected-(U2-CLKOUT{slash}SOF-Pad3)*%
X134230000Y-74480000D03*
%TO.P,U2,4,~{TX0RTS}*%
%TO.N,unconnected-(U2-~{TX0RTS}-Pad4)*%
X134230000Y-73210000D03*
%TO.P,U2,5,~{TX1RTS}*%
%TO.N,unconnected-(U2-~{TX1RTS}-Pad5)*%
X134230000Y-71940000D03*
%TO.P,U2,6,~{TX2RTS}*%
%TO.N,unconnected-(U2-~{TX2RTS}-Pad6)*%
X134230000Y-70670000D03*
%TO.P,U2,7,OSC2*%
%TO.N,Net-(U2-OSC2)*%
X134230000Y-69400000D03*
%TO.P,U2,8,OSC1*%
%TO.N,Net-(U2-OSC1)*%
X134230000Y-68130000D03*
%TO.P,U2,9,VSS*%
%TO.N,GND*%
X134230000Y-66860000D03*
%TO.P,U2,10,~{RX1BF}*%
%TO.N,unconnected-(U2-~{RX1BF}-Pad10)*%
X143530000Y-66860000D03*
%TO.P,U2,11,~{RX0BF}*%
%TO.N,unconnected-(U2-~{RX0BF}-Pad11)*%
X143530000Y-68130000D03*
%TO.P,U2,12,~{INT}*%
%TO.N,INT*%
X143530000Y-69400000D03*
%TO.P,U2,13,SCK*%
%TO.N,SCK*%
X143530000Y-70670000D03*
%TO.P,U2,14,SI*%
%TO.N,SI*%
X143530000Y-71940000D03*
%TO.P,U2,15,SO*%
%TO.N,SO*%
X143530000Y-73210000D03*
%TO.P,U2,16,~{CS}*%
%TO.N,CS*%
X143530000Y-74480000D03*
%TO.P,U2,17,~{RESET}*%
%TO.N,Net-(U2-~{RESET})*%
X143530000Y-75750000D03*
%TO.P,U2,18,VDD*%
%TO.N,+5V*%
X143530000Y-77020000D03*
%TD*%
D16*
%TO.P,R1,1*%
%TO.N,Net-(U2-OSC2)*%
X129030000Y-69880000D03*
%TO.P,R1,2*%
%TO.N,Net-(U2-OSC1)*%
X129030000Y-67880000D03*
%TD*%
D17*
%TO.P,TR1,1*%
%TO.N,CAN+*%
X152980000Y-65120000D03*
%TO.P,TR1,2*%
%TO.N,CAN-*%
X152980000Y-67120000D03*
%TD*%
D18*
%TO.P,U3,1,TXD*%
%TO.N,Net-(U2-TXCAN)*%
X123665000Y-68960000D03*
%TO.P,U3,2,VSS*%
%TO.N,GND*%
X123665000Y-70230000D03*
%TO.P,U3,3,VDD*%
%TO.N,+5V*%
X123665000Y-71500000D03*
%TO.P,U3,4,RXD*%
%TO.N,Net-(U2-RXCAN)*%
X123665000Y-72770000D03*
%TO.P,U3,5,Vref*%
%TO.N,unconnected-(U3-Vref-Pad5)*%
X118715000Y-72770000D03*
%TO.P,U3,6,CANL*%
%TO.N,CAN-*%
X118715000Y-71500000D03*
%TO.P,U3,7,CANH*%
%TO.N,CAN+*%
X118715000Y-70230000D03*
%TO.P,U3,8,Rs*%
%TO.N,Net-(U3-Rs)*%
X118715000Y-68960000D03*
%TD*%
D19*
%TO.P,R2,1*%
%TO.N,GND*%
X137960000Y-79160000D03*
%TO.P,R2,2*%
%TO.N,Net-(U2-~{RESET})*%
X139960000Y-79160000D03*
%TD*%
D20*
%TO.N,GND*%
X122620000Y-64620000D03*
X137910000Y-79180000D03*
%TO.N,+5V*%
X147220000Y-72780000D03*
%TO.N,Net-(U2-OSC2)*%
X129110000Y-69870000D03*
%TO.N,Net-(U2-OSC1)*%
X134230000Y-68190000D03*
%TO.N,CAN+*%
X115390000Y-70440000D03*
X150705000Y-66670000D03*
X153020000Y-65140000D03*
%TO.N,CAN-*%
X151555000Y-66670000D03*
X152980000Y-67080000D03*
X115390000Y-71290000D03*
%TO.N,Net-(U3-Rs)*%
X118510000Y-68930000D03*
%TO.N,SCK*%
X141920000Y-69850000D03*
%TO.N,SI*%
X146110000Y-65090000D03*
%TO.N,CS*%
X147230000Y-64680000D03*
%TO.N,SO*%
X137090000Y-65250000D03*
%TD*%
D21*
%TO.N,GND*%
X137910000Y-79180000D02*
X137960000Y-70159092D01*
X122360000Y-69899999D02*
X122360000Y-64910000D01*
X122690001Y-70230000D02*
X122360000Y-69899999D01*
X137350000Y-63740000D02*
X134230000Y-66860000D01*
X126416000Y-49200000D02*
X129076000Y-51860000D01*
X122620000Y-64650000D02*
X122620000Y-64620000D01*
X122620000Y-64620000D02*
X122650000Y-64620000D01*
X148180000Y-59240000D02*
X148180000Y-62020000D01*
X134220000Y-66860000D02*
X131980000Y-64620000D01*
X148180000Y-62020000D02*
X149900000Y-63740000D01*
X123665000Y-70230000D02*
X122690001Y-70230000D01*
X155085000Y-58555000D02*
X149900000Y-63740000D01*
X131980000Y-64620000D02*
X122620000Y-64620000D01*
X122360000Y-64910000D02*
X122620000Y-64650000D01*
X149900000Y-63740000D02*
X137350000Y-63740000D01*
X129076000Y-51860000D02*
X148390000Y-51860000D01*
X134230000Y-66860000D02*
X134220000Y-66860000D01*
X137960000Y-79160000D02*
X137910000Y-79180000D01*
X148390000Y-51860000D02*
X155085000Y-58555000D01*
X137960000Y-70159092D02*
X134660908Y-66860000D01*
X122650000Y-64620000D02*
X122600000Y-64670000D01*
X134660908Y-66860000D02*
X134230000Y-66860000D01*
%TO.N,+5V*%
X139215000Y-81605000D02*
X139215000Y-96345000D01*
X139215000Y-96345000D02*
X138100000Y-97460000D01*
X123665000Y-71500000D02*
X122690001Y-71500000D01*
X129460000Y-80220000D02*
X140600000Y-80220000D01*
X122340000Y-71850001D02*
X122340000Y-73100000D01*
X147220000Y-74354999D02*
X147220000Y-72780000D01*
X140600000Y-80220000D02*
X140685000Y-80135000D01*
X122690001Y-71500000D02*
X122340000Y-71850001D01*
X143530000Y-77290000D02*
X143530000Y-77020000D01*
X140685000Y-80135000D02*
X139215000Y-81605000D01*
X144554999Y-77020000D02*
X147220000Y-74354999D01*
X143530000Y-77020000D02*
X144554999Y-77020000D01*
X146235000Y-80135000D02*
X150740000Y-84640000D01*
X140600000Y-80220000D02*
X143530000Y-77290000D01*
X122340000Y-73100000D02*
X129460000Y-80220000D01*
X140685000Y-80135000D02*
X146235000Y-80135000D01*
%TO.N,Net-(U2-OSC2)*%
X133750000Y-69880000D02*
X134230000Y-69400000D01*
X129100000Y-69880000D02*
X129110000Y-69870000D01*
X129110000Y-69870000D02*
X129120000Y-69880000D01*
X129120000Y-69880000D02*
X133750000Y-69880000D01*
X129030000Y-69880000D02*
X129100000Y-69880000D01*
%TO.N,Net-(U2-OSC1)*%
X134290000Y-68190000D02*
X134230000Y-68130000D01*
X134230000Y-68130000D02*
X134230000Y-68190000D01*
X134230000Y-68190000D02*
X134290000Y-68190000D01*
X133980000Y-67880000D02*
X134230000Y-68130000D01*
X129030000Y-67880000D02*
X133980000Y-67880000D01*
%TO.N,SCL*%
X118796000Y-49200000D02*
X118796000Y-58144000D01*
X118796000Y-58144000D02*
X117700000Y-59240000D01*
%TO.N,SDA*%
X121336000Y-55256000D02*
X125320000Y-59240000D01*
X121336000Y-49200000D02*
X121336000Y-55256000D01*
D22*
%TO.N,CAN+*%
X151480000Y-65895000D02*
X152105000Y-65895000D01*
X118715000Y-70230000D02*
X118305001Y-70639999D01*
X156001397Y-75600000D02*
X160365000Y-75600000D01*
X153000000Y-65140000D02*
X153020000Y-65140000D01*
X153020000Y-65140000D02*
X153020000Y-65160000D01*
X153430000Y-68254744D02*
X153430000Y-73028603D01*
X152980000Y-65120000D02*
X153000000Y-65140000D01*
X153430000Y-65985256D02*
X153980000Y-66535256D01*
X153430000Y-65570000D02*
X153430000Y-65985256D01*
X153430000Y-73028603D02*
X156001397Y-75600000D01*
X153020000Y-65160000D02*
X153430000Y-65570000D01*
X153980000Y-67704744D02*
X153430000Y-68254744D01*
X118305001Y-70639999D02*
X115589999Y-70639999D01*
X152880000Y-65120000D02*
X152980000Y-65120000D01*
X115589999Y-70639999D02*
X115390000Y-70440000D01*
X152105000Y-65895000D02*
X152880000Y-65120000D01*
X153980000Y-66535256D02*
X153980000Y-67704744D01*
X150705000Y-66670000D02*
X151480000Y-65895000D01*
%TO.N,CAN-*%
X152980000Y-67120000D02*
X152980000Y-73215000D01*
X115589999Y-71090001D02*
X115390000Y-71290000D01*
X151666397Y-66345000D02*
X152105000Y-66345000D01*
X152880000Y-67120000D02*
X152980000Y-67080000D01*
X151555000Y-66670000D02*
X151555000Y-66456397D01*
X152980000Y-73215000D02*
X160365000Y-80600000D01*
X152980000Y-67080000D02*
X152980000Y-67120000D01*
X118715000Y-71500000D02*
X118305001Y-71090001D01*
X152105000Y-66345000D02*
X152880000Y-67120000D01*
X118305001Y-71090001D02*
X115589999Y-71090001D01*
X151555000Y-66456397D02*
X151666397Y-66345000D01*
D21*
%TO.N,Net-(U2-~{RESET})*%
X139960000Y-79160000D02*
X139960000Y-78460000D01*
X139960000Y-78460000D02*
X142670000Y-75750000D01*
X142670000Y-75750000D02*
X143530000Y-75750000D01*
%TO.N,SCK*%
X142740000Y-70670000D02*
X141920000Y-69850000D01*
X143530000Y-70670000D02*
X142740000Y-70670000D01*
%TO.N,Net-(U2-TXCAN)*%
X125739092Y-68960000D02*
X133799092Y-77020000D01*
X133799092Y-77020000D02*
X134230000Y-77020000D01*
X123665000Y-68960000D02*
X125739092Y-68960000D01*
%TO.N,SI*%
X144554999Y-71940000D02*
X146190000Y-70304999D01*
X146110000Y-65090000D02*
X146190000Y-65010000D01*
X146190000Y-70304999D02*
X146110000Y-65090000D01*
X143530000Y-71940000D02*
X144554999Y-71940000D01*
%TO.N,Net-(U2-RXCAN)*%
X135460000Y-78220000D02*
X136360000Y-77320000D01*
X135340000Y-75750000D02*
X134230000Y-75750000D01*
X136360000Y-76710000D02*
X135370000Y-75720000D01*
X129115000Y-78220000D02*
X135460000Y-78220000D01*
X135370000Y-75720000D02*
X135340000Y-75750000D01*
X123665000Y-72770000D02*
X129115000Y-78220000D01*
X136360000Y-77320000D02*
X136360000Y-76710000D01*
%TO.N,CS*%
X147230000Y-71210908D02*
X143960908Y-74480000D01*
X147230000Y-64680000D02*
X147230000Y-71210908D01*
X143960908Y-74480000D02*
X143530000Y-74480000D01*
%TO.N,SO*%
X142505001Y-73210000D02*
X137090000Y-67794999D01*
X137090000Y-67794999D02*
X137090000Y-65250000D01*
X143530000Y-73210000D02*
X142505001Y-73210000D01*
%TD*%
M02*
