%TF.GenerationSoftware,KiCad,Pcbnew,8.0.2*%
%TF.CreationDate,2024-05-23T15:40:16-04:00*%
%TF.ProjectId,ORA_Arduino_ESP_CAN_Shield_Rev_1.2,4f52415f-4172-4647-9569-6e6f5f455350,rev?*%
%TF.SameCoordinates,Original*%
%TF.FileFunction,Copper,L1,Top*%
%TF.FilePolarity,Positive*%
%FSLAX46Y46*%
G04 Gerber Fmt 4.6, Leading zero omitted, Abs format (unit mm)*
G04 Created by KiCad (PCBNEW 8.0.2) date 2024-05-23 15:40:16*
%MOMM*%
%LPD*%
G01*
G04 APERTURE LIST*
G04 Aperture macros list*
%AMRoundRect*
0 Rectangle with rounded corners*
0 $1 Rounding radius*
0 $2 $3 $4 $5 $6 $7 $8 $9 X,Y pos of 4 corners*
0 Add a 4 corners polygon primitive as box body*
4,1,4,$2,$3,$4,$5,$6,$7,$8,$9,$2,$3,0*
0 Add four circle primitives for the rounded corners*
1,1,$1+$1,$2,$3*
1,1,$1+$1,$4,$5*
1,1,$1+$1,$6,$7*
1,1,$1+$1,$8,$9*
0 Add four rect primitives between the rounded corners*
20,1,$1+$1,$2,$3,$4,$5,0*
20,1,$1+$1,$4,$5,$6,$7,0*
20,1,$1+$1,$6,$7,$8,$9,0*
20,1,$1+$1,$8,$9,$2,$3,0*%
G04 Aperture macros list end*
%TA.AperFunction,ComponentPad*%
%ADD10R,1.700000X1.700000*%
%TD*%
%TA.AperFunction,ComponentPad*%
%ADD11O,1.700000X1.700000*%
%TD*%
%TA.AperFunction,SMDPad,CuDef*%
%ADD12RoundRect,0.250000X0.475000X-0.337500X0.475000X0.337500X-0.475000X0.337500X-0.475000X-0.337500X0*%
%TD*%
%TA.AperFunction,ComponentPad*%
%ADD13C,1.500000*%
%TD*%
%TA.AperFunction,ComponentPad*%
%ADD14R,2.600000X2.600000*%
%TD*%
%TA.AperFunction,ComponentPad*%
%ADD15C,2.600000*%
%TD*%
%TA.AperFunction,SMDPad,CuDef*%
%ADD16RoundRect,0.250000X-0.475000X0.337500X-0.475000X-0.337500X0.475000X-0.337500X0.475000X0.337500X0*%
%TD*%
%TA.AperFunction,SMDPad,CuDef*%
%ADD17RoundRect,0.250000X-0.337500X-0.475000X0.337500X-0.475000X0.337500X0.475000X-0.337500X0.475000X0*%
%TD*%
%TA.AperFunction,SMDPad,CuDef*%
%ADD18RoundRect,0.250000X-0.350000X-0.450000X0.350000X-0.450000X0.350000X0.450000X-0.350000X0.450000X0*%
%TD*%
%TA.AperFunction,ViaPad*%
%ADD19C,0.600000*%
%TD*%
%TA.AperFunction,Conductor*%
%ADD20C,0.250000*%
%TD*%
%TA.AperFunction,Conductor*%
%ADD21C,0.200000*%
%TD*%
G04 APERTURE END LIST*
D10*
%TO.P,J1,1,Pin_1*%
%TO.N,unconnected-(J1-Pin_1-Pad1)*%
X127940000Y-97460000D03*
D11*
%TO.P,J1,2,Pin_2*%
%TO.N,unconnected-(J1-Pin_2-Pad2)*%
X130480000Y-97460000D03*
%TO.P,J1,3,Pin_3*%
%TO.N,unconnected-(J1-Pin_3-Pad3)*%
X133020000Y-97460000D03*
%TO.P,J1,4,Pin_4*%
%TO.N,unconnected-(J1-Pin_4-Pad4)*%
X135560000Y-97460000D03*
%TO.P,J1,5,Pin_5*%
%TO.N,+5V*%
X138100000Y-97460000D03*
%TO.P,J1,6,Pin_6*%
%TO.N,GND*%
X140640000Y-97460000D03*
%TO.P,J1,7,Pin_7*%
X143180000Y-97460000D03*
%TO.P,J1,8,Pin_8*%
%TO.N,unconnected-(J1-Pin_8-Pad8)*%
X145720000Y-97460000D03*
%TD*%
D10*
%TO.P,J3,1,Pin_1*%
%TO.N,unconnected-(J3-Pin_1-Pad1)*%
X150800000Y-97460000D03*
D11*
%TO.P,J3,2,Pin_2*%
%TO.N,unconnected-(J3-Pin_2-Pad2)*%
X153340000Y-97460000D03*
%TO.P,J3,3,Pin_3*%
%TO.N,unconnected-(J3-Pin_3-Pad3)*%
X155880000Y-97460000D03*
%TO.P,J3,4,Pin_4*%
%TO.N,unconnected-(J3-Pin_4-Pad4)*%
X158420000Y-97460000D03*
%TO.P,J3,5,Pin_5*%
%TO.N,unconnected-(J3-Pin_5-Pad5)*%
X160960000Y-97460000D03*
%TO.P,J3,6,Pin_6*%
%TO.N,unconnected-(J3-Pin_6-Pad6)*%
X163500000Y-97460000D03*
%TD*%
D10*
%TO.P,J2,1,Pin_1*%
%TO.N,SCL*%
X118796000Y-49200000D03*
D11*
%TO.P,J2,2,Pin_2*%
%TO.N,SDA*%
X121336000Y-49200000D03*
%TO.P,J2,3,Pin_3*%
%TO.N,unconnected-(J2-Pin_3-Pad3)*%
X123876000Y-49200000D03*
%TO.P,J2,4,Pin_4*%
%TO.N,GND*%
X126416000Y-49200000D03*
%TO.P,J2,5,Pin_5*%
%TO.N,SCK*%
X128956000Y-49200000D03*
%TO.P,J2,6,Pin_6*%
%TO.N,SO*%
X131496000Y-49200000D03*
%TO.P,J2,7,Pin_7*%
%TO.N,SI*%
X134036000Y-49200000D03*
%TO.P,J2,8,Pin_8*%
%TO.N,CS*%
X136576000Y-49200000D03*
%TO.P,J2,9,Pin_9*%
%TO.N,unconnected-(J2-Pin_9-Pad9)*%
X139116000Y-49200000D03*
%TO.P,J2,10,Pin_10*%
%TO.N,unconnected-(J2-Pin_10-Pad10)*%
X141656000Y-49200000D03*
%TD*%
D10*
%TO.P,J4,1,Pin_1*%
%TO.N,unconnected-(J4-Pin_1-Pad1)*%
X145720000Y-49200000D03*
D11*
%TO.P,J4,2,Pin_2*%
%TO.N,unconnected-(J4-Pin_2-Pad2)*%
X148260000Y-49200000D03*
%TO.P,J4,3,Pin_3*%
%TO.N,unconnected-(J4-Pin_3-Pad3)*%
X150800000Y-49200000D03*
%TO.P,J4,4,Pin_4*%
%TO.N,unconnected-(J4-Pin_4-Pad4)*%
X153340000Y-49200000D03*
%TO.P,J4,5,Pin_5*%
%TO.N,unconnected-(J4-Pin_5-Pad5)*%
X155880000Y-49200000D03*
%TO.P,J4,6,Pin_6*%
%TO.N,unconnected-(J4-Pin_6-Pad6)*%
X158420000Y-49200000D03*
%TO.P,J4,7,Pin_7*%
%TO.N,unconnected-(J4-Pin_7-Pad7)*%
X160960000Y-49200000D03*
%TO.P,J4,8,Pin_8*%
%TO.N,unconnected-(J4-Pin_8-Pad8)*%
X163500000Y-49200000D03*
%TD*%
D12*
%TO.P,C3,1*%
%TO.N,+5V*%
X147230000Y-72700000D03*
%TO.P,C3,2*%
%TO.N,GND*%
X147230000Y-70625000D03*
%TD*%
D13*
%TO.P,Y1,1,1*%
%TO.N,Net-(U2-OSC1)*%
X107290000Y-51890000D03*
%TO.P,Y1,2,2*%
%TO.N,Net-(U2-OSC2)*%
X107290000Y-56770000D03*
%TD*%
D14*
%TO.P,J5,1,Pin_1*%
%TO.N,CAN-*%
X160365000Y-80600000D03*
D15*
%TO.P,J5,2,Pin_2*%
%TO.N,CAN+*%
X160365000Y-75600000D03*
%TD*%
D16*
%TO.P,C2,1*%
%TO.N,Net-(U2-OSC1)*%
X140420000Y-68452500D03*
%TO.P,C2,2*%
%TO.N,GND*%
X140420000Y-70527500D03*
%TD*%
D14*
%TO.P,J6,1,Pin_1*%
%TO.N,CAN-*%
X160365000Y-69340000D03*
D15*
%TO.P,J6,2,Pin_2*%
%TO.N,CAN+*%
X160365000Y-64340000D03*
%TD*%
D17*
%TO.P,C1,1*%
%TO.N,GND*%
X126960000Y-72880000D03*
%TO.P,C1,2*%
%TO.N,Net-(U2-OSC2)*%
X129035000Y-72880000D03*
%TD*%
D10*
%TO.P,U1,1,3V3*%
%TO.N,unconnected-(U1-3V3-Pad1)*%
X150720000Y-59240000D03*
D11*
%TO.P,U1,2,GND*%
%TO.N,GND*%
X148180000Y-59240000D03*
%TO.P,U1,3,D15*%
%TO.N,unconnected-(U1-D15-Pad3)*%
X145640000Y-59240000D03*
%TO.P,U1,4,D2*%
%TO.N,unconnected-(U1-D2-Pad4)*%
X143100000Y-59240000D03*
%TO.P,U1,5,D4*%
%TO.N,unconnected-(U1-D4-Pad5)*%
X140560000Y-59240000D03*
%TO.P,U1,6,RX2*%
%TO.N,unconnected-(U1-RX2-Pad6)*%
X138020000Y-59240000D03*
%TO.P,U1,7,TX2*%
%TO.N,unconnected-(U1-TX2-Pad7)*%
X135480000Y-59240000D03*
%TO.P,U1,8,D5*%
%TO.N,unconnected-(U1-D5-Pad8)*%
X132940000Y-59240000D03*
%TO.P,U1,9,D18*%
%TO.N,unconnected-(U1-D18-Pad9)*%
X130400000Y-59240000D03*
%TO.P,U1,10,D19*%
%TO.N,unconnected-(U1-D19-Pad10)*%
X127860000Y-59240000D03*
%TO.P,U1,11,D21*%
%TO.N,SDA*%
X125320000Y-59240000D03*
%TO.P,U1,12,RX0*%
%TO.N,unconnected-(U1-RX0-Pad12)*%
X122780000Y-59240000D03*
%TO.P,U1,13,TX0*%
%TO.N,unconnected-(U1-TX0-Pad13)*%
X120240000Y-59240000D03*
%TO.P,U1,14,D22*%
%TO.N,SCL*%
X117700000Y-59240000D03*
%TO.P,U1,15,D23*%
%TO.N,unconnected-(U1-D23-Pad15)*%
X115160000Y-59240000D03*
D10*
%TO.P,U1,16,EN*%
%TO.N,unconnected-(U1-EN-Pad16)*%
X115180000Y-84640000D03*
D11*
%TO.P,U1,17,VP*%
%TO.N,unconnected-(U1-VP-Pad17)*%
X117720000Y-84640000D03*
%TO.P,U1,18,VN*%
%TO.N,unconnected-(U1-VN-Pad18)*%
X120260000Y-84640000D03*
%TO.P,U1,19,D34*%
%TO.N,unconnected-(U1-D34-Pad19)*%
X122800000Y-84640000D03*
%TO.P,U1,20,D35*%
%TO.N,unconnected-(U1-D35-Pad20)*%
X125340000Y-84640000D03*
%TO.P,U1,21,D32*%
%TO.N,unconnected-(U1-D32-Pad21)*%
X127880000Y-84640000D03*
%TO.P,U1,22,D33*%
%TO.N,unconnected-(U1-D33-Pad22)*%
X130420000Y-84640000D03*
%TO.P,U1,23,D25*%
%TO.N,unconnected-(U1-D25-Pad23)*%
X132960000Y-84640000D03*
%TO.P,U1,24,D26*%
%TO.N,unconnected-(U1-D26-Pad24)*%
X135500000Y-84640000D03*
%TO.P,U1,25,D27*%
%TO.N,unconnected-(U1-D27-Pad25)*%
X138040000Y-84640000D03*
%TO.P,U1,26,D14*%
%TO.N,unconnected-(U1-D14-Pad26)*%
X140580000Y-84640000D03*
%TO.P,U1,27,D12*%
%TO.N,unconnected-(U1-D12-Pad27)*%
X143120000Y-84640000D03*
%TO.P,U1,28,D13*%
%TO.N,unconnected-(U1-D13-Pad28)*%
X145660000Y-84640000D03*
%TO.P,U1,29,GND*%
%TO.N,GND*%
X148200000Y-84640000D03*
%TO.P,U1,30,VIN*%
%TO.N,+5V*%
X150740000Y-84640000D03*
%TD*%
D18*
%TO.P,R3,1*%
%TO.N,Net-(U3-Rs)*%
X120550000Y-64520000D03*
%TO.P,R3,2*%
%TO.N,GND*%
X122550000Y-64520000D03*
%TD*%
D19*
%TO.N,GND*%
X122620000Y-64620000D03*
X137910000Y-79180000D03*
%TO.N,+5V*%
X147220000Y-72780000D03*
%TO.N,Net-(U2-OSC2)*%
X129110000Y-69870000D03*
%TO.N,Net-(U2-OSC1)*%
X134230000Y-68190000D03*
%TO.N,CAN+*%
X115390000Y-70440000D03*
X150705000Y-66670000D03*
X153020000Y-65140000D03*
%TO.N,CAN-*%
X151555000Y-66670000D03*
X152980000Y-67080000D03*
X115390000Y-71290000D03*
%TO.N,Net-(U3-Rs)*%
X118510000Y-68930000D03*
%TO.N,SCK*%
X141920000Y-69850000D03*
%TO.N,SI*%
X146110000Y-65090000D03*
%TO.N,CS*%
X147230000Y-64680000D03*
%TO.N,SO*%
X137090000Y-65250000D03*
%TD*%
D20*
%TO.N,GND*%
X137910000Y-79180000D02*
X142740000Y-79180000D01*
X148180000Y-69675000D02*
X148180000Y-59240000D01*
X147230000Y-70625000D02*
X148180000Y-69675000D01*
X140640000Y-97460000D02*
X143180000Y-97460000D01*
X126960000Y-68960000D02*
X126960000Y-72880000D01*
X142740000Y-79180000D02*
X148200000Y-84640000D01*
X145035000Y-68605000D02*
X143112500Y-70527500D01*
X147055000Y-70625000D02*
X147230000Y-70625000D01*
X148200000Y-84640000D02*
X148200000Y-89900000D01*
X148200000Y-89900000D02*
X140640000Y-97460000D01*
X122620000Y-64620000D02*
X126960000Y-68960000D01*
X143112500Y-70527500D02*
X140420000Y-70527500D01*
X145035000Y-68605000D02*
X147055000Y-70625000D01*
%TO.N,Net-(U2-OSC2)*%
X129035000Y-73165000D02*
X129035000Y-72880000D01*
X129035000Y-69945000D02*
X129035000Y-72880000D01*
X107290000Y-58593884D02*
X107290000Y-56770000D01*
X127985000Y-73930000D02*
X122626116Y-73930000D01*
X129035000Y-72880000D02*
X127985000Y-73930000D01*
X129110000Y-69870000D02*
X129035000Y-69945000D01*
X122626116Y-73930000D02*
X107290000Y-58593884D01*
%TO.N,Net-(U2-OSC1)*%
X134230000Y-68190000D02*
X129250000Y-63210000D01*
X111980000Y-56580000D02*
X107290000Y-51890000D01*
X134492500Y-68452500D02*
X140420000Y-68452500D01*
X111980000Y-60280000D02*
X111980000Y-56580000D01*
X134230000Y-68190000D02*
X134492500Y-68452500D01*
X129250000Y-63210000D02*
X114910000Y-63210000D01*
X114910000Y-63210000D02*
X111980000Y-60280000D01*
D21*
%TO.N,CAN+*%
X122015000Y-77065000D02*
X146266800Y-77065000D01*
X150904999Y-68156800D02*
X150904999Y-66869999D01*
X150905000Y-68156801D02*
X150904999Y-68156800D01*
X115390000Y-70440000D02*
X122015000Y-77065000D01*
X154283603Y-65140000D02*
X153020000Y-65140000D01*
X150905000Y-72426800D02*
X150905000Y-68156801D01*
X155083603Y-64340000D02*
X154283603Y-65140000D01*
X160365000Y-64340000D02*
X155083603Y-64340000D01*
X150904999Y-66869999D02*
X150705000Y-66670000D01*
X146266800Y-77065000D02*
X150905000Y-72426800D01*
%TO.N,CAN-*%
X151355000Y-68343199D02*
X151355001Y-68343198D01*
X155815001Y-64790001D02*
X155269999Y-64790001D01*
X146453200Y-77515000D02*
X151355000Y-72613200D01*
X115390000Y-71290000D02*
X115603603Y-71290000D01*
X151355001Y-66869999D02*
X151555000Y-66670000D01*
X155269999Y-64790001D02*
X152980000Y-67080000D01*
X151355001Y-68343198D02*
X151355001Y-66869999D01*
X115603603Y-71290000D02*
X121828603Y-77515000D01*
X160365000Y-69340000D02*
X155815001Y-64790001D01*
X151355000Y-72613200D02*
X151355000Y-68343199D01*
X160365000Y-80600000D02*
X159915000Y-80150000D01*
X121828603Y-77515000D02*
X146453200Y-77515000D01*
D20*
%TO.N,Net-(U3-Rs)*%
X118580000Y-68930000D02*
X118610000Y-68960000D01*
X118530000Y-65080000D02*
X118530000Y-68880000D01*
X118510000Y-68930000D02*
X118580000Y-68930000D01*
X118510000Y-68860000D02*
X118510000Y-68930000D01*
X119090000Y-64520000D02*
X118530000Y-65080000D01*
X118530000Y-68880000D02*
X118510000Y-68860000D01*
X120550000Y-64520000D02*
X119090000Y-64520000D01*
%TO.N,SCK*%
X134450000Y-67540000D02*
X141140100Y-67540000D01*
X141140100Y-67540000D02*
X141920000Y-68319900D01*
X132094900Y-65184900D02*
X134450000Y-67540000D01*
X131994900Y-65184900D02*
X132094900Y-65184900D01*
X128435000Y-60493299D02*
X128435000Y-61625000D01*
X128435000Y-61625000D02*
X131994900Y-65184900D01*
X129140000Y-59788299D02*
X128435000Y-60493299D01*
X129140000Y-49384000D02*
X129140000Y-59788299D01*
X128956000Y-49200000D02*
X129140000Y-49384000D01*
X141920000Y-68319900D02*
X141920000Y-69850000D01*
X141920000Y-69850000D02*
X141900000Y-69790000D01*
%TO.N,SI*%
X136655000Y-58309000D02*
X136655000Y-61056701D01*
X134036000Y-55690000D02*
X136655000Y-58309000D01*
X137433299Y-61835000D02*
X142855000Y-61835000D01*
X136655000Y-61056701D02*
X137433299Y-61835000D01*
X142855000Y-61835000D02*
X146110000Y-65090000D01*
X134036000Y-49200000D02*
X134036000Y-55690000D01*
%TO.N,CS*%
X147230000Y-64500000D02*
X147230000Y-64680000D01*
X144465000Y-57089000D02*
X136576000Y-49200000D01*
X144465000Y-61915000D02*
X144465000Y-57089000D01*
X147410000Y-64680000D02*
X147350000Y-64620000D01*
X147230000Y-64680000D02*
X147410000Y-64680000D01*
X147230000Y-64680000D02*
X144465000Y-61915000D01*
%TO.N,SO*%
X136990000Y-65290000D02*
X137090000Y-65250000D01*
X134270000Y-65200000D02*
X134360000Y-65290000D01*
X131650000Y-62760000D02*
X134090000Y-65200000D01*
X137070000Y-65290000D02*
X137030000Y-65290000D01*
X134090000Y-65200000D02*
X134270000Y-65200000D01*
X134360000Y-65290000D02*
X136990000Y-65290000D01*
X137090000Y-65250000D02*
X137070000Y-65290000D01*
X131650000Y-49354000D02*
X131650000Y-62760000D01*
X131496000Y-49200000D02*
X131650000Y-49354000D01*
%TD*%
M02*
