M48
; DRILL file {KiCad 8.0.2} date 2024-05-23T15:40:14-0400
; FORMAT={-:-/ absolute / inch / decimal}
; #@! TF.CreationDate,2024-05-23T15:40:14-04:00
; #@! TF.GenerationSoftware,Kicad,Pcbnew,8.0.2
; #@! TF.FileFunction,Plated,1,2,PTH
FMAT,2
INCH
; #@! TA.AperFunction,Plated,PTH,ViaDrill
T1C0.0157
; #@! TA.AperFunction,Plated,PTH,ComponentDrill
T2C0.0315
; #@! TA.AperFunction,Plated,PTH,ComponentDrill
T3C0.0394
; #@! TA.AperFunction,Plated,PTH,ComponentDrill
T4C0.0512
%
G90
G05
T1
X4.5429Y-2.7732
X4.5429Y-2.8067
X4.6657Y-2.7138
X4.8276Y-2.5441
X5.0831Y-2.7508
X5.2846Y-2.6846
X5.3972Y-2.5689
X5.4295Y-3.1173
X5.5874Y-2.75
X5.7524Y-2.5626
X5.7961Y-2.8654
X5.7965Y-2.5465
X5.9333Y-2.6248
X5.9667Y-2.6248
X6.0228Y-2.6409
X6.0244Y-2.5646
T2
X4.224Y-2.0429
X4.224Y-2.235
T3
X4.5339Y-2.3323
X4.5346Y-3.3323
X4.6339Y-2.3323
X4.6346Y-3.3323
X4.677Y-1.937
X4.7339Y-2.3323
X4.7346Y-3.3323
X4.777Y-1.937
X4.8339Y-2.3323
X4.8346Y-3.3323
X4.877Y-1.937
X4.9339Y-2.3323
X4.9346Y-3.3323
X4.977Y-1.937
X5.0339Y-2.3323
X5.0346Y-3.3323
X5.037Y-3.837
X5.077Y-1.937
X5.1339Y-2.3323
X5.1346Y-3.3323
X5.137Y-3.837
X5.177Y-1.937
X5.2339Y-2.3323
X5.2346Y-3.3323
X5.237Y-3.837
X5.277Y-1.937
X5.3339Y-2.3323
X5.3346Y-3.3323
X5.337Y-3.837
X5.377Y-1.937
X5.4339Y-2.3323
X5.4346Y-3.3323
X5.437Y-3.837
X5.477Y-1.937
X5.5339Y-2.3323
X5.5346Y-3.3323
X5.537Y-3.837
X5.577Y-1.937
X5.6339Y-2.3323
X5.6346Y-3.3323
X5.637Y-3.837
X5.7339Y-2.3323
X5.7346Y-3.3323
X5.737Y-1.937
X5.737Y-3.837
X5.8339Y-2.3323
X5.8346Y-3.3323
X5.837Y-1.937
X5.9339Y-2.3323
X5.9346Y-3.3323
X5.937Y-1.937
X5.937Y-3.837
X6.037Y-1.937
X6.037Y-3.837
X6.137Y-1.937
X6.137Y-3.837
X6.237Y-1.937
X6.237Y-3.837
X6.337Y-1.937
X6.337Y-3.837
X6.437Y-1.937
X6.437Y-3.837
T4
X6.3136Y-2.5331
X6.3136Y-2.7299
X6.3136Y-2.9764
X6.3136Y-3.1732
M30
