%TF.GenerationSoftware,KiCad,Pcbnew,8.0.2-1*%
%TF.CreationDate,2024-05-16T23:12:18-04:00*%
%TF.ProjectId,ORA_Arduino_ESP_CAN_Shield,4f52415f-4172-4647-9569-6e6f5f455350,rev?*%
%TF.SameCoordinates,Original*%
%TF.FileFunction,Legend,Top*%
%TF.FilePolarity,Positive*%
%FSLAX46Y46*%
G04 Gerber Fmt 4.6, Leading zero omitted, Abs format (unit mm)*
G04 Created by KiCad (PCBNEW 8.0.2-1) date 2024-05-16 23:12:18*
%MOMM*%
%LPD*%
G01*
G04 APERTURE LIST*
%ADD10C,0.150000*%
%ADD11C,0.120000*%
G04 APERTURE END LIST*
D10*
X67100588Y-66867438D02*
X67005350Y-66819819D01*
X67005350Y-66819819D02*
X66862493Y-66819819D01*
X66862493Y-66819819D02*
X66719636Y-66867438D01*
X66719636Y-66867438D02*
X66624398Y-66962676D01*
X66624398Y-66962676D02*
X66576779Y-67057914D01*
X66576779Y-67057914D02*
X66529160Y-67248390D01*
X66529160Y-67248390D02*
X66529160Y-67391247D01*
X66529160Y-67391247D02*
X66576779Y-67581723D01*
X66576779Y-67581723D02*
X66624398Y-67676961D01*
X66624398Y-67676961D02*
X66719636Y-67772200D01*
X66719636Y-67772200D02*
X66862493Y-67819819D01*
X66862493Y-67819819D02*
X66957731Y-67819819D01*
X66957731Y-67819819D02*
X67100588Y-67772200D01*
X67100588Y-67772200D02*
X67148207Y-67724580D01*
X67148207Y-67724580D02*
X67148207Y-67391247D01*
X67148207Y-67391247D02*
X66957731Y-67391247D01*
X67957731Y-67772200D02*
X67862493Y-67819819D01*
X67862493Y-67819819D02*
X67672017Y-67819819D01*
X67672017Y-67819819D02*
X67576779Y-67772200D01*
X67576779Y-67772200D02*
X67529160Y-67676961D01*
X67529160Y-67676961D02*
X67529160Y-67296009D01*
X67529160Y-67296009D02*
X67576779Y-67200771D01*
X67576779Y-67200771D02*
X67672017Y-67153152D01*
X67672017Y-67153152D02*
X67862493Y-67153152D01*
X67862493Y-67153152D02*
X67957731Y-67200771D01*
X67957731Y-67200771D02*
X68005350Y-67296009D01*
X68005350Y-67296009D02*
X68005350Y-67391247D01*
X68005350Y-67391247D02*
X67529160Y-67486485D01*
X68576779Y-67819819D02*
X68481541Y-67772200D01*
X68481541Y-67772200D02*
X68433922Y-67724580D01*
X68433922Y-67724580D02*
X68386303Y-67629342D01*
X68386303Y-67629342D02*
X68386303Y-67343628D01*
X68386303Y-67343628D02*
X68433922Y-67248390D01*
X68433922Y-67248390D02*
X68481541Y-67200771D01*
X68481541Y-67200771D02*
X68576779Y-67153152D01*
X68576779Y-67153152D02*
X68719636Y-67153152D01*
X68719636Y-67153152D02*
X68814874Y-67200771D01*
X68814874Y-67200771D02*
X68862493Y-67248390D01*
X68862493Y-67248390D02*
X68910112Y-67343628D01*
X68910112Y-67343628D02*
X68910112Y-67629342D01*
X68910112Y-67629342D02*
X68862493Y-67724580D01*
X68862493Y-67724580D02*
X68814874Y-67772200D01*
X68814874Y-67772200D02*
X68719636Y-67819819D01*
X68719636Y-67819819D02*
X68576779Y-67819819D01*
X69338684Y-67819819D02*
X69338684Y-67153152D01*
X69338684Y-67343628D02*
X69386303Y-67248390D01*
X69386303Y-67248390D02*
X69433922Y-67200771D01*
X69433922Y-67200771D02*
X69529160Y-67153152D01*
X69529160Y-67153152D02*
X69624398Y-67153152D01*
X70386303Y-67153152D02*
X70386303Y-67962676D01*
X70386303Y-67962676D02*
X70338684Y-68057914D01*
X70338684Y-68057914D02*
X70291065Y-68105533D01*
X70291065Y-68105533D02*
X70195827Y-68153152D01*
X70195827Y-68153152D02*
X70052970Y-68153152D01*
X70052970Y-68153152D02*
X69957732Y-68105533D01*
X70386303Y-67772200D02*
X70291065Y-67819819D01*
X70291065Y-67819819D02*
X70100589Y-67819819D01*
X70100589Y-67819819D02*
X70005351Y-67772200D01*
X70005351Y-67772200D02*
X69957732Y-67724580D01*
X69957732Y-67724580D02*
X69910113Y-67629342D01*
X69910113Y-67629342D02*
X69910113Y-67343628D01*
X69910113Y-67343628D02*
X69957732Y-67248390D01*
X69957732Y-67248390D02*
X70005351Y-67200771D01*
X70005351Y-67200771D02*
X70100589Y-67153152D01*
X70100589Y-67153152D02*
X70291065Y-67153152D01*
X70291065Y-67153152D02*
X70386303Y-67200771D01*
X71243446Y-67772200D02*
X71148208Y-67819819D01*
X71148208Y-67819819D02*
X70957732Y-67819819D01*
X70957732Y-67819819D02*
X70862494Y-67772200D01*
X70862494Y-67772200D02*
X70814875Y-67676961D01*
X70814875Y-67676961D02*
X70814875Y-67296009D01*
X70814875Y-67296009D02*
X70862494Y-67200771D01*
X70862494Y-67200771D02*
X70957732Y-67153152D01*
X70957732Y-67153152D02*
X71148208Y-67153152D01*
X71148208Y-67153152D02*
X71243446Y-67200771D01*
X71243446Y-67200771D02*
X71291065Y-67296009D01*
X71291065Y-67296009D02*
X71291065Y-67391247D01*
X71291065Y-67391247D02*
X70814875Y-67486485D01*
X72338685Y-66819819D02*
X72910113Y-66819819D01*
X72624399Y-67819819D02*
X72624399Y-66819819D01*
X73243447Y-67819819D02*
X73243447Y-67153152D01*
X73243447Y-67343628D02*
X73291066Y-67248390D01*
X73291066Y-67248390D02*
X73338685Y-67200771D01*
X73338685Y-67200771D02*
X73433923Y-67153152D01*
X73433923Y-67153152D02*
X73529161Y-67153152D01*
X74291066Y-67153152D02*
X74291066Y-67819819D01*
X73862495Y-67153152D02*
X73862495Y-67676961D01*
X73862495Y-67676961D02*
X73910114Y-67772200D01*
X73910114Y-67772200D02*
X74005352Y-67819819D01*
X74005352Y-67819819D02*
X74148209Y-67819819D01*
X74148209Y-67819819D02*
X74243447Y-67772200D01*
X74243447Y-67772200D02*
X74291066Y-67724580D01*
X74767257Y-67153152D02*
X74767257Y-68153152D01*
X74767257Y-67200771D02*
X74862495Y-67153152D01*
X74862495Y-67153152D02*
X75052971Y-67153152D01*
X75052971Y-67153152D02*
X75148209Y-67200771D01*
X75148209Y-67200771D02*
X75195828Y-67248390D01*
X75195828Y-67248390D02*
X75243447Y-67343628D01*
X75243447Y-67343628D02*
X75243447Y-67629342D01*
X75243447Y-67629342D02*
X75195828Y-67724580D01*
X75195828Y-67724580D02*
X75148209Y-67772200D01*
X75148209Y-67772200D02*
X75052971Y-67819819D01*
X75052971Y-67819819D02*
X74862495Y-67819819D01*
X74862495Y-67819819D02*
X74767257Y-67772200D01*
X75672019Y-67819819D02*
X75672019Y-67153152D01*
X75672019Y-66819819D02*
X75624400Y-66867438D01*
X75624400Y-66867438D02*
X75672019Y-66915057D01*
X75672019Y-66915057D02*
X75719638Y-66867438D01*
X75719638Y-66867438D02*
X75672019Y-66819819D01*
X75672019Y-66819819D02*
X75672019Y-66915057D01*
X76576780Y-67819819D02*
X76576780Y-67296009D01*
X76576780Y-67296009D02*
X76529161Y-67200771D01*
X76529161Y-67200771D02*
X76433923Y-67153152D01*
X76433923Y-67153152D02*
X76243447Y-67153152D01*
X76243447Y-67153152D02*
X76148209Y-67200771D01*
X76576780Y-67772200D02*
X76481542Y-67819819D01*
X76481542Y-67819819D02*
X76243447Y-67819819D01*
X76243447Y-67819819D02*
X76148209Y-67772200D01*
X76148209Y-67772200D02*
X76100590Y-67676961D01*
X76100590Y-67676961D02*
X76100590Y-67581723D01*
X76100590Y-67581723D02*
X76148209Y-67486485D01*
X76148209Y-67486485D02*
X76243447Y-67438866D01*
X76243447Y-67438866D02*
X76481542Y-67438866D01*
X76481542Y-67438866D02*
X76576780Y-67391247D01*
X77052971Y-67153152D02*
X77052971Y-67819819D01*
X77052971Y-67248390D02*
X77100590Y-67200771D01*
X77100590Y-67200771D02*
X77195828Y-67153152D01*
X77195828Y-67153152D02*
X77338685Y-67153152D01*
X77338685Y-67153152D02*
X77433923Y-67200771D01*
X77433923Y-67200771D02*
X77481542Y-67296009D01*
X77481542Y-67296009D02*
X77481542Y-67819819D01*
X78100590Y-67819819D02*
X78005352Y-67772200D01*
X78005352Y-67772200D02*
X77957733Y-67724580D01*
X77957733Y-67724580D02*
X77910114Y-67629342D01*
X77910114Y-67629342D02*
X77910114Y-67343628D01*
X77910114Y-67343628D02*
X77957733Y-67248390D01*
X77957733Y-67248390D02*
X78005352Y-67200771D01*
X78005352Y-67200771D02*
X78100590Y-67153152D01*
X78100590Y-67153152D02*
X78243447Y-67153152D01*
X78243447Y-67153152D02*
X78338685Y-67200771D01*
X78338685Y-67200771D02*
X78386304Y-67248390D01*
X78386304Y-67248390D02*
X78433923Y-67343628D01*
X78433923Y-67343628D02*
X78433923Y-67629342D01*
X78433923Y-67629342D02*
X78386304Y-67724580D01*
X78386304Y-67724580D02*
X78338685Y-67772200D01*
X78338685Y-67772200D02*
X78243447Y-67819819D01*
X78243447Y-67819819D02*
X78100590Y-67819819D01*
X56787255Y-63399819D02*
X56977731Y-63399819D01*
X56977731Y-63399819D02*
X57072969Y-63447438D01*
X57072969Y-63447438D02*
X57168207Y-63542676D01*
X57168207Y-63542676D02*
X57215826Y-63733152D01*
X57215826Y-63733152D02*
X57215826Y-64066485D01*
X57215826Y-64066485D02*
X57168207Y-64256961D01*
X57168207Y-64256961D02*
X57072969Y-64352200D01*
X57072969Y-64352200D02*
X56977731Y-64399819D01*
X56977731Y-64399819D02*
X56787255Y-64399819D01*
X56787255Y-64399819D02*
X56692017Y-64352200D01*
X56692017Y-64352200D02*
X56596779Y-64256961D01*
X56596779Y-64256961D02*
X56549160Y-64066485D01*
X56549160Y-64066485D02*
X56549160Y-63733152D01*
X56549160Y-63733152D02*
X56596779Y-63542676D01*
X56596779Y-63542676D02*
X56692017Y-63447438D01*
X56692017Y-63447438D02*
X56787255Y-63399819D01*
X58215826Y-64399819D02*
X57882493Y-63923628D01*
X57644398Y-64399819D02*
X57644398Y-63399819D01*
X57644398Y-63399819D02*
X58025350Y-63399819D01*
X58025350Y-63399819D02*
X58120588Y-63447438D01*
X58120588Y-63447438D02*
X58168207Y-63495057D01*
X58168207Y-63495057D02*
X58215826Y-63590295D01*
X58215826Y-63590295D02*
X58215826Y-63733152D01*
X58215826Y-63733152D02*
X58168207Y-63828390D01*
X58168207Y-63828390D02*
X58120588Y-63876009D01*
X58120588Y-63876009D02*
X58025350Y-63923628D01*
X58025350Y-63923628D02*
X57644398Y-63923628D01*
X58596779Y-64114104D02*
X59072969Y-64114104D01*
X58501541Y-64399819D02*
X58834874Y-63399819D01*
X58834874Y-63399819D02*
X59168207Y-64399819D01*
X60263446Y-64399819D02*
X60263446Y-63399819D01*
X61263445Y-63447438D02*
X61168207Y-63399819D01*
X61168207Y-63399819D02*
X61025350Y-63399819D01*
X61025350Y-63399819D02*
X60882493Y-63447438D01*
X60882493Y-63447438D02*
X60787255Y-63542676D01*
X60787255Y-63542676D02*
X60739636Y-63637914D01*
X60739636Y-63637914D02*
X60692017Y-63828390D01*
X60692017Y-63828390D02*
X60692017Y-63971247D01*
X60692017Y-63971247D02*
X60739636Y-64161723D01*
X60739636Y-64161723D02*
X60787255Y-64256961D01*
X60787255Y-64256961D02*
X60882493Y-64352200D01*
X60882493Y-64352200D02*
X61025350Y-64399819D01*
X61025350Y-64399819D02*
X61120588Y-64399819D01*
X61120588Y-64399819D02*
X61263445Y-64352200D01*
X61263445Y-64352200D02*
X61311064Y-64304580D01*
X61311064Y-64304580D02*
X61311064Y-63971247D01*
X61311064Y-63971247D02*
X61120588Y-63971247D01*
X61596779Y-63399819D02*
X61930112Y-64399819D01*
X61930112Y-64399819D02*
X62263445Y-63399819D01*
X63168207Y-64304580D02*
X63120588Y-64352200D01*
X63120588Y-64352200D02*
X62977731Y-64399819D01*
X62977731Y-64399819D02*
X62882493Y-64399819D01*
X62882493Y-64399819D02*
X62739636Y-64352200D01*
X62739636Y-64352200D02*
X62644398Y-64256961D01*
X62644398Y-64256961D02*
X62596779Y-64161723D01*
X62596779Y-64161723D02*
X62549160Y-63971247D01*
X62549160Y-63971247D02*
X62549160Y-63828390D01*
X62549160Y-63828390D02*
X62596779Y-63637914D01*
X62596779Y-63637914D02*
X62644398Y-63542676D01*
X62644398Y-63542676D02*
X62739636Y-63447438D01*
X62739636Y-63447438D02*
X62882493Y-63399819D01*
X62882493Y-63399819D02*
X62977731Y-63399819D01*
X62977731Y-63399819D02*
X63120588Y-63447438D01*
X63120588Y-63447438D02*
X63168207Y-63495057D01*
X64311065Y-63495057D02*
X64358684Y-63447438D01*
X64358684Y-63447438D02*
X64453922Y-63399819D01*
X64453922Y-63399819D02*
X64692017Y-63399819D01*
X64692017Y-63399819D02*
X64787255Y-63447438D01*
X64787255Y-63447438D02*
X64834874Y-63495057D01*
X64834874Y-63495057D02*
X64882493Y-63590295D01*
X64882493Y-63590295D02*
X64882493Y-63685533D01*
X64882493Y-63685533D02*
X64834874Y-63828390D01*
X64834874Y-63828390D02*
X64263446Y-64399819D01*
X64263446Y-64399819D02*
X64882493Y-64399819D01*
X65501541Y-63399819D02*
X65596779Y-63399819D01*
X65596779Y-63399819D02*
X65692017Y-63447438D01*
X65692017Y-63447438D02*
X65739636Y-63495057D01*
X65739636Y-63495057D02*
X65787255Y-63590295D01*
X65787255Y-63590295D02*
X65834874Y-63780771D01*
X65834874Y-63780771D02*
X65834874Y-64018866D01*
X65834874Y-64018866D02*
X65787255Y-64209342D01*
X65787255Y-64209342D02*
X65739636Y-64304580D01*
X65739636Y-64304580D02*
X65692017Y-64352200D01*
X65692017Y-64352200D02*
X65596779Y-64399819D01*
X65596779Y-64399819D02*
X65501541Y-64399819D01*
X65501541Y-64399819D02*
X65406303Y-64352200D01*
X65406303Y-64352200D02*
X65358684Y-64304580D01*
X65358684Y-64304580D02*
X65311065Y-64209342D01*
X65311065Y-64209342D02*
X65263446Y-64018866D01*
X65263446Y-64018866D02*
X65263446Y-63780771D01*
X65263446Y-63780771D02*
X65311065Y-63590295D01*
X65311065Y-63590295D02*
X65358684Y-63495057D01*
X65358684Y-63495057D02*
X65406303Y-63447438D01*
X65406303Y-63447438D02*
X65501541Y-63399819D01*
X66215827Y-63495057D02*
X66263446Y-63447438D01*
X66263446Y-63447438D02*
X66358684Y-63399819D01*
X66358684Y-63399819D02*
X66596779Y-63399819D01*
X66596779Y-63399819D02*
X66692017Y-63447438D01*
X66692017Y-63447438D02*
X66739636Y-63495057D01*
X66739636Y-63495057D02*
X66787255Y-63590295D01*
X66787255Y-63590295D02*
X66787255Y-63685533D01*
X66787255Y-63685533D02*
X66739636Y-63828390D01*
X66739636Y-63828390D02*
X66168208Y-64399819D01*
X66168208Y-64399819D02*
X66787255Y-64399819D01*
X67120589Y-63399819D02*
X67739636Y-63399819D01*
X67739636Y-63399819D02*
X67406303Y-63780771D01*
X67406303Y-63780771D02*
X67549160Y-63780771D01*
X67549160Y-63780771D02*
X67644398Y-63828390D01*
X67644398Y-63828390D02*
X67692017Y-63876009D01*
X67692017Y-63876009D02*
X67739636Y-63971247D01*
X67739636Y-63971247D02*
X67739636Y-64209342D01*
X67739636Y-64209342D02*
X67692017Y-64304580D01*
X67692017Y-64304580D02*
X67644398Y-64352200D01*
X67644398Y-64352200D02*
X67549160Y-64399819D01*
X67549160Y-64399819D02*
X67263446Y-64399819D01*
X67263446Y-64399819D02*
X67168208Y-64352200D01*
X67168208Y-64352200D02*
X67120589Y-64304580D01*
X68882493Y-63352200D02*
X68025351Y-64637914D01*
X69168208Y-63495057D02*
X69215827Y-63447438D01*
X69215827Y-63447438D02*
X69311065Y-63399819D01*
X69311065Y-63399819D02*
X69549160Y-63399819D01*
X69549160Y-63399819D02*
X69644398Y-63447438D01*
X69644398Y-63447438D02*
X69692017Y-63495057D01*
X69692017Y-63495057D02*
X69739636Y-63590295D01*
X69739636Y-63590295D02*
X69739636Y-63685533D01*
X69739636Y-63685533D02*
X69692017Y-63828390D01*
X69692017Y-63828390D02*
X69120589Y-64399819D01*
X69120589Y-64399819D02*
X69739636Y-64399819D01*
X70596779Y-63733152D02*
X70596779Y-64399819D01*
X70358684Y-63352200D02*
X70120589Y-64066485D01*
X70120589Y-64066485D02*
X70739636Y-64066485D01*
X72453922Y-64304580D02*
X72406303Y-64352200D01*
X72406303Y-64352200D02*
X72263446Y-64399819D01*
X72263446Y-64399819D02*
X72168208Y-64399819D01*
X72168208Y-64399819D02*
X72025351Y-64352200D01*
X72025351Y-64352200D02*
X71930113Y-64256961D01*
X71930113Y-64256961D02*
X71882494Y-64161723D01*
X71882494Y-64161723D02*
X71834875Y-63971247D01*
X71834875Y-63971247D02*
X71834875Y-63828390D01*
X71834875Y-63828390D02*
X71882494Y-63637914D01*
X71882494Y-63637914D02*
X71930113Y-63542676D01*
X71930113Y-63542676D02*
X72025351Y-63447438D01*
X72025351Y-63447438D02*
X72168208Y-63399819D01*
X72168208Y-63399819D02*
X72263446Y-63399819D01*
X72263446Y-63399819D02*
X72406303Y-63447438D01*
X72406303Y-63447438D02*
X72453922Y-63495057D01*
X73025351Y-64399819D02*
X72930113Y-64352200D01*
X72930113Y-64352200D02*
X72882494Y-64304580D01*
X72882494Y-64304580D02*
X72834875Y-64209342D01*
X72834875Y-64209342D02*
X72834875Y-63923628D01*
X72834875Y-63923628D02*
X72882494Y-63828390D01*
X72882494Y-63828390D02*
X72930113Y-63780771D01*
X72930113Y-63780771D02*
X73025351Y-63733152D01*
X73025351Y-63733152D02*
X73168208Y-63733152D01*
X73168208Y-63733152D02*
X73263446Y-63780771D01*
X73263446Y-63780771D02*
X73311065Y-63828390D01*
X73311065Y-63828390D02*
X73358684Y-63923628D01*
X73358684Y-63923628D02*
X73358684Y-64209342D01*
X73358684Y-64209342D02*
X73311065Y-64304580D01*
X73311065Y-64304580D02*
X73263446Y-64352200D01*
X73263446Y-64352200D02*
X73168208Y-64399819D01*
X73168208Y-64399819D02*
X73025351Y-64399819D01*
X73787256Y-63733152D02*
X73787256Y-64399819D01*
X73787256Y-63828390D02*
X73834875Y-63780771D01*
X73834875Y-63780771D02*
X73930113Y-63733152D01*
X73930113Y-63733152D02*
X74072970Y-63733152D01*
X74072970Y-63733152D02*
X74168208Y-63780771D01*
X74168208Y-63780771D02*
X74215827Y-63876009D01*
X74215827Y-63876009D02*
X74215827Y-64399819D01*
X74549161Y-63733152D02*
X74930113Y-63733152D01*
X74692018Y-63399819D02*
X74692018Y-64256961D01*
X74692018Y-64256961D02*
X74739637Y-64352200D01*
X74739637Y-64352200D02*
X74834875Y-64399819D01*
X74834875Y-64399819D02*
X74930113Y-64399819D01*
X75263447Y-64399819D02*
X75263447Y-63733152D01*
X75263447Y-63923628D02*
X75311066Y-63828390D01*
X75311066Y-63828390D02*
X75358685Y-63780771D01*
X75358685Y-63780771D02*
X75453923Y-63733152D01*
X75453923Y-63733152D02*
X75549161Y-63733152D01*
X76025352Y-64399819D02*
X75930114Y-64352200D01*
X75930114Y-64352200D02*
X75882495Y-64304580D01*
X75882495Y-64304580D02*
X75834876Y-64209342D01*
X75834876Y-64209342D02*
X75834876Y-63923628D01*
X75834876Y-63923628D02*
X75882495Y-63828390D01*
X75882495Y-63828390D02*
X75930114Y-63780771D01*
X75930114Y-63780771D02*
X76025352Y-63733152D01*
X76025352Y-63733152D02*
X76168209Y-63733152D01*
X76168209Y-63733152D02*
X76263447Y-63780771D01*
X76263447Y-63780771D02*
X76311066Y-63828390D01*
X76311066Y-63828390D02*
X76358685Y-63923628D01*
X76358685Y-63923628D02*
X76358685Y-64209342D01*
X76358685Y-64209342D02*
X76311066Y-64304580D01*
X76311066Y-64304580D02*
X76263447Y-64352200D01*
X76263447Y-64352200D02*
X76168209Y-64399819D01*
X76168209Y-64399819D02*
X76025352Y-64399819D01*
X76930114Y-64399819D02*
X76834876Y-64352200D01*
X76834876Y-64352200D02*
X76787257Y-64256961D01*
X76787257Y-64256961D02*
X76787257Y-63399819D01*
X78406305Y-63876009D02*
X78549162Y-63923628D01*
X78549162Y-63923628D02*
X78596781Y-63971247D01*
X78596781Y-63971247D02*
X78644400Y-64066485D01*
X78644400Y-64066485D02*
X78644400Y-64209342D01*
X78644400Y-64209342D02*
X78596781Y-64304580D01*
X78596781Y-64304580D02*
X78549162Y-64352200D01*
X78549162Y-64352200D02*
X78453924Y-64399819D01*
X78453924Y-64399819D02*
X78072972Y-64399819D01*
X78072972Y-64399819D02*
X78072972Y-63399819D01*
X78072972Y-63399819D02*
X78406305Y-63399819D01*
X78406305Y-63399819D02*
X78501543Y-63447438D01*
X78501543Y-63447438D02*
X78549162Y-63495057D01*
X78549162Y-63495057D02*
X78596781Y-63590295D01*
X78596781Y-63590295D02*
X78596781Y-63685533D01*
X78596781Y-63685533D02*
X78549162Y-63780771D01*
X78549162Y-63780771D02*
X78501543Y-63828390D01*
X78501543Y-63828390D02*
X78406305Y-63876009D01*
X78406305Y-63876009D02*
X78072972Y-63876009D01*
X79215829Y-64399819D02*
X79120591Y-64352200D01*
X79120591Y-64352200D02*
X79072972Y-64304580D01*
X79072972Y-64304580D02*
X79025353Y-64209342D01*
X79025353Y-64209342D02*
X79025353Y-63923628D01*
X79025353Y-63923628D02*
X79072972Y-63828390D01*
X79072972Y-63828390D02*
X79120591Y-63780771D01*
X79120591Y-63780771D02*
X79215829Y-63733152D01*
X79215829Y-63733152D02*
X79358686Y-63733152D01*
X79358686Y-63733152D02*
X79453924Y-63780771D01*
X79453924Y-63780771D02*
X79501543Y-63828390D01*
X79501543Y-63828390D02*
X79549162Y-63923628D01*
X79549162Y-63923628D02*
X79549162Y-64209342D01*
X79549162Y-64209342D02*
X79501543Y-64304580D01*
X79501543Y-64304580D02*
X79453924Y-64352200D01*
X79453924Y-64352200D02*
X79358686Y-64399819D01*
X79358686Y-64399819D02*
X79215829Y-64399819D01*
X80406305Y-64399819D02*
X80406305Y-63876009D01*
X80406305Y-63876009D02*
X80358686Y-63780771D01*
X80358686Y-63780771D02*
X80263448Y-63733152D01*
X80263448Y-63733152D02*
X80072972Y-63733152D01*
X80072972Y-63733152D02*
X79977734Y-63780771D01*
X80406305Y-64352200D02*
X80311067Y-64399819D01*
X80311067Y-64399819D02*
X80072972Y-64399819D01*
X80072972Y-64399819D02*
X79977734Y-64352200D01*
X79977734Y-64352200D02*
X79930115Y-64256961D01*
X79930115Y-64256961D02*
X79930115Y-64161723D01*
X79930115Y-64161723D02*
X79977734Y-64066485D01*
X79977734Y-64066485D02*
X80072972Y-64018866D01*
X80072972Y-64018866D02*
X80311067Y-64018866D01*
X80311067Y-64018866D02*
X80406305Y-63971247D01*
X80882496Y-64399819D02*
X80882496Y-63733152D01*
X80882496Y-63923628D02*
X80930115Y-63828390D01*
X80930115Y-63828390D02*
X80977734Y-63780771D01*
X80977734Y-63780771D02*
X81072972Y-63733152D01*
X81072972Y-63733152D02*
X81168210Y-63733152D01*
X81930115Y-64399819D02*
X81930115Y-63399819D01*
X81930115Y-64352200D02*
X81834877Y-64399819D01*
X81834877Y-64399819D02*
X81644401Y-64399819D01*
X81644401Y-64399819D02*
X81549163Y-64352200D01*
X81549163Y-64352200D02*
X81501544Y-64304580D01*
X81501544Y-64304580D02*
X81453925Y-64209342D01*
X81453925Y-64209342D02*
X81453925Y-63923628D01*
X81453925Y-63923628D02*
X81501544Y-63828390D01*
X81501544Y-63828390D02*
X81549163Y-63780771D01*
X81549163Y-63780771D02*
X81644401Y-63733152D01*
X81644401Y-63733152D02*
X81834877Y-63733152D01*
X81834877Y-63733152D02*
X81930115Y-63780771D01*
X83739639Y-64399819D02*
X83406306Y-63923628D01*
X83168211Y-64399819D02*
X83168211Y-63399819D01*
X83168211Y-63399819D02*
X83549163Y-63399819D01*
X83549163Y-63399819D02*
X83644401Y-63447438D01*
X83644401Y-63447438D02*
X83692020Y-63495057D01*
X83692020Y-63495057D02*
X83739639Y-63590295D01*
X83739639Y-63590295D02*
X83739639Y-63733152D01*
X83739639Y-63733152D02*
X83692020Y-63828390D01*
X83692020Y-63828390D02*
X83644401Y-63876009D01*
X83644401Y-63876009D02*
X83549163Y-63923628D01*
X83549163Y-63923628D02*
X83168211Y-63923628D01*
X84168211Y-63876009D02*
X84501544Y-63876009D01*
X84644401Y-64399819D02*
X84168211Y-64399819D01*
X84168211Y-64399819D02*
X84168211Y-63399819D01*
X84168211Y-63399819D02*
X84644401Y-63399819D01*
X84930116Y-63399819D02*
X85263449Y-64399819D01*
X85263449Y-64399819D02*
X85596782Y-63399819D01*
X86882497Y-63399819D02*
X86977735Y-63399819D01*
X86977735Y-63399819D02*
X87072973Y-63447438D01*
X87072973Y-63447438D02*
X87120592Y-63495057D01*
X87120592Y-63495057D02*
X87168211Y-63590295D01*
X87168211Y-63590295D02*
X87215830Y-63780771D01*
X87215830Y-63780771D02*
X87215830Y-64018866D01*
X87215830Y-64018866D02*
X87168211Y-64209342D01*
X87168211Y-64209342D02*
X87120592Y-64304580D01*
X87120592Y-64304580D02*
X87072973Y-64352200D01*
X87072973Y-64352200D02*
X86977735Y-64399819D01*
X86977735Y-64399819D02*
X86882497Y-64399819D01*
X86882497Y-64399819D02*
X86787259Y-64352200D01*
X86787259Y-64352200D02*
X86739640Y-64304580D01*
X86739640Y-64304580D02*
X86692021Y-64209342D01*
X86692021Y-64209342D02*
X86644402Y-64018866D01*
X86644402Y-64018866D02*
X86644402Y-63780771D01*
X86644402Y-63780771D02*
X86692021Y-63590295D01*
X86692021Y-63590295D02*
X86739640Y-63495057D01*
X86739640Y-63495057D02*
X86787259Y-63447438D01*
X86787259Y-63447438D02*
X86882497Y-63399819D01*
X87644402Y-64304580D02*
X87692021Y-64352200D01*
X87692021Y-64352200D02*
X87644402Y-64399819D01*
X87644402Y-64399819D02*
X87596783Y-64352200D01*
X87596783Y-64352200D02*
X87644402Y-64304580D01*
X87644402Y-64304580D02*
X87644402Y-64399819D01*
X88644401Y-64399819D02*
X88072973Y-64399819D01*
X88358687Y-64399819D02*
X88358687Y-63399819D01*
X88358687Y-63399819D02*
X88263449Y-63542676D01*
X88263449Y-63542676D02*
X88168211Y-63637914D01*
X88168211Y-63637914D02*
X88072973Y-63685533D01*
X68572969Y-65299819D02*
X68096779Y-65299819D01*
X68096779Y-65299819D02*
X68049160Y-65776009D01*
X68049160Y-65776009D02*
X68096779Y-65728390D01*
X68096779Y-65728390D02*
X68192017Y-65680771D01*
X68192017Y-65680771D02*
X68430112Y-65680771D01*
X68430112Y-65680771D02*
X68525350Y-65728390D01*
X68525350Y-65728390D02*
X68572969Y-65776009D01*
X68572969Y-65776009D02*
X68620588Y-65871247D01*
X68620588Y-65871247D02*
X68620588Y-66109342D01*
X68620588Y-66109342D02*
X68572969Y-66204580D01*
X68572969Y-66204580D02*
X68525350Y-66252200D01*
X68525350Y-66252200D02*
X68430112Y-66299819D01*
X68430112Y-66299819D02*
X68192017Y-66299819D01*
X68192017Y-66299819D02*
X68096779Y-66252200D01*
X68096779Y-66252200D02*
X68049160Y-66204580D01*
X69763445Y-65252200D02*
X68906303Y-66537914D01*
X70620588Y-66299819D02*
X70049160Y-66299819D01*
X70334874Y-66299819D02*
X70334874Y-65299819D01*
X70334874Y-65299819D02*
X70239636Y-65442676D01*
X70239636Y-65442676D02*
X70144398Y-65537914D01*
X70144398Y-65537914D02*
X70049160Y-65585533D01*
X71525350Y-65299819D02*
X71049160Y-65299819D01*
X71049160Y-65299819D02*
X71001541Y-65776009D01*
X71001541Y-65776009D02*
X71049160Y-65728390D01*
X71049160Y-65728390D02*
X71144398Y-65680771D01*
X71144398Y-65680771D02*
X71382493Y-65680771D01*
X71382493Y-65680771D02*
X71477731Y-65728390D01*
X71477731Y-65728390D02*
X71525350Y-65776009D01*
X71525350Y-65776009D02*
X71572969Y-65871247D01*
X71572969Y-65871247D02*
X71572969Y-66109342D01*
X71572969Y-66109342D02*
X71525350Y-66204580D01*
X71525350Y-66204580D02*
X71477731Y-66252200D01*
X71477731Y-66252200D02*
X71382493Y-66299819D01*
X71382493Y-66299819D02*
X71144398Y-66299819D01*
X71144398Y-66299819D02*
X71049160Y-66252200D01*
X71049160Y-66252200D02*
X71001541Y-66204580D01*
X72715826Y-65252200D02*
X71858684Y-66537914D01*
X73001541Y-65395057D02*
X73049160Y-65347438D01*
X73049160Y-65347438D02*
X73144398Y-65299819D01*
X73144398Y-65299819D02*
X73382493Y-65299819D01*
X73382493Y-65299819D02*
X73477731Y-65347438D01*
X73477731Y-65347438D02*
X73525350Y-65395057D01*
X73525350Y-65395057D02*
X73572969Y-65490295D01*
X73572969Y-65490295D02*
X73572969Y-65585533D01*
X73572969Y-65585533D02*
X73525350Y-65728390D01*
X73525350Y-65728390D02*
X72953922Y-66299819D01*
X72953922Y-66299819D02*
X73572969Y-66299819D01*
X74192017Y-65299819D02*
X74287255Y-65299819D01*
X74287255Y-65299819D02*
X74382493Y-65347438D01*
X74382493Y-65347438D02*
X74430112Y-65395057D01*
X74430112Y-65395057D02*
X74477731Y-65490295D01*
X74477731Y-65490295D02*
X74525350Y-65680771D01*
X74525350Y-65680771D02*
X74525350Y-65918866D01*
X74525350Y-65918866D02*
X74477731Y-66109342D01*
X74477731Y-66109342D02*
X74430112Y-66204580D01*
X74430112Y-66204580D02*
X74382493Y-66252200D01*
X74382493Y-66252200D02*
X74287255Y-66299819D01*
X74287255Y-66299819D02*
X74192017Y-66299819D01*
X74192017Y-66299819D02*
X74096779Y-66252200D01*
X74096779Y-66252200D02*
X74049160Y-66204580D01*
X74049160Y-66204580D02*
X74001541Y-66109342D01*
X74001541Y-66109342D02*
X73953922Y-65918866D01*
X73953922Y-65918866D02*
X73953922Y-65680771D01*
X73953922Y-65680771D02*
X74001541Y-65490295D01*
X74001541Y-65490295D02*
X74049160Y-65395057D01*
X74049160Y-65395057D02*
X74096779Y-65347438D01*
X74096779Y-65347438D02*
X74192017Y-65299819D01*
X74906303Y-65395057D02*
X74953922Y-65347438D01*
X74953922Y-65347438D02*
X75049160Y-65299819D01*
X75049160Y-65299819D02*
X75287255Y-65299819D01*
X75287255Y-65299819D02*
X75382493Y-65347438D01*
X75382493Y-65347438D02*
X75430112Y-65395057D01*
X75430112Y-65395057D02*
X75477731Y-65490295D01*
X75477731Y-65490295D02*
X75477731Y-65585533D01*
X75477731Y-65585533D02*
X75430112Y-65728390D01*
X75430112Y-65728390D02*
X74858684Y-66299819D01*
X74858684Y-66299819D02*
X75477731Y-66299819D01*
X76334874Y-65633152D02*
X76334874Y-66299819D01*
X76096779Y-65252200D02*
X75858684Y-65966485D01*
X75858684Y-65966485D02*
X76477731Y-65966485D01*
X43719819Y-66146666D02*
X43243628Y-66479999D01*
X43719819Y-66718094D02*
X42719819Y-66718094D01*
X42719819Y-66718094D02*
X42719819Y-66337142D01*
X42719819Y-66337142D02*
X42767438Y-66241904D01*
X42767438Y-66241904D02*
X42815057Y-66194285D01*
X42815057Y-66194285D02*
X42910295Y-66146666D01*
X42910295Y-66146666D02*
X43053152Y-66146666D01*
X43053152Y-66146666D02*
X43148390Y-66194285D01*
X43148390Y-66194285D02*
X43196009Y-66241904D01*
X43196009Y-66241904D02*
X43243628Y-66337142D01*
X43243628Y-66337142D02*
X43243628Y-66718094D01*
X43719819Y-65194285D02*
X43719819Y-65765713D01*
X43719819Y-65479999D02*
X42719819Y-65479999D01*
X42719819Y-65479999D02*
X42862676Y-65575237D01*
X42862676Y-65575237D02*
X42957914Y-65670475D01*
X42957914Y-65670475D02*
X43005533Y-65765713D01*
X74929819Y-57821904D02*
X74929819Y-57250476D01*
X75929819Y-57536190D02*
X74929819Y-57536190D01*
X75929819Y-56345714D02*
X75453628Y-56679047D01*
X75929819Y-56917142D02*
X74929819Y-56917142D01*
X74929819Y-56917142D02*
X74929819Y-56536190D01*
X74929819Y-56536190D02*
X74977438Y-56440952D01*
X74977438Y-56440952D02*
X75025057Y-56393333D01*
X75025057Y-56393333D02*
X75120295Y-56345714D01*
X75120295Y-56345714D02*
X75263152Y-56345714D01*
X75263152Y-56345714D02*
X75358390Y-56393333D01*
X75358390Y-56393333D02*
X75406009Y-56440952D01*
X75406009Y-56440952D02*
X75453628Y-56536190D01*
X75453628Y-56536190D02*
X75453628Y-56917142D01*
X75929819Y-55393333D02*
X75929819Y-55964761D01*
X75929819Y-55679047D02*
X74929819Y-55679047D01*
X74929819Y-55679047D02*
X75072676Y-55774285D01*
X75072676Y-55774285D02*
X75167914Y-55869523D01*
X75167914Y-55869523D02*
X75215533Y-55964761D01*
X42598333Y-59809580D02*
X42550714Y-59857200D01*
X42550714Y-59857200D02*
X42407857Y-59904819D01*
X42407857Y-59904819D02*
X42312619Y-59904819D01*
X42312619Y-59904819D02*
X42169762Y-59857200D01*
X42169762Y-59857200D02*
X42074524Y-59761961D01*
X42074524Y-59761961D02*
X42026905Y-59666723D01*
X42026905Y-59666723D02*
X41979286Y-59476247D01*
X41979286Y-59476247D02*
X41979286Y-59333390D01*
X41979286Y-59333390D02*
X42026905Y-59142914D01*
X42026905Y-59142914D02*
X42074524Y-59047676D01*
X42074524Y-59047676D02*
X42169762Y-58952438D01*
X42169762Y-58952438D02*
X42312619Y-58904819D01*
X42312619Y-58904819D02*
X42407857Y-58904819D01*
X42407857Y-58904819D02*
X42550714Y-58952438D01*
X42550714Y-58952438D02*
X42598333Y-59000057D01*
X42979286Y-59000057D02*
X43026905Y-58952438D01*
X43026905Y-58952438D02*
X43122143Y-58904819D01*
X43122143Y-58904819D02*
X43360238Y-58904819D01*
X43360238Y-58904819D02*
X43455476Y-58952438D01*
X43455476Y-58952438D02*
X43503095Y-59000057D01*
X43503095Y-59000057D02*
X43550714Y-59095295D01*
X43550714Y-59095295D02*
X43550714Y-59190533D01*
X43550714Y-59190533D02*
X43503095Y-59333390D01*
X43503095Y-59333390D02*
X42931667Y-59904819D01*
X42931667Y-59904819D02*
X43550714Y-59904819D01*
X31234580Y-66616666D02*
X31282200Y-66664285D01*
X31282200Y-66664285D02*
X31329819Y-66807142D01*
X31329819Y-66807142D02*
X31329819Y-66902380D01*
X31329819Y-66902380D02*
X31282200Y-67045237D01*
X31282200Y-67045237D02*
X31186961Y-67140475D01*
X31186961Y-67140475D02*
X31091723Y-67188094D01*
X31091723Y-67188094D02*
X30901247Y-67235713D01*
X30901247Y-67235713D02*
X30758390Y-67235713D01*
X30758390Y-67235713D02*
X30567914Y-67188094D01*
X30567914Y-67188094D02*
X30472676Y-67140475D01*
X30472676Y-67140475D02*
X30377438Y-67045237D01*
X30377438Y-67045237D02*
X30329819Y-66902380D01*
X30329819Y-66902380D02*
X30329819Y-66807142D01*
X30329819Y-66807142D02*
X30377438Y-66664285D01*
X30377438Y-66664285D02*
X30425057Y-66616666D01*
X31329819Y-65664285D02*
X31329819Y-66235713D01*
X31329819Y-65949999D02*
X30329819Y-65949999D01*
X30329819Y-65949999D02*
X30472676Y-66045237D01*
X30472676Y-66045237D02*
X30567914Y-66140475D01*
X30567914Y-66140475D02*
X30615533Y-66235713D01*
X58208333Y-59024819D02*
X57875000Y-58548628D01*
X57636905Y-59024819D02*
X57636905Y-58024819D01*
X57636905Y-58024819D02*
X58017857Y-58024819D01*
X58017857Y-58024819D02*
X58113095Y-58072438D01*
X58113095Y-58072438D02*
X58160714Y-58120057D01*
X58160714Y-58120057D02*
X58208333Y-58215295D01*
X58208333Y-58215295D02*
X58208333Y-58358152D01*
X58208333Y-58358152D02*
X58160714Y-58453390D01*
X58160714Y-58453390D02*
X58113095Y-58501009D01*
X58113095Y-58501009D02*
X58017857Y-58548628D01*
X58017857Y-58548628D02*
X57636905Y-58548628D01*
X58541667Y-58024819D02*
X59160714Y-58024819D01*
X59160714Y-58024819D02*
X58827381Y-58405771D01*
X58827381Y-58405771D02*
X58970238Y-58405771D01*
X58970238Y-58405771D02*
X59065476Y-58453390D01*
X59065476Y-58453390D02*
X59113095Y-58501009D01*
X59113095Y-58501009D02*
X59160714Y-58596247D01*
X59160714Y-58596247D02*
X59160714Y-58834342D01*
X59160714Y-58834342D02*
X59113095Y-58929580D01*
X59113095Y-58929580D02*
X59065476Y-58977200D01*
X59065476Y-58977200D02*
X58970238Y-59024819D01*
X58970238Y-59024819D02*
X58684524Y-59024819D01*
X58684524Y-59024819D02*
X58589286Y-58977200D01*
X58589286Y-58977200D02*
X58541667Y-58929580D01*
X52485833Y-60539580D02*
X52438214Y-60587200D01*
X52438214Y-60587200D02*
X52295357Y-60634819D01*
X52295357Y-60634819D02*
X52200119Y-60634819D01*
X52200119Y-60634819D02*
X52057262Y-60587200D01*
X52057262Y-60587200D02*
X51962024Y-60491961D01*
X51962024Y-60491961D02*
X51914405Y-60396723D01*
X51914405Y-60396723D02*
X51866786Y-60206247D01*
X51866786Y-60206247D02*
X51866786Y-60063390D01*
X51866786Y-60063390D02*
X51914405Y-59872914D01*
X51914405Y-59872914D02*
X51962024Y-59777676D01*
X51962024Y-59777676D02*
X52057262Y-59682438D01*
X52057262Y-59682438D02*
X52200119Y-59634819D01*
X52200119Y-59634819D02*
X52295357Y-59634819D01*
X52295357Y-59634819D02*
X52438214Y-59682438D01*
X52438214Y-59682438D02*
X52485833Y-59730057D01*
X52819167Y-59634819D02*
X53438214Y-59634819D01*
X53438214Y-59634819D02*
X53104881Y-60015771D01*
X53104881Y-60015771D02*
X53247738Y-60015771D01*
X53247738Y-60015771D02*
X53342976Y-60063390D01*
X53342976Y-60063390D02*
X53390595Y-60111009D01*
X53390595Y-60111009D02*
X53438214Y-60206247D01*
X53438214Y-60206247D02*
X53438214Y-60444342D01*
X53438214Y-60444342D02*
X53390595Y-60539580D01*
X53390595Y-60539580D02*
X53342976Y-60587200D01*
X53342976Y-60587200D02*
X53247738Y-60634819D01*
X53247738Y-60634819D02*
X52962024Y-60634819D01*
X52962024Y-60634819D02*
X52866786Y-60587200D01*
X52866786Y-60587200D02*
X52819167Y-60539580D01*
X47463095Y-61574819D02*
X47463095Y-62384342D01*
X47463095Y-62384342D02*
X47510714Y-62479580D01*
X47510714Y-62479580D02*
X47558333Y-62527200D01*
X47558333Y-62527200D02*
X47653571Y-62574819D01*
X47653571Y-62574819D02*
X47844047Y-62574819D01*
X47844047Y-62574819D02*
X47939285Y-62527200D01*
X47939285Y-62527200D02*
X47986904Y-62479580D01*
X47986904Y-62479580D02*
X48034523Y-62384342D01*
X48034523Y-62384342D02*
X48034523Y-61574819D01*
X48415476Y-61574819D02*
X49034523Y-61574819D01*
X49034523Y-61574819D02*
X48701190Y-61955771D01*
X48701190Y-61955771D02*
X48844047Y-61955771D01*
X48844047Y-61955771D02*
X48939285Y-62003390D01*
X48939285Y-62003390D02*
X48986904Y-62051009D01*
X48986904Y-62051009D02*
X49034523Y-62146247D01*
X49034523Y-62146247D02*
X49034523Y-62384342D01*
X49034523Y-62384342D02*
X48986904Y-62479580D01*
X48986904Y-62479580D02*
X48939285Y-62527200D01*
X48939285Y-62527200D02*
X48844047Y-62574819D01*
X48844047Y-62574819D02*
X48558333Y-62574819D01*
X48558333Y-62574819D02*
X48463095Y-62527200D01*
X48463095Y-62527200D02*
X48415476Y-62479580D01*
X34799819Y-61096666D02*
X34323628Y-61429999D01*
X34799819Y-61668094D02*
X33799819Y-61668094D01*
X33799819Y-61668094D02*
X33799819Y-61287142D01*
X33799819Y-61287142D02*
X33847438Y-61191904D01*
X33847438Y-61191904D02*
X33895057Y-61144285D01*
X33895057Y-61144285D02*
X33990295Y-61096666D01*
X33990295Y-61096666D02*
X34133152Y-61096666D01*
X34133152Y-61096666D02*
X34228390Y-61144285D01*
X34228390Y-61144285D02*
X34276009Y-61191904D01*
X34276009Y-61191904D02*
X34323628Y-61287142D01*
X34323628Y-61287142D02*
X34323628Y-61668094D01*
X33895057Y-60715713D02*
X33847438Y-60668094D01*
X33847438Y-60668094D02*
X33799819Y-60572856D01*
X33799819Y-60572856D02*
X33799819Y-60334761D01*
X33799819Y-60334761D02*
X33847438Y-60239523D01*
X33847438Y-60239523D02*
X33895057Y-60191904D01*
X33895057Y-60191904D02*
X33990295Y-60144285D01*
X33990295Y-60144285D02*
X34085533Y-60144285D01*
X34085533Y-60144285D02*
X34228390Y-60191904D01*
X34228390Y-60191904D02*
X34799819Y-60763332D01*
X34799819Y-60763332D02*
X34799819Y-60144285D01*
D11*
%TO.C,R1*%
X40880000Y-65752936D02*
X40880000Y-66207064D01*
X42350000Y-65752936D02*
X42350000Y-66207064D01*
%TO.C,TR1*%
X73090000Y-56332936D02*
X73090000Y-56787064D01*
X74560000Y-56332936D02*
X74560000Y-56787064D01*
%TO.C,C2*%
X42503748Y-60395000D02*
X43026252Y-60395000D01*
X42503748Y-61865000D02*
X43026252Y-61865000D01*
%TO.C,Digital_1*%
X41230000Y-74910000D02*
X41230000Y-73580000D01*
X42560000Y-74910000D02*
X41230000Y-74910000D01*
X43830000Y-72250000D02*
X66750000Y-72250000D01*
X43830000Y-74910000D02*
X43830000Y-72250000D01*
X43830000Y-74910000D02*
X66750000Y-74910000D01*
X66750000Y-74910000D02*
X66750000Y-72250000D01*
%TO.C,C1*%
X31820000Y-66711252D02*
X31820000Y-66188748D01*
X33290000Y-66711252D02*
X33290000Y-66188748D01*
%TO.C,Power_1*%
X50385000Y-26650000D02*
X50385000Y-25320000D01*
X51715000Y-26650000D02*
X50385000Y-26650000D01*
X52985000Y-23990000D02*
X70825000Y-23990000D01*
X52985000Y-26650000D02*
X52985000Y-23990000D01*
X52985000Y-26650000D02*
X70825000Y-26650000D01*
X70825000Y-26650000D02*
X70825000Y-23990000D01*
%TO.C,R3*%
X58147936Y-59485000D02*
X58602064Y-59485000D01*
X58147936Y-60955000D02*
X58602064Y-60955000D01*
%TO.C,Analog_1*%
X73240000Y-26640000D02*
X73240000Y-25310000D01*
X74570000Y-26640000D02*
X73240000Y-26640000D01*
X75840000Y-23980000D02*
X88600000Y-23980000D01*
X75840000Y-26640000D02*
X75840000Y-23980000D01*
X75840000Y-26640000D02*
X88600000Y-26640000D01*
X88600000Y-26640000D02*
X88600000Y-23980000D01*
%TO.C,C3*%
X52913752Y-57765000D02*
X52391248Y-57765000D01*
X52913752Y-59235000D02*
X52391248Y-59235000D01*
%TO.C,Digital_2*%
X68160000Y-74910000D02*
X68160000Y-73580000D01*
X69490000Y-74910000D02*
X68160000Y-74910000D01*
X70760000Y-72250000D02*
X88600000Y-72250000D01*
X70760000Y-74910000D02*
X70760000Y-72250000D01*
X70760000Y-74910000D02*
X88600000Y-74910000D01*
X88600000Y-74910000D02*
X88600000Y-72250000D01*
%TO.C,U3*%
X48225000Y-62960000D02*
X46275000Y-62960000D01*
X48225000Y-62960000D02*
X50175000Y-62960000D01*
X48225000Y-68080000D02*
X46275000Y-68080000D01*
X48225000Y-68080000D02*
X50175000Y-68080000D01*
X45525000Y-63055000D02*
X45285000Y-62725000D01*
X45765000Y-62725000D01*
X45525000Y-63055000D01*
G36*
X45525000Y-63055000D02*
G01*
X45285000Y-62725000D01*
X45765000Y-62725000D01*
X45525000Y-63055000D01*
G37*
%TO.C,R2*%
X31960000Y-60702936D02*
X31960000Y-61157064D01*
X33430000Y-60702936D02*
X33430000Y-61157064D01*
%TD*%
M02*
