%TF.GenerationSoftware,KiCad,Pcbnew,8.0.2-1*%
%TF.CreationDate,2024-05-16T23:12:18-04:00*%
%TF.ProjectId,ORA_Arduino_ESP_CAN_Shield,4f52415f-4172-4647-9569-6e6f5f455350,rev?*%
%TF.SameCoordinates,Original*%
%TF.FileFunction,Profile,NP*%
%FSLAX46Y46*%
G04 Gerber Fmt 4.6, Leading zero omitted, Abs format (unit mm)*
G04 Created by KiCad (PCBNEW 8.0.2-1) date 2024-05-16 23:12:18*
%MOMM*%
%LPD*%
G01*
G04 APERTURE LIST*
%TA.AperFunction,Profile*%
%ADD10C,0.050000*%
%TD*%
G04 APERTURE END LIST*
D10*
X92300000Y-60670000D02*
X92360000Y-60610000D01*
X89820000Y-63150000D02*
X89820000Y-63270000D01*
X92270000Y-60700000D02*
X92300000Y-60670000D01*
X23780000Y-22770000D02*
X23780000Y-75960000D01*
X89820000Y-74310000D02*
X89820000Y-63270000D01*
X23780000Y-76110000D02*
X88190000Y-76110000D01*
X89820000Y-25310000D02*
X89820000Y-22900000D01*
X75330000Y-22770000D02*
X23780000Y-22770000D01*
X88510000Y-75900000D02*
X89720000Y-74690000D01*
X92360000Y-27850000D02*
X92160000Y-27650000D01*
X88300000Y-76110000D02*
X88190000Y-76110000D01*
X92160000Y-27650000D02*
X89820000Y-25310000D01*
X23780000Y-75960000D02*
X23780000Y-76110000D01*
X89820000Y-22900000D02*
X89820000Y-22770000D01*
X89930000Y-63040000D02*
X92270000Y-60700000D01*
X89820000Y-22770000D02*
X89630000Y-22770000D01*
X89820000Y-74590000D02*
X89820000Y-74510000D01*
X92360000Y-28010000D02*
X92360000Y-27850000D01*
X89720000Y-74690000D02*
X89820000Y-74590000D01*
X89820000Y-74310000D02*
X89820000Y-74510000D01*
X89930000Y-63040000D02*
X89820000Y-63150000D01*
X88510000Y-75900000D02*
X88300000Y-76110000D01*
X92360000Y-60610000D02*
X92360000Y-28010000D01*
X89630000Y-22770000D02*
X75330000Y-22770000D01*
M02*
