M48
; DRILL file {KiCad 8.0.2-1} date 2024-05-16T23:12:17-0400
; FORMAT={-:-/ absolute / inch / decimal}
; #@! TF.CreationDate,2024-05-16T23:12:17-04:00
; #@! TF.GenerationSoftware,Kicad,Pcbnew,8.0.2-1
; #@! TF.FileFunction,Plated,1,2,PTH
FMAT,2
INCH
; #@! TA.AperFunction,Plated,PTH,ViaDrill
T1C0.0118
; #@! TA.AperFunction,Plated,PTH,ComponentDrill
T2C0.0315
; #@! TA.AperFunction,Plated,PTH,ComponentDrill
T3C0.0394
; #@! TA.AperFunction,Plated,PTH,ComponentDrill
T4C0.0512
%
G90
G05
T1
X1.0179Y-2.3437
X1.1289Y-2.3736
X1.2031Y-2.0268
X1.2844Y-2.4339
X1.3793Y-2.5626
X1.5813Y-2.6146
X1.5837Y-1.8598
X1.6285Y-2.6394
X1.6372Y-2.2303
X1.788Y-2.2748
X1.8766Y-2.7768
X1.9884Y-2.2378
X2.1565Y-2.3752
X2.1707Y-2.2386
X2.4976Y-2.0268
X2.7378Y-1.9004
X2.7998Y-2.0909
X2.9018Y-2.2646
T2
X1.097Y-1.3776
X1.097Y-1.5697
T3
X1.3374Y-1.1441
X1.3374Y-2.1441
X1.4374Y-1.1441
X1.4374Y-2.1441
X1.5374Y-1.1441
X1.5374Y-2.1441
X1.6374Y-1.1441
X1.6374Y-2.1441
X1.6756Y-2.8969
X1.7374Y-1.1441
X1.7374Y-2.1441
X1.7756Y-2.8969
X1.8374Y-1.1441
X1.8374Y-2.1441
X1.8756Y-2.8969
X1.9374Y-1.1441
X1.9374Y-2.1441
X1.9756Y-2.8969
X2.036Y-0.9969
X2.0374Y-1.1441
X2.0374Y-2.1441
X2.0756Y-2.8969
X2.136Y-0.9969
X2.1374Y-1.1441
X2.1374Y-2.1441
X2.1756Y-2.8969
X2.236Y-0.9969
X2.2374Y-1.1441
X2.2374Y-2.1441
X2.2756Y-2.8969
X2.336Y-0.9969
X2.3374Y-1.1441
X2.3374Y-2.1441
X2.3756Y-2.8969
X2.436Y-0.9969
X2.4374Y-1.1441
X2.4374Y-2.1441
X2.4756Y-2.8969
X2.536Y-0.9969
X2.5374Y-1.1441
X2.5374Y-2.1441
X2.5756Y-2.8969
X2.636Y-0.9969
X2.6374Y-1.1441
X2.6374Y-2.1441
X2.7358Y-2.8969
X2.736Y-0.9969
X2.7374Y-1.1441
X2.7374Y-2.1441
X2.8358Y-2.8969
X2.9358Y-0.9965
X2.9358Y-2.8969
X3.0358Y-0.9965
X3.0358Y-2.8969
X3.1358Y-0.9965
X3.1358Y-2.8969
X3.2358Y-0.9965
X3.2358Y-2.8969
X3.3358Y-0.9965
X3.3358Y-2.8969
X3.4358Y-0.9965
X3.4358Y-2.8969
T4
X3.3047Y-1.3035
X3.3047Y-1.5004
X3.3067Y-1.8669
X3.3067Y-2.0638
M30
