%TF.GenerationSoftware,KiCad,Pcbnew,8.0.2-1*%
%TF.CreationDate,2024-05-16T23:31:02-04:00*%
%TF.ProjectId,ORA_Arduino_ESP_CAN_Shield_Rev_1,4f52415f-4172-4647-9569-6e6f5f455350,rev?*%
%TF.SameCoordinates,Original*%
%TF.FileFunction,Soldermask,Bot*%
%TF.FilePolarity,Negative*%
%FSLAX46Y46*%
G04 Gerber Fmt 4.6, Leading zero omitted, Abs format (unit mm)*
G04 Created by KiCad (PCBNEW 8.0.2-1) date 2024-05-16 23:31:02*
%MOMM*%
%LPD*%
G01*
G04 APERTURE LIST*
G04 Aperture macros list*
%AMRoundRect*
0 Rectangle with rounded corners*
0 $1 Rounding radius*
0 $2 $3 $4 $5 $6 $7 $8 $9 X,Y pos of 4 corners*
0 Add a 4 corners polygon primitive as box body*
4,1,4,$2,$3,$4,$5,$6,$7,$8,$9,$2,$3,0*
0 Add four circle primitives for the rounded corners*
1,1,$1+$1,$2,$3*
1,1,$1+$1,$4,$5*
1,1,$1+$1,$6,$7*
1,1,$1+$1,$8,$9*
0 Add four rect primitives between the rounded corners*
20,1,$1+$1,$2,$3,$4,$5,0*
20,1,$1+$1,$4,$5,$6,$7,0*
20,1,$1+$1,$6,$7,$8,$9,0*
20,1,$1+$1,$8,$9,$2,$3,0*%
G04 Aperture macros list end*
%ADD10R,1.700000X1.700000*%
%ADD11O,1.700000X1.700000*%
%ADD12RoundRect,0.150000X0.875000X0.150000X-0.875000X0.150000X-0.875000X-0.150000X0.875000X-0.150000X0*%
%ADD13R,2.600000X2.600000*%
%ADD14C,2.600000*%
%ADD15C,1.500000*%
G04 APERTURE END LIST*
D10*
%TO.C,Digital_1*%
X41695000Y-74670000D03*
D11*
X44235000Y-74670000D03*
X46775000Y-74670000D03*
X49315000Y-74670000D03*
X51855000Y-74670000D03*
X54395000Y-74670000D03*
X56935000Y-74670000D03*
X59475000Y-74670000D03*
X62015000Y-74670000D03*
X64555000Y-74670000D03*
%TD*%
D10*
%TO.C,Power_1*%
X51715000Y-25320000D03*
D11*
X54255000Y-25320000D03*
X56795000Y-25320000D03*
X59335000Y-25320000D03*
X61875000Y-25320000D03*
X64415000Y-25320000D03*
X66955000Y-25320000D03*
X69495000Y-25320000D03*
%TD*%
D10*
%TO.C,Analog_1*%
X74495000Y-25300000D03*
D11*
X77035000Y-25300000D03*
X79575000Y-25300000D03*
X82115000Y-25300000D03*
X84655000Y-25300000D03*
X87195000Y-25300000D03*
%TD*%
D10*
%TO.C,Digital_2*%
X68545000Y-74690000D03*
D11*
X71085000Y-74690000D03*
X73625000Y-74690000D03*
X76165000Y-74690000D03*
X78705000Y-74690000D03*
X81245000Y-74690000D03*
X83785000Y-74690000D03*
X86325000Y-74690000D03*
%TD*%
D12*
%TO.C,U2*%
X37975000Y-57730000D03*
X37975000Y-59000000D03*
X37975000Y-60270000D03*
X37975000Y-61540000D03*
X37975000Y-62810000D03*
X37975000Y-64080000D03*
X37975000Y-65350000D03*
X37975000Y-66620000D03*
X37975000Y-67890000D03*
X28675000Y-67890000D03*
X28675000Y-66620000D03*
X28675000Y-65350000D03*
X28675000Y-64080000D03*
X28675000Y-62810000D03*
X28675000Y-61540000D03*
X28675000Y-60270000D03*
X28675000Y-59000000D03*
X28675000Y-57730000D03*
%TD*%
D10*
%TO.C,EN_1*%
X69530000Y-54460000D03*
D11*
X66990000Y-54460000D03*
X64450000Y-54460000D03*
X61910000Y-54460000D03*
X59370000Y-54460000D03*
X56830000Y-54460000D03*
X54290000Y-54460000D03*
X51750000Y-54460000D03*
X49210000Y-54460000D03*
X46670000Y-54460000D03*
X44130000Y-54460000D03*
X41590000Y-54460000D03*
X39050000Y-54460000D03*
X36510000Y-54460000D03*
X33970000Y-54460000D03*
%TD*%
D13*
%TO.C,J1*%
X83990000Y-47420000D03*
D14*
X83990000Y-52420000D03*
%TD*%
D13*
%TO.C,J2*%
X83940000Y-33110000D03*
D14*
X83940000Y-38110000D03*
%TD*%
D10*
%TO.C,BOOT_1*%
X33970000Y-29060000D03*
D11*
X36510000Y-29060000D03*
X39050000Y-29060000D03*
X41590000Y-29060000D03*
X44130000Y-29060000D03*
X46670000Y-29060000D03*
X49210000Y-29060000D03*
X51750000Y-29060000D03*
X54290000Y-29060000D03*
X56830000Y-29060000D03*
X59370000Y-29060000D03*
X61910000Y-29060000D03*
X64450000Y-29060000D03*
X66990000Y-29060000D03*
X69530000Y-29060000D03*
%TD*%
D15*
%TO.C,Y1*%
X27865000Y-39870000D03*
X27865000Y-34990000D03*
%TD*%
M02*
