M48
; DRILL file {KiCad 8.0.2-1} date 2024-05-15T16:31:39-0400
; FORMAT={-:-/ absolute / inch / decimal}
; #@! TF.CreationDate,2024-05-15T16:31:39-04:00
; #@! TF.GenerationSoftware,Kicad,Pcbnew,8.0.2-1
; #@! TF.FileFunction,Plated,1,2,PTH
FMAT,2
INCH
; #@! TA.AperFunction,Plated,PTH,ViaDrill
T1C0.0118
; #@! TA.AperFunction,Plated,PTH,ComponentDrill
T2C0.0315
; #@! TA.AperFunction,Plated,PTH,ComponentDrill
T3C0.0394
; #@! TA.AperFunction,Plated,PTH,ComponentDrill
T4C0.0512
%
G90
G05
T1
X1.0179Y-2.3437
X1.1289Y-2.3736
X1.2844Y-2.4339
X1.3376Y-2.1835
X1.3793Y-2.5626
X1.5813Y-2.6146
X1.5837Y-1.8598
X1.6285Y-2.6394
X1.6372Y-2.2303
X1.788Y-2.2748
X1.8766Y-2.7768
X1.9884Y-2.2378
X2.1565Y-2.3752
X2.1707Y-2.2386
X2.7998Y-2.0909
X2.9018Y-2.2646
T2
X1.097Y-1.3776
X1.097Y-1.5697
T3
X1.3215Y-2.1177
X1.3234Y-1.2232
X1.4215Y-2.1177
X1.4234Y-1.2232
X1.5215Y-2.1177
X1.5234Y-1.2232
X1.6215Y-2.1177
X1.6234Y-1.2232
X1.6415Y-2.9398
X1.7215Y-2.1177
X1.7234Y-1.2232
X1.7415Y-2.9398
X1.8215Y-2.1177
X1.8234Y-1.2232
X1.8415Y-2.9398
X1.9215Y-2.1177
X1.9234Y-1.2232
X1.9415Y-2.9398
X2.0215Y-2.1177
X2.0234Y-1.2232
X2.036Y-0.9969
X2.0415Y-2.9398
X2.1215Y-2.1177
X2.1234Y-1.2232
X2.136Y-0.9969
X2.1415Y-2.9398
X2.2215Y-2.1177
X2.2234Y-1.2232
X2.236Y-0.9969
X2.2415Y-2.9398
X2.3215Y-2.1177
X2.3234Y-1.2232
X2.336Y-0.9969
X2.3415Y-2.9398
X2.4215Y-2.1177
X2.4234Y-1.2232
X2.436Y-0.9969
X2.4415Y-2.9398
X2.5215Y-2.1177
X2.5234Y-1.2232
X2.536Y-0.9969
X2.5415Y-2.9398
X2.6215Y-2.1177
X2.6234Y-1.2232
X2.636Y-0.9969
X2.6986Y-2.9406
X2.7215Y-2.1177
X2.7234Y-1.2232
X2.736Y-0.9969
X2.7986Y-2.9406
X2.8986Y-2.9406
X2.9329Y-0.9961
X2.9986Y-2.9406
X3.0329Y-0.9961
X3.0986Y-2.9406
X3.1329Y-0.9961
X3.1986Y-2.9406
X3.2329Y-0.9961
X3.2986Y-2.9406
X3.3329Y-0.9961
X3.3986Y-2.9406
X3.4329Y-0.9961
T4
X3.3047Y-1.3035
X3.3047Y-1.5004
X3.3067Y-1.8669
X3.3067Y-2.0638
M30
